<svg id="Groupe_2190" data-name="Groupe 2190" xmlns="http://www.w3.org/2000/svg" xmlns:xlink="http://www.w3.org/1999/xlink" width="30.862" height="30.864" viewBox="0 0 30.862 30.864">
  <defs>
    <clipPath id="clip-path">
      <rect id="Rectangle_154" data-name="Rectangle 154" width="30.862" height="30.864" fill="#fff"/>
    </clipPath>
  </defs>
  <g id="Groupe_266" data-name="Groupe 266" transform="translate(0 0)" clip-path="url(#clip-path)">
    <path id="Tracé_118" data-name="Tracé 118" d="M0,27.607V3.255A.677.677,0,0,0,.056,3.12,3.579,3.579,0,0,1,1.89.508,9.117,9.117,0,0,1,3.255,0H27.607a.449.449,0,0,0,.106.051,3.732,3.732,0,0,1,3.149,3.793q0,11.6,0,23.2a3.739,3.739,0,0,1-3.8,3.815q-3.39,0-6.78,0a.923.923,0,0,1-1.048-1.053c0-3.576.012-7.151-.01-10.727a1.019,1.019,0,0,1,1.109-1.112c.913.021,1.828.005,2.742.005h.309V15.412h-.347c-.924,0-1.848.007-2.772,0a.936.936,0,0,1-1.031-1.053q0-1.748,0-3.5a1.023,1.023,0,0,1,1.088-1.094c.874,0,1.748,0,2.621,0h.444V7.191c-.083-.006-.151-.014-.219-.014-.944,0-1.888-.006-2.832,0a3.953,3.953,0,0,0-.807.084,3.616,3.616,0,0,0-2.888,3.59c-.007,1.145-.026,2.291.008,3.435a1.006,1.006,0,0,1-1.124,1.125c-.9-.019-1.808,0-2.712,0-.107,0-.213.009-.319.014v2.551c1.05,0,2.074,0,3.1,0a.936.936,0,0,1,1.047,1.037q0,5.424,0,10.847a.909.909,0,0,1-1.01,1c-3.957,0-7.915.008-11.872,0A3.547,3.547,0,0,1,.543,29.022,8.748,8.748,0,0,1,0,27.607M21.072,13.565h.339q1.386,0,2.773,0a.949.949,0,0,1,1.067,1.052q0,2.079,0,4.159a.951.951,0,0,1-1.044,1.048c-.934,0-1.868,0-2.8,0h-.334c-.006.108-.014.176-.014.245,0,2.893,0,5.786-.007,8.679,0,.262.105.29.32.289,1.848-.006,3.7,0,5.545-.007a2.665,2.665,0,0,0,.684-.079,1.933,1.933,0,0,0,1.437-2.068q0-11.452,0-22.9a2.777,2.777,0,0,0-.079-.714,1.932,1.932,0,0,0-2.066-1.439q-11.452,0-22.9,0a2.792,2.792,0,0,0-.714.078A1.933,1.933,0,0,0,1.828,3.973q0,11.452,0,22.9a2.806,2.806,0,0,0,.077.714A1.924,1.924,0,0,0,3.94,29.033c3.516,0,7.032,0,10.548.008.279,0,.328-.091.327-.344q-.012-4.279-.005-8.559v-.313h-.37c-.924,0-1.848,0-2.772,0a.949.949,0,0,1-1.053-1.04q0-2.094,0-4.189a.938.938,0,0,1,1.028-1.03c.944,0,1.889,0,2.833,0,.105,0,.21-.01.334-.015,0-.867-.017-1.7.006-2.531a7.553,7.553,0,0,1,.151-1.491,5.394,5.394,0,0,1,5.116-4.161c1.366-.018,2.732-.013,4.1-.012a.944.944,0,0,1,1.069,1.075q0,2.034,0,4.068c0,.753-.346,1.1-1.107,1.1-.914,0-1.828,0-2.742,0-.107,0-.214.01-.329.016Z" fill="#fff"/>
  </g>
</svg>
