<svg id="Groupe_2188" data-name="Groupe 2188" xmlns="http://www.w3.org/2000/svg" xmlns:xlink="http://www.w3.org/1999/xlink" width="727.7" height="396.77" viewBox="0 0 727.7 396.77">
  <defs>
    <clipPath id="clip-path">
      <rect id="Rectangle_5066" data-name="Rectangle 5066" width="727.7" height="396.77" fill="none"/>
    </clipPath>
    <clipPath id="clip-path-3">
      <rect id="Rectangle_5059" data-name="Rectangle 5059" width="110.711" height="98.494" fill="none"/>
    </clipPath>
  </defs>
  <g id="Groupe_2187" data-name="Groupe 2187" clip-path="url(#clip-path)">
    <rect id="Rectangle_5050" data-name="Rectangle 5050" width="169.201" height="114.022" transform="translate(37.566 113.922)" fill="#fff"/>
    <path id="Tracé_9316" data-name="Tracé 9316" d="M203.833,217.855H33.54V102.73H203.833Zm-169.19-1.1H202.73V103.834H34.644Z" transform="translate(3.474 10.641)" fill="#ebebeb"/>
    <g id="Groupe_2186" data-name="Groupe 2186">
      <g id="Groupe_2185" data-name="Groupe 2185" clip-path="url(#clip-path)">
        <path id="Tracé_9317" data-name="Tracé 9317" d="M49.581,111.416a3.9,3.9,0,1,1-3.9-3.9,3.9,3.9,0,0,1,3.9,3.9" transform="translate(4.329 11.137)" fill="#37474f"/>
        <path id="Tracé_9318" data-name="Tracé 9318" d="M64,111.416a3.9,3.9,0,1,1-3.9-3.9,3.9,3.9,0,0,1,3.9,3.9" transform="translate(5.822 11.137)" fill="#ebebeb"/>
        <path id="Tracé_9319" data-name="Tracé 9319" d="M78.433,111.416a3.907,3.907,0,1,1-3.918-3.9h.022a3.9,3.9,0,0,1,3.9,3.9" transform="translate(7.315 11.137)" fill="#10a35f"/>
        <rect id="Rectangle_5051" data-name="Rectangle 5051" width="169.201" height="1.104" transform="translate(37.566 130.553)" fill="#ebebeb"/>
        <rect id="Rectangle_5052" data-name="Rectangle 5052" width="169.201" height="114.022" transform="translate(547.408 193.468)" fill="#fff"/>
        <path id="Tracé_9320" data-name="Tracé 9320" d="M665.834,289.935H495.53V174.81h170.3Zm-169.2-1.1h168.1V175.914h-168.1Z" transform="translate(51.326 18.107)" fill="#ebebeb"/>
        <circle id="Ellipse_51" data-name="Ellipse 51" cx="3.896" cy="3.896" r="3.896" transform="translate(555.961 198.203)" fill="#37474f"/>
        <path id="Tracé_9321" data-name="Tracé 9321" d="M525.991,183.5a3.879,3.879,0,1,1,0-.033v.033" transform="translate(53.675 18.603)" fill="#ebebeb"/>
        <circle id="Ellipse_52" data-name="Ellipse 52" cx="3.896" cy="3.896" r="3.896" transform="matrix(0.995, -0.099, 0.099, 0.995, 587.445, 198.606)" fill="#10a35f"/>
        <rect id="Rectangle_5053" data-name="Rectangle 5053" width="169.201" height="1.104" transform="translate(547.408 210.099)" fill="#ebebeb"/>
        <path id="Tracé_9322" data-name="Tracé 9322" d="M148.179,206.306a17.9,17.9,0,0,1-17.889,17.912h-.938l-31.871.066a17.922,17.922,0,0,1,0-35.833h32.787a17.921,17.921,0,0,1,17.911,17.855" transform="translate(8.287 19.52)" fill="#a6a6a6"/>
        <path id="Tracé_9323" data-name="Tracé 9323" d="M96.02,205.864A3.592,3.592,0,0,1,96.649,204c.155-.255.331-.5.5-.739l1.1-1.1c.408-.3.828-.619,1.247-.895a15.563,15.563,0,0,1,5.683-2.207,36.11,36.11,0,0,1,14.1,0,15.611,15.611,0,0,1,5.6,2.207c.452.3.872.63,1.3.938l1.1,1.038a13.422,13.422,0,0,1,.761,1.246,10.541,10.541,0,0,1,.452,1.346h-9.226a.375.375,0,0,1-.43-.142A3.1,3.1,0,0,0,116.215,204a63.3,63.3,0,0,0-8.056,0,3.076,3.076,0,0,0-2.627,1.688c-.077.121-.132.21-.309.21H96.031Z" transform="translate(9.946 20.546)" fill="#fff"/>
        <path id="Tracé_9324" data-name="Tracé 9324" d="M96.011,210.2v-3.387h9.127v3.343a1.016,1.016,0,0,1-.848,1.16,1.131,1.131,0,0,1-.311,0h-6.8a1.015,1.015,0,0,1-1.163-.842,1.034,1.034,0,0,1-.007-.274" transform="translate(9.944 21.421)" fill="#fff"/>
        <path id="Tracé_9325" data-name="Tracé 9325" d="M117.071,210.242c0-1.1,0-2.284.088-3.421h8.994v3.4a.993.993,0,0,1-.869,1.1,1.047,1.047,0,0,1-.235,0h-6.886a.982.982,0,0,1-1.091-.86.994.994,0,0,1,0-.222" transform="translate(12.125 21.422)" fill="#fff"/>
        <path id="Tracé_9326" data-name="Tracé 9326" d="M646.4,183.937a5,5,0,0,1,0-5.209c.265-.43.519-.884.761-1.336s.475-.915.7-1.379a4.956,4.956,0,0,1,4.293-2.9l6.4-.2-.651-20.834-6.434.188a4.9,4.9,0,0,1-4.414-2.627,28.728,28.728,0,0,0-1.6-2.582,5.033,5.033,0,0,1-.364-5.221l3.024-5.627-18.386-9.867-3.013,5.629a5.018,5.018,0,0,1-4.558,2.592,27.855,27.855,0,0,0-3.035.1,4.944,4.944,0,0,1-4.657-2.207l-3.4-5.518-17.723,11.036,3.388,5.518a4.846,4.846,0,0,1,0,5.1c-.276.464-.541.926-.795,1.413s-.508.959-.728,1.445a4.876,4.876,0,0,1-4.282,2.825l-6.4.2.64,20.847,6.39-.21a4.908,4.908,0,0,1,4.414,2.526,30.482,30.482,0,0,0,1.744,2.825,4.858,4.858,0,0,1,.276,5.1l-3.013,5.627,18.441,9.757,3.013-5.629a5,5,0,0,1,4.558-2.581,28.344,28.344,0,0,0,3.046-.1,4.941,4.941,0,0,1,4.657,2.261l3.388,5.464L649.8,189.322Zm-30.9-4.305a36.176,36.176,0,1,1,.022,0Z" transform="translate(60.544 13.086)" fill="#ebebeb"/>
        <path id="Tracé_9327" data-name="Tracé 9327" d="M578.3,125.495a3.49,3.49,0,0,1-1.7-3.222v-2.207a3.456,3.456,0,0,1,1.688-3.211l3.885-2.207L574.884,102,571,104.207a3.487,3.487,0,0,1-3.642-.132,20.01,20.01,0,0,0-1.887-1.1,3.454,3.454,0,0,1-1.92-3.079V95.411H548.938v4.481a3.454,3.454,0,0,1-1.92,3.079,18.682,18.682,0,0,0-1.876,1.1,3.487,3.487,0,0,1-3.653.132L537.616,102l-7.306,12.658,3.9,2.207a3.465,3.465,0,0,1,1.7,3.211v2.207a3.475,3.475,0,0,1-1.711,3.222l-3.885,2.207,7.306,12.647,3.863-2.207a3.465,3.465,0,0,1,3.642.121,21.683,21.683,0,0,0,1.9,1.1,3.475,3.475,0,0,1,1.92,3.09v4.469H563.55v-4.525a3.475,3.475,0,0,1,1.92-3.09,20.318,20.318,0,0,0,1.9-1.1,3.465,3.465,0,0,1,3.642-.121l3.874,2.207,7.295-12.647Zm-22.072,7.725a5339735.758,5339735.758,0,1,0,.055-.055h-.033Z" transform="translate(54.929 9.883)" fill="#ebebeb"/>
        <path id="Tracé_9328" data-name="Tracé 9328" d="M93.57,95.04l7.295,12.648,3.874-2.207a3.482,3.482,0,0,1,3.642.132,20.573,20.573,0,0,0,1.9,1.1,3.464,3.464,0,0,1,1.92,3.078v4.481h14.622v-4.481a3.464,3.464,0,0,1,1.92-3.078q.977-.5,1.9-1.1a3.482,3.482,0,0,1,3.642-.132l3.874,2.207,7.284-12.648-3.885-2.207a3.477,3.477,0,0,1-1.711-3.311V87.315a3.466,3.466,0,0,1,1.7-3.21l3.9-2.207-7.295-12.658-3.885,2.207a3.487,3.487,0,0,1-3.642-.134,20.253,20.253,0,0,0-1.887-1.1,3.462,3.462,0,0,1-1.92-3.078V62.651H112.2v4.481a3.464,3.464,0,0,1-1.92,3.078,20.252,20.252,0,0,0-1.887,1.1,3.487,3.487,0,0,1-3.642.134l-3.885-2.207L93.57,81.9,97.455,84.1a3.455,3.455,0,0,1,1.688,3.21v2.207a3.49,3.49,0,0,1-1.7,3.224Zm13.96-6.621A11.974,11.974,0,1,1,119.5,100.392h-.011A11.962,11.962,0,0,1,107.53,88.43Z" transform="translate(9.692 6.489)" fill="#ebebeb"/>
        <path id="Tracé_9329" data-name="Tracé 9329" d="M243.753,78.651a64.9,64.9,0,1,1,47.3,78.659,64.9,64.9,0,0,1-47.3-78.659" transform="translate(25.047 3.047)" fill="#ebebeb"/>
        <path id="Tracé_9330" data-name="Tracé 9330" d="M257.192,80.813A49.539,49.539,0,1,1,293.213,140.9a49.54,49.54,0,0,1-36.021-60.091" transform="translate(26.485 4.485)" fill="#fff"/>
        <path id="Tracé_9331" data-name="Tracé 9331" d="M269.632,82.9a35.4,35.4,0,1,1,25.674,42.983A35.4,35.4,0,0,1,269.632,82.9" transform="translate(27.816 5.815)" fill="#ebebeb"/>
        <path id="Tracé_9332" data-name="Tracé 9332" d="M283.487,85.235a19.566,19.566,0,1,1,14.152,23.779,19.567,19.567,0,0,1-14.152-23.779" transform="translate(29.3 7.3)" fill="#fff"/>
        <path id="Tracé_9333" data-name="Tracé 9333" d="M292.894,86.877a8.851,8.851,0,1,1,6.389,10.763,8.851,8.851,0,0,1-6.389-10.763" transform="translate(30.309 8.308)" fill="#ebebeb"/>
        <rect id="Rectangle_5054" data-name="Rectangle 5054" width="105.138" height="2.527" transform="translate(335.978 91.344) rotate(-45)" fill="#c7c7c7"/>
        <path id="Tracé_9334" data-name="Tracé 9334" d="M310.332,86.529l-9.712,2.6,2.593-9.723Z" transform="translate(31.138 8.225)" fill="#a6a6a6"/>
        <path id="Tracé_9335" data-name="Tracé 9335" d="M386.225,12.544,372.286,26.482,361.35,29.815l3.333-10.925L378.632,4.941l-3.344,10.936Z" transform="translate(37.428 0.512)" fill="#a6a6a6"/>
        <path id="Tracé_9336" data-name="Tracé 9336" d="M0,329.072l90.968-.265,90.957-.1,181.925-.188,181.925.188,90.957.1,90.968.265-90.968.276-90.957.088-181.925.188-181.925-.188-90.957-.1Z" transform="translate(0 34.028)" fill="#263238"/>
        <path id="Tracé_9337" data-name="Tracé 9337" d="M223.959,344.616H71.875L60.1,241.321H212.184Z" transform="translate(6.225 24.996)" fill="#37474f"/>
        <path id="Tracé_9338" data-name="Tracé 9338" d="M214.894,337.035H77.807L67.61,247.6H204.7Z" transform="translate(7.003 25.646)" fill="#fff"/>
        <rect id="Rectangle_5055" data-name="Rectangle 5055" width="156.101" height="6.93" transform="translate(160.052 362.68)" fill="#37474f"/>
        <rect id="Rectangle_5056" data-name="Rectangle 5056" width="78.564" height="6.93" transform="translate(237.578 362.68)" fill="#263238"/>
        <path id="Tracé_9339" data-name="Tracé 9339" d="M165.767,247.6,77.029,336.339,74.38,313.131,139.9,247.6Z" transform="translate(7.704 25.646)" fill="#ebebeb"/>
        <path id="Tracé_9340" data-name="Tracé 9340" d="M203.31,312.36l-20.372,20.372H157.07l43.591-43.591Z" transform="translate(16.269 29.949)" fill="#ebebeb"/>
        <path id="Tracé_9341" data-name="Tracé 9341" d="M84.515,247.6l-15.24,15.24-.9-7.913L75.7,247.6Z" transform="translate(7.082 25.646)" fill="#ebebeb"/>
        <path id="Tracé_9342" data-name="Tracé 9342" d="M201.35,276.364l-58.512,58.512H134.01l66.435-66.435Z" transform="translate(13.881 27.805)" fill="#ebebeb"/>
        <path id="Tracé_9343" data-name="Tracé 9343" d="M95.841,247.6l-25.57,25.57-.221-1.986L93.633,247.6Z" transform="translate(7.256 25.646)" fill="#ebebeb"/>
        <path id="Tracé_9344" data-name="Tracé 9344" d="M177.281,247.6,87.847,337.035H85.64L175.074,247.6Z" transform="translate(8.871 25.646)" fill="#ebebeb"/>
        <path id="Tracé_9345" data-name="Tracé 9345" d="M200.606,263.957l-71.589,71.589H126.81l73.576-73.576Z" transform="translate(13.135 27.135)" fill="#ebebeb"/>
        <path id="Tracé_9346" data-name="Tracé 9346" d="M450,344.616H602.1l11.764-103.295H461.775Z" transform="translate(46.611 24.996)" fill="#37474f"/>
        <path id="Tracé_9347" data-name="Tracé 9347" d="M457.51,337.035h137.1L604.794,247.6H467.707Z" transform="translate(47.388 25.646)" fill="#fff"/>
        <rect id="Rectangle_5057" data-name="Rectangle 5057" width="156.101" height="6.93" transform="translate(410.653 362.68)" fill="#37474f"/>
        <rect id="Rectangle_5058" data-name="Rectangle 5058" width="78.564" height="6.93" transform="translate(410.653 362.68)" fill="#263238"/>
        <path id="Tracé_9348" data-name="Tracé 9348" d="M592.543,278.99l-3.333,29.2-25.592,25.592H537.75Z" transform="translate(55.7 28.898)" fill="#ebebeb"/>
        <path id="Tracé_9349" data-name="Tracé 9349" d="M552.241,247.6l-89.423,89.434H457.51l2.649-23.208L526.384,247.6Z" transform="translate(47.388 25.646)" fill="#ebebeb"/>
        <path id="Tracé_9350" data-name="Tracé 9350" d="M493.343,247.6,463.69,277.254l1.137-9.965L484.515,247.6Z" transform="translate(48.029 25.646)" fill="#ebebeb"/>
        <path id="Tracé_9351" data-name="Tracé 9351" d="M588.173,247.6l-89.434,89.434H489.91L579.344,247.6Z" transform="translate(50.744 25.646)" fill="#ebebeb"/>
        <path id="Tracé_9352" data-name="Tracé 9352" d="M594.738,268.891l-.276,2.494-63.445,63.445H528.81Z" transform="translate(54.774 27.851)" fill="#ebebeb"/>
        <path id="Tracé_9353" data-name="Tracé 9353" d="M595.94,247.6l-89.423,89.434H504.31L593.744,247.6Z" transform="translate(52.236 25.646)" fill="#ebebeb"/>
        <path id="Tracé_9354" data-name="Tracé 9354" d="M517.134,247.6,460.94,303.795l.287-2.494,53.7-53.7Z" transform="translate(47.744 25.646)" fill="#ebebeb"/>
        <path id="Tracé_9355" data-name="Tracé 9355" d="M198.991,195.544c18.86,38.085,46.792,76.147,54.274,83.276,20.107,19.291,73.785,33.163,89.611,33.6,6.831.188,16.278-45.192,11.234-50.478s-71.313-19.71-74.867-22.425c-2.461-1.931-34.034-31.982-55-49.827-26.078-22.171-30.2-4.194-25.25,5.849" transform="translate(20.423 18.552)" fill="#f7a9a0"/>
        <path id="Tracé_9356" data-name="Tracé 9356" d="M339.527,255.766l-17.117,54.02s-56.084-14.755-71.093-29.19-46.1-66.1-52.166-83.144-2.119-30.492,25.382-8.387,50.82,44.717,55.687,48.359,59.306,18.342,59.306,18.342" transform="translate(20.373 18.387)" fill="#455a64"/>
        <path id="Tracé_9357" data-name="Tracé 9357" d="M310.383,250.679a2.759,2.759,0,1,0,2.309-3.145h0a2.759,2.759,0,0,0-2.306,3.145" transform="translate(32.146 25.636)" fill="#263238"/>
        <path id="Tracé_9358" data-name="Tracé 9358" d="M297.933,247.087a2.759,2.759,0,1,0,2.321-3.135l-.014,0a2.747,2.747,0,0,0-2.308,3.126v.007" transform="translate(30.856 25.265)" fill="#263238"/>
        <path id="Tracé_9359" data-name="Tracé 9359" d="M281.037,296.4c-12.283-4.767-23.992-10.318-29.719-15.8-15.009-14.347-46.1-66.1-52.166-83.144-3.885-10.892-3.675-20.317,4.16-19.931Z" transform="translate(20.372 18.386)" fill="#263238"/>
        <path id="Tracé_9360" data-name="Tracé 9360" d="M117.762,344.746H259.351c.574-5.175-28.561-149.446-42.433-167.533-2.969-3.875-12.757-4.944-21.067-3.908a37.575,37.575,0,0,0-6.412,1.3.942.942,0,0,1-.21.065,15.012,15.012,0,0,0-4.712,2.306c-23.142,18.507-67.87,166.5-66.755,167.766" transform="translate(12.196 17.912)" fill="#455a64"/>
        <path id="Tracé_9361" data-name="Tracé 9361" d="M197.17,207.491l6.026-11.72,7.769,8.475-1.9,8.442-7.681.982Z" transform="translate(20.423 20.278)" fill="#263238"/>
        <path id="Tracé_9362" data-name="Tracé 9362" d="M201.334,212.083l-3.664,86.223,16.156,28.517,8.387-32.092-13.2-83.629Z" transform="translate(20.474 21.866)" fill="#263238"/>
        <path id="Tracé_9363" data-name="Tracé 9363" d="M202.819,199.1c-2.207-.087-17.017-11.654-21.564-20.67-.309-.617.839-6.974,1.865-14.777.6-4.733,1.1-10.021,1.324-14.875,0-1.005,3.366.949,3.366.949l6.235,1.722,20.637,5.749s-3.311,10.088-3.576,18.563a11.782,11.782,0,0,0,.143,2.009,2.349,2.349,0,0,1,0,.33c.53,3.808-4.778,21.145-8.431,21" transform="translate(18.769 15.38)" fill="#f7a9a0"/>
        <path id="Tracé_9364" data-name="Tracé 9364" d="M210.808,177.529a2.364,2.364,0,0,1,0,.331,19.429,19.429,0,0,1-3.134.055c-20.516-1.1-22.2-27.325-22.2-27.325l8.1.618,20.637,5.75s-3.311,10.087-3.576,18.562a11.786,11.786,0,0,0,.177,2.009" transform="translate(19.211 15.598)" fill="#263238"/>
        <path id="Tracé_9365" data-name="Tracé 9365" d="M179.876,118.081c-3.1,10.87,3.211,42,11.036,48.822,11.334,9.932,29.609,10.506,37.93-3.068,8.067-13.144-.861-53.568-9.579-59.737-12.824-9.082-34.818-2.086-39.387,13.982" transform="translate(18.548 10.366)" fill="#f7a9a0"/>
        <path id="Tracé_9366" data-name="Tracé 9366" d="M207.817,132.813c0-.077-.143.132-.121.21.475,2.086.684,4.558-1.1,5.628-.055,0,0,.143,0,.121,2.329-.795,2.053-4.061,1.225-5.959" transform="translate(21.396 13.755)" fill="#263238"/>
        <path id="Tracé_9367" data-name="Tracé 9367" d="M205.838,131.161c-3.421.409-2.351,7.228.817,6.853s2.053-7.206-.817-6.853" transform="translate(21.102 13.584)" fill="#263238"/>
        <path id="Tracé_9368" data-name="Tracé 9368" d="M218.871,131.382c0-.087.177.067.188.156.265,2.13.927,4.514,2.947,4.911.066,0,.077.121,0,.121-2.384.043-3.222-3.135-3.134-5.188" transform="translate(22.67 13.606)" fill="#263238"/>
        <path id="Tracé_9369" data-name="Tracé 9369" d="M220.406,129.117c3.311-.795,4.7,5.981,1.589,6.71s-4.414-6.048-1.589-6.71" transform="translate(22.668 13.367)" fill="#263238"/>
        <path id="Tracé_9370" data-name="Tracé 9370" d="M202.962,129.209a24.335,24.335,0,0,0,2.494-1.345,4.579,4.579,0,0,0,2.284-1.854,1.469,1.469,0,0,0-.508-1.712,3.622,3.622,0,0,0-3.664.2,5.366,5.366,0,0,0-2.671,2.747,1.555,1.555,0,0,0,2.064,1.964" transform="translate(20.799 12.833)" fill="#263238"/>
        <path id="Tracé_9371" data-name="Tracé 9371" d="M222.728,126.012a26.123,26.123,0,0,1-2.814-.276,4.528,4.528,0,0,1-2.825-.838,1.435,1.435,0,0,1-.2-1.766,3.63,3.63,0,0,1,3.454-1.236,5.371,5.371,0,0,1,3.531,1.5,1.566,1.566,0,0,1-1.148,2.614" transform="translate(22.443 12.619)" fill="#263238"/>
        <path id="Tracé_9372" data-name="Tracé 9372" d="M208.768,150.863c.585.408,1.2,1.015,1.975.96a5.614,5.614,0,0,0,2.207-.894.078.078,0,0,1,.1.045.076.076,0,0,1,0,.054,2.87,2.87,0,0,1-2.494,1.567,2.294,2.294,0,0,1-1.964-1.611c-.055-.11.121-.188.177-.121" transform="translate(21.605 15.624)" fill="#263238"/>
        <path id="Tracé_9373" data-name="Tracé 9373" d="M216.732,146.294a8.658,8.658,0,0,1-3,3.19,3.824,3.824,0,0,1-2.306.508c-1.766-.178-2.042-1.711-1.942-3.09a9.282,9.282,0,0,1,.43-2.142,11.216,11.216,0,0,0,6.82,1.534" transform="translate(21.696 14.994)" fill="#fff"/>
        <path id="Tracé_9374" data-name="Tracé 9374" d="M209.877,147.1a7.315,7.315,0,0,0,5.33,2.417,9.13,9.13,0,0,0,2.615-.3,2.471,2.471,0,0,0,.486-.132,1.336,1.336,0,0,0,.452-.143.53.53,0,0,0,.342-.541.654.654,0,0,0-.055-.21V148c-.21-1.633-.761-4.083-.761-4.083.64.21,3.885,1.1,3.708.254-1.523-6.975-3.222-14.722-6.213-21.343a.2.2,0,0,0-.375.121c1.192,6.754,3.576,13.243,4.9,20.03a12.941,12.941,0,0,0-3.565-.508c-.221.11,1.1,4.723,1.181,5.463v.077c-2.682.784-4.878.276-7.813-1.1-.243-.132-.419.033-.232.188" transform="translate(21.731 12.711)" fill="#263238"/>
        <path id="Tracé_9375" data-name="Tracé 9375" d="M184.268,142.949c7.427-1.1,6.9-14.821,6.9-14.821s12.459-3.962,12.912-13.839c0,0,13.243,5.97,22.27,1.1s5.452-15.329,4.061-17.481-6.048,2.9-6.048,2.9-1.5-6.015-3.211-6.4-2.958,3.565-2.958,3.565-12.879-2.318-23.97-.375-14.965,14.015-14.965,14.015-5.772,2.13-7.085,6.621,7.35,25.382,12.1,24.709" transform="translate(17.82 9.777)" fill="#263238"/>
        <path id="Tracé_9376" data-name="Tracé 9376" d="M186.723,127.072c10.065-.132,15.66-7.648,15.715-17.315a.1.1,0,0,1,.127-.061.1.1,0,0,1,.061.061c.993,8.829-5.794,19.864-15.936,17.779a.232.232,0,0,1,.033-.464" transform="translate(19.316 11.362)" fill="#263238"/>
        <path id="Tracé_9377" data-name="Tracé 9377" d="M179.615,109.781a.11.11,0,0,1,.1.188c-2.582,1.688-5.606,3.1-7.184,5.9-1.9,3.388-.817,7.306.574,10.639,2.13,5.154,5.915,11.709,11.157,14.159.309.143.077.585-.221.464-6.246-2.549-10.9-11.091-12.614-17.282-1.92-6.93,1.887-11.621,8.189-14.071" transform="translate(17.704 11.371)" fill="#263238"/>
        <path id="Tracé_9378" data-name="Tracé 9378" d="M211.29,115.154c4.734,1.986,11.2,1.1,15.031-2.449,4.657-4.414,2.682-10.208-.3-14.877-.143-.22.177-.54.375-.33,3.719,3.94,4.944,10.571,1.247,14.965s-11.466,5.518-16.686,3.311c-.43-.143-.11-.807.331-.619" transform="translate(21.83 10.092)" fill="#263238"/>
        <path id="Tracé_9379" data-name="Tracé 9379" d="M207.033,145.72a9.183,9.183,0,1,1,2.24-.375,9.292,9.292,0,0,1-2.24.375m-.651-17.085a8.525,8.525,0,0,0-1.942.321,7.919,7.919,0,1,0,1.942-.321" transform="translate(20.459 13.197)" fill="#455a64"/>
        <path id="Tracé_9380" data-name="Tracé 9380" d="M225.653,142.708c-3.5.132-6.809-3.311-7.548-8.045a10.959,10.959,0,0,1,.927-6.621,6.072,6.072,0,0,1,4.414-3.476,6.006,6.006,0,0,1,5.242,1.964,11.04,11.04,0,0,1,2.9,6.026c.773,4.988-1.611,9.524-5.319,10.1a3.625,3.625,0,0,1-.618.055m-1.567-16.984h-.464a4.922,4.922,0,0,0-3.5,2.825,9.743,9.743,0,0,0-.806,5.882c.673,4.315,3.686,7.449,6.743,6.975s4.977-4.414,4.3-8.707a9.758,9.758,0,0,0-2.549-5.352,5.113,5.113,0,0,0-3.73-1.633Z" transform="translate(22.575 12.897)" fill="#455a64"/>
        <path id="Tracé_9381" data-name="Tracé 9381" d="M213.786,134.666l-.916-.806c1.192-1.367,4.116-3.409,6.7-1.389l-.75.959c-2.362-1.81-4.977,1.116-5.032,1.236" transform="translate(22.049 13.633)" fill="#455a64"/>
        <path id="Tracé_9382" data-name="Tracé 9382" d="M177.564,142.969l-1.1-.385c.177-.542,1.843-5.308,4.414-6.169s18.915-1.81,19.611-1.854l.077,1.225c-4.723.286-17.4,1.169-19.3,1.787s-3.256,4.1-3.7,5.4" transform="translate(18.278 13.938)" fill="#455a64"/>
        <path id="Tracé_9383" data-name="Tracé 9383" d="M188.67,140.353s-7.449-9.822-11.941-7.118,1.4,17.117,6.864,18.915a5.517,5.517,0,0,0,7.158-3.107c.017-.042.033-.085.049-.127Z" transform="translate(18.141 13.752)" fill="#f7a9a0"/>
        <path id="Tracé_9384" data-name="Tracé 9384" d="M178.217,136.9c-.088,0-.1.111,0,.145,3.84,1.379,5.959,4.8,7.493,8.365-1.181-1.346-2.737-2.053-4.558-.651a.121.121,0,0,0,.014.171.118.118,0,0,0,.1.028,3.377,3.377,0,0,1,3.752,1.037,15.6,15.6,0,0,1,1.887,2.924c.2.33.795.12.651-.265v-.078c-.166-4.812-4.16-11.4-9.336-11.676" transform="translate(18.452 14.18)" fill="#263238"/>
        <path id="Tracé_9385" data-name="Tracé 9385" d="M211.916,176.126l-7.372,18.088L182.208,171.37l-6.368,7.318s21.829,36.264,21.961,34.63l7.46-15.517,10.694,10.827L215.15,181.5Z" transform="translate(18.213 17.75)" fill="#455a64"/>
        <path id="Tracé_9386" data-name="Tracé 9386" d="M216.229,194.384c-.287-4.481-.452-8.994-.938-13.442a.155.155,0,0,0-.309,0c-.9,4.315.276,21.42.243,25.515-.441-.464-9.932-9.524-10.009-9.38-1.611,2.461-7.085,13.762-7.46,14.788-3.454-5.761-16.675-26.707-20.769-32.158a.155.155,0,0,0-.265.155c3.046,6.092,20.549,34.288,20.825,34.211a177.9,177.9,0,0,0,7.791-16.4c1.6,1.964,11.157,12.139,11.19,11.521a139.3,139.3,0,0,0-.3-14.81" transform="translate(18.303 18.608)" fill="#263238"/>
        <path id="Tracé_9387" data-name="Tracé 9387" d="M260.852,354.684,150.593,365.6l-.353-85.472L260.5,269.2Z" transform="translate(15.562 27.883)" fill="#10a35f"/>
        <path id="Tracé_9388" data-name="Tracé 9388" d="M186.237,267.3l-36.087,3.576.1,9.447,38.614-3.829Z" transform="translate(15.552 27.687)" fill="#10a35f"/>
        <g id="Groupe_2184" data-name="Groupe 2184" transform="translate(165.702 294.987)" opacity="0.1">
          <g id="Groupe_2183" data-name="Groupe 2183">
            <g id="Groupe_2182" data-name="Groupe 2182" clip-path="url(#clip-path-3)">
              <path id="Tracé_9389" data-name="Tracé 9389" d="M260.852,354.684,150.593,365.6l-.353-85.472L260.5,269.2Z" transform="translate(-150.141 -267.104)"/>
              <path id="Tracé_9390" data-name="Tracé 9390" d="M186.237,267.3l-36.087,3.576.1,9.447,38.614-3.829Z" transform="translate(-150.15 -267.3)"/>
            </g>
          </g>
        </g>
        <path id="Tracé_9391" data-name="Tracé 9391" d="M261.808,354.62,155.467,365.148,140.26,279.433l113.349-9.513Z" transform="translate(14.528 27.958)" fill="#ebebeb"/>
        <path id="Tracé_9392" data-name="Tracé 9392" d="M262.164,354.454,153.12,365.247l-16.3-82.382,114.629-11.345Z" transform="translate(14.172 28.124)" fill="#fff"/>
        <path id="Tracé_9393" data-name="Tracé 9393" d="M262.1,354.256l-110.49,10.936L135.48,284.587l110.5-10.936Z" transform="translate(14.033 28.344)" fill="#10a35f"/>
        <path id="Tracé_9394" data-name="Tracé 9394" d="M170.83,188.895c-37.687,34.211-64.89,93.142-64.008,109.023,1.1,20.968,39.111,56.856,63.864,67.241,6.257,2.627,30.47-48.624,21.31-51.294-9.667-2.814-32-23.076-33.107-24-2.318-1.964,15.693-46.8,23.23-74.016,8.442-30.736,4.569-41.341-11.29-26.95" transform="translate(11.062 18.909)" fill="#f7a9a0"/>
        <path id="Tracé_9395" data-name="Tracé 9395" d="M151.97,345.176c23.981,17.3,56.558,21.056,62.176,20.482,4.8-.475,7.262-.761,7.262-.761,8.619-.673,11.709-4.756,11.709-4.756s10.2,2.141,12.515-3.8c2.627-6.621-12.206-8.376-19.776-14.347C208.5,328.413,187.616,304.244,183,299.83Z" transform="translate(15.741 31.056)" fill="#f7a9a0"/>
        <path id="Tracé_9396" data-name="Tracé 9396" d="M193.411,336.764c5.187,3.9,10.186,7.857,15.869,11.036,6.246,3.476,12.835,5.783,19.489,8.3a.177.177,0,0,1-.1.331,75.243,75.243,0,0,1-35.612-19.224c-.232-.177.088-.629.353-.441" transform="translate(19.988 34.877)" fill="#263238"/>
        <path id="Tracé_9397" data-name="Tracé 9397" d="M184.6,345.184c5.253,3.509,14.534,9.623,33.527,14.821.066,0,.055.121,0,.11a67.4,67.4,0,0,1-33.858-14.347c-.32-.287-.022-.784.331-.585" transform="translate(19.073 35.749)" fill="#263238"/>
        <path id="Tracé_9398" data-name="Tracé 9398" d="M203.058,324.347c-1.556-2.671-.166-3.509,4.933-1.5s23.628,14.347,27.369,7.482-22.59-23.782-31.419-26.475-23.87-3.984-23.87-3.984c4.492,4.337,14.324,15.869,22.988,24.477" transform="translate(18.651 31.06)" fill="#f7a9a0"/>
        <path id="Tracé_9399" data-name="Tracé 9399" d="M157.824,361.485l30.028-50.4s-28.1-19.71-28.23-21.674,19.743-56.283,25.746-83.011,3.035-39.475-23.274-9.678-60.046,79.931-58.258,101.418,53.987,63.345,53.987,63.345" transform="translate(10.748 18.598)" fill="#455a64"/>
        <path id="Tracé_9400" data-name="Tracé 9400" d="M175.132,227.885c-1.1,1.909-2.262,3.785-3.245,5.75-.331.64-.651,1.28-.971,1.92.243-.772.5-1.534.75-2.306,1.534-4.845,3.024-9.711,4.326-14.633a.112.112,0,1,0-.21-.077c-3.465,8.343-6.335,16.94-9.182,25.515s-5.518,17.326-8.122,26.044c-1.435,4.878-2.913,9.778-4.039,14.733a.089.089,0,0,0,.114.052.086.086,0,0,0,.052-.052c1.655-4.249,3.057-8.608,4.492-12.934s2.891-8.641,4.293-12.967q3.311-10.363,6.621-20.736a23.069,23.069,0,0,0,2.406-4.149c1.026-2.008,1.843-4.105,2.748-6.158Z" transform="translate(15.997 22.628)" fill="#263238"/>
        <path id="Tracé_9401" data-name="Tracé 9401" d="M147.933,333.118a2.759,2.759,0,1,0,3.48-1.765h0a2.77,2.77,0,0,0-3.476,1.766" transform="translate(15.308 34.307)" fill="#263238"/>
        <path id="Tracé_9402" data-name="Tracé 9402" d="M138.423,324.329a2.759,2.759,0,1,0,3.476-1.776,2.759,2.759,0,0,0-3.476,1.776v0" transform="translate(14.324 33.396)" fill="#263238"/>
        <path id="Tracé_9403" data-name="Tracé 9403" d="M121.31,315.14c3.476,2.958,6.743,6.137,9.932,9.337,1.611,1.611,3.211,3.222,4.79,4.855s3.134,3.311,4.69,4.977a96.54,96.54,0,0,1-10.153-9.06,124.634,124.634,0,0,1-9.259-10.109" transform="translate(12.565 32.642)" fill="#263238"/>
        <path id="Tracé_9404" data-name="Tracé 9404" d="M469.7,110.9c2.362-7.593,12.691-24.279,29.366-19.257C522.8,98.811,521.9,145.89,532.6,161.66c19.379,28.472,17.657,54.671-.706,57.154-20.538,2.77-38.051-20.638-32.9-67.23,3.222-29.134-3.785-42.841-9.678-42.521s-9.8,7.35-9.8,7.35Z" transform="translate(48.651 9.396)" fill="#263238"/>
        <path id="Tracé_9405" data-name="Tracé 9405" d="M470.63,108.264a47.013,47.013,0,0,1,5.838-9.81,27.963,27.963,0,0,1,8.729-7.593,19.059,19.059,0,0,1,11.51-2.207,24.71,24.71,0,0,1,11.036,4.194,27.662,27.662,0,0,1,7.725,8.751,50.548,50.548,0,0,1,4.481,10.661,101.628,101.628,0,0,1,3.531,22.524,150.523,150.523,0,0,0-5.121-22.072,54.58,54.58,0,0,0-4.624-10.12,26.11,26.11,0,0,0-7.273-8.056,23.036,23.036,0,0,0-10.009-3.93,17.763,17.763,0,0,0-10.5,1.668,28.688,28.688,0,0,0-8.685,6.776,47.811,47.811,0,0,0-3.542,4.414q-1.634,2.37-3.1,4.8" transform="translate(48.747 9.168)" fill="#263238"/>
        <path id="Tracé_9406" data-name="Tracé 9406" d="M498.025,131.24c-.188,4.657-.894,9.271-1.413,13.883s-1.17,9.2-1.611,13.807a134.69,134.69,0,0,0-.7,13.816,69.52,69.52,0,0,0,1.2,13.652,35.784,35.784,0,0,0,4.767,12.591,38.787,38.787,0,0,0,9.325,9.757,28.91,28.91,0,0,0,12.4,5.308,26.271,26.271,0,0,0,6.842.286,25.276,25.276,0,0,0,3.4-.552,12.588,12.588,0,0,0,3.311-1.159,17.32,17.32,0,0,1-6.621,2.273,27.335,27.335,0,0,1-7.052.2,29.41,29.41,0,0,1-6.908-1.665,31.606,31.606,0,0,1-6.313-3.311,37.441,37.441,0,0,1-5.518-4.548l-1.225-1.291-1.181-1.334a26.475,26.475,0,0,1-2.207-2.859,37.412,37.412,0,0,1-5.176-13.243c-1.766-9.347-1.225-18.837-.055-28.063.585-4.635,1.39-9.227,2.207-13.795s1.854-9.149,2.516-13.752" transform="translate(50.984 13.594)" fill="#263238"/>
        <path id="Tracé_9407" data-name="Tracé 9407" d="M468.38,109.509c-.066-2.207,1.512-5,2.924-5.385s11.875,4.105,12.779,6.8-3.763,5.054-3.763,5.054Z" transform="translate(48.514 10.783)" fill="#455a64"/>
        <path id="Tracé_9408" data-name="Tracé 9408" d="M491.27,197.953c-6.224,13.531-52.486,77.129-75.452,78.862-24.036,1.821-81.665-37.455-87.183-40.733-15.152-8.961,27.1-50.322,34.41-43.04,12.206,12.283,41.4,35.414,48.557,33.859,15.009-3.311,46.251-29.533,68.422-43.194,13.287-8.155,18.121-.729,11.245,14.246" transform="translate(33.703 18.68)" fill="#ad6359"/>
        <path id="Tracé_9409" data-name="Tracé 9409" d="M335.588,239.679c-2.6-1.732-23.639-13.418-31.529-24.676-4.172-5.958-13.806-23.615-10.5-26.661,3.024-2.738,6.853,1.468,6.853,1.468s-4.183-7.957.066-11.709,10.352,3.674,10.352,3.674-3.7-8.485.806-11.918,9.38,5.043,9.38,5.043-3.741-7.594,1.159-8.829c5.9-1.534,11.223,13.243,16.94,18.937,1.291,1.291,28.174,24.279,28.174,24.279Z" transform="translate(30.337 17.19)" fill="#ad6359"/>
        <path id="Tracé_9410" data-name="Tracé 9410" d="M318.751,174.093c3.94,10.859,7.537,14.931,16.554,21.906.177.132,0,.43-.188.3-9.414-6.026-14.667-10.484-16.874-22.072-.154-.541.3-.651.508-.132" transform="translate(32.96 17.997)" fill="#263238"/>
        <path id="Tracé_9411" data-name="Tracé 9411" d="M309.5,180.263c5.065,10.927,8.939,15.374,17.812,23.375.121.11-.055.331-.188.231-9.369-7.118-14.5-11.675-18.143-23.262-.166-.519.287-.84.519-.343" transform="translate(32 18.646)" fill="#263238"/>
        <path id="Tracé_9412" data-name="Tracé 9412" d="M300.149,187.948c5.672,10.22,9.7,15.285,19.313,21.939a.213.213,0,1,1-.221.364c-10.462-5.837-15.538-12.139-19.39-22.072-.254-.706-.055-.883.3-.232" transform="translate(31.046 19.426)" fill="#263238"/>
        <path id="Tracé_9413" data-name="Tracé 9413" d="M372.289,205.389s-5.959-13.188-9.866-18.408-25.581-19.3-28.892-14.788c-4.271,5.816,6.621,16.421,12.669,20.913,0,0-9.932,13.464-3.708,22.767s29.8-10.484,29.8-10.484" transform="translate(34.447 17.745)" fill="#ad6359"/>
        <path id="Tracé_9414" data-name="Tracé 9414" d="M332.873,173.9c-.066,8.122,8.222,13.519,13.74,18.309a.663.663,0,0,1,.134.927.679.679,0,0,1-.2.177c-3.763,5.926-7.361,15.373-4.514,22.214a.169.169,0,0,1-.072.227.167.167,0,0,1-.226-.073c-4.05-6.918-1.28-16.486,3.311-22.711-5.739-4.823-13.817-10.594-12.206-19.059-.033-.055.033-.055.033-.012" transform="translate(34.454 18.009)" fill="#263238"/>
        <path id="Tracé_9415" data-name="Tracé 9415" d="M488.468,201.888c-7.206,14.347-49.209,75.606-71.9,76.577s-70.21-18.386-70.21-18.386l35.2-53.623s24.378,17.591,28.207,17.723,55.047-33.67,66.965-41.108,23.4-4.536,11.731,18.816" transform="translate(35.876 18.586)" fill="#10a35f"/>
        <path id="Tracé_9416" data-name="Tracé 9416" d="M375.5,253.775a19.11,19.11,0,0,1,.121-4.9,19.465,19.465,0,0,1,1.214-4.745,19.119,19.119,0,0,1-.121,4.9,19.723,19.723,0,0,1-1.214,4.744" transform="translate(38.883 25.287)" fill="#fff"/>
        <path id="Tracé_9417" data-name="Tracé 9417" d="M439.009,244.045a19.624,19.624,0,0,1,.121-4.9,19.02,19.02,0,0,1,1.225-4.746A21.98,21.98,0,0,1,439.009,244.045Z" transform="translate(45.462 24.279)" fill="#fff"/>
        <path id="Tracé_9418" data-name="Tracé 9418" d="M443.425,206.307a19.119,19.119,0,0,1-4.9-.132,18.755,18.755,0,0,1-4.745-1.214,19.63,19.63,0,0,1,4.9.121,19.117,19.117,0,0,1,4.745,1.225" transform="translate(44.93 21.219)" fill="#fff"/>
        <path id="Tracé_9419" data-name="Tracé 9419" d="M392.234,223.077a19.49,19.49,0,0,1-4.889-.132,18.548,18.548,0,0,1-4.745-1.214,19.542,19.542,0,0,1,4.889.121,19.013,19.013,0,0,1,4.745,1.225" transform="translate(39.629 22.956)" fill="#fff"/>
        <path id="Tracé_9420" data-name="Tracé 9420" d="M398.847,268.08a2.3,2.3,0,0,1-.21.254h-.287Z" transform="translate(41.261 27.767)" fill="#fff"/>
        <path id="Tracé_9421" data-name="Tracé 9421" d="M362.7,235.972a22.066,22.066,0,0,1,7.725-5.871,19.335,19.335,0,0,1-3.554,3.377,18.974,18.974,0,0,1-4.172,2.494" transform="translate(37.568 23.834)" fill="#fff"/>
        <path id="Tracé_9422" data-name="Tracé 9422" d="M415.93,224.931a19.734,19.734,0,0,1,3.554-3.377,19.429,19.429,0,0,1,4.216-2.493,19.042,19.042,0,0,1-3.554,3.376,19.3,19.3,0,0,1-4.216,2.494" transform="translate(43.082 22.69)" fill="#fff"/>
        <path id="Tracé_9423" data-name="Tracé 9423" d="M398.27,239.62a21.526,21.526,0,0,1,5.871,7.725,21.745,21.745,0,0,1-5.871-7.725" transform="translate(41.252 24.82)" fill="#fff"/>
        <path id="Tracé_9424" data-name="Tracé 9424" d="M448.81,216.831a21.731,21.731,0,0,1,5.86,7.725,18.96,18.96,0,0,1-3.366-3.542,19.183,19.183,0,0,1-2.494-4.183" transform="translate(46.487 22.459)" fill="#fff"/>
        <path id="Tracé_9425" data-name="Tracé 9425" d="M387.878,211.846c-4.414,8.023-8.707,16.123-13.5,23.937a256.928,256.928,0,0,1-15.1,22.623.156.156,0,0,1-.219-.009.153.153,0,0,1-.035-.146c4.238-8,9.082-15.726,13.795-23.451s9.811-15.384,14.545-23.175c.188-.309.673-.088.508.221" transform="translate(37.187 21.904)" fill="#263238"/>
        <path id="Tracé_9426" data-name="Tracé 9426" d="M483.743,201.888c-7.206,14.347-49.209,75.606-71.9,76.577-5.518.232-12.481-.728-19.864-2.329,17.657-18.86,66.954-72.053,89.787-96.674,6.919-.419,10.33,5.849,1.975,22.425" transform="translate(40.601 18.587)" fill="#263238"/>
        <path id="Tracé_9427" data-name="Tracé 9427" d="M438.172,343.837H571.341s-51.78-131.093-79.358-157.47c-7.493-7.161-26.011-6.621-35.083,5.463-7.438,9.932-28.086,49.374-29.024,63.578s10.2,28.206,10.2,28.206Z" transform="translate(44.313 18.821)" fill="#10a35f"/>
        <path id="Tracé_9428" data-name="Tracé 9428" d="M452.629,285.014a19.54,19.54,0,0,1,.121-4.889,19.023,19.023,0,0,1,1.225-4.745,18.983,18.983,0,0,1-.132,4.889,19.466,19.466,0,0,1-1.214,4.745" transform="translate(46.873 28.524)" fill="#fff"/>
        <path id="Tracé_9429" data-name="Tracé 9429" d="M535.548,307.378a19.534,19.534,0,0,1,.177-4.933,19.006,19.006,0,0,1,1.225-4.745,19.121,19.121,0,0,1-.132,4.9,19.529,19.529,0,0,1-1.269,4.778" transform="translate(55.463 30.835)" fill="#fff"/>
        <path id="Tracé_9430" data-name="Tracé 9430" d="M483.489,326.9a19.534,19.534,0,0,1,.121-4.888,19.023,19.023,0,0,1,1.225-4.745,18.983,18.983,0,0,1-.132,4.889,19.446,19.446,0,0,1-1.214,4.744" transform="translate(50.069 32.863)" fill="#fff"/>
        <path id="Tracé_9431" data-name="Tracé 9431" d="M471.489,237.244a19.538,19.538,0,0,1,.132-4.888,18.547,18.547,0,0,1,1.214-4.745A21.539,21.539,0,0,1,471.489,237.244Z" transform="translate(48.827 23.576)" fill="#fff"/>
        <path id="Tracé_9432" data-name="Tracé 9432" d="M503.558,273.357a19.615,19.615,0,0,1,.166-4.911,19,19,0,0,1,1.214-4.745,21.547,21.547,0,0,1-1.346,9.645Z" transform="translate(52.149 27.314)" fill="#fff"/>
        <path id="Tracé_9433" data-name="Tracé 9433" d="M439.009,244.045a19.624,19.624,0,0,1,.121-4.9,19.02,19.02,0,0,1,1.225-4.746A21.98,21.98,0,0,1,439.009,244.045Z" transform="translate(45.462 24.279)" fill="#fff"/>
        <path id="Tracé_9434" data-name="Tracé 9434" d="M482.345,278.775a21.753,21.753,0,0,1-9.645-1.335,19.117,19.117,0,0,1,4.9.121,19.679,19.679,0,0,1,4.745,1.214" transform="translate(48.962 28.726)" fill="#fff"/>
        <path id="Tracé_9435" data-name="Tracé 9435" d="M518.745,244.265a19.63,19.63,0,0,1-4.9-.121,19.01,19.01,0,0,1-4.745-1.225A21.981,21.981,0,0,1,518.745,244.265Z" transform="translate(52.732 25.153)" fill="#fff"/>
        <path id="Tracé_9436" data-name="Tracé 9436" d="M453.794,319.366a19.438,19.438,0,0,1-4.889-.131,18.546,18.546,0,0,1-4.745-1.214,19.488,19.488,0,0,1,4.889.121,19.055,19.055,0,0,1,4.745,1.224" transform="translate(46.006 32.93)" fill="#fff"/>
        <path id="Tracé_9437" data-name="Tracé 9437" d="M521.505,289.465a19.117,19.117,0,0,1-4.9-.121,19.63,19.63,0,0,1-4.745-1.214,19.117,19.117,0,0,1,4.9.121,19.628,19.628,0,0,1,4.745,1.214" transform="translate(53.018 29.833)" fill="#fff"/>
        <path id="Tracé_9438" data-name="Tracé 9438" d="M463.47,306.28a19.666,19.666,0,0,1,3.554-3.365,18.961,18.961,0,0,1,4.216-2.494,21.881,21.881,0,0,1-7.725,5.859Z" transform="translate(48.006 31.117)" fill="#fff"/>
        <path id="Tracé_9439" data-name="Tracé 9439" d="M509.1,315a19.012,19.012,0,0,1,3.554-3.377,19.39,19.39,0,0,1,4.216-2.494A21.755,21.755,0,0,1,509.144,315Z" transform="translate(52.732 32.019)" fill="#fff"/>
        <path id="Tracé_9440" data-name="Tracé 9440" d="M521.18,272.31a19.706,19.706,0,0,1,3.554-3.365,18.921,18.921,0,0,1,4.216-2.494,18.681,18.681,0,0,1-3.553,3.366,18.958,18.958,0,0,1-4.216,2.493" transform="translate(53.983 27.599)" fill="#fff"/>
        <path id="Tracé_9441" data-name="Tracé 9441" d="M449.13,256.972a19.734,19.734,0,0,1,3.554-3.377A19.392,19.392,0,0,1,456.9,251.1a19.013,19.013,0,0,1-3.554,3.377,19.388,19.388,0,0,1-4.216,2.494" transform="translate(46.52 26.009)" fill="#fff"/>
        <path id="Tracé_9442" data-name="Tracé 9442" d="M495.79,227.552a19.734,19.734,0,0,1,3.553-3.377,19.392,19.392,0,0,1,4.216-2.494,19.012,19.012,0,0,1-3.554,3.377,19.391,19.391,0,0,1-4.216,2.494" transform="translate(51.353 22.961)" fill="#fff"/>
        <path id="Tracé_9443" data-name="Tracé 9443" d="M440.638,291.561a19.236,19.236,0,0,1-3.5,3.311v-1.346a17.294,17.294,0,0,1,3.5-1.964" transform="translate(45.279 30.2)" fill="#fff"/>
        <path id="Tracé_9444" data-name="Tracé 9444" d="M472.02,208.772a19.734,19.734,0,0,1,3.554-3.377,19.389,19.389,0,0,1,4.216-2.494,21.754,21.754,0,0,1-7.725,5.871Z" transform="translate(48.891 21.016)" fill="#fff"/>
        <path id="Tracé_9445" data-name="Tracé 9445" d="M432.23,262.51a19.771,19.771,0,0,1,3.377,3.554,19.442,19.442,0,0,1,2.494,4.216,21.745,21.745,0,0,1-5.871-7.725Z" transform="translate(44.77 27.191)" fill="#fff"/>
        <path id="Tracé_9446" data-name="Tracé 9446" d="M448.81,216.831a21.731,21.731,0,0,1,5.86,7.725,18.96,18.96,0,0,1-3.366-3.542,19.183,19.183,0,0,1-2.494-4.183" transform="translate(46.487 22.459)" fill="#fff"/>
        <path id="Tracé_9447" data-name="Tracé 9447" d="M490.7,290.7a21.9,21.9,0,0,1,5.86,7.725,19.291,19.291,0,0,1-3.311-3.554A18.979,18.979,0,0,1,490.7,290.7" transform="translate(50.826 30.11)" fill="#fff"/>
        <path id="Tracé_9448" data-name="Tracé 9448" d="M534.1,319.71a19.774,19.774,0,0,1,3.377,3.555,19.407,19.407,0,0,1,2.494,4.215,18.633,18.633,0,0,1-3.377-3.552,19.078,19.078,0,0,1-2.494-4.217" transform="translate(55.321 33.115)" fill="#fff"/>
        <path id="Tracé_9449" data-name="Tracé 9449" d="M489.85,195.26a21.751,21.751,0,0,1,5.86,7.725,21.712,21.712,0,0,1-5.86-7.725" transform="translate(50.738 20.225)" fill="#fff"/>
        <path id="Tracé_9450" data-name="Tracé 9450" d="M482.06,251.561a19.012,19.012,0,0,1,3.377,3.554,18.744,18.744,0,0,1,2.494,4.216,21.754,21.754,0,0,1-5.871-7.725Z" transform="translate(49.931 26.056)" fill="#fff"/>
        <path id="Tracé_9451" data-name="Tracé 9451" d="M480.177,190.387c-.728,1.975-12.139,13.883-21.332,12.239-3-.541-.795-17.039-.795-17.039l-.11-1.258-1.6-17.569,21.729-10.274,3.123-1.324s.121,4.834.21,10.859v8.895a110.714,110.714,0,0,1-1.225,15.472" transform="translate(47.267 16.071)" fill="#ad6359"/>
        <path id="Tracé_9452" data-name="Tracé 9452" d="M481.4,166.02a35.382,35.382,0,0,1-23.462,18.308l-1.6-17.569,21.729-10.274,3.123-1.324s.121,4.834.21,10.859" transform="translate(47.267 16.071)" fill="#263238"/>
        <path id="Tracé_9453" data-name="Tracé 9453" d="M436.1,145.61c-2.45,30.9,15.759,35.833,22.425,36.352,6.037.476,26.685,1.324,32.313-29.133s-7.946-41.351-21.707-43.173-30.569,5.076-33.03,35.955" transform="translate(45.148 11.33)" fill="#ad6359"/>
        <path id="Tracé_9454" data-name="Tracé 9454" d="M440.923,136.577a18.836,18.836,0,0,0,2.1-.418,3.39,3.39,0,0,0,2.053-.84,1.1,1.1,0,0,0,0-1.345,2.725,2.725,0,0,0-2.682-.662,4.073,4.073,0,0,0-2.538,1.4,1.169,1.169,0,0,0,1.07,1.864" transform="translate(45.535 13.797)" fill="#263238"/>
        <path id="Tracé_9455" data-name="Tracé 9455" d="M459.829,136.981c-.717-.087-1.379-.3-2.086-.451a3.469,3.469,0,0,1-2.042-.883,1.1,1.1,0,0,1,0-1.347,2.729,2.729,0,0,1,2.7-.607,3.987,3.987,0,0,1,2.505,1.435,1.18,1.18,0,0,1-1.082,1.854" transform="translate(47.177 13.834)" fill="#263238"/>
        <path id="Tracé_9456" data-name="Tracé 9456" d="M455.058,143.723c0-.088.166.1.154.188-.132,2.108.066,4.536,1.953,5.3.055,0,0,.132,0,.121-2.34-.408-2.571-3.642-2.108-5.606" transform="translate(47.114 14.884)" fill="#263238"/>
        <path id="Tracé_9457" data-name="Tracé 9457" d="M457.007,141.781c3.4-.155,3.443,6.621.3,6.8s-3.145-6.677-.3-6.8" transform="translate(47.119 14.685)" fill="#263238"/>
        <path id="Tracé_9458" data-name="Tracé 9458" d="M458.057,142.123c.607.376,1.192,1.1,1.909,1.1a2.955,2.955,0,0,0,1.986-1.324c0-.066.11,0,.121.078,0,1.3-.475,2.647-1.865,2.847s-2.207-.961-2.538-2.273c-.055-.232.154-.541.386-.431" transform="translate(47.404 14.695)" fill="#263238"/>
        <path id="Tracé_9459" data-name="Tracé 9459" d="M444.64,143.292c0-.076-.154.111-.154.2.1,2.108-.143,4.536-2.042,5.264-.066,0-.055.121,0,.109,2.34-.374,2.627-3.587,2.2-5.573" transform="translate(45.823 14.84)" fill="#263238"/>
        <path id="Tracé_9460" data-name="Tracé 9460" d="M442.951,141.32c-3.4-.209-3.565,6.621-.419,6.8s3.267-6.621.419-6.8" transform="translate(45.604 14.637)" fill="#263238"/>
        <path id="Tracé_9461" data-name="Tracé 9461" d="M441.736,141.744c-.541.342-1.1.982-1.733,1.015s-1.28-.728-1.733-1.446c-.055-.066-.11,0-.11.077-.066,1.3.331,2.66,1.567,2.947s2-.839,2.34-2.13c.066-.232-.11-.607-.331-.464" transform="translate(45.383 14.634)" fill="#263238"/>
        <path id="Tracé_9462" data-name="Tracé 9462" d="M455.564,158.844c-.475.52-.949,1.226-1.711,1.325a5.622,5.622,0,0,1-2.284-.408.077.077,0,0,0-.095.055.079.079,0,0,0,.007.055,2.848,2.848,0,0,0,2.726,1,2.206,2.206,0,0,0,1.567-1.953c.022-.121-.143-.155-.21-.078" transform="translate(46.763 16.449)" fill="#263238"/>
        <path id="Tracé_9463" data-name="Tracé 9463" d="M447.562,153.809s-.452,3.156-.464,4.636c0,.142.364.21.861.243h.066a7.032,7.032,0,0,0,6.864-2.593.156.156,0,0,0-.062-.211.159.159,0,0,0-.148,0,10.658,10.658,0,0,1-6.467,1.81c-.1-.407.96-5.363.717-5.384a13.37,13.37,0,0,0-3.377.75c.761-6.621,2.56-12.99,3.211-19.557a.2.2,0,1,0-.386-.1c-2.362,6.621-3.4,14.137-4.348,20.968-.132.795,2.947-.309,3.531-.564" transform="translate(45.992 13.802)" fill="#263238"/>
        <path id="Tracé_9464" data-name="Tracé 9464" d="M447.88,156.233a8.651,8.651,0,0,0,3.432,2.726,3.862,3.862,0,0,0,2.351.177c1.722-.43,1.777-2,1.479-3.311a9.592,9.592,0,0,0-.739-2.064,11.158,11.158,0,0,1-6.522,2.472" transform="translate(46.391 15.926)" fill="#263238"/>
        <path id="Tracé_9465" data-name="Tracé 9465" d="M450.99,158.784a3.862,3.862,0,0,0,2.351.177c1.722-.43,1.777-2,1.479-3.311-1.832.134-3.653,1.359-3.829,3.134" transform="translate(46.713 16.122)" fill="#eb9481"/>
        <path id="Tracé_9466" data-name="Tracé 9466" d="M489.331,156.084a12.686,12.686,0,0,1-7.063-10.373,32.981,32.981,0,0,1-13.453-10.938c.2.641,1.666,5.232,2.494,7.55-19.533-3.741-25.515-18.761-25.515-18.761-6.368,6.3-7.648,10.341-8.575,12.348,0,0-.088-11.985,6.114-19.986,7.593-9.8,33.107-12.337,44.816.542,12.636,13.916,1.181,39.617,1.181,39.617" transform="translate(45.287 11.153)" fill="#263238"/>
        <path id="Tracé_9467" data-name="Tracé 9467" d="M455.77,137.822a35.923,35.923,0,0,0,10.009,3.719,30.535,30.535,0,0,1-14.347-8.74,28.577,28.577,0,0,1-4.194-5.915,20.141,20.141,0,0,1-2.56-7.46.155.155,0,0,0-.309,0,23.632,23.632,0,0,0,1.523,7.725,21.163,21.163,0,0,0,4.315,6.489,24.781,24.781,0,0,0,5.518,4.216" transform="translate(46.027 12.354)" fill="#263238"/>
        <path id="Tracé_9468" data-name="Tracé 9468" d="M481.232,151.274s6.688-9.723,11.036-7.339-.585,16.432-5.717,18.387a5.242,5.242,0,0,1-6.954-2.57c-.031-.065-.06-.134-.087-.2Z" transform="translate(49.667 14.87)" fill="#ad6359"/>
        <path id="Tracé_9469" data-name="Tracé 9469" d="M490.491,147.52c.088,0,.1.1,0,.134-3.6,1.489-5.518,4.855-6.787,8.332,1.1-1.346,2.527-2.086,4.326-.817.088.065,0,.21-.1.186a3.223,3.223,0,0,0-3.542,1.1,16.652,16.652,0,0,0-1.677,2.88c-.166.332-.75.154-.629-.21v-.088c-.022-4.557,3.509-10.991,8.409-11.521" transform="translate(49.932 15.28)" fill="#263238"/>
        <path id="Tracé_9470" data-name="Tracé 9470" d="M482.04,160.128a2.207,2.207,0,1,0,2.207-2.207,2.262,2.262,0,0,0-2.207,2.207" transform="translate(49.929 16.357)" fill="#fff"/>
        <path id="Tracé_9471" data-name="Tracé 9471" d="M448.953,194.071s-6.312,17.945,5.11,19.214,41.252-20.791,41.252-20.791-8.277-13.4-21.5-11.963c-10.981,1.18-24.864,13.54-24.864,13.54" transform="translate(46.322 18.688)" fill="#ad6359"/>
        <path id="Tracé_9472" data-name="Tracé 9472" d="M510.356,213.33c0,22.16-12.735,88.606-24.963,97.556-24.466,17.911-81.841,16.675-97.667,16.951-6.831.11-15.8-45.368-10.716-50.6s75.043-7.173,78.575-9.855c2.483-1.865,22.215-34.211,33.637-55,15.406-28.108,21.134-10.219,21.134.949" transform="translate(38.895 20.442)" fill="#ad6359"/>
        <path id="Tracé_9473" data-name="Tracé 9473" d="M397.142,267.852s-20.648-2.284-34.211-3.133c-7.582-.487-20.637-.143-26.365,2.04-8.564,3.311-42.278,22.481-37.809,30.758,4.05,7.481,14.347-.795,14.347-.795s-12.139,7.989-5.8,14.191,18.761-5.849,18.761-5.849-13.453,7.593-6.092,13.574c6.39,5.176,22.149-7.206,22.149-7.206s-14.987,6.434-8.961,12.382c6.622,6.621,32.611-9.027,32.611-9.027,16.9,5.628,27.8,6.721,40.733,5.9,2.34-.143-9.358-52.839-9.358-52.839" transform="translate(30.903 27.399)" fill="#ad6359"/>
        <path id="Tracé_9474" data-name="Tracé 9474" d="M320.255,305.228l3.057-2.692a68.71,68.71,0,0,1,6.136-5.033c2.119-1.489,4.293-2.868,6.511-4.181s4.845-2.56,7.151-4.018a.155.155,0,0,1,.188.247.231.231,0,0,1-.033.019,71.548,71.548,0,0,0-6.621,4.613c-2.13,1.556-4.249,3.144-6.368,4.722s-4.216,2.948-6.324,4.414c-1.1.74-2.075,1.535-3.09,2.319a21.951,21.951,0,0,1-2.958,2.207c-.1.055-.2-.088-.132-.177a16.8,16.8,0,0,1,2.483-2.44" transform="translate(32.912 29.962)" fill="#263238"/>
        <path id="Tracé_9475" data-name="Tracé 9475" d="M309.464,296.85c1.4-1.82,9.116-8.111,11.179-9.6a73.619,73.619,0,0,1,12.746-7.437.154.154,0,0,1,.154.253c-3.984,2.913-8.012,5.761-12.04,8.62-1.975,1.389-10.716,8-11.72,8.574-.243.143-.464-.21-.32-.408" transform="translate(32.049 28.982)" fill="#263238"/>
        <path id="Tracé_9476" data-name="Tracé 9476" d="M329.7,313.42a104.457,104.457,0,0,1,10.672-8.829,94.69,94.69,0,0,1,12.7-6.289c.166-.056.3.166.154.254-4.061,2.417-8.144,4.745-12.139,7.35-1.92,1.268-9.27,6.776-11.212,7.824-.088.055-.265-.2-.177-.31" transform="translate(34.148 30.897)" fill="#263238"/>
        <path id="Tracé_9477" data-name="Tracé 9477" d="M402.261,331.323,383.39,271.356s68.665-4.414,70.894-5.518,26.707-44.4,36.418-61.216,24.676-9.932,19.081,28.064c-5.617,38.172-11.8,67.837-20.35,76.665-10.418,10.683-48.381,21.718-87.172,21.972" transform="translate(39.711 20.299)" fill="#10a35f"/>
        <path id="Tracé_9478" data-name="Tracé 9478" d="M452.629,285.014a19.54,19.54,0,0,1,.121-4.889,19.023,19.023,0,0,1,1.225-4.745,18.983,18.983,0,0,1-.132,4.889,19.466,19.466,0,0,1-1.214,4.745" transform="translate(46.873 28.524)" fill="#fff"/>
        <path id="Tracé_9479" data-name="Tracé 9479" d="M418.25,316.115a19.11,19.11,0,0,1,.121-4.9,19.745,19.745,0,0,1,1.214-4.745,19.109,19.109,0,0,1-.121,4.9,19.441,19.441,0,0,1-1.214,4.745" transform="translate(43.311 31.744)" fill="#fff"/>
        <path id="Tracé_9480" data-name="Tracé 9480" d="M471.489,237.244a19.538,19.538,0,0,1,.132-4.888,18.547,18.547,0,0,1,1.214-4.745A21.539,21.539,0,0,1,471.489,237.244Z" transform="translate(48.827 23.576)" fill="#fff"/>
        <path id="Tracé_9481" data-name="Tracé 9481" d="M482.345,278.775a21.753,21.753,0,0,1-9.645-1.335,19.117,19.117,0,0,1,4.9.121,19.679,19.679,0,0,1,4.745,1.214" transform="translate(48.962 28.726)" fill="#fff"/>
        <path id="Tracé_9482" data-name="Tracé 9482" d="M422.605,280.486a19.12,19.12,0,0,1-4.9-.121,19.465,19.465,0,0,1-4.745-1.214,19.117,19.117,0,0,1,4.9.121,19.744,19.744,0,0,1,4.745,1.214" transform="translate(42.774 28.903)" fill="#fff"/>
        <path id="Tracé_9483" data-name="Tracé 9483" d="M463.47,306.28a19.666,19.666,0,0,1,3.554-3.365,18.961,18.961,0,0,1,4.216-2.494,21.881,21.881,0,0,1-7.725,5.859Z" transform="translate(48.006 31.117)" fill="#fff"/>
        <path id="Tracé_9484" data-name="Tracé 9484" d="M391.76,273.94a19.672,19.672,0,0,1,3.554-3.366,18.961,18.961,0,0,1,4.216-2.494,18.686,18.686,0,0,1-3.554,3.367,18.959,18.959,0,0,1-4.216,2.493" transform="translate(40.578 27.767)" fill="#fff"/>
        <path id="Tracé_9485" data-name="Tracé 9485" d="M456.8,251.1a19.014,19.014,0,0,1-3.554,3.377,22.352,22.352,0,0,1-3.178,2.02c.342-.53.717-1.1,1.1-1.744a14.286,14.286,0,0,1,1.4-1.1A19.4,19.4,0,0,1,456.8,251.1" transform="translate(46.618 26.009)" fill="#fff"/>
        <path id="Tracé_9486" data-name="Tracé 9486" d="M498.77,224.391a12.3,12.3,0,0,1-.143,1.4,15.9,15.9,0,0,1-2.836,1.523,18.623,18.623,0,0,1,2.98-2.924" transform="translate(51.353 23.242)" fill="#fff"/>
        <path id="Tracé_9487" data-name="Tracé 9487" d="M433.27,297.431a19.692,19.692,0,0,1,3.554-3.376,19.344,19.344,0,0,1,4.216-2.494,19.043,19.043,0,0,1-3.554,3.376,19.345,19.345,0,0,1-4.216,2.494" transform="translate(44.878 30.2)" fill="#fff"/>
        <path id="Tracé_9488" data-name="Tracé 9488" d="M432.23,262.51a19.771,19.771,0,0,1,3.377,3.554,19.442,19.442,0,0,1,2.494,4.216,21.745,21.745,0,0,1-5.871-7.725Z" transform="translate(44.77 27.191)" fill="#fff"/>
        <path id="Tracé_9489" data-name="Tracé 9489" d="M495.677,202.945a19.238,19.238,0,0,1-3.366-3.541,20.387,20.387,0,0,1-2.141-3.432,5.57,5.57,0,0,1,.607,0,22.49,22.49,0,0,1,2.406,2.726,19.178,19.178,0,0,1,2.494,4.248" transform="translate(50.771 20.298)" fill="#fff"/>
        <path id="Tracé_9490" data-name="Tracé 9490" d="M482.06,251.561a19.012,19.012,0,0,1,3.377,3.554,18.744,18.744,0,0,1,2.494,4.216,21.754,21.754,0,0,1-5.871-7.725Z" transform="translate(49.931 26.056)" fill="#fff"/>
        <path id="Tracé_9491" data-name="Tracé 9491" d="M471.008,226.789c-2.207,3.311-4.315,6.82-6.379,10.274l-.177.287c.1-.265.21-.53.309-.784.673-1.722,1.269-3.476,2-5.165,0-.1-.1-.188-.143-.088-.75,1.666-1.578,3.311-2.284,4.977-.475,1.1-.9,2.284-1.313,3.443-1.534,2.56-3.068,5.121-4.58,7.725-2.031,3.465-4.05,6.953-6.092,10.418-.508.85-.993,1.7-1.512,2.549a3.31,3.31,0,0,1-1.777,1.644,14.145,14.145,0,0,1-2.814.375c-1,.1-2.009.221-3.013.342-4.569.563-9.1,1.313-13.673,1.909-.11,0-.11.188,0,.177,4.194-.32,8.4-.475,12.592-.817,2.075-.166,4.149-.309,6.2-.574a4.173,4.173,0,0,0,2.207-.773,6.2,6.2,0,0,0,1.379-1.821q6.236-10.793,12.47-21.6c2.351-4.083,4.734-8.144,6.9-12.327a.173.173,0,1,0-.3-.177" transform="translate(44.485 23.482)" fill="#263238"/>
        <path id="Tracé_9492" data-name="Tracé 9492" d="M504.351,241.878a24.579,24.579,0,0,1-.982,4.051c-.331,1.181-.651,2.362-1,3.53s-.872,2.638-1.324,3.952q1.391-8.762,2.207-17.657a.161.161,0,0,0-.32,0c-1.1,8.244-2.615,16.453-4.348,24.576s-3.829,16.234-6.2,24.214c-1.17,3.928-2.406,7.846-3.774,11.709a31.931,31.931,0,0,1-4.812,9.412,24.278,24.278,0,0,1-9.149,6.478,106.253,106.253,0,0,1-11.234,4.414c-8.7,2.847-17.657,4.657-26.552,6.787-.1,0-.077.188,0,.178a203.353,203.353,0,0,0,24.213-4.9,99.709,99.709,0,0,0,11.863-3.973c3.542-1.479,7.2-3.079,10.054-5.706a25.126,25.126,0,0,0,5.915-9.137c1.49-3.61,2.66-7.362,3.818-11.036,2.538-8.146,4.657-16.355,6.39-24.709q.74-3.63,1.379-7.274a46.691,46.691,0,0,0,2.406-7.129c.331-1.269.651-2.538.9-3.829s.331-2.638.7-3.883c.055-.166-.132-.2-.143-.067" transform="translate(45.242 24.404)" fill="#263238"/>
        <path id="Tracé_9493" data-name="Tracé 9493" d="M412.833,319.152c-3.112-8.619-6.4-17.172-9.127-25.912a257.776,257.776,0,0,1-7.1-26.265.154.154,0,0,1,.287-.077c3.233,8.453,5.86,17.183,8.575,25.813s5.121,17.514,7.868,26.21c.1.331-.375.563-.508.232" transform="translate(41.08 27.637)" fill="#263238"/>
        <path id="Tracé_9494" data-name="Tracé 9494" d="M402.718,263.006a46.533,46.533,0,0,0-4.933,0c-1.644,0-3.311.111-4.933.177-3.311.143-6.566.386-9.844.662a.42.42,0,0,0-.4.435.38.38,0,0,0,.018.106,13.948,13.948,0,0,0,1.677,3.432.106.106,0,0,0,.166-.054,12.007,12.007,0,0,0-.861-3.124c3.134-.21,6.268-.4,9.4-.64l4.922-.353c1.6-.131,3.234-.175,4.823-.43.132,0,.077-.21-.033-.21" transform="translate(39.63 27.235)" fill="#263238"/>
        <path id="Tracé_9495" data-name="Tracé 9495" d="M333.7,251.36c4.094,2.031,22.8,2.8,28.252,9.513,3.631,4.414,3.311,8.972,5.385,22.292,1.843,11.566-7.725,8.829-10.495,2.891-4.326-9.3-8.045-19.5-8.045-19.5a74.191,74.191,0,0,0-9.579.143Z" transform="translate(34.564 26.036)" fill="#f7a9a0"/>
        <path id="Tracé_9496" data-name="Tracé 9496" d="M346.074,291.041c6.478-4.1,27.192,22.072,16.841,28.969s-24.179-24.333-16.841-28.969" transform="translate(35.632 30.101)" fill="#f7a9a0"/>
        <path id="Tracé_9497" data-name="Tracé 9497" d="M336.564,296.041c6.467-4.1,27.192,22.072,16.841,28.969s-24.2-24.279-16.841-28.969" transform="translate(34.647 30.619)" fill="#f7a9a0"/>
        <path id="Tracé_9498" data-name="Tracé 9498" d="M329.892,297.02c6.456-2.835,21.652,23.816,11.279,28.693s-18.584-25.525-11.279-28.693" transform="translate(33.881 30.743)" fill="#f7a9a0"/>
        <path id="Tracé_9499" data-name="Tracé 9499" d="M323.246,296.3c6.787-.806,13.386,28.219,2.384,29.8s-10.032-28.881-2.384-29.8" transform="translate(32.879 30.689)" fill="#f7a9a0"/>
        <path id="Tracé_9500" data-name="Tracé 9500" d="M344.561,299.193a32.408,32.408,0,0,1,3.222,4.2,53.237,53.237,0,0,1,3.057,4.79,46.774,46.774,0,0,1,2.428,4.878c.728,1.777,1.236,3.675,2.02,5.431a.154.154,0,0,1-.276.138.1.1,0,0,1-.011-.029,38.671,38.671,0,0,0-2.627-4.944c-.916-1.6-1.744-3.243-2.638-4.855s-1.7-3.156-2.593-4.712-1.964-3.1-2.792-4.745a.133.133,0,0,1,.21-.156" transform="translate(35.666 30.986)" fill="#263238"/>
        <path id="Tracé_9501" data-name="Tracé 9501" d="M334.8,299.07c.662,1.964,2.891,9.469,3.642,11.411s1.578,3.885,2.428,5.8a57.141,57.141,0,0,0,2.682,5.893.154.154,0,0,1-.107.19.152.152,0,0,1-.158-.046c-1.037-1.875-2.207-3.62-3.2-5.518a54.576,54.576,0,0,1-2.538-5.838,99.134,99.134,0,0,1-3.035-11.808c-.055-.243.21-.254.287-.088" transform="translate(34.647 30.966)" fill="#263238"/>
        <path id="Tracé_9502" data-name="Tracé 9502" d="M327.435,300.763c.519,2.8.861,5.64,1.391,8.443.254,1.379.53,2.759.784,4.148.121.663.232,1.336.353,2.009a11.36,11.36,0,0,0,.43,2.3c.077.186-.276.276-.3,0a17.2,17.2,0,0,0-.795-2.461c-.188-.651-.375-1.292-.541-1.953-.342-1.37-.618-2.737-.839-4.138a55.416,55.416,0,0,1-.861-8.321c0-.177.342-.232.375-.023" transform="translate(33.877 31.139)" fill="#263238"/>
        <path id="Tracé_9503" data-name="Tracé 9503" d="M426.513,136.834a24.916,24.916,0,0,0,4.249-13.727c0-17.392-19.1-31.485-42.642-31.485s-42.609,14.093-42.609,31.485,19.07,31.485,42.609,31.485c11.422,0,21.763-3.311,29.41-8.707l14.689,3.73Z" transform="translate(35.788 9.49)" fill="#10a35f"/>
        <path id="Tracé_9504" data-name="Tracé 9504" d="M371.059,120.564a4.414,4.414,0,1,1-4.414-4.414,4.414,4.414,0,0,1,4.414,4.414" transform="translate(37.519 12.031)" fill="#263238"/>
        <path id="Tracé_9505" data-name="Tracé 9505" d="M384.545,116.141a4.425,4.425,0,1,1-4.425,4.425,4.425,4.425,0,0,1,4.425-4.425" transform="translate(39.372 12.03)" fill="#263238"/>
        <path id="Tracé_9506" data-name="Tracé 9506" d="M406.859,120.564a4.414,4.414,0,1,1-4.414-4.414,4.414,4.414,0,0,1,4.414,4.414" transform="translate(41.228 12.031)" fill="#263238"/>
        <path id="Tracé_9507" data-name="Tracé 9507" d="M285.375,50.279c-2.461,20.583-15.693,24.279-17.922,29.8A96.274,96.274,0,0,0,264.672,90.6h-21.52a91.813,91.813,0,0,0-2.77-10.528c-2.207-5.518-15.45-9.313-17.768-29.917-1.556-13.531,8.674-34.874,31.441-34.818s32.92,21.419,31.32,34.938" transform="translate(23.042 1.589)" fill="#10a35f"/>
        <rect id="Rectangle_5060" data-name="Rectangle 5060" width="1.103" height="34.818" transform="translate(264.817 59.454) rotate(-10.433)" fill="#fff"/>
        <rect id="Rectangle_5061" data-name="Rectangle 5061" width="34.818" height="1.104" transform="translate(281.69 93.507) rotate(-79.311)" fill="#fff"/>
        <path id="Tracé_9508" data-name="Tracé 9508" d="M252.086,65.405h0c-1.688,0-3.388-1.346-4.779-3.785-.066-.11-.132-.221-.188-.331a2.627,2.627,0,0,1-1.843,1c-3.222,0-4.5-6.621-4.547-6.942l.541-.1c0,.066,1.236,6.478,4.006,6.489a2.264,2.264,0,0,0,1.567-.982c-1.357-2.8-2.119-6.467-1.1-8.133a1.667,1.667,0,0,1,1.49-.872,1.954,1.954,0,0,1,1.777,1.015c.971,1.688.254,5.176-1.026,7.372a8.111,8.111,0,0,1-.441.684c.088.177.188.353.287.519.75,1.313,2.306,3.509,4.3,3.509,1.335,0,2.671-1.1,3.774-2.947a5.035,5.035,0,0,0,.265-.486,6.615,6.615,0,0,1-.75-1.1c-1.335-2.318-1.6-5.75-.585-7.493a1.987,1.987,0,0,1,1.744-1.1,1.522,1.522,0,0,1,1.357.839c.949,1.655.419,5.6-1.1,8.7a3.093,3.093,0,0,0,2.207.9c1.964,0,3.719-4.69,4.227-6.5l.53.143c-.077.287-1.975,6.908-4.756,6.908a3.576,3.576,0,0,1-2.406-.938l-.2.353c-.949,1.523-2.384,3.278-4.348,3.278M256.5,52.328a1.434,1.434,0,0,0-1.269.817c-.9,1.567-.629,4.812.585,6.942a5.187,5.187,0,0,0,.552.795c1.346-2.891,1.854-6.522,1.015-7.99A.981.981,0,0,0,256.5,52.328Zm-9.358,0a1.1,1.1,0,0,0-1.015.6c-.761,1.324-.265,4.547,1.048,7.35l.243-.386c1.17-2.02,1.876-5.319,1.026-6.82a1.4,1.4,0,0,0-1.3-.739" transform="translate(24.935 5.357)" fill="#fff"/>
        <rect id="Rectangle_5062" data-name="Rectangle 5062" width="5.187" height="26.541" transform="matrix(0.002, -1, 1, 0.002, 263.673, 96.458)" fill="#455a64"/>
        <rect id="Rectangle_5063" data-name="Rectangle 5063" width="5.187" height="26.541" transform="translate(263.647 102.484) rotate(-89.859)" fill="#455a64"/>
        <rect id="Rectangle_5064" data-name="Rectangle 5064" width="5.187" height="26.541" transform="translate(263.663 108.466) rotate(-89.869)" fill="#455a64"/>
        <path id="Tracé_9509" data-name="Tracé 9509" d="M252.078,0a16.931,16.931,0,0,1-.132,8.576A16.943,16.943,0,0,1,252.078,0" transform="translate(26.046)" fill="#263238"/>
        <path id="Tracé_9510" data-name="Tracé 9510" d="M230.21,5.34a14.906,14.906,0,0,1,2.571,3.477,15.243,15.243,0,0,1,1.611,4.016,14.894,14.894,0,0,1-2.538-3.454A15.1,15.1,0,0,1,230.21,5.34" transform="translate(23.845 0.553)" fill="#263238"/>
        <path id="Tracé_9511" data-name="Tracé 9511" d="M214,20.861a16.815,16.815,0,0,1,7.361,4.414,15.271,15.271,0,0,1-3.973-1.733A15.055,15.055,0,0,1,214,20.861" transform="translate(22.166 2.161)" fill="#263238"/>
        <path id="Tracé_9512" data-name="Tracé 9512" d="M207.7,42.447a16.939,16.939,0,0,1,8.575.132A16.939,16.939,0,0,1,207.7,42.447Z" transform="translate(21.513 4.346)" fill="#263238"/>
        <path id="Tracé_9513" data-name="Tracé 9513" d="M213.04,64.6a14.9,14.9,0,0,1,3.476-2.571,14.694,14.694,0,0,1,4.017-1.6A17.107,17.107,0,0,1,213.04,64.6" transform="translate(22.066 6.259)" fill="#263238"/>
        <path id="Tracé_9514" data-name="Tracé 9514" d="M288.811,66.285a17.085,17.085,0,0,1-7.361-4.414,16.815,16.815,0,0,1,7.361,4.414" transform="translate(29.152 6.409)" fill="#263238"/>
        <path id="Tracé_9515" data-name="Tracé 9515" d="M295.215,44.379a15.38,15.38,0,0,1-4.3.486,14.61,14.61,0,0,1-4.271-.617,15.059,15.059,0,0,1,4.293-.487,15.618,15.618,0,0,1,4.282.618" transform="translate(29.69 4.532)" fill="#263238"/>
        <path id="Tracé_9516" data-name="Tracé 9516" d="M289.783,22.521a15.187,15.187,0,0,1-3.476,2.56,14.842,14.842,0,0,1-4.017,1.611,14.889,14.889,0,0,1,3.476-2.538,15.189,15.189,0,0,1,4.017-1.633" transform="translate(29.239 2.333)" fill="#263238"/>
        <path id="Tracé_9517" data-name="Tracé 9517" d="M273.974,6.3a16.815,16.815,0,0,1-4.414,7.361A15.217,15.217,0,0,1,271.293,9.7a15.4,15.4,0,0,1,2.682-3.4" transform="translate(27.921 0.653)" fill="#263238"/>
      </g>
    </g>
  </g>
</svg>
