<svg id="Groupe_2931" data-name="Groupe 2931" xmlns="http://www.w3.org/2000/svg" xmlns:xlink="http://www.w3.org/1999/xlink" width="229.6" height="183.368" viewBox="0 0 229.6 183.368">
  <defs>
    <clipPath id="clip-path">
      <rect id="Rectangle_7640" data-name="Rectangle 7640" width="229.6" height="183.368" fill="none"/>
    </clipPath>
    <clipPath id="clip-path-3">
      <rect id="Rectangle_7467" data-name="Rectangle 7467" width="21.044" height="34.982" transform="translate(100.386 76.82)" fill="none"/>
    </clipPath>
    <clipPath id="clip-path-4">
      <rect id="Rectangle_7466" data-name="Rectangle 7466" width="21.04" height="34.98" transform="translate(100.39 76.82)" fill="none"/>
    </clipPath>
    <clipPath id="clip-path-5">
      <rect id="Rectangle_7566" data-name="Rectangle 7566" width="16.848" height="11.665" transform="translate(102.412 165.531)" fill="none"/>
    </clipPath>
    <clipPath id="clip-path-7">
      <rect id="Rectangle_7568" data-name="Rectangle 7568" width="38.756" height="16.368" transform="translate(98.9 150.588)" fill="none"/>
    </clipPath>
    <clipPath id="clip-path-8">
      <rect id="Rectangle_7567" data-name="Rectangle 7567" width="38.752" height="16.368" transform="translate(98.904 150.588)" fill="none"/>
    </clipPath>
    <clipPath id="clip-path-9">
      <rect id="Rectangle_7572" data-name="Rectangle 7572" width="4.458" height="5.869" transform="translate(137.441 136.111)" fill="none"/>
    </clipPath>
    <clipPath id="clip-path-11">
      <rect id="Rectangle_7577" data-name="Rectangle 7577" width="4.958" height="1.994" transform="translate(136.941 134.112)" fill="none"/>
    </clipPath>
    <clipPath id="clip-path-13">
      <rect id="Rectangle_7581" data-name="Rectangle 7581" width="3.89" height="1.994" transform="translate(141.899 134.112)" fill="none"/>
    </clipPath>
    <clipPath id="clip-path-15">
      <rect id="Rectangle_7583" data-name="Rectangle 7583" width="36.472" height="16.917" transform="translate(121.097 160.264)" fill="none"/>
    </clipPath>
    <clipPath id="clip-path-16">
      <rect id="Rectangle_7582" data-name="Rectangle 7582" width="36.469" height="16.917" transform="translate(121.097 160.264)" fill="none"/>
    </clipPath>
    <clipPath id="clip-path-17">
      <rect id="Rectangle_7585" data-name="Rectangle 7585" width="69.543" height="23.74" transform="translate(114.317 139.58)" fill="none"/>
    </clipPath>
    <clipPath id="clip-path-18">
      <rect id="Rectangle_7584" data-name="Rectangle 7584" width="69.543" height="23.737" transform="translate(114.317 139.58)" fill="none"/>
    </clipPath>
    <clipPath id="clip-path-19">
      <rect id="Rectangle_7618" data-name="Rectangle 7618" width="12.139" height="5.144" transform="translate(135.365 145.263)" fill="none"/>
    </clipPath>
    <clipPath id="clip-path-20">
      <rect id="Rectangle_7617" data-name="Rectangle 7617" width="12.135" height="5.144" transform="translate(135.369 145.263)" fill="none"/>
    </clipPath>
    <clipPath id="clip-path-21">
      <rect id="Rectangle_7620" data-name="Rectangle 7620" width="4.463" height="9.029" transform="translate(136.971 146.714)" fill="none"/>
    </clipPath>
    <clipPath id="clip-path-22">
      <rect id="Rectangle_7619" data-name="Rectangle 7619" width="4.463" height="9.025" transform="translate(136.971 146.718)" fill="none"/>
    </clipPath>
    <clipPath id="clip-path-23">
      <rect id="Rectangle_7628" data-name="Rectangle 7628" width="4.697" height="4.697" transform="translate(57.938 119.529)" fill="none"/>
    </clipPath>
    <clipPath id="clip-path-25">
      <rect id="Rectangle_7630" data-name="Rectangle 7630" width="21.715" height="10.29" transform="translate(63.5 121.876)" fill="none"/>
    </clipPath>
    <clipPath id="clip-path-27">
      <rect id="Rectangle_7632" data-name="Rectangle 7632" width="17.93" height="6.7" transform="translate(55.17 125.475)" fill="none"/>
    </clipPath>
    <clipPath id="clip-path-28">
      <rect id="Rectangle_7631" data-name="Rectangle 7631" width="17.927" height="6.7" transform="translate(55.17 125.475)" fill="none"/>
    </clipPath>
    <clipPath id="clip-path-29">
      <rect id="Rectangle_7636" data-name="Rectangle 7636" width="30.044" height="4.119" transform="translate(55.17 132.166)" fill="none"/>
    </clipPath>
    <clipPath id="clip-path-31">
      <rect id="Rectangle_7638" data-name="Rectangle 7638" width="50.554" height="50.551" transform="translate(106.445 28.4)" fill="none"/>
    </clipPath>
  </defs>
  <g id="Groupe_2930" data-name="Groupe 2930" clip-path="url(#clip-path)">
    <g id="Groupe_2929" data-name="Groupe 2929">
      <g id="Groupe_2928" data-name="Groupe 2928" clip-path="url(#clip-path)">
        <path id="Tracé_11542" data-name="Tracé 11542" d="M210.869,51.37H158.12s5.232-14.286,13.282-14.286,10.568,9.862,10.568,9.862,5.433-5.36,9.9-5.36,8.329,7.079,8.329,7.079,6.31-3.806,10.67,2.7" fill="#e0e0e0"/>
        <path id="Tracé_11543" data-name="Tracé 11543" d="M181.347,23.116H156.694s5.507-7.981,9.847-7.981,5.623,5.321,5.623,5.321,3.062-2.484,5.879-2.038,3.3,4.7,3.3,4.7" fill="#e0e0e0"/>
        <path id="Tracé_11544" data-name="Tracé 11544" d="M66.731,47.117H18.719s6.575-14.7,13.61-15.6,10.4,10.906,10.4,10.906,4.537-4.179,8.1-4.179,6.325,5.507,6.325,5.507,7.127-3.772,9.577,3.366" fill="#e0e0e0"/>
        <path id="Tracé_11545" data-name="Tracé 11545" d="M112.366,10.78H79.929S85.5.144,91.545,0s9.22,8.049,9.22,8.049,9.4-7.561,11.6,2.727" fill="#e0e0e0"/>
        <path id="Tracé_11546" data-name="Tracé 11546" d="M134.516,172.8c44.114,0,79.876,2.367,79.876,5.286s-35.762,5.286-79.876,5.286S54.64,181,54.64,178.082,90.4,172.8,134.516,172.8" fill="#e0e0e0"/>
        <path id="Tracé_11547" data-name="Tracé 11547" d="M229.6,157.9l-28.7.118-28.7.044-57.4.078-57.4-.078-28.7-.044L0,157.9l28.7-.122,28.7-.044,57.4-.078,57.4.078,28.7.044Z" fill="#151c20"/>
        <path id="Tracé_11548" data-name="Tracé 11548" d="M111.211,82.129c8.289,8.623,33.192,47,35.132,48.144,0,0,0,25.1-13.87,20.087s-26.583-50.04-29.3-64.4c-1.427-7.577,1.267-10.869,8.038-3.836" fill="#b94744"/>
        <path id="Tracé_11549" data-name="Tracé 11549" d="M109.1,111.8l25.417-2.891S118.75,88,110.6,80.529c-8.5-7.78-12.659-6.687-8.721,8.049C105.841,103.4,109.1,111.8,109.1,111.8" fill="#338338"/>
        <path id="Tracé_11550" data-name="Tracé 11550" d="M107.9,97.956a7.985,7.985,0,0,0-.529,2.19,8.712,8.712,0,0,0,1.6-4.164,7.577,7.577,0,0,0-1.073,1.974Zm14.276.573A7.886,7.886,0,0,0,120,98a8.666,8.666,0,0,0,4.159,1.6,7.548,7.548,0,0,0-1.974-1.073Zm-3.787,9.887a7.943,7.943,0,0,0-1.176-1.916,7.938,7.938,0,0,0,.647,2.151,7.5,7.5,0,0,0,1.166,1.92,7.991,7.991,0,0,0-.637-2.155M103.48,76.571c-.127-.269-.255-.534-.4-.8a2.7,2.7,0,0,0-.524,0c.118.358.25.7.4,1.044a7.691,7.691,0,0,0,1.171,1.92,8.034,8.034,0,0,0-.642-2.165Zm29.292,30.055-.49.2A8.1,8.1,0,0,0,130.357,108a8,8,0,0,0,2.161-.642c.2-.088.387-.181.578-.284Zm-19.6-20.19a8.013,8.013,0,0,0-1.92,1.166,7.846,7.846,0,0,0,2.161-.637,7.954,7.954,0,0,0,1.921-1.171,7.827,7.827,0,0,0-2.17.642Zm-1.7.044a.871.871,0,0,0-.083.064h.088a.35.35,0,0,1-.015-.064Z" fill="#fff"/>
        <path id="Tracé_11551" data-name="Tracé 11551" d="M110.319,107.23c.593-.137,1.215-.191,1.818-.274l1.871-.26c1.259-.176,2.523-.333,3.787-.49,2.528-.294,5.056-.6,7.589-.852.7-.069,1.4-.137,2.092-.191s1.47-.054,2.2-.108a.035.035,0,0,1,.04.029.034.034,0,0,1-.028.04h-.012c-.622.093-1.24.235-1.862.333s-1.284.186-1.925.265c-1.259.162-2.528.309-3.792.451-2.489.269-4.982.554-7.481.774l-2.087.176c-.73.064-1.47.172-2.2.167a.033.033,0,0,1-.022-.041v0a.036.036,0,0,1,.011-.016Z" fill="#151c20"/>
        <g id="Groupe_2857" data-name="Groupe 2857" opacity="0.1">
          <g id="Groupe_2856" data-name="Groupe 2856">
            <g id="Groupe_2855" data-name="Groupe 2855" clip-path="url(#clip-path-3)">
              <g id="Groupe_2854" data-name="Groupe 2854">
                <g id="Groupe_2853" data-name="Groupe 2853" clip-path="url(#clip-path-4)">
                  <path id="Tracé_11552" data-name="Tracé 11552" d="M121.43,110.4l-12.33,1.4s-3.258-8.4-7.221-23.222c-1.671-6.251-1.881-10.048-.921-11.758Z" fill="#060708"/>
                </g>
              </g>
            </g>
          </g>
        </g>
        <path id="Tracé_11553" data-name="Tracé 11553" d="M116.149,164.075H77.489c-.318-1.244-.627-2.45-.936-3.674q-.53-2.079-1.034-4.056c-.073-.294-.152-.588-.225-.877q-.382-1.514-.75-2.94c-.147-.583-.294-1.156-.436-1.724s-.294-1.146-.436-1.7c-.039-.147-.073-.294-.113-.436l-.118-.49-.147-.573c-.054-.2-.1-.4-.152-.593-.1-.372-.191-.74-.279-1.1-.137-.529-.269-1.048-.4-1.553-.054-.22-.113-.441-.167-.656-.093-.353-.181-.7-.265-1.034-.059-.225-.113-.446-.167-.661q-.343-1.333-.637-2.5c-.054-.206-.1-.407-.157-.6-.083-.338-.167-.661-.245-.98q-.083-.294-.147-.573c-.171-.666-.328-1.274-.461-1.808-.039-.142-.073-.279-.108-.411-.088-.353-.171-.666-.24-.946-.029-.113-.054-.22-.083-.318l-.078-.309a.813.813,0,0,0-.049-.2l-.069-.265a.232.232,0,0,0-.029-.118l-.088-.348H107.1s1.239,4.272,3.224,11.16c.4,1.4.838,2.94,1.3,4.522,1.326,4.6,2.865,9.96,4.521,15.761" fill="#1e2a2f"/>
        <path id="Tracé_11554" data-name="Tracé 11554" d="M83.819,164.075h-.98q-2.146-8.881-4.159-17.8l-.98-4.341-.088-.407a.061.061,0,0,1,.053-.065.059.059,0,0,1,.06.036.437.437,0,0,0,.039.132q.652,2.332,1.3,4.669,2.482,8.863,4.755,17.776" fill="#151c20"/>
        <path id="Tracé_11555" data-name="Tracé 11555" d="M105.89,132.642l-1.661,8.329-1.362,6.82L100.55,159.4l-.24,1.191-.4,1.984-.309,1.489H77.481c-.314-1.249-.627-2.45-.931-3.674q-.53-2.079-1.034-4.056c-.073-.294-.152-.588-.225-.877q-.382-1.514-.75-2.94c-.147-.583-.294-1.156-.436-1.724s-.294-1.146-.436-1.7c-.039-.147-.073-.294-.113-.436l-.118-.49-.147-.573c-.054-.2-.1-.4-.152-.593-.1-.372-.191-.74-.279-1.1-.137-.529-.269-1.048-.4-1.553-.059-.225-.113-.441-.167-.656-.093-.353-.181-.7-.265-1.034-.059-.225-.113-.446-.167-.661q-.343-1.333-.637-2.5c-.054-.206-.1-.407-.157-.6-.083-.338-.167-.661-.245-.98q-.083-.294-.147-.573c-.171-.666-.328-1.274-.461-1.808-.039-.142-.073-.279-.108-.411-.088-.353-.171-.666-.24-.946-.029-.113-.054-.22-.083-.318l-.078-.309a.8.8,0,0,0-.049-.2l-.069-.265a.243.243,0,0,0-.029-.118l-.088-.348Z" fill="#151c20"/>
        <path id="Tracé_11556" data-name="Tracé 11556" d="M105.895,132.628h0c0,.206-.157,2.45-.519,5.879-.1.98-.225,2.1-.367,3.273-.22,1.857-.49,3.919-.833,6.07-.578,3.777-1.333,7.9-2.312,11.925-.348,1.47-.73,2.886-1.137,4.292H52.151c.573-7.4,1.1-14.1,1.514-19.376.583-7.427.98-12.076.98-12.076H98.711Z" fill="#1e2a2f"/>
        <path id="Tracé_11557" data-name="Tracé 11557" d="M105.792,137.09c-.054,1.739-.127,3.474-.24,5.2-.118,1.876-.289,3.748-.534,5.619a.6.6,0,0,1-.025.206q-.343,2.631-.789,5.247a18.979,18.979,0,0,1-1.205,4.9,4.78,4.78,0,0,1-1.137,1.533,3.359,3.359,0,0,1-1.553.8,1.9,1.9,0,0,1-.289.049h-.083a.106.106,0,0,1,.054.1,15.1,15.1,0,0,1-.069,1.754v.073c-.059.49-.152,1-.245,1.5h-.833v-.029c.147-.549.269-1.1.407-1.656s.333-1.117.465-1.69a.111.111,0,0,1,.039-.054,2.591,2.591,0,0,1-2.508-1.573,4.506,4.506,0,0,1-.039-2.283c.152-.98.3-1.989.451-2.984.284-1.827.652-3.635.98-5.453l.147-.828c.652-3.7,1.333-7.4,2.151-11.062.029-.152.064-.3.1-.456s.186-.073.176.024c-.025.245-.049.49-.078.74q-.216,2.112-.49,4.2c-.235,1.641-.4,3.292-.627,4.933q-.117.839-.24,1.676c-.377,2.7-.769,5.389-1.23,8.089-.216,1.249-.98,3.488.8,3.875a1.832,1.832,0,0,0,1.22-.152,3.833,3.833,0,0,0,1.671-2.112,27.971,27.971,0,0,0,.955-4.5q.441-2.449.784-4.943.441-3.091.921-6.178.24-1.573.49-3.145l.235-1.47c.008-.082.168-.053.168.05" fill="#151c20"/>
        <path id="Tracé_11558" data-name="Tracé 11558" d="M62.807,150a24.488,24.488,0,0,0,5.992-.808c.9-.23,1.793-.519,2.68-.808a6.933,6.933,0,0,0,2.42-1.215c1.362-1.176,1.994-3.023,2.587-4.669a45.027,45.027,0,0,0,1.563-5.668c0-.093.157-.059.162.029a21.984,21.984,0,0,1-.818,6.433c-.49,1.778-1.146,3.758-2.582,5a10.389,10.389,0,0,1-5.492,2.009,25.278,25.278,0,0,1-6.526-.088.108.108,0,1,1,.015-.216Z" fill="#151c20"/>
        <path id="Tracé_11559" data-name="Tracé 11559" d="M59.431,136.9q-.162,4.076-.343,8.162-.416,9.509-.916,19.019h-.911q.627-9.529,1.318-19.048.3-4.071.617-8.138a.118.118,0,1,1,.235-.022.081.081,0,0,1,0,.022Z" fill="#151c20"/>
        <path id="Tracé_11560" data-name="Tracé 11560" d="M114.259,152.748l-65.9-5S61.616,95.2,87.792,75.887c6.692-4.933,14.017-1.769,17.314,1.92,8.378,9.4,9.348,74.73,9.153,74.941" fill="#338338"/>
        <path id="Tracé_11561" data-name="Tracé 11561" d="M90.839,78.281a8.107,8.107,0,0,0-.529,2.185,7.835,7.835,0,0,0,1.078-1.96,8.191,8.191,0,0,0,.529-2.185,8.037,8.037,0,0,0-1.078,1.96m-7.153,28.347a7.649,7.649,0,0,0-.524,2.19,8.757,8.757,0,0,0,1.6-4.164,7.907,7.907,0,0,0-1.073,1.974ZM60.141,118.783a7.985,7.985,0,0,0-.529,2.19,8.712,8.712,0,0,0,1.6-4.164,8.249,8.249,0,0,0-1.073,1.974Zm19,17.906a7.551,7.551,0,0,0-.529,2.185,8.757,8.757,0,0,0,1.6-4.164,7.854,7.854,0,0,0-1.067,1.979ZM107.9,97.946a7.985,7.985,0,0,0-.529,2.19,8.712,8.712,0,0,0,1.6-4.164,7.606,7.606,0,0,0-1.073,1.984ZM96.17,133.588a7.625,7.625,0,0,0-.534,2.185,7.755,7.755,0,0,0,1.073-1.96,7.951,7.951,0,0,0,.529-2.185,7.708,7.708,0,0,0-1.068,1.96M72.424,96.614a7.951,7.951,0,0,0-.529,2.185,8.63,8.63,0,0,0,1.6-4.164,7.69,7.69,0,0,0-1.067,1.978Zm26.328-9.406a7.733,7.733,0,0,0-2.185-.529,7.837,7.837,0,0,0,1.96,1.068,7.657,7.657,0,0,0,2.19.529,7.741,7.741,0,0,0-1.957-1.069Zm7.466,23.619a7.8,7.8,0,0,0-2.185-.529,7.646,7.646,0,0,0,1.96,1.068,7.775,7.775,0,0,0,2.185.534,7.692,7.692,0,0,0-1.96-1.053Zm2,28.229a7.951,7.951,0,0,0-2.185-.529,7.694,7.694,0,0,0,1.96,1.073,8.024,8.024,0,0,0,2.185.529,7.988,7.988,0,0,0-1.96-1.053Zm-46.91-2.322a7.871,7.871,0,0,0-2.185-.529,8.656,8.656,0,0,0,4.159,1.6,7.826,7.826,0,0,0-1.974-1.053Zm16.956-18.127a7.915,7.915,0,0,0-2.185-.534,7.87,7.87,0,0,0,1.96,1.078,8.144,8.144,0,0,0,2.185.529,7.87,7.87,0,0,0-1.96-1.058Zm25.206-42.05c-.069-.147-.137-.289-.211-.431-.24-.181-.49-.358-.759-.529a10.094,10.094,0,0,0,.441,1.205,7.691,7.691,0,0,0,1.171,1.92,8,8,0,0,0-.642-2.151ZM84.221,91.8a7.818,7.818,0,0,0-1.171-1.92,8.614,8.614,0,0,0,1.813,4.076,7.745,7.745,0,0,0-.642-2.156m17,57.972a7.924,7.924,0,0,0-1.166-1.921A7.891,7.891,0,0,0,100.7,150a8.256,8.256,0,0,0,1.073,1.8h.078a7.778,7.778,0,0,0-.622-2.038ZM94.97,115.626A7.988,7.988,0,0,0,93.8,113.7a8.821,8.821,0,0,0,1.808,4.076,7.95,7.95,0,0,0-.638-2.159ZM50.084,141.66c-.029.1-.059.206-.093.3.064.069.122.142.181.211a4.47,4.47,0,0,0-.088-.5Zm19.6-13.071a7.924,7.924,0,0,0-1.171-1.916,8.616,8.616,0,0,0,1.813,4.071,7.95,7.95,0,0,0-.656-2.141Zm4.2,18.862a7.948,7.948,0,0,0-1.171-1.92,8.782,8.782,0,0,0,1.813,4.081,7.844,7.844,0,0,0-.656-2.141Zm32.957-22.693a8.063,8.063,0,0,0-1.92,1.171A8.78,8.78,0,0,0,109,124.116a7.843,7.843,0,0,0-2.175.656Zm-51.98,2.861-.25.676a6.969,6.969,0,0,0,1.47-.955,6.152,6.152,0,0,0-1.235.294Zm33.6,16.324a7.9,7.9,0,0,0-1.92,1.166,8.588,8.588,0,0,0,4.081-1.813,7.669,7.669,0,0,0-2.175.661Zm-30.047,4.37-.338.162,1.151.088a6.808,6.808,0,0,0,1.342-.892,8.039,8.039,0,0,0-2.17.656Zm11.542-40.286a8.347,8.347,0,0,0-1.92,1.171,8.783,8.783,0,0,0,4.081-1.808,7.846,7.846,0,0,0-2.175.652Zm16.892,18.764a7.966,7.966,0,0,0-1.92,1.176,8.723,8.723,0,0,0,4.081-1.813,7.994,7.994,0,0,0-2.175.652ZM95.667,101a8.176,8.176,0,0,0-1.921,1.171,8.668,8.668,0,0,0,4.076-1.808,7.946,7.946,0,0,0-2.185.652Z" fill="#fff"/>
        <path id="Tracé_11562" data-name="Tracé 11562" d="M101.373,88.789c-3.8-.563-7.662-8.236-8.329-13.468-.044-.363,5.879-11.665,6.8-14.021.191-.49,13.4,9.485,13.4,9.485a40.073,40.073,0,0,0-5.031,8.5c-.108.343-3.165,10.043-6.84,9.5" fill="#b94744"/>
        <path id="Tracé_11563" data-name="Tracé 11563" d="M113.268,70.785a40.27,40.27,0,0,0-5.036,8.5c-.029.083-.225.691-.549,1.558a21.166,21.166,0,0,1-10.675-13.6c1.284-2.572,2.479-4.987,2.861-5.943.191-.485,13.4,9.485,13.4,9.485" fill="#151c20"/>
        <path id="Tracé_11564" data-name="Tracé 11564" d="M109.153,67.846c.2.318.372.73.759.857a2.945,2.945,0,0,0,1.24,0,.04.04,0,0,1,.043.034.037.037,0,0,1-.014.035,1.5,1.5,0,0,1-1.519.26,1.185,1.185,0,0,1-.627-1.166c0-.066.088-.066.118-.02" fill="#151c20"/>
        <path id="Tracé_11565" data-name="Tracé 11565" d="M134.217,101.67c1.24-3.263,29.978,2.646,28.832,7.648-4.208,18.323-15.937,34.7-18.9,38.439-3.89,4.9-11.631,3.812-14.453.843-4.091-4.308,3.3-43.7,4.521-46.93" fill="#b94744"/>
        <path id="Tracé_11566" data-name="Tracé 11566" d="M132.194,110.664a37.288,37.288,0,0,0-1.514,5.389c-.416,1.813-.779,3.635-1.073,5.467a82.406,82.406,0,0,0-.98,11.2c-.054,2.1,0,4.189,0,6.286,0,.049.078.044.078,0,0-1.857.113-3.728.265-5.58s.338-3.738.578-5.595c.465-3.65.98-7.3,1.641-10.915q.274-1.524.573-3.037c.211-1.048.451-2.092.588-3.155,0-.08-.122-.148-.156-.06" fill="#151c20"/>
        <rect id="Rectangle_7468" data-name="Rectangle 7468" width="6.643" height="29.214" transform="translate(130.603 81.974) rotate(-12.421)" fill="#e0e0e0"/>
        <rect id="Rectangle_7469" data-name="Rectangle 7469" width="10.051" height="25.899" transform="translate(133.997 105.287) rotate(-12.421)" fill="#151c20"/>
        <path id="Tracé_11567" data-name="Tracé 11567" d="M144.535,56.2a1.646,1.646,0,1,0,1.377-1.877H145.9a1.646,1.646,0,0,0-1.367,1.876" fill="#fff"/>
        <path id="Tracé_11568" data-name="Tracé 11568" d="M161.118,115.044s7.016-11.533-1.72-22.536C155.8,87.981,147.317,79.863,130.1,81c-4.086.269-9.715,3.547-2.886,5.531,4.85,1.411,8.353.838,11.028,2.17,0,0-6.668,5.022-6.237,9.1a53.529,53.529,0,0,0,1.386,9.6,4.3,4.3,0,0,0,2.5.813s3.023,8.721,13.894,11.4Z" fill="#b94744"/>
        <path id="Tracé_11569" data-name="Tracé 11569" d="M155.711,91.028c-2.812-1.122-8.819-3.4-14.379-3.552-6.178-.171-18.127,1.166-18.2,5.727-.059,3.346,4.546,3.233,4.546,3.233s-4.821,1.592-4.208,4.625c.554,2.763,4.11,2.45,4.11,2.45s-2.758,1.47-1.71,4.027c1.259,3.077,6.829-.49,10.778,1.509.91.471,19.063-18.019,19.063-18.019" fill="#b94744"/>
        <path id="Tracé_11570" data-name="Tracé 11570" d="M142.227,94.031a24.644,24.644,0,0,0-14.492,2.3c-.113.059-.127.176,0,.142a60.86,60.86,0,0,1,14.492-2.381c.044,0,.044-.027,0-.061" fill="#151c20"/>
        <path id="Tracé_11571" data-name="Tracé 11571" d="M141.884,100.263c-2.489-.284-9.451.269-14.33,3.155-.113.064-.118.181,0,.142a65.031,65.031,0,0,1,14.34-3.238.03.03,0,1,0-.006-.06" fill="#151c20"/>
        <path id="Tracé_11572" data-name="Tracé 11572" d="M151.913,120.36a29.865,29.865,0,0,1-7.163-2.709,19.95,19.95,0,0,1-5.933-4.9c-.49-.612-.98-1.249-1.406-1.9s-.9-1.391-1.4-2.038c-.039-.049-.132,0-.1.044A22.7,22.7,0,0,0,138,112.742a15.867,15.867,0,0,0,2.616,3.111,17.9,17.9,0,0,0,6.859,3.8,24.269,24.269,0,0,0,4.409.8c.07.02.1-.078.031-.093" fill="#151c20"/>
        <path id="Tracé_11573" data-name="Tracé 11573" d="M80.4,83.455C67.78,100.4,46.718,144.567,43.622,151.064c-2.1,4.409,20.939,16.02,21.914,12.816,1.254-4.106,21.855-58.3,24.741-78.059,1.577-10.832-5.512-8.231-9.877-2.366" fill="#b94744"/>
        <path id="Tracé_11574" data-name="Tracé 11574" d="M66.158,161.675c-.534,3.993-3.248,12.037-5.267,13.267s-12.625.98-17.97.98-6.369-1.494-6.305-3.331,11.3-2.19,11.3-2.19-14.982,4.272-18.749,4.992-12.444,2.891-13.718-.23c-.563-1.411,1.813-2.837,1.813-2.837s-3.64,1.063-4.223-.745c-.656-2.063,2.239-3.194,2.239-3.194s-2.278.456-2.332-1.225c-.1-3.772,14.149-5.614,14.149-5.614s-10.9,5.31-11.263,2.243c-.49-4.238,21.87-8.887,24.2-10.734a43.612,43.612,0,0,0,4.738-4.6Z" fill="#b94744"/>
        <path id="Tracé_11575" data-name="Tracé 11575" d="M36.694,173.5a1.656,1.656,0,0,1,.49-1.431,4.627,4.627,0,0,1,1.3-.843,17.469,17.469,0,0,1,3.062-.98c2.107-.534,4.267-.911,6.418-1.47a26.348,26.348,0,0,0-6.584.735,12.113,12.113,0,0,0-3.15,1.206,4.251,4.251,0,0,0-1.318,1.127,1.7,1.7,0,0,0-.22,1.656Z" fill="#151c20"/>
        <path id="Tracé_11576" data-name="Tracé 11576" d="M17.3,172.3c1.543-.377,3.062-.808,4.576-1.249s3.023-.9,4.532-1.357l4.512-1.411c1.5-.49,3.008-.941,4.527-1.4a35.171,35.171,0,0,0-4.679.838c-1.548.353-3.067.794-4.581,1.254s-3.013.98-4.493,1.529-2.973,1.132-4.394,1.8" fill="#151c20"/>
        <path id="Tracé_11577" data-name="Tracé 11577" d="M31.809,163.144a29.262,29.262,0,0,0-4.321.6,39.245,39.245,0,0,0-4.228,1.088,38.453,38.453,0,0,0-4.091,1.529,30.2,30.2,0,0,0-3.875,2c1.377-.49,2.719-1,4.086-1.47s2.729-.926,4.106-1.347,2.753-.838,4.14-1.244,2.777-.764,4.183-1.156" fill="#151c20"/>
        <path id="Tracé_11578" data-name="Tracé 11578" d="M29.6,159.578a29.281,29.281,0,0,0-13.184,4.537c2.214-.789,4.37-1.622,6.57-2.357s4.38-1.46,6.614-2.18" fill="#151c20"/>
        <path id="Tracé_11579" data-name="Tracé 11579" d="M85.765,112.5,60.191,111.8s13.938-22.184,21.4-30.321c7.795-8.476,12.037-7.746,9.377,7.27-2.675,15.119-5.2,23.756-5.2,23.756" fill="#338338"/>
        <path id="Tracé_11580" data-name="Tracé 11580" d="M69.939,108.039a8.347,8.347,0,0,0-1.92,1.171A8.783,8.783,0,0,0,72.1,107.4a7.846,7.846,0,0,0-2.161.637M84.22,91.793a7.787,7.787,0,0,0-1.171-1.92,8.614,8.614,0,0,0,1.813,4.076,7.745,7.745,0,0,0-.642-2.156M72.428,96.612A7.951,7.951,0,0,0,71.9,98.8a8.63,8.63,0,0,0,1.6-4.164,7.692,7.692,0,0,0-1.071,1.979M83.7,106.626a7.649,7.649,0,0,0-.524,2.19,8.757,8.757,0,0,0,1.6-4.164,7.923,7.923,0,0,0-1.083,1.974ZM91.2,77.5c-.122.255-.235.514-.343.779a8.144,8.144,0,0,0-.529,2.185A7.857,7.857,0,0,0,91.4,78.5c.024-.064.044-.122.064-.186a5.121,5.121,0,0,0-.279-.818Z" fill="#fff"/>
        <path id="Tracé_11581" data-name="Tracé 11581" d="M84.163,108.053c-.607-.088-1.23-.088-1.837-.118l-1.886-.1q-1.9-.093-3.816-.152c-2.548-.078-5.09-.167-7.633-.2h-2.1c-.7,0-1.47.073-2.2.078-.044,0-.039.069,0,.069.627.039,1.254.132,1.886.172s1.288.078,1.935.1c1.274.049,2.548.093,3.821.122,2.5.059,5.012.127,7.515.132h2.126c.73,0,1.47.039,2.2-.025.022-.014.028-.073-.011-.078" fill="#151c20"/>
        <path id="Tracé_11582" data-name="Tracé 11582" d="M90.723,95.869c0-.049-.059-.078-.083-.029a19.337,19.337,0,0,0-1.215,2.719c.088-.446.191-.892.274-1.342.279-1.44.534-2.891.818-4.331a.044.044,0,0,0-.056-.027.041.041,0,0,0-.027.027c-.661,2.479-1.431,4.933-2.018,7.432s-1.181,5-1.729,7.506c-.3,1.386-.568,3.116-.872,4.5-.74.088-1.69,0-2.489.1-.069,0-.049.122,0,.122.843.025,1.847.216,2.734.162.113,0,2.259-8.912,3.15-13.179.547-1.216,1.057-2.431,1.513-3.66" fill="#151c20"/>
        <path id="Tracé_11583" data-name="Tracé 11583" d="M108.913,82.014c-.358,1.171-.764,2.327-1.23,3.459a18.76,18.76,0,0,1-1.426,2.94,5.8,5.8,0,0,1-4.747,3.047,6.866,6.866,0,0,1-5.01-2.587A20.653,20.653,0,0,1,93.4,83.4c-.49-1.181-.98-2.386-1.372-3.606-.2-.617-.412-1.235-.588-1.862s-.328-1.259-.544-1.871c0-.049-.108-.044-.093,0,.363,1.411,1.416,5.879,1.837,7.016a21.5,21.5,0,0,0,3.042,5.987,7.8,7.8,0,0,0,5.272,3.116,5.655,5.655,0,0,0,5.178-2.631,13.815,13.815,0,0,0,1.617-3.464c.456-1.342.838-2.719,1.186-4.1.019.023-.025.018-.025.033" fill="#151c20"/>
        <path id="Tracé_11584" data-name="Tracé 11584" d="M189.191,177.1H154.059l-1.568-30.884h36.7Z" fill="#c9c9c9"/>
        <path id="Tracé_11585" data-name="Tracé 11585" d="M189.191,146.223l12.62-15.8,10.043,15.8L210.286,177.1h-21.1Z" fill="#aeadac"/>
        <path id="Tracé_11586" data-name="Tracé 11586" d="M164.754,125.4h37.5l13.527,22.066h-4.355l-9.171-15.276-10.577,17.1H149.395Z" fill="#838182"/>
        <path id="Tracé_11587" data-name="Tracé 11587" d="M169.1,132.388h-8.064l-4.3,5.154h9.308Z" fill="#aeadac"/>
        <path id="Tracé_11588" data-name="Tracé 11588" d="M162.991,136.659v6.276H158.5v-6.276l2.244-2.807Z" fill="#c9c9c9"/>
        <path id="Tracé_11589" data-name="Tracé 11589" d="M162.99,136.655h3.527l-3.527,6.281Z" fill="#aeadac"/>
        <rect id="Rectangle_7470" data-name="Rectangle 7470" width="2.552" height="4.306" transform="translate(159.355 136.758)" fill="#f9fafd"/>
        <rect id="Rectangle_7471" data-name="Rectangle 7471" width="0.823" height="1.386" transform="translate(159.669 137.057)" fill="#e0e0e0"/>
        <rect id="Rectangle_7472" data-name="Rectangle 7472" width="0.823" height="1.386" transform="translate(160.766 137.057)" fill="#e0e0e0"/>
        <rect id="Rectangle_7473" data-name="Rectangle 7473" width="0.823" height="2.053" transform="translate(159.669 138.693)" fill="#e0e0e0"/>
        <rect id="Rectangle_7474" data-name="Rectangle 7474" width="0.823" height="2.053" transform="translate(160.766 138.693)" fill="#e0e0e0"/>
        <path id="Tracé_11590" data-name="Tracé 11590" d="M188.843,132.388h-8.064l-4.037,5.154h9.024Z" fill="#aeadac"/>
        <path id="Tracé_11591" data-name="Tracé 11591" d="M182.734,136.659v6.276h-4.488v-6.276l2.244-2.807Z" fill="#c9c9c9"/>
        <path id="Tracé_11592" data-name="Tracé 11592" d="M182.734,136.655h3.532l-3.532,6.281Z" fill="#aeadac"/>
        <rect id="Rectangle_7475" data-name="Rectangle 7475" width="2.552" height="4.306" transform="translate(179.099 136.758)" fill="#f9fafd"/>
        <rect id="Rectangle_7476" data-name="Rectangle 7476" width="0.823" height="1.386" transform="translate(179.412 137.057)" fill="#e0e0e0"/>
        <rect id="Rectangle_7477" data-name="Rectangle 7477" width="0.823" height="1.386" transform="translate(180.515 137.057)" fill="#e0e0e0"/>
        <rect id="Rectangle_7478" data-name="Rectangle 7478" width="0.823" height="2.053" transform="translate(179.412 138.693)" fill="#e0e0e0"/>
        <rect id="Rectangle_7479" data-name="Rectangle 7479" width="0.823" height="2.053" transform="translate(180.515 138.693)" fill="#e0e0e0"/>
        <rect id="Rectangle_7480" data-name="Rectangle 7480" width="4.488" height="5.908" transform="translate(191.043 124.515)" fill="#c9c9c9"/>
        <path id="Tracé_11593" data-name="Tracé 11593" d="M195.531,124.515h3.527v.95l-3.527,4.958Z" fill="#aeadac"/>
        <rect id="Rectangle_7481" data-name="Rectangle 7481" width="4.992" height="2.009" transform="translate(190.538 122.506)" fill="#aeadac"/>
        <rect id="Rectangle_7482" data-name="Rectangle 7482" width="3.914" height="2.009" transform="translate(195.531 122.506)" fill="#838182"/>
        <rect id="Rectangle_7483" data-name="Rectangle 7483" width="5.556" height="9.382" transform="translate(157.773 151.823)" fill="#f9fafd"/>
        <rect id="Rectangle_7484" data-name="Rectangle 7484" width="1.788" height="3.023" transform="translate(158.459 152.474)" fill="#e0e0e0"/>
        <rect id="Rectangle_7485" data-name="Rectangle 7485" width="1.788" height="3.023" transform="translate(160.854 152.474)" fill="#e0e0e0"/>
        <rect id="Rectangle_7486" data-name="Rectangle 7486" width="1.788" height="4.478" transform="translate(158.459 156.041)" fill="#e0e0e0"/>
        <rect id="Rectangle_7487" data-name="Rectangle 7487" width="1.788" height="4.478" transform="translate(160.854 156.041)" fill="#e0e0e0"/>
        <rect id="Rectangle_7488" data-name="Rectangle 7488" width="5.556" height="9.382" transform="translate(178.408 151.823)" fill="#f9fafd"/>
        <rect id="Rectangle_7489" data-name="Rectangle 7489" width="1.788" height="3.023" transform="translate(179.094 152.474)" fill="#e0e0e0"/>
        <rect id="Rectangle_7490" data-name="Rectangle 7490" width="1.788" height="3.023" transform="translate(181.49 152.474)" fill="#e0e0e0"/>
        <rect id="Rectangle_7491" data-name="Rectangle 7491" width="1.788" height="4.478" transform="translate(179.094 156.041)" fill="#e0e0e0"/>
        <rect id="Rectangle_7492" data-name="Rectangle 7492" width="1.788" height="4.478" transform="translate(181.49 156.041)" fill="#e0e0e0"/>
        <rect id="Rectangle_7493" data-name="Rectangle 7493" width="5.556" height="9.382" transform="translate(157.773 164.859)" fill="#f9fafd"/>
        <rect id="Rectangle_7494" data-name="Rectangle 7494" width="1.788" height="3.023" transform="translate(158.459 165.511)" fill="#e0e0e0"/>
        <rect id="Rectangle_7495" data-name="Rectangle 7495" width="1.788" height="3.023" transform="translate(160.854 165.511)" fill="#e0e0e0"/>
        <rect id="Rectangle_7496" data-name="Rectangle 7496" width="1.788" height="4.478" transform="translate(158.459 169.078)" fill="#e0e0e0"/>
        <rect id="Rectangle_7497" data-name="Rectangle 7497" width="1.788" height="4.478" transform="translate(160.854 169.078)" fill="#e0e0e0"/>
        <rect id="Rectangle_7498" data-name="Rectangle 7498" width="5.556" height="9.382" transform="translate(178.408 164.859)" fill="#f9fafd"/>
        <rect id="Rectangle_7499" data-name="Rectangle 7499" width="1.788" height="3.023" transform="translate(179.094 165.511)" fill="#e0e0e0"/>
        <rect id="Rectangle_7500" data-name="Rectangle 7500" width="1.788" height="3.023" transform="translate(181.49 165.511)" fill="#e0e0e0"/>
        <rect id="Rectangle_7501" data-name="Rectangle 7501" width="1.788" height="4.478" transform="translate(179.094 169.078)" fill="#e0e0e0"/>
        <rect id="Rectangle_7502" data-name="Rectangle 7502" width="1.788" height="4.478" transform="translate(181.49 169.078)" fill="#e0e0e0"/>
        <rect id="Rectangle_7503" data-name="Rectangle 7503" width="5.556" height="9.382" transform="translate(168.061 151.823)" fill="#f9fafd"/>
        <rect id="Rectangle_7504" data-name="Rectangle 7504" width="1.788" height="3.023" transform="translate(168.747 152.474)" fill="#e0e0e0"/>
        <rect id="Rectangle_7505" data-name="Rectangle 7505" width="1.788" height="3.023" transform="translate(171.147 152.474)" fill="#e0e0e0"/>
        <rect id="Rectangle_7506" data-name="Rectangle 7506" width="1.788" height="4.478" transform="translate(168.747 156.041)" fill="#e0e0e0"/>
        <rect id="Rectangle_7507" data-name="Rectangle 7507" width="1.788" height="4.478" transform="translate(171.147 156.041)" fill="#e0e0e0"/>
        <rect id="Rectangle_7508" data-name="Rectangle 7508" width="5.556" height="9.382" transform="translate(168.061 164.923)" fill="#f9fafd"/>
        <rect id="Rectangle_7509" data-name="Rectangle 7509" width="1.788" height="3.023" transform="translate(168.747 165.57)" fill="#e0e0e0"/>
        <rect id="Rectangle_7510" data-name="Rectangle 7510" width="1.788" height="3.023" transform="translate(171.147 165.57)" fill="#e0e0e0"/>
        <rect id="Rectangle_7511" data-name="Rectangle 7511" width="1.788" height="4.478" transform="translate(168.747 169.141)" fill="#e0e0e0"/>
        <rect id="Rectangle_7512" data-name="Rectangle 7512" width="1.788" height="4.478" transform="translate(171.147 169.141)" fill="#e0e0e0"/>
        <rect id="Rectangle_7513" data-name="Rectangle 7513" width="5.556" height="9.382" transform="translate(199.175 151.823)" fill="#f9fafd"/>
        <rect id="Rectangle_7514" data-name="Rectangle 7514" width="1.788" height="3.023" transform="translate(202.257 152.474)" fill="#e0e0e0"/>
        <rect id="Rectangle_7515" data-name="Rectangle 7515" width="1.788" height="3.023" transform="translate(199.857 152.474)" fill="#e0e0e0"/>
        <rect id="Rectangle_7516" data-name="Rectangle 7516" width="1.788" height="4.478" transform="translate(202.257 156.041)" fill="#e0e0e0"/>
        <rect id="Rectangle_7517" data-name="Rectangle 7517" width="1.788" height="4.478" transform="translate(199.857 156.041)" fill="#e0e0e0"/>
        <rect id="Rectangle_7518" data-name="Rectangle 7518" width="5.556" height="7.942" transform="translate(199.175 138.761)" fill="#f9fafd"/>
        <rect id="Rectangle_7519" data-name="Rectangle 7519" width="1.788" height="3.023" transform="translate(202.257 139.408)" fill="#e0e0e0"/>
        <rect id="Rectangle_7520" data-name="Rectangle 7520" width="1.788" height="3.023" transform="translate(199.857 139.408)" fill="#e0e0e0"/>
        <rect id="Rectangle_7521" data-name="Rectangle 7521" width="1.788" height="3.023" transform="translate(202.257 143.009)" fill="#e0e0e0"/>
        <rect id="Rectangle_7522" data-name="Rectangle 7522" width="1.788" height="3.023" transform="translate(199.857 143.009)" fill="#e0e0e0"/>
        <rect id="Rectangle_7523" data-name="Rectangle 7523" width="12.233" height="6.736" transform="translate(198.385 177.165) rotate(-89.728)" fill="#f9fafd"/>
        <rect id="Rectangle_7524" data-name="Rectangle 7524" width="1.832" height="1.45" transform="matrix(0.005, -1, 1, 0.005, 201.067, 167.61)" fill="#e0e0e0"/>
        <rect id="Rectangle_7525" data-name="Rectangle 7525" width="1.832" height="1.45" transform="translate(199.172 167.6) rotate(-89.719)" fill="#e0e0e0"/>
        <rect id="Rectangle_7526" data-name="Rectangle 7526" width="0.441" height="3.062" transform="translate(200.234 174.264) rotate(-89.74)" fill="#e0e0e0"/>
        <rect id="Rectangle_7527" data-name="Rectangle 7527" width="1.45" height="1.832" transform="translate(201.983 164.845)" fill="#e0e0e0"/>
        <rect id="Rectangle_7528" data-name="Rectangle 7528" width="1.832" height="1.45" transform="matrix(0.005, -1, 1, 0.005, 201.062, 169.924)" fill="#e0e0e0"/>
        <rect id="Rectangle_7529" data-name="Rectangle 7529" width="1.832" height="1.45" transform="matrix(0.005, -1, 1, 0.005, 199.152, 169.909)" fill="#e0e0e0"/>
        <rect id="Rectangle_7530" data-name="Rectangle 7530" width="1.832" height="1.45" transform="matrix(0.005, -1, 1, 0.005, 202.962, 169.934)" fill="#e0e0e0"/>
        <rect id="Rectangle_7531" data-name="Rectangle 7531" width="1.832" height="1.45" transform="matrix(0.005, -1, 1, 0.005, 201.052, 172.242)" fill="#e0e0e0"/>
        <rect id="Rectangle_7532" data-name="Rectangle 7532" width="1.832" height="1.45" transform="matrix(0.005, -1, 1, 0.005, 199.147, 172.232)" fill="#e0e0e0"/>
        <rect id="Rectangle_7533" data-name="Rectangle 7533" width="1.832" height="1.45" transform="matrix(0.005, -1, 1, 0.005, 202.952, 172.252)" fill="#e0e0e0"/>
        <path id="Tracé_11594" data-name="Tracé 11594" d="M92.5,177.191H61.293l-1.4-15.124h32.6Z" fill="#c9c9c9"/>
        <path id="Tracé_11595" data-name="Tracé 11595" d="M92.491,162.047,103.7,148.016l8.926,14.031-1.4,15.124H92.491Z" fill="#aeadac"/>
        <path id="Tracé_11596" data-name="Tracé 11596" d="M70.607,143.577h33.9l12.557,21.218H113.64l-9.593-15.971-9.215,15.971H57.271Z" fill="#838182"/>
        <rect id="Rectangle_7534" data-name="Rectangle 7534" width="4.938" height="7.055" transform="translate(64.664 167.681)" fill="#f9fafd"/>
        <rect id="Rectangle_7535" data-name="Rectangle 7535" width="1.587" height="2.685" transform="translate(65.271 168.259)" fill="#c9c9c9"/>
        <rect id="Rectangle_7536" data-name="Rectangle 7536" width="1.587" height="2.685" transform="translate(67.402 168.259)" fill="#c9c9c9"/>
        <rect id="Rectangle_7537" data-name="Rectangle 7537" width="1.587" height="2.685" transform="translate(65.271 171.454)" fill="#c9c9c9"/>
        <rect id="Rectangle_7538" data-name="Rectangle 7538" width="1.587" height="2.685" transform="translate(67.402 171.454)" fill="#c9c9c9"/>
        <rect id="Rectangle_7539" data-name="Rectangle 7539" width="4.938" height="7.055" transform="translate(82.801 167.681)" fill="#f9fafd"/>
        <rect id="Rectangle_7540" data-name="Rectangle 7540" width="1.587" height="2.685" transform="translate(83.408 168.259)" fill="#c9c9c9"/>
        <rect id="Rectangle_7541" data-name="Rectangle 7541" width="1.587" height="2.685" transform="translate(85.539 168.259)" fill="#c9c9c9"/>
        <rect id="Rectangle_7542" data-name="Rectangle 7542" width="1.587" height="2.685" transform="translate(83.408 171.454)" fill="#c9c9c9"/>
        <rect id="Rectangle_7543" data-name="Rectangle 7543" width="1.587" height="2.685" transform="translate(85.539 171.454)" fill="#c9c9c9"/>
        <rect id="Rectangle_7544" data-name="Rectangle 7544" width="5.443" height="9.887" transform="translate(73.257 167.304)" fill="#f9fafd"/>
        <rect id="Rectangle_7545" data-name="Rectangle 7545" width="1.171" height="1.48" transform="translate(75.393 167.985)" fill="#c9c9c9"/>
        <rect id="Rectangle_7546" data-name="Rectangle 7546" width="1.171" height="1.48" transform="translate(76.931 167.985)" fill="#c9c9c9"/>
        <rect id="Rectangle_7547" data-name="Rectangle 7547" width="2.474" height="0.358" transform="translate(74.741 174.476)" fill="#c9c9c9"/>
        <rect id="Rectangle_7548" data-name="Rectangle 7548" width="1.171" height="1.48" transform="translate(73.855 167.985)" fill="#c9c9c9"/>
        <rect id="Rectangle_7549" data-name="Rectangle 7549" width="1.171" height="1.48" transform="translate(75.393 169.857)" fill="#c9c9c9"/>
        <rect id="Rectangle_7550" data-name="Rectangle 7550" width="1.171" height="1.48" transform="translate(76.931 169.857)" fill="#c9c9c9"/>
        <rect id="Rectangle_7551" data-name="Rectangle 7551" width="1.171" height="1.48" transform="translate(73.855 169.857)" fill="#c9c9c9"/>
        <rect id="Rectangle_7552" data-name="Rectangle 7552" width="1.171" height="1.48" transform="translate(75.393 171.728)" fill="#c9c9c9"/>
        <rect id="Rectangle_7553" data-name="Rectangle 7553" width="1.171" height="1.48" transform="translate(76.931 171.728)" fill="#c9c9c9"/>
        <rect id="Rectangle_7554" data-name="Rectangle 7554" width="1.171" height="1.48" transform="translate(73.855 171.728)" fill="#c9c9c9"/>
        <rect id="Rectangle_7555" data-name="Rectangle 7555" width="3.988" height="5.247" transform="translate(73.791 142.73)" fill="#c9c9c9"/>
        <path id="Tracé_11597" data-name="Tracé 11597" d="M77.779,142.73h3.135v.843l-3.135,4.4Z" fill="#aeadac"/>
        <rect id="Rectangle_7556" data-name="Rectangle 7556" width="4.434" height="1.783" transform="translate(73.345 140.942)" fill="#aeadac"/>
        <rect id="Rectangle_7557" data-name="Rectangle 7557" width="3.478" height="1.783" transform="translate(77.779 140.942)" fill="#838182"/>
        <path id="Tracé_11598" data-name="Tracé 11598" d="M104.837,177.195h10.12l.965-10.43H104.837Z" fill="#aeadac"/>
        <path id="Tracé_11599" data-name="Tracé 11599" d="M104.837,166.766l-5-2.259L99.95,177.2h4.889Z" fill="#c9c9c9"/>
        <rect id="Rectangle_7558" data-name="Rectangle 7558" width="4.257" height="7.726" transform="translate(108.33 169.465)" fill="#f9fafd"/>
        <rect id="Rectangle_7559" data-name="Rectangle 7559" width="0.916" height="1.156" transform="translate(110.001 169.994)" fill="#c9c9c9"/>
        <rect id="Rectangle_7560" data-name="Rectangle 7560" width="0.916" height="1.156" transform="translate(111.201 169.994)" fill="#c9c9c9"/>
        <rect id="Rectangle_7561" data-name="Rectangle 7561" width="1.935" height="0.279" transform="translate(109.491 174.55)" fill="#c9c9c9"/>
        <rect id="Rectangle_7562" data-name="Rectangle 7562" width="0.916" height="1.156" transform="translate(108.801 169.994)" fill="#c9c9c9"/>
        <path id="Tracé_11600" data-name="Tracé 11600" d="M99.071,163.987h14.707l4.752,3.616H104.411Z" fill="#838182"/>
        <path id="Tracé_11601" data-name="Tracé 11601" d="M104.411,167.6h-5.34v-3.616Z" fill="#aeadac"/>
        <path id="Tracé_11602" data-name="Tracé 11602" d="M101.251,158.7a2.523,2.523,0,1,0,2.523-2.523h-.005a2.524,2.524,0,0,0-2.518,2.523" fill="#f9fafd"/>
        <path id="Tracé_11603" data-name="Tracé 11603" d="M101.814,158.7a1.962,1.962,0,0,0,1.96,1.96,1.807,1.807,0,0,0,.49-.064,1.96,1.96,0,0,0-.49-3.851,1.847,1.847,0,0,0-.49.064,1.766,1.766,0,0,0-.632.294,1.959,1.959,0,0,0-.838,1.6Z" fill="#aeadac"/>
        <rect id="Rectangle_7563" data-name="Rectangle 7563" width="0.544" height="4.644" transform="translate(103.499 156.36)" fill="#f9fafd"/>
        <rect id="Rectangle_7564" data-name="Rectangle 7564" width="4.644" height="0.544" transform="translate(101.452 158.407)" fill="#f9fafd"/>
        <path id="Tracé_11604" data-name="Tracé 11604" d="M119.26,177.2H103.49l-1.078-11.665H119.26Z" fill="#338338"/>
        <g id="Groupe_2862" data-name="Groupe 2862" opacity="0.2">
          <g id="Groupe_2861" data-name="Groupe 2861">
            <g id="Groupe_2860" data-name="Groupe 2860" clip-path="url(#clip-path-5)">
              <g id="Groupe_2859" data-name="Groupe 2859">
                <g id="Groupe_2858" data-name="Groupe 2858" clip-path="url(#clip-path-5)">
                  <path id="Tracé_11605" data-name="Tracé 11605" d="M119.26,177.2H103.49l-1.078-11.665H119.26Z" fill="#060708"/>
                </g>
              </g>
            </g>
          </g>
        </g>
        <path id="Tracé_11606" data-name="Tracé 11606" d="M119.26,165.533l8.647-10.827,6.883,10.827L133.717,177.2H119.26Z" fill="#338338"/>
        <path id="Tracé_11607" data-name="Tracé 11607" d="M120.3,166.956H98.9l13.017-16.368h16.074l9.661,16.368H135.2l-7.207-11.214Z" fill="#338338"/>
        <g id="Groupe_2867" data-name="Groupe 2867" opacity="0.4">
          <g id="Groupe_2866" data-name="Groupe 2866">
            <g id="Groupe_2865" data-name="Groupe 2865" clip-path="url(#clip-path-7)">
              <g id="Groupe_2864" data-name="Groupe 2864">
                <g id="Groupe_2863" data-name="Groupe 2863" clip-path="url(#clip-path-8)">
                  <path id="Tracé_11608" data-name="Tracé 11608" d="M120.3,166.956H98.9l13.017-16.368h16.074l9.661,16.368H135.2l-7.207-11.214Z" fill="#060708"/>
                </g>
              </g>
            </g>
          </g>
        </g>
        <rect id="Rectangle_7569" data-name="Rectangle 7569" width="4.458" height="5.869" transform="translate(137.441 136.111)" fill="#338338"/>
        <g id="Groupe_2872" data-name="Groupe 2872" opacity="0.2">
          <g id="Groupe_2871" data-name="Groupe 2871">
            <g id="Groupe_2870" data-name="Groupe 2870" clip-path="url(#clip-path-9)">
              <g id="Groupe_2869" data-name="Groupe 2869">
                <g id="Groupe_2868" data-name="Groupe 2868" clip-path="url(#clip-path-9)">
                  <rect id="Rectangle_7570" data-name="Rectangle 7570" width="4.458" height="5.869" transform="translate(137.441 136.111)" fill="#060708"/>
                </g>
              </g>
            </g>
          </g>
        </g>
        <rect id="Rectangle_7573" data-name="Rectangle 7573" width="3.508" height="5.869" transform="translate(141.899 136.111)" fill="#338338"/>
        <rect id="Rectangle_7574" data-name="Rectangle 7574" width="4.958" height="1.994" transform="translate(136.941 134.112)" fill="#338338"/>
        <g id="Groupe_2877" data-name="Groupe 2877" opacity="0.5">
          <g id="Groupe_2876" data-name="Groupe 2876">
            <g id="Groupe_2875" data-name="Groupe 2875" clip-path="url(#clip-path-11)">
              <g id="Groupe_2874" data-name="Groupe 2874">
                <g id="Groupe_2873" data-name="Groupe 2873" clip-path="url(#clip-path-11)">
                  <rect id="Rectangle_7575" data-name="Rectangle 7575" width="4.958" height="1.994" transform="translate(136.941 134.112)" fill="#060708"/>
                </g>
              </g>
            </g>
          </g>
        </g>
        <rect id="Rectangle_7578" data-name="Rectangle 7578" width="3.89" height="1.994" transform="translate(141.899 134.112)" fill="#338338"/>
        <g id="Groupe_2882" data-name="Groupe 2882" opacity="0.4">
          <g id="Groupe_2881" data-name="Groupe 2881">
            <g id="Groupe_2880" data-name="Groupe 2880" clip-path="url(#clip-path-13)">
              <g id="Groupe_2879" data-name="Groupe 2879">
                <g id="Groupe_2878" data-name="Groupe 2878" clip-path="url(#clip-path-13)">
                  <rect id="Rectangle_7579" data-name="Rectangle 7579" width="3.89" height="1.994" transform="translate(141.899 134.112)" fill="#060708"/>
                </g>
              </g>
            </g>
          </g>
        </g>
        <path id="Tracé_11609" data-name="Tracé 11609" d="M157.566,177.181H122.66l-1.56-16.917h36.469Z" fill="#338338"/>
        <g id="Groupe_2887" data-name="Groupe 2887" opacity="0.2">
          <g id="Groupe_2886" data-name="Groupe 2886">
            <g id="Groupe_2885" data-name="Groupe 2885" clip-path="url(#clip-path-15)">
              <g id="Groupe_2884" data-name="Groupe 2884">
                <g id="Groupe_2883" data-name="Groupe 2883" clip-path="url(#clip-path-16)">
                  <path id="Tracé_11610" data-name="Tracé 11610" d="M157.566,177.181H122.66l-1.56-16.917h36.469Z" fill="#060708"/>
                </g>
              </g>
            </g>
          </g>
        </g>
        <path id="Tracé_11611" data-name="Tracé 11611" d="M157.567,160.264l12.537-15.7,9.984,15.7-1.563,16.917H157.567Z" fill="#338338"/>
        <path id="Tracé_11612" data-name="Tracé 11612" d="M169.952,145.557,180.26,161.5h3.6l-13.6-21.919H133.13L114.317,163.32h45.352Z" fill="#338338"/>
        <g id="Groupe_2892" data-name="Groupe 2892" opacity="0.5">
          <g id="Groupe_2891" data-name="Groupe 2891">
            <g id="Groupe_2890" data-name="Groupe 2890" clip-path="url(#clip-path-17)">
              <g id="Groupe_2889" data-name="Groupe 2889">
                <g id="Groupe_2888" data-name="Groupe 2888" clip-path="url(#clip-path-18)">
                  <path id="Tracé_11613" data-name="Tracé 11613" d="M169.952,145.557,180.26,161.5h3.6l-13.6-21.919H133.13L114.317,163.32h45.352Z" fill="#060708"/>
                </g>
              </g>
            </g>
          </g>
        </g>
        <rect id="Rectangle_7586" data-name="Rectangle 7586" width="5.521" height="7.893" transform="translate(166.846 154.747)" fill="#f9fafd"/>
        <rect id="Rectangle_7587" data-name="Rectangle 7587" width="1.778" height="3.003" transform="translate(169.908 155.389)" fill="#338338"/>
        <rect id="Rectangle_7588" data-name="Rectangle 7588" width="1.778" height="3.003" transform="translate(167.527 155.389)" fill="#338338"/>
        <rect id="Rectangle_7589" data-name="Rectangle 7589" width="1.778" height="3.003" transform="translate(169.908 158.966)" fill="#338338"/>
        <rect id="Rectangle_7590" data-name="Rectangle 7590" width="1.778" height="3.003" transform="translate(167.527 158.966)" fill="#338338"/>
        <rect id="Rectangle_7591" data-name="Rectangle 7591" width="5.521" height="7.893" transform="translate(126.428 166.54)" fill="#f9fafd"/>
        <rect id="Rectangle_7592" data-name="Rectangle 7592" width="1.778" height="3.003" transform="translate(127.109 167.187)" fill="#338338"/>
        <rect id="Rectangle_7593" data-name="Rectangle 7593" width="1.778" height="3.003" transform="translate(129.495 167.187)" fill="#338338"/>
        <rect id="Rectangle_7594" data-name="Rectangle 7594" width="1.778" height="3.003" transform="translate(127.109 170.763)" fill="#338338"/>
        <rect id="Rectangle_7595" data-name="Rectangle 7595" width="1.778" height="3.003" transform="translate(129.495 170.763)" fill="#338338"/>
        <rect id="Rectangle_7596" data-name="Rectangle 7596" width="5.521" height="7.893" transform="translate(136.574 166.54)" fill="#f9fafd"/>
        <rect id="Rectangle_7597" data-name="Rectangle 7597" width="1.778" height="3.003" transform="translate(137.25 167.187)" fill="#338338"/>
        <rect id="Rectangle_7598" data-name="Rectangle 7598" width="1.778" height="3.003" transform="translate(139.636 167.187)" fill="#338338"/>
        <rect id="Rectangle_7599" data-name="Rectangle 7599" width="1.778" height="3.003" transform="translate(137.25 170.763)" fill="#338338"/>
        <rect id="Rectangle_7600" data-name="Rectangle 7600" width="1.778" height="3.003" transform="translate(139.636 170.763)" fill="#338338"/>
        <rect id="Rectangle_7601" data-name="Rectangle 7601" width="5.521" height="7.893" transform="translate(146.715 166.54)" fill="#f9fafd"/>
        <rect id="Rectangle_7602" data-name="Rectangle 7602" width="1.778" height="3.003" transform="translate(147.396 167.187)" fill="#338338"/>
        <rect id="Rectangle_7603" data-name="Rectangle 7603" width="1.778" height="3.003" transform="translate(149.777 167.187)" fill="#338338"/>
        <rect id="Rectangle_7604" data-name="Rectangle 7604" width="1.778" height="3.003" transform="translate(147.396 170.763)" fill="#338338"/>
        <rect id="Rectangle_7605" data-name="Rectangle 7605" width="1.778" height="3.003" transform="translate(149.777 170.763)" fill="#338338"/>
        <rect id="Rectangle_7606" data-name="Rectangle 7606" width="6.09" height="11.057" transform="translate(166.562 166.119)" fill="#f9fafd"/>
        <rect id="Rectangle_7607" data-name="Rectangle 7607" width="1.313" height="1.656" transform="translate(168.953 166.883)" fill="#338338"/>
        <rect id="Rectangle_7608" data-name="Rectangle 7608" width="1.313" height="1.656" transform="translate(167.233 166.883)" fill="#338338"/>
        <rect id="Rectangle_7609" data-name="Rectangle 7609" width="2.768" height="0.402" transform="translate(168.223 174.143)" fill="#338338"/>
        <rect id="Rectangle_7610" data-name="Rectangle 7610" width="1.313" height="1.656" transform="translate(170.667 166.883)" fill="#338338"/>
        <rect id="Rectangle_7611" data-name="Rectangle 7611" width="1.313" height="1.656" transform="translate(168.953 168.975)" fill="#338338"/>
        <rect id="Rectangle_7612" data-name="Rectangle 7612" width="1.313" height="1.656" transform="translate(167.233 168.975)" fill="#338338"/>
        <rect id="Rectangle_7613" data-name="Rectangle 7613" width="1.313" height="1.656" transform="translate(170.667 168.975)" fill="#338338"/>
        <rect id="Rectangle_7614" data-name="Rectangle 7614" width="1.313" height="1.656" transform="translate(168.953 171.067)" fill="#338338"/>
        <rect id="Rectangle_7615" data-name="Rectangle 7615" width="1.313" height="1.656" transform="translate(167.233 171.067)" fill="#338338"/>
        <rect id="Rectangle_7616" data-name="Rectangle 7616" width="1.313" height="1.656" transform="translate(170.667 171.067)" fill="#338338"/>
        <path id="Tracé_11614" data-name="Tracé 11614" d="M147.5,145.263h-8.015l-4.12,5.144h9.073Z" fill="#338338"/>
        <g id="Groupe_2897" data-name="Groupe 2897" opacity="0.4">
          <g id="Groupe_2896" data-name="Groupe 2896">
            <g id="Groupe_2895" data-name="Groupe 2895" clip-path="url(#clip-path-19)">
              <g id="Groupe_2894" data-name="Groupe 2894">
                <g id="Groupe_2893" data-name="Groupe 2893" clip-path="url(#clip-path-20)">
                  <path id="Tracé_11615" data-name="Tracé 11615" d="M147.5,145.263h-8.015l-4.12,5.144h9.073Z" fill="#060708"/>
                </g>
              </g>
            </g>
          </g>
        </g>
        <path id="Tracé_11616" data-name="Tracé 11616" d="M141.434,149.5v6.237h-4.463V149.5l2.234-2.788Z" fill="#338338"/>
        <g id="Groupe_2902" data-name="Groupe 2902" opacity="0.2">
          <g id="Groupe_2901" data-name="Groupe 2901">
            <g id="Groupe_2900" data-name="Groupe 2900" clip-path="url(#clip-path-21)">
              <g id="Groupe_2899" data-name="Groupe 2899">
                <g id="Groupe_2898" data-name="Groupe 2898" clip-path="url(#clip-path-22)">
                  <path id="Tracé_11617" data-name="Tracé 11617" d="M141.434,149.5v6.237h-4.463V149.5l2.234-2.788Z" fill="#060708"/>
                </g>
              </g>
            </g>
          </g>
        </g>
        <path id="Tracé_11618" data-name="Tracé 11618" d="M141.434,149.5h3.508l-3.508,6.24Z" fill="#338338"/>
        <rect id="Rectangle_7621" data-name="Rectangle 7621" width="2.533" height="4.277" transform="translate(137.818 149.603)" fill="#f9fafd"/>
        <rect id="Rectangle_7622" data-name="Rectangle 7622" width="0.818" height="1.377" transform="translate(138.132 149.897)" fill="#338338"/>
        <rect id="Rectangle_7623" data-name="Rectangle 7623" width="0.818" height="1.377" transform="translate(139.224 149.897)" fill="#338338"/>
        <rect id="Rectangle_7624" data-name="Rectangle 7624" width="0.818" height="2.043" transform="translate(138.132 151.529)" fill="#338338"/>
        <rect id="Rectangle_7625" data-name="Rectangle 7625" width="0.818" height="2.043" transform="translate(139.224 151.529)" fill="#338338"/>
        <path id="Tracé_11619" data-name="Tracé 11619" d="M193.97,85.7a15.452,15.452,0,0,1-6.535,26.828l-3.429,7.021-3.327-6.972a15.456,15.456,0,1,1,13.3-26.876Z" fill="#fff"/>
        <path id="Tracé_11620" data-name="Tracé 11620" d="M193.973,85.7a15.53,15.53,0,0,1,4.7,7,16.921,16.921,0,0,1,.539,2.067,17.214,17.214,0,0,1,.22,2.126,15.323,15.323,0,0,1-.4,4.252,15.552,15.552,0,0,1-1.536,4,15.114,15.114,0,0,1-1.181,1.793,14,14,0,0,1-1.391,1.636,15.55,15.55,0,0,1-7.442,4.174l.152-.118-3.39,7.04-.245.514-.245-.514-3.351-6.957.206.162a15.638,15.638,0,0,1-6.168-27.72A15.825,15.825,0,0,1,180.81,82.3a15.538,15.538,0,0,1,13.159,3.4Zm0,0a15.316,15.316,0,0,0-25.236,11.69,15.961,15.961,0,0,0,1.548,6.663,15.21,15.21,0,0,0,4.277,5.316,15.4,15.4,0,0,0,6.168,2.91l.147.034.059.132,3.307,6.981h-.49l3.483-7,.044-.1h.1a15.218,15.218,0,0,0,7.349-3.949,13.7,13.7,0,0,0,1.4-1.587,14.714,14.714,0,0,0,1.19-1.749,15.133,15.133,0,0,0,1.587-3.919,14.555,14.555,0,0,0,.451-4.213,18.073,18.073,0,0,0-.2-2.116,17.215,17.215,0,0,0-.524-2.063,15.525,15.525,0,0,0-4.66-7.034" fill="#151c20"/>
        <path id="Tracé_11621" data-name="Tracé 11621" d="M188.158,93.547a3.228,3.228,0,0,0-.568-.461,6.331,6.331,0,0,0-.857-.465,6.843,6.843,0,0,0-2.278-.588v4.409l.407.083a19.4,19.4,0,0,1,2.072.617,5.98,5.98,0,0,1,1.563.828,3.4,3.4,0,0,1,.98,1.2,3.937,3.937,0,0,1,.348,1.734,4.2,4.2,0,0,1-.4,1.92,3.731,3.731,0,0,1-1.117,1.333,5.015,5.015,0,0,1-1.661.794,8.08,8.08,0,0,1-2.028.289v2.234h-1.1V105.2a10.636,10.636,0,0,1-2.94-.6,9.11,9.11,0,0,1-2.528-1.4l1.083-2.038a3.82,3.82,0,0,0,.681.554,8.077,8.077,0,0,0,1.039.573,9.527,9.527,0,0,0,1.308.49,8.556,8.556,0,0,0,1.47.3V98.666c-.083-.024-.176-.054-.265-.073a2.038,2.038,0,0,1-.265-.073,18.158,18.158,0,0,1-1.96-.627,4.909,4.909,0,0,1-1.391-.8A3.069,3.069,0,0,1,178.913,96a3.577,3.577,0,0,1-.289-1.524,4.405,4.405,0,0,1,.363-1.847,4.027,4.027,0,0,1,1.019-1.391,4.8,4.8,0,0,1,1.538-.916,7.064,7.064,0,0,1,1.96-.412V87.761h1.1v2.151a8.073,8.073,0,0,1,2.552.554,9.269,9.269,0,0,1,2.063,1.122Zm-7.016.549a1.533,1.533,0,0,0,.627,1.342,6.048,6.048,0,0,0,1.9.784V92.031a3.091,3.091,0,0,0-1.916.607,1.837,1.837,0,0,0-.612,1.455Zm6.158,7.06a1.574,1.574,0,0,0-.745-1.411,7.81,7.81,0,0,0-2.087-.862v4.208a3.916,3.916,0,0,0,2.1-.49,1.623,1.623,0,0,0,.733-1.446Z" fill="#338338"/>
        <path id="Tracé_11622" data-name="Tracé 11622" d="M48.411,140.134h65.84l6.553,8.325V97.809H48.411Z" fill="#fff"/>
        <path id="Tracé_11623" data-name="Tracé 11623" d="M48.411,140.134l65.842-.125h.06l.039.047,6.558,8.321-.232.082-.086-50.65.215.215-72.4-.09.125-.125Zm0,0L48.3,97.809v-.12h.12l72.4-.09h.215v.215l-.09,50.667v.383l-.237-.3-6.545-8.329.1.047Z" fill="#151c20"/>
        <path id="Tracé_11624" data-name="Tracé 11624" d="M111.939,104.62a.181.181,0,1,1-.176.186v-.01a.182.182,0,0,1,.176-.176" fill="#060708"/>
        <path id="Tracé_11625" data-name="Tracé 11625" d="M112.485,104.623a.181.181,0,1,1-.151.207V104.8a.181.181,0,0,1,.153-.178" fill="#060708"/>
        <path id="Tracé_11626" data-name="Tracé 11626" d="M113.04,104.62a.181.181,0,1,1-.181.181V104.8a.181.181,0,0,1,.181-.176" fill="#060708"/>
        <path id="Tracé_11627" data-name="Tracé 11627" d="M74.817,106.968a.361.361,0,1,0,.361-.361.361.361,0,0,0-.361.361" fill="#aeadac"/>
        <path id="Tracé_11628" data-name="Tracé 11628" d="M75.819,107.966v.129H74.568v-.129a.628.628,0,0,1,1.251,0" fill="#aeadac"/>
        <path id="Tracé_11629" data-name="Tracé 11629" d="M75.694,106.77a.366.366,0,1,0,.4-.324h-.045a.366.366,0,0,0-.363.326" fill="#aeadac"/>
        <path id="Tracé_11630" data-name="Tracé 11630" d="M76.679,107.768v.129H75.432v-.129a.628.628,0,0,1,1.251,0Z" fill="#aeadac"/>
        <path id="Tracé_11631" data-name="Tracé 11631" d="M65.069,107.63a.279.279,0,0,0,.546-.086v-.8a.112.112,0,0,1,.112-.112.108.108,0,0,1,.112.1v.808a.5.5,0,0,1-.98.155.112.112,0,0,1,.052-.15.113.113,0,0,1,.15.053.131.131,0,0,1,.009.028Z" fill="#aeadac"/>
        <path id="Tracé_11632" data-name="Tracé 11632" d="M66.54,108.025a.432.432,0,0,1-.43-.43v-.486a.107.107,0,0,1,.215,0v.486a.2.2,0,0,0,.194.206h.012a.216.216,0,0,0,.215-.206v-.486a.107.107,0,0,1,.1-.108.114.114,0,0,1,.107.108v.486a.43.43,0,0,1-.413.43" fill="#aeadac"/>
        <path id="Tracé_11633" data-name="Tracé 11633" d="M67.331,107.733a.106.106,0,0,1,.151,0,.353.353,0,0,0,.219.086.249.249,0,0,0,.138-.039.076.076,0,0,0,.039-.06V107.7c0-.021,0,0-.026,0a.393.393,0,0,0-.159-.056.768.768,0,0,1-.176-.056.3.3,0,0,1-.138-.116.209.209,0,0,1-.034-.129.278.278,0,0,1,.116-.219.426.426,0,0,1,.249-.077.528.528,0,0,1,.305.112.112.112,0,0,1,.03.15.1.1,0,0,1-.137.036l-.009-.006a.363.363,0,0,0-.189-.077.2.2,0,0,0-.12.039c-.026,0-.03.034-.03.043v.021a.446.446,0,0,0,.146.047.837.837,0,0,1,.189.056.345.345,0,0,1,.142.12.243.243,0,0,1,.039.133.3.3,0,0,1-.129.236.431.431,0,0,1-.262.082.616.616,0,0,1-.361-.142.112.112,0,0,1,0-.158h0Z" fill="#aeadac"/>
        <path id="Tracé_11634" data-name="Tracé 11634" d="M68.862,107.123a.112.112,0,0,1-.112.112H68.7v.563a.116.116,0,0,1,0,.228.224.224,0,0,1-.224-.224v-.567h-.06a.112.112,0,0,1-.112-.112.11.11,0,0,1,.108-.112h.064v-.292a.112.112,0,0,1,.224,0v.292h.052a.112.112,0,0,1,.112.112" fill="#aeadac"/>
        <path id="Tracé_11635" data-name="Tracé 11635" d="M70.07,107.914a.112.112,0,0,1-.224,0v-1.178a.119.119,0,0,1,.047-.1.112.112,0,0,1,.155.026l.654.9v-.834a.107.107,0,0,1,.107-.107.112.112,0,0,1,.112.107v1.178a.112.112,0,0,1-.112.112.1.1,0,0,1-.082-.043l-.645-.9Z" fill="#aeadac"/>
        <path id="Tracé_11636" data-name="Tracé 11636" d="M71.476,107.875a.5.5,0,0,1-.138-.357.519.519,0,0,1,.138-.353.485.485,0,0,1,.348-.155.453.453,0,0,1,.34.155.51.51,0,0,1,.142.353.492.492,0,0,1-.142.357.453.453,0,0,1-.34.155.485.485,0,0,1-.348-.155m.082-.357a.318.318,0,0,0,.073.215.263.263,0,0,0,.193.077.258.258,0,0,0,.189-.077.333.333,0,0,0,0-.426.274.274,0,0,0-.383,0,.323.323,0,0,0-.071.211Z" fill="#aeadac"/>
        <path id="Tracé_11637" data-name="Tracé 11637" d="M73.871,107.174l-.335.787h-.078l-.258-.331-.146.353h-.086l-.335-.787a.112.112,0,0,1,.06-.142.1.1,0,0,1,.13.056v.009l.241.542.142-.335a.107.107,0,0,1,.138-.062.105.105,0,0,1,.062.062l.142.335.241-.542a.1.1,0,0,1,.124-.068h.009a.108.108,0,0,1-.054.12" fill="#aeadac"/>
        <path id="Tracé_11638" data-name="Tracé 11638" d="M62.373,105.57a3.639,3.639,0,0,1-4.4,2.67h-.018a3.314,3.314,0,0,1-.456-.146,2.8,2.8,0,0,1-.6-.292,3.651,3.651,0,1,1,5.47-2.236Z" fill="#c9c9c9"/>
        <path id="Tracé_11639" data-name="Tracé 11639" d="M72.693,103.549c4.623,0,7.848-.279,7.848-.279s-3.225-.249-7.848-.249-7.843.249-7.843.249,3.229.279,7.843.279" fill="#283941"/>
        <path id="Tracé_11640" data-name="Tracé 11640" d="M70.874,104.874c3.552,0,6.02-.241,6.02-.241s-2.477-.215-6.02-.215-6.02.215-6.02.215,2.468.241,6.02.241" fill="#c9c9c9"/>
        <path id="Tracé_11641" data-name="Tracé 11641" d="M55.545,110.27l7.28-.082,7.28-.047,14.56-.039,14.556.039,7.28.047,7.28.082-7.28.082-7.28.047-14.556.039L70.1,110.4l-7.28-.047Z" fill="#aeadac"/>
        <path id="Tracé_11642" data-name="Tracé 11642" d="M55.545,112.218l7.28-.082,7.28-.047,14.56-.039,14.556.039,7.28.043,7.28.086-7.28.082-7.28.047-14.556.039-14.56-.039-7.28-.047Z" fill="#aeadac"/>
        <path id="Tracé_11643" data-name="Tracé 11643" d="M55.545,114.162l4.15-.082,4.154-.047,8.308-.039,8.308.039,4.154.047,4.154.082-4.154.086-4.154.047-8.308.039-8.308-.039-4.154-.052Z" fill="#aeadac"/>
        <rect id="Rectangle_7626" data-name="Rectangle 7626" width="30.044" height="19.509" transform="translate(55.171 116.776)" fill="#338338"/>
        <g id="Groupe_2907" data-name="Groupe 2907" opacity="0.2">
          <g id="Groupe_2906" data-name="Groupe 2906">
            <g id="Groupe_2905" data-name="Groupe 2905" clip-path="url(#clip-path-23)">
              <g id="Groupe_2904" data-name="Groupe 2904">
                <g id="Groupe_2903" data-name="Groupe 2903" clip-path="url(#clip-path-23)">
                  <path id="Tracé_11644" data-name="Tracé 11644" d="M58,121.347a2.347,2.347,0,1,0,1.845-1.776A2.308,2.308,0,0,0,58,121.347" fill="#060708"/>
                </g>
              </g>
            </g>
          </g>
        </g>
        <g id="Groupe_2912" data-name="Groupe 2912" opacity="0.2">
          <g id="Groupe_2911" data-name="Groupe 2911">
            <g id="Groupe_2910" data-name="Groupe 2910" clip-path="url(#clip-path-25)">
              <g id="Groupe_2909" data-name="Groupe 2909">
                <g id="Groupe_2908" data-name="Groupe 2908" clip-path="url(#clip-path-25)">
                  <path id="Tracé_11645" data-name="Tracé 11645" d="M63.5,132.166H85.215l-10.857-10.29Z" fill="#060708"/>
                </g>
              </g>
            </g>
          </g>
        </g>
        <path id="Tracé_11646" data-name="Tracé 11646" d="M55.17,132.175H73.1l-8.966-6.7Z" fill="#338338"/>
        <g id="Groupe_2917" data-name="Groupe 2917" opacity="0.3">
          <g id="Groupe_2916" data-name="Groupe 2916">
            <g id="Groupe_2915" data-name="Groupe 2915" clip-path="url(#clip-path-27)">
              <g id="Groupe_2914" data-name="Groupe 2914">
                <g id="Groupe_2913" data-name="Groupe 2913" clip-path="url(#clip-path-28)">
                  <path id="Tracé_11647" data-name="Tracé 11647" d="M55.17,132.175H73.1l-8.966-6.7Z" fill="#060708"/>
                </g>
              </g>
            </g>
          </g>
        </g>
        <rect id="Rectangle_7633" data-name="Rectangle 7633" width="30.044" height="4.119" transform="translate(55.17 132.166)" fill="#338338"/>
        <g id="Groupe_2922" data-name="Groupe 2922" opacity="0.3">
          <g id="Groupe_2921" data-name="Groupe 2921">
            <g id="Groupe_2920" data-name="Groupe 2920" clip-path="url(#clip-path-29)">
              <g id="Groupe_2919" data-name="Groupe 2919">
                <g id="Groupe_2918" data-name="Groupe 2918" clip-path="url(#clip-path-29)">
                  <rect id="Rectangle_7634" data-name="Rectangle 7634" width="30.044" height="4.119" transform="translate(55.17 132.166)" fill="#060708"/>
                </g>
              </g>
            </g>
          </g>
        </g>
        <path id="Tracé_11648" data-name="Tracé 11648" d="M102.892,89.084c-3.623-.02-9.841-5.819-11.108-11.338-.09-.374,1.392-3.689,2.994-7.8.96-2.5,1.981-5.3,2.719-7.921.148-.54,15.342,8.647,15.342,8.647a43.044,43.044,0,0,0-4.425,9.629,5.992,5.992,0,0,0-.193,1.112l-.021.178c-.256,2.155-1.361,7.509-5.3,7.5" fill="#b94744"/>
        <path id="Tracé_11649" data-name="Tracé 11649" d="M108.221,81.358a1.067,1.067,0,0,1-.021.178,11.744,11.744,0,0,1-1.708-.383c-9.637-2.941-8.765-15.795-8.4-19.018,2.813,1.252,14.719,8.476,14.719,8.476a43.312,43.312,0,0,0-4.429,9.652,6.871,6.871,0,0,0-.166,1.1" fill="#151c20"/>
        <path id="Tracé_11650" data-name="Tracé 11650" d="M100.212,40.723c-3.268,5.439-4.37,23.222-1.126,28.056,4.706,7,14.537,10,21,3.854,6.3-5.949,7.321-29.153,3.5-33.758-5.637-6.789-18.531-6.236-23.371,1.849" fill="#b94744"/>
        <path id="Tracé_11651" data-name="Tracé 11651" d="M114.282,55.012a.085.085,0,0,0-.1.075l0,.02c-.046,1.2-.3,2.562-1.4,2.887l-.009.072c1.377-.091,1.664-1.909,1.509-3.052" fill="#151c20"/>
        <path id="Tracé_11652" data-name="Tracé 11652" d="M113.289,53.686c-1.919-.227-2.322,3.579-.55,3.827s2.164-3.6.55-3.827" fill="#151c20"/>
        <path id="Tracé_11653" data-name="Tracé 11653" d="M121.17,55.95s.088.072.083.117c-.141,1.191-.161,2.578.843,3.084l-.009.073c-1.266-.331-1.269-2.168-.917-3.274" fill="#151c20"/>
        <path id="Tracé_11654" data-name="Tracé 11654" d="M122.366,54.812c1.939.062,1.675,3.921-.12,3.866s-1.508-3.914.12-3.866" fill="#151c20"/>
        <path id="Tracé_11655" data-name="Tracé 11655" d="M111.958,51.762a15.63,15.63,0,0,0,1.555-.373A2.6,2.6,0,0,0,115,50.733a.836.836,0,0,0-.026-1.008,2.054,2.054,0,0,0-2.018-.42,2.992,2.992,0,0,0-1.845,1.1.875.875,0,0,0,.234,1.214l0,0a.859.859,0,0,0,.6.143Z" fill="#151c20"/>
        <path id="Tracé_11656" data-name="Tracé 11656" d="M124.066,53.019c-.527-.146-.974-.37-1.49-.563a2.617,2.617,0,0,1-1.41-.857.826.826,0,0,1,.119-1,2.019,2.019,0,0,1,2.054-.156,2.949,2.949,0,0,1,1.692,1.325.876.876,0,0,1-.957,1.252Z" fill="#151c20"/>
        <path id="Tracé_11657" data-name="Tracé 11657" d="M111.989,65.97c.254.307.5.724.923.8a3.026,3.026,0,0,0,1.311-.16l.061.007a1.608,1.608,0,0,1-1.585.489,1.2,1.2,0,0,1-.816-1.16c-.02,0,.109-.025.1.012" fill="#151c20"/>
        <path id="Tracé_11658" data-name="Tracé 11658" d="M113.606,62.523a4.089,4.089,0,0,0,2.52,2.1,4.942,4.942,0,0,0,1.452.172,1.153,1.153,0,0,0,.286.034l.251.03a.3.3,0,0,0,.263-.246.549.549,0,0,0,.015-.121l.011-.1c.11-.926.179-2.324.179-2.324.325.2,1.955,1.15,1.976.669a61.513,61.513,0,0,0-.263-12.47.108.108,0,1,0-.215-.025c-.336,3.84.006,7.7-.259,11.563a7.166,7.166,0,0,0-1.853-.787c-.133-.016-.068,2.724-.165,3.135a5.657,5.657,0,0,1-4.076-1.691c-.117-.108-.126-.036-.137.06" fill="#151c20"/>
        <path id="Tracé_11659" data-name="Tracé 11659" d="M117.109,64.279a4.776,4.776,0,0,1-2.085,1.279,2.134,2.134,0,0,1-1.324-.06c-.926-.344-.857-1.226-.6-1.949a4.762,4.762,0,0,1,.558-1.142,6.288,6.288,0,0,0,3.453,1.864" fill="#151c20"/>
        <path id="Tracé_11660" data-name="Tracé 11660" d="M115.018,65.614a2.146,2.146,0,0,1-1.323-.06c-.927-.344-.858-1.226-.6-1.949a2.243,2.243,0,0,1,1.924,2.009" fill="#de6d9e"/>
        <path id="Tracé_11661" data-name="Tracé 11661" d="M125.515,44.98c-.489-1.584-1.073-3.179-1.992-3.584s-1.719,1.754-3.822,1.66c-2.828-.1-3.883-2.877-7.795-3.522-5.576-1-8.568,3.445-9.563,11.389-.847,7.153-5.265,7.317-5.265,7.317s-.922-15.993,4.073-20.721a16.954,16.954,0,0,1,21.688-.228c2.362,2.1,2.675,7.695,2.675,7.695" fill="#151c20"/>
        <path id="Tracé_11662" data-name="Tracé 11662" d="M101.019,55.834s-2.608-6.351-5.38-5.593S93.913,59.7,96.6,61.487a3.071,3.071,0,0,0,4.306-.581l0,0c.027-.035.054-.07.079-.106Z" fill="#b94744"/>
        <path id="Tracé_11663" data-name="Tracé 11663" d="M95.957,52.728s-.06-.007-.009.073a7.728,7.728,0,0,1,2.839,5.631,1.693,1.693,0,0,0-2.117-1.119,1.819,1.819,0,0,0-.266.1c-.06-.007-.014.12-.014.12a1.883,1.883,0,0,1,1.886,1.107,8.466,8.466,0,0,1,.59,1.85c.06.2.413.184.393-.05.664-2.666-.548-6.8-3.316-7.72" fill="#151c20"/>
        <g id="Groupe_2927" data-name="Groupe 2927" opacity="0.3">
          <g id="Groupe_2926" data-name="Groupe 2926">
            <g id="Groupe_2925" data-name="Groupe 2925" clip-path="url(#clip-path-31)">
              <g id="Groupe_2924" data-name="Groupe 2924">
                <g id="Groupe_2923" data-name="Groupe 2923" clip-path="url(#clip-path-31)">
                  <path id="Tracé_11664" data-name="Tracé 11664" d="M137.156,78.354A25.27,25.27,0,1,1,156.4,48.241a25.268,25.268,0,0,1-19.243,30.113" fill="#fff"/>
                  <path id="Tracé_11665" data-name="Tracé 11665" d="M109.56,65.807a25.285,25.285,0,0,0,34.1,10.146Z" fill="#e0e0e0"/>
                  <path id="Tracé_11666" data-name="Tracé 11666" d="M110.285,40.313l46.709,13.9a25.4,25.4,0,0,0-.588-5.972,24.731,24.731,0,0,0-2.376-6.447L119.548,31.53a25.281,25.281,0,0,0-9.265,8.783" fill="#e0e0e0"/>
                  <path id="Tracé_11667" data-name="Tracé 11667" d="M106.64,56.626l44.489,13.228a25.565,25.565,0,0,0,2.788-4.1l-47.375-14.1a24.375,24.375,0,0,0,.1,4.972" fill="#e0e0e0"/>
                  <path id="Tracé_11668" data-name="Tracé 11668" d="M108.668,43.374,156.68,57.665c.049-.3.093-.607.127-.91L109.048,42.547c-.132.269-.264.543-.382.827" fill="#e0e0e0"/>
                  <path id="Tracé_11669" data-name="Tracé 11669" d="M127.548,28.759,148.859,35.1c-.554-.515-1.137-.981-1.739-1.47l-17.313-5.14a22.042,22.042,0,0,0-2.263.274" fill="#e0e0e0"/>
                </g>
              </g>
            </g>
          </g>
        </g>
        <path id="Tracé_11670" data-name="Tracé 11670" d="M159.162,47.635a28.092,28.092,0,1,0-21.4,33.475h0a28.092,28.092,0,0,0,21.393-33.475M137.155,78.353a25.27,25.27,0,1,1,19.237-30.117v.007a25.27,25.27,0,0,1-19.237,30.11" fill="#283941"/>
        <path id="Tracé_11671" data-name="Tracé 11671" d="M147.6,50.365a.549.549,0,0,1-.025-.088c-.118-.421.127.407.039.132s-.216-.661-.338-.98a21.47,21.47,0,0,0-1.568-3.282c-.083-.147-.176-.294-.26-.441-.029-.049.216.343,0,.034l-.171-.265c-.225-.338-.456-.671-.7-.98a20.125,20.125,0,0,0-1.729-2.038l-.451-.451c-.206-.2.24.22-.044-.039l-.284-.26c-.367-.318-.745-.627-1.137-.921s-.857-.617-1.3-.9c-.206-.127-.412-.25-.622-.367-.363-.211.157.073-.113-.064l-.387-.2a19.969,19.969,0,0,0-3.655-1.372h-.064l-.137-.029-.566-.111c-.367-.073-.73-.137-1.1-.191a23.337,23.337,0,0,0-2.347-.216,1.672,1.672,0,0,1,.377-3.322,21.067,21.067,0,0,1,13.5,5.453,23.043,23.043,0,0,1,5.644,8.265,16.784,16.784,0,0,1,.715,2.151,1.677,1.677,0,0,1-1.389,1.908,1.71,1.71,0,0,1-1.911-1.391Z" fill="#fff"/>
      </g>
    </g>
  </g>
</svg>
