<svg id="Groupe_1558" data-name="Groupe 1558" xmlns="http://www.w3.org/2000/svg" xmlns:xlink="http://www.w3.org/1999/xlink" width="158.578" height="160.796" viewBox="0 0 158.578 160.796">
  <defs>
    <clipPath id="clip-path">
      <rect id="Rectangle_4725" data-name="Rectangle 4725" width="158.578" height="160.796" fill="none"/>
    </clipPath>
    <clipPath id="clip-path-3">
      <rect id="Rectangle_4706" data-name="Rectangle 4706" width="12.154" height="13.273" fill="none"/>
    </clipPath>
    <clipPath id="clip-path-4">
      <rect id="Rectangle_4707" data-name="Rectangle 4707" width="35.732" height="28.721" fill="none"/>
    </clipPath>
    <clipPath id="clip-path-5">
      <rect id="Rectangle_4708" data-name="Rectangle 4708" width="20.082" height="28.199" fill="none"/>
    </clipPath>
    <clipPath id="clip-path-6">
      <rect id="Rectangle_4709" data-name="Rectangle 4709" width="5.41" height="3.289" fill="none"/>
    </clipPath>
    <clipPath id="clip-path-7">
      <rect id="Rectangle_4710" data-name="Rectangle 4710" width="6.47" height="1.634" fill="none"/>
    </clipPath>
    <clipPath id="clip-path-8">
      <rect id="Rectangle_4711" data-name="Rectangle 4711" width="10.223" height="21.002" fill="none"/>
    </clipPath>
    <clipPath id="clip-path-9">
      <rect id="Rectangle_4712" data-name="Rectangle 4712" width="10.204" height="16.516" fill="none"/>
    </clipPath>
    <clipPath id="clip-path-10">
      <rect id="Rectangle_4715" data-name="Rectangle 4715" width="5.978" height="0.941" fill="none"/>
    </clipPath>
    <clipPath id="clip-path-11">
      <rect id="Rectangle_4717" data-name="Rectangle 4717" width="5.978" height="0.625" fill="none"/>
    </clipPath>
    <clipPath id="clip-path-12">
      <rect id="Rectangle_4718" data-name="Rectangle 4718" width="5.836" height="8.519" fill="none"/>
    </clipPath>
    <clipPath id="clip-path-13">
      <rect id="Rectangle_4719" data-name="Rectangle 4719" width="1.224" height="1.57" fill="none"/>
    </clipPath>
    <clipPath id="clip-path-14">
      <rect id="Rectangle_4720" data-name="Rectangle 4720" width="1.642" height="1.707" fill="none"/>
    </clipPath>
    <clipPath id="clip-path-15">
      <rect id="Rectangle_4721" data-name="Rectangle 4721" width="15.896" height="11.516" fill="none"/>
    </clipPath>
    <clipPath id="clip-path-16">
      <rect id="Rectangle_4722" data-name="Rectangle 4722" width="14.816" height="4.638" fill="none"/>
    </clipPath>
  </defs>
  <g id="Groupe_1557" data-name="Groupe 1557" clip-path="url(#clip-path)">
    <rect id="Rectangle_4695" data-name="Rectangle 4695" width="13.368" height="4.254" transform="translate(137.105 126.692)" fill="#ebebeb"/>
    <rect id="Rectangle_4696" data-name="Rectangle 4696" width="13.368" height="4.254" transform="translate(127.486 77.628)" fill="#ebebeb"/>
    <g id="Groupe_1556" data-name="Groupe 1556">
      <g id="Groupe_1555" data-name="Groupe 1555" clip-path="url(#clip-path)">
        <path id="Tracé_6920" data-name="Tracé 6920" d="M380.087,351.274c2.22-.034,7.912-.129,10.056-.156h3.311l-.175.171v-4.254l.19.19c-2.22,0-7.881-.027-10.026-.057l-3.342-.042.091-.091-.091,4.254Zm0,0L380,347.02v-.087h.091c1.669-.023,5.019-.061,6.684-.076l6.684-.027h.19v4.619h-3.543c-2.129-.023-7.794-.122-10-.16Z" transform="translate(-235.527 -214.968)" fill="#ebebeb"/>
        <path id="Tracé_6921" data-name="Tracé 6921" d="M185.921,78.481c2.22-.038,7.912-.133,10.056-.156l3.311-.019-.175.175V74.226l.19.19c-2.22,0-7.881-.027-10.026-.057l-3.342-.042.091-.091-.091,4.254Zm0,0-.091-4.254v-.087h.091c1.669-.023,5.015-.061,6.684-.072l6.684-.027h.19v.19l-.019,4.254v.175h-.171l-3.372-.019c-2.129-.023-7.8-.118-10-.156Z" transform="translate(-115.179 -45.891)" fill="#ebebeb"/>
        <path id="Tracé_6922" data-name="Tracé 6922" d="M205.531,92.611c2.22-.038,7.912-.133,10.056-.156H218.9l-.175.175V88.375l.19.19c-2.22,0-7.881-.027-10.026-.057l-3.342-.042.091-.091Zm0,0-.091-4.254v-.087h.091c1.669-.023,5.019-.061,6.684-.072l6.684-.027h.19v.19l-.019,4.251v.175H218.9l-3.372-.019C213.4,92.744,207.733,92.649,205.531,92.611Z" transform="translate(-127.333 -54.648)" fill="#ebebeb"/>
        <rect id="Rectangle_4697" data-name="Rectangle 4697" width="13.368" height="4.254" transform="translate(85.623 28.336)" fill="#ebebeb"/>
        <rect id="Rectangle_4698" data-name="Rectangle 4698" width="13.368" height="4.254" transform="translate(0.65 132.056)" fill="#ebebeb"/>
        <rect id="Rectangle_4699" data-name="Rectangle 4699" width="13.368" height="4.254" transform="translate(8.106 0.681)" fill="#ebebeb"/>
        <path id="Tracé_6923" data-name="Tracé 6923" d="M1.561,19.81c2.22-.038,7.912-.133,10.056-.156h3.311l-.175.171V15.571l.19.19c-2.22,0-7.881-.027-10.026-.057l-3.342-.042.076-.122-.091,4.254Zm0,0L1.47,15.54v-.087h.091c1.669-.023,5.015-.061,6.684-.076l6.684-.027h.19v4.619H11.576c-2.129-.027-7.8-.122-10-.16Z" transform="translate(-0.911 -9.514)" fill="#ebebeb"/>
        <path id="Tracé_6924" data-name="Tracé 6924" d="M360.471,5.724c2.22-.038,7.912-.129,10.056-.156h3.311l-.175.171V1.485l.19.19-6.684-.027c-1.665,0-5.019-.049-6.684-.072l.091-.091-.091,4.254Zm0,0L360.38,1.47V1.383h.091c1.669-.023,5.019-.061,6.684-.076l6.684-.027h.19v.19l-.019,4.254V5.9h-3.543c-2.129-.027-7.794-.122-10-.16Z" transform="translate(-223.366 -0.793)" fill="#ebebeb"/>
        <path id="Tracé_6925" data-name="Tracé 6925" d="M18.82,74.138H67V0H18.82Zm46.406-1.783H20.618V1.779H65.226Z" transform="translate(-11.665)" fill="#ebebeb"/>
        <rect id="Rectangle_4700" data-name="Rectangle 4700" width="44.627" height="70.575" transform="translate(8.935 1.779)" fill="#fff"/>
        <rect id="Rectangle_4701" data-name="Rectangle 4701" width="44.627" height="1.779" transform="translate(8.935 36.175)" fill="#ebebeb"/>
        <rect id="Rectangle_4702" data-name="Rectangle 4702" width="54.729" height="5.102" transform="translate(3.882 74.13)" fill="#dbdbdb"/>
        <path id="Tracé_6926" data-name="Tracé 6926" d="M23.49,4.68H68.117V50.337H23.49ZM66.475,6.326H25.136V48.691H66.475Z" transform="translate(-14.559 -2.901)" fill="#dbdbdb"/>
        <rect id="Rectangle_4703" data-name="Rectangle 4703" width="0.89" height="44.015" transform="translate(38.426 1.779)" fill="#dbdbdb"/>
        <rect id="Rectangle_4704" data-name="Rectangle 4704" width="0.89" height="44.015" transform="translate(23.177 1.779)" fill="#dbdbdb"/>
        <path id="Tracé_6927" data-name="Tracé 6927" d="M0,411.5l19.823-.091,19.823-.034,39.643-.065,39.643.065,19.823.03,19.823.1-19.823.091-19.823.034-39.643.065-39.643-.065-19.823-.034Z" transform="translate(0 -254.933)" fill="#263238"/>
        <path id="Tracé_6928" data-name="Tracé 6928" d="M312.714,409.36H287.18l4.517-3.889h16.5Z" transform="translate(-177.996 -251.313)" fill="#dbdbdb"/>
        <rect id="Rectangle_4705" data-name="Rectangle 4705" width="2.612" height="123.445" transform="translate(120.643 30.712)" fill="#dbdbdb"/>
        <path id="Tracé_6929" data-name="Tracé 6929" d="M319.932,80.78v9.281l-2.612,1.008V80.78Z" transform="translate(-196.677 -50.068)" fill="#c7c7c7"/>
        <path id="Tracé_6930" data-name="Tracé 6930" d="M310.6,51.44H278.36l2.342-7.7.087-.274,6.813-22.4h13.752l6.821,22.4v0l.076.255Z" transform="translate(-172.53 -13.06)" fill="#10a35f"/>
        <path id="Tracé_6931" data-name="Tracé 6931" d="M292.022,29.827a.213.213,0,0,1-.209.217h-.008a.217.217,0,0,1-.217-.217.22.22,0,0,1,.217-.217.217.217,0,0,1,.217.217m3.753-.217a.22.22,0,0,0-.217.217.217.217,0,0,0,.217.217.213.213,0,0,0,.217-.209v-.008a.217.217,0,0,0-.213-.217Zm3.969,0a.22.22,0,0,0-.217.217.217.217,0,0,0,.217.217.213.213,0,0,0,.217-.209v-.008a.217.217,0,0,0-.217-.217m3.969,0a.22.22,0,0,0-.217.217.217.217,0,0,0,.217.217.213.213,0,0,0,.217-.209v-.008a.217.217,0,0,0-.217-.217m-9.923-2.76a.22.22,0,0,0-.217.217.217.217,0,0,0,.217.217.213.213,0,0,0,.217-.209v-.008a.217.217,0,0,0-.217-.217m3.969,0a.22.22,0,0,0-.217.217.217.217,0,0,0,.217.217.213.213,0,0,0,.217-.209v-.008a.217.217,0,0,0-.217-.217m3.969,0a.22.22,0,0,0-.217.217.217.217,0,0,0,.217.217.213.213,0,0,0,.217-.209v-.008a.217.217,0,0,0-.217-.217m-13.892,8.532a.22.22,0,0,0-.217.217.217.217,0,0,0,.217.217.213.213,0,0,0,.217-.209V35.6a.217.217,0,0,0-.217-.217m3.969,0a.22.22,0,0,0-.209.213.217.217,0,0,0,.217.217.213.213,0,0,0,.217-.209v-.008a.216.216,0,0,0-.221-.213h0m3.969,0a.22.22,0,0,0-.217.217.217.217,0,0,0,.217.217.213.213,0,0,0,.217-.209V35.6a.217.217,0,0,0-.213-.217Zm3.969,0a.22.22,0,0,0-.217.217.217.217,0,0,0,.217.217.213.213,0,0,0,.217-.209v-.011a.217.217,0,0,0-.217-.213m3.969,0a.22.22,0,0,0-.217.217.217.217,0,0,0,.217.217.213.213,0,0,0,.217-.209V35.6a.217.217,0,0,0-.217-.217m3.969,0a.22.22,0,0,0-.217.217.217.217,0,0,0,.217.217.213.213,0,0,0,.217-.209V35.6a.217.217,0,0,0-.217-.217M289.813,32.6a.22.22,0,0,0-.217.217.217.217,0,0,0,.217.217.213.213,0,0,0,.217-.209v-.008a.217.217,0,0,0-.209-.217Zm3.969,0a.22.22,0,0,0-.217.217.217.217,0,0,0,.217.217.213.213,0,0,0,.217-.209v-.008a.217.217,0,0,0-.209-.217Zm3.969,0a.22.22,0,0,0-.217.217.217.217,0,0,0,.217.217.213.213,0,0,0,.217-.209v-.008a.217.217,0,0,0-.209-.217Zm3.969,0a.22.22,0,0,0-.217.217.217.217,0,0,0,.217.217.213.213,0,0,0,.217-.209v-.008a.217.217,0,0,0-.209-.217Zm3.969,0a.22.22,0,0,0-.217.217.217.217,0,0,0,.217.217.213.213,0,0,0,.217-.209v-.008a.217.217,0,0,0-.209-.217Zm-17.869,8.551a.22.22,0,0,0-.217.217.217.217,0,0,0,.217.217.213.213,0,0,0,.217-.209V41.37a.217.217,0,0,0-.2-.217Zm3.969,0a.22.22,0,0,0-.217.217.217.217,0,0,0,.217.217.213.213,0,0,0,.217-.209V41.37a.217.217,0,0,0-.2-.217Zm3.969,0a.22.22,0,0,0-.217.217.217.217,0,0,0,.217.217.213.213,0,0,0,.217-.209V41.37a.217.217,0,0,0-.2-.217Zm3.969,0a.22.22,0,0,0-.217.217.217.217,0,0,0,.217.217.213.213,0,0,0,.217-.209V41.37a.217.217,0,0,0-.2-.217Zm3.969,0a.22.22,0,0,0-.217.217.217.217,0,0,0,.217.217.213.213,0,0,0,.217-.209V41.37a.217.217,0,0,0-.2-.217Zm3.969,0a.22.22,0,0,0-.217.217.217.217,0,0,0,.217.217.213.213,0,0,0,.217-.209V41.37a.217.217,0,0,0-.2-.217ZM289.8,38.374a.22.22,0,0,0-.217.217.217.217,0,0,0,.217.217.213.213,0,0,0,.217-.209V38.59a.217.217,0,0,0-.194-.217Zm3.969,0a.22.22,0,0,0-.217.217.217.217,0,0,0,.217.217.213.213,0,0,0,.217-.209V38.59a.217.217,0,0,0-.194-.217Zm3.969,0a.22.22,0,0,0-.217.217.217.217,0,0,0,.217.217.213.213,0,0,0,.217-.209V38.59a.217.217,0,0,0-.194-.217Zm3.969,0a.22.22,0,0,0-.217.217.217.217,0,0,0,.217.217.213.213,0,0,0,.217-.209V38.59a.217.217,0,0,0-.194-.217Zm3.969,0a.22.22,0,0,0-.217.217.217.217,0,0,0,.217.217.213.213,0,0,0,.217-.209V38.59a.217.217,0,0,0-.194-.217ZM284.068,47.05l-.087.274a.206.206,0,0,0,.106-.182.194.194,0,0,0-.019-.091m3.768-.122a.217.217,0,0,0-.217.217.22.22,0,0,0,.217.217.217.217,0,0,0,.217-.217.213.213,0,0,0-.209-.217Zm3.969,0a.217.217,0,0,0-.217.217.22.22,0,0,0,.217.217.217.217,0,0,0,.217-.217.213.213,0,0,0-.209-.217Zm3.969,0a.217.217,0,0,0-.217.217.22.22,0,0,0,.217.217.217.217,0,0,0,.217-.217.213.213,0,0,0-.209-.217h-.008Zm3.969,0a.217.217,0,0,0-.217.217.22.22,0,0,0,.217.217.217.217,0,0,0,.217-.217.213.213,0,0,0-.209-.217Zm3.969,0a.217.217,0,0,0-.217.217.22.22,0,0,0,.217.217.217.217,0,0,0,.217-.217.213.213,0,0,0-.209-.217Zm3.969,0a.217.217,0,0,0-.217.217.22.22,0,0,0,.217.217.217.217,0,0,0,.217-.217.213.213,0,0,0-.209-.217Zm3.772.133a.188.188,0,0,0,0,.08.2.2,0,0,0,.091.175Zm-25.6-2.916a.22.22,0,0,0-.217.217.217.217,0,0,0,.217.217.213.213,0,0,0,.217-.209v-.008A.217.217,0,0,0,285.851,44.145Zm3.969,0a.22.22,0,0,0-.217.217.217.217,0,0,0,.217.217.213.213,0,0,0,.217-.209v-.008A.217.217,0,0,0,289.821,44.145Zm3.969,0a.22.22,0,0,0-.217.217.217.217,0,0,0,.217.217.213.213,0,0,0,.217-.209v-.008A.217.217,0,0,0,293.79,44.145Zm3.969,0a.22.22,0,0,0-.217.217.217.217,0,0,0,.217.217.213.213,0,0,0,.217-.209v-.008A.217.217,0,0,0,297.759,44.145Zm3.969,0a.22.22,0,0,0-.217.217.217.217,0,0,0,.217.217.213.213,0,0,0,.217-.209v-.008A.217.217,0,0,0,301.728,44.145Zm3.969,0a.22.22,0,0,0-.217.217.217.217,0,0,0,.217.217.213.213,0,0,0,.217-.209v-.008A.217.217,0,0,0,305.7,44.145Zm3.969,0a.22.22,0,0,0-.217.217.217.217,0,0,0,.217.217.213.213,0,0,0,.217-.209v-.008A.217.217,0,0,0,309.667,44.145Zm-25.8,8.558a.217.217,0,0,0-.217.217.22.22,0,0,0,.217.217.217.217,0,0,0,.217-.217.213.213,0,0,0-.209-.217h-.008m3.969,0a.217.217,0,0,0-.217.217.22.22,0,0,0,.217.217.217.217,0,0,0,.217-.217.213.213,0,0,0-.209-.217Zm3.969,0a.217.217,0,0,0-.217.217.22.22,0,0,0,.217.217.217.217,0,0,0,.217-.217.213.213,0,0,0-.209-.217Zm3.973,0a.217.217,0,0,0-.217.217.22.22,0,0,0,.217.217.217.217,0,0,0,.217-.217.213.213,0,0,0-.209-.217h-.008m3.969,0a.217.217,0,0,0-.217.217.22.22,0,0,0,.217.217.217.217,0,0,0,.217-.217.213.213,0,0,0-.209-.217h-.008Zm3.969,0a.217.217,0,0,0-.217.217.22.22,0,0,0,.217.217.217.217,0,0,0,.217-.217.213.213,0,0,0-.209-.217h-.008Zm3.969,0a.217.217,0,0,0-.217.217.22.22,0,0,0,.217.217.217.217,0,0,0,.217-.217.213.213,0,0,0-.209-.217h-.008Zm3.969,0a.217.217,0,0,0-.217.217.22.22,0,0,0,.217.217.217.217,0,0,0,.217-.217.213.213,0,0,0-.209-.217h-.008Zm-25.8-2.779a.217.217,0,0,0-.217.217.22.22,0,0,0,.217.217.217.217,0,0,0,.217-.217.213.213,0,0,0-.2-.221h-.016Zm3.969,0a.217.217,0,0,0-.217.217.22.22,0,0,0,.217.217.217.217,0,0,0,.217-.217.213.213,0,0,0-.2-.221h-.016Zm3.969,0a.217.217,0,0,0-.217.217.22.22,0,0,0,.217.217.217.217,0,0,0,.217-.217.213.213,0,0,0-.2-.221h-.016Zm3.969,0a.217.217,0,0,0-.217.217.22.22,0,0,0,.217.217.217.217,0,0,0,.217-.217.213.213,0,0,0-.2-.221h-.016Zm3.969,0a.217.217,0,0,0-.217.217.22.22,0,0,0,.217.217.217.217,0,0,0,.217-.217.213.213,0,0,0-.2-.221h-.016Zm3.969,0a.217.217,0,0,0-.217.217.22.22,0,0,0,.217.217.217.217,0,0,0,.217-.217.213.213,0,0,0-.2-.221H305.7Zm3.969,0a.217.217,0,0,0-.217.217.22.22,0,0,0,.217.217.217.217,0,0,0,.217-.217.213.213,0,0,0-.2-.221h-.016Z" transform="translate(-175.808 -16.642)" fill="#fff"/>
        <path id="Tracé_6932" data-name="Tracé 6932" d="M113.522,313.26,84.49,350.728h1.639l33.525-37.468Z" transform="translate(-52.368 -194.161)" fill="#c7c7c7"/>
        <path id="Tracé_6933" data-name="Tracé 6933" d="M144.635,313.26,130.29,350.728h1.635l17.584-37.468Z" transform="translate(-80.755 -194.161)" fill="#c7c7c7"/>
        <path id="Tracé_6934" data-name="Tracé 6934" d="M178.574,313.26l14.345,37.468h-1.635L173.7,313.26Z" transform="translate(-107.661 -194.161)" fill="#c7c7c7"/>
        <path id="Tracé_6935" data-name="Tracé 6935" d="M183.113,313.26l29.028,37.468h-1.635L176.98,313.26Z" transform="translate(-109.693 -194.161)" fill="#c7c7c7"/>
        <path id="Tracé_6936" data-name="Tracé 6936" d="M142.579,189.321v-9.737l-39.867-1.635L81.656,124.62H33.41l15.96,61.9,41.893,14.25h2.555Z" transform="translate(-20.708 -77.241)" fill="#455a64"/>
        <path id="Tracé_6937" data-name="Tracé 6937" d="M33.41,124.62h5.52L55.606,180.8,92.8,191.857l49.782-12.273v9.737l-48.76,11.451H91.264L49.37,186.523Z" transform="translate(-20.708 -77.241)" fill="#37474f"/>
        <path id="Tracé_6938" data-name="Tracé 6938" d="M311.726,369.271c-1.232.335-36.677-1.973-37.939-2.9-.152-.1.266-11.851.266-11.851.057-.163-5.243-15.907-5.243-15.907l21.755-1.992,6.395,20.036s4.665,2.281,8.714,4.532a50.719,50.719,0,0,1,5.155,3.061c1.27,1.167,2.129,4.7.9,5.022" transform="translate(-166.61 -208.64)" fill="#eb9481"/>
        <path id="Tracé_6939" data-name="Tracé 6939" d="M319.369,398.566c-1.266.331-36.753-2.068-38.05-3.015-.49-.357-.654-5.863.243-11.881l22.872,1.589s12.736,6.973,14.044,8.163,2.159,4.825.89,5.144" transform="translate(-174.116 -237.801)" fill="#10a35f"/>
        <g id="Groupe_1515" data-name="Groupe 1515" transform="translate(106.804 145.903)" opacity="0.1" style="mix-blend-mode: normal;isolation: isolate">
          <g id="Groupe_1514" data-name="Groupe 1514">
            <g id="Groupe_1513" data-name="Groupe 1513" clip-path="url(#clip-path-3)">
              <path id="Tracé_6940" data-name="Tracé 6940" d="M281.324,395.618c.471.342,5.5.882,11.752,1.414l-10.953-13.238-.559-.034c-.9,6-.734,11.5-.24,11.858" transform="translate(-280.921 -383.76)"/>
            </g>
          </g>
        </g>
        <path id="Tracé_6941" data-name="Tracé 6941" d="M322.456,415.341c-5.939-.547-29.944-2.2-35.856-2.281-.049,0-.049.034,0,.038,5.874.673,29.891,2.129,35.852,2.353.122-.008.129-.1,0-.11" transform="translate(-177.614 -256.018)" fill="#263238"/>
        <path id="Tracé_6942" data-name="Tracé 6942" d="M365.451,405.515a4.772,4.772,0,0,0-3.654,1.209,4.649,4.649,0,0,0-1.547,3.087c0,.034.065.042.072,0a5.536,5.536,0,0,1,5.125-4.228.038.038,0,1,0,.036-.067.037.037,0,0,0-.033,0" transform="translate(-223.286 -251.327)" fill="#263238"/>
        <path id="Tracé_6943" data-name="Tracé 6943" d="M336.419,389.687c-2.38-.194-5.2.46-6.809,2.308-.061.072.042.16.114.129a32.972,32.972,0,0,1,6.714-2.141.152.152,0,0,0-.019-.3" transform="translate(-204.283 -241.51)" fill="#263238"/>
        <path id="Tracé_6944" data-name="Tracé 6944" d="M341.152,391.9c-2.376-.194-5.193.46-6.805,2.308-.065.072.038.16.114.129a32.887,32.887,0,0,1,6.714-2.14.152.152,0,0,0-.023-.3" transform="translate(-207.218 -242.88)" fill="#263238"/>
        <path id="Tracé_6945" data-name="Tracé 6945" d="M345.862,394.116c-2.38-.194-5.2.456-6.805,2.3-.065.072.038.16.11.129a32.913,32.913,0,0,1,6.718-2.141.148.148,0,0,0-.023-.293" transform="translate(-210.137 -244.256)" fill="#263238"/>
        <path id="Tracé_6946" data-name="Tracé 6946" d="M350.569,396.327c-2.38-.194-5.2.46-6.809,2.308-.061.068.042.156.114.125a32.956,32.956,0,0,1,6.714-2.137.152.152,0,0,0-.019-.3" transform="translate(-213.053 -245.626)" fill="#263238"/>
        <path id="Tracé_6947" data-name="Tracé 6947" d="M288.158,398.432c-2.661-.171-2.947,3.981-.27,4.152s2.946-3.977.27-4.152" transform="translate(-177.275 -246.948)" fill="#263238"/>
        <path id="Tracé_6948" data-name="Tracé 6948" d="M345.509,372.68c-1.141-1.08-2.722-.205-3.532.779A12.547,12.547,0,0,0,339.4,379.4a.065.065,0,0,0,.056.072h.016a.292.292,0,0,0,.414.224c1.772-1.061,3.8-1.969,5.2-3.54.836-.92,1.5-2.456.426-3.479m-3.262,4.863c-.859.54-1.741,1.038-2.581,1.612a36.945,36.945,0,0,1,1.582-3.422,13.576,13.576,0,0,1,.977-1.547c.57-.76,3.042-2.585,3.1.023C345.361,375.63,343.258,376.9,342.247,377.543Z" transform="translate(-210.362 -230.682)" fill="#263238"/>
        <path id="Tracé_6949" data-name="Tracé 6949" d="M319.736,385.7c2.049.46,4.228,0,6.288-.163a.289.289,0,0,0,.236-.334.292.292,0,0,0-.03-.088.064.064,0,0,0,.012-.09.063.063,0,0,0-.012-.012,12.547,12.547,0,0,0-5.562-3.315c-1.236-.327-3.042-.11-3.327,1.43-.259,1.46,1.2,2.308,2.4,2.574m-1.346-1.452c-1.475-2.152,1.6-2.11,2.505-1.832a13.618,13.618,0,0,1,1.7.684c1.141.536,2.205,1.224,3.292,1.867-1.019.027-2.023.137-3.042.2-1.205.076-3.642.266-4.452-.92" transform="translate(-196.672 -236.497)" fill="#263238"/>
        <path id="Tracé_6950" data-name="Tracé 6950" d="M200.832,275.273l-23.933-.9s-10.383-35.738-12.847-37.377c-2.973-1.977-34.035.924-43.479-6.843-5.414-4.456-6.383-13.276-6.383-13.276l17.2-8.022a31.756,31.756,0,0,0,4.243,3.137c3.764,1.464,35.571-1.7,44.627,5.182,9.839,7.475,20.568,58.1,20.568,58.1" transform="translate(-70.776 -129.447)" fill="#263238"/>
        <path id="Tracé_6951" data-name="Tracé 6951" d="M200.832,275.273l-23.933-.9s-10.383-35.738-12.847-37.377c-2.973-1.977-34.035.924-43.479-6.843-5.414-4.456-6.383-13.276-6.383-13.276l17.2-8.022a31.756,31.756,0,0,0,4.243,3.137c3.764,1.464,35.571-1.7,44.627,5.182,9.839,7.475,20.568,58.1,20.568,58.1" transform="translate(-70.776 -129.447)" fill="#263238"/>
        <path id="Tracé_6952" data-name="Tracé 6952" d="M302.432,370.4c-4.053-.228-2.886-.217-6.942-.4-1.985-.091-11.961-.57-13.828-.346a.042.042,0,0,0-.027.052.043.043,0,0,0,.027.027c1.844.357,11.828.624,13.816.677,4.057.11,2.893.038,6.954.106a.057.057,0,0,0,0-.114" transform="translate(-174.558 -229.077)" fill="#37474f"/>
        <path id="Tracé_6953" data-name="Tracé 6953" d="M125.47,233.274c1.821,4.3,4.4,8.7,8.535,11.109a9.631,9.631,0,0,0,2.661.886c9.406,1.646,19.01,1.521,28.556,2.1,2.391.156,4.806.259,7.189.639a3.852,3.852,0,0,1,1.342.418,4.948,4.948,0,0,1,1.049,1.407,92.365,92.365,0,0,1,4.84,12.025q3.741,10.858,6.908,21.907c-2.422-7.262-4.84-14.523-7.456-21.713-1.338-3.578-2.627-7.189-4.247-10.623A8.8,8.8,0,0,0,173.329,249a9.31,9.31,0,0,0-2.448-.471c-1.9-.194-3.8-.3-5.7-.4-6.756-.38-16.287-.707-22.926-1.479-2.832-.411-5.847-.578-8.448-1.9-4.148-2.505-6.665-7.072-8.326-11.482Z" transform="translate(-77.767 -144.582)" fill="#37474f"/>
        <path id="Tracé_6954" data-name="Tracé 6954" d="M166.13,213.165l-28.587,22.017c-6.927-.738-13.417-2.156-16.926-5.041-5.414-4.456-6.387-13.276-6.387-13.276l17.189-8.014a31.669,31.669,0,0,0,4.239,3.137c2.551,1,17.976-.133,30.472,1.179" transform="translate(-70.801 -129.447)" fill="#37474f"/>
        <path id="Tracé_6955" data-name="Tracé 6955" d="M141.814,129.657c5.737,9.379,14.645,19.941,17.367,21.226,3.445,1.627,20.876-.217,21.774-.4,1.468-.3-.11-15.862-1.433-15.421-3.494,1.163-14.668,3.4-15.679,2.882s-8.573-5.46-16.557-11.185c-5.528-3.962-9.03-2.924-5.471,2.9" transform="translate(-87.005 -77.099)" fill="#eb9481"/>
        <path id="Tracé_6956" data-name="Tracé 6956" d="M178.12,133.963l.323,18.588s-15.74.711-19.314-1.243-13.307-14.949-17.109-21.561-.156-7.634,4.631-4.27,16.614,11.451,17.15,11.531,14.318-3.045,14.318-3.045" transform="translate(-87.044 -76.611)" fill="#10a35f"/>
        <path id="Tracé_6957" data-name="Tracé 6957" d="M229.347,164.359c-.019-2.2-.023-4.4-.125-6.593-.057-1.247-.11-2.5-.179-3.745,0-.046-.084-.049-.087,0-.065,2.205-.125,4.418-.091,6.627s.049,4.4.114,6.6c.034,1.247.11,2.49.221,3.737a.023.023,0,0,0,.046,0c.141-2.22.125-4.41.1-6.623" transform="translate(-141.845 -95.442)" fill="#263238"/>
        <g id="Groupe_1518" data-name="Groupe 1518" transform="translate(53.374 47.33)" opacity="0.1" style="mix-blend-mode: normal;isolation: isolate">
          <g id="Groupe_1517" data-name="Groupe 1517">
            <g id="Groupe_1516" data-name="Groupe 1516" clip-path="url(#clip-path-4)">
              <path id="Tracé_6958" data-name="Tracé 6958" d="M176.119,153.16c-4.5.11-14.314.171-17.04-1.319-3.574-1.954-13.307-14.949-17.109-21.557-1.825-3.175-1.935-5.064-1.023-5.794a3.1,3.1,0,0,1,.38.08c7.623,5.7,24.138,19.827,34.791,28.59" transform="translate(-140.387 -124.49)"/>
            </g>
          </g>
        </g>
        <path id="Tracé_6959" data-name="Tracé 6959" d="M229.182,133.667l-10.759-7.847L209.1,147.392l10.775,6.627Z" transform="translate(-129.602 -77.984)" fill="#455a64"/>
        <g id="Groupe_1521" data-name="Groupe 1521" transform="translate(79.498 47.836)" opacity="0.1" style="mix-blend-mode: normal;isolation: isolate">
          <g id="Groupe_1520" data-name="Groupe 1520">
            <g id="Groupe_1519" data-name="Groupe 1519" clip-path="url(#clip-path-5)">
              <path id="Tracé_6960" data-name="Tracé 6960" d="M229.182,133.667l-10.759-7.847L209.1,147.392l10.775,6.627Z" transform="translate(-209.1 -125.82)"/>
            </g>
          </g>
        </g>
        <path id="Tracé_6961" data-name="Tracé 6961" d="M230.537,135.47l-9.151-6.57-.433.669-7.4,17.348a21.772,21.772,0,0,1,2.133,2.6c.81,1.232,3.137,5.186,6.045,5.52Z" transform="translate(-132.36 -79.893)" fill="#fff"/>
        <path id="Tracé_6962" data-name="Tracé 6962" d="M242.2,136.587a16.223,16.223,0,0,1-3.673-2.5,24.514,24.514,0,0,0-3.368-3.308c-1-.646-2.007-1.289-2.007-1.289l.38-.593,9.151,6.57Z" transform="translate(-144.508 -79.893)" fill="#ebebeb"/>
        <path id="Tracé_6963" data-name="Tracé 6963" d="M194.89,164.024l17.242.445,8.243-20.9-17.941-1.775Z" transform="translate(-120.794 -87.883)" fill="#455a64"/>
        <path id="Tracé_6964" data-name="Tracé 6964" d="M242.41,153.45c.7,1.977,2.722,4.562,2.749,6.11a1.791,1.791,0,0,1-1.182,1.779,2.662,2.662,0,0,1,1.251,2.346c-.106.73-1.365,1.2-1.365,1.2a2.128,2.128,0,0,1,.874,2.042c-.213,1-1.445,1.319-1.445,1.319a2.552,2.552,0,0,1,.2,2.217c-1.091,1.92-9.79,1.034-10.809-2.308-.475-1.559,1.639-1.228,1.639-1.228s-2.924-1.209-2.787-3.007,2.859-1.2,2.859-1.2-2.825-1.2-2.494-3.042c.342-1.924,2.962-.863,2.962-.863s-1.8-1.521-1.224-2.867c.954-2.243,4.319,1.042,6.277.783l1.376-3.042Z" transform="translate(-143.503 -95.109)" fill="#eb9481"/>
        <path id="Tracé_6965" data-name="Tracé 6965" d="M259.314,149.655c-.5-1.931,2.038-4,1.821-5.912-.289-2.589-3.4-.38-4.406,3.22l-.289,2.946Z" transform="translate(-158.943 -88.395)" fill="#eb9481"/>
        <path id="Tracé_6966" data-name="Tracé 6966" d="M247.379,189.981a.023.023,0,0,1,0,.046,15.14,15.14,0,0,1-8.908-1.464c-.087-.046-.049-.205.057-.171a31.123,31.123,0,0,0,8.851,1.589" transform="translate(-147.776 -116.764)" fill="#263238"/>
        <path id="Tracé_6967" data-name="Tracé 6967" d="M248.261,179.847c.034,0,.034.057,0,.061a14.208,14.208,0,0,1-9.619-2.182c-.1-.068-.114-.228,0-.156,1.985,1.167,6.794,2.232,9.619,2.277" transform="translate(-147.863 -110.048)" fill="#263238"/>
        <path id="Tracé_6968" data-name="Tracé 6968" d="M239.726,166.967a19.49,19.49,0,0,0,9.159,2.764c.042,0,.034.065,0,.072a12.766,12.766,0,0,1-5.292-.528,8.748,8.748,0,0,1-3.924-2.209c-.061-.042,0-.152.057-.1" transform="translate(-148.533 -103.478)" fill="#263238"/>
        <path id="Tracé_6969" data-name="Tracé 6969" d="M95.887,164.49c.084.087,32.316-6.973,32.621-7.349.418-.528-5.342-24.77-11.406-32-1.521-1.81-6.361-1.684-8.528.141-10.748,9.049-12.991,38.9-12.687,39.209" transform="translate(-59.416 -76.76)" fill="#10a35f"/>
        <path id="Tracé_6970" data-name="Tracé 6970" d="M95.1,128.951c-8.919,9.2-18.576,27.42-16.455,31.305,2.388,4.311,14.828-8.577,14.751-9.322a153.282,153.282,0,0,1,6.06-19.717c3.273-8.5-2.152-4.539-4.357-2.266" transform="translate(-48.562 -78.107)" fill="#f7a9a0"/>
        <path id="Tracé_6971" data-name="Tracé 6971" d="M91.348,150.464c.38-1.247,4.76-15.622,6.437-20.5,1.5-4.376.677-6.159-2.924-3.422-6.634,5.034-17,19.865-19.39,27.773-2.281,7.623,2.768,7.688,7.9,4.14a40.958,40.958,0,0,0,7.973-8" transform="translate(-46.429 -77.627)" fill="#10a35f"/>
        <path id="Tracé_6972" data-name="Tracé 6972" d="M116.09,168.526q2.429-8.923,5.612-17.626-2.418,8.931-5.612,17.626" transform="translate(-71.953 -93.529)" fill="#263238"/>
        <path id="Tracé_6973" data-name="Tracé 6973" d="M128.16,156.48a9.288,9.288,0,0,1,1.2-2.11,6.232,6.232,0,0,1-1.2,2.11" transform="translate(-79.435 -95.68)" fill="#263238"/>
        <path id="Tracé_6974" data-name="Tracé 6974" d="M131.23,128.05c.281.38.574.76.871,1.114s.6.715.916,1.065c.624.7,1.266,1.372,1.935,2.019s1.353,1.27,2.068,1.855,1.452,1.141,2.205,1.673l-.255.057a.914.914,0,0,0,.065-.133c.023-.049.042-.106.061-.16.038-.114.076-.224.11-.342.068-.228.125-.464.182-.7.11-.471.205-.954.293-1.437s.163-.966.247-1.452l.224-1.46c0,.49-.042.985-.076,1.479s-.084.985-.141,1.475-.133.981-.228,1.471c-.049.243-.1.487-.167.73-.03.122-.068.243-.106.38a1.825,1.825,0,0,1-.065.183.876.876,0,0,1-.038.091.536.536,0,0,1-.053.106l-.1.171-.16-.11c-.76-.536-1.521-1.076-2.239-1.688-.38-.3-.707-.612-1.057-.928-.175-.156-.338-.327-.509-.487s-.335-.331-.5-.5a26.847,26.847,0,0,1-1.867-2.125,20.753,20.753,0,0,1-1.623-2.346" transform="translate(-81.337 -79.366)" fill="#263238"/>
        <path id="Tracé_6975" data-name="Tracé 6975" d="M139.2,119.55c-1.471-.1-4.216-3.171-5.152-5.612-.061-.167.4-1.776.871-3.756.278-1.2.563-2.551.73-3.8l7.566,2.965a20.009,20.009,0,0,0-1.407,4.688,2.668,2.668,0,0,0,0,.517.669.669,0,0,0,0,.087c.008,1-.3,5.06-2.608,4.912" transform="translate(-83.082 -65.935)" fill="#eb9481"/>
        <path id="Tracé_6976" data-name="Tracé 6976" d="M145.3,114.865a.669.669,0,0,1,0,.087,4.863,4.863,0,0,1-.814-.068c-4.433-.7-4.783-6.273-4.783-7.984l7.022,2.749a20.258,20.258,0,0,0-1.414,4.688,3.407,3.407,0,0,0-.011.528" transform="translate(-86.587 -66.257)" fill="#263238"/>
        <path id="Tracé_6977" data-name="Tracé 6977" d="M139.568,76.132c-1.585,2.46-2.365,10.645-.943,12.927,2.064,3.3,6.543,4.832,9.626,2.1,2.988-2.661,3.8-13.33,2.125-15.516-2.494-3.22-8.467-3.144-10.809.49" transform="translate(-85.459 -45.439)" fill="#eb9481"/>
        <path id="Tracé_6978" data-name="Tracé 6978" d="M154.951,94.509a6.745,6.745,0,0,0,.73-.1,1.214,1.214,0,0,0,.722-.24.38.38,0,0,0,.034-.46.943.943,0,0,0-.909-.289,1.393,1.393,0,0,0-.9.422.4.4,0,0,0,.319.665" transform="translate(-95.781 -57.889)" fill="#a6a6a6"/>
        <path id="Tracé_6979" data-name="Tracé 6979" d="M168.115,96.305a7.061,7.061,0,0,1-.681-.274,1.159,1.159,0,0,1-.643-.411.38.38,0,0,1,.08-.452.927.927,0,0,1,.947-.057,1.369,1.369,0,0,1,.76.627.4.4,0,0,1-.464.566" transform="translate(-103.353 -58.887)" fill="#a6a6a6"/>
        <path id="Tracé_6980" data-name="Tracé 6980" d="M154.5,113.331c.114.144.224.338.422.38a1.446,1.446,0,0,0,.608-.061.019.019,0,0,1,0,.027l0,0a.761.761,0,0,1-.734.209.59.59,0,0,1-.38-.54.055.055,0,0,1,.084-.019" transform="translate(-95.711 -70.237)" fill="#263238"/>
        <path id="Tracé_6981" data-name="Tracé 6981" d="M156.7,100.026a1.9,1.9,0,0,0,1.141.992,2.454,2.454,0,0,0,.669.114.519.519,0,0,0,.133,0h.122a.137.137,0,0,0,.125-.11.285.285,0,0,0,0-.057v-.049c.065-.418.106-1.068.106-1.068.144.1.886.551.9.331a29.082,29.082,0,0,0,0-5.752.053.053,0,0,0-.1,0c-.186,1.768-.065,3.555-.224,5.323a3.465,3.465,0,0,0-.852-.38c-.061,0-.057,1.255-.1,1.441v.023a2.621,2.621,0,0,1-1.859-.848c-.046-.038-.091-.008-.065.042" transform="translate(-97.117 -58.502)" fill="#263238"/>
        <path id="Tracé_6982" data-name="Tracé 6982" d="M157.23,100.355c0-.023-.046,0-.049.042-.068.544-.24,1.16-.76,1.258v.034c.627.008.848-.806.81-1.334" transform="translate(-96.95 -62.195)" fill="#263238"/>
        <path id="Tracé_6983" data-name="Tracé 6983" d="M156.148,98.642c-.863-.205-1.209,1.521-.411,1.726s1.133-1.555.411-1.726" transform="translate(-96.249 -61.129)" fill="#263238"/>
        <path id="Tracé_6984" data-name="Tracé 6984" d="M166.7,101.453c0-.019.038.034.034.057-.129.536-.186,1.171.262,1.449v.03c-.586-.205-.5-1.049-.3-1.536" transform="translate(-103.226 -62.879)" fill="#263238"/>
        <path id="Tracé_6985" data-name="Tracé 6985" d="M167.377,100.244c.878.114.585,1.863-.228,1.76s-.532-1.855.228-1.76" transform="translate(-103.296 -62.13)" fill="#263238"/>
        <g id="Groupe_1524" data-name="Groupe 1524" transform="translate(57.683 40.243)" opacity="0.2">
          <g id="Groupe_1523" data-name="Groupe 1523">
            <g id="Groupe_1522" data-name="Groupe 1522" clip-path="url(#clip-path-6)">
              <path id="Tracé_6986" data-name="Tracé 6986" d="M154.56,105.85a3.208,3.208,0,0,1-2.84,2.144,4.742,4.742,0,0,0,2.84-2.144" transform="translate(-151.72 -105.85)"/>
              <path id="Tracé_6987" data-name="Tracé 6987" d="M164.013,108.14a4.163,4.163,0,0,0,.673,2.418,2.21,2.21,0,0,1-.673-2.418" transform="translate(-159.275 -107.269)"/>
            </g>
          </g>
        </g>
        <path id="Tracé_6988" data-name="Tracé 6988" d="M137.5,82.936c1.182.479,2.452-1.182,2.848-1.9s.707-4.114,1.426-5.174a2.555,2.555,0,0,1,3-1.034c.969.414,2.121,1.878,2.87,1.9s1.1-1.551,1.62-1.49c1.141.137,1.654,3.167,1.722,4.425A5.531,5.531,0,0,0,146.422,73c-5.247-1.141-7.357,1.9-7.984,3.422a15.684,15.684,0,0,0-.943,6.513" transform="translate(-85.2 -45.092)" fill="#a6a6a6"/>
        <path id="Tracé_6989" data-name="Tracé 6989" d="M150.43,99.322a2.554,2.554,0,1,1,.627.091,2.629,2.629,0,0,1-.627-.091m1.274-4.585a2.1,2.1,0,0,0-.544-.08,2.209,2.209,0,1,0,.544.08" transform="translate(-92.079 -58.455)" fill="#37474f"/>
        <path id="Tracé_6990" data-name="Tracé 6990" d="M166.484,101.58a2.381,2.381,0,0,1-1.319-2.775,3.042,3.042,0,0,1,.806-1.677,1.585,1.585,0,0,1,2.688.418,3.041,3.041,0,0,1,.255,1.844c-.217,1.388-1.232,2.388-2.281,2.228Zm1.023-4.638-.129-.027a1.357,1.357,0,0,0-1.167.452,2.731,2.731,0,0,0-.711,1.49c-.186,1.2.35,2.281,1.2,2.422s1.688-.741,1.878-1.943a2.728,2.728,0,0,0-.224-1.639,1.41,1.41,0,0,0-.848-.757" transform="translate(-102.346 -59.847)" fill="#37474f"/>
        <path id="Tracé_6991" data-name="Tracé 6991" d="M161.355,100.968l-.175-.289a1.4,1.4,0,0,1,1.9.2l-.281.19c-.468-.677-1.407-.118-1.445-.1" transform="translate(-99.901 -62.227)" fill="#37474f"/>
        <path id="Tracé_6992" data-name="Tracé 6992" d="M131.4,96.63l-.274-.2c.091-.125.939-1.251,1.707-1.258s5.171,1.141,5.361,1.171l-.084.331c-1.277-.323-4.718-1.163-5.273-1.16s-1.209.81-1.437,1.118" transform="translate(-81.275 -58.987)" fill="#37474f"/>
        <path id="Tracé_6993" data-name="Tracé 6993" d="M136.681,94.269s-1.106-3-2.418-2.661-.943,4.346.274,5.2a1.414,1.414,0,0,0,1.99-.207l.037-.048Z" transform="translate(-82.705 -56.763)" fill="#eb9481"/>
        <path id="Tracé_6994" data-name="Tracé 6994" d="M135.96,94.694a3.586,3.586,0,0,1,1.22,2.639.779.779,0,0,0-.956-.549.756.756,0,0,0-.12.043c-.03,0,0,.057,0,.057a.87.87,0,0,1,.852.54,3.974,3.974,0,0,1,.247.867c.023.1.186.091.179,0v-.027c.323-1.213-.16-3.152-1.422-3.6Z" transform="translate(-84.269 -58.671)" fill="#263238"/>
        <g id="Groupe_1527" data-name="Groupe 1527" transform="translate(58.835 33.696)" opacity="0.2">
          <g id="Groupe_1526" data-name="Groupe 1526">
            <g id="Groupe_1525" data-name="Groupe 1525" clip-path="url(#clip-path-7)">
              <path id="Tracé_6995" data-name="Tracé 6995" d="M157.818,90.828a6.142,6.142,0,0,0,.871.152c.3,0,.6-.023.9,0a4.771,4.771,0,0,1,1.6.517c.046.019.034.049,0,.03a4.206,4.206,0,0,0-1.718-.411A5.339,5.339,0,0,1,158.016,91a5.38,5.38,0,0,0-3.266,0,5.294,5.294,0,0,1,3.068-.175" transform="translate(-154.75 -89.9)"/>
              <path id="Tracé_6996" data-name="Tracé 6996" d="M158.228,88.77a6.713,6.713,0,0,0,.829.141c.281,0,.566-.019.848,0a4.557,4.557,0,0,1,1.521.487c.042.019.034.049,0,.03a3.977,3.977,0,0,0-1.631-.38,4.95,4.95,0,0,1-1.38-.11,5.118,5.118,0,0,0-3.095,0,5,5,0,0,1,2.908-.167" transform="translate(-155.103 -88.629)"/>
            </g>
          </g>
        </g>
        <path id="Tracé_6997" data-name="Tracé 6997" d="M139.418,124.032l-2.034,4.349-5.623-5.771-1.711,1.737s5.361,9.056,5.41,8.657l2.064-3.741L140.209,132v-6.653Z" transform="translate(-80.606 -75.995)" fill="#ebebeb"/>
        <path id="Tracé_6998" data-name="Tracé 6998" d="M140.254,131.55c-.038-1.1-.042-2.205-.129-3.3a.04.04,0,0,0-.08,0,57.53,57.53,0,0,0-.152,6.254c-.11-.122-2.49-2.414-2.517-2.38-.441.589-1.954,3.315-2.061,3.562-.848-1.437-4.456-7.117-5.471-8.482-.03-.038-.1,0-.072.034.76,1.521,5.4,9.007,5.471,8.988a42.026,42.026,0,0,0,2.16-3.954,28.082,28.082,0,0,0,2.806,2.912,32.752,32.752,0,0,0,.046-3.635" transform="translate(-80.431 -78.832)" fill="#263238"/>
        <g id="Groupe_1530" data-name="Groupe 1530" transform="translate(66.933 38.373)" opacity="0.6" style="mix-blend-mode: normal;isolation: isolate">
          <g id="Groupe_1529" data-name="Groupe 1529">
            <g id="Groupe_1528" data-name="Groupe 1528" clip-path="url(#clip-path-8)">
              <path id="Tracé_6999" data-name="Tracé 6999" d="M180,121.932s6.277-2.9,6.273-6.783-8.159-6.364-8.167-9.4,3.547-4.821,3.547-4.821-5.608,1.924-5.6,5.76,5.384,6.425,5.9,8.866c.719,3.388-1.95,6.376-1.95,6.376" transform="translate(-176.05 -100.93)" fill="#ebebeb"/>
            </g>
          </g>
        </g>
        <g id="Groupe_1533" data-name="Groupe 1533" transform="translate(64.903 42.859)" opacity="0.6" style="mix-blend-mode: normal;isolation: isolate">
          <g id="Groupe_1532" data-name="Groupe 1532">
            <g id="Groupe_1531" data-name="Groupe 1531" clip-path="url(#clip-path-9)">
              <path id="Tracé_7000" data-name="Tracé 7000" d="M177,129.246s-6.285-2.281-6.288-5.323,8.14-5.03,8.136-7.414-3.559-3.779-3.559-3.779,5.627,1.506,5.627,4.52-6.163,5.1-6.6,7.551S177,129.246,177,129.246" transform="translate(-170.71 -112.73)" fill="#ebebeb"/>
            </g>
          </g>
        </g>
        <rect id="Rectangle_4713" data-name="Rectangle 4713" width="5.977" height="0.931" transform="translate(67.976 69.132) rotate(-0.091)" fill="#10a35f"/>
        <g id="Groupe_1536" data-name="Groupe 1536" transform="translate(67.976 69.123)" opacity="0.7" style="mix-blend-mode: normal;isolation: isolate">
          <g id="Groupe_1535" data-name="Groupe 1535">
            <g id="Groupe_1534" data-name="Groupe 1534" clip-path="url(#clip-path-10)">
              <rect id="Rectangle_4714" data-name="Rectangle 4714" width="5.977" height="0.931" transform="translate(0 0.009) rotate(-0.091)" fill="#fff"/>
            </g>
          </g>
        </g>
        <g id="Groupe_1539" data-name="Groupe 1539" transform="translate(67.976 69.123)" opacity="0.1" style="mix-blend-mode: normal;isolation: isolate">
          <g id="Groupe_1538" data-name="Groupe 1538">
            <g id="Groupe_1537" data-name="Groupe 1537" clip-path="url(#clip-path-11)">
              <rect id="Rectangle_4716" data-name="Rectangle 4716" width="5.977" height="0.616" transform="translate(0 0.009) rotate(-0.091)"/>
            </g>
          </g>
        </g>
        <path id="Tracé_7001" data-name="Tracé 7001" d="M158.447,163.819a3.3,3.3,0,0,0,3.965,1.258,4.211,4.211,0,0,0,.844-.445l-.76-1.141a2.705,2.705,0,0,1-.449.255,1.981,1.981,0,0,1-2.5-.73c-.821-1.141-1.118-3.779-.289-4.79.053-.076.293-.194,1.258,0,.175.042.38.087.6.148a2.543,2.543,0,0,0,.547.118l.023-.677.065-.673a1.715,1.715,0,0,1-.285-.076,9.1,9.1,0,0,0-1.338-.255,2.022,2.022,0,0,0-1.9.574c-1.361,1.65-.81,4.992.217,6.433" transform="translate(-97.571 -97.179)" fill="#10a35f"/>
        <g id="Groupe_1542" data-name="Groupe 1542" transform="translate(59.85 59.61)" opacity="0.7" style="mix-blend-mode: normal;isolation: isolate">
          <g id="Groupe_1541" data-name="Groupe 1541">
            <g id="Groupe_1540" data-name="Groupe 1540" clip-path="url(#clip-path-12)">
              <path id="Tracé_7002" data-name="Tracé 7002" d="M158.447,163.819a3.3,3.3,0,0,0,3.965,1.258,4.211,4.211,0,0,0,.844-.445l-.76-1.141a2.705,2.705,0,0,1-.449.255,1.981,1.981,0,0,1-2.5-.73c-.821-1.141-1.118-3.779-.289-4.79.053-.076.293-.194,1.258,0,.175.042.38.087.6.148a2.543,2.543,0,0,0,.547.118l.023-.677.065-.673a1.715,1.715,0,0,1-.285-.076,9.1,9.1,0,0,0-1.338-.255,2.022,2.022,0,0,0-1.9.574c-1.361,1.65-.81,4.992.217,6.433" transform="translate(-157.421 -156.789)" fill="#fff"/>
            </g>
          </g>
        </g>
        <g id="Groupe_1545" data-name="Groupe 1545" transform="translate(64.484 66.328)" opacity="0.1" style="mix-blend-mode: normal;isolation: isolate">
          <g id="Groupe_1544" data-name="Groupe 1544">
            <g id="Groupe_1543" data-name="Groupe 1543" clip-path="url(#clip-path-13)">
              <path id="Tracé_7003" data-name="Tracé 7003" d="M170.059,174.46a2.706,2.706,0,0,1-.449.255l.38,1.315a4.211,4.211,0,0,0,.844-.445Z" transform="translate(-169.61 -174.46)"/>
            </g>
          </g>
        </g>
        <g id="Groupe_1548" data-name="Groupe 1548" transform="translate(62.561 59.633)" opacity="0.1" style="mix-blend-mode: normal;isolation: isolate">
          <g id="Groupe_1547" data-name="Groupe 1547">
            <g id="Groupe_1546" data-name="Groupe 1546" clip-path="url(#clip-path-14)">
              <path id="Tracé_7004" data-name="Tracé 7004" d="M164.55,156.85l.4,1.441c.175.042.38.087.6.148a2.544,2.544,0,0,0,.547.118l.023-.677.065-.673a1.714,1.714,0,0,1-.285-.076,9.075,9.075,0,0,0-1.357-.281" transform="translate(-164.55 -156.85)"/>
            </g>
          </g>
        </g>
        <path id="Tracé_7005" data-name="Tracé 7005" d="M181.636,152.14s-.711,6.083-1.943,8.661-2.962,2.851-4.038,2.855h-3.9c-1.072,0-2.8-.281-4.045-2.84s-1.966-8.653-1.966-8.653Z" transform="translate(-102.727 -94.297)" fill="#10a35f"/>
        <g id="Groupe_1551" data-name="Groupe 1551" transform="translate(63.013 57.843)" opacity="0.7" style="mix-blend-mode: normal;isolation: isolate">
          <g id="Groupe_1550" data-name="Groupe 1550">
            <g id="Groupe_1549" data-name="Groupe 1549" clip-path="url(#clip-path-15)">
              <path id="Tracé_7006" data-name="Tracé 7006" d="M181.636,152.14s-.711,6.083-1.943,8.661-2.962,2.851-4.038,2.855h-3.9c-1.072,0-2.8-.281-4.045-2.84s-1.966-8.653-1.966-8.653Z" transform="translate(-165.74 -152.14)" fill="#fff"/>
            </g>
          </g>
        </g>
        <g id="Groupe_1554" data-name="Groupe 1554" transform="translate(63.545 61.363)" opacity="0.1">
          <g id="Groupe_1553" data-name="Groupe 1553">
            <g id="Groupe_1552" data-name="Groupe 1552" clip-path="url(#clip-path-16)">
              <path id="Tracé_7007" data-name="Tracé 7007" d="M182.15,165.45c-.122.563-.255,1.118-.4,1.639l-13.387.023c-.148-.525-.285-1.08-.411-1.639Z" transform="translate(-167.642 -163.91)"/>
              <path id="Tracé_7008" data-name="Tracé 7008" d="M182.538,171.39c-.1.293-.186.566-.289.821l-12.44.019c-.1-.251-.2-.528-.289-.817Z" transform="translate(-168.615 -167.592)"/>
              <path id="Tracé_7009" data-name="Tracé 7009" d="M181.956,161.4c-.049.266-.1.54-.16.817l-14.5.023c-.061-.278-.11-.551-.16-.817Z" transform="translate(-167.14 -161.4)"/>
            </g>
          </g>
        </g>
        <path id="Tracé_7010" data-name="Tracé 7010" d="M78.741,186.054c3.178,1.547,8.744-.411,22.051-4.741,1.844-.6.639-14.987-1.365-14.447-2.521.677-12.166,3.855-12.835,4.182-5.68,2.707-10.007,13.957-7.851,15.006" transform="translate(-48.455 -103.415)" fill="#eb9481"/>
        <path id="Tracé_7011" data-name="Tracé 7011" d="M141.631,161.344c.042,1.68-4.1,1.433-4.1,1.433a3.08,3.08,0,0,1,1.293,1.661c.338,1.232-1.445,2.281-1.445,2.281a3.832,3.832,0,0,1,1.087,1.973c.2,1.209-1.441,2.543-1.441,2.543a3.475,3.475,0,0,1-.137,2.331c-1.521,3.239-10.771,3.464-13.425,2.969l-3.8-13.158s7.649-5.171,11.406-5.4c2.095-.133,10.5.783,10.566,3.365" transform="translate(-74.166 -97.909)" fill="#eb9481"/>
        <path id="Tracé_7012" data-name="Tracé 7012" d="M155.388,169.316a28.169,28.169,0,0,0-6.809-.7.038.038,0,0,0,0,.076c2.247.171,4.562.624,6.794.726a.054.054,0,0,0,.015-.106" transform="translate(-92.067 -104.512)" fill="#263238"/>
        <path id="Tracé_7013" data-name="Tracé 7013" d="M155.5,180.713a5.9,5.9,0,0,0-1.555-.057c-.551,0-1.1.046-1.654.084-1.1.072-2.2.171-3.3.3-.046,0-.049.08,0,.076,1.1-.072,2.2-.125,3.3-.148.551,0,1.1-.023,1.65-.027a7.108,7.108,0,0,0,1.559-.084.076.076,0,0,0,0-.148" transform="translate(-92.324 -111.955)" fill="#263238"/>
        <path id="Tracé_7014" data-name="Tracé 7014" d="M155.47,192.773a4.139,4.139,0,0,0-1.4.027l-1.521.122c-1,.076-2.007.152-3.011.194a.04.04,0,0,0,0,.08c1.023-.038,2.045-.061,3.068-.106l1.521-.076a3.886,3.886,0,0,0,1.357-.19s.011-.049-.011-.049" transform="translate(-92.658 -119.453)" fill="#263238"/>
        <path id="Tracé_7015" data-name="Tracé 7015" d="M95.454,165.07,91.865,185.3s-12.927,1.772-15.47-.38c-1.8-1.54,2.4-12.364,8.722-15.352Z" transform="translate(-47.09 -102.312)" fill="#10a35f"/>
        <path id="Tracé_7016" data-name="Tracé 7016" d="M83.717,183.042a13.413,13.413,0,0,1,6.2-6.182c.034,0,.065.03.034.049a21.935,21.935,0,0,0-6.182,6.159c-.015.034-.061.008-.049-.027" transform="translate(-51.887 -109.619)" fill="#263238"/>
        <path id="Tracé_7017" data-name="Tracé 7017" d="M109.62,187.131c.194-1.977.49-3.939.795-5.9s.6-3.931.954-5.889c.2-1.1.38-2.213.627-3.311,0-.027.057-.023.053,0-.19,1.973-.483,3.939-.76,5.9s-.6,3.931-.928,5.893c-.186,1.106-.38,2.213-.631,3.311-.023.061-.114.053-.11,0" transform="translate(-67.943 -106.614)" fill="#263238"/>
        <path id="Tracé_7018" data-name="Tracé 7018" d="M108.934,164.655a17.727,17.727,0,0,0-2.171.81c-.711.3-1.422.608-2.125.928a46.391,46.391,0,0,0-6.79,3.35c-.023.019.19.057.217.038,1.076-.791,10.117-4.456,10.805-4.84,0,.057-.194,1.35-.182,1.411s.068.061.087,0c.046-.11.259-1.449.3-1.559a.114.114,0,0,0-.085-.137.119.119,0,0,0-.052,0" transform="translate(-60.645 -102.053)" fill="#263238"/>
        <path id="Tracé_7019" data-name="Tracé 7019" d="M96.285,209.78c-.137,1.118-.3,2.232-.46,3.346-1.715.262-3.422.445-5.167.578a34.507,34.507,0,0,1-7.646-.137c-.278-.053-.555-.118-.833-.179a38.971,38.971,0,0,0,6.76.038c2.251-.11,4.509-.323,6.752-.544l-.11.106c.224-1.072.452-2.144.7-3.209" transform="translate(-50.936 -130.023)" fill="#263238"/>
        <path id="Tracé_7020" data-name="Tracé 7020" d="M295.492,198.269c-3.631-3.251-18.732-9.147-19.5-9.5-.73-.24-6.6-.981-6.6-.981-.171.034-15.607-6.923-15.607-6.923l-5.121,18.01,18.588,5.558s15.789,5.509,20.439,5.479c3.03-.03,9.828-9.824,7.805-11.638" transform="translate(-154.121 -112.098)" fill="#eb9481"/>
        <path id="Tracé_7021" data-name="Tracé 7021" d="M311.413,219.481c-4.65.03-20.439-5.471-20.439-5.471l-4.034-1.205,3.722-16.485c1.426.627,2.388,1.042,2.448,1.042,0,0,5.878.741,6.6.981.76.38,15.873,6.266,19.5,9.5,2.023,1.817-4.775,11.611-7.805,11.634" transform="translate(-177.848 -121.681)" fill="#ebebeb"/>
        <path id="Tracé_7022" data-name="Tracé 7022" d="M315.745,221.2c-4.65.03-20.439-5.471-20.439-5.471l-1.376-.411c.452-1.274,1.62-4.6,2.121-6.342a99.507,99.507,0,0,0,1.392-9.885s5.878.741,6.6.981c.76.38,15.873,6.266,19.5,9.5,2.023,1.806-4.775,11.6-7.805,11.622" transform="translate(-182.18 -123.397)" fill="#10a35f"/>
        <path id="Tracé_7023" data-name="Tracé 7023" d="M347.083,236.367a11.178,11.178,0,0,1,1.023-7.376c.969-1.654,2.464-3.182,4.319-3.422.053,0,.076.122.023.141-3.368,1.247-5.745,5.923-5.254,10.619.011.114-.091.133-.11.038" transform="translate(-214.993 -139.81)" fill="#263238"/>
        <path id="Tracé_7024" data-name="Tracé 7024" d="M313.777,226.625c-.194-2.376.46-5.193,2.308-6.805.068-.061.16.042.126.114a32.95,32.95,0,0,0-2.137,6.729.152.152,0,0,1-.3-.038" transform="translate(-194.461 -136.234)" fill="#263238"/>
        <path id="Tracé_7025" data-name="Tracé 7025" d="M318.227,228.769c-.194-2.38.46-5.2,2.308-6.809.072-.061.16.042.125.114a33.177,33.177,0,0,0-2.137,6.714.152.152,0,0,1-.3-.019" transform="translate(-197.219 -137.561)" fill="#263238"/>
        <path id="Tracé_7026" data-name="Tracé 7026" d="M322.677,230.909c-.194-2.38.46-5.2,2.308-6.809.072-.061.16.042.125.114a33.176,33.176,0,0,0-2.121,6.714.156.156,0,1,1-.312-.019" transform="translate(-199.977 -138.887)" fill="#263238"/>
        <path id="Tracé_7027" data-name="Tracé 7027" d="M327.127,233.049c-.194-2.38.46-5.2,2.308-6.809.072-.061.16.042.125.114a33.177,33.177,0,0,0-2.137,6.714.152.152,0,0,1-.3-.019" transform="translate(-202.735 -140.214)" fill="#263238"/>
        <path id="Tracé_7028" data-name="Tracé 7028" d="M298.64,232.309c1.734-1.19,2.889-3.091,4.159-4.718a.293.293,0,0,0-.088-.4.3.3,0,0,0-.083-.036.061.061,0,0,0-.039-.077.062.062,0,0,0-.022,0,12.546,12.546,0,0,0-6.216,1.817c-1.08.684-2.144,2.148-1.213,3.422.878,1.167,2.49.677,3.5,0m-1.981,0c-2.578-.38-.452-2.612.38-3.083a13.343,13.343,0,0,1,1.654-.76,37.547,37.547,0,0,1,3.608-1.141c-.673.76-1.274,1.574-1.92,2.361-.783.9-2.3,2.813-3.722,2.623" transform="translate(-182.707 -140.74)" fill="#263238"/>
        <path id="Tracé_7029" data-name="Tracé 7029" d="M309.686,203.983c-1.566.1-2,1.852-1.832,3.121a12.5,12.5,0,0,0,2.6,5.927.06.06,0,0,0,.084.019.058.058,0,0,0,.019-.019.289.289,0,0,0,.445-.152c.433-2.023,1.141-4.129.943-6.22-.118-1.209-.776-2.772-2.258-2.677m1.342,5.7c-.186,1-.422,1.981-.574,2.988a37.464,37.464,0,0,1-1.445-3.5,14.177,14.177,0,0,1-.468-1.772c-.164-.928.179-3.984,2.129-2.258,1.076.95.585,3.346.357,4.536Z" transform="translate(-190.788 -126.428)" fill="#263238"/>
        <path id="Tracé_7030" data-name="Tracé 7030" d="M319.771,202.12c4.619,2,9.581,4.239,14.128,6.391,1.65.855,3.3,1.68,4.866,2.68a1.856,1.856,0,0,1,.536.464,1.641,1.641,0,0,1,.129.532,9.151,9.151,0,0,1-1.388,4.254c-1.38,2.532-3.4,5.1-6.129,6.224a4.1,4.1,0,0,0,.969-.521,15.44,15.44,0,0,0,4.9-5.84c.62-1.334,1.468-2.836,1.258-4.33-.057-.27-.262-.323-.475-.49-3.266-2-7.349-3.848-10.828-5.505-1.988-.943-6-2.886-7.984-3.859Z" transform="translate(-198.19 -125.275)" fill="#263238"/>
        <path id="Tracé_7031" data-name="Tracé 7031" d="M99.15,187.747s0,12.436,4.425,16.291c3.722,3.235,12.657,6.5,21.671,2.528,7.513-3.338,17.017-19.686,19.051-21.371.631-.525,12.417,5.041,24.857,8.695l4.372-22.3c-1.962-.38-30.244-10.581-35.989-9.8-9.022,1.228-22.158,22.4-22.158,22.4Z" transform="translate(-61.454 -100.253)" fill="#263238"/>
        <path id="Tracé_7032" data-name="Tracé 7032" d="M118.557,225.122c0-.065-.106-.046-.106,0a7.4,7.4,0,0,1-1.673,4.7,14.334,14.334,0,0,1-4.7,3.121c-.16.084-.027.2.137.152a13.9,13.9,0,0,0,2.9-1.141A7.136,7.136,0,0,0,117.3,230.1a6.494,6.494,0,0,0,1.255-4.977" transform="translate(-69.425 -139.507)" fill="#37474f"/>
        <path id="Tracé_7033" data-name="Tracé 7033" d="M271.221,206.767c.924-3.954.711-2.806,1.593-6.767.43-1.943,2.62-11.687,2.722-13.561a.038.038,0,1,0-.076,0c-.673,1.753-2.661,11.543-3.042,13.489-.81,3.981-.536,2.848-1.3,6.843a.057.057,0,1,0,.106,0" transform="translate(-168.037 -115.532)" fill="#37474f"/>
        <path id="Tracé_7034" data-name="Tracé 7034" d="M137.19,220.61c-1.106,1.547-2,3.159-3.14,4.684a10.736,10.736,0,0,1,3.14-4.684" transform="translate(-83.085 -136.736)" fill="#37474f"/>
        <path id="Tracé_7035" data-name="Tracé 7035" d="M103.9,220.27c.251,1.794.544,3.578.89,5.353a35.05,35.05,0,0,0,1.35,5.235,5.542,5.542,0,0,0,1.479,2.19c3.684,3.346,10.334,4.988,15.105,3.452,6.555-2.5,12.546-11.71,16.459-17.436,1-1.521,1.969-3.042,2.977-4.54.255-.38.513-.76.791-1.114.205-.266.521-.692.931-.608a14.743,14.743,0,0,1,2.973.863c3.391,1.274,6.714,2.7,10.071,4.057a89.641,89.641,0,0,0,10.189,3.707,89.3,89.3,0,0,1-10.265-3.521c-4.216-1.582-8.334-3.547-12.672-4.733a1.077,1.077,0,0,0-.548,0,2.473,2.473,0,0,0-.414.456c-1.327,1.821-2.483,3.768-3.737,5.646-3.927,5.825-9.946,15.018-16.649,17.553-4.874,1.57-11.638-.163-15.367-3.608-1.407-1.247-1.84-3.148-2.243-4.9-.589-2.661-.985-5.342-1.319-8.037Z" transform="translate(-64.398 -131.89)" fill="#37474f"/>
        <path id="Tracé_7036" data-name="Tracé 7036" d="M215.044,229.031l-.5,2.787v.042H214.5c-4.281-1.19-8.5-2.608-12.653-4.182-3.334-1.236-8.288-3.422-11.668-4.349a1.359,1.359,0,0,0-.411-.038c0-.023-.034.027-.034.027a21.806,21.806,0,0,0-2.133,2.753c-4.456,6.285-8.9,12.991-15.288,17.489,5.361-4,9.258-9.55,13.1-14.945.935-1.308,2.391-3.532,3.368-4.771a6.791,6.791,0,0,1,.719-.806.315.315,0,0,1,.137-.084,1.247,1.247,0,0,1,.616.019,19.527,19.527,0,0,1,2.41.76c2.121.76,7.136,2.817,9.3,3.661,4.03,1.669,8.566,3.091,12.5,4.444l.586-2.768Z" transform="translate(-106.799 -138.169)" fill="#37474f"/>
        <path id="Tracé_7037" data-name="Tracé 7037" d="M20.858,298.451c-2.509-6.505-7.558-10.166-13.687-8.9s-7.8,9.543-3.513,12.037,9.3-3.292,11.786-4.361,5.414,1.228,5.414,1.228" transform="translate(-0.787 -179.31)" fill="#10a35f"/>
        <path id="Tracé_7038" data-name="Tracé 7038" d="M27.8,317.751c.049-.76.084-1.521.122-2.281.072-1.521.152-3.015.221-4.524a21.059,21.059,0,0,0-.859-8.117,12.424,12.424,0,0,0-4.349-5.958,10.073,10.073,0,0,0-2.456-1.3,5.923,5.923,0,0,0-2.821-1.878,12.173,12.173,0,0,0-4.2-.464c-.053,0-.057.084,0,.08a10.207,10.207,0,0,1,3.984.624,8.536,8.536,0,0,1,1.555.76,7.663,7.663,0,0,1,.867.658,8.608,8.608,0,0,0-3.665-.274,7.8,7.8,0,0,0-1.308.312,3.552,3.552,0,0,0-.989-.171,5.842,5.842,0,0,0-1.315.076,9.727,9.727,0,0,0-2.559.867c-.046,0,0,.091.038.068a9.221,9.221,0,0,1,2.483-.7,7.653,7.653,0,0,1,1.251-.076,5.99,5.99,0,0,1,.692.061,7.983,7.983,0,0,0-4.2,3.536c-.027.042.042.087.065.042a7.318,7.318,0,0,1,5.277-3.54c.133-.023.27-.027.407-.042a4.892,4.892,0,0,0-.114.6c-.068.3-.144.6-.232.893a15.712,15.712,0,0,1-.643,1.791,14.232,14.232,0,0,1-.878,1.711,8.274,8.274,0,0,1-1.141,1.623c-.042.042.023.1.057.053.411-.536.871-1.019,1.251-1.578a12.788,12.788,0,0,0,.962-1.673,12.222,12.222,0,0,0,.692-1.829c.1-.331.175-.665.243-1a2.267,2.267,0,0,0,.091-.616,8.377,8.377,0,0,1,2.133.137,11.413,11.413,0,0,1-1.756,4.22c-.03.042.038.087.068.046a17.491,17.491,0,0,0,1.209-2.045,7.977,7.977,0,0,0,.7-2.175,9.88,9.88,0,0,1,3.422,1.479,11.652,11.652,0,0,1,4.251,5.524,19.338,19.338,0,0,1,1.114,7.494c-.072,3.209-.3,6.425-.255,9.638,0,.209.327.308.38.076a11.461,11.461,0,0,0,.213-2.125" transform="translate(-6.198 -181.729)" fill="#263238"/>
        <path id="Tracé_7039" data-name="Tracé 7039" d="M37.981,297.709a3.538,3.538,0,0,0-.635-.7,9.684,9.684,0,0,0-.722-.65,5.751,5.751,0,0,0-1.658-.947.038.038,0,1,0-.027.072,4.684,4.684,0,0,1,1.635.985c.236.205.464.43.684.654a4.186,4.186,0,0,0,.646.654.053.053,0,0,0,.076-.072" transform="translate(-21.64 -183.1)" fill="#263238"/>
        <path id="Tracé_7040" data-name="Tracé 7040" d="M12.46,305.223a19.686,19.686,0,0,0-1.551,1.726A11.128,11.128,0,0,0,9.7,308.918c0,.019.023.034.034.019a24.551,24.551,0,0,1,2.779-3.654c.038-.038-.015-.1-.053-.061" transform="translate(-6.012 -189.173)" fill="#263238"/>
        <path id="Tracé_7041" data-name="Tracé 7041" d="M32.5,305.037a4.374,4.374,0,0,1-.441,1.1,7.258,7.258,0,0,1-.662.954c0,.019,0,.046.03.027a4.085,4.085,0,0,0,1.141-2.053c.027-.049-.057-.076-.068-.027" transform="translate(-19.462 -189.048)" fill="#263238"/>
        <path id="Tracé_7042" data-name="Tracé 7042" d="M51.69,306.1s3.9-5.737,12.356-4.444c8.041,1.224,12.778,15.44,4.943,17.774s-7.459-11.178-10.539-13.231a6.953,6.953,0,0,0-6.76-.1" transform="translate(-32.038 -186.848)" fill="#10a35f"/>
        <path id="Tracé_7043" data-name="Tracé 7043" d="M66.408,310.728a16.559,16.559,0,0,0-1.81-1.182,7.562,7.562,0,0,0-1.9-.76,10.569,10.569,0,0,0-3.851-3.121c.084,0,.163-.027.247-.034a12.817,12.817,0,0,1,1.323-.087,7.371,7.371,0,0,1,2.612.445.042.042,0,0,0,.027-.076,11.864,11.864,0,0,0-2.62-.578,7.121,7.121,0,0,0-1.3,0c-.236.019-.468.053-.7.091l-.133.023a11.053,11.053,0,0,0-2.464-.7l.228-.084a12.041,12.041,0,0,1,1.217-.293,9.6,9.6,0,0,1,2.49-.152.038.038,0,1,0,0-.076,15.553,15.553,0,0,0-2.521.087,10.359,10.359,0,0,0-2.072.43,11.35,11.35,0,0,0-1.521-.061,9.421,9.421,0,0,0-7.6,3.935c-1.62,2.517-1.715,5.726-1.814,8.627a64.5,64.5,0,0,0,.593,12.109c.038.236.38.167.357-.061-.148-3.422-.285-6.843-.217-10.265.034-1.589.084-3.186.224-4.768a13.955,13.955,0,0,1,.855-3.973,7.113,7.113,0,0,1,2.578-3.228,9.506,9.506,0,0,1,3.882-1.521,10.831,10.831,0,0,1,3.756.068,2.4,2.4,0,0,0,.034.738,4.087,4.087,0,0,0,.251.9,5.1,5.1,0,0,0,.407.779,8.2,8.2,0,0,0,.582.76.039.039,0,1,0,.061-.049,3.778,3.778,0,0,1-.76-1.589,6.441,6.441,0,0,1-.163-.84c-.027-.213-.027-.43-.049-.643a11.049,11.049,0,0,1,3.772,1.642c.217.144.422.3.627.464a4.006,4.006,0,0,0-.639.92,8.232,8.232,0,0,0-.643,1.372,11.268,11.268,0,0,0-.547,2.95.038.038,0,1,0,.076,0,8.52,8.52,0,0,1,.76-2.813,11.71,11.71,0,0,1,.643-1.274c.125-.209.259-.418.38-.62.072-.11.152-.22.221-.338a11.459,11.459,0,0,1,2.608,3.14,5.572,5.572,0,0,0-.871,1.471,13.255,13.255,0,0,0-.654,1.722,28.311,28.311,0,0,0-.734,3.464.042.042,0,0,0,.052.027.043.043,0,0,0,.027-.027,14.345,14.345,0,0,1,.924-3.422c.209-.54.433-1.072.673-1.6a14.019,14.019,0,0,0,.669-1.521,10.586,10.586,0,0,1,1.239,3.779c0,.049.087.034.08,0a13.483,13.483,0,0,0-2.312-5.768c.525.179,1.049.35,1.559.574a8.468,8.468,0,0,1,1.821,1.084c.034.023.084-.046.042-.076" transform="translate(-27.381 -188.499)" fill="#263238"/>
        <path id="Tracé_7044" data-name="Tracé 7044" d="M85.372,323.47c-.19.84-.441,1.661-.6,2.505a9.476,9.476,0,0,0-.182,2.471.019.019,0,1,0,.038,0,23.8,23.8,0,0,1,.825-4.943.042.042,0,1,0-.076-.034" transform="translate(-52.416 -200.474)" fill="#263238"/>
        <path id="Tracé_7045" data-name="Tracé 7045" d="M96.061,315.387a4.463,4.463,0,0,0-1.141-.7,7.83,7.83,0,0,0-1.308-.354.038.038,0,1,0,0,.076,4.909,4.909,0,0,1,1.262.414,9.134,9.134,0,0,1,1.182.608.027.027,0,0,0,.008-.037l0,0" transform="translate(-57.996 -194.824)" fill="#263238"/>
        <path id="Tracé_7046" data-name="Tracé 7046" d="M63.72,274.814s.8-9.752,8.049-12.927c6.056-2.638,9.5,4.182,5.239,8.33-3.467,3.391-9.014,1.871-13.288,4.6" transform="translate(-39.494 -161.954)" fill="#10a35f"/>
        <path id="Tracé_7047" data-name="Tracé 7047" d="M68.7,266.6a30.47,30.47,0,0,0-3.224,1.521,23.891,23.891,0,0,0-2.505,1.661c.122-.247.224-.506.346-.76a9.116,9.116,0,0,1,.616-1.1,10.55,10.55,0,0,1,1.6-2.023c.038-.034,0-.091-.057-.053a16.159,16.159,0,0,0-1.68,1.954A11.473,11.473,0,0,0,63.1,268.9a4.314,4.314,0,0,0-.487,1.141l-.08.057a23.917,23.917,0,0,0-3.464,3.388.984.984,0,0,1,.065-.278c.137-.475.281-.947.441-1.418a12.057,12.057,0,0,1,1.308-2.844c.027-.042-.042-.084-.068-.038a22.072,22.072,0,0,0-1.521,2.775,10.1,10.1,0,0,0-.5,1.441,5.826,5.826,0,0,0-.236.977c-.316.4-.627.806-.92,1.22a29.933,29.933,0,0,0-5.049,15.154A45.02,45.02,0,0,0,52.5,295.3a30.127,30.127,0,0,0,.422,4.821c.023.1.179.068.175-.03-.034-1.407-.179-2.81-.209-4.22a41.444,41.444,0,0,1,.137-4.235,39.479,39.479,0,0,1,1.593-8.307,29.654,29.654,0,0,1,3.688-7.8c.3-.061.608-.144.909-.22.38-.1.722-.186,1.084-.289a10.916,10.916,0,0,0,2.023-.741c.046-.023,0-.091-.042-.068a6.459,6.459,0,0,1-2.049.707c-.57.114-1.141.19-1.726.319a26.592,26.592,0,0,1,1.684-2.217,12.659,12.659,0,0,0,4.125-.308,16.38,16.38,0,0,0,2.11-.658c.726-.278,1.414-.639,2.133-.939.053-.023,0-.1-.034-.072a11.6,11.6,0,0,1-4.182,1.369,25.881,25.881,0,0,1-3.908.323c.513-.589,1.046-1.167,1.612-1.707a19.21,19.21,0,0,1,6.676-4.349c.049,0,.023-.076-.023-.076" transform="translate(-32.525 -164.761)" fill="#263238"/>
        <path id="Tracé_7048" data-name="Tracé 7048" d="M77.138,267.936a11.255,11.255,0,0,0-.89,1.3,7.074,7.074,0,0,0-.639,1.521m.03,0c.24-.479.445-.973.688-1.452a7.234,7.234,0,0,1,.867-1.315c.034-.038-.027-.1-.057-.053Z" transform="translate(-46.864 -166.06)" fill="#263238"/>
        <path id="Tracé_7049" data-name="Tracé 7049" d="M92.441,276.491a7.492,7.492,0,0,1-1.487.62,13.906,13.906,0,0,1-1.521.407c-.023,0,0,.046,0,.042A7.168,7.168,0,0,0,91,277.217a12.968,12.968,0,0,0,1.468-.658c.046-.023.019-.1-.027-.068" transform="translate(-55.425 -171.367)" fill="#263238"/>
        <path id="Tracé_7050" data-name="Tracé 7050" d="M22.894,243.948a17.641,17.641,0,0,0-7.224-7.06c-5.57-3.194-12.212-11.5-6.756-16.751,4.4-4.235,16.01,5,13.98,23.811" transform="translate(-4.265 -135.813)" fill="#10a35f"/>
        <path id="Tracé_7051" data-name="Tracé 7051" d="M34.843,271.959a108.716,108.716,0,0,0-.966-12.326,55.525,55.525,0,0,0-2.593-11.026c-.456-1.289-.977-2.555-1.521-3.8a8.873,8.873,0,0,0-.027-1.46c-.03-.624-.087-1.247-.144-1.867s-.122-1.247-.194-1.867-.205-1.239-.232-1.859a.038.038,0,1,0-.076,0h0a13.224,13.224,0,0,1,.217,1.973c.049.6.084,1.205.1,1.806s0,1.209,0,1.814v.681q-.867-1.829-1.863-3.585a21.325,21.325,0,0,0-.646-7.684c0-.053-.084-.03-.076.023a21.679,21.679,0,0,1,.407,3.939c.023,1.042-.027,2.087-.03,3.129-.148-.247-.293-.5-.445-.76q-1.194-1.95-2.547-3.8a6.019,6.019,0,0,0-.057-1.81,14.057,14.057,0,0,0-.445-1.981,19.4,19.4,0,0,0-.681-1.9c-.259-.612-.62-1.255-.874-1.9-.023-.053-.1,0-.072.034a9.589,9.589,0,0,1,.76,1.924,17.347,17.347,0,0,1,.5,1.9c.129.646.236,1.293.327,1.947.057.43.1.878.171,1.312a46.778,46.778,0,0,0-4.292-4.992c-.038-.038-.087,0-.057.057a56.292,56.292,0,0,1,6.235,8.478c.068.114.129.228.2.342-.338-.213-.726-.38-1.046-.559q-.89-.5-1.787-.981c-.582-.312-1.141-.631-1.737-.951-.3-.163-.589-.335-.893-.49a7.3,7.3,0,0,1-1.038-.578c-.046-.034-.1.038-.046.065.589.323,1.11.806,1.68,1.171s1.141.719,1.753,1.049c1.087.608,2.281,1.046,3.346,1.673.76,1.3,1.43,2.642,2.061,4-.65-.418-1.315-.814-1.988-1.194-.437-.243-.871-.483-1.312-.715a6.464,6.464,0,0,1-1.236-.76.039.039,0,1,0-.053.057,11.49,11.49,0,0,0,2.353,1.639c.787.46,1.585.9,2.4,1.3q.981,2.156,1.776,4.387c2.578,7.307,3.528,15.063,3.981,22.766.133,2.281.205,4.593.232,6.893s-.114,4.6-.114,6.912a.061.061,0,0,0,.122,0c.274-2.038.323-4.11.414-6.159s.1-4.178.049-6.269" transform="translate(-11.997 -141.112)" fill="#263238"/>
        <path id="Tracé_7052" data-name="Tracé 7052" d="M20.406,251.216a29.048,29.048,0,0,1-3.258-1.684,33.885,33.885,0,0,1-3.091-1.962s-.038,0-.023.027A26.331,26.331,0,0,0,17,249.676a30.419,30.419,0,0,0,3.365,1.612c.046.019.084-.049.038-.072" transform="translate(-8.696 -153.446)" fill="#263238"/>
        <path id="Tracé_7053" data-name="Tracé 7053" d="M34.4,232.4c-.091-.357-.2-.707-.323-1.053a.031.031,0,0,0,0-.042c-.076-.2-.16-.38-.24-.589a.713.713,0,0,0-.027-.072l-.046-.11H33.74c.023.068.038.137.061.205s0,.072.034.11a29.372,29.372,0,0,1,.909,4.182.036.036,0,0,0,.072,0A13.869,13.869,0,0,0,34.4,232.4" transform="translate(-20.912 -142.884)" fill="#263238"/>
        <path id="Tracé_7054" data-name="Tracé 7054" d="M34.77,357.08l.365,5.186,1.122,15.812H48.274L49.4,362.266l.365-5.186Z" transform="translate(-21.551 -221.321)" fill="#455a64"/>
        <path id="Tracé_7055" data-name="Tracé 7055" d="M34.77,357.08l.278,3.954L49.4,362.266l.365-5.186Z" transform="translate(-21.551 -221.321)" fill="#263238"/>
        <rect id="Rectangle_4723" data-name="Rectangle 4723" width="17.352" height="3.867" transform="translate(12.037 134.786)" fill="#455a64"/>
      </g>
    </g>
  </g>
</svg>
