<svg id="Groupe_545" data-name="Groupe 545" xmlns="http://www.w3.org/2000/svg" xmlns:xlink="http://www.w3.org/1999/xlink" width="178.245" height="169.135" viewBox="0 0 178.245 169.135">
  <defs>
    <clipPath id="clip-path">
      <rect id="Rectangle_2754" data-name="Rectangle 2754" width="178.245" height="169.135" fill="none"/>
    </clipPath>
    <clipPath id="clip-path-3">
      <path id="Tracé_4159" data-name="Tracé 4159" d="M134.147,102.961a10.335,10.335,0,1,0,10.335-10.335,10.334,10.334,0,0,0-10.335,10.335" transform="translate(-134.147 -92.626)" fill="none"/>
    </clipPath>
    <clipPath id="clip-path-4">
      <rect id="Rectangle_2749" data-name="Rectangle 2749" width="4.117" height="6.855" fill="none"/>
    </clipPath>
    <clipPath id="clip-path-5">
      <rect id="Rectangle_2750" data-name="Rectangle 2750" width="9.903" height="9.903" fill="none"/>
    </clipPath>
  </defs>
  <g id="Groupe_544" data-name="Groupe 544" clip-path="url(#clip-path)">
    <g id="Groupe_533" data-name="Groupe 533">
      <g id="Groupe_532" data-name="Groupe 532" clip-path="url(#clip-path)">
        <path id="Tracé_3983" data-name="Tracé 3983" d="M173.846,114.042l5.35-.108,2.636-.048h2.624l-.184.176-.02-4.479.2.2-5.3-.024c-1.771,0-3.537-.044-5.3-.064l.108-.108c0,.733-.036,1.47-.052,2.214Zm0,0-.06-2.214c0-.749-.044-1.506-.052-2.264v-.108h.113c1.766,0,3.534-.064,5.3-.064l5.3-.024h.2v.2l-.024,4.479v.184h-.176c-.9,0-1.79,0-2.684-.02l-2.68-.056Z" transform="translate(-13.486 -8.489)" fill="#e6e6e6"/>
        <path id="Tracé_3984" data-name="Tracé 3984" d="M180.261,120.158l5.35-.108,2.636-.048c.877,0,1.753,0,2.624-.02l-.184.176v-4.479l.2.2-5.3-.024c-1.771,0-3.537-.044-5.3-.065l.108-.108c0,.733-.036,1.47-.052,2.214Zm0,0-.056-2.214c-.02-.749-.048-1.506-.056-2.264v-.108h.113c1.766-.02,3.534-.065,5.3-.065l5.3-.024h.2v.2l-.024,4.471v.184h-.176c-.894,0-1.79,0-2.684-.02l-2.668-.048Z" transform="translate(-13.983 -8.964)" fill="#e6e6e6"/>
        <rect id="Rectangle_2700" data-name="Rectangle 2700" width="10.608" height="4.483" transform="translate(154.418 106.726)" fill="#e6e6e6"/>
        <path id="Tracé_3985" data-name="Tracé 3985" d="M16.15,144.363l5.336-.108,2.628-.048h2.612l-.176.176-.024-4.467.2.2-5.306-.052c-1.763,0-3.525-.048-5.288-.068l.108-.108c0,.729-.032,1.467-.052,2.214Zm0,0-.056-2.207c-.02-.749-.044-1.5-.052-2.26v-.108h.108c1.763-.024,3.525-.064,5.288-.068l5.288-.024h.2v4.847h-.175c-.889,0-1.783,0-2.675-.02l-2.684-.052Z" transform="translate(-1.245 -10.843)" fill="#e6e6e6"/>
        <rect id="Rectangle_2701" data-name="Rectangle 2701" width="10.576" height="4.471" transform="translate(20.807 134.686)" fill="#e6e6e6"/>
        <path id="Tracé_3986" data-name="Tracé 3986" d="M45.953,46.692l5.35-.113,2.636-.044c.873-.02,1.747,0,2.62-.02l-.176.176-.024-4.483.2.2-5.3-.024c-1.766,0-3.537-.044-5.3-.068l.108-.108c0,.733-.032,1.476-.052,2.219Zm0,0L45.9,44.478c0-.749-.044-1.506-.052-2.267V42.1h.108c1.766-.02,3.537-.065,5.3-.065l5.3-.028h.2v.2l-.02,4.483v.184H56.56c-.894,0-1.79,0-2.68-.024L51.21,46.8Z" transform="translate(-3.559 -3.261)" fill="#e6e6e6"/>
        <rect id="Rectangle_2702" data-name="Rectangle 2702" width="10.608" height="4.483" transform="translate(20.771 0.2)" fill="#e6e6e6"/>
        <path id="Tracé_3987" data-name="Tracé 3987" d="M16.1,10.811l5.35-.1,2.636-.044h2.624l-.184.176V6.36l.2.2L21.416,6.5c-1.771,0-3.537-.044-5.3-.068l.108-.108c0,.733-.036,1.47-.052,2.219Zm0,0L16.039,8.6c0-.749-.044-1.506-.052-2.267V6.22H16.1c1.766,0,3.534-.064,5.3-.068l5.3-.024h.2v.2l-.024,4.483V11h-.176c-.9,0-1.79,0-2.684-.024l-2.668-.044Z" transform="translate(-1.241 -0.476)" fill="#e6e6e6"/>
        <path id="Tracé_3988" data-name="Tracé 3988" d="M173.846,4.683l5.35-.113,2.636-.044h2.624l-.184.176L184.251.22l.2.2L179.147.4c-1.771,0-3.537-.044-5.3-.068l.108-.108c0,.733-.036,1.47-.052,2.219Zm0,0-.06-2.214c0-.749-.044-1.506-.052-2.267V.092h.113c1.766,0,3.534-.064,5.3-.068l5.3-.024h.2V.22L184.632,4.7v.184h-.176c-.9,0-1.79,0-2.684-.024l-2.68-.064Z" transform="translate(-13.486)" fill="#e6e6e6"/>
        <rect id="Rectangle_2703" data-name="Rectangle 2703" width="10.608" height="4.483" transform="translate(143.589 56.26)" fill="#e6e6e6"/>
        <rect id="Rectangle_2704" data-name="Rectangle 2704" width="57.718" height="76.259" transform="translate(119.8 0.2)" fill="#e6e6e6"/>
        <rect id="Rectangle_2705" data-name="Rectangle 2705" width="24.995" height="33.92" transform="translate(149.811 3.253)" fill="#fff"/>
        <rect id="Rectangle_2706" data-name="Rectangle 2706" width="24.995" height="33.92" transform="translate(122.505 3.253)" fill="#fff"/>
        <rect id="Rectangle_2707" data-name="Rectangle 2707" width="24.995" height="33.92" transform="translate(149.811 39.481)" fill="#fff"/>
        <rect id="Rectangle_2708" data-name="Rectangle 2708" width="24.995" height="33.92" transform="translate(122.505 39.481)" fill="#fff"/>
        <path id="Tracé_3989" data-name="Tracé 3989" d="M149.164.217H129.878v109.1h11.161L133.251,53.8Z" transform="translate(-10.081 -0.017)" fill="#d3d3d3"/>
        <path id="Tracé_3990" data-name="Tracé 3990" d="M146.088,3.414,143.04,16.1l-3.108,12.668L133.709,54.1v-.068L136.586,80.5l1.434,13.236,1.37,13.244-1.568-13.22-1.506-13.229-3.005-26.461v-.036l.008-.036,6.354-25.3,3.177-12.651Z" transform="translate(-10.348 -0.265)" fill="#e6e6e6"/>
        <path id="Tracé_3991" data-name="Tracé 3991" d="M131.107,5.842l.092,10.941.056,10.941.048,21.882-.048,21.882L131.2,82.429l-.092,10.941-.1-10.941-.056-10.941-.044-21.882.044-21.882.056-10.941Z" transform="translate(-10.161 -0.453)" fill="#e6e6e6"/>
        <path id="Tracé_3992" data-name="Tracé 3992" d="M134.782,8.066l-.588,11.63-.629,11.622L132.246,54.57v-.016l.641,25.912.277,12.952.236,12.96-.441-12.952-.4-12.952-.713-25.909v-.016l1.414-23.244L134,19.685Z" transform="translate(-10.234 -0.626)" fill="#e6e6e6"/>
        <path id="Tracé_3993" data-name="Tracé 3993" d="M137.344,105.316l-1.27-12.552-1.23-12.555c-.781-8.373-1.6-16.746-2.352-25.123v-.052l3.582-19.546,1.819-9.771,1.845-9.763-1.681,9.795-1.711,9.791-3.477,19.566v-.048c.8,8.369,1.539,16.75,2.311,25.123l1.1,12.567Z" transform="translate(-10.284 -1.238)" fill="#e6e6e6"/>
        <rect id="Rectangle_2709" data-name="Rectangle 2709" width="4.355" height="2.544" transform="translate(119.8 52.87)" fill="#d3d3d3"/>
        <path id="Tracé_3994" data-name="Tracé 3994" d="M171.5.217h19.286v109.1H179.621L187.413,53.8Z" transform="translate(-13.312 -0.017)" fill="#d3d3d3"/>
        <path id="Tracé_3995" data-name="Tracé 3995" d="M175.118,3.414l3.237,12.637L181.531,28.7,187.885,54l.008.036v.036l-3.005,26.461-1.506,13.229-1.568,13.22,1.37-13.244L184.622,80.5l2.872-26.472V54.1l-6.215-25.333L178.171,16.1Z" transform="translate(-13.593 -0.265)" fill="#e6e6e6"/>
        <path id="Tracé_3996" data-name="Tracé 3996" d="M191.141,5.842l.1,10.941.056,10.941.044,21.882L191.3,71.488l-.056,10.941-.1,10.941-.092-10.941-.056-10.941-.044-21.882.044-21.882.056-10.941Z" transform="translate(-14.822 -0.453)" fill="#e6e6e6"/>
        <path id="Tracé_3997" data-name="Tracé 3997" d="M187.254,8.066l.778,11.622.738,11.622,1.414,23.244v.016l-.713,25.909-.4,12.952-.436,12.952.236-12.96.277-12.952.641-25.912v.016l-1.32-23.251L187.846,19.7Z" transform="translate(-14.535 -0.626)" fill="#e6e6e6"/>
        <path id="Tracé_3998" data-name="Tracé 3998" d="M184.33,105.316l1.062-12.571L186.5,80.177C187.268,71.8,188,63.423,188.8,55.054V55.1l-3.469-19.566-1.711-9.787-1.682-9.8,1.851,9.763,1.819,9.771,3.578,19.546v.052c-.754,8.377-1.568,16.75-2.356,25.123L185.6,92.764Z" transform="translate(-14.123 -1.238)" fill="#e6e6e6"/>
        <rect id="Rectangle_2710" data-name="Rectangle 2710" width="4.355" height="2.544" transform="translate(173.116 52.87)" fill="#d3d3d3"/>
        <rect id="Rectangle_2711" data-name="Rectangle 2711" width="22.619" height="27.439" transform="translate(18.342 10.448)" fill="#e6e6e6"/>
        <rect id="Rectangle_2712" data-name="Rectangle 2712" width="17.451" height="22.431" transform="translate(20.927 12.952)" fill="#fff"/>
        <rect id="Rectangle_2713" data-name="Rectangle 2713" width="0.681" height="22.431" transform="translate(20.927 12.952)" fill="#d3d3d3"/>
        <rect id="Rectangle_2714" data-name="Rectangle 2714" width="0.681" height="27.439" transform="translate(40.962 10.448)" fill="#d3d3d3"/>
        <rect id="Rectangle_2715" data-name="Rectangle 2715" width="4.115" height="12.259" transform="translate(26.776 16.045)" fill="#d3d3d3"/>
        <path id="Tracé_3999" data-name="Tracé 3999" d="M38.235,32.631H26.866v-6.41H38.235Zm-10.969-.4H37.835V26.621H27.266Z" transform="translate(-2.085 -2.035)" fill="#e6e6e6"/>
        <rect id="Rectangle_2716" data-name="Rectangle 2716" width="22.619" height="27.439" transform="translate(39.167 44.542)" fill="#e6e6e6"/>
        <rect id="Rectangle_2717" data-name="Rectangle 2717" width="17.451" height="22.431" transform="translate(41.751 47.045)" fill="#fff"/>
        <rect id="Rectangle_2718" data-name="Rectangle 2718" width="0.681" height="22.431" transform="translate(41.751 47.045)" fill="#d3d3d3"/>
        <rect id="Rectangle_2719" data-name="Rectangle 2719" width="0.681" height="27.439" transform="translate(61.786 44.542)" fill="#d3d3d3"/>
        <rect id="Rectangle_2720" data-name="Rectangle 2720" width="3.525" height="8.914" transform="translate(48.786 52.846)" fill="#e6e6e6"/>
        <path id="Tracé_4000" data-name="Tracé 4000" d="M60.135,69.49h-9.88V62.948h9.88Zm-9.471-.4h9.07V63.349H50.655Z" transform="translate(-3.901 -4.886)" fill="#d3d3d3"/>
        <path id="Tracé_4001" data-name="Tracé 4001" d="M52.2,175.316c21.413,0,38.772,1.663,38.772,3.713s-17.359,3.714-38.772,3.714-38.772-1.663-38.772-3.714,17.359-3.713,38.772-3.713" transform="translate(-1.042 -13.608)" fill="#e6e6e6"/>
        <path id="Tracé_4002" data-name="Tracé 4002" d="M14.687,170.217l20.588-.092,20.588-.036,41.172-.068,41.172.068,20.588.036,20.588.092-20.588.1-20.588.036-41.172.065-41.172-.065-20.588-.036Z" transform="translate(-1.14 -13.197)" fill="#1c262b"/>
        <path id="Tracé_4003" data-name="Tracé 4003" d="M170.678,131.068s-3.657-5.609-11.851-4.52c-7.784,1.038-12.627,14.675-5.084,17.079s7.409-10.656,10.413-12.593a6.691,6.691,0,0,1,6.522.034" transform="translate(-11.641 -9.812)" fill="#2a944b"/>
        <path id="Tracé_4004" data-name="Tracé 4004" d="M152.075,133.666a16.109,16.109,0,0,1,1.771-1.107,7.272,7.272,0,0,1,1.845-.709,10.138,10.138,0,0,1,3.782-2.952l-.236-.036a12.364,12.364,0,0,0-1.278-.108,7.142,7.142,0,0,0-2.532.4.038.038,0,0,1-.048-.024.037.037,0,0,1,.024-.048,11.211,11.211,0,0,1,2.54-.509,7.392,7.392,0,0,1,1.262,0c.224.024.449.06.669.1l.128.024a10.943,10.943,0,0,1,2.4-.633l-.217-.08a10.846,10.846,0,0,0-1.17-.308,9.3,9.3,0,0,0-2.4-.184.04.04,0,0,1-.04-.041.039.039,0,0,1,.04-.04,15.471,15.471,0,0,1,2.436.132,10.211,10.211,0,0,1,2,.453,11.26,11.26,0,0,1,1.476-.028,9.063,9.063,0,0,1,7.255,3.942c1.5,2.46,1.551,5.561,1.6,8.365a61.93,61.93,0,0,1-.8,11.682c-.04.229-.357.156-.34-.065.2-3.3.4-6.611.4-9.924,0-1.534-.02-3.077-.128-4.607a13.6,13.6,0,0,0-.749-3.854,6.929,6.929,0,0,0-2.431-3.165,9.19,9.19,0,0,0-3.722-1.542,10.427,10.427,0,0,0-3.606,0,2.5,2.5,0,0,1-.048.713,3.767,3.767,0,0,1-.26.857,4.672,4.672,0,0,1-.4.745c-.172.265-.4.493-.573.738a.039.039,0,0,1-.066-.04l.006-.008a3.672,3.672,0,0,0,.773-1.522,6.812,6.812,0,0,0,.172-.8c.032-.2.032-.4.06-.617A10.664,10.664,0,0,0,158,130.385c-.212.14-.4.284-.613.436a4.075,4.075,0,0,1,.6.9,8.455,8.455,0,0,1,.593,1.338,10.969,10.969,0,0,1,.4,2.848.039.039,0,0,1-.04.04.04.04,0,0,1-.041-.04,8.061,8.061,0,0,0-.661-2.728,10.807,10.807,0,0,0-.6-1.242c-.116-.208-.241-.4-.369-.609-.068-.108-.144-.217-.208-.328a11.165,11.165,0,0,0-2.583,2.985,5.515,5.515,0,0,1,.8,1.438,12.745,12.745,0,0,1,.6,1.679,26.619,26.619,0,0,1,.646,3.357.038.038,0,0,1-.077,0,13.628,13.628,0,0,0-.83-3.329c-.192-.525-.4-1.041-.621-1.554a14.322,14.322,0,0,1-.617-1.476,10.4,10.4,0,0,0-1.27,3.626c0,.048-.084.036-.077,0a13.06,13.06,0,0,1,2.344-5.529c-.513.16-1.022.316-1.518.525a8.164,8.164,0,0,0-1.778,1.015c0,.024-.047-.048,0-.073" transform="translate(-11.803 -9.89)" fill="#1c262b"/>
        <path id="Tracé_4005" data-name="Tracé 4005" d="M158.415,135.113c.164.8.4,1.6.537,2.431a9.211,9.211,0,0,1,.128,2.4c0,.02-.036.02-.036,0a22.872,22.872,0,0,0-.7-4.807.042.042,0,0,1,.024-.053.041.041,0,0,1,.053.025Z" transform="translate(-12.29 -10.486)" fill="#1c262b"/>
        <path id="Tracé_4006" data-name="Tracé 4006" d="M153.117,132.386a4.419,4.419,0,0,1,1.134-.657,7.875,7.875,0,0,1,1.274-.32.038.038,0,1,1,0,.076,4.992,4.992,0,0,0-1.23.376,9.355,9.355,0,0,0-1.15.564.025.025,0,0,1-.034-.006.024.024,0,0,1,.006-.033" transform="translate(-11.884 -10.2)" fill="#1c262b"/>
        <path id="Tracé_4007" data-name="Tracé 4007" d="M166.89,123.291s-.769-9.418-7.772-12.471c-5.849-2.552-9.215,4.006-5.064,8.044,3.333,3.254,8.709,1.788,12.836,4.427" transform="translate(-11.815 -8.557)" fill="#2a944b"/>
        <path id="Tracé_4008" data-name="Tracé 4008" d="M155.612,112.784a29.808,29.808,0,0,1,3.113,1.476,23.256,23.256,0,0,1,2.4,1.6c-.116-.236-.217-.489-.337-.721-.184-.369-.376-.717-.593-1.065a10.1,10.1,0,0,0-1.542-1.951.038.038,0,1,1,.056-.052,15.61,15.61,0,0,1,1.622,1.891,10.761,10.761,0,0,1,.665,1.065,4.113,4.113,0,0,1,.469,1.082l.08.06a23.065,23.065,0,0,1,3.345,3.269c-.02-.092-.04-.184-.064-.268-.132-.461-.277-.913-.424-1.37a11.52,11.52,0,0,0-1.265-2.744.04.04,0,0,1,.068-.04,22.009,22.009,0,0,1,1.467,2.68,10.648,10.648,0,0,1,.485,1.394,5.837,5.837,0,0,1,.229.945c.3.4.605.778.885,1.178a28.949,28.949,0,0,1,4.879,14.639,44.743,44.743,0,0,1,.077,4.64,29.306,29.306,0,0,1-.4,4.659c-.02.092-.172.068-.168-.028.032-1.362.176-2.716.2-4.079a39.829,39.829,0,0,0-.132-4.091,38.207,38.207,0,0,0-1.527-8.013,28.714,28.714,0,0,0-3.542-7.536c-.3-.056-.588-.137-.877-.212l-1.05-.277a10.636,10.636,0,0,1-1.951-.717.037.037,0,0,1-.018-.05.038.038,0,0,1,.05-.019l.008.006a6.31,6.31,0,0,0,1.979.681c.553.108,1.118.184,1.667.308a25.465,25.465,0,0,0-1.626-2.144,12.009,12.009,0,0,1-3.987-.3,16.606,16.606,0,0,1-2.039-.633c-.7-.277-1.366-.617-2.055-.909-.052-.02,0-.092.028-.068a11.772,11.772,0,0,0,4.042,1.322,24.852,24.852,0,0,0,3.782.313c-.5-.573-1.015-1.125-1.563-1.65a18.248,18.248,0,0,0-6.446-4.2c-.067-.019-.044-.1,0-.078" transform="translate(-12.075 -8.698)" fill="#1c262b"/>
        <path id="Tracé_4009" data-name="Tracé 4009" d="M161.787,112.874a11.149,11.149,0,0,1,.861,1.258,7.123,7.123,0,0,1,.617,1.462s-.02.024-.028,0c-.236-.461-.433-.942-.669-1.4a6.706,6.706,0,0,0-.838-1.274c-.029-.032.028-.084.055-.048" transform="translate(-12.553 -8.761)" fill="#1c262b"/>
        <path id="Tracé_4010" data-name="Tracé 4010" d="M154.729,116.276a7.16,7.16,0,0,0,1.434.6,13.379,13.379,0,0,0,1.462.4c.024,0,.02.044,0,.04a6.977,6.977,0,0,1-1.515-.333,12.194,12.194,0,0,1-1.419-.633c-.047-.031-.007-.1.037-.075" transform="translate(-12.006 -9.025)" fill="#1c262b"/>
        <path id="Tracé_4011" data-name="Tracé 4011" d="M173.592,120.869a16.9,16.9,0,0,1,6.979-6.811c5.38-3.084,11.8-11.113,6.526-16.181-4.258-4.1-15.471,4.812-13.5,22.992" transform="translate(-13.457 -7.521)" fill="#2a944b"/>
        <path id="Tracé_4012" data-name="Tracé 4012" d="M169.186,143.073a105.035,105.035,0,0,1,.942-11.911,53.773,53.773,0,0,1,2.5-10.656c.441-1.246.945-2.468,1.491-3.678a8.632,8.632,0,0,1,.024-1.407c.032-.605.084-1.2.14-1.807s.116-1.2.184-1.8.2-1.2.224-1.795c0-.056.092-.044.077,0a12.6,12.6,0,0,0-.212,1.907c-.048.581-.08,1.162-.1,1.742s0,1.166,0,1.753v.657q.83-1.767,1.8-3.465a20.644,20.644,0,0,1,.621-7.42c0-.048.084-.028.072.02a20.926,20.926,0,0,0-.4,3.806c-.024,1.01.024,2,.028,3.024.14-.241.284-.484.429-.721.769-1.254,1.6-2.484,2.46-3.678a5.663,5.663,0,0,1,.056-1.747,14.147,14.147,0,0,1,.429-1.915,19.231,19.231,0,0,1,.657-1.845c.256-.605.6-1.2.845-1.839.02-.052.1,0,.068.032a9.227,9.227,0,0,0-.738,1.859,18.207,18.207,0,0,0-.485,1.845c-.125.621-.224,1.246-.313,1.879-.06.4-.092.846-.168,1.266a45.755,45.755,0,0,1,4.151-4.807.038.038,0,1,1,.052.056,54.53,54.53,0,0,0-6.009,8.189c-.068.108-.128.22-.192.333.328-.208.7-.369,1.01-.541.573-.316,1.146-.633,1.727-.945l1.675-.918c.289-.16.573-.328.865-.477a6.789,6.789,0,0,0,1-.553.039.039,0,1,1,.044.065c-.569.313-1.074.778-1.622,1.13s-1.113.693-1.691,1.015c-1.053.585-2.2,1.01-3.233,1.6-.717,1.258-1.378,2.552-2,3.866.629-.4,1.27-.8,1.923-1.15.421-.236.841-.469,1.266-.693a6.234,6.234,0,0,0,1.2-.721c.036-.032.092.024.052.056a11.055,11.055,0,0,1-2.276,1.583c-.761.445-1.53.873-2.32,1.262-.633,1.384-1.2,2.8-1.715,4.243-2.49,7.059-3.413,14.551-3.846,21.99-.128,2.219-.2,4.435-.224,6.659s.092,4.435.084,6.65a.058.058,0,1,1-.116,0c-.268-1.967-.313-3.966-.4-5.949s-.077-4.034-.032-6.047" transform="translate(-13.13 -7.783)" fill="#1c262b"/>
        <path id="Tracé_4013" data-name="Tracé 4013" d="M180.842,111.737a28.4,28.4,0,0,0,3.145-1.626,33.583,33.583,0,0,0,2.988-1.895s.036,0,.02.024a24.379,24.379,0,0,1-2.869,2,28.075,28.075,0,0,1-3.249,1.559c-.037.022-.073-.045-.037-.065" transform="translate(-14.036 -8.4)" fill="#1c262b"/>
        <path id="Tracé_4014" data-name="Tracé 4014" d="M178.962,103.233c.084-.345.2-.685.308-1.015a.032.032,0,0,1,0-.04c.072-.192.152-.381.229-.569l.028-.068a.837.837,0,0,0,.044-.113h.02s-.036.132-.056.2a1.048,1.048,0,0,1-.032.108,27.651,27.651,0,0,0-.877,4.006c0,.04-.072.044-.072,0a13.478,13.478,0,0,1,.409-2.506" transform="translate(-13.86 -7.873)" fill="#1c262b"/>
        <path id="Tracé_4015" data-name="Tracé 4015" d="M172.455,133.149c2.063-6.41,6.727-10.216,12.724-9.334s8.032,8.774,4.026,11.4-9.146-2.668-11.586-3.558-5.164,1.491-5.164,1.491" transform="translate(-13.386 -9.601)" fill="#2a944b"/>
        <path id="Tracé_4016" data-name="Tracé 4016" d="M171.784,149.629c-.092-.725-.16-1.45-.241-2.18-.152-1.45-.313-2.9-.461-4.351a20.111,20.111,0,0,1,.4-7.872,11.985,11.985,0,0,1,3.866-6.009,9.915,9.915,0,0,1,2.284-1.4,5.761,5.761,0,0,1,2.616-1.963,11.7,11.7,0,0,1,4.034-.677.038.038,0,1,1,0,.077,9.8,9.8,0,0,0-3.79.8,7.9,7.9,0,0,0-1.458.821,6.985,6.985,0,0,0-.8.693,8.348,8.348,0,0,1,3.522-.469,7.542,7.542,0,0,1,1.274.229,3.608,3.608,0,0,1,.949-.216,5.623,5.623,0,0,1,1.27,0,9.491,9.491,0,0,1,2.516.693.039.039,0,0,1,.014.054.04.04,0,0,1-.046.018,8.881,8.881,0,0,0-2.439-.541,7.652,7.652,0,0,0-1.2,0,5.157,5.157,0,0,0-.661.1,7.716,7.716,0,0,1,4.25,3.173c.024.044-.036.092-.064.048a7.058,7.058,0,0,0-5.281-3.125,2.765,2.765,0,0,1-.4-.02,5.262,5.262,0,0,1,.137.605c.08.284.172.569.277.85a14.574,14.574,0,0,0,.717,1.687,13.635,13.635,0,0,0,.937,1.6,8.323,8.323,0,0,0,1.2,1.506c.04.036-.02.092-.056.052-.421-.493-.9-.933-1.291-1.45a12.392,12.392,0,0,1-1.022-1.563,11.937,11.937,0,0,1-.769-1.727c-.108-.313-.2-.633-.289-.954a2.286,2.286,0,0,1-.12-.588,7.887,7.887,0,0,0-2.051.248,11.258,11.258,0,0,0,1.927,3.975c.032.036-.032.092-.064.044a16.48,16.48,0,0,1-1.278-1.9,7.756,7.756,0,0,1-.8-2.059,9.434,9.434,0,0,0-3.205,1.6A11.215,11.215,0,0,0,172.389,135a18.654,18.654,0,0,0-.661,7.287c.244,3.093.646,6.18.773,9.283,0,.2-.3.313-.369.092a10.952,10.952,0,0,1-.348-2.036" transform="translate(-13.263 -9.717)" fill="#1c262b"/>
        <path id="Tracé_4017" data-name="Tracé 4017" d="M176.065,128.789a3.362,3.362,0,0,1,.576-.7,8.871,8.871,0,0,1,.661-.669,5.46,5.46,0,0,1,1.547-1.005.039.039,0,0,1,.028.072,4.372,4.372,0,0,0-1.518,1.034q-.328.325-.625.673a4.405,4.405,0,0,1-.588.661c-.024.03-.08-.014-.08-.062" transform="translate(-13.666 -9.812)" fill="#1c262b"/>
        <path id="Tracé_4018" data-name="Tracé 4018" d="M186.507,129.9a17.483,17.483,0,0,1,1.6,1.578,10.892,10.892,0,0,1,1.278,1.831c0,.02,0,.036-.032.02a24.122,24.122,0,0,0-2.881-3.369c-.053-.032.012-.092.032-.06" transform="translate(-14.473 -10.083)" fill="#1c262b"/>
        <path id="Tracé_4019" data-name="Tracé 4019" d="M179.616,130.229a4.276,4.276,0,0,0,.485,1.038,6.94,6.94,0,0,0,.693.882c0,.02,0,.044-.032.032a3.959,3.959,0,0,1-1.2-1.923c-.021-.044.034-.08.053-.029" transform="translate(-13.938 -10.107)" fill="#1c262b"/>
        <path id="Tracé_4020" data-name="Tracé 4020" d="M162.409,148.226l.421,5.008,1.291,15.276h13.858l1.291-15.276.424-5.008Z" transform="translate(-12.606 -11.506)" fill="#354952"/>
        <path id="Tracé_4021" data-name="Tracé 4021" d="M162.409,148.226l.421,5.008h16.441l.424-5.008Z" transform="translate(-12.606 -11.506)" fill="#1c262b"/>
        <rect id="Rectangle_2721" data-name="Rectangle 2721" width="20.007" height="4.804" transform="translate(148.44 134.712)" fill="#354952"/>
        <path id="Tracé_4022" data-name="Tracé 4022" d="M134.4,3.761h-67.7A6.918,6.918,0,0,0,59.84,10.74V150.156a6.918,6.918,0,0,0,6.836,7h67.705a6.923,6.923,0,0,0,6.862-6.979V10.762a6.918,6.918,0,0,0-6.836-7H134.4Zm2.576,142.089a6.4,6.4,0,0,1-6.137,6.641H70.249A6.4,6.4,0,0,1,64.1,145.85V16.024c0-7.471,2.744-7.84,6.146-7.84H82.384c.7,0,1.282.8,1.282,1.795v.429c0,2.327,1.274,2.335,2.84,2.335h28.04c1.6,0,2.84,0,2.84-2.335V9.979c0-.993.569-1.795,1.291-1.795h12.135c3.389,0,6.137.993,6.137,7.84Z" transform="translate(-4.645 -0.292)" fill="#1c262b"/>
        <path id="Tracé_4023" data-name="Tracé 4023" d="M107.429,10.266H99.773a.473.473,0,0,1,0-.946h7.656a.472.472,0,0,1,.472.472h0a.473.473,0,0,1-.472.473" transform="translate(-7.708 -0.723)" fill="#fff"/>
        <path id="Tracé_4024" data-name="Tracé 4024" d="M137.33,16.4V146.221a6.4,6.4,0,0,1-6.137,6.641H70.607a6.4,6.4,0,0,1-6.146-6.641V16.4c0-7.471,2.744-7.84,6.146-7.84H82.742c.7,0,1.282.8,1.282,1.795v.429c0,2.327,1.274,2.335,2.84,2.335H114.9c1.6,0,2.84,0,2.84-2.335v-.425c0-.993.569-1.795,1.291-1.795h12.135c3.412,0,6.16.99,6.16,7.837" transform="translate(-5.003 -0.664)" fill="#fff"/>
        <path id="Tracé_4025" data-name="Tracé 4025" d="M139.782,9.693H122.355a1.37,1.37,0,0,1,1.2-1.13H135.7a5.951,5.951,0,0,1,4.085,1.13" transform="translate(-9.497 -0.663)" fill="#d3d3d3"/>
        <path id="Tracé_4026" data-name="Tracé 4026" d="M64.462,141.933H70.5v-1.727H64.462ZM137.33,33.316l-19.6,20.777h-9.022V36.924h3.58V35.185h-5.324V54.094H97.186V13.5H93.717V25.661H64.47v3.469H93.716V54.094H65.375V60.9h-.913v1.739h.913v25.8l5.208,11.931H64.462v3.469H72.11l4.082,9.331a12.347,12.347,0,0,0,3.922,23.637L88.6,150.7l-2.56,2.56h8.2L84.006,136.547a12.354,12.354,0,0,0,9.124-14.9,12.163,12.163,0,0,0-.463-1.5l24.213-11.518h20.432v-3.465h-9.685l-20.321-22.1h30.014V81.328H105.706L83.846,57.563H119.2l11.947-12.668,6.17,6.17v-4.9l-3.782-3.782,3.782-4.006ZM81.116,133.409a8.894,8.894,0,1,1,8.89-8.9v0a8.894,8.894,0,0,1-8.89,8.893m41.817-28.264h-6.811L90.991,117.089a12.377,12.377,0,0,0-9.875-4.927,13.058,13.058,0,0,0-1.542.092L68.849,87.723V57.561h10.3Zm2.583,48.1h2.453l9.374-9.379v-2.46Z" transform="translate(-5.004 -1.048)" fill="#e6e6e6"/>
        <rect id="Rectangle_2722" data-name="Rectangle 2722" width="5.044" height="5.044" transform="translate(66.814 59.144)" fill="#d3d3d3"/>
        <path id="Tracé_4027" data-name="Tracé 4027" d="M128.416,83.92V74.185h-3.542v-4.07h-6.237V83.92Z" transform="translate(-9.209 -5.442)" fill="#d3d3d3"/>
        <path id="Tracé_4028" data-name="Tracé 4028" d="M109.8,13.5V23.29h-5.281V17.329h-2.859V13.5Z" transform="translate(-7.891 -1.048)" fill="#d3d3d3"/>
        <path id="Tracé_4029" data-name="Tracé 4029" d="M143.093,16.621V20h-4.407V11.5h3.549a12.22,12.22,0,0,1,.858,5.12" transform="translate(-10.765 -0.893)" fill="#d3d3d3"/>
        <path id="Tracé_4030" data-name="Tracé 4030" d="M113.907,55.307V48.068h13.568L120.147,55.4Z" transform="translate(-8.842 -3.731)" fill="#d3d3d3"/>
        <rect id="Rectangle_2723" data-name="Rectangle 2723" width="6.815" height="6.815" transform="translate(93.78 44.85)" fill="#d3d3d3"/>
        <rect id="Rectangle_2724" data-name="Rectangle 2724" width="8.209" height="7.552" transform="translate(78.873 29.441)" fill="#d3d3d3"/>
        <path id="Tracé_4031" data-name="Tracé 4031" d="M93.031,41.713V54.9H82.986l-6.4-6.4V41.713Z" transform="translate(-5.945 -3.238)" fill="#d3d3d3"/>
        <path id="Tracé_4032" data-name="Tracé 4032" d="M73.912,50.648l5.044,5.044H65.5V50.648Z" transform="translate(-5.084 -3.931)" fill="#d3d3d3"/>
        <path id="Tracé_4033" data-name="Tracé 4033" d="M73.111,119.227H64.462v-6.074h6.2Z" transform="translate(-5.004 -8.783)" fill="#d3d3d3"/>
        <path id="Tracé_4034" data-name="Tracé 4034" d="M70.755,144.27v2.917H64.462V134.214H66.18a18.739,18.739,0,0,0,4.575,10.056" transform="translate(-5.004 -10.418)" fill="#d3d3d3"/>
        <path id="Tracé_4035" data-name="Tracé 4035" d="M102.058,116.837l-5.276-11.4h-6.41L79.4,110.531l2.869,6.262h.024A14.824,14.824,0,0,1,92.7,121.055Z" transform="translate(-6.163 -8.184)" fill="#d3d3d3"/>
        <path id="Tracé_4036" data-name="Tracé 4036" d="M142.183,102.408v7.564h-8.253l-6.963-7.564Z" transform="translate(-9.855 -7.949)" fill="#d3d3d3"/>
        <path id="Tracé_4037" data-name="Tracé 4037" d="M85.9,160.549l-3.021,3.205H71.01a5.91,5.91,0,0,1-1.31-.152V160h5.136v-7.948l3.866-3.253Z" transform="translate(-5.41 -11.55)" fill="#d3d3d3"/>
        <path id="Tracé_4038" data-name="Tracé 4038" d="M111.929,146.131l-10.416-10.857-4.006,3.12a15.087,15.087,0,0,1-7.379,8.894l8.705,14.23Z" transform="translate(-6.996 -10.5)" fill="#d3d3d3"/>
        <path id="Tracé_4039" data-name="Tracé 4039" d="M101.468,129.34l18.288-9.039h9.122v15.9l-14.222,7.023Z" transform="translate(-7.876 -9.338)" fill="#d3d3d3"/>
        <path id="Tracé_4040" data-name="Tracé 4040" d="M142.927,158.124A6.465,6.465,0,0,1,137.7,164.4h-1.046Z" transform="translate(-10.607 -12.274)" fill="#d3d3d3"/>
        <path id="Tracé_4041" data-name="Tracé 4041" d="M72.437,71.869V91.856L78.013,105.5l10.176-5.044h23.736L85.308,71.869Z" transform="translate(-5.623 -5.579)" fill="#2a944b"/>
        <path id="Tracé_4042" data-name="Tracé 4042" d="M133.541,40.875H113.907v4.92h15Z" transform="translate(-8.842 -3.173)" fill="#d3d3d3"/>
        <path id="Tracé_4043" data-name="Tracé 4043" d="M67.967,105.234H64.462V97.117Z" transform="translate(-5.004 -7.538)" fill="#d3d3d3"/>
        <rect id="Rectangle_2725" data-name="Rectangle 2725" width="8.798" height="10.4" transform="translate(123.53 110.96)" fill="#d3d3d3"/>
        <rect id="Rectangle_2726" data-name="Rectangle 2726" width="8.798" height="3.65" transform="translate(123.53 122.983)" fill="#d3d3d3"/>
        <path id="Tracé_4044" data-name="Tracé 4044" d="M129.309,160.225l-3.522,3.522H102.671L114.91,148.8Z" transform="translate(-7.969 -11.55)" fill="#d3d3d3"/>
        <path id="Tracé_4045" data-name="Tracé 4045" d="M131.746,157.842l5.941-5.7-7.207-6.272v-5.644l-12.7,6.47Z" transform="translate(-9.142 -10.884)" fill="#2a944b"/>
        <path id="Tracé_4046" data-name="Tracé 4046" d="M142.723,139.035v8.846l-2.356,2.214-6.442-5.416v-5.645Z" transform="translate(-10.396 -10.792)" fill="#d3d3d3"/>
        <path id="Tracé_4047" data-name="Tracé 4047" d="M66.723,154.893v7.832a6.838,6.838,0,0,1-2.26-5.144v-2.688Z" transform="translate(-5.004 -12.023)" fill="#d3d3d3"/>
        <rect id="Rectangle_2727" data-name="Rectangle 2727" width="3.06" height="3.06" transform="translate(64.29 143.691)" fill="#d3d3d3"/>
        <path id="Tracé_4048" data-name="Tracé 4048" d="M92.207,13.115V23.2H72.793V11.657l3.377-3.1h7.211c.7,0,1.278.8,1.278,1.8v.429c0,2.327,1.278,2.335,2.84,2.335Z" transform="translate(-5.65 -0.664)" fill="#d3d3d3"/>
        <rect id="Rectangle_2728" data-name="Rectangle 2728" width="6.042" height="6.185" transform="translate(59.458 16.341)" fill="#d3d3d3"/>
        <path id="Tracé_4049" data-name="Tracé 4049" d="M70.506,12.235v3.457H64.5a14.351,14.351,0,0,1,.485-3.457Z" transform="translate(-5.006 -0.95)" fill="#d3d3d3"/>
        <path id="Tracé_4050" data-name="Tracé 4050" d="M73.793,8.552l-2.131,2H65.648c1.107-1.863,2.956-2,5.052-2Z" transform="translate(-5.096 -0.664)" fill="#d3d3d3"/>
        <path id="Tracé_4051" data-name="Tracé 4051" d="M116.461,91.193l8.245,8.657h7.864V91.193Z" transform="translate(-9.04 -7.079)" fill="#d3d3d3"/>
        <rect id="Rectangle_2729" data-name="Rectangle 2729" width="7.163" height="3.982" transform="translate(125.165 88.794)" fill="#d3d3d3"/>
        <rect id="Rectangle_2730" data-name="Rectangle 2730" width="4.211" height="3.618" transform="translate(125.165 84.114)" fill="#d3d3d3"/>
        <rect id="Rectangle_2731" data-name="Rectangle 2731" width="1.903" height="3.618" transform="translate(130.425 84.114)" fill="#d3d3d3"/>
        <path id="Tracé_4052" data-name="Tracé 4052" d="M100.925,105.439h13.212v6.317l-8.449,3.834Z" transform="translate(-7.834 -8.184)" fill="#d3d3d3"/>
        <path id="Tracé_4053" data-name="Tracé 4053" d="M82.023,127.486a5.929,5.929,0,1,1-5.929,5.929,5.929,5.929,0,0,1,5.929-5.929" transform="translate(-5.907 -9.896)" fill="#2a944b"/>
        <rect id="Rectangle_2732" data-name="Rectangle 2732" width="3.173" height="4.555" transform="translate(59.458 29.441)" fill="#d3d3d3"/>
        <path id="Tracé_4054" data-name="Tracé 4054" d="M73.765,47.551V31.923h-4.84V44.487H65.5v3.065Z" transform="translate(-5.084 -2.478)" fill="#d3d3d3"/>
        <rect id="Rectangle_2733" data-name="Rectangle 2733" width="6.854" height="7.131" transform="translate(70.64 29.441)" fill="#d3d3d3"/>
        <rect id="Rectangle_2734" data-name="Rectangle 2734" width="3.173" height="5.757" transform="translate(59.458 34.874)" fill="#d3d3d3"/>
        <rect id="Rectangle_2735" data-name="Rectangle 2735" width="10.184" height="9.739" transform="translate(120.681 68.742)" fill="#d3d3d3"/>
        <path id="Tracé_4055" data-name="Tracé 4055" d="M90.522,63.157l10.625,11.562h13.337V63.157Z" transform="translate(-7.026 -4.902)" fill="#d3d3d3"/>
        <path id="Tracé_4056" data-name="Tracé 4056" d="M103.683,77.138l6.743,7.333h5.044V77.138Z" transform="translate(-8.048 -5.988)" fill="#d3d3d3"/>
        <rect id="Rectangle_2736" data-name="Rectangle 2736" width="6.233" height="4.828" transform="translate(109.428 58.255)" fill="#d3d3d3"/>
        <path id="Tracé_4057" data-name="Tracé 4057" d="M140.744,66.813V55.957l-4.927-5.3-8.589,9.21V70.395h10.183V66.813Z" transform="translate(-9.876 -3.932)" fill="#2a944b"/>
        <path id="Tracé_4058" data-name="Tracé 4058" d="M143.345,43.4v2.913l-1.407-1.378Z" transform="translate(-11.018 -3.369)" fill="#d3d3d3"/>
        <path id="Tracé_4059" data-name="Tracé 4059" d="M142.311,22.429v8.956L136.4,37.88h-7.784V22.429Z" transform="translate(-9.983 -1.741)" fill="#d3d3d3"/>
        <rect id="Rectangle_2737" data-name="Rectangle 2737" width="7.575" height="9.791" transform="translate(109.248 26.345)" fill="#2a944b"/>
        <path id="Tracé_4060" data-name="Tracé 4060" d="M135.608,11.5V20h-9.593v6.009h-7.574V13.344h.669c1.455,0,2.644,0,2.8-1.845Z" transform="translate(-9.194 -0.893)" fill="#d3d3d3"/>
        <rect id="Rectangle_2738" data-name="Rectangle 2738" width="5.436" height="6.45" transform="translate(102.834 12.451)" fill="#d3d3d3"/>
        <rect id="Rectangle_2739" data-name="Rectangle 2739" width="14.494" height="7.127" transform="translate(93.78 23.3)" fill="#d3d3d3"/>
        <rect id="Rectangle_2740" data-name="Rectangle 2740" width="5.44" height="2.311" transform="translate(102.834 19.931)" fill="#d3d3d3"/>
        <path id="Tracé_4061" data-name="Tracé 4061" d="M108.486,46.256H104.52l-2.852-2.708V35.672h6.815Z" transform="translate(-7.892 -2.769)" fill="#d3d3d3"/>
        <path id="Tracé_4062" data-name="Tracé 4062" d="M81.788,11.673q-.061.055-.116.116l-.068.065a1.6,1.6,0,0,0-2.26,0l-.064-.068-.116-.116.148-.132a1.808,1.808,0,0,1,.345-.217,1.67,1.67,0,0,1,.453-.152,2.133,2.133,0,0,1,.229-.032h.352a1.819,1.819,0,0,1,.4.1,1.91,1.91,0,0,1,.553.316l.125.113Z" transform="translate(-6.145 -0.864)" fill="#959494"/>
        <path id="Tracé_4063" data-name="Tracé 4063" d="M79.743,12.265l-.184-.184a1.331,1.331,0,0,1,.754-.376,1.307,1.307,0,0,1,1.134.376c-.06.06-.12.125-.184.184a1.047,1.047,0,0,0-.757-.313,1.065,1.065,0,0,0-.761.313" transform="translate(-6.175 -0.907)" fill="#959494"/>
        <path id="Tracé_4064" data-name="Tracé 4064" d="M81.107,12.487l-.184.184a.56.56,0,0,0-.4-.16.544.544,0,0,0-.4.164l-.184-.184a.8.8,0,0,1,1.133-.037l.037.037Z" transform="translate(-6.205 -0.95)" fill="#959494"/>
        <path id="Tracé_4065" data-name="Tracé 4065" d="M80.734,12.881a.165.165,0,0,1-.16.168h0a.167.167,0,1,1,.165-.168Z" transform="translate(-6.241 -0.987)" fill="#959494"/>
        <path id="Tracé_4066" data-name="Tracé 4066" d="M69.609,12.061a.48.48,0,1,1,.141.344.48.48,0,0,1-.141-.344" transform="translate(-5.403 -0.899)" fill="#959494"/>
        <path id="Tracé_4067" data-name="Tracé 4067" d="M71.26,12.061a.48.48,0,1,1,.141.344.48.48,0,0,1-.141-.344" transform="translate(-5.531 -0.899)" fill="#959494"/>
        <path id="Tracé_4068" data-name="Tracé 4068" d="M72.91,12.061a.48.48,0,1,1,.139.342.48.48,0,0,1-.139-.342" transform="translate(-5.659 -0.899)" fill="#959494"/>
        <path id="Tracé_4069" data-name="Tracé 4069" d="M74.561,12.061a.48.48,0,1,1,.139.342.48.48,0,0,1-.139-.342" transform="translate(-5.788 -0.899)" fill="#959494"/>
        <path id="Tracé_4070" data-name="Tracé 4070" d="M76.207,12.061a.48.48,0,1,1,.141.344.48.48,0,0,1-.141-.344" transform="translate(-5.915 -0.899)" fill="#959494"/>
        <rect id="Rectangle_2741" data-name="Rectangle 2741" width="3.73" height="1.622" transform="translate(123.03 10.496)" fill="#959494"/>
        <path id="Tracé_4071" data-name="Tracé 4071" d="M137.208,13.09h-3.934V11.271h3.934Zm-3.734-.2h3.534V11.471h-3.525Z" transform="translate(-10.345 -0.875)" fill="#fff"/>
        <rect id="Rectangle_2742" data-name="Rectangle 2742" width="2.536" height="1.202" transform="translate(123.257 10.704)" fill="#959494"/>
        <rect id="Rectangle_2743" data-name="Rectangle 2743" width="0.349" height="0.973" transform="translate(126.863 10.817)" fill="#959494"/>
        <path id="Tracé_4072" data-name="Tracé 4072" d="M105.555,114.18l-.325-.729,13.467-5.985h8.341L80.368,56.5H96.337v-30h.8v30.8H82.187l46.672,50.96h-9.988Z" transform="translate(-6.238 -2.058)" fill="#2a944b"/>
        <path id="Tracé_4073" data-name="Tracé 4073" d="M100.594,21.161a2.76,2.76,0,0,0-2.708-2.68,2.789,2.789,0,0,0-2.7,2.7c-.2,2.087,1.2,3.982,2.7,5.709,1.506-1.746,2.917-3.641,2.708-5.728m-2.708,1.5a1.475,1.475,0,1,1,1.052-.432,1.476,1.476,0,0,1-1.052.432" transform="translate(-7.387 -1.435)" fill="#2a944b"/>
        <path id="Tracé_4074" data-name="Tracé 4074" d="M105.214,126.252l-.036-4.151-3.345-2.464,8.181.1Z" transform="translate(-7.904 -9.286)" fill="#29373e"/>
        <path id="Tracé_4075" data-name="Tracé 4075" d="M91.062,157.806l-8.813-14.824.633-.06a12.818,12.818,0,0,0,8.181-4.847c3.241-4.274.369-10.356.34-10.416l-.184-.369,13.006-5.946.333.729-12.268,5.609c.609,1.458,2.5,6.811-.593,10.877a13.532,13.532,0,0,1-8.169,5.056l8.193,13.778Z" transform="translate(-6.384 -9.419)" fill="#29373e"/>
        <path id="Tracé_4076" data-name="Tracé 4076" d="M94.635,155.581a2.706,2.706,0,0,0-5.413,0c-.2,2.087,1.2,3.982,2.7,5.709,1.509-1.726,2.917-3.621,2.708-5.709m-2.708,1.506a1.475,1.475,0,1,1,1.052-.432,1.476,1.476,0,0,1-1.052.432" transform="translate(-6.924 -11.867)" fill="#2a944b"/>
        <path id="Tracé_4077" data-name="Tracé 4077" d="M153.711,102.823a11.89,11.89,0,0,1-20.832,7.84H109.77l-3.233,5.982-3.233-5.982h-2.952V94.983h32.53a11.9,11.9,0,0,1,20.832,7.849Z" transform="translate(-7.79 -7.059)" fill="#fff"/>
        <path id="Tracé_4078" data-name="Tracé 4078" d="M153.694,102.82a13.287,13.287,0,0,1-.529,3.549,12.749,12.749,0,0,1-1.568,3.205,11.971,11.971,0,0,1-5.609,4.383,8.966,8.966,0,0,1-.853.3l-.873.224c-.292.06-.593.092-.889.149a6.808,6.808,0,0,1-.9.084,11.362,11.362,0,0,1-3.585-.316,11.971,11.971,0,0,1-6.1-3.7l.06.028-23.112.064.125-.076L106.66,116.7l-.14.265-.14-.265-3.249-5.973.156.092h-3.143v-8.032l.024-7.84V94.78h.168l32.53.092-.08.08v-.028l.02-.024a11.966,11.966,0,0,1,6.117-3.666,11.362,11.362,0,0,1,3.585-.316,6.808,6.808,0,0,1,.9.084c.3.053.6.092.889.148l.873.224c.289.084.574.184.853.3a11.956,11.956,0,0,1,5.609,4.379,12.912,12.912,0,0,1,1.568,3.228,13.307,13.307,0,0,1,.493,3.549Zm0,0a13.249,13.249,0,0,0-.553-3.542,12.672,12.672,0,0,0-1.6-3.205,11.875,11.875,0,0,0-5.585-4.335,7.768,7.768,0,0,0-.845-.284l-.87-.22c-.292-.06-.593-.092-.885-.14a6.039,6.039,0,0,0-.894-.08,11.278,11.278,0,0,0-3.549.328,11.864,11.864,0,0,0-6,3.666l.02-.052v.08h-.08l-32.53.092.168-.168.024,7.84v7.84l-.184-.184h3.06l.048.092,3.205,5.989h-.277l3.249-5.973.04-.077h.084l23.112.064h.068l.024.028a11.8,11.8,0,0,0,6.009,3.69,11.143,11.143,0,0,0,3.549.333,6.038,6.038,0,0,0,.894-.08c.292-.044.593-.08.885-.137l.865-.224a7.463,7.463,0,0,0,.85-.284,11.889,11.889,0,0,0,5.589-4.335,12.765,12.765,0,0,0,1.583-3.205,13.265,13.265,0,0,0,.533-3.525Z" transform="translate(-7.773 -7.055)" fill="#1c262b"/>
        <path id="Tracé_4079" data-name="Tracé 4079" d="M139.511,93.812a10.376,10.376,0,1,1-4.209,14.057,10.376,10.376,0,0,1,4.209-14.057" transform="translate(-10.406 -7.185)" fill="#ffe8aa"/>
        <path id="Tracé_4080" data-name="Tracé 4080" d="M148.528,107.468" transform="translate(-11.529 -8.342)" fill="#2a944b"/>
        <path id="Tracé_4081" data-name="Tracé 4081" d="M109.407,101.967a2.706,2.706,0,0,0-5.413,0c-.2,2.087,1.2,3.982,2.7,5.709,1.506-1.726,2.917-3.6,2.708-5.709m-2.708,1.5a1.475,1.475,0,1,1,1.052-.432,1.476,1.476,0,0,1-1.052.432" transform="translate(-8.071 -7.705)" fill="#2a944b"/>
        <rect id="Rectangle_2744" data-name="Rectangle 2744" width="16.393" height="0.493" transform="translate(104.289 92.804)" fill="#959494"/>
        <rect id="Rectangle_2745" data-name="Rectangle 2745" width="13.817" height="0.493" transform="translate(104.289 94.174)" fill="#959494"/>
        <rect id="Rectangle_2746" data-name="Rectangle 2746" width="15.585" height="0.493" transform="translate(104.289 95.545)" fill="#959494"/>
        <rect id="Rectangle_2747" data-name="Rectangle 2747" width="9.307" height="0.493" transform="translate(104.289 96.914)" fill="#959494"/>
      </g>
    </g>
    <g id="Groupe_541" data-name="Groupe 541" transform="translate(123.734 85.436)">
      <g id="Groupe_540" data-name="Groupe 540" clip-path="url(#clip-path-3)">
        <path id="Tracé_4082" data-name="Tracé 4082" d="M142.763,106.982c1.624,1.689,6.5,9.207,6.883,9.432,0,0,0,4.917-2.717,3.935s-5.208-9.8-5.74-12.616c-.28-1.484.248-2.129,1.574-.751" transform="translate(-134.688 -93.681)" fill="#c75e56"/>
        <path id="Tracé_4083" data-name="Tracé 4083" d="M142.31,112.754l4.981-.566a60.138,60.138,0,0,0-4.685-5.56c-1.66-1.524-2.48-1.31-1.708,1.577.774,2.9,1.412,4.549,1.412,4.549" transform="translate(-134.648 -93.64)" fill="#2a944b"/>
        <path id="Tracé_4084" data-name="Tracé 4084" d="M142.111,110.041a1.559,1.559,0,0,0-.1.429,1.71,1.71,0,0,0,.314-.816,1.511,1.511,0,0,0-.21.386Zm2.8.113a1.56,1.56,0,0,0-.428-.1,1.7,1.7,0,0,0,.814.314A1.469,1.469,0,0,0,144.908,110.154Zm-.738,1.937a1.568,1.568,0,0,0-.231-.375,1.566,1.566,0,0,0,.126.422,1.468,1.468,0,0,0,.229.376,1.576,1.576,0,0,0-.128-.422Zm-2.922-6.239c-.025-.053-.05-.1-.078-.157a.474.474,0,0,0-.1,0c.023.07.049.137.077.2a1.514,1.514,0,0,0,.23.376,1.59,1.59,0,0,0-.129-.424Zm5.739,5.888-.092.039a1.565,1.565,0,0,0-.377.23,1.544,1.544,0,0,0,.423-.125c.039-.018.076-.036.113-.055Zm-3.839-3.955a1.586,1.586,0,0,0-.376.229,1.689,1.689,0,0,0,.8-.354,1.556,1.556,0,0,0-.425.125Zm-.334.008-.017.013h.018v-.013Z" transform="translate(-134.684 -93.64)" fill="#fff"/>
        <path id="Tracé_4085" data-name="Tracé 4085" d="M142.713,112.341c.116-.027.238-.038.356-.053l.369-.051c.246-.034.494-.065.738-.092.5-.057.991-.118,1.487-.167.137-.014.277-.027.41-.038s.288-.011.432-.021a.007.007,0,0,1,.007.006.007.007,0,0,1-.007.007c-.122.018-.243.046-.369.065s-.252.037-.377.052l-.743.092c-.488.053-.976.109-1.466.151l-.409.034c-.143.013-.288.033-.432.032v-.012Z" transform="translate(-134.812 -94.124)" fill="#1c262b"/>
        <g id="Groupe_536" data-name="Groupe 536" transform="translate(5.96 12.26)" opacity="0.1" style="mix-blend-mode: normal;isolation: isolate">
          <g id="Groupe_535" data-name="Groupe 535">
            <g id="Groupe_534" data-name="Groupe 534" clip-path="url(#clip-path-4)">
              <path id="Tracé_4086" data-name="Tracé 4086" d="M144.726,112.5l-2.415.277s-.638-1.646-1.415-4.549a3.742,3.742,0,0,1-.184-2.306Z" transform="translate(-140.609 -105.918)" fill="#040405"/>
            </g>
          </g>
        </g>
        <path id="Tracé_4087" data-name="Tracé 4087" d="M143.181,123.933h-7.574c-.063-.244-.123-.48-.184-.719-.069-.272-.137-.537-.2-.8l-.044-.172q-.075-.3-.147-.576-.043-.172-.086-.338c-.029-.111-.057-.224-.086-.333l-.022-.086-.023-.092-.029-.113c-.01-.04-.02-.077-.03-.116-.019-.073-.038-.145-.054-.215-.027-.1-.053-.206-.077-.3-.01-.043-.022-.087-.032-.128-.018-.069-.035-.137-.052-.2l-.032-.129q-.068-.261-.125-.49c-.01-.041-.02-.079-.03-.118l-.048-.192c-.011-.038-.02-.076-.029-.113-.033-.131-.065-.25-.092-.354-.007-.028-.015-.054-.021-.08l-.047-.184c-.006-.022-.01-.043-.017-.063l-.016-.061a.185.185,0,0,0-.009-.039l-.014-.052a.05.05,0,0,0-.006-.023l-.018-.068h7.372s.243.837.632,2.186c.078.277.164.576.256.885.26.9.562,1.947.886,3.084" transform="translate(-134.138 -94.578)" fill="#29373e"/>
        <path id="Tracé_4088" data-name="Tracé 4088" d="M136.982,124.078h-.192q-.421-1.741-.814-3.487l-.192-.85-.018-.079a.012.012,0,0,1,.013-.011.01.01,0,0,1,.009.006.084.084,0,0,0,.007.026q.127.461.255.915.486,1.735.932,3.481" transform="translate(-134.273 -94.724)" fill="#1c262b"/>
        <path id="Tracé_4089" data-name="Tracé 4089" d="M141.171,117.775l-.326,1.632-.267,1.336-.454,2.276-.047.233-.077.388-.061.291H135.6c-.062-.244-.123-.48-.184-.719-.069-.272-.137-.537-.2-.8l-.044-.172q-.075-.3-.147-.576-.043-.172-.086-.338c-.029-.111-.057-.224-.086-.333l-.022-.086-.023-.092-.029-.113c-.01-.04-.02-.077-.03-.116-.019-.073-.038-.145-.054-.215-.027-.1-.053-.206-.077-.3-.011-.044-.022-.087-.032-.128-.018-.069-.035-.137-.052-.2-.012-.044-.022-.088-.032-.129q-.068-.261-.125-.49c-.01-.041-.02-.079-.03-.118l-.048-.192c-.011-.038-.02-.076-.029-.113-.033-.131-.065-.25-.092-.354-.007-.028-.015-.054-.021-.08l-.047-.184c-.006-.022-.01-.043-.017-.063l-.016-.061a.181.181,0,0,0-.009-.039l-.014-.052a.05.05,0,0,0-.006-.023l-.018-.068Z" transform="translate(-134.138 -94.578)" fill="#1c262b"/>
        <path id="Tracé_4090" data-name="Tracé 4090" d="M140.887,117.771h0c0,.041-.03.48-.1,1.152-.02.192-.044.41-.072.646-.043.363-.092.767-.163,1.189-.113.738-.261,1.547-.453,2.336-.068.288-.143.565-.222.841h-9.517c.113-1.45.215-2.763.3-3.8.114-1.455.192-2.366.192-2.366h8.633Z" transform="translate(-133.853 -94.578)" fill="#29373e"/>
        <path id="Tracé_4091" data-name="Tracé 4091" d="M141.608,118.7c-.01.34-.025.681-.047,1.019-.023.369-.056.738-.1,1.1a.119.119,0,0,1,0,.041q-.068.516-.155,1.028a3.742,3.742,0,0,1-.236.96.942.942,0,0,1-.222.3.662.662,0,0,1-.3.158.376.376,0,0,1-.056.009h-.017a.021.021,0,0,1,.01.02,3.054,3.054,0,0,1-.014.343v.015c-.011.092-.03.2-.048.3h-.163v-.006c.029-.108.053-.216.079-.325s.065-.219.092-.331l.007-.01a.508.508,0,0,1-.492-.308.886.886,0,0,1-.007-.447c.03-.192.058-.389.092-.585.055-.358.127-.712.192-1.068l.029-.162c.127-.725.261-1.449.422-2.168.006-.03.012-.06.019-.092s.037-.015.035,0c0,.048-.009.092-.016.145q-.043.414-.092.824c-.046.322-.077.646-.123.967-.016.11-.03.219-.047.328-.074.529-.15,1.056-.241,1.585-.042.244-.192.683.158.759a.363.363,0,0,0,.239-.03.748.748,0,0,0,.327-.413,5.417,5.417,0,0,0,.184-.881q.087-.48.153-.968.087-.606.184-1.21c.031-.206.062-.41.092-.616l.046-.288c-.006-.017.027-.011.027.007" transform="translate(-134.594 -94.632)" fill="#1c262b"/>
        <path id="Tracé_4092" data-name="Tracé 4092" d="M132.619,121.249a4.808,4.808,0,0,0,1.174-.159c.176-.045.351-.1.525-.159a1.351,1.351,0,0,0,.474-.238,2.091,2.091,0,0,0,.506-.915,8.817,8.817,0,0,0,.306-1.107c0-.018.03-.011.031.006a4.309,4.309,0,0,1-.16,1.26,1.945,1.945,0,0,1-.505.98,2.036,2.036,0,0,1-1.075.394,4.943,4.943,0,0,1-1.278-.018.021.021,0,0,1-.021-.021.02.02,0,0,1,.02-.021h0Z" transform="translate(-134.027 -94.647)" fill="#1c262b"/>
        <path id="Tracé_4093" data-name="Tracé 4093" d="M131.868,118.675q-.032.8-.067,1.6-.082,1.864-.18,3.726h-.179q.123-1.866.258-3.732.058-.8.121-1.594a.023.023,0,0,1,.046,0Z" transform="translate(-133.937 -94.646)" fill="#1c262b"/>
        <path id="Tracé_4094" data-name="Tracé 4094" d="M142.465,120.737l-12.913-.979s2.6-10.294,7.726-14.078a2.527,2.527,0,0,1,3.392.376c1.642,1.84,1.832,14.639,1.8,14.681" transform="translate(-133.79 -93.602)" fill="#2a944b"/>
        <path id="Tracé_4095" data-name="Tracé 4095" d="M137.9,106.184a1.6,1.6,0,0,0-.1.428,1.526,1.526,0,0,0,.211-.384,1.6,1.6,0,0,0,.1-.428,1.587,1.587,0,0,0-.211.384m-1.4,5.554a1.494,1.494,0,0,0-.1.429,1.722,1.722,0,0,0,.313-.815A1.54,1.54,0,0,0,136.5,111.737Zm-4.612,2.382a1.566,1.566,0,0,0-.1.429,1.71,1.71,0,0,0,.314-.815,1.64,1.64,0,0,0-.211.386Zm3.723,3.505a1.49,1.49,0,0,0-.1.428,1.718,1.718,0,0,0,.313-.815,1.531,1.531,0,0,0-.209.39Zm5.634-7.59a1.559,1.559,0,0,0-.1.429,1.71,1.71,0,0,0,.314-.815,1.508,1.508,0,0,0-.21.388Zm-2.3,6.982a1.522,1.522,0,0,0-.1.428,1.5,1.5,0,0,0,.21-.384,1.56,1.56,0,0,0,.1-.428,1.509,1.509,0,0,0-.209.386Zm-4.652-7.243a1.56,1.56,0,0,0-.1.428,1.681,1.681,0,0,0,.313-.816,1.5,1.5,0,0,0-.206.391Zm5.158-1.845a1.489,1.489,0,0,0-.428-.1,1.521,1.521,0,0,0,.384.209,1.5,1.5,0,0,0,.429.1,1.527,1.527,0,0,0-.385-.2Zm1.463,4.628a1.52,1.52,0,0,0-.428-.1,1.492,1.492,0,0,0,.384.209,1.522,1.522,0,0,0,.428.1,1.512,1.512,0,0,0-.384-.207Zm.393,5.534a1.56,1.56,0,0,0-.428-.1,1.5,1.5,0,0,0,.384.21,1.56,1.56,0,0,0,.428.1,1.573,1.573,0,0,0-.384-.207Zm-9.191-.455a1.56,1.56,0,0,0-.428-.1,1.7,1.7,0,0,0,.814.314,1.528,1.528,0,0,0-.386-.207Zm3.321-3.551a1.554,1.554,0,0,0-.428-.1,1.527,1.527,0,0,0,.384.211,1.594,1.594,0,0,0,.428.1,1.544,1.544,0,0,0-.384-.208Zm4.938-8.238c-.014-.029-.027-.056-.042-.085a1.609,1.609,0,0,0-.149-.1,1.955,1.955,0,0,0,.087.236,1.514,1.514,0,0,0,.23.376,1.564,1.564,0,0,0-.125-.422Zm-3.773,2.985a1.542,1.542,0,0,0-.23-.376,1.687,1.687,0,0,0,.355.8,1.538,1.538,0,0,0-.125-.422m3.332,11.357a1.556,1.556,0,0,0-.229-.376,1.536,1.536,0,0,0,.125.422,1.59,1.59,0,0,0,.21.353h.016a1.549,1.549,0,0,0-.121-.4ZM138.71,113.5a1.56,1.56,0,0,0-.23-.376,1.731,1.731,0,0,0,.354.8,1.573,1.573,0,0,0-.124-.423Zm-8.794,5.1c-.006.02-.012.041-.018.059.013.014.024.028.035.042a.867.867,0,0,0-.018-.1Zm3.839-2.561a1.537,1.537,0,0,0-.23-.375,1.688,1.688,0,0,0,.355.8,1.557,1.557,0,0,0-.128-.42Zm.824,3.7a1.56,1.56,0,0,0-.23-.376,1.726,1.726,0,0,0,.355.8,1.515,1.515,0,0,0-.128-.42Zm6.457-4.446a1.589,1.589,0,0,0-.376.23,1.726,1.726,0,0,0,.8-.355,1.527,1.527,0,0,0-.426.128Zm-10.184.561-.049.133a1.329,1.329,0,0,0,.288-.184,1.213,1.213,0,0,0-.242.057Zm6.582,3.2a1.538,1.538,0,0,0-.376.229,1.542,1.542,0,0,0,.423-.125,1.593,1.593,0,0,0,.376-.231,1.5,1.5,0,0,0-.426.129Zm-5.887.856-.066.031.226.018a1.355,1.355,0,0,0,.263-.174,1.562,1.562,0,0,0-.425.128Zm2.262-7.893a1.62,1.62,0,0,0-.376.23,1.715,1.715,0,0,0,.8-.354,1.534,1.534,0,0,0-.426.127Zm3.309,3.676a1.574,1.574,0,0,0-.376.231,1.713,1.713,0,0,0,.8-.355,1.565,1.565,0,0,0-.426.127Zm1.728-5.054a1.62,1.62,0,0,0-.376.23,1.7,1.7,0,0,0,.8-.354,1.547,1.547,0,0,0-.428.127Z" transform="translate(-133.817 -93.638)" fill="#fff"/>
        <path id="Tracé_4096" data-name="Tracé 4096" d="M140.676,108.007c-.744-.111-1.5-1.613-1.632-2.639-.008-.071,1.152-2.286,1.333-2.747.038-.092,2.625,1.859,2.625,1.859a7.887,7.887,0,0,0-.986,1.665c-.022.067-.621,1.967-1.34,1.862" transform="translate(-134.527 -93.402)" fill="#c75e56"/>
        <path id="Tracé_4097" data-name="Tracé 4097" d="M143.071,104.476a7.9,7.9,0,0,0-.987,1.66c-.006.017-.044.136-.108.305a4.152,4.152,0,0,1-2.091-2.664c.252-.5.486-.977.561-1.164.037-.088,2.625,1.862,2.625,1.862" transform="translate(-134.592 -93.401)" fill="#1c262b"/>
        <path id="Tracé_4098" data-name="Tracé 4098" d="M141.035,98.653c-.757.876-1.515,4.037-1.082,5.009a2.553,2.553,0,0,0,3.268,1.533,2.582,2.582,0,0,0,.391-.18c1.318-.873,2.231-5.009,1.687-5.958a2.766,2.766,0,0,0-3.84-.755,2.713,2.713,0,0,0-.424.351" transform="translate(-134.588 -93.03)" fill="#c75e56"/>
        <path id="Tracé_4099" data-name="Tracé 4099" d="M143.277,101.473c-.092.007-.192,0-.288,0a.461.461,0,0,1-.294-.057.15.15,0,0,1-.037-.179.368.368,0,0,1,.339-.158.54.54,0,0,1,.369.119.16.16,0,0,1-.092.277Z" transform="translate(-134.806 -93.282)" fill="#1c262b"/>
        <path id="Tracé_4100" data-name="Tracé 4100" d="M143.211,102.008c0-.008-.019.006-.021.017-.036.216-.113.461-.322.491a.006.006,0,0,0,0,.008l0,0c.243.014.343-.308.343-.519" transform="translate(-134.824 -93.354)" fill="#1c262b"/>
        <path id="Tracé_4101" data-name="Tracé 4101" d="M143.049,101.718c-.34-.092-.505.594-.192.682s.477-.6.192-.682" transform="translate(-134.81 -93.331)" fill="#1c262b"/>
        <path id="Tracé_4102" data-name="Tracé 4102" d="M144.576,102.3c0-.007.015.015.013.023-.057.211-.092.461.088.576.006,0,0,.015,0,.011-.229-.084-.184-.418-.1-.61" transform="translate(-134.951 -93.377)" fill="#1c262b"/>
        <path id="Tracé_4103" data-name="Tracé 4103" d="M144.821,102.106c.35.055.212.75-.112.7s-.181-.744.112-.7" transform="translate(-134.953 -93.362)" fill="#1c262b"/>
        <path id="Tracé_4104" data-name="Tracé 4104" d="M145.188,101.689a2.456,2.456,0,0,1-.257-.137.467.467,0,0,1-.235-.192.149.149,0,0,1,.052-.175.37.37,0,0,1,.375.018.554.554,0,0,1,.277.277.161.161,0,0,1-.21.207Z" transform="translate(-134.965 -93.287)" fill="#1c262b"/>
        <path id="Tracé_4105" data-name="Tracé 4105" d="M142.463,104.011c.039.063.073.143.149.168a.566.566,0,0,0,.243,0l.007,0v.009a.294.294,0,0,1-.3.051.232.232,0,0,1-.123-.229c0-.013.017-.014.022,0" transform="translate(-134.791 -93.509)" fill="#1c262b"/>
        <path id="Tracé_4106" data-name="Tracé 4106" d="M142.873,103.2a.75.75,0,0,0,.408.439.966.966,0,0,0,.258.075.231.231,0,0,0,.051.006h.049a.051.051,0,0,0,.053-.038v-.042c.043-.163.088-.417.088-.417.053.044.326.255.341.168a11.255,11.255,0,0,0,.244-2.264.02.02,0,0,0-.041,0c-.149.687-.178,1.4-.317,2.089a1.27,1.27,0,0,0-.31-.184c-.025,0-.076.492-.1.563v.007a1.03,1.03,0,0,1-.7-.412c-.018-.019-.034-.008-.026.012" transform="translate(-134.824 -93.284)" fill="#1c262b"/>
        <path id="Tracé_4107" data-name="Tracé 4107" d="M143.447,103.784a.9.9,0,0,1-.409.184.4.4,0,0,1-.239-.042c-.16-.086-.126-.243-.064-.369a.928.928,0,0,1,.125-.184,1.148,1.148,0,0,0,.586.41" transform="translate(-134.81 -93.46)" fill="#1c262b"/>
        <path id="Tracé_4108" data-name="Tracé 4108" d="M143.038,103.984a.4.4,0,0,1-.239-.042c-.16-.086-.126-.243-.064-.369a.413.413,0,0,1,.3.41" transform="translate(-134.81 -93.476)" fill="#e97fa8"/>
        <path id="Tracé_4109" data-name="Tracé 4109" d="M145.584,100.22c-1.344.563-2.7-.993-2.7-.993a1.307,1.307,0,0,1-1.468.54s-.646,1.945-1.171,1.828c-.8-.171-.48-2.941-.118-3.423a1.465,1.465,0,0,1,1.072-.48,1.331,1.331,0,0,1,.709-.68c.634-.305,2.4.652,2.4.652a1.792,1.792,0,0,1,.619-.553.5.5,0,0,1,.687.192l.012.022a1.2,1.2,0,0,0-.294.451c-.216.564.261.663.369.133a.848.848,0,0,0-.073-.584c.307-.3.715-.33.909-.092.358.426.17,2.521-.948,2.988" transform="translate(-134.581 -92.962)" fill="#1c262b"/>
        <path id="Tracé_4110" data-name="Tracé 4110" d="M142.447,103.015a.927.927,0,1,1,.223.042.964.964,0,0,1-.223-.042m.529-1.646a.805.805,0,1,0,.517,1.015.45.45,0,0,0,.014-.047A.813.813,0,0,0,142.976,101.368Z" transform="translate(-134.741 -93.292)" fill="#2a944b"/>
        <path id="Tracé_4111" data-name="Tracé 4111" d="M144.682,103.436a.856.856,0,0,1-.384-1.047,1.1,1.1,0,0,1,.347-.582.576.576,0,0,1,.96.238,1.111,1.111,0,0,1,.033.677c-.123.5-.523.825-.893.732a.362.362,0,0,1-.064-.018m.519-1.646-.045-.014a.491.491,0,0,0-.437.125.989.989,0,0,0-.306.517c-.107.43.052.841.356.916s.636-.213.743-.646a.98.98,0,0,0-.029-.6A.508.508,0,0,0,145.2,101.789Z" transform="translate(-134.931 -93.325)" fill="#2a944b"/>
        <path id="Tracé_4112" data-name="Tracé 4112" d="M143.751,102.364l-.06-.109a.508.508,0,0,1,.685.092l-.105.065c-.156-.244-.505-.057-.52-.049" transform="translate(-134.888 -93.366)" fill="#2a944b"/>
        <path id="Tracé_4113" data-name="Tracé 4113" d="M139.307,101.724l-.092-.077c.037-.045.36-.442.639-.432.262.009,1.861.48,1.93.5l-.035.119c-.461-.137-1.7-.493-1.9-.5s-.457.275-.544.385" transform="translate(-134.54 -93.293)" fill="#2a944b"/>
        <path id="Tracé_4114" data-name="Tracé 4114" d="M140.548,101.689s-.258-1.236-.791-1.183-.624,1.644-.2,2.05a.56.56,0,0,0,.792.035l.017-.016Z" transform="translate(-134.546 -93.238)" fill="#c75e56"/>
        <path id="Tracé_4115" data-name="Tracé 4115" d="M139.771,101c-.007,0-.015.006-.008.013a1.415,1.415,0,0,1,.326,1.107.31.31,0,0,0-.347-.269.266.266,0,0,0-.047.009c-.011,0-.008.02,0,.023a.342.342,0,0,1,.3.26,1.694,1.694,0,0,1,.047.353.036.036,0,0,0,.071,0v-.009a1.235,1.235,0,0,0-.343-1.487" transform="translate(-134.577 -93.276)" fill="#1c262b"/>
        <path id="Tracé_4116" data-name="Tracé 4116" d="M147.693,111.181c.243-.639,5.873.518,5.649,1.5a21.472,21.472,0,0,1-3.7,7.53,2.034,2.034,0,0,1-2.832.165c-.8-.843.647-8.56.886-9.193" transform="translate(-135.111 -94.052)" fill="#c75e56"/>
        <path id="Tracé_4117" data-name="Tracé 4117" d="M147.3,113.1a7.36,7.36,0,0,0-.3,1.056c-.081.355-.152.712-.21,1.071a16.182,16.182,0,0,0-.192,2.194c-.01.41,0,.821,0,1.231,0,.009.016.008.016,0,0-.363.022-.731.052-1.093s.066-.732.113-1.1c.092-.715.192-1.429.322-2.138.036-.2.073-.4.113-.595s.092-.41.115-.618c0-.013-.025-.026-.031-.013" transform="translate(-135.113 -94.215)" fill="#1c262b"/>
        <path id="Tracé_4118" data-name="Tracé 4118" d="M145.9,100a9.88,9.88,0,0,1-.219,1.452c-.018.081-.039.165-.058.247-.08.328-.176.659-.288.976-.026.077-.053.153-.08.228a4.349,4.349,0,0,1-1.3,2.049,2.481,2.481,0,0,1-.408.22,4.957,4.957,0,0,1-2.457-4.132l-.153-.042c.024-.038.049-.076.073-.116s.053-.092.079-.139a4.957,4.957,0,0,1,1.4-3.3,2.951,2.951,0,0,1,3.259,1.2A2.717,2.717,0,0,1,145.9,100" transform="translate(-134.674 -92.991)" fill="#c75e56"/>
        <path id="Tracé_4119" data-name="Tracé 4119" d="M143.517,101.206a2.824,2.824,0,0,1-.306,0,.482.482,0,0,1-.313-.062.157.157,0,0,1-.039-.192.39.39,0,0,1,.36-.167.576.576,0,0,1,.395.125.169.169,0,0,1-.1.3Z" transform="translate(-134.822 -93.259)" fill="#1c262b"/>
        <path id="Tracé_4120" data-name="Tracé 4120" d="M143.446,101.776c0-.008-.02.007-.022.017-.038.23-.12.486-.34.52a.006.006,0,0,0-.006.006.007.007,0,0,0,.006.007c.257.009.363-.332.363-.551" transform="translate(-134.84 -93.336)" fill="#1c262b"/>
        <path id="Tracé_4121" data-name="Tracé 4121" d="M143.275,101.469c-.361-.1-.536.629-.2.722s.5-.637.2-.722" transform="translate(-134.826 -93.312)" fill="#1c262b"/>
        <path id="Tracé_4122" data-name="Tracé 4122" d="M144.894,102.077c0-.007.016.016.013.025-.062.223-.092.491.092.614.006,0,0,.016,0,.013-.241-.1-.195-.449-.1-.652" transform="translate(-134.975 -93.359)" fill="#1c262b"/>
        <path id="Tracé_4123" data-name="Tracé 4123" d="M145.154,101.873c.369.059.224.8-.119.738s-.191-.788.119-.738" transform="translate(-134.977 -93.344)" fill="#1c262b"/>
        <path id="Tracé_4124" data-name="Tracé 4124" d="M145.541,101.433c-.092-.042-.18-.092-.271-.145a.5.5,0,0,1-.25-.2.159.159,0,0,1,.054-.184.391.391,0,0,1,.4.019.579.579,0,0,1,.288.3.169.169,0,0,1-.1.216.171.171,0,0,1-.117,0Z" transform="translate(-134.99 -93.265)" fill="#1c262b"/>
        <path id="Tracé_4125" data-name="Tracé 4125" d="M142.651,103.892c.042.065.077.15.159.177a.6.6,0,0,0,.256,0,.01.01,0,0,1,.008,0v.009a.312.312,0,0,1-.315.053.245.245,0,0,1-.13-.242c0-.013.022-.013.022,0" transform="translate(-134.805 -93.5)" fill="#1c262b"/>
        <path id="Tracé_4126" data-name="Tracé 4126" d="M143.09,103.032a.792.792,0,0,0,.431.461.99.99,0,0,0,.277.078.267.267,0,0,0,.054.006h.051a.056.056,0,0,0,.057-.04.1.1,0,0,0,0-.023v-.02c.046-.172.092-.442.092-.442.055.047.345.27.361.179a11.778,11.778,0,0,0,.259-2.4.021.021,0,0,0-.042,0c-.16.728-.192,1.476-.337,2.207a1.382,1.382,0,0,0-.337-.192c-.026,0-.08.52-.108.6v.007a1.094,1.094,0,0,1-.738-.438c-.007-.013-.03,0-.02.018" transform="translate(-134.841 -93.261)" fill="#1c262b"/>
        <path id="Tracé_4127" data-name="Tracé 4127" d="M143.7,103.653a.928.928,0,0,1-.433.192.414.414,0,0,1-.253-.044c-.17-.092-.135-.257-.067-.39a.987.987,0,0,1,.133-.2,1.214,1.214,0,0,0,.62.44" transform="translate(-134.826 -93.448)" fill="#1c262b"/>
        <path id="Tracé_4128" data-name="Tracé 4128" d="M143.264,103.863a.408.408,0,0,1-.253-.044c-.17-.092-.135-.257-.067-.391a.435.435,0,0,1,.32.435" transform="translate(-134.826 -93.464)" fill="#e97fa8"/>
        <path id="Tracé_4129" data-name="Tracé 4129" d="M146.063,99.884a1.5,1.5,0,0,1-.151.054c-1.374.426-2.712-1.107-2.712-1.107a1.384,1.384,0,0,1-1.555.576,9.062,9.062,0,0,1-.546,1.277,4.961,4.961,0,0,1,2.338-4.058,9.523,9.523,0,0,1,1.275.553,1.9,1.9,0,0,1,.657-.585.535.535,0,0,1,.728.207l.01.019a1.292,1.292,0,0,0-.312.48c-.229.6.277.7.388.14a.894.894,0,0,0-.077-.619c.326-.314.757-.349.96-.092.379.445.182,2.658-1,3.155" transform="translate(-134.687 -92.929)" fill="#1c262b"/>
        <path id="Tracé_4130" data-name="Tracé 4130" d="M143.566,101.148a.979.979,0,0,0-.565-.224.947.947,0,0,0-.184.006.981.981,0,0,0-.738.514.832.832,0,0,0-.053.121.944.944,0,0,0-.059.277.983.983,0,0,0,.679,1,1.01,1.01,0,0,0,.24.045h.062a.984.984,0,0,0,.974-.83c0-.028.006-.055.008-.085s0-.042,0-.063a.978.978,0,0,0-.362-.757m-.68,1.6a.85.85,0,0,1-.108-1.683.83.83,0,0,1,.214-.014.887.887,0,0,1,.208.04.836.836,0,0,1,.239.122.849.849,0,0,1-.553,1.536Z" transform="translate(-134.754 -93.27)" fill="#2a944b"/>
        <path id="Tracé_4131" data-name="Tracé 4131" d="M145.977,101.81l-.018-.042a.683.683,0,0,0-.288-.32.523.523,0,0,0-.132-.052.547.547,0,0,0-.2-.011.724.724,0,0,0-.375.172,1.015,1.015,0,0,0-.2.235,1.162,1.162,0,0,0-.107.208,1.011,1.011,0,0,0-.048.144.178.178,0,0,0-.008.03,1.186,1.186,0,0,0,.018.661.7.7,0,0,0,.395.448c.02.007.041.014.062.019a.61.61,0,0,0,.468-.082,1.119,1.119,0,0,0,.48-.694,1.175,1.175,0,0,0-.037-.717m-.092.684a1.072,1.072,0,0,1-.269.5.553.553,0,0,1-.517.184c-.323-.079-.491-.515-.377-.969a1.045,1.045,0,0,1,.324-.547.527.527,0,0,1,.461-.134.46.46,0,0,1,.047.015.539.539,0,0,1,.3.321.849.849,0,0,1,.046.157,1.113,1.113,0,0,1-.013.478Z" transform="translate(-134.955 -93.306)" fill="#2a944b"/>
        <path id="Tracé_4132" data-name="Tracé 4132" d="M144.022,102.148l-.063-.115a.533.533,0,0,1,.726.105l-.112.069c-.168-.267-.538-.067-.552-.059" transform="translate(-134.909 -93.349)" fill="#2a944b"/>
        <path id="Tracé_4133" data-name="Tracé 4133" d="M142.068,101.485l-.038.125-.088-.026c-.216-.064-.535-.156-.852-.244l-.153-.042c.024-.038.049-.076.073-.116l.077.022c.384.105.755.214.909.259Z" transform="translate(-134.674 -93.29)" fill="#2a944b"/>
        <g id="Groupe_539" data-name="Groupe 539" transform="translate(6.41 2.954)" opacity="0.3">
          <g id="Groupe_538" data-name="Groupe 538">
            <g id="Groupe_537" data-name="Groupe 537" clip-path="url(#clip-path-5)">
              <path id="Tracé_4134" data-name="Tracé 4134" d="M147.111,105.614a4.715,4.715,0,1,1,.006,0h-.006" transform="translate(-141.096 -95.828)" fill="#fff"/>
              <path id="Tracé_4135" data-name="Tracé 4135" d="M141.755,103.772a4.954,4.954,0,0,0,6.682,1.988Z" transform="translate(-141.147 -96.445)" fill="#e6e6e6"/>
              <path id="Tracé_4136" data-name="Tracé 4136" d="M141.909,98.213l9.151,2.723a4.935,4.935,0,0,0-.115-1.17,4.859,4.859,0,0,0-.461-1.263l-6.756-2.011a4.961,4.961,0,0,0-1.819,1.72" transform="translate(-141.159 -95.88)" fill="#e6e6e6"/>
              <path id="Tracé_4137" data-name="Tracé 4137" d="M141.132,101.74l8.716,2.592a5.01,5.01,0,0,0,.546-.8l-9.282-2.763a4.775,4.775,0,0,0,.019.974" transform="translate(-141.096 -96.211)" fill="#e6e6e6"/>
              <path id="Tracé_4138" data-name="Tracé 4138" d="M141.566,98.994l9.408,2.8c.009-.06.018-.119.025-.179l-9.358-2.783a1.721,1.721,0,0,0-.075.162" transform="translate(-141.132 -96.061)" fill="#e6e6e6"/>
              <path id="Tracé_4139" data-name="Tracé 4139" d="M145.575,95.9l4.176,1.242c-.109-.1-.222-.192-.341-.288l-3.391-1.008a4.22,4.22,0,0,0-.444.053" transform="translate(-141.444 -95.829)" fill="#e6e6e6"/>
            </g>
          </g>
        </g>
        <rect id="Rectangle_2751" data-name="Rectangle 2751" width="1.302" height="5.723" transform="translate(11.875 13.27) rotate(-12.401)" fill="#e6e6e6"/>
        <path id="Tracé_4140" data-name="Tracé 4140" d="M151.376,99.549a5.5,5.5,0,1,0-4.192,6.558h0a5.5,5.5,0,0,0,4.191-6.558m-4.311,6.019a4.951,4.951,0,1,1,3.769-5.9,4.95,4.95,0,0,1-3.769,5.9h0Z" transform="translate(-134.64 -92.828)" fill="#354952"/>
        <rect id="Rectangle_2752" data-name="Rectangle 2752" width="1.969" height="5.075" transform="translate(12.539 17.836) rotate(-12.421)" fill="#1c262b"/>
        <path id="Tracé_4141" data-name="Tracé 4141" d="M149.53,100.222l0-.018c-.023-.082.025.079.007.026s-.042-.129-.066-.192a4.18,4.18,0,0,0-.307-.646c-.017-.029-.034-.057-.051-.087-.006-.009.042.067,0,.006l-.033-.052c-.044-.066-.092-.132-.137-.192a3.993,3.993,0,0,0-.339-.4l-.092-.092c-.041-.04.047.043-.008-.007l-.055-.051c-.072-.063-.146-.123-.222-.184a2.6,2.6,0,0,0-.255-.175c-.041-.025-.08-.049-.122-.072-.071-.042.03.015-.022-.013l-.076-.039a3.89,3.89,0,0,0-.716-.268h-.012l-.027-.006-.111-.024c-.072-.015-.143-.027-.216-.038a4.558,4.558,0,0,0-.461-.042.328.328,0,1,1,.074-.651,4.127,4.127,0,0,1,2.645,1.068,4.5,4.5,0,0,1,1.107,1.619,3.227,3.227,0,0,1,.14.422.329.329,0,0,1-.275.374h0a.335.335,0,0,1-.374-.277Z" transform="translate(-135.06 -92.966)" fill="#fff"/>
        <path id="Tracé_4142" data-name="Tracé 4142" d="M149.98,101.508a.323.323,0,1,0,.268-.369h0a.323.323,0,0,0-.268.369" transform="translate(-135.376 -93.286)" fill="#fff"/>
        <path id="Tracé_4143" data-name="Tracé 4143" d="M152.891,113.47a3.987,3.987,0,0,0-.337-4.415,6.334,6.334,0,0,0-5.74-2.255c-.8.053-1.9.695-.565,1.084.95.277,1.636.164,2.16.425,0,0-1.306.984-1.222,1.783a10.427,10.427,0,0,0,.272,1.88.845.845,0,0,0,.491.16,3.847,3.847,0,0,0,2.722,2.233Z" transform="translate(-135.038 -93.722)" fill="#c75e56"/>
        <path id="Tracé_4144" data-name="Tracé 4144" d="M151.817,108.877a8.906,8.906,0,0,0-2.817-.7c-1.21-.033-3.551.229-3.566,1.122-.011.656.891.634.891.634s-.945.312-.825.906c.109.541.805.48.805.48s-.541.288-.335.789c.246.6,1.338-.092,2.111.3a46.545,46.545,0,0,0,3.735-3.529" transform="translate(-135.023 -93.833)" fill="#c75e56"/>
        <path id="Tracé_4145" data-name="Tracé 4145" d="M149.25,109.57a4.828,4.828,0,0,0-2.839.45c-.022.011-.025.034,0,.028a11.944,11.944,0,0,1,2.839-.467c.009,0,.009,0,0-.011" transform="translate(-135.098 -93.937)" fill="#1c262b"/>
        <path id="Tracé_4146" data-name="Tracé 4146" d="M149.179,110.9a5.421,5.421,0,0,0-2.808.618c-.022.012-.023.036,0,.028a12.755,12.755,0,0,1,2.81-.635.005.005,0,0,0,.006-.006s0-.006-.006-.006Z" transform="translate(-135.095 -94.044)" fill="#1c262b"/>
        <path id="Tracé_4147" data-name="Tracé 4147" d="M151.283,114.976a5.861,5.861,0,0,1-1.4-.53,3.892,3.892,0,0,1-1.162-.96c-.092-.12-.192-.244-.277-.369s-.175-.277-.277-.4c-.007-.009-.026,0-.02.008a4.41,4.41,0,0,0,.409.761,3.117,3.117,0,0,0,.513.61,3.513,3.513,0,0,0,1.344.744,4.733,4.733,0,0,0,.864.157c.019,0,.019-.018.009-.021" transform="translate(-135.233 -94.185)" fill="#1c262b"/>
        <path id="Tracé_4148" data-name="Tracé 4148" d="M135.749,107.243c-2.473,3.321-6.6,11.972-7.206,13.245-.411.864,4.1,3.136,4.294,2.511.245-.8,4.282-11.422,4.847-15.293.309-2.121-1.08-1.612-1.935-.463" transform="translate(-133.71 -93.683)" fill="#c75e56"/>
        <path id="Tracé_4149" data-name="Tracé 4149" d="M132.455,123.723a5.574,5.574,0,0,1-1.032,2.6,14.809,14.809,0,0,1-3.521.192c-1.047,0-1.248-.292-1.235-.653s2.214-.429,2.214-.429-2.935.837-3.673.978-2.438.566-2.688-.045c-.111-.277.355-.553.355-.553s-.713.208-.83-.146c-.128-.4.439-.626.439-.626s-.446.092-.461-.24c-.019-.738,2.772-1.1,2.772-1.1s-2.136,1.04-2.207.44c-.092-.83,4.284-1.741,4.74-2.1a8.478,8.478,0,0,0,.928-.9Z" transform="translate(-133.206 -94.839)" fill="#c75e56"/>
        <path id="Tracé_4150" data-name="Tracé 4150" d="M127.073,126.377a.325.325,0,0,1,.092-.277.913.913,0,0,1,.255-.165,3.414,3.414,0,0,1,.6-.192c.412-.1.836-.179,1.257-.288a5.16,5.16,0,0,0-1.291.144,2.384,2.384,0,0,0-.617.236.837.837,0,0,0-.258.22.333.333,0,0,0-.038.321" transform="translate(-133.596 -95.174)" fill="#1c262b"/>
        <path id="Tracé_4151" data-name="Tracé 4151" d="M122.955,126.109c.3-.074.6-.159.9-.244s.592-.176.888-.266l.884-.277.887-.277a6.868,6.868,0,0,0-.917.164c-.3.069-.6.156-.9.245s-.59.192-.88.3-.585.223-.861.354" transform="translate(-133.278 -95.142)" fill="#1c262b"/>
        <path id="Tracé_4152" data-name="Tracé 4152" d="M125.765,124.253a5.685,5.685,0,0,0-.847.117,7.558,7.558,0,0,0-.83.213,7.472,7.472,0,0,0-.8.3,6.026,6.026,0,0,0-.759.392c.269-.092.533-.2.8-.288s.535-.184.8-.264.54-.164.811-.243.546-.15.822-.227" transform="translate(-133.245 -95.081)" fill="#1c262b"/>
        <path id="Tracé_4153" data-name="Tracé 4153" d="M125.352,123.5a5.736,5.736,0,0,0-2.583.889c.434-.155.856-.317,1.291-.461s.854-.287,1.291-.428" transform="translate(-133.264 -95.022)" fill="#1c262b"/>
        <path id="Tracé_4154" data-name="Tracé 4154" d="M137.075,112.9l-5.01-.138a60.991,60.991,0,0,1,4.193-5.94c1.527-1.66,2.359-1.517,1.837,1.424-.525,2.962-1.02,4.654-1.02,4.654" transform="translate(-133.985 -93.645)" fill="#2a944b"/>
        <path id="Tracé_4155" data-name="Tracé 4155" d="M134.1,112.045a1.62,1.62,0,0,0-.376.23,1.715,1.715,0,0,0,.8-.354,1.542,1.542,0,0,0-.423.125m2.8-3.183a1.541,1.541,0,0,0-.23-.376,1.691,1.691,0,0,0,.355.8A1.537,1.537,0,0,0,136.9,108.862Zm-2.306.945a1.56,1.56,0,0,0-.1.428,1.7,1.7,0,0,0,.313-.815,1.511,1.511,0,0,0-.213.387Zm2.207,1.962a1.494,1.494,0,0,0-.1.429,1.722,1.722,0,0,0,.313-.815,1.547,1.547,0,0,0-.212.386Zm1.468-5.706c-.024.05-.046.1-.067.152a1.6,1.6,0,0,0-.1.428,1.526,1.526,0,0,0,.211-.384l.013-.037a.968.968,0,0,0-.054-.16Z" transform="translate(-134.114 -93.669)" fill="#fff"/>
        <path id="Tracé_4156" data-name="Tracé 4156" d="M136.835,112.541c-.119-.018-.241-.018-.36-.023l-.369-.02q-.369-.018-.748-.03c-.5-.016-1-.032-1.5-.04h-.411c-.137,0-.288.015-.432.016-.008,0-.007.014,0,.014.123.007.245.026.369.033s.253.016.379.02c.25.009.5.018.749.024.491.012.982.025,1.476.026h.417c.143,0,.288.007.432,0,0,0,0-.016-.006-.016" transform="translate(-134.059 -94.163)" fill="#1c262b"/>
        <path id="Tracé_4157" data-name="Tracé 4157" d="M138.427,109.914c0-.009-.011-.016-.017-.006a3.717,3.717,0,0,0-.238.532c.018-.088.038-.174.053-.263.054-.282.1-.566.16-.849a.008.008,0,1,0-.017,0c-.13.486-.277.967-.4,1.456s-.232.979-.339,1.47c-.058.271-.112.611-.171.881-.145.018-.331,0-.488.02-.014,0-.009.024,0,.024.165,0,.362.042.536.031.022,0,.443-1.746.617-2.583.108-.237.208-.475.3-.716" transform="translate(-134.366 -93.922)" fill="#1c262b"/>
        <path id="Tracé_4158" data-name="Tracé 4158" d="M142.116,106.922c-.07.23-.149.456-.241.678a3.709,3.709,0,0,1-.277.576,1.137,1.137,0,0,1-.93.6,1.345,1.345,0,0,1-.98-.506,4.046,4.046,0,0,1-.608-1.073c-.092-.232-.192-.468-.268-.707-.04-.121-.08-.242-.115-.369s-.065-.246-.106-.369c0-.009-.021-.008-.018,0,.071.277.277,1.152.36,1.374a4.2,4.2,0,0,0,.6,1.173,1.529,1.529,0,0,0,1.033.611,1.106,1.106,0,0,0,1.015-.516,2.711,2.711,0,0,0,.316-.679c.092-.263.164-.533.232-.8,0,.01-.008.009-.008.012" transform="translate(-134.49 -93.644)" fill="#1c262b"/>
      </g>
    </g>
    <g id="Groupe_543" data-name="Groupe 543">
      <g id="Groupe_542" data-name="Groupe 542" clip-path="url(#clip-path)">
        <path id="Tracé_4160" data-name="Tracé 4160" d="M21.6,129.948,7.066,141.693c-2.794,2.233-5.2,4.238-6.348,5.388-.437.437-.684.746-.7.9a.031.031,0,0,0,0,.029c.1,1.278,17.275,24.093,18.139,24.706s2.628-1.829,2.67-3.245-2.66-13.1-2.66-13.1l14.414-11.879Z" transform="translate(-0.001 -10.087)" fill="#c75e56"/>
        <path id="Tracé_4161" data-name="Tracé 4161" d="M10.045,140.069l-2.979,2.409c-2.794,2.233-5.2,4.238-6.348,5.388a4.7,4.7,0,0,0-.7.9.031.031,0,0,0,0,.029c.1,1.278,17.275,24.093,18.139,24.706s2.628-1.829,2.67-3.245-2.66-13.1-2.66-13.1l3.06-2.4Z" transform="translate(-0.001 -10.872)" fill="#e6e6e6"/>
        <path id="Tracé_4162" data-name="Tracé 4162" d="M18.14,173.691C17.276,173.1.086,150.287,0,148.985c-.048-.475,3.131-3.183,7.065-6.333l.124-.092,11.241,14.591-.252.184s2.666,11.669,2.632,13.1S19,174.29,18.14,173.691" transform="translate(0 -11.066)" fill="#2a944b"/>
        <path id="Tracé_4163" data-name="Tracé 4163" d="M18.941,173.366c-2.8-3.915-14.468-19.451-17.532-23.109-.024-.029-.048,0-.024,0,2.689,3.943,14.481,19.38,17.489,23.138.066.1.124.053.066-.029" transform="translate(-0.107 -11.662)" fill="#1c262b"/>
        <path id="Tracé_4164" data-name="Tracé 4164" d="M20.287,159.658a6.7,6.7,0,0,0-4.427-3.744.071.071,0,0,0-.042.128,26.536,26.536,0,0,1,4.276,3.753.119.119,0,0,0,.195-.137Z" transform="translate(-1.226 -12.102)" fill="#1c262b"/>
        <path id="Tracé_4165" data-name="Tracé 4165" d="M20.468,161.378a6.691,6.691,0,0,0-4.433-3.744.07.07,0,0,0-.066.075.07.07,0,0,0,.029.053,27.005,27.005,0,0,1,4.276,3.753.119.119,0,1,0,.195-.137Z" transform="translate(-1.24 -12.236)" fill="#1c262b"/>
        <path id="Tracé_4166" data-name="Tracé 4166" d="M20.648,163.1a6.713,6.713,0,0,0-4.433-3.744.074.074,0,0,0-.072.076.075.075,0,0,0,.03.057,26.507,26.507,0,0,1,4.276,3.749.124.124,0,0,0,.2-.137Z" transform="translate(-1.253 -12.369)" fill="#1c262b"/>
        <path id="Tracé_4167" data-name="Tracé 4167" d="M30.076,110.753c-1.031,5.084-22.117,25.365-22.117,25.365l14.7,16.972s29.932-29.885,28.374-41.111C49.674,102.211,35.05,62.928,35.05,62.928H18.179s12.909,42.827,11.9,47.825" transform="translate(-0.618 -4.885)" fill="#1c262b"/>
        <path id="Tracé_4168" data-name="Tracé 4168" d="M24.714,155.119c-1.953-2.432-1.359-1.763-3.326-4.172-.95-1.178-7.345-8.922-8.443-9.863-.024,0-.062,0-.048.042.738,1.245,7.245,8.871,8.239,10.035,2.024,2.376,1.468,1.668,3.521,4.015.024.042.1-.015.057-.057" transform="translate(-1.001 -10.951)" fill="#29373e"/>
        <path id="Tracé_4169" data-name="Tracé 4169" d="M33.488,109.3c-.243-1.268-.517-2.532-.784-3.8q-.83-3.867-1.743-7.72-1.815-7.63-3.966-15.18c-1.425-5.05-2.96-10.092-4.7-15.035-.219-.612-.442-1.226-.665-1.834a.038.038,0,0,0-.051-.018.039.039,0,0,0-.02.042c1.515,4.961,3.079,9.9,4.5,14.89s2.727,9.977,3.966,14.976c.623,2.518,1.2,5.045,1.763,7.578q.414,1.866.813,3.735a26.583,26.583,0,0,1,.7,3.848,5.848,5.848,0,0,1-.988,3.468c-.632,1.036-1.378,2.01-2.1,2.984C28.79,119.187,15.04,134.486,14.6,134.9c-.033.033,0,.081.053.053,1.845-1.66,13.493-14.254,14.976-16.22q1.1-1.425,2.143-2.931a11.6,11.6,0,0,0,1.677-2.952,6.983,6.983,0,0,0,.042-3.558" transform="translate(-1.132 -5.1)" fill="#29373e"/>
        <path id="Tracé_4170" data-name="Tracé 4170" d="M26.327,152.653l3.64,17.755c.047,3.572.157,6.7.361,8.314a.075.075,0,0,0,0,.029,2.487,2.487,0,0,0,.277,1.1h.024c1.074.7,29.623,1.15,30.623.83s.166-3.2-.922-4.1-11.954-5.962-11.954-5.962l-3.8-17.722Z" transform="translate(-2.044 -11.849)" fill="#c75e56"/>
        <path id="Tracé_4171" data-name="Tracé 4171" d="M61.511,181.925c-1,.318-29.552-.124-30.623-.83h-.024a2.515,2.515,0,0,1-.277-1.1.075.075,0,0,1,0-.029c-.209-1.61-.314-4.751-.362-8.314l-.632-3.088H47.919l.713,3.326s10.856,5.06,11.959,5.962,1.928,3.767.921,4.07" transform="translate(-2.297 -13.084)" fill="#e6e6e6"/>
        <path id="Tracé_4172" data-name="Tracé 4172" d="M61.564,182.169c-1,.323-29.552-.119-30.623-.83-.413-.261-.594-4.427-.665-9.465v-.157L48.7,171.8v.309s10.852,5.06,11.954,5.962,1.912,3.795.909,4.1" transform="translate(-2.35 -13.329)" fill="#2a944b"/>
        <path id="Tracé_4173" data-name="Tracé 4173" d="M61.424,181.809c-4.813-.19-24.231-.513-29.006-.342-.038,0-.038.029,0,.033,4.751.294,24.188.475,28.982.389.143,0,.143-.074.024-.08" transform="translate(-2.514 -14.082)" fill="#1c262b"/>
        <path id="Tracé_4174" data-name="Tracé 4174" d="M51.432,172.216a6.713,6.713,0,0,0-5.677,1.2c-.057.053,0,.133.076.114a26.556,26.556,0,0,1,5.588-1.074.119.119,0,0,0,.014-.238Z" transform="translate(-3.55 -13.353)" fill="#1c262b"/>
        <path id="Tracé_4175" data-name="Tracé 4175" d="M52.9,173.133a6.7,6.7,0,0,0-5.678,1.2c-.057.053,0,.133.077.114a26.547,26.547,0,0,1,5.587-1.074.119.119,0,1,0,.014-.238Z" transform="translate(-3.664 -13.424)" fill="#1c262b"/>
        <path id="Tracé_4176" data-name="Tracé 4176" d="M54.368,174.05a6.763,6.763,0,0,0-5.7,1.2c-.057.053,0,.133.076.114a26.663,26.663,0,0,1,5.587-1.074.12.12,0,0,0,.038-.237Z" transform="translate(-3.776 -13.495)" fill="#1c262b"/>
        <path id="Tracé_4177" data-name="Tracé 4177" d="M33.339,62.924a69.58,69.58,0,0,0-1.449,8.419c-.351,3.53-.793,6.651-1.264,7.041s-3.2,2.152-4.1,2.7c0,0,8.314,25.181,10.452,33.595,3.1,12.175,10.562,48.714,10.562,48.714H27.7s-6.034-34.778-8.67-46.371C16.77,107.086,8.1,77.271,8.1,77.271a17.326,17.326,0,0,1,.7-14.339s24.539-.023,24.532-.008" transform="translate(-0.534 -4.884)" fill="#1c262b"/>
        <path id="Tracé_4178" data-name="Tracé 4178" d="M48.647,167.659c-3.117,0-2.224-.057-5.341-.038-1.525,0-11.555.081-12.98.338-.029,0-.029.057,0,.062,1.425.214,11.46-.029,12.985-.066,3.117-.076,2.224-.092,5.341-.2a.047.047,0,0,0,.034-.057.046.046,0,0,0-.039-.035Z" transform="translate(-2.352 -13.011)" fill="#29373e"/>
        <path id="Tracé_4179" data-name="Tracé 4179" d="M33.689,78.607a37.748,37.748,0,0,0-5.473,3.663.067.067,0,0,0,.068.116l0,0c1.858-1.164,3.758-2.295,5.544-3.559.143-.092,0-.3-.142-.219" transform="translate(-2.188 -6.1)" fill="#29373e"/>
        <path id="Tracé_4180" data-name="Tracé 4180" d="M32.245,63.728c0-.066-.137-.062-.128,0a66.229,66.229,0,0,1,.7,6.695c.066,1.04.124,6.826-1.72,6.69-.3-.024-.5-.29-.618-.731a6.865,6.865,0,0,1-.033-1.772c0-1.217,0-2.428-.1-3.64a32.764,32.764,0,0,0-1.111-6.684.058.058,0,0,0-.056-.058.057.057,0,0,0-.058.057h0a61.406,61.406,0,0,1,.893,9.326c0,1.506-.389,3.839,1.188,3.825s2.038-3.881,2.072-4.927a34.273,34.273,0,0,0-1.026-8.781" transform="translate(-2.26 -4.943)" fill="#29373e"/>
        <path id="Tracé_4181" data-name="Tracé 4181" d="M31.317,78.408a9.822,9.822,0,0,0-.214,1.235,2.655,2.655,0,0,0,0,.988.071.071,0,0,0,.1.033.068.068,0,0,0,.033-.033,3.468,3.468,0,0,0,.267-1c.081-.385.166-.769.232-1.155a.209.209,0,0,0-.413-.066Z" transform="translate(-2.411 -6.073)" fill="#29373e"/>
        <path id="Tracé_4182" data-name="Tracé 4182" d="M26.51,153.65c-.053-.475-.114-.917-.176-1.378-.128-.879-.277-1.753-.409-2.632-.271-1.763-.575-3.521-.888-5.279-.623-3.505-1.34-7-2.1-10.452-.428-1.967-.922-3.91-1.449-5.849-.038-.137-.228-.071-.2.062.318,1.777.627,3.554.988,5.321s.727,3.53,1.074,5.3c.694,3.492,1.34,6.989,2.029,10.481.195.988.369,1.977.561,2.96.1.475.2.983.3,1.476s.256.95.338,1.458c0,.048.076.029.071,0-.072-.51-.081-.99-.138-1.465" transform="translate(-1.652 -9.934)" fill="#29373e"/>
        <path id="Tracé_4183" data-name="Tracé 4183" d="M40.747,123.768c-.665-3.293-1.553-6.542-2.452-9.777-1.8-6.5-3.925-12.933-6.048-19.328q-.912-2.767-1.829-5.544c-.309-.95-1.8-5.9-1.99-6.381a.04.04,0,0,0-.076.024c.428,1.7,1.015,4.172,1.515,5.853s1.021,3.326,1.539,4.961c1.015,3.25,2.043,6.494,3.026,9.754,1.948,6.438,3.874,12.875,5.459,19.418.442,1.829.884,3.663,1.291,5.5s.746,3.69,1.131,5.534c0,.048.092.038.092,0a100.189,100.189,0,0,0-1.659-10.016" transform="translate(-2.201 -6.42)" fill="#29373e"/>
        <path id="Tracé_4184" data-name="Tracé 4184" d="M26.88,139.528c-1.093-6.281-2.4-12.529-3.853-18.738s-3.079-12.438-4.866-18.591-3.768-12.248-5.9-18.292a76.507,76.507,0,0,1-2.694-8.7,20.806,20.806,0,0,1-.3-9.07,15.455,15.455,0,0,1,.68-2.2c0-.047-.053-.092-.071-.038-2.375,5.559-.841,11.64.979,17.128.993,3,2.057,5.982,3.044,8.99q1.511,4.642,2.894,9.308c1.834,6.18,3.535,12.381,5.056,18.632s2.879,12.544,4.076,18.876,2.2,12.719,3.228,19.1c.133.83.238,1.66.347,2.49,0,.048.076.048.071,0-.751-6.3-1.6-12.61-2.69-18.886" transform="translate(-0.672 -4.957)" fill="#29373e"/>
        <path id="Tracé_4185" data-name="Tracé 4185" d="M26.629,34.531c1.877,7.635,6.423,19.48,10.452,19.432C40.75,53.9,48.93,47.4,52.356,45.269S48.08,34.74,46.132,36.1c-3.044,2.1-7.6,5.863-8.372,5.615-.95-.309-2.181-2.666-7.656-9.626-2.247-2.851-4.281-.808-3.476,2.442" transform="translate(-2.053 -2.386)" fill="#c75e56"/>
        <path id="Tracé_4186" data-name="Tracé 4186" d="M51.648,32.931a15.357,15.357,0,0,1,5.226-1.325c1.805.033,3.287,2.4,3.287,3.084s-.68,4.913-2.476,4.913-.713-3.25-.779-3.625-.133-.85-.475-.813-6.267,2.851-6.267,2.851Z" transform="translate(-3.894 -2.453)" fill="#c75e56"/>
        <path id="Tracé_4187" data-name="Tracé 4187" d="M51.9,33.154c.1,0,4.913-1.9,6.708-1.862s3.283,2.4,3.283,3.079-.674,4.913-2.471,4.913-.713-3.25-.779-3.625-.138-.846-.475-.813S51.895,37.7,51.895,37.7Z" transform="translate(-4.028 -2.429)" fill="#c75e56"/>
        <path id="Tracé_4188" data-name="Tracé 4188" d="M59.056,39.345a2.122,2.122,0,0,1-.294-1.06,3.561,3.561,0,0,1,.062-1.145,5.942,5.942,0,0,0,.219-.988,1.981,1.981,0,0,0-.252-.95c-.137-.252-.4-.166-.627-.086a9.053,9.053,0,0,0-.95.442c-.347.171-.684.347-1.027.523a9.6,9.6,0,0,0-1.04.575.028.028,0,0,0,0,.041.027.027,0,0,0,.022.007,9.312,9.312,0,0,0,.908-.409l1.027-.475c.323-.143.636-.3.95-.442a1.079,1.079,0,0,1,.475-.143c.137.033.2.369.232.475a1.653,1.653,0,0,1-.062.95,5.311,5.311,0,0,0-.184.983,2.579,2.579,0,0,0,.076.95,3.738,3.738,0,0,0,.428.769c.013.053.065.018.037-.018" transform="translate(-4.28 -2.72)" fill="#1c262b"/>
        <path id="Tracé_4189" data-name="Tracé 4189" d="M45.72,37.5s4.974-4.537,6.01-5.436c2.081-1.81,10.832-5.383,12.049-5.511s1.66,2.375-4.276,4.965c-3.126,1.373-3.69,3.165-3.625,4.157s1.007,2.851,2.68,2.8,2.756-2.485,4.276-2.756.523,2.542-.561,4.166a10.294,10.294,0,0,1-4.5,3.511c-1.425.541-5.92,2.471-5.92,2.471Z" transform="translate(-3.549 -2.061)" fill="#c75e56"/>
        <path id="Tracé_4190" data-name="Tracé 4190" d="M61.48,37.713a4.2,4.2,0,0,1-2.167,1.15,2.03,2.03,0,0,1-1.81-1.221,3.151,3.151,0,0,1-.442-2.306,3.893,3.893,0,0,1,1.145-1.9,9.536,9.536,0,0,1,2.266-1.506c.033,0,0-.071-.033-.053-.769.342-3.165,1.321-3.64,3.435a3.248,3.248,0,0,0,.475,2.375A2.293,2.293,0,0,0,59,39.056c.988.081,1.834-.722,2.547-1.321.019-.022-.009-.046-.062-.022" transform="translate(-4.405 -2.474)" fill="#1c262b"/>
        <path id="Tracé_4191" data-name="Tracé 4191" d="M44.156,37.108,51.6,48.663S39.79,55.276,36.45,54.212,28.065,43.569,26,35.165s3.084-5.184,5.084-2.589,6.348,8.6,6.585,8.524,6.489-3.991,6.489-3.991" transform="translate(-1.981 -2.309)" fill="#354952"/>
        <path id="Tracé_4192" data-name="Tracé 4192" d="M43.273,52.814c-2.689,1.1-5.33,1.9-6.708,1.549l-.119-.033c-3.326-1.069-8.385-10.642-10.452-19.047a13.09,13.09,0,0,1-.475-3.454v-.323a.4.4,0,0,1,0-.081.463.463,0,0,1,.024-.184Z" transform="translate(-1.981 -2.425)" fill="#1c262b"/>
        <path id="Tracé_4193" data-name="Tracé 4193" d="M48.839,48.323c-.232-.413-.475-.817-.713-1.226-.475-.817-3.364-5.654-4.5-7.126-.029-.038-.092,0-.066.053.793,1.687,3.8,6.438,4.276,7.221l.769,1.2c.261.4.57.769.83,1.169.029.038.092,0,.066-.033-.236-.41-.425-.848-.659-1.256" transform="translate(-3.38 -3.101)" fill="#1c262b"/>
        <path id="Tracé_4194" data-name="Tracé 4194" d="M6.963,67.609c.071.081,30.075-.137,30.346-.446.375-.437-6.733-32.873-9.849-36.859-.67-.85-2.851-1.069-4.689-.817a8.34,8.34,0,0,0-1.425.3H21.3a3.366,3.366,0,0,0-1.04.523c-5.1,4.151-9.275,18.53-10.238,22.857-1.6,7.126-3.311,14.162-3.06,14.438" transform="translate(-0.539 -2.281)" fill="#fff"/>
        <path id="Tracé_4195" data-name="Tracé 4195" d="M20.786,29.906S22.739,43.261,23.2,46.715s.024,21.741.024,21.741L4.4,70.043S8.343,57.9,8.387,57.13c0,0,3.121-14.586,6.342-20.615a18.238,18.238,0,0,1,6.057-6.609" transform="translate(-0.342 -2.321)" fill="#354952"/>
        <path id="Tracé_4196" data-name="Tracé 4196" d="M29.4,30.21s2.138,13.46,2.376,14.574S35.25,67.85,35.25,67.85l4.713.1L37.408,57.92S31.667,33.056,29.4,30.21" transform="translate(-2.282 -2.345)" fill="#354952"/>
        <path id="Tracé_4197" data-name="Tracé 4197" d="M27.393,33.967c-1.425.161-4.139-1.829-4.894-3.939-.053-.143.375-1.515.813-3.207.261-1.027.532-2.176.7-3.24.033-.219,6.433,2.684,6.433,2.684a17.063,17.063,0,0,0-1.291,3.991,2.408,2.408,0,0,0-.024.446v.071c0,.859-.185,3.015-1.734,3.193" transform="translate(-1.746 -1.829)" fill="#c75e56"/>
        <path id="Tracé_4198" data-name="Tracé 4198" d="M29.276,30.685a.457.457,0,0,1,0,.071,4.666,4.666,0,0,1-.689-.071c-3.925-.707-4.181-5.8-4.186-7.084,1.164.361,6.18,2.646,6.18,2.646a17.142,17.142,0,0,0-1.291,4,2.718,2.718,0,0,0-.014.442" transform="translate(-1.894 -1.832)" fill="#1c262b"/>
        <path id="Tracé_4199" data-name="Tracé 4199" d="M24.173,14.1c-1.031,2.29-.636,9.331.864,11.08,2.176,2.532,6.18,3.254,8.433.537,2.2-2.632,1.52-11.8-.195-13.432-2.532-2.406-7.574-1.588-9.1,1.815" transform="translate(-1.832 -0.846)" fill="#c75e56"/>
        <path id="Tracé_4200" data-name="Tracé 4200" d="M30.9,19.748a.034.034,0,0,0-.034.034v.008c.038.475,0,1.021-.418,1.2v.029c.537-.1.565-.828.451-1.27" transform="translate(-2.363 -1.533)" fill="#1c262b"/>
        <path id="Tracé_4201" data-name="Tracé 4201" d="M30.4,19.233c-.765,0-.746,1.515-.038,1.53s.683-1.516.038-1.53" transform="translate(-2.315 -1.493)" fill="#1c262b"/>
        <path id="Tracé_4202" data-name="Tracé 4202" d="M33.918,19.8s.038.024.038.042c0,.475.057,1.021.475,1.173v.029c-.513-.071-.6-.793-.513-1.244" transform="translate(-2.63 -1.537)" fill="#1c262b"/>
        <path id="Tracé_4203" data-name="Tracé 4203" d="M34.336,19.254c.765-.066.841,1.463.133,1.525s-.775-1.468-.133-1.525" transform="translate(-2.631 -1.494)" fill="#1c262b"/>
        <path id="Tracé_4204" data-name="Tracé 4204" d="M29.747,18.389a6.19,6.19,0,0,0,.594-.219,1.03,1.03,0,0,0,.553-.327.331.331,0,0,0-.057-.395.813.813,0,0,0-.813-.071,1.183,1.183,0,0,0-.674.517.346.346,0,0,0,.15.467.343.343,0,0,0,.244.028Z" transform="translate(-2.275 -1.343)" fill="#1c262b"/>
        <path id="Tracé_4205" data-name="Tracé 4205" d="M34.9,18.318c-.214-.033-.4-.1-.612-.152a1.036,1.036,0,0,1-.594-.271.328.328,0,0,1,0-.4.8.8,0,0,1,.8-.157,1.169,1.169,0,0,1,.727.442.347.347,0,0,1-.318.537Z" transform="translate(-2.61 -1.342)" fill="#1c262b"/>
        <path id="Tracé_4206" data-name="Tracé 4206" d="M30.511,24.532c.114.109.232.261.4.271a1.2,1.2,0,0,0,.508-.124h.024a.636.636,0,0,1-.6.266.474.474,0,0,1-.375-.418c-.008,0,.042-.015.042,0" transform="translate(-2.365 -1.903)" fill="#1c262b"/>
        <path id="Tracé_4207" data-name="Tracé 4207" d="M31.03,22.548a1.62,1.62,0,0,0,1.088.707,1.967,1.967,0,0,0,.579,0,.474.474,0,0,0,.114,0h.1a.119.119,0,0,0,.092-.109.208.208,0,0,0,0-.048v-.038c0-.369-.038-.922-.038-.922.137.062.822.361.808.171a24.357,24.357,0,0,0-.684-4.889.043.043,0,0,0-.086,0c.047,1.525.361,3.026.437,4.557a2.844,2.844,0,0,0-.765-.223c-.053,0,.1,1.074.081,1.24a2.239,2.239,0,0,1-1.681-.475c-.051-.037-.051-.008-.051.03" transform="translate(-2.409 -1.349)" fill="#1c262b"/>
        <path id="Tracé_4208" data-name="Tracé 4208" d="M32.473,23.506a1.892,1.892,0,0,1-.76.6.847.847,0,0,1-.523.038c-.38-.092-.394-.442-.327-.738a1.887,1.887,0,0,1,.166-.475,2.491,2.491,0,0,0,1.444.572" transform="translate(-2.393 -1.78)" fill="#1c262b"/>
        <path id="Tracé_4209" data-name="Tracé 4209" d="M31.713,24.17a.847.847,0,0,1-.523.038c-.38-.092-.394-.442-.327-.738a.888.888,0,0,1,.85.7" transform="translate(-2.393 -1.822)" fill="#e984ad"/>
        <path id="Tracé_4210" data-name="Tracé 4210" d="M34.3,14.574c-.266-.6-.57-1.2-.95-1.316s-.594.769-1.425.83c-1.116.092-1.66-.95-3.228-1.021-2.238-.133-3.207,1.753-3.228,4.922,0,2.851-1.729,3.121-1.729,3.121s-1.107-6.243.636-8.334a6.71,6.71,0,0,1,8.514-1.1c1.026.715,1.41,2.9,1.41,2.9" transform="translate(-1.815 -0.825)" fill="#1c262b"/>
        <path id="Tracé_4211" data-name="Tracé 4211" d="M25.087,20.6s-1.321-2.375-2.375-1.948-.238,3.8.9,4.376a1.216,1.216,0,0,0,1.666-.43c.009-.015.018-.03.026-.045Z" transform="translate(-1.725 -1.444)" fill="#c75e56"/>
        <path id="Tracé_4212" data-name="Tracé 4212" d="M23.014,19.7s-.024,0,0,.029a3.06,3.06,0,0,1,1.378,2.081.67.67,0,0,0-.884-.341.726.726,0,0,0-.1.052c-.024,0,0,.048,0,.048a.746.746,0,0,1,.793.347,3.348,3.348,0,0,1,.318.7c.033.076.171.053.152-.038.137-1.079-.532-2.647-1.663-2.88" transform="translate(-1.786 -1.529)" fill="#1c262b"/>
        <path id="Tracé_4213" data-name="Tracé 4213" d="M17.76,38.612c1.325,7.782,7.92,22.331,12.175,23.685,4.932,1.586,22.036-3.881,25.395-6.343,1.335-.979-5.787-9.593-7.45-8.984-6.965,2.561-13.142,3.874-14.035,3.269-1.378-.95-7-8.99-10.652-13.982-4.607-6.277-6.032-1.136-5.434,2.356" transform="translate(-1.369 -2.585)" fill="#c75e56"/>
        <path id="Tracé_4214" data-name="Tracé 4214" d="M64.891,31.888l-7.6,10.054a.428.428,0,0,0-.013.605.424.424,0,0,0,.2.117l5.858,1.8a.988.988,0,0,0,1-.351l7.6-10.054c.223-.3.143-.618-.184-.718l-5.858-1.8A.992.992,0,0,0,64.891,31.888Z" transform="translate(-4.437 -2.446)" fill="#1c262b"/>
        <path id="Tracé_4215" data-name="Tracé 4215" d="M64.334,31.766l-7.6,10.054a.422.422,0,0,0,.19.718l5.853,1.8a.987.987,0,0,0,1-.356l7.6-10.054a.422.422,0,0,0-.19-.718l-5.863-1.823a.987.987,0,0,0-.988.375Z" transform="translate(-4.393 -2.435)" fill="#29373e"/>
        <path id="Tracé_4216" data-name="Tracé 4216" d="M64.372,32.4l-6.965,9.217c-.214.277-.148.585.143.674l5.226,1.61a.921.921,0,0,0,.917-.347l6.969-9.224c.433-.57.29-.769,0-.86l-1.05-.323a.229.229,0,0,0-.214.1v.033a.276.276,0,0,1-.376.106l0,0-2.428-.746c-.137-.042-.247-.076-.109-.252l.024-.033c.057-.076.053-.152,0-.171l-1.05-.323c-.315-.09-.685.011-1.085.539" transform="translate(-4.446 -2.471)" fill="#fff"/>
        <path id="Tracé_4217" data-name="Tracé 4217" d="M68.5,32.757l.66.2a.066.066,0,0,0,.071-.024v-.048l-.66-.2a.082.082,0,0,0-.071.024s-.027.04,0,.048" transform="translate(-5.316 -2.537)" fill="#fff"/>
        <path id="Tracé_4218" data-name="Tracé 4218" d="M61.524,38.309l4.451,1.368,2.989-3.958-4.451-1.363Z" transform="translate(-4.776 -2.667)" fill="#2a944b"/>
        <path id="Tracé_4219" data-name="Tracé 4219" d="M63,39.94l2.6.8.176-.232-2.6-.8Z" transform="translate(-4.89 -3.082)" fill="#959494"/>
        <path id="Tracé_4220" data-name="Tracé 4220" d="M62.173,40.2l3.074.95.086-.119-3.074-.945Z" transform="translate(-4.826 -3.112)" fill="#959494"/>
        <path id="Tracé_4221" data-name="Tracé 4221" d="M62,40.435l3.074.945.092-.114-3.079-.945Z" transform="translate(-4.812 -3.13)" fill="#959494"/>
        <path id="Tracé_4222" data-name="Tracé 4222" d="M61.822,40.667l3.074.945.092-.114-3.081-.945Z" transform="translate(-4.799 -3.148)" fill="#959494"/>
        <path id="Tracé_4223" data-name="Tracé 4223" d="M69.976,34.338l.553.171.071-.092-.553-.171Z" transform="translate(-5.432 -2.658)" fill="#959494"/>
        <path id="Tracé_4224" data-name="Tracé 4224" d="M69.832,34.528l.553.171.076-.092-.553-.171Z" transform="translate(-5.42 -2.673)" fill="#959494"/>
        <path id="Tracé_4225" data-name="Tracé 4225" d="M69.688,34.719l.553.171.071-.092-.553-.171Z" transform="translate(-5.409 -2.688)" fill="#959494"/>
        <path id="Tracé_4226" data-name="Tracé 4226" d="M61.1,39.273a.308.308,0,0,0,.057.161.791.791,0,0,0,.237-.071c.148-.066.232-.2.124-.232a.19.19,0,0,0-.19.076s.066-.114-.024-.143-.213.088-.2.209" transform="translate(-4.743 -3.032)" fill="#2a944b"/>
        <path id="Tracé_4227" data-name="Tracé 4227" d="M59.221,42.371l3.592,1.107.689-.912L59.91,41.459Z" transform="translate(-4.597 -3.218)" fill="#2a944b"/>
        <path id="Tracé_4228" data-name="Tracé 4228" d="M57.316,56.4a42,42,0,0,0,7.55-5.858,23.021,23.021,0,0,0,4.029-6.247c1.553-3.62,2.286-6.272,1.9-7.459-.437-1.378-.561-1.6-4.181,4.409-2.052,3.4-4,3.8-5.7,3.749a26.1,26.1,0,0,0-12.039,2.694s5.516,9.758,8.443,8.713" transform="translate(-3.794 -2.797)" fill="#c75e56"/>
        <path id="Tracé_4229" data-name="Tracé 4229" d="M61.867,45.131c-1.753.029,3.939-3.525,4.029-5.516s-1.858-1.363-3.388-.243c-5.312,3.905-9.326,3.715-12.02,7.445s11.379-1.687,11.379-1.687" transform="translate(-3.892 -2.975)" fill="#c75e56"/>
        <path id="Tracé_4230" data-name="Tracé 4230" d="M56.638,43.082a13.969,13.969,0,0,0-3.274,1.283,8.56,8.56,0,0,0-2.376,2.214c-.029.038.024.092.053.053,1.425-1.763,3.563-2.646,5.6-3.5a.029.029,0,0,0,.012-.039.027.027,0,0,0-.017-.014" transform="translate(-3.957 -3.344)" fill="#1c262b"/>
        <path id="Tracé_4231" data-name="Tracé 4231" d="M45.066,47.477,50.42,60.372S33.909,64.215,30.047,62.88s-9.854-14.429-11.8-22.045c-1.824-7.155.608-11.826,5.7-4.414,5.264,7.635,8.99,12.719,10.277,13.3s10.837-2.249,10.837-2.249" transform="translate(-1.37 -2.536)" fill="#354952"/>
        <path id="Tracé_4232" data-name="Tracé 4232" d="M22.566,52.753c-.223-.546-.475-1.093-.7-1.639-.475-1.093-.95-2.191-1.378-3.326-.884-2.218-1.692-4.466-2.466-6.723a.029.029,0,1,0-.057,0c.422,1.743.95,3.468,1.525,5.165a19.169,19.169,0,0,1-1.054-1.967c0-.033-.071,0-.057,0a10.869,10.869,0,0,0,1.23,2.276q.9,2.565,2.052,5.027c.219.475.446.95.694,1.4s1.72,3.326,2.038,3.768c.024.033.081,0,.066-.029-.147-.49-1.677-3.4-1.9-3.949" transform="translate(-1.395 -3.185)" fill="#1c262b"/>
        <path id="Tracé_4233" data-name="Tracé 4233" d="M48.97,60.232c-.161-.446-.323-.888-.475-1.33-.327-.888-2.313-6.18-3.179-7.806-.024-.042-.092,0-.076.038.475,1.8,2.589,7,2.941,7.863.184.437.361.874.546,1.312s.428.855.608,1.3c0,.042.092,0,.071-.024-.17-.442-.28-.9-.436-1.349" transform="translate(-3.511 -3.965)" fill="#1c262b"/>
        <path id="Tracé_4234" data-name="Tracé 4234" d="M46.192,48.64c-.789.038-7.887,1.687-9.454,2.038a3.213,3.213,0,0,1-1.159.161,1.692,1.692,0,0,1-.922-.7c-.508-.579-1.953-2.266-2.375-2.622-.152-.137-.277-.166-.128.066.247.4,1.539,1.99,2.029,2.556s.884,1.088,1.648,1.06c.338,0,9.906-2.162,10.377-2.376a.093.093,0,0,0-.015-.185" transform="translate(-2.491 -3.68)" fill="#1c262b"/>
      </g>
    </g>
  </g>
</svg>
