<svg id="Groupe_1571" data-name="Groupe 1571" xmlns="http://www.w3.org/2000/svg" xmlns:xlink="http://www.w3.org/1999/xlink" width="158.578" height="160.796" viewBox="0 0 158.578 160.796">
  <defs>
    <clipPath id="clip-path">
      <rect id="Rectangle_4781" data-name="Rectangle 4781" width="167.436" height="160.727" fill="none"/>
    </clipPath>
    <clipPath id="clip-path-3">
      <rect id="Rectangle_4767" data-name="Rectangle 4767" width="8.982" height="13.909" fill="none"/>
    </clipPath>
    <clipPath id="clip-path-4">
      <rect id="Rectangle_4768" data-name="Rectangle 4768" width="17.944" height="6.991" fill="none"/>
    </clipPath>
    <clipPath id="clip-path-5">
      <rect id="Rectangle_4776" data-name="Rectangle 4776" width="32.857" height="9.405" fill="none"/>
    </clipPath>
  </defs>
  <g id="Groupe_1570" data-name="Groupe 1570" clip-path="url(#clip-path)">
    <rect id="Rectangle_4695" data-name="Rectangle 4695" width="13.368" height="4.254" transform="translate(137.105 126.692)" fill="#ebebeb"/>
    <rect id="Rectangle_4696" data-name="Rectangle 4696" width="13.368" height="4.254" transform="translate(127.486 77.628)" fill="#ebebeb"/>
    <g id="Groupe_1569" data-name="Groupe 1569">
      <g id="Groupe_1568" data-name="Groupe 1568" clip-path="url(#clip-path)">
        <path id="Tracé_7056" data-name="Tracé 7056" d="M246.856,8.634a10.272,10.272,0,1,1,8.5,11.779,10.271,10.271,0,0,1-8.5-11.779" transform="translate(-152.005 0)" fill="#ebebeb"/>
        <path id="Tracé_7057" data-name="Tracé 7057" d="M249.558,11.17a9.774,9.774,0,1,1,8.068,11.224,9.774,9.774,0,0,1-8.068-11.224" transform="translate(-153.671 -1.831)" fill="#dbdbdb"/>
        <path id="Tracé_7058" data-name="Tracé 7058" d="M258.077,4.6A9.2,9.2,0,1,1,253.041,16.6,9.2,9.2,0,0,1,258.077,4.6" transform="translate(-155.474 -2.414)" fill="#fff"/>
        <rect id="Rectangle_4726" data-name="Rectangle 4726" width="0.234" height="1.39" transform="translate(105.42 2.424)" fill="#ebebeb"/>
        <rect id="Rectangle_4727" data-name="Rectangle 4727" width="0.234" height="1.39" transform="translate(101.194 3.632) rotate(-30.013)" fill="#ebebeb"/>
        <rect id="Rectangle_4728" data-name="Rectangle 4728" width="0.235" height="1.394" transform="translate(98.238 6.34) rotate(-60.128)" fill="#ebebeb"/>
        <rect id="Rectangle_4729" data-name="Rectangle 4729" width="1.39" height="0.234" transform="translate(97.047 10.801)" fill="#ebebeb"/>
        <rect id="Rectangle_4730" data-name="Rectangle 4730" width="1.39" height="0.234" transform="translate(98.129 15.068) rotate(-30.014)" fill="#ebebeb"/>
        <rect id="Rectangle_4731" data-name="Rectangle 4731" width="1.39" height="0.234" transform="translate(101.192 18.211) rotate(-60.035)" fill="#ebebeb"/>
        <rect id="Rectangle_4732" data-name="Rectangle 4732" width="0.234" height="1.39" transform="translate(105.42 18.022)" fill="#ebebeb"/>
        <rect id="Rectangle_4733" data-name="Rectangle 4733" width="0.234" height="1.39" transform="translate(108.992 17.138) rotate(-30.013)" fill="#ebebeb"/>
        <rect id="Rectangle_4734" data-name="Rectangle 4734" width="0.234" height="1.386" transform="translate(111.628 14.571) rotate(-59.987)" fill="#ebebeb"/>
        <rect id="Rectangle_4735" data-name="Rectangle 4735" width="1.39" height="0.234" transform="translate(112.642 10.801)" fill="#ebebeb"/>
        <rect id="Rectangle_4736" data-name="Rectangle 4736" width="1.386" height="0.234" transform="translate(111.63 7.261) rotate(-30.003)" fill="#ebebeb"/>
        <rect id="Rectangle_4737" data-name="Rectangle 4737" width="1.39" height="0.234" transform="translate(108.996 4.714) rotate(-60.035)" fill="#ebebeb"/>
        <rect id="Rectangle_4738" data-name="Rectangle 4738" width="8.861" height="0.234" transform="translate(102.877 15.877) rotate(-63.04)" fill="#ebebeb"/>
        <rect id="Rectangle_4739" data-name="Rectangle 4739" width="0.311" height="8.726" transform="matrix(0.981, -0.196, 0.196, 0.981, 104.764, 7.831)" fill="#dbdbdb"/>
        <path id="Tracé_7059" data-name="Tracé 7059" d="M90.769,78.427H24.86V2.314H90.769ZM26.392,76.891H89.233V3.85H26.4Z" transform="translate(-15.316 -1.426)" fill="#ebebeb"/>
        <rect id="Rectangle_4740" data-name="Rectangle 4740" width="1.536" height="73.407" transform="translate(41.132 2.827)" fill="#ebebeb"/>
        <rect id="Rectangle_4741" data-name="Rectangle 4741" width="68.7" height="2.138" transform="translate(8.15 3.994)" fill="#ebebeb"/>
        <rect id="Rectangle_4742" data-name="Rectangle 4742" width="68.7" height="2.138" transform="translate(8.15 6.401)" fill="#ebebeb"/>
        <rect id="Rectangle_4743" data-name="Rectangle 4743" width="68.7" height="2.138" transform="translate(8.15 8.804)" fill="#ebebeb"/>
        <rect id="Rectangle_4744" data-name="Rectangle 4744" width="68.7" height="2.138" transform="translate(8.15 11.212)" fill="#ebebeb"/>
        <rect id="Rectangle_4745" data-name="Rectangle 4745" width="68.7" height="2.138" transform="translate(8.15 13.619)" fill="#ebebeb"/>
        <rect id="Rectangle_4746" data-name="Rectangle 4746" width="68.7" height="2.138" transform="translate(8.15 16.022)" fill="#ebebeb"/>
        <rect id="Rectangle_4747" data-name="Rectangle 4747" width="68.7" height="2.138" transform="translate(8.15 18.429)" fill="#ebebeb"/>
        <rect id="Rectangle_4748" data-name="Rectangle 4748" width="68.7" height="2.138" transform="translate(8.15 20.836)" fill="#ebebeb"/>
        <rect id="Rectangle_4749" data-name="Rectangle 4749" width="68.7" height="2.138" transform="translate(8.15 23.239)" fill="#ebebeb"/>
        <rect id="Rectangle_4750" data-name="Rectangle 4750" width="0.384" height="49.29" transform="translate(71.905 3.56)" fill="#263238"/>
        <path id="Tracé_7060" data-name="Tracé 7060" d="M187.383,139.182H186.02l.342-1.958h.68Z" transform="translate(-114.606 -84.543)" fill="#263238"/>
        <rect id="Rectangle_4751" data-name="Rectangle 4751" width="0.384" height="71.303" transform="translate(73.288 3.56)" fill="#263238"/>
        <path id="Tracé_7061" data-name="Tracé 7061" d="M190.989,195.612H189.63l.338-1.958h.683Z" transform="translate(-116.83 -119.309)" fill="#263238"/>
        <rect id="Rectangle_4752" data-name="Rectangle 4752" width="73.464" height="4.472" transform="translate(5.766 0.589)" fill="#dbdbdb"/>
        <rect id="Rectangle_4753" data-name="Rectangle 4753" width="41.416" height="52.154" transform="translate(123.287 18.202)" fill="#ebebeb"/>
        <rect id="Rectangle_4754" data-name="Rectangle 4754" width="31.016" height="0.987" transform="translate(128.416 28.979)" fill="#dbdbdb"/>
        <rect id="Rectangle_4755" data-name="Rectangle 4755" width="26.263" height="0.987" transform="translate(128.416 31.044)" fill="#dbdbdb"/>
        <rect id="Rectangle_4756" data-name="Rectangle 4756" width="20.028" height="0.987" transform="translate(128.416 33.106)" fill="#dbdbdb"/>
        <rect id="Rectangle_4757" data-name="Rectangle 4757" width="29.933" height="0.987" transform="translate(128.416 35.171)" fill="#dbdbdb"/>
        <rect id="Rectangle_4758" data-name="Rectangle 4758" width="27.388" height="0.987" transform="translate(128.416 37.233)" fill="#dbdbdb"/>
        <rect id="Rectangle_4759" data-name="Rectangle 4759" width="28.421" height="0.987" transform="translate(128.416 41.36)" fill="#dbdbdb"/>
        <rect id="Rectangle_4760" data-name="Rectangle 4760" width="10.888" height="0.987" transform="translate(128.416 43.425)" fill="#dbdbdb"/>
        <rect id="Rectangle_4761" data-name="Rectangle 4761" width="21.956" height="0.987" transform="translate(128.416 45.487)" fill="#dbdbdb"/>
        <rect id="Rectangle_4762" data-name="Rectangle 4762" width="29.933" height="0.987" transform="translate(128.416 47.552)" fill="#dbdbdb"/>
        <rect id="Rectangle_4763" data-name="Rectangle 4763" width="25.81" height="0.987" transform="translate(128.416 49.614)" fill="#dbdbdb"/>
        <rect id="Rectangle_4764" data-name="Rectangle 4764" width="27.968" height="0.987" transform="translate(128.416 53.741)" fill="#dbdbdb"/>
        <rect id="Rectangle_4765" data-name="Rectangle 4765" width="16.93" height="0.987" transform="translate(128.416 55.806)" fill="#dbdbdb"/>
        <rect id="Rectangle_4766" data-name="Rectangle 4766" width="16.93" height="0.987" transform="translate(128.416 62.052)" fill="#dbdbdb"/>
        <path id="Tracé_7062" data-name="Tracé 7062" d="M403.447,156.034a3.137,3.137,0,1,1-3.137,3.137,3.137,3.137,0,0,1,3.137-3.137" transform="translate(-246.629 -96.132)" fill="#10a35f"/>
        <path id="Tracé_7063" data-name="Tracé 7063" d="M343.938,57.884a1.7,1.7,0,0,1,1.04.357A.111.111,0,0,1,345,58.4l0,.006a.112.112,0,0,1-.155.025l0,0a1.447,1.447,0,0,0-.9-.315,1.409,1.409,0,1,0,0,2.818,1.381,1.381,0,0,0,.895-.311.108.108,0,0,1,.151.013.091.091,0,0,1,.01.014.107.107,0,0,1,.01.152l-.01.01a1.714,1.714,0,0,1-1.04.349,1.635,1.635,0,0,1,0-3.271h-.012Z" transform="translate(-210.899 -35.662)" fill="#a6a6a6"/>
        <path id="Tracé_7064" data-name="Tracé 7064" d="M352.714,57.88a1.639,1.639,0,1,1-1.552,1.721c0-.028,0-.057,0-.086a1.586,1.586,0,0,1,1.534-1.635h.02m0,3.044a1.409,1.409,0,1,0-1.326-1.487q0,.039,0,.078a1.371,1.371,0,0,0,1.328,1.409" transform="translate(-216.347 -35.658)" fill="#a6a6a6"/>
        <path id="Tracé_7065" data-name="Tracé 7065" d="M361.669,58.5v2.637a.111.111,0,1,1-.219.041.106.106,0,0,1,0-.041V58.185a.107.107,0,0,1,.038-.123.115.115,0,0,1,.157.027l1.954,2.687V58.154a.111.111,0,0,1,.223,0v2.971a.111.111,0,0,1-.111.111h0a.107.107,0,0,1-.084-.042.03.03,0,0,1-.019-.019Z" transform="translate(-222.684 -35.759)" fill="#a6a6a6"/>
        <path id="Tracé_7066" data-name="Tracé 7066" d="M370.983,58.231h-.971a.113.113,0,0,1,0-.227h2.165a.113.113,0,0,1,0,.227h-.971v2.887a.111.111,0,1,1-.223,0V58.231Z" transform="translate(-227.893 -35.736)" fill="#a6a6a6"/>
        <path id="Tracé_7067" data-name="Tracé 7067" d="M379.872,60.512a.583.583,0,0,0-.261-.488,1.119,1.119,0,0,0-.384-.161h-.791v1.275a.115.115,0,0,1-.227,0v-3a.119.119,0,0,1,.1-.111h.921a.921.921,0,0,1,.384,1.754.173.173,0,0,0,.046.023.825.825,0,0,1,.434.718,1.28,1.28,0,0,0,.038.384.173.173,0,0,0,.046.077.123.123,0,0,1,.127.073.13.13,0,0,1-.073.15h-.065a.253.253,0,0,1-.207-.15,1.1,1.1,0,0,1-.088-.541m-.645-2.269h-.795v1.39h.814a.695.695,0,1,0-.019-1.39" transform="translate(-233.013 -35.748)" fill="#a6a6a6"/>
        <path id="Tracé_7068" data-name="Tracé 7068" d="M387.254,60.439h-1.47l-.284.768a.112.112,0,0,1-.1.073h-.042a.119.119,0,0,1-.065-.15l1.117-2.987a.123.123,0,0,1,.111-.069.115.115,0,0,1,.111.069l1.117,2.987a.119.119,0,0,1-.058.15h-.042a.119.119,0,0,1-.107-.073Zm-1.386-.227h1.305l-.653-1.731Z" transform="translate(-237.37 -35.779)" fill="#a6a6a6"/>
        <path id="Tracé_7069" data-name="Tracé 7069" d="M394.488,57.884a1.7,1.7,0,0,1,1.04.357.111.111,0,0,1,.023.155l0,.006a.112.112,0,0,1-.155.025l0,0a1.447,1.447,0,0,0-.9-.315,1.409,1.409,0,1,0,0,2.818,1.382,1.382,0,0,0,.895-.311.108.108,0,0,1,.151.013.089.089,0,0,1,.01.014.107.107,0,0,1,.01.152l-.01.01a1.714,1.714,0,0,1-1.04.349,1.635,1.635,0,1,1,0-3.271h-.012Z" transform="translate(-242.043 -35.662)" fill="#a6a6a6"/>
        <path id="Tracé_7070" data-name="Tracé 7070" d="M402.8,58.231h-.971a.113.113,0,0,1,0-.227H404a.115.115,0,0,1,.111.111.111.111,0,0,1-.107.115h-.975v2.887a.111.111,0,0,1-.223,0Z" transform="translate(-247.498 -35.736)" fill="#a6a6a6"/>
        <path id="Tracé_7071" data-name="Tracé 7071" d="M223.992,261.818h76.055l1.582-31.2H222.41Z" transform="translate(-137.026 -142.08)" fill="#ebebeb"/>
        <path id="Tracé_7072" data-name="Tracé 7072" d="M363.264,250.438h-31.8l-.6-10.834h33.089Zm-31.434-.384H362.9l.645-10.066H331.277Z" transform="translate(-203.847 -147.619)" fill="#dbdbdb"/>
        <path id="Tracé_7073" data-name="Tracé 7073" d="M364.851,284.592H334.888l-.488-9.778h31.062Zm-29.6-.384H364.49l.564-9.01H334.8Z" transform="translate(-206.022 -169.311)" fill="#dbdbdb"/>
        <path id="Tracé_7074" data-name="Tracé 7074" d="M372.7,252.558h-5.344l-.334-2.614h6.016Zm-4.991-.384h4.668l.238-1.847h-5.144Z" transform="translate(-226.119 -153.989)" fill="#dbdbdb"/>
        <path id="Tracé_7075" data-name="Tracé 7075" d="M372.7,286.758h-5.344l-.334-2.614h6.016Zm-4.991-.384h4.668l.238-1.847h-5.144Z" transform="translate(-226.119 -175.06)" fill="#dbdbdb"/>
        <path id="Tracé_7076" data-name="Tracé 7076" d="M265.844,250.438h-31.8l-.6-10.834h33.089Zm-31.434-.384h31.073l.633-10.066H233.868Z" transform="translate(-143.827 -147.619)" fill="#dbdbdb"/>
        <path id="Tracé_7077" data-name="Tracé 7077" d="M267.431,284.592H237.468l-.488-9.778h31.062Zm-29.6-.384H267.07l.564-9.01H237.383Z" transform="translate(-146.002 -169.311)" fill="#dbdbdb"/>
        <path id="Tracé_7078" data-name="Tracé 7078" d="M275.278,252.558h-5.344l-.334-2.614h6.016Zm-4.991-.384h4.664l.238-1.847h-5.144Z" transform="translate(-166.099 -153.989)" fill="#dbdbdb"/>
        <path id="Tracé_7079" data-name="Tracé 7079" d="M275.278,286.758h-5.344l-.334-2.614h6.016Zm-4.991-.384h4.664l.238-1.847h-5.144Z" transform="translate(-166.099 -175.06)" fill="#dbdbdb"/>
        <path id="Tracé_7080" data-name="Tracé 7080" d="M238.977,311.894l-.48,3.4-.96,6.83H235.66V311.894Z" transform="translate(-145.189 -192.156)" fill="#ebebeb"/>
        <path id="Tracé_7081" data-name="Tracé 7081" d="M238.977,311.894l-.48,3.4H235.66v-3.4Z" transform="translate(-145.189 -192.156)" fill="#dbdbdb"/>
        <path id="Tracé_7082" data-name="Tracé 7082" d="M406.87,311.894l.476,3.4.964,6.83h1.877V311.894Z" transform="translate(-250.67 -192.156)" fill="#ebebeb"/>
        <path id="Tracé_7083" data-name="Tracé 7083" d="M406.87,311.894l.476,3.4h2.841v-3.4Z" transform="translate(-250.67 -192.156)" fill="#dbdbdb"/>
        <path id="Tracé_7084" data-name="Tracé 7084" d="M108.372,371.644c38.258,0,69.272,4.041,69.272,9.026S146.63,389.7,108.372,389.7,39.1,385.654,39.1,380.67s31.014-9.026,69.272-9.026" transform="translate(-24.089 -228.968)" fill="#ebebeb"/>
        <path id="Tracé_7085" data-name="Tracé 7085" d="M20.739,343.544c11.453,0,20.739,2.224,20.739,4.968s-9.285,4.968-20.739,4.968S0,351.255,0,348.512s9.285-4.968,20.739-4.968" transform="translate(0 -211.656)" fill="#ebebeb"/>
        <path id="Tracé_7086" data-name="Tracé 7086" d="M2.94,338.242l20.788-.092,20.788-.035,41.577-.061,41.577.061,20.788.035,20.788.092-20.788.1-20.788.035-41.577.061-41.577-.061-20.788-.035Z" transform="translate(-1.811 -208.273)" fill="#263238"/>
        <path id="Tracé_7087" data-name="Tracé 7087" d="M42.327,143.043S32,141.6,34.414,129.134c0,0,11.536,2.591,7.912,13.909" transform="translate(-20.978 -79.559)" fill="#10a35f"/>
        <g id="Groupe_1561" data-name="Groupe 1561" transform="translate(13.072 49.575)" opacity="0.1" style="mix-blend-mode: normal;isolation: isolate">
          <g id="Groupe_1560" data-name="Groupe 1560">
            <g id="Groupe_1559" data-name="Groupe 1559" clip-path="url(#clip-path-3)">
              <path id="Tracé_7088" data-name="Tracé 7088" d="M42.327,143.043S32,141.6,34.414,129.134c0,0,11.536,2.591,7.912,13.909" transform="translate(-34.049 -129.134)"/>
            </g>
          </g>
        </g>
        <path id="Tracé_7089" data-name="Tracé 7089" d="M45.332,144.585a18.9,18.9,0,0,0-.7-1.854.71.71,0,0,0-.027-.238c0-.173-.031-.342-.042-.514-.031-.384-.054-.745-.077-1.117-.042-.745-.088-1.49-.1-2.234,0-.042-.065-.038-.065,0v2.238c0,.384.038.745.061,1.117v.25a22.163,22.163,0,0,0-2.073-3.54,16.954,16.954,0,0,0-1.086-1.432c-.411-.472-.845-.921-1.263-1.386-.027-.031-.069,0-.042.046a18.323,18.323,0,0,1,1.989,2.645c.315.472.61.96.894,1.455l-.1-.035-.384-.15-.845-.319c-.553-.207-1.106-.407-1.658-.618-.035,0-.058.046-.023.058.549.219,1.09.449,1.635.683l.8.346.4.165a1.145,1.145,0,0,0,.273.1c.207.384.415.749.607,1.133a27,27,0,0,1,1.259,2.975c.027.069.05.142.077.215a6.617,6.617,0,0,0-.848-.411l-1.067-.484c-.726-.334-1.443-.672-2.138-1.063a.031.031,0,0,0-.031.054c.71.384,1.405.8,2.115,1.186.357.192.714.384,1.079.557a3.3,3.3,0,0,0,.967.384,12.205,12.205,0,0,1,.68,2.929c.115,1.409.1,2.829.138,4.242m.035,0c.1-1.282.161-2.576.169-3.862a11.249,11.249,0,0,0-.61-3.517Z" transform="translate(-24.505 -83.704)" fill="#263238"/>
        <path id="Tracé_7090" data-name="Tracé 7090" d="M49.926,139.458a12.4,12.4,0,0,0-.1,2.2.015.015,0,0,0,.031,0c.042-.729.05-1.459.134-2.184,0-.038-.058-.054-.061-.015" transform="translate(-30.689 -85.906)" fill="#263238"/>
        <path id="Tracé_7091" data-name="Tracé 7091" d="M40.215,140.068a8.2,8.2,0,0,1-1.328-.653c-.035-.023-.065.035-.031.054a5.031,5.031,0,0,0,1.344.641c.023.008.061-.031.015-.042" transform="translate(-23.929 -85.89)" fill="#263238"/>
        <path id="Tracé_7092" data-name="Tracé 7092" d="M55.048,174.628c0-1.152-.031-2.28-.042-3.421-.023-3.789-.054-7.578-.123-11.367q-.081-4.515-.211-9.022a.046.046,0,0,0-.023-.038v-2.465c0-.023-.023-.031-.05-.031s-.05,0-.046.031v2.469c0,1.232-.027.019-.027.035-.15,5.375-.284,10.707-.319,16.063v3.267q-.058,5.233-.042,10.473v1.666c0,3.194.035,6.388.035,9.6,0,.169.192.257.384.265s.48-.084.48-.28c0-3.52.023-7.045.023-10.565-.012-2.234-.012-4.457-.038-6.676" transform="translate(-33.369 -91.357)" fill="#263238"/>
        <path id="Tracé_7093" data-name="Tracé 7093" d="M20.954,204.573s-4.968-3.678-9.678-1.2-5.455,12.07-5.455,12.07,6.91.99,11.279-3.16c4.2-3.993,3.854-7.713,3.854-7.713" transform="translate(-3.586 -124.769)" fill="#10a35f"/>
        <path id="Tracé_7094" data-name="Tracé 7094" d="M27.468,207.127a5.945,5.945,0,0,0-2.875-.384,4.069,4.069,0,0,0-.607-.061l-.7-.054-1.447-.1c-.979-.073-1.962-.134-2.941-.234a.034.034,0,0,0-.021.044.034.034,0,0,0,.021.021c.967.123,1.92.261,2.9.357.5.05,1,.1,1.5.138l.361.035c-.146.035-.3.069-.441.111a11.857,11.857,0,0,0-2.25.914c-.384.069-.768.18-1.152.269-.614.146-1.225.3-1.835.465-1.205.315-2.4.672-3.6,1.021-.038,0-.019.069,0,.058,1.194-.292,2.4-.56,3.6-.845l1.743-.418.457-.108a14.693,14.693,0,0,0-3.528,3.071A19.38,19.38,0,0,0,14.2,215.3c0,.035.031.069.054.035a18.9,18.9,0,0,1,2.968-3.874c-.023.065-.042.134-.065.2l-.276.875c-.184.587-.384,1.171-.545,1.758,0,.038.05.05.061,0,.211-.568.411-1.152.61-1.708.1-.28.2-.557.292-.837q.081-.219.15-.438a.526.526,0,0,1,.05-.134,18.039,18.039,0,0,1,1.758-1.5,13.581,13.581,0,0,1,2.637-1.509,1.139,1.139,0,0,1-.05.253c-.05.227-.1.453-.146.68-.1.468-.188.941-.28,1.413-.188.96-.3,1.92-.484,2.895,0,.042.054.058.061,0,.223-.967.511-1.92.726-2.887.107-.484.215-.967.319-1.451l.138-.683c.023-.127.054-.253.069-.384l.269-.111a7.791,7.791,0,0,1,4.131-.564,4.054,4.054,0,0,1,2.991,2.4c.046.107.215.038.188-.073a3.847,3.847,0,0,0-2.357-2.522" transform="translate(-8.749 -127.097)" fill="#263238"/>
        <path id="Tracé_7095" data-name="Tracé 7095" d="M27.734,219.088c-.138.63-.28,1.259-.418,1.889a13.664,13.664,0,0,0-.346,1.835c0,.027.031.027.038,0a13.812,13.812,0,0,0,.422-1.847c.123-.622.246-1.244.365-1.866.008-.035-.054-.05-.061-.012" transform="translate(-16.616 -134.965)" fill="#263238"/>
        <path id="Tracé_7096" data-name="Tracé 7096" d="M13.338,223.292c-.633.319-1.244.683-1.92.948a.031.031,0,0,0,.023.058,20.091,20.091,0,0,0,1.931-.983s0-.031-.035-.023" transform="translate(-7.023 -137.568)" fill="#263238"/>
        <path id="Tracé_7097" data-name="Tracé 7097" d="M30.265,168.877s-6.07.384-8.9-3.613-2.188-9.72-2.188-9.72,6.377.768,8.907,3.651,2.177,9.682,2.177,9.682" transform="translate(-11.779 -95.83)" fill="#10a35f"/>
        <path id="Tracé_7098" data-name="Tracé 7098" d="M36.83,178.478c-.211-.649-.472-1.29-.718-1.92s-.488-1.221-.768-1.82a37.177,37.177,0,0,0-1.816-3.574c-.43-.737-.891-1.455-1.363-2.161a2.329,2.329,0,0,0-.046-.322c-.027-.188-.054-.384-.084-.564-.061-.384-.127-.768-.192-1.152-.138-.841-.311-1.674-.445-2.511,0-.038-.069-.038-.061,0,.119.829.2,1.662.319,2.492.058.407.111.814.173,1.221l.069.441a43.1,43.1,0,0,0-3-3.9l-.418-.484c0-.046-.038-.092-.058-.138-.046-.115-.088-.23-.131-.349-.092-.238-.177-.48-.265-.722-.169-.476-.322-.956-.453-1.443,0-.038-.069-.019-.058,0,.123.5.25.994.384,1.486.073.238.15.472.234.706a.35.35,0,0,0,.042.115c-.768-.845-1.586-1.658-2.4-2.465-.027-.027-.069,0-.042.046a43.548,43.548,0,0,1,4.3,5.267,3.671,3.671,0,0,0-.449-.111c-.468-.092-.937-.157-1.409-.219-.99-.127-1.977-.25-2.96-.407-.042,0-.058.054,0,.061.941.184,1.87.384,2.806.614.441.1.883.184,1.324.273a8.309,8.309,0,0,1,1.067.3c.1.142.2.28.3.422.445.645.871,1.309,1.29,1.973l-.618-.119c-.468-.092-.941-.177-1.409-.253-.925-.154-1.854-.315-2.768-.522-.038,0-.054.054,0,.061.929.219,1.847.472,2.768.718.445.119.894.227,1.344.326l.672.146a1.532,1.532,0,0,0,.276.046c.887,1.436,1.716,2.91,2.488,4.411.338.66.664,1.328.979,2s.6,1.394.9,2.092a.107.107,0,1,0,.2-.065" transform="translate(-15.508 -99.441)" fill="#263238"/>
        <path id="Tracé_7099" data-name="Tracé 7099" d="M38.664,166.724c-.115-.58-.238-1.152-.384-1.735,0-.038-.069-.019-.061,0,.115.568.227,1.152.33,1.708a16.96,16.96,0,0,0,.342,1.7,12,12,0,0,0-.227-1.674" transform="translate(-23.546 -101.635)" fill="#263238"/>
        <path id="Tracé_7100" data-name="Tracé 7100" d="M27.152,167.854c-.28-.142-.58-.253-.871-.384l-.461-.18-.234-.092a1.288,1.288,0,0,1-.257-.115c-.046-.031-.073.046-.027.054a1.073,1.073,0,0,1,.257.107l.23.1.445.2a8.239,8.239,0,0,0,.894.357c.035.027.058-.031.023-.046" transform="translate(-15.573 -102.934)" fill="#263238"/>
        <path id="Tracé_7101" data-name="Tracé 7101" d="M64.33,164.917s3.674-6.86,9.26-7.924,9.01,4.687,9.01,4.687-4.077,5.206-9.214,6.116-9.056-2.879-9.056-2.879" transform="translate(-39.633 -96.642)" fill="#10a35f"/>
        <path id="Tracé_7102" data-name="Tracé 7102" d="M71.188,161.906a14.969,14.969,0,0,0-4.384.054l.25-.134,1.24-.637a29.042,29.042,0,0,1,2.622-1.282c.042-.019,0-.077-.023-.058-.875.407-1.781.768-2.657,1.152-.441.2-.871.411-1.3.637-.276.146-.58.284-.852.461a15.3,15.3,0,0,0-3.551,1.179l.7-.768c.518-.572,1.033-1.171,1.6-1.689.031-.027,0-.069-.046-.042-.584.53-1.2,1.021-1.77,1.574-.273.269-.537.545-.795.833-.127.142-.257.288-.384.441a14.726,14.726,0,0,0-7.494,10.116c0,.038.05.058.061.019a16.894,16.894,0,0,1,4.108-6.953,16.15,16.15,0,0,1,7.494-4.311,16.383,16.383,0,0,1,5.167-.468.062.062,0,0,0,.008-.123" transform="translate(-33.485 -98.479)" fill="#263238"/>
        <g id="Groupe_1564" data-name="Groupe 1564" transform="translate(25.023 64.303)" opacity="0.1" style="mix-blend-mode: normal;isolation: isolate">
          <g id="Groupe_1563" data-name="Groupe 1563">
            <g id="Groupe_1562" data-name="Groupe 1562" clip-path="url(#clip-path-4)">
              <path id="Tracé_7103" data-name="Tracé 7103" d="M83.124,168.233s-4.077,5.206-9.214,6.116A11.119,11.119,0,0,1,65.464,172l-.284-.465a20.671,20.671,0,0,1,7.651-3.513,22.405,22.405,0,0,1,10.293.215" transform="translate(-65.18 -167.498)"/>
            </g>
          </g>
        </g>
        <path id="Tracé_7104" data-name="Tracé 7104" d="M86.02,158.836a13.908,13.908,0,0,0-1.24.818,8.184,8.184,0,0,0-1.079.987.035.035,0,0,0,.05.046c.384-.322.741-.645,1.129-.948a11.581,11.581,0,0,1,1.175-.848.032.032,0,1,0-.035-.054" transform="translate(-51.565 -97.855)" fill="#263238"/>
        <path id="Tracé_7105" data-name="Tracé 7105" d="M95.7,161.86c-.207.088-.418.161-.626.25l-.622.257c-.042,0-.023.092.023.073l.622-.253c.211-.084.415-.18.622-.265.038-.015.019-.077-.019-.061" transform="translate(-58.177 -99.72)" fill="#263238"/>
        <path id="Tracé_7106" data-name="Tracé 7106" d="M62.42,198.336s.983,6.807,6.1,9.187,11.356,0,11.356,0S77.438,192.8,62.42,198.336" transform="translate(-38.457 -121.427)" fill="#10a35f"/>
        <path id="Tracé_7107" data-name="Tracé 7107" d="M71.549,204.483c-.468-.054-.941-.134-1.405-.219l-.691-.131-.357-.073c-.138-.127-.273-.257-.415-.384a20.92,20.92,0,0,0-3.133-2.269,17.6,17.6,0,0,0-1.873-.964h.1l1.685.073c1.121.054,2.246.077,3.367.15.042,0,.038-.058,0-.061-1.129-.077-2.25-.2-3.375-.3l-1.635-.146-.845-.073-.215-.023c-.292-.111-.584-.215-.883-.307a7.97,7.97,0,0,0-4.334-.238,3.8,3.8,0,0,0-2.906,2.53c0,.046.061.081.081.035a3.77,3.77,0,0,1,2.875-1.943,6.915,6.915,0,0,1,2.3-.046,5.367,5.367,0,0,0,.257,1.029c.142.48.28.96.426,1.436.292.956.61,1.92.895,2.86a.031.031,0,1,0,.061,0c-.238-.956-.441-1.92-.672-2.879-.111-.468-.23-.937-.346-1.405a8.589,8.589,0,0,0-.257-.967,11.931,11.931,0,0,1,1.328.311,19.357,19.357,0,0,1,2.3.852c.073.484.184.964.3,1.443.138.6.3,1.194.484,1.781a.031.031,0,0,0,.04.018.03.03,0,0,0,.018-.018l-.023-.111c-.115-.557-.238-1.113-.357-1.67-.092-.449-.18-.9-.276-1.344a20.823,20.823,0,0,1,1.866.944,2.728,2.728,0,0,0,.065.407c.038.23.081.465.123.7.1.522.2,1.048.326,1.566a24.894,24.894,0,0,0,.879,2.96.031.031,0,0,0,0,.038l.031.035c.023.027.058,0,.05-.031-.234-1.01-.507-2.012-.729-3.021-.107-.507-.219-1.014-.322-1.536-.05-.253-.1-.507-.146-.768l-.035-.227a20.675,20.675,0,0,1,1.992,1.328,21.427,21.427,0,0,1,3.052,2.783c.035.042.107,0,.073-.061a18.722,18.722,0,0,0-1.217-1.486c-.257-.276-.526-.545-.8-.806h.084c.242.042.48.077.722.107.472.065.948.111,1.424.165.069.008.084-.05.042-.05" transform="translate(-33.657 -122.806)" fill="#263238"/>
        <path id="Tracé_7108" data-name="Tracé 7108" d="M88.662,215.875h0a.359.359,0,0,0-.031-.177.756.756,0,0,1-.061-.223c-.1-.457-.192-.914-.276-1.374,0-.031-.054-.023-.054,0a5.65,5.65,0,0,0,.384,1.777c0,.019.042,0,.038,0Z" transform="translate(-54.364 -131.894)" fill="#263238"/>
        <path id="Tracé_7109" data-name="Tracé 7109" d="M76.744,212.4a.03.03,0,0,0-.031-.031c-.146-.6-.284-1.205-.407-1.812-.065-.319-.131-.637-.192-.956-.035-.173-.065-.346-.1-.518a1.442,1.442,0,0,0-.111-.441.031.031,0,0,0-.04-.018.03.03,0,0,0-.018.018,3,3,0,0,0,.131.914c.061.33.127.664.2.994.15.672.315,1.34.507,2a.034.034,0,0,0,.044.021.034.034,0,0,0,.021-.021Z" transform="translate(-46.73 -128.531)" fill="#263238"/>
        <path id="Tracé_7110" data-name="Tracé 7110" d="M92.981,207.008c-.937-.127-1.87-.261-2.806-.384-.038,0-.054.058,0,.061.933.138,1.87.253,2.806.384,0,.008.019-.054,0-.061" transform="translate(-55.534 -127.3)" fill="#263238"/>
        <path id="Tracé_7111" data-name="Tracé 7111" d="M55.144,127.783s-3.133-13.736,11.628-19.3c0,0,4.092,18.086-11.628,19.3" transform="translate(-33.802 -66.836)" fill="#10a35f"/>
        <path id="Tracé_7112" data-name="Tracé 7112" d="M58.345,127.836l.157-.1.837-.468,1.712-.956c1.125-.633,2.238-1.286,3.371-1.92.038,0,0-.073-.031-.054-1.152.618-2.3,1.2-3.436,1.8l-1.693.895-.691.384c.491-.933,1.017-1.847,1.6-2.73a41.68,41.68,0,0,1,2.5-3.394.05.05,0,0,0-.073-.069,23.27,23.27,0,0,0-3.413,4.185v-.146c0-.342.027-.683.031-1.025,0-.672-.023-1.344,0-2.012,0-.042-.061-.038-.065,0-.027.66-.107,1.321-.146,1.981,0,.326-.031.656-.042.987v.576q-.453.726-.871,1.47a25.811,25.811,0,0,0-1.321,2.768c0-.342-.035-.683-.054-1.025-.046-.768-.134-1.5-.169-2.254a.031.031,0,0,0-.061,0v2.257c0,.384.023.768.046,1.129a2.191,2.191,0,0,0,.027.418,25.119,25.119,0,0,0-1.113,3.778,39.623,39.623,0,0,0-.549,4.15,21.874,21.874,0,0,1,.768-3.7c.18-.649.384-1.294.584-1.92.614-.288,1.2-.649,1.793-.979l1.854-1.014c1.232-.676,2.461-1.363,3.732-1.958.035,0,0-.073-.035-.054-1.286.58-2.584,1.152-3.839,1.77-.63.319-1.248.656-1.862,1-.511.288-1.04.576-1.536.91.142-.43.292-.856.457-1.275a35.639,35.639,0,0,1,1.539-3.417" transform="translate(-33.817 -74.679)" fill="#263238"/>
        <path id="Tracé_7113" data-name="Tracé 7113" d="M60.545,130.237a.034.034,0,0,0-.044-.021.034.034,0,0,0-.021.021c.054.768.081,1.566.165,2.35a.035.035,0,1,0,.069,0c-.027-.783-.111-1.562-.169-2.35" transform="translate(-37.261 -80.224)" fill="#263238"/>
        <path id="Tracé_7114" data-name="Tracé 7114" d="M74.609,137.11c-.921.384-1.854.726-2.776,1.109-.023,0,0,.054,0,.042.933-.349,1.85-.729,2.779-1.09.054-.015.035-.077,0-.061" transform="translate(-44.25 -84.471)" fill="#263238"/>
        <path id="Tracé_7115" data-name="Tracé 7115" d="M78.508,120.6a23.959,23.959,0,0,0-2.626,1.409.042.042,0,0,0,.042.069c.856-.5,1.728-.983,2.614-1.424.038,0,0-.069-.031-.054" transform="translate(-46.744 -74.3)" fill="#263238"/>
        <rect id="Rectangle_4769" data-name="Rectangle 4769" width="21.288" height="22.439" transform="translate(10.25 90.657)" fill="#455a64"/>
        <rect id="Rectangle_4770" data-name="Rectangle 4770" width="1.09" height="38.437" transform="translate(8.788 98.6)" fill="#263238"/>
        <rect id="Rectangle_4771" data-name="Rectangle 4771" width="1.09" height="38.437" transform="translate(31.803 98.6)" fill="#263238"/>
        <rect id="Rectangle_4772" data-name="Rectangle 4772" width="1.09" height="38.437" transform="translate(20.873 98.6)" fill="#263238"/>
        <rect id="Rectangle_4773" data-name="Rectangle 4773" width="23.015" height="3.106" transform="translate(9.333 111.66)" fill="#263238"/>
        <path id="Tracé_7116" data-name="Tracé 7116" d="M260.34,324.254V340.8c0,3.16-.027,5.931-.184,7.363a.023.023,0,0,1,0,.023,2.193,2.193,0,0,1-.23.979l-.019.019c-.937.641-26.2,1.509-27.088,1.24s-.2-2.826.768-3.643,10.481-5.471,10.481-5.471l.157-16.527Z" transform="translate(-143.183 -199.771)" fill="#ad6359"/>
        <path id="Tracé_7117" data-name="Tracé 7117" d="M260.33,358.5v3.4c0,3.16-.027,5.931-.184,7.363a.023.023,0,0,1,0,.023,4.489,4.489,0,0,1-.23.979l-.019.019c-.937.641-26.2,1.509-27.088,1.24s-.2-2.826.768-3.643,10.481-5.471,10.481-5.471l-.046-3.455Z" transform="translate(-143.177 -220.872)" fill="#c7c7c7"/>
        <path id="Tracé_7118" data-name="Tracé 7118" d="M232.8,376.751c.891.269,26.152-.6,27.092-1.24.361-.238.449-3.927.43-8.385v-.142l-16.3.384.019.276s-9.521,4.657-10.481,5.474-1.651,3.375-.756,3.632" transform="translate(-143.174 -226.097)" fill="#263238"/>
        <path id="Tracé_7119" data-name="Tracé 7119" d="M234.017,388.607c4.258-.253,21.441-.86,25.664-.768.035,0,.035.023,0,.027-4.223.338-21.4.81-25.66.825-.088-.015-.092-.081,0-.084" transform="translate(-144.137 -238.94)" fill="#455a64"/>
        <path id="Tracé_7120" data-name="Tracé 7120" d="M259.03,368.648a5.885,5.885,0,0,1,5.044.967c.054.046,0,.115-.065.1a23.665,23.665,0,0,0-4.964-.856.107.107,0,0,1-.015-.211" transform="translate(-159.537 -227.013)" fill="#455a64"/>
        <path id="Tracé_7121" data-name="Tracé 7121" d="M255.948,370.658a5.887,5.887,0,0,1,5.045.967c.05.042,0,.115-.069.1a23.565,23.565,0,0,0-4.964-.856.108.108,0,0,1-.012-.211" transform="translate(-157.637 -228.251)" fill="#455a64"/>
        <path id="Tracé_7122" data-name="Tracé 7122" d="M252.86,372.659a5.9,5.9,0,0,1,5.044.967c.054.046,0,.119-.065.1a23.645,23.645,0,0,0-4.964-.86.107.107,0,0,1-.015-.211" transform="translate(-155.735 -229.484)" fill="#455a64"/>
        <path id="Tracé_7123" data-name="Tracé 7123" d="M278.955,148.455l-.015,1.094-.618,48.318,0,.184-.365,28.943-17.683-.353,3.413-78.129.046-1.044.173-9.064h14.934Z" transform="translate(-160.351 -85.27)" fill="#455a64"/>
        <path id="Tracé_7124" data-name="Tracé 7124" d="M262.149,360.482c2.76-.027,1.966-.058,4.726-.05,1.351,0,10.231.035,11.49.257.027,0,.027.054,0,.058-1.267.192-10.143,0-11.494-.023-2.76-.058-1.966-.073-4.726-.161a.042.042,0,0,1,0-.081" transform="translate(-161.489 -222.06)" fill="#263238"/>
        <path id="Tracé_7125" data-name="Tracé 7125" d="M278.936,177.775a.031.031,0,1,0-.061,0c0,4.626-.188,7.217-.3,11.84s-.246,9.244-.384,13.863c-.25,9.241-.622,18.474-.964,27.71q-.288,7.77-.718,15.533a.027.027,0,1,0,.054,0c.672-9.214,1.313-18.458,1.681-27.7s.63-18.477.672-27.718c.038-5.187.008-8.342.019-13.529" transform="translate(-170.356 -109.507)" fill="#263238"/>
        <path id="Tracé_7126" data-name="Tracé 7126" d="M288.9,148.455l-.63,49.412L276.42,138.4h12.362Z" transform="translate(-170.301 -85.27)" fill="#263238"/>
        <path id="Tracé_7127" data-name="Tracé 7127" d="M317.87,321.924s2.227,16.381,2.227,16.393c.445,3.133.768,5.885.814,7.325v.023a2.245,2.245,0,0,1-.092,1,.223.223,0,0,0,0,.023c-.845.768-25.76,5.029-26.678,4.883s-.58-2.772.253-3.712,9.648-6.833,9.648-6.833l-2.073-16.4Z" transform="translate(-180.881 -198.336)" fill="#ad6359"/>
        <path id="Tracé_7128" data-name="Tracé 7128" d="M319.639,355.864s.457,3.351.457,3.363c.445,3.133.768,5.885.814,7.325v.023a4.423,4.423,0,0,1-.092,1,.223.223,0,0,0,0,.023c-.845.768-25.76,5.029-26.678,4.883s-.58-2.772.253-3.712,9.648-6.834,9.648-6.834l-.526-3.424Z" transform="translate(-180.881 -219.246)" fill="#c7c7c7"/>
        <path id="Tracé_7129" data-name="Tracé 7129" d="M294.084,377.655c.921.146,25.833-4.119,26.678-4.883.326-.288-.084-3.95-.706-8.369l-.023-.138-16.1,2.572.054.273s-8.807,5.9-9.648,6.837-1.19,3.559-.253,3.709" transform="translate(-180.839 -224.421)" fill="#263238"/>
        <path id="Tracé_7130" data-name="Tracé 7130" d="M295.184,389.727c4.185-.822,21.115-3.743,25.338-4.223.035,0,.038.019,0,.027-4.127.906-21.092,3.689-25.315,4.281-.1.012-.111-.065-.023-.084" transform="translate(-181.825 -237.507)" fill="#455a64"/>
        <path id="Tracé_7131" data-name="Tracé 7131" d="M317.161,371.689a5.943,5.943,0,0,1,5.129.276c.058.038,0,.119-.054.111a23.479,23.479,0,0,0-5.033-.18.108.108,0,0,1-.042-.207" transform="translate(-195.36 -228.721)" fill="#455a64"/>
        <path id="Tracé_7132" data-name="Tracé 7132" d="M314.371,374.09a5.93,5.93,0,0,1,5.129.28c.058.035,0,.115-.054.107a23.706,23.706,0,0,0-5.033-.18.108.108,0,0,1-.042-.207" transform="translate(-193.641 -230.2)" fill="#455a64"/>
        <path id="Tracé_7133" data-name="Tracé 7133" d="M311.591,376.5a5.943,5.943,0,0,1,5.129.276c.058.038,0,.119-.054.111a23.233,23.233,0,0,0-5.033-.18.108.108,0,0,1-.042-.207" transform="translate(-191.928 -231.685)" fill="#455a64"/>
        <path id="Tracé_7134" data-name="Tracé 7134" d="M273.69,138.364h0c.065.307,1.109,5.152,2.192,9.314.787,3.041,1.6,5.713,2.062,5.989.526.311,3.09,1.447,3.95,1.8l3.927,37.557,5.309,34.774,17.36-2.687L296.137,149.01l-2.012-10.646Z" transform="translate(-168.619 -85.245)" fill="#455a64"/>
        <path id="Tracé_7135" data-name="Tracé 7135" d="M319.359,358.657c2.726-.438,1.92-.353,4.668-.768,1.336-.2,10.12-1.5,11.4-1.467a.027.027,0,0,1,0,.054c-1.221.384-10.028,1.536-11.367,1.7-2.737.353-1.954.223-4.7.549a.042.042,0,0,1,0-.073" transform="translate(-196.744 -219.59)" fill="#263238"/>
        <path id="Tracé_7136" data-name="Tracé 7136" d="M327.463,237.14c-.434-2.411-.864-4.822-1.309-7.233q-1.332-7.233-2.687-14.462-2.718-14.47-5.375-28.962c-.99-5.451-.967-4.941-1.831-10.419,0-.035-.069-.031-.061,0,.829,4.868.438,3.8,1.221,8.676s1.6,9.648,2.469,14.458c1.735,9.671,3.555,19.326,5.394,28.977q.768,4.062,1.57,8.112c.537,2.756,1.152,5.5,1.72,8.246,0,.061.111.058.1,0-.4-2.461-.76-4.933-1.209-7.394" transform="translate(-194.808 -108.457)" fill="#263238"/>
        <path id="Tracé_7137" data-name="Tracé 7137" d="M321.616,167.356c-.461-.119-.956-.157-1.424-.23-.384-.061-.768-.131-1.152-.211a4.942,4.942,0,0,1-2-.845,4.76,4.76,0,0,1-1.3-2.019q-.284-.656-.576-1.313l-.288-.633a7.182,7.182,0,0,1-.357-.768c0-.038-.073,0-.058,0a4.546,4.546,0,0,1,.161.549c.065.211.123.422.188.633.119.384.234.768.357,1.152a8.958,8.958,0,0,0,.8,1.989,4.194,4.194,0,0,0,3.186,1.712c.357.042.718.069,1.079.088a7.648,7.648,0,0,0,1.359,0,.062.062,0,0,0,.044-.075.063.063,0,0,0-.017-.028" transform="translate(-193.734 -99.388)" fill="#263238"/>
        <path id="Tracé_7138" data-name="Tracé 7138" d="M280.978,176.487a33.244,33.244,0,0,1,5.286,2.465.059.059,0,0,1-.05.107c-1.781-.768-3.6-1.5-5.332-2.357a.119.119,0,0,1,.1-.215" transform="translate(-173.016 -108.73)" fill="#263238"/>
        <path id="Tracé_7139" data-name="Tracé 7139" d="M279.615,144.671c0-.061.115-.077.115,0a58.558,58.558,0,0,0,.3,5.951c.081.918.818,5.985,2.411,5.617.265-.061.384-.326.441-.726a6.346,6.346,0,0,0-.211-1.555c-.177-1.063-.319-2.127-.407-3.2a28.7,28.7,0,0,1,.065-6,.05.05,0,0,1,.1,0,55.766,55.766,0,0,0,.484,8.281c.2,1.317.864,3.3-.514,3.505s-2.3-3.117-2.484-4.027a30.318,30.318,0,0,1-.3-7.851" transform="translate(-172.191 -89.099)" fill="#263238"/>
        <path id="Tracé_7140" data-name="Tracé 7140" d="M286.493,174.985a9.168,9.168,0,0,1,.357,1.052,2.4,2.4,0,0,1,.15.864.061.061,0,0,1-.111.023,2.951,2.951,0,0,1-.384-.841c-.123-.322-.25-.649-.361-.975a.185.185,0,0,1,.349-.123" transform="translate(-176.285 -107.731)" fill="#263238"/>
        <path id="Tracé_7141" data-name="Tracé 7141" d="M293.6,150.145c-2.1-.138-24.32-2.687-24.32-2.687l.173-9.064h21.971l2.012,10.646Z" transform="translate(-165.902 -85.264)" fill="#263238"/>
        <path id="Tracé_7142" data-name="Tracé 7142" d="M246.651,79.288c-2.541,7.955-6.845,16.166-8.089,17.782-3.336,4.346-13.36,8.626-16.42,9.179-1.324.238-4.5-8.3-3.678-9.479s13.279-5.935,13.89-6.569c.422-.441,5.678-7.214,9.214-11.3,4.419-5.079,5.751-1.7,5.083.384" transform="translate(-134.513 -46.973)" fill="#ad6359"/>
        <path id="Tracé_7143" data-name="Tracé 7143" d="M225.61,94.466l4.922,9.982s10.461-4.534,12.953-7.77,7.006-14.2,7.678-17.7-.488-5.989-5.167-.883-8.557,10.193-9.394,11.045-10.991,5.325-10.991,5.325" transform="translate(-138.997 -46.327)" fill="#ebebeb"/>
        <path id="Tracé_7144" data-name="Tracé 7144" d="M226.69,93.68l5.9,10.342s9.214-4.4,11.563-7.294,6.223-11.767,7.436-16.558.5-8.189-4.922-2.326-8.492,10.12-9.6,11.076c-.526.415-10.377,4.76-10.377,4.76" transform="translate(-139.663 -46.047)" fill="#37474f"/>
        <path id="Tracé_7145" data-name="Tracé 7145" d="M232.291,123.744a.541.541,0,1,1-.541.541.541.541,0,0,1,.541-.541" transform="translate(-142.78 -76.238)" fill="#263238"/>
        <path id="Tracé_7146" data-name="Tracé 7146" d="M238.941,120.684a.541.541,0,1,1-.541.541.541.541,0,0,1,.541-.541" transform="translate(-146.877 -74.353)" fill="#263238"/>
        <path id="Tracé_7147" data-name="Tracé 7147" d="M270.765,80.132c-1.213,4.791-5.083,13.652-7.436,16.558a23.144,23.144,0,0,1-5.509,4.081l11.874-26.006c1.839-.5,1.9,2.111,1.071,5.367" transform="translate(-158.842 -46.025)" fill="#263238"/>
        <path id="Tracé_7148" data-name="Tracé 7148" d="M292.5,105.048c-.061.069-26.62.15-26.873-.123-.342-.384,5.659-29.177,8.385-32.713.58-.768,2.5-.971,4.138-.768a7.219,7.219,0,0,1,1.259.257h.046a3.074,3.074,0,0,1,.925.453c4.545,3.632,8.377,16.327,9.271,20.14,1.5,6.292,3.067,12.5,2.849,12.753" transform="translate(-163.643 -43.971)" fill="#ebebeb"/>
        <path id="Tracé_7149" data-name="Tracé 7149" d="M299.6,72.534s-2.161,11.786-2.538,14.849.177,19.245.177,19.245l16.677,1.232s-3.6-10.711-3.647-11.39c0,0-2.994-12.83-5.8-18.189a19.128,19.128,0,0,0-4.868-5.747" transform="translate(-182.936 -44.688)" fill="#37474f"/>
        <path id="Tracé_7150" data-name="Tracé 7150" d="M320.371,109.765l-7.563-.561-5.4-33.58v.023l3.386,4.338c.038.069.077.138.111.207,2.806,5.375,5.8,18.189,5.8,18.189.058.672,3.662,11.383,3.662,11.383" transform="translate(-189.394 -46.592)" fill="#263238"/>
        <path id="Tracé_7151" data-name="Tracé 7151" d="M272.616,73.2s-1.77,11.936-1.962,12.922-2.872,20.451-2.872,20.451l-4.173.131,2.177-8.9s4.841-22.063,6.83-24.6" transform="translate(-162.409 -45.101)" fill="#37474f"/>
        <path id="Tracé_7152" data-name="Tracé 7152" d="M289.07,86.567l-1.182-2.3L286.36,85.93l.376,1.658,1.5.2Z" transform="translate(-176.425 -51.915)" fill="#263238"/>
        <path id="Tracé_7153" data-name="Tracé 7153" d="M284.674,93.12l.722,16.946-3.175,5.605-1.651-6.308,2.6-16.439Z" transform="translate(-172.858 -57.25)" fill="#263238"/>
        <rect id="Rectangle_4774" data-name="Rectangle 4774" width="19.902" height="32.847" transform="translate(111.13 102.606) rotate(-89.94)" fill="#10a35f"/>
        <g id="Groupe_1567" data-name="Groupe 1567" transform="translate(111.139 82.707)" opacity="0.1" style="mix-blend-mode: normal;isolation: isolate">
          <g id="Groupe_1566" data-name="Groupe 1566">
            <g id="Groupe_1565" data-name="Groupe 1565" clip-path="url(#clip-path-5)">
              <rect id="Rectangle_4775" data-name="Rectangle 4775" width="9.371" height="32.847" transform="translate(0 9.371) rotate(-89.939)"/>
            </g>
          </g>
        </g>
        <rect id="Rectangle_4777" data-name="Rectangle 4777" width="9.287" height="34.402" transform="translate(110.367 89.061) rotate(-89.94)" fill="#10a35f"/>
        <path id="Tracé_7154" data-name="Tracé 7154" d="M313.448,194.034l-.008,5.294,2.492,0,0-3.014,9.5.012,0,3.014h2.492l0-5.3Z" transform="translate(-193.109 -119.543)" fill="#263238"/>
        <rect id="Rectangle_4778" data-name="Rectangle 4778" width="4.438" height="2.242" transform="matrix(0.001, -1, 1, 0.001, 137.8, 91.304)" fill="#263238"/>
        <rect id="Rectangle_4779" data-name="Rectangle 4779" width="4.438" height="2.242" transform="matrix(0.001, -1, 1, 0.001, 115.085, 91.286)" fill="#263238"/>
        <path id="Tracé_7155" data-name="Tracé 7155" d="M309.077,80.057c7.409,6.722,12.112,16.324,12.431,18.262.768,4.687,1.739,12.9,1.574,16.508-.061,1.336-10.185-.284-10.166-1.712.065-4.469-.53-14.3-.557-14.469-.18-1.2-2.384-6.6-4.607-12.462s-1.793-8.949,1.324-6.127" transform="translate(-188.745 -48.671)" fill="#ad6359"/>
        <path id="Tracé_7156" data-name="Tracé 7156" d="M317.764,181.881a1.59,1.59,0,0,0,1.785-.326,2.359,2.359,0,0,0,1.255,1c.933.269,1.762-1.079,1.762-1.079a2.925,2.925,0,0,0,1.493.845c.918.165,1.95-1.075,1.95-1.075a2.576,2.576,0,0,0,1.777-.084c.956-.449,1.766-3.19,1.966-4.768s-.718-6.242-.8-7.148l-10.12-1.359s-2.9,6.826-2.872,8.715c.027,1.6.691,4.73,1.8,5.283" transform="translate(-194.661 -103.432)" fill="#ad6359"/>
        <path id="Tracé_7157" data-name="Tracé 7157" d="M324.339,194.974a20.69,20.69,0,0,1-.353-5.129.031.031,0,0,1,.061,0c0,1.712.315,3.405.384,5.117a.046.046,0,0,1-.092.012" transform="translate(-199.604 -116.943)" fill="#263238"/>
        <path id="Tracé_7158" data-name="Tracé 7158" d="M332.75,195.154a4.529,4.529,0,0,1-.031-1.186c0-.418.046-.841.081-1.259q.1-1.259.257-2.511c0-.038.061-.038.058,0-.061.837-.111,1.674-.142,2.511,0,.422-.023.841-.031,1.259a5.557,5.557,0,0,1-.077,1.186.061.061,0,0,1-.115,0" transform="translate(-204.971 -117.162)" fill="#263238"/>
        <path id="Tracé_7159" data-name="Tracé 7159" d="M342.091,195.284a3.246,3.246,0,0,1,.031-1.071c.038-.384.073-.768.107-1.152.069-.768.134-1.536.173-2.3a.031.031,0,0,1,.061,0c-.038.768-.065,1.559-.108,2.338l-.069,1.152a3.015,3.015,0,0,1-.157,1.033.023.023,0,0,1-.031.01.022.022,0,0,1-.007-.006" transform="translate(-210.742 -117.507)" fill="#263238"/>
        <path id="Tracé_7160" data-name="Tracé 7160" d="M310.775,110.656l11.222.607s-.829-12.285-1.72-15.7-8.492-14.788-12.98-18.911c-4.223-3.881-4.223-.653-2.622,3.9s5.563,15.544,5.7,16.347.4,13.759.4,13.759" transform="translate(-187.1 -46.159)" fill="#37474f"/>
        <path id="Tracé_7161" data-name="Tracé 7161" d="M323.415,162.077c.43-.038.864,0,1.294,0s.86.019,1.29.038c.829.035,1.658.084,2.488.138l2.484.165c.856.058,1.731.073,2.58.2a.031.031,0,0,1,.018.04.03.03,0,0,1-.018.018c-.856.035-1.728-.042-2.584-.073l-2.534-.1c-.845-.038-1.689-.081-2.534-.134-.415-.023-.829-.054-1.24-.1s-.841-.05-1.248-.131a.029.029,0,0,1,0-.058" transform="translate(-199.237 -99.844)" fill="#263238"/>
        <path id="Tracé_7162" data-name="Tracé 7162" d="M287.616,67.5a11.812,11.812,0,0,0,4.223-4.062c.061-.123-.165-1.374-.365-2.906-.119-.929-.23-1.969-.261-2.925,0-.2-.66.188-.66.188l-1.228.338-4.054,1.129a15.143,15.143,0,0,1,.7,3.651,1.839,1.839,0,0,1-.027.384.466.466,0,0,1,0,.065c-.088.756.967,4.165,1.674,4.138" transform="translate(-175.753 -35.456)" fill="#ad6359"/>
        <path id="Tracé_7163" data-name="Tracé 7163" d="M285.994,64.013a.466.466,0,0,1,0,.065,3.26,3.26,0,0,0,.618,0c4.031-.223,4.365-5.375,4.365-5.375l-1.593.123-4.054,1.129a15.143,15.143,0,0,1,.7,3.651,1.853,1.853,0,0,1-.035.407" transform="translate(-175.79 -36.167)" fill="#263238"/>
        <path id="Tracé_7164" data-name="Tracé 7164" d="M285.4,32.279c.967,2,.806,8.242-.48,9.828-1.858,2.3-5.375,3.037-7.448.691-2.008-2.269-1.651-10.4-.173-11.9a5.31,5.31,0,0,1,8.1,1.382" transform="translate(-170.09 -18.23)" fill="#ad6359"/>
        <path id="Tracé_7165" data-name="Tracé 7165" d="M286.363,48.454s.031,0,.031.038c-.023.418.023.906.384,1.052v.023c-.449-.073-.5-.718-.415-1.113" transform="translate(-176.405 -29.852)" fill="#263238"/>
        <path id="Tracé_7166" data-name="Tracé 7166" d="M286.757,47.333c.676-.038.7,1.321.073,1.355s-.641-1.324-.073-1.355" transform="translate(-176.415 -29.161)" fill="#263238"/>
        <path id="Tracé_7167" data-name="Tracé 7167" d="M279.378,48.754s-.031.019-.031.038c.019.418-.027.906-.407,1.052m0,.023c.468-.077.526-.729.438-1.113Z" transform="translate(-171.853 -30.037)" fill="#263238"/>
        <path id="Tracé_7168" data-name="Tracé 7168" d="M278.232,47.613c-.676-.038-.706,1.321-.077,1.355s.637-1.3.077-1.355" transform="translate(-171.091 -29.333)" fill="#263238"/>
        <path id="Tracé_7169" data-name="Tracé 7169" d="M287.061,44.165c-.188-.046-.353-.115-.53-.177a.882.882,0,0,1-.507-.284.28.28,0,0,1,.042-.346.711.711,0,0,1,.714-.088,1.048,1.048,0,0,1,.61.441.307.307,0,0,1-.33.453" transform="translate(-176.193 -26.623)" fill="#263238"/>
        <path id="Tracé_7170" data-name="Tracé 7170" d="M277.11,44.379a5.022,5.022,0,0,0,.537-.15.913.913,0,0,0,.518-.257.284.284,0,0,0-.023-.349.706.706,0,0,0-.71-.123,1.04,1.04,0,0,0-.63.411.307.307,0,0,0,.307.468" transform="translate(-170.507 -26.771)" fill="#263238"/>
        <path id="Tracé_7171" data-name="Tracé 7171" d="M286.292,58.591c-.1.1-.2.238-.349.253a1.153,1.153,0,0,1-.453-.1m-.019.023a.568.568,0,0,0,.537.219.449.449,0,0,0,.322-.384c.008-.019-.023-.027-.038-.012Z" transform="translate(-175.877 -36.092)" fill="#263238"/>
        <path id="Tracé_7172" data-name="Tracé 7172" d="M282.475,48.111a1.428,1.428,0,0,1-.944.653,1.767,1.767,0,0,1-.514.035.434.434,0,0,1-.1,0h-.092a.1.1,0,0,1-.084-.092.155.155,0,0,1,0-.042v-.852c-.119.061-.718.342-.71.173a21.555,21.555,0,0,1,.48-4.342.038.038,0,0,1,.077,0c0,1.351-.246,2.687-.269,4.046a2.528,2.528,0,0,1,.672-.219c.046,0-.061.952-.042,1.1a1.977,1.977,0,0,0,1.47-.488c.05-.031.081,0,.058.031" transform="translate(-172.525 -26.864)" fill="#263238"/>
        <path id="Tracé_7173" data-name="Tracé 7173" d="M283.09,55.868a1.669,1.669,0,0,0,.687.514.765.765,0,0,0,.465.023c.338-.1.338-.384.273-.668a1.827,1.827,0,0,0-.157-.384,2.2,2.2,0,0,1-1.267.514" transform="translate(-174.41 -34.103)" fill="#263238"/>
        <path id="Tracé_7174" data-name="Tracé 7174" d="M284.88,57a.765.765,0,0,0,.465.023c.338-.1.338-.384.273-.668a.8.8,0,0,0-.737.645" transform="translate(-175.513 -34.719)" fill="#ff9abb"/>
        <path id="Tracé_7175" data-name="Tracé 7175" d="M277.02,32.606c.219-.537.476-1.079.795-1.194s.545.668,1.278.7c.987.05,1.447-.864,2.826-.987,1.977-.177,2.879,1.463,2.983,4.273.088,2.507,1.612,2.714,1.612,2.714s.814-5.551-.768-7.356a5.963,5.963,0,0,0-7.563-.768,4.928,4.928,0,0,0-1.163,2.614" transform="translate(-170.671 -17.851)" fill="#263238"/>
        <path id="Tracé_7176" data-name="Tracé 7176" d="M298.2,47.341s1.109-2.154,2.069-1.785.311,3.363-.687,3.9a1.075,1.075,0,0,1-1.481-.344q-.013-.02-.024-.04Z" transform="translate(-183.646 -28.041)" fill="#ad6359"/>
        <path id="Tracé_7177" data-name="Tracé 7177" d="M300.981,47.854s.023.019,0,.027a2.625,2.625,0,0,0-1.152,1.873.591.591,0,0,1,.77-.326.6.6,0,0,1,.09.046c.019,0,0,.042,0,.042a.66.66,0,0,0-.691.326,3.152,3.152,0,0,0-.269.63c-.023.073-.15.054-.134-.027a2.372,2.372,0,0,1,1.386-2.591" transform="translate(-184.562 -29.483)" fill="#263238"/>
        <path id="Tracé_7178" data-name="Tracé 7178" d="M285.735,71.411l1.447,3.555,4.392-4.492,1.252,1.436s-4.292,7.118-4.319,6.807l-1.467-3.048-2.1,2.127.157-5.332Z" transform="translate(-175.55 -43.419)" fill="#ebebeb"/>
        <path id="Tracé_7179" data-name="Tracé 7179" d="M284.638,78.035c.058-.879.088-1.77.184-2.645a.031.031,0,0,1,.061,0,48.464,48.464,0,0,1-.05,5.018c.088-.092,1.946-1.87,1.966-1.843.319.484,1.394,2.687,1.467,2.906.68-1.133,3.279-5.248,4.085-6.319a.031.031,0,0,1,.043,0,.031.031,0,0,1,.007.028c-.587,1.175-4.027,6.722-4.081,6.722a35.1,35.1,0,0,1-1.536-3.225,23.76,23.76,0,0,1-2.2,2.269,28.058,28.058,0,0,1,.054-2.914" transform="translate(-175.321 -46.296)" fill="#263238"/>
        <path id="Tracé_7180" data-name="Tracé 7180" d="M153.874,81.516c4.83,9.532,9.736,32.463,10.193,35.53.311,2.085-10.65,3.97-10.65,2.526,0-1.85-2.211-23.5-2-32.048.115-4.718,1.459-7.978,2.457-6.008" transform="translate(-93.279 -49.861)" fill="#eb9481"/>
        <path id="Tracé_7181" data-name="Tracé 7181" d="M156.476,176.358a33.981,33.981,0,0,0,1.063,8.83c.384,1.574,2.027,5.97,3.259,5.759s.868-1.536.868-1.536.967,1.751,2.184,1.424.591-2.376.591-2.376,1.121,1.731,2.3,1.317.211-2.369.211-2.369.956,1.632,1.793.875c1.01-.91-1.086-3.712-1.44-5.474-.081-.384-1.06-8.223-1.06-8.223Z" transform="translate(-96.379 -107.56)" fill="#eb9481"/>
        <path id="Tracé_7182" data-name="Tracé 7182" d="M180.467,198.625a9.035,9.035,0,0,1-2.042-5.759.042.042,0,0,0-.053-.028.043.043,0,0,0-.028.028c-.035,2.492.15,4.016,2.027,5.847.092.081.169.008.1-.088" transform="translate(-109.875 -118.806)" fill="#263238"/>
        <path id="Tracé_7183" data-name="Tracé 7183" d="M173.8,201.051a13.593,13.593,0,0,1-2.161-6.181c0-.038-.069-.035-.065,0,.173,2.614.384,4.131,2.1,6.231.077.1.192.054.127-.05" transform="translate(-105.703 -120.042)" fill="#263238"/>
        <path id="Tracé_7184" data-name="Tracé 7184" d="M166.816,202.611a12.174,12.174,0,0,1-1.7-6.285.05.05,0,0,0-.062-.034.049.049,0,0,0-.034.034,8.655,8.655,0,0,0,1.728,6.319c.1.111.15.1.073-.035" transform="translate(-101.641 -120.933)" fill="#263238"/>
        <path id="Tracé_7185" data-name="Tracé 7185" d="M175.163,173.584a30.676,30.676,0,0,1,2.28,4.058c.514,1.371.572,7.118-.672,7.2-1.6.108-2.3-3.213-2.419-4.883,0,0-3.716.25-4.722-2.027s5.532-4.35,5.532-4.35" transform="translate(-104.444 -106.944)" fill="#eb9481"/>
        <path id="Tracé_7186" data-name="Tracé 7186" d="M176.31,191.82c-1.536-.956-1.559-3.16-1.8-4.772a.15.15,0,0,0-.164-.134.154.154,0,0,0-.051.015c-1.562,0-3.77-.453-4.714-1.8a.038.038,0,0,0-.072.027.04.04,0,0,0,.007.011c.814,1.589,2.948,2.211,4.661,2.1.223,1.655.342,3.866,2.123,4.572.012,0,.019-.008.012-.015" transform="translate(-104.432 -114.039)" fill="#263238"/>
        <path id="Tracé_7187" data-name="Tracé 7187" d="M163.846,114.486l-12.45,1.92s-1.985-23.115-2.058-30.874,2.714-9.659,5.7-1.724,8.8,30.678,8.8,30.678" transform="translate(-92.005 -48.491)" fill="#10a35f"/>
        <path id="Tracé_7188" data-name="Tracé 7188" d="M154.5,169.074a108.226,108.226,0,0,1,11.579-1.72.035.035,0,1,1,0,.069c-.944.092-7.21,1.271-11.579,1.728-.035,0-.038-.069,0-.077" transform="translate(-95.167 -103.106)" fill="#263238"/>
        <path id="Tracé_7189" data-name="Tracé 7189" d="M180.78,352.519c-.864.28-26.182-.1-27.111-.71a42.5,42.5,0,0,1-.1-5.494l-1.232-18.631,16.02.046,1.267,16.124s3.593,1.658,6.557,3.11a35.556,35.556,0,0,1,3.774,2c.956.8,1.685,3.282.822,3.559" transform="translate(-93.856 -201.884)" fill="#eb9481"/>
        <path id="Tracé_7190" data-name="Tracé 7190" d="M182.735,382.418c-.864.28-26.182-.1-27.111-.71a42.494,42.494,0,0,1-.1-5.494c6.254,1.394,22.931,3.651,23.418,2.342.2-.526-.2-1.121-.8-1.67a35.549,35.549,0,0,1,3.774,2c.948.775,1.678,3.259.814,3.536" transform="translate(-95.811 -231.783)" fill="#263238"/>
        <path id="Tracé_7191" data-name="Tracé 7191" d="M134.72,151.054s4.538,48.149,4.638,48.733c0,.077.05.967.092,2.415.253,7.943.875,32.713.875,32.713h19.034s-1.24-29.338-1.954-36.179c-.91-8.734-6.5-47.681-6.5-47.681Z" transform="translate(-83 -93.064)" fill="#37474f"/>
        <path id="Tracé_7192" data-name="Tracé 7192" d="M144.694,207.191q-.879-15-2.645-29.945c-.668-5.605-1.474-11.191-2.273-16.781,0-.05-.084-.046-.077,0,1.474,9.947,2.515,19.963,3.413,29.987s1.536,20.025,1.92,30.06c.234,5.682.411,11.371.591,17.057a.108.108,0,0,0,.211,0c-.253-10.12-.545-20.255-1.14-30.378" transform="translate(-86.068 -98.84)" fill="#263238"/>
        <path id="Tracé_7193" data-name="Tracé 7193" d="M168.4,361.157c-.5-.065-1.04-.046-1.536-.061-.568,0-1.152-.027-1.712-.046-1.1-.042-2.207-.073-3.309-.088-2.223-.038-4.449-.023-6.668.046l-1.835.065c-.653.023-1.305.084-1.958.081-.046,0-.046.058,0,.058,1.117,0,2.25.1,3.371.138s2.2.058,3.305.073c2.223.031,4.453,0,6.672-.069.61-.023,1.221-.031,1.831-.05l.983-.05c.292,0,.58,0,.871-.027.038,0,.035-.061-.015-.069" transform="translate(-93.246 -222.373)" fill="#263238"/>
        <path id="Tracé_7194" data-name="Tracé 7194" d="M148.471,151.054l-8.7,62.715c-.123-4.676-.246-9-.326-11.567-.042-1.447-.077-2.338-.092-2.415-.107-.584-4.638-48.733-4.638-48.733Z" transform="translate(-83 -93.064)" fill="#263238"/>
        <path id="Tracé_7195" data-name="Tracé 7195" d="M103.626,346.137c-.906-.073-24.132-10.162-24.754-11.083a38.656,38.656,0,0,1,2.023-5.106L86.017,311.9l14.819,5.947-4.181,16.02s2.687,2.914,4.86,5.375a36.038,36.038,0,0,1,2.718,3.3c.58,1.094.3,3.67-.607,3.593" transform="translate(-48.59 -192.162)" fill="#eb9481"/>
        <path id="Tracé_7196" data-name="Tracé 7196" d="M103.626,375.093c-.906-.073-24.132-10.162-24.754-11.083A38.651,38.651,0,0,1,80.9,358.9c5.24,3.693,19.763,12.185,20.731,11.164.384-.407.242-1.113-.1-1.85a36.029,36.029,0,0,1,2.718,3.3c.564,1.079.28,3.655-.622,3.578" transform="translate(-48.59 -221.119)" fill="#263238"/>
        <path id="Tracé_7197" data-name="Tracé 7197" d="M79.81,229l18.569,5.759s9.068-31.807,9.763-39.277c.687-7.406,1.351-22.535,1.647-33.511a21.6,21.6,0,0,0,3.889-2.837c.787-1,1.493-4.607,3.044-8.062H94c-5.428,10.546-1.344,15.237-1.344,17.537,0,11.1-1.678,25.841-2.211,28.025C89.335,201.189,79.81,229,79.81,229" transform="translate(-49.171 -93.076)" fill="#37474f"/>
        <path id="Tracé_7198" data-name="Tracé 7198" d="M101.591,351.417c-.465-.192-.99-.311-1.474-.461-.549-.165-1.1-.319-1.647-.488-1.052-.326-2.111-.637-3.171-.937q-3.206-.914-6.457-1.682l-1.789-.411c-.633-.146-1.282-.257-1.92-.426-.05,0-.061.042,0,.058,1.083.284,2.15.672,3.221,1s2.115.626,3.175.929q3.208.9,6.461,1.655c.6.134,1.19.284,1.785.426l.956.211c.284.065.561.157.848.2a.039.039,0,1,0,.012-.077" transform="translate(-52.424 -213.793)" fill="#263238"/>
        <path id="Tracé_7199" data-name="Tracé 7199" d="M159.749,171.419a17.174,17.174,0,0,0-3.071,1.82c-1.017.7-1.954,1.5-2.933,2.25-.038.031,0,.092.038.065,1.033-.66,2.115-1.24,3.137-1.92a19.656,19.656,0,0,0,2.887-2.135c.027-.031-.008-.1-.058-.081" transform="translate(-94.711 -105.608)" fill="#263238"/>
        <path id="Tracé_7200" data-name="Tracé 7200" d="M163.971,154.727c-.131.706-.3,1.409-.457,2.111s-.25,1.332-.422,1.985a3.378,3.378,0,0,1-.925,1.662c-.257.242-.545.453-.822.676-.146.119-.307.23-.461.353.019-.1.035-.188.05-.288.05-.265.1-.534.138-.8.1-.6.2-1.194.288-1.789.18-1.175.346-2.361.591-3.524a.04.04,0,0,0-.077-.019c-.292,1.152-.614,2.3-.868,3.455-.127.568-.572,3.378-.591,3.578s-.038.411-.046.618a2.69,2.69,0,0,0,0,.633c0,.05.077.042.1,0a2.492,2.492,0,0,0,.18-.61c.05-.2.1-.4.131-.607a1.62,1.62,0,0,1,.035-.227c.276-.169.534-.384.795-.576a10.328,10.328,0,0,0,.825-.622,3.163,3.163,0,0,0,1.01-1.578,11.681,11.681,0,0,0,.334-2.023c.088-.8.154-1.6.265-2.4.012-.012-.061-.05-.069-.012" transform="translate(-98.792 -95.316)" fill="#263238"/>
        <path id="Tracé_7201" data-name="Tracé 7201" d="M135.964,47.574a89.953,89.953,0,0,1-1.87,13.556c-.822,3.432-2.687,6.1-6.411,6.457-3.455.33-8.235-.384-10.769-3a4.68,4.68,0,0,1-1.129-4.373c.434-2.261,3.954-14.5,5.025-18.324a41.058,41.058,0,0,1,2.357-6.876c2.219-4.607,4.607-4.223,4.937-4.281a6.2,6.2,0,0,1,4.734.476,5.125,5.125,0,0,1,2.741,3.171c1.321,4.115.737,8.968.384,13.191" transform="translate(-71.26 -18.776)" fill="#263238"/>
        <path id="Tracé_7202" data-name="Tracé 7202" d="M126.146,32.622c-3.044.944-4.158,3.977-5.233,6.68-1.5,3.766-2.933,7.559-4.185,11.417q-.9,2.781-1.662,5.605a30.74,30.74,0,0,0-1.236,5.582c-.215,3.071,2.4,4.868,5.052,5.678a.105.105,0,1,0,.065-.2,7.993,7.993,0,0,1-4.016-2.469c-1.278-1.674-.841-3.57-.407-5.459.745-3.217,1.67-6.384,2.687-9.517s2.192-6.235,3.39-9.31c1.152-2.929,2.215-6.845,5.536-7.958.05,0,.038-.061.008-.05" transform="translate(-70.122 -20.097)" fill="#263238"/>
        <path id="Tracé_7203" data-name="Tracé 7203" d="M161.6,40.205c-.223-2.415-1.129-4.864-3.5-5.881,3.048,1.451,3.348,5.041,3.371,8q.039,4.687-.265,9.36c-.192,3-.453,6.012-.918,8.98a15.267,15.267,0,0,1-3.755,8.519.052.052,0,0,0,.069.077c2.161-1.885,3.186-4.749,3.712-7.49a83.913,83.913,0,0,0,1.179-11.007,71.286,71.286,0,0,0,.1-10.561" transform="translate(-96.428 -21.147)" fill="#263238"/>
        <path id="Tracé_7204" data-name="Tracé 7204" d="M145.073,65.5c.146.384,2.384,2.726,4.2,2.407.587-.107.154-3.351.154-3.351l.023-.246.315-3.455-4.273-2.019-.61-.261s-.027.952-.042,2.135v.169a1.67,1.67,0,0,0,0,.2v1.378a22.447,22.447,0,0,0,.238,3.048" transform="translate(-89.231 -36.087)" fill="#eb9481"/>
        <path id="Tracé_7205" data-name="Tracé 7205" d="M144.84,60.709a6.96,6.96,0,0,0,4.607,3.6l.315-3.455-4.269-2.019-.61-.261s-.027.952-.042,2.135" transform="translate(-89.235 -36.087)" fill="#263238"/>
        <path id="Tracé_7206" data-name="Tracé 7206" d="M151.436,39.841c.484,6.066-3.094,7.041-4.4,7.144-1.19.092-5.248.261-6.354-5.728s1.563-8.139,4.269-8.484,6.008,1,6.488,7.068" transform="translate(-86.514 -20.161)" fill="#eb9481"/>
        <path id="Tracé_7207" data-name="Tracé 7207" d="M165.066,46.835a3.728,3.728,0,0,1-.411-.084.689.689,0,0,1-.407-.165.219.219,0,0,1,0-.265.541.541,0,0,1,.526-.131.768.768,0,0,1,.5.276.23.23,0,0,1-.207.369" transform="translate(-101.165 -28.444)" fill="#263238"/>
        <path id="Tracé_7208" data-name="Tracé 7208" d="M155.493,47.044c.142-.019.269-.058.411-.088a.688.688,0,0,0,.384-.173.214.214,0,0,0,0-.265.537.537,0,0,0-.53-.123.8.8,0,0,0-.491.284.23.23,0,0,0,.227.365" transform="translate(-95.63 -28.569)" fill="#263238"/>
        <path id="Tracé_7209" data-name="Tracé 7209" d="M157.735,52.114a.031.031,0,0,0-.031.035c.027.415,0,.895-.384,1.044v.023c.468-.088.507-.714.415-1.1" transform="translate(-96.924 -32.107)" fill="#263238"/>
        <path id="Tracé_7210" data-name="Tracé 7210" d="M156.579,51.013c-.668-.027-.676,1.309-.058,1.336s.618-1.313.058-1.336" transform="translate(-96.153 -31.429)" fill="#263238"/>
        <path id="Tracé_7211" data-name="Tracé 7211" d="M155.451,51.132c-.119.077-.234.207-.384.223s-.284-.127-.384-.261h-.023c0,.253.088.518.384.557s.434-.188.5-.445c0-.031-.046-.1-.092-.073" transform="translate(-95.285 -31.479)" fill="#263238"/>
        <path id="Tracé_7212" data-name="Tracé 7212" d="M164.348,51.874a.031.031,0,0,1,.031.035c-.019.415.027.894.4,1.037v.023c-.461-.069-.518-.706-.434-1.094" transform="translate(-101.234 -31.959)" fill="#263238"/>
        <path id="Tracé_7213" data-name="Tracé 7213" d="M164.734,50.753c.664-.038.7,1.3.081,1.336s-.641-1.3-.081-1.336" transform="translate(-101.244 -31.268)" fill="#263238"/>
        <path id="Tracé_7214" data-name="Tracé 7214" d="M166,50.838c.107.065.215.192.342.2s.25-.142.342-.284h.019c0,.253-.065.522-.307.576s-.384-.165-.461-.415c-.012-.035.023-.107.065-.077" transform="translate(-102.231 -31.269)" fill="#263238"/>
        <path id="Tracé_7215" data-name="Tracé 7215" d="M158.228,60.641c.1.1.188.242.338.261a1.152,1.152,0,0,0,.449-.081m0,.023a.56.56,0,0,1-.537.2.434.434,0,0,1-.307-.384c.015-.023.046-.031.058-.015Z" transform="translate(-97.448 -37.356)" fill="#263238"/>
        <path id="Tracé_7216" data-name="Tracé 7216" d="M160.509,50.292s.088.618.088.91c0,.031-.069.042-.169.05a1.386,1.386,0,0,1-1.351-.511.031.031,0,0,1,.046-.042,2.073,2.073,0,0,0,1.267.357c.019-.081-.188-1.056-.142-1.06a2.5,2.5,0,0,1,.664.146c-.146-1.294-.5-2.553-.63-3.839a.038.038,0,0,1,.077,0,21.17,21.17,0,0,1,.856,4.112c.012.131-.591-.084-.706-.123" transform="translate(-98.001 -28.504)" fill="#263238"/>
        <path id="Tracé_7217" data-name="Tracé 7217" d="M164.021,49.835c-.092-.99.365-1.843,1.017-1.92s1.263.691,1.355,1.682-.384,1.843-1.017,1.92-1.263-.691-1.355-1.682m.242-.023c.081.856.568,1.513,1.09,1.467s.883-.787.8-1.643-.572-1.513-1.094-1.467-.879.787-.8,1.643" transform="translate(-101.045 -29.517)" fill="#263238"/>
        <path id="Tracé_7218" data-name="Tracé 7218" d="M152.289,51.262a1.685,1.685,0,1,1,1.847,1.635,1.751,1.751,0,0,1-1.847-1.635m.242-.023a1.444,1.444,0,1,0,1.29-1.689,1.505,1.505,0,0,0-1.29,1.689" transform="translate(-93.824 -30.518)" fill="#263238"/>
        <path id="Tracé_7219" data-name="Tracé 7219" d="M160.61,52.064c.868-.384,1.3-.142,1.305-.138l.131-.2a1.684,1.684,0,0,0-1.536.123Z" transform="translate(-98.889 -31.792)" fill="#263238"/>
        <path id="Tracé_7220" data-name="Tracé 7220" d="M143.373,52.675l.023-.242c-.161,0-3.885-.346-4.284-.33a4.751,4.751,0,0,0-1.451.729l.138.2a4.48,4.48,0,0,1,1.305-.683h.046c.292,0,2.9.207,4.223.326" transform="translate(-84.812 -32.1)" fill="#263238"/>
        <path id="Tracé_7221" data-name="Tracé 7221" d="M139.15,39.441c.656-.038,2.369-1.854,2.422-5.033a23.825,23.825,0,0,1-.457,3.271c-.211.418.956-1.021,1.033-3.582a10.468,10.468,0,0,0,2.634,1.363,4,4,0,0,0,2.039.238c.088-.088-1.7-.649-2.181-1.2a21.3,21.3,0,0,0,4.707,1.609c.173,0,.384-3.52-1.92-5.018s-5.931.123-6.91,1.067a4.134,4.134,0,0,0-2.392,1.862c-1.24,1.7.319,5.467,1.025,5.425" transform="translate(-84.812 -18.778)" fill="#263238"/>
        <path id="Tracé_7222" data-name="Tracé 7222" d="M139.666,53.536s-1.317-1.92-2.181-1.443.111,3.229,1.121,3.613a1.033,1.033,0,0,0,1.37-.506l.016-.036Z" transform="translate(-84.499 -32.047)" fill="#eb9481"/>
        <path id="Tracé_7223" data-name="Tracé 7223" d="M138.8,54.281a2.619,2.619,0,0,1,1.332,1.639.564.564,0,0,0-.848-.161s0,.042.019.038a.63.63,0,0,1,.695.227,3.087,3.087,0,0,1,.33.564c.031.065.146.031.123-.042.015-.921-.68-2.192-1.651-2.292Z" transform="translate(-85.514 -33.426)" fill="#263238"/>
        <path id="Tracé_7224" data-name="Tracé 7224" d="M141.721,60.555a.445.445,0,1,1-.449-.441h0a.445.445,0,0,1,.445.441" transform="translate(-86.765 -37.036)" fill="#fff"/>
        <path id="Tracé_7225" data-name="Tracé 7225" d="M137.582,103.8s-20.447.3-25.522-.054c0,0,4.139-23.457,9.6-29.384a8.3,8.3,0,0,1,.645-.633c.334-.28.288-2.518.445-2.687a47.609,47.609,0,0,1,6.876.864c.084.161.426,2.273.426,2.273,1.5,1.92,6.346,8.553,6.91,11.291s-1.213,5.759-1.213,5.759Z" transform="translate(-69.04 -43.754)" fill="#10a35f"/>
        <path id="Tracé_7226" data-name="Tracé 7226" d="M132.084,86.117c-1.209,5.828-.491,18.427,2.3,20.731,4.607,3.77,15.679,4.872,18.769,5.236,1.332.157,3.985-8.561,3.071-9.686s-14.523-2.875-15.172-3.455c-.449-.415-2.564-8.027-4.388-12.32-2.453-5.808-4.142-2.657-4.584-.507" transform="translate(-81.028 -51.326)" fill="#eb9481"/>
        <path id="Tracé_7227" data-name="Tracé 7227" d="M185.22,131.19s4.085-.042,6.757.058a16.468,16.468,0,0,1,5.117.921c1.609.81,7.828,5.225,6.787,6.757-.941,1.386-2.791-.438-2.791-.438s2.211,1.8.856,2.891-3.547-1.513-3.547-1.513,2.48,1.751.921,2.772c-1.351.891-4.188-1.843-4.188-1.843s2.806,1.536,1.509,2.6c-1.432,1.152-6.2-2.411-6.2-2.411a19.241,19.241,0,0,1-8.081.357c-.461-.077,2.86-10.15,2.86-10.15" transform="translate(-112.324 -80.82)" fill="#eb9481"/>
        <path id="Tracé_7228" data-name="Tracé 7228" d="M219.224,149.654l-.557-.587a13.5,13.5,0,0,0-1.1-1.106c-.384-.33-.768-.645-1.19-.944s-.9-.6-1.321-.925c-.035-.027-.073.023-.035.046a15.427,15.427,0,0,1,1.205,1.033c.384.346.768.7,1.152,1.048s.768.66,1.152.994c.188.165.384.338.557.511a4.226,4.226,0,0,0,.534.488c.019,0,.042,0,.031-.031a3.177,3.177,0,0,0-.43-.526" transform="translate(-132.465 -90.001)" fill="#263238"/>
        <path id="Tracé_7229" data-name="Tracé 7229" d="M225.357,145.109a20.805,20.805,0,0,0-2-2.1,14.343,14.343,0,0,0-2.346-1.708c-.031,0-.061.023-.038.046.722.649,1.455,1.286,2.188,1.92.357.311,1.939,1.777,2.123,1.92.042.023.1-.038.069-.081" transform="translate(-136.138 -87.057)" fill="#263238"/>
        <path id="Tracé_7230" data-name="Tracé 7230" d="M213.119,153.975a21.132,21.132,0,0,0-1.92-1.939,18.749,18.749,0,0,0-2.361-1.482c-.031,0-.061.031-.035.05.745.553,1.5,1.086,2.215,1.674.353.288,1.682,1.509,2.042,1.751.038.023.081-.023.058-.054" transform="translate(-128.636 -92.756)" fill="#263238"/>
        <path id="Tracé_7231" data-name="Tracé 7231" d="M149.542,111.742l4.872-11.36s-13.345-2.207-13.755-2.476-2.845-9.129-4.407-12.607-4.246-5.521-5.283,1.946.465,16.585,1.966,18.481c1.82,2.3,9.026,5.2,16.608,6.016" transform="translate(-80.478 -50.623)" fill="#10a35f"/>
        <path id="Tracé_7232" data-name="Tracé 7232" d="M141.609,126.033a45.571,45.571,0,0,1-5.851-2.3,8.086,8.086,0,0,1-4.223-3.144,9.048,9.048,0,0,1-.879-2.607c-.211-1.014-.384-2.039-.53-3.071q-.265-1.766-.476-3.54c-.069-.607-.138-1.213-.2-1.82s-.173-1.213-.2-1.824a.031.031,0,1,0-.061,0c.042.561,0,1.125.046,1.689,0,.384.046.737.073,1.106l-.107-.234a4.244,4.244,0,0,1-.269-.837c0-.035-.065-.019-.058,0,.069.288.138.58.219.864q.058.207.138.415a2.759,2.759,0,0,0,.111.273q.138,1.654.357,3.294c.142,1.06.307,2.111.5,3.163a12.094,12.094,0,0,0,.737,2.714,5.823,5.823,0,0,0,1.559,2.138,10.255,10.255,0,0,0,2.3,1.428,40.767,40.767,0,0,0,5.785,2.158c2.369.745,3.09.695,1.025.138" transform="translate(-79.401 -66.35)" fill="#263238"/>
        <path id="Tracé_7233" data-name="Tracé 7233" d="M159.254,111.447c-.491-.065-6.3-1.286-6.526-1.351a.683.683,0,0,1-.465-.491c-.18-.468-.338-.948-.507-1.42q-.438-1.221-.891-2.43a4.614,4.614,0,0,0-.054-.541c-.019-.157-.058-.43-.092-.645-.077-.465-.215-.921-.273-1.386,0-.046-.073-.031-.061,0a6.849,6.849,0,0,1,.207,1.4c.019.184.031.384.042.557-.177-.472-.357-.944-.545-1.413-.219-.545-.468-1.094-.645-1.655,0-.038-.069-.019-.058,0,.2.5.342,1.037.5,1.536s.326,1.037.5,1.555c.33,1.017.68,2.027,1.033,3.041.169.488.334.983.514,1.467a1.044,1.044,0,0,0,.768.741c1.01.273,5.947,1.09,6.546,1.113.061.038.077-.065.012-.073" transform="translate(-92.036 -62.87)" fill="#263238"/>
        <path id="Tracé_7234" data-name="Tracé 7234" d="M179.613,130.027c-.768,1.632-1.536,3.252-2.23,4.918a50.977,50.977,0,0,0-1.847,5.018.031.031,0,1,0,.058.023c.768-1.6,1.44-3.263,2.119-4.91s1.3-3.34,1.985-4.991c.035-.069-.054-.123-.084-.058" transform="translate(-108.146 -80.091)" fill="#263238"/>
        <path id="Tracé_7235" data-name="Tracé 7235" d="M211.816,126.577c-.587.33-3.95-.6-5.313.422a6.407,6.407,0,0,0-1.977,4.426c-.2,2.192,1.536,2.081,2.177,1.152a27.088,27.088,0,0,0,2.039-3.839,14.467,14.467,0,0,1,1.82.488Z" transform="translate(-125.998 -77.938)" fill="#ad6359"/>
        <path id="Tracé_7236" data-name="Tracé 7236" d="M204.9,146.326c-1.04-1.09-6.238,2.906-4.607,4.722s5.782-3.486,4.607-4.722" transform="translate(-123.207 -90.037)" fill="#ad6359"/>
        <path id="Tracé_7237" data-name="Tracé 7237" d="M209.422,150.4c-1.04-1.09-6.238,2.906-4.607,4.722s5.782-3.486,4.607-4.722" transform="translate(-125.992 -92.544)" fill="#ad6359"/>
        <path id="Tracé_7238" data-name="Tracé 7238" d="M214.559,151.96c-1.094-.848-5.263,3.509-3.517,4.929s4.757-3.97,3.517-4.929" transform="translate(-129.762 -93.555)" fill="#ad6359"/>
        <path id="Tracé_7239" data-name="Tracé 7239" d="M220.553,152.7c-1.255-.48-3.9,4.741-1.877,5.567s3.3-5.041,1.877-5.567" transform="translate(-134.27 -94.061)" fill="#ad6359"/>
        <path id="Tracé_7240" data-name="Tracé 7240" d="M207.621,151.3a6.3,6.3,0,0,0-.814.649,10.938,10.938,0,0,0-.81.768,9.229,9.229,0,0,0-.695.814c-.227.307-.415.641-.645.941a.031.031,0,0,0-.009.043.031.031,0,0,0,.043.009.032.032,0,0,0,.013-.017,7.912,7.912,0,0,1,.741-.818c.25-.261.484-.534.733-.8s.472-.522.718-.768.522-.5.768-.768c.012-.035-.015-.069-.042-.054" transform="translate(-126.08 -93.212)" fill="#263238"/>
        <path id="Tracé_7241" data-name="Tracé 7241" d="M213.327,152.549c-.223.342-1,1.666-1.24,2s-.488.668-.741.994-.5.683-.787.99c-.023.027.019.069.046.042.288-.307.6-.587.875-.91s.522-.649.768-.99a19.6,19.6,0,0,0,1.152-2.1.041.041,0,0,0-.073-.023" transform="translate(-129.72 -93.975)" fill="#263238"/>
        <path id="Tracé_7242" data-name="Tracé 7242" d="M219.339,154.484c-.23.507-.43,1.033-.664,1.536-.115.25-.234.5-.349.768l-.161.365a2.439,2.439,0,0,1-.192.418c-.023.031.038.065.054.023a3,3,0,0,1,.269-.434c.065-.115.134-.23.2-.346q.2-.384.357-.749a11.146,11.146,0,0,0,.561-1.536.042.042,0,1,0-.069-.046" transform="translate(-134.288 -95.166)" fill="#263238"/>
        <path id="Tracé_7243" data-name="Tracé 7243" d="M197.206,24a9.517,9.517,0,0,1-15.9,6.02l-4.764.7,2.384-4.115A9.517,9.517,0,1,1,197.206,24" transform="translate(-108.765 -8.318)" fill="#fff"/>
        <path id="Tracé_7244" data-name="Tracé 7244" d="M196.7,23.851a9.6,9.6,0,0,1-1.92,4.822,10.14,10.14,0,0,1-.86.994,10.657,10.657,0,0,1-1.006.848,9.211,9.211,0,0,1-2.3,1.278,9.337,9.337,0,0,1-2.561.61,8.921,8.921,0,0,1-1.321.027,8.377,8.377,0,0,1-1.317-.138,9.6,9.6,0,0,1-4.711-2.3l.115.035-4.753.7-.346.054.173-.3,2.369-4.123v.161a9.632,9.632,0,0,1,.576-8.457,9.74,9.74,0,0,1,2.979-3.175A9.6,9.6,0,0,1,196.7,23.862Zm0,0a9.453,9.453,0,0,0-14.723-8.765,9.786,9.786,0,0,0-2.845,3.106,9.362,9.362,0,0,0-1.209,4.027,9.549,9.549,0,0,0,.668,4.142l.035.084-.046.081-2.4,4.108-.169-.253,4.764-.668h.065l.05.042a9.4,9.4,0,0,0,4.553,2.349,8.672,8.672,0,0,0,1.294.157,9.2,9.2,0,0,0,1.3,0,9.325,9.325,0,0,0,2.541-.561,8.792,8.792,0,0,0,2.3-1.236,8.409,8.409,0,0,0,1.87-1.82,9.6,9.6,0,0,0,1.943-4.795" transform="translate(-108.26 -8.167)" fill="#263238"/>
        <path id="Tracé_7245" data-name="Tracé 7245" d="M196.292,35.089l-4.062-4.115,1.363-1.348,2.376,2.4,4.933-7.736,1.616,1.033Z" transform="translate(-118.432 -14.967)" fill="#10a35f"/>
      </g>
    </g>
  </g>
</svg>
