<svg xmlns="http://www.w3.org/2000/svg" xmlns:xlink="http://www.w3.org/1999/xlink" width="1339.896" height="479.352" viewBox="0 0 1339.896 479.352">
  <defs>
    <clipPath id="clip-path">
      <rect id="Rectangle_4693" data-name="Rectangle 4693" width="1339.896" height="479.352" fill="none"/>
    </clipPath>
  </defs>
  <g id="Groupe_1505" data-name="Groupe 1505" opacity="0.018">
    <g id="Groupe_1503" data-name="Groupe 1503" clip-path="url(#clip-path)">
      <path id="Tracé_6890" data-name="Tracé 6890" d="M3.467,175.781q3.717-.438,8.531-.875t8.531-.438a123.953,123.953,0,0,1,17.505,1.313l34.35,124.055,34.79-124.055a115.249,115.249,0,0,1,16.626-1.313,110.947,110.947,0,0,1,16.409,1.313L89.451,333.092q-4.6.656-8.861.985t-9.082.328q-4.373,0-8.531-.328t-9.189-.985Z" transform="translate(2.854 143.634)" fill="#161615"/>
      <path id="Tracé_6891" data-name="Tracé 6891" d="M103.437,245.483H88.778a49.559,49.559,0,0,1-.985-6.017,58.519,58.519,0,0,1-.328-6.017,49.665,49.665,0,0,1,1.313-11.6h45.073V334.969a93.163,93.163,0,0,1-15.315,1.313,91.9,91.9,0,0,1-15.1-1.313ZM97.53,188.16A84.09,84.09,0,0,1,98.844,173.5q3.717-.656,7.986-.985t7.765-.328q3.72,0,8.1.328t8.093.985a65.139,65.139,0,0,1,.877,7.329q.213,3.61.219,7.33,0,3.5-.219,7.22a64.9,64.9,0,0,1-.877,7.439,64.87,64.87,0,0,1-7.986.875q-4.264.222-7.986.219-3.5,0-7.877-.219a65.1,65.1,0,0,1-8.094-.875A86.609,86.609,0,0,1,97.53,188.16" transform="translate(72.007 141.757)" fill="#161615"/>
      <path id="Tracé_6892" data-name="Tracé 6892" d="M145.237,207.4q11.921-9.405,32.491-9.408a98.077,98.077,0,0,1,33.694,6.126,59.922,59.922,0,0,1-2.188,11.815,56.949,56.949,0,0,1-4.157,10.721,86.909,86.909,0,0,0-11.6-3.829,53.13,53.13,0,0,0-13.346-1.641q-7.442,0-11.6,2.3a7.765,7.765,0,0,0-4.157,7.329q0,4.816,2.954,6.783a34.479,34.479,0,0,0,8.424,3.719l12.471,3.719q12.252,3.5,19.582,10.5t7.33,22.536a33.607,33.607,0,0,1-6.017,19.473,40.438,40.438,0,0,1-17.066,13.784q-11.049,5.03-26.583,5.032a107.018,107.018,0,0,1-18.05-1.313,86.648,86.648,0,0,1-16.519-4.813,74.962,74.962,0,0,1,6.345-23.63,90.746,90.746,0,0,0,13.674,4.266,62.217,62.217,0,0,0,13.456,1.422,39.088,39.088,0,0,0,8.859-1.094,21.642,21.642,0,0,0,8.2-3.719,8.75,8.75,0,0,0,3.5-7.439q0-5.251-3.173-7.548a30.7,30.7,0,0,0-8.861-4.048L159.349,264.5Q147.094,261,140.2,254.108t-6.892-20.676q0-16.625,11.924-26.036" transform="translate(107.771 162.997)" fill="#161615"/>
      <path id="Tracé_6893" data-name="Tracé 6893" d="M205.078,245.483H190.419a49.622,49.622,0,0,1-.985-6.017,58.585,58.585,0,0,1-.328-6.017,49.665,49.665,0,0,1,1.313-11.6h45.073V334.969a93.166,93.166,0,0,1-15.315,1.313,91.9,91.9,0,0,1-15.1-1.313ZM199.17,188.16a84.075,84.075,0,0,1,1.315-14.659q3.717-.656,7.986-.985t7.765-.328q3.719,0,8.1.328t8.094.985a65.145,65.145,0,0,1,.877,7.329q.213,3.61.219,7.33,0,3.5-.219,7.22a64.911,64.911,0,0,1-.877,7.439,64.879,64.879,0,0,1-7.986.875q-4.264.222-7.986.219-3.5,0-7.876-.219a65.1,65.1,0,0,1-8.093-.875,86.594,86.594,0,0,1-1.315-14.659" transform="translate(155.685 141.757)" fill="#161615"/>
      <path id="Tracé_6894" data-name="Tracé 6894" d="M270.34,181.308h5.032v33.037h26.474a52.844,52.844,0,0,1,.875,5.907q.216,2.625.219,5.47,0,3.066-.219,5.907a59.425,59.425,0,0,1-.875,6.345H275.372V282.39q0,13.349,4.266,17.5T292,304.05a37.745,37.745,0,0,0,6.454-.547q3.17-.544,5.577-.985a43.107,43.107,0,0,1,2.19,8.642,55.846,55.846,0,0,1,.657,7.986q0,2.41-.111,4.048t-.326,3.173q-5.035,1.1-10.174,1.75a83.811,83.811,0,0,1-10.613.656q-19.91,0-30.41-9.3t-10.5-30.3v-51.2H230.52l-1.094-4.376Z" transform="translate(188.879 149.265)" fill="#161615"/>
      <path id="Tracé_6895" data-name="Tracé 6895" d="M286.906,175.781a102.4,102.4,0,0,1,15.972-1.313,101.024,101.024,0,0,1,16.191,1.313V333.092A99.682,99.682,0,0,1,303.1,334.4a103.747,103.747,0,0,1-16.191-1.313Z" transform="translate(236.201 143.634)" fill="#10a35f"/>
      <path id="Tracé_6896" data-name="Tracé 6896" d="M360.34,181.308h5.032v33.037h26.474a52.805,52.805,0,0,1,.875,5.907q.216,2.625.219,5.47,0,3.066-.219,5.907a59.382,59.382,0,0,1-.875,6.345H365.372V282.39q0,13.349,4.266,17.5T382,304.05a37.748,37.748,0,0,0,6.455-.547q3.169-.544,5.577-.985a43.107,43.107,0,0,1,2.19,8.642,55.9,55.9,0,0,1,.656,7.986q0,2.41-.111,4.048t-.326,3.173q-5.035,1.1-10.174,1.75a83.814,83.814,0,0,1-10.613.656q-19.91,0-30.41-9.3t-10.5-30.3v-51.2H320.52l-1.094-4.376Z" transform="translate(262.973 149.265)" fill="#10a35f"/>
      <path id="Tracé_6897" data-name="Tracé 6897" d="M389.581,245.385H371.638a58.948,58.948,0,0,1-.873-6.345q-.222-2.842-.219-5.907,0-2.842.219-5.47a52.408,52.408,0,0,1,.873-5.907h17.943v-5.47q0-21,12.252-32.491t32.161-11.486a93.959,93.959,0,0,1,11.051.547,62.122,62.122,0,0,1,9.736,2.078,122.52,122.52,0,0,1-1.424,13.018,59.909,59.909,0,0,1-3.172,11.487q-2.409-.435-5.032-.985a36.014,36.014,0,0,0-7-.547q-7.663,0-12.69,3.61t-5.032,15.425v4.813h26.253a59.749,59.749,0,0,1,.877,6.345c.142,1.9.218,3.867.218,5.907,0,1.9-.076,3.719-.218,5.47a52.917,52.917,0,0,1-.877,5.907H420.431v89.486a93.164,93.164,0,0,1-15.316,1.313,94.356,94.356,0,0,1-15.534-1.313Z" transform="translate(305.059 141.856)" fill="#161615"/>
      <path id="Tracé_6898" data-name="Tracé 6898" d="M428.053,227.2a47.738,47.738,0,0,1,18.05-21.332q12.143-7.877,30.3-7.877,18.595,0,30.633,7.877A47.988,47.988,0,0,1,524.98,227.2a74.641,74.641,0,0,1,5.905,30.3,73.284,73.284,0,0,1-5.905,29.975,47.4,47.4,0,0,1-17.941,21.113q-12.039,7.764-30.633,7.767-18.162,0-30.3-7.767a47.159,47.159,0,0,1-18.05-21.113,73.289,73.289,0,0,1-5.907-29.975,74.646,74.646,0,0,1,5.907-30.3m48.353-4.923q-12.033,0-17.394,9.08T453.654,257.5q0,17.066,5.359,26.146t17.394,9.08q12.249,0,17.613-9.08t5.362-26.146q0-17.066-5.362-26.145t-17.613-9.08" transform="translate(347.539 162.997)" fill="#161615"/>
      <path id="Tracé_6899" data-name="Tracé 6899" d="M500.026,200.021q3.279-.656,6.236-.985a58.63,58.63,0,0,1,6.454-.328,47.516,47.516,0,0,1,6.454.438q3.167.44,6.236,1.094,1.31,2.191,2.186,7.548t1.315,8.423A56.334,56.334,0,0,1,540.5,204.178a25.888,25.888,0,0,1,16.409-5.47q3.063,0,5.689.219a43.176,43.176,0,0,1,4.815.656,43.028,43.028,0,0,1,.654,5.032q.216,2.847.219,5.907,0,3.722-.326,8.1a58.911,58.911,0,0,1-1.2,8.314,30.291,30.291,0,0,0-5.362-.437h-3.608a44.975,44.975,0,0,0-8.316.875,21.472,21.472,0,0,0-8.752,3.938q-4.157,3.066-6.89,9.736t-2.735,18.488v53.823a72.309,72.309,0,0,1-7.877.875q-3.941.216-7.658.219t-7.548-.219q-3.832-.219-7.986-.875Z" transform="translate(411.656 163.59)" fill="#161615"/>
      <path id="Tracé_6900" data-name="Tracé 6900" d="M558.231,175.781a116.652,116.652,0,0,1,16.847-1.313,105.151,105.151,0,0,1,16.845,1.313l36.1,90.142,37.2-90.142a81.911,81.911,0,0,1,15.095-1.313,91.929,91.929,0,0,1,15.972,1.313l7.441,157.312a98.406,98.406,0,0,1-15.755,1.313,81.734,81.734,0,0,1-14.657-1.313l-3.94-106.771-31.944,73.952q-3.066.44-6.345.766t-6.562.328q-2.85,0-5.689-.219a44.028,44.028,0,0,1-5.907-.875L583.174,224.79l-3.063,108.3a71.28,71.28,0,0,1-13.566,1.313,85.542,85.542,0,0,1-14.438-1.313Z" transform="translate(454.532 143.634)" fill="#10a35f"/>
      <path id="Tracé_6901" data-name="Tracé 6901" d="M658.9,227.744a51.177,51.177,0,0,1,18.38-21.66q12.14-8.093,30.083-8.1,15.751,0,26.91,7.111a45.57,45.57,0,0,1,16.956,19.363,63.7,63.7,0,0,1,5.8,27.568q0,4.16-.33,8.2t-.766,6.454H683.295q.873,13.128,9.19,19.035t21.879,5.907a85.1,85.1,0,0,0,29.977-5.47,51.113,51.113,0,0,1,4.155,10.5,53.808,53.808,0,0,1,1.97,13.127q-17.066,6.564-38.508,6.564-21,0-34.132-7.548a45.082,45.082,0,0,1-19.144-20.785q-6.02-13.234-6.015-30.084a71.452,71.452,0,0,1,6.234-30.194m63.012.328q-5.364-6.452-14.988-6.454-10.942,0-16.628,6.126t-6.782,17.285h44.2q-.441-10.5-5.8-16.956" transform="translate(537.319 162.997)" fill="#10a35f"/>
      <path id="Tracé_6902" data-name="Tracé 6902" d="M0,230.485H147.94L337.11,116.5,531.129,230.485,329.833,55.867,130.964,198.957Z" transform="translate(0 45.993)" fill="#161615"/>
      <path id="Tracé_6903" data-name="Tracé 6903" d="M299.928,180.681v73.97L523.051,0Z" transform="translate(246.922 0)" fill="#10a35f"/>
      <path id="Tracé_6904" data-name="Tracé 6904" d="M372.342,208.657V133.475L192.874,55.867Z" transform="translate(158.787 45.994)" fill="#10a35f"/>
      <path id="Tracé_6905" data-name="Tracé 6905" d="M1092.976,276.466H806.814L549.733,67.9,299.927,276.466,544.883,0,696.452,130.277V50.928l44.87,50.924v66.987l97.016,83.378Z" transform="translate(246.921 0.003)" fill="#161615"/>
      <rect id="Rectangle_4685" data-name="Rectangle 4685" width="34.848" height="34.848" transform="translate(291.03 211.632)" fill="#161615"/>
      <rect id="Rectangle_4686" data-name="Rectangle 4686" width="34.848" height="34.848" transform="translate(334.238 211.632)" fill="#10a35f"/>
      <rect id="Rectangle_4687" data-name="Rectangle 4687" width="34.848" height="34.848" transform="translate(291.03 254.652)" fill="#10a35f"/>
      <rect id="Rectangle_4688" data-name="Rectangle 4688" width="34.848" height="34.848" transform="translate(334.238 254.652)" fill="#161615"/>
      <rect id="Rectangle_4689" data-name="Rectangle 4689" width="57.387" height="57.387" transform="translate(725.105 154.54)" fill="#10a35f"/>
      <rect id="Rectangle_4690" data-name="Rectangle 4690" width="57.387" height="57.387" transform="translate(796.256 154.54)" fill="#161615"/>
      <rect id="Rectangle_4691" data-name="Rectangle 4691" width="57.387" height="57.387" transform="translate(725.105 225.385)" fill="#161615"/>
      <rect id="Rectangle_4692" data-name="Rectangle 4692" width="57.387" height="57.387" transform="translate(796.256 225.385)" fill="#10a35f"/>
    </g>
  </g>
</svg>
