<svg id="Groupe_1443" data-name="Groupe 1443" xmlns="http://www.w3.org/2000/svg" xmlns:xlink="http://www.w3.org/1999/xlink" width="178.516" height="168.125" viewBox="0 0 178.516 168.125">
  <defs>
    <clipPath id="clip-path">
      <rect id="Rectangle_4550" data-name="Rectangle 4550" width="178.516" height="168.125" fill="none"/>
    </clipPath>
    <clipPath id="clip-path-3">
      <rect id="Rectangle_4505" data-name="Rectangle 4505" width="26.013" height="40.96" transform="translate(38.581 84.062)" fill="none"/>
    </clipPath>
    <clipPath id="clip-path-4">
      <rect id="Rectangle_4522" data-name="Rectangle 4522" width="15.629" height="30.997" transform="translate(41.736 88.225)" fill="none"/>
    </clipPath>
    <clipPath id="clip-path-5">
      <rect id="Rectangle_4543" data-name="Rectangle 4543" width="17.102" height="40.729" transform="translate(24.635 107.845)" fill="none"/>
    </clipPath>
    <clipPath id="clip-path-6">
      <rect id="Rectangle_4544" data-name="Rectangle 4544" width="8.379" height="12.082" transform="translate(60.157 84.075)" fill="none"/>
    </clipPath>
    <clipPath id="clip-path-7">
      <rect id="Rectangle_4545" data-name="Rectangle 4545" width="12.472" height="18.077" transform="translate(43.314 106.954)" fill="none"/>
    </clipPath>
    <clipPath id="clip-path-8">
      <rect id="Rectangle_4546" data-name="Rectangle 4546" width="23.387" height="4.244" transform="translate(15.644 150.589)" fill="none"/>
    </clipPath>
    <clipPath id="clip-path-9">
      <rect id="Rectangle_4547" data-name="Rectangle 4547" width="7.667" height="14.235" transform="translate(121.851 151.642)" fill="none"/>
    </clipPath>
    <clipPath id="clip-path-10">
      <rect id="Rectangle_4548" data-name="Rectangle 4548" width="11.647" height="8.109" transform="translate(121.408 9.401)" fill="none"/>
    </clipPath>
  </defs>
  <g id="Groupe_1442" data-name="Groupe 1442" clip-path="url(#clip-path)">
    <rect id="Rectangle_4492" data-name="Rectangle 4492" width="29.172" height="29.172" transform="translate(138.43 2.915)" fill="#e6e6e6"/>
    <g id="Groupe_1441" data-name="Groupe 1441">
      <g id="Groupe_1440" data-name="Groupe 1440" clip-path="url(#clip-path)">
        <path id="Tracé_5621" data-name="Tracé 5621" d="M153.5,7.594a.983.983,0,0,1,.991.975v.525a8.409,8.409,0,0,1,3.573,1.268,1.232,1.232,0,0,1,.687,1.11,1.266,1.266,0,0,1-1.266,1.268h-.025a1.354,1.354,0,0,1-.691-.209,8.455,8.455,0,0,0-2.369-1.015v4.43c3.506.877,5.007,2.282,5.007,4.738,0,2.539-1.974,4.221-4.912,4.5V26.57a.983.983,0,0,1-.975.991h-.016a1,1,0,0,1-1.015-.985V25.133a9.973,9.973,0,0,1-4.738-1.8,1.268,1.268,0,0,1-.62-1.11,1.248,1.248,0,0,1,1.228-1.268h.04a1.288,1.288,0,0,1,.762.253,8.177,8.177,0,0,0,3.412,1.548V18.227c-3.368-.877-4.936-2.144-4.936-4.738,0-2.468,1.974-4.174,4.845-4.407v-.5a1,1,0,0,1,1.009-.991h.01Zm-.924,7.866V11.374c-1.477.138-2.215.924-2.215,1.939s.438,1.568,2.215,2.144Zm1.832,3.206v4.2c1.477-.162,2.286-.9,2.286-2.006-.012-1.018-.521-1.642-2.286-2.194" fill="#fff"/>
        <path id="Tracé_5622" data-name="Tracé 5622" d="M37.134,102.23a139.183,139.183,0,0,0-.2-14.8A188.423,188.423,0,0,0,32.3,57.278c-1.291-5.579-2.886-11.056-4.545-16.545-.047-.162-.312-.118-.269.055,5.133,19.317,9.338,39.249,9.05,59.328-.083,5.619-.73,11.135-1.267,16.722,0,.146.233.205.269.055a83.891,83.891,0,0,0,1.6-14.663" fill="#e6e6e6"/>
        <path id="Tracé_5623" data-name="Tracé 5623" d="M27.486,40.79s-7.771,19.743-6.03,24.359a8.974,8.974,0,0,0,5.327,5.627s-4.738,6.788-1.433,13.153S36.056,90,36.544,97.215c0,0,.412-30.183-9.058-56.425" fill="#e6e6e6"/>
        <path id="Tracé_5624" data-name="Tracé 5624" d="M35.7,84.75a.189.189,0,0,0,0-.1,180.675,180.675,0,0,0-7.538-39.68c0-.036-.075-.024-.067,0q2.31,8.655,4.083,17.4A8.628,8.628,0,0,0,28.47,60.3c-.024,0-.036.032,0,.039A9.824,9.824,0,0,1,32.3,62.9c.225,1.141.45,2.286.659,3.431-1.737-1.943-4.146-2.906-6.555-3.818-.036,0-.051.039,0,.051a15.831,15.831,0,0,1,6.713,4.5Q34,71.98,34.7,76.939a9.358,9.358,0,0,0-4.636-2.653c-.051,0-.083.067-.028.083a9.758,9.758,0,0,1,4.7,3.009l.028.02q.237,1.741.442,3.483a12,12,0,0,0-3.25-1.974c-.032,0-.047.036,0,.051a11.192,11.192,0,0,1,3.254,2.152.065.065,0,0,0,.039,0c.13,1.106.257,2.211.371,3.317a15.8,15.8,0,0,0-6.59-4.707.043.043,0,0,0-.032.079,17.14,17.14,0,0,1,6.5,5,.149.149,0,0,0,.166.051c.166,1.7.32,3.4.442,5.1a.02.02,0,0,0,.024.015.023.023,0,0,0,.015-.015q-.223-2.582-.437-5.2" fill="#fff"/>
        <path id="Tracé_5625" data-name="Tracé 5625" d="M29.457,58.357A9.7,9.7,0,0,0,24.791,56.9a.032.032,0,0,0-.017.042.029.029,0,0,0,.017.017,18.533,18.533,0,0,1,4.616,1.508c.062.032.109-.07.05-.11" fill="#fff"/>
        <path id="Tracé_5626" data-name="Tracé 5626" d="M30.4,79.242a9.858,9.858,0,0,0-3.5-1.185c-.043,0-.047.059,0,.067a13.129,13.129,0,0,1,3.467,1.216.053.053,0,1,0,.036-.1Z" fill="#fff"/>
        <path id="Tracé_5627" data-name="Tracé 5627" d="M57.566,65.472a52.8,52.8,0,0,0-8.979,7.862,32.316,32.316,0,0,0-6.318,10.7,79.924,79.924,0,0,0-4.7,25.583,62.222,62.222,0,0,0,1.382,14.389.138.138,0,0,0,.269-.051,80.777,80.777,0,0,1,.142-25.149c1.339-8.158,3.431-17.038,8.62-23.668,2.823-3.609,6.345-6.452,9.828-9.386.181-.157-.054-.4-.244-.28" fill="#e6e6e6"/>
        <path id="Tracé_5628" data-name="Tracé 5628" d="M38.716,103.742a48.222,48.222,0,0,1,6.551-8.379c3.885-3.885,7.159-6.649,7.664-9.22s-3.893-4.462-3.893-4.462,5.378.967,6.851-1.291,2.176-15.34,2.176-15.34-9.789,6.989-14.349,16.786-5,21.906-5,21.906" fill="#e6e6e6"/>
        <path id="Tracé_5629" data-name="Tracé 5629" d="M54.685,68.4c-4.122,4.059-8.26,8.355-10.685,13.67a52.321,52.321,0,0,0-2.164,5.635l-.371,1.161a.142.142,0,0,0-.02.067,110.721,110.721,0,0,0-2.764,12.079c0,.028.036.04.039,0,.423-2.037.888-4.1,1.406-6.152h.059a8.533,8.533,0,0,1,2.571-.652c.055,0,.051-.107,0-.107a9.584,9.584,0,0,0-2.539.466c.474-1.852.987-3.7,1.579-5.528a27.131,27.131,0,0,1,5.8-.758.016.016,0,0,0,0-.032,21.94,21.94,0,0,0-5.725.5c.1-.312.209-.62.312-.932a29,29,0,0,1,3.862-.655c.024,0,.024-.043,0-.039a18.465,18.465,0,0,0-3.783.458c.533-1.579,1.106-3.127,1.745-4.644a28.164,28.164,0,0,1,1.848-3.585,23.988,23.988,0,0,1,3.123-.573c.032,0,.028-.047,0-.051a8.522,8.522,0,0,0-2.93.288c.513-.829,1.054-1.643,1.635-2.432a16.544,16.544,0,0,1,6.665-.517c.039,0,.051-.055,0-.067a14.084,14.084,0,0,0-6.385.182c.233-.308.47-.612.711-.916a14.655,14.655,0,0,1,4.1-.644.021.021,0,0,0,.026-.017.022.022,0,0,0-.017-.026h-.009a10.6,10.6,0,0,0-3.822.34c1.816-2.255,3.818-4.375,5.8-6.468.1-.1.031-.146-.067-.051" fill="#fff"/>
        <path id="Tracé_5630" data-name="Tracé 5630" d="M54.577,77.319a8.687,8.687,0,0,0-1.947-.067c-.079,0-.071.134,0,.138.644.02,1.287-.032,1.931,0a.039.039,0,0,0,.033-.044.041.041,0,0,0-.017-.027" fill="#fff"/>
        <path id="Tracé_5631" data-name="Tracé 5631" d="M47.534,90a8.761,8.761,0,0,0-3.017.608c-.024,0,0,.047,0,.043,1-.241,2.006-.336,3.013-.5a.075.075,0,0,0,0-.15Z" fill="#fff"/>
        <path id="Tracé_5632" data-name="Tracé 5632" d="M45.431,85.622a6.308,6.308,0,0,0-1.279.115.04.04,0,0,0,0,.075,6.29,6.29,0,0,0,1.279-.059.067.067,0,0,0,.049-.081.068.068,0,0,0-.049-.049Z" fill="#fff"/>
        <path id="Tracé_5633" data-name="Tracé 5633" d="M10.022,79.348A44.524,44.524,0,0,1,19.1,83.632a27.181,27.181,0,0,1,7.577,7.2A67.275,67.275,0,0,1,36.4,110.453a52.45,52.45,0,0,1,2.2,11.964.115.115,0,0,1-.228.028v-.008a67.912,67.912,0,0,0-5.923-20.32C29.485,95.823,25.733,89.123,20,84.955a55.089,55.089,0,0,0-10.12-5.327c-.178-.083-.051-.343.138-.28" fill="#e6e6e6"/>
        <path id="Tracé_5634" data-name="Tracé 5634" d="M34.127,105.962a40.857,40.857,0,0,0-7.258-5.267c-4.043-2.247-7.333-3.728-8.335-5.69s2.12-4.513,2.12-4.513-4.13,2.026-5.844.541S9.5,79.127,9.5,79.127s9.536,3.392,15.49,10.266,9.141,16.569,9.141,16.569" fill="#e6e6e6"/>
        <path id="Tracé_5635" data-name="Tracé 5635" d="M33.631,103.81C28.845,94.859,22.5,86.764,13.777,81.417a44.089,44.089,0,0,1,6.381,5A10.134,10.134,0,0,0,15.025,87.5c-.036.02,0,.067.028.055a14,14,0,0,1,5.279-.877.106.106,0,0,0,.059-.024c.308.3.612.592.916.9a16.007,16.007,0,0,0-2.74.363c-.024,0,0,.039,0,.036a13.976,13.976,0,0,1,2.894-.237,60.415,60.415,0,0,1,4.5,5.106,4.607,4.607,0,0,0-1.915.138.04.04,0,0,0,0,.075A10.129,10.129,0,0,1,26.091,93c.261.336.525.663.79,1a18.455,18.455,0,0,0-5.789.561c-.028,0,0,.051,0,.043a23.446,23.446,0,0,1,5.947-.4c.241.324.474.655.711.983a12.493,12.493,0,0,0-3.443.395c-.043,0-.032.079,0,.067a13.175,13.175,0,0,1,3.554-.276c1.027,1.414,2.01,2.859,2.954,4.32a3.213,3.213,0,0,0-1.512.091.024.024,0,0,0-.011.032.02.02,0,0,0,.011.011,6.491,6.491,0,0,1,1.635.075q1.271,1.974,2.46,4c.11.106.3.023.233-.1" fill="#fff"/>
        <path id="Tracé_5636" data-name="Tracé 5636" d="M26.211,96.386a7.418,7.418,0,0,0-2.764.34c-.024,0,0,.047,0,.039a21.532,21.532,0,0,1,2.764-.28.05.05,0,0,0,0-.1" fill="#fff"/>
        <path id="Tracé_5637" data-name="Tracé 5637" d="M17.9,85.492a4.812,4.812,0,0,0-1.279.075c-.051,0-.036.083,0,.075.419-.043.833-.028,1.252-.039.086-.02.1-.111.027-.111" fill="#fff"/>
        <path id="Tracé_5638" data-name="Tracé 5638" d="M46.424,135.71H24.9l3.068-22.488.786-5.765H42.57l.786,5.765Z" fill="#d3d3d3"/>
        <path id="Tracé_5639" data-name="Tracé 5639" d="M43.356,113.222H27.968l.786-5.765H42.57Z" fill="#bcbbbb"/>
        <rect id="Rectangle_4493" data-name="Rectangle 4493" width="17.769" height="4.88" transform="translate(26.779 105.464)" fill="#d3d3d3"/>
        <rect id="Rectangle_4494" data-name="Rectangle 4494" width="10.456" height="4.418" transform="translate(162.228 65.134)" fill="#e6e6e6"/>
        <rect id="Rectangle_4495" data-name="Rectangle 4495" width="10.456" height="4.418" transform="translate(168.06 59.562)" fill="#e6e6e6"/>
        <rect id="Rectangle_4496" data-name="Rectangle 4496" width="10.456" height="4.418" transform="translate(156.392 59.562)" fill="#e6e6e6"/>
        <rect id="Rectangle_4497" data-name="Rectangle 4497" width="10.456" height="4.418" transform="translate(5.832 122.12)" fill="#e6e6e6"/>
        <rect id="Rectangle_4498" data-name="Rectangle 4498" width="10.456" height="4.418" transform="translate(0 116.548)" fill="#e6e6e6"/>
        <rect id="Rectangle_4499" data-name="Rectangle 4499" width="10.456" height="4.418" transform="translate(168.06 122.116)" fill="#e6e6e6"/>
        <rect id="Rectangle_4500" data-name="Rectangle 4500" width="10.456" height="4.418" transform="translate(34.937 22.978)" fill="#e6e6e6"/>
        <rect id="Rectangle_4501" data-name="Rectangle 4501" width="10.456" height="4.418" transform="translate(29.101 28.549)" fill="#e6e6e6"/>
        <path id="Tracé_5640" data-name="Tracé 5640" d="M93.068,143.335c43.181,0,78.186,5.037,78.186,11.25s-35.005,11.25-78.186,11.25-78.186-5.037-78.186-11.25,35.005-11.25,78.186-11.25" fill="#e6e6e6"/>
        <path id="Tracé_5641" data-name="Tracé 5641" d="M11.052,135.712c50.1-.245,106.308-.245,156.412,0-50.1.241-106.308.241-156.412,0" fill="#1c262b"/>
        <path id="Tracé_5642" data-name="Tracé 5642" d="M128.8,11.894V139.039a6.713,6.713,0,0,1-6.645,6.78H56.371a6.713,6.713,0,0,1-6.657-6.768V11.894a6.713,6.713,0,0,1,6.649-6.776h65.78a6.713,6.713,0,0,1,6.661,6.765v.011" fill="#1c262b"/>
        <path id="Tracé_5643" data-name="Tracé 5643" d="M124.642,18.279v116.57a6.224,6.224,0,0,1-5.958,6.448H59.849a6.221,6.221,0,0,1-5.966-6.448V18.279c0-7.261,2.669-8.865,5.966-8.865H71.636c.683,0,1.244.79,1.244,1.737v.395c0,2.266,1.236,2.274,2.764,2.274h27.245c1.528,0,2.764,0,2.764-2.274v-.395c0-.963.549-1.737,1.244-1.737h11.791c3.285,0,5.954,2.215,5.954,8.865" fill="#fff"/>
        <path id="Tracé_5644" data-name="Tracé 5644" d="M92.974,11.017H85.539a.458.458,0,0,1-.458-.458v0a.458.458,0,0,1,.458-.458h7.435a.458.458,0,0,1,.462.454v0a.462.462,0,0,1-.462.462" fill="#fff"/>
        <path id="Tracé_5645" data-name="Tracé 5645" d="M117.4,61.29l.079,31.549a3.19,3.19,0,0,1-3.18,3.2h0l-50.037.13a3.2,3.2,0,0,1-3.2-3.187l-.079-31.549a2.974,2.974,0,0,1,2.961-2.981l50.479-.13a2.973,2.973,0,0,1,2.98,2.966Z" fill="#354952"/>
        <path id="Tracé_5646" data-name="Tracé 5646" d="M69.392,63.86l3.27-.008a3.66,3.66,0,0,1,3.67,3.651h0a3.66,3.66,0,0,1-3.651,3.669l-3.27.009a3.66,3.66,0,0,1-3.669-3.65h0a3.66,3.66,0,0,1,3.65-3.671" fill="#2a944b"/>
        <path id="Tracé_5647" data-name="Tracé 5647" d="M110.9,67.767H106.1a2,2,0,0,1-2.01-1.99v-.01a2,2,0,0,1,1.99-2.01h4.8a2.005,2.005,0,1,1,.013,4.01" fill="#fff"/>
        <path id="Tracé_5648" data-name="Tracé 5648" d="M65.377,77.863l-.434.257a.107.107,0,0,1-.146-.036.1.1,0,0,1,.027-.139l.012-.007.592-.359a.114.114,0,0,1,.146.039.133.133,0,0,1,0,.079v2.819a.107.107,0,0,1-.209,0Z" fill="#f7f7f7"/>
        <path id="Tracé_5649" data-name="Tracé 5649" d="M66.356,80.433l1.429-1.3a.79.79,0,0,0,.265-.588.766.766,0,0,0-.209-.525.79.79,0,0,0-1.116-.056h0l-.15.134a.1.1,0,0,1-.15-.146l.15-.142a1.02,1.02,0,0,1,.679-.261,1,1,0,0,1,.675,1.745L66.7,80.409h1.453a.107.107,0,0,1,.1.111.1.1,0,0,1-.1.1H66.443a.1.1,0,0,1-.079-.032.114.114,0,0,1-.008-.155" fill="#f7f7f7"/>
        <path id="Tracé_5650" data-name="Tracé 5650" d="M70.791,77.732l-.79.817A1.038,1.038,0,0,1,70.53,80.3a1.053,1.053,0,0,1-.738.308,1.006,1.006,0,0,1-.734-.3.111.111,0,0,1,.154-.154.818.818,0,0,0,.58.237.834.834,0,0,0,.58-.241.819.819,0,0,0,.241-.584.793.793,0,0,0-.241-.577.81.81,0,0,0-.58-.241.109.109,0,0,1-.087-.043.111.111,0,0,1,0-.157h0l.762-.79H69.282a.107.107,0,0,1-.107-.107v0a.1.1,0,0,1,.093-.107H70.7a.134.134,0,0,1,.112.153v0a.138.138,0,0,1-.02.033" fill="#f7f7f7"/>
        <path id="Tracé_5651" data-name="Tracé 5651" d="M73.373,79.964H71.7a.1.1,0,0,1-.067-.02.1.1,0,0,1-.009-.141l.009-.009L73.4,77.575a.1.1,0,0,1,.141-.009l.009.009a.109.109,0,0,1,.036.051v2.12h.205a.107.107,0,0,1,.021.213h-.226v.525a.107.107,0,1,1-.213.021.074.074,0,0,1,0-.021Zm0-.209v-1.8l-1.449,1.8Z" fill="#f7f7f7"/>
        <path id="Tracé_5652" data-name="Tracé 5652" d="M77.227,80.292a.1.1,0,0,1-.013-.141l.013-.013a.111.111,0,0,1,.157,0h0a.825.825,0,1,0,0-1.173.106.106,0,0,1-.151,0l0,0a.051.051,0,0,1-.028-.036.108.108,0,0,1,0-.036v-.02l.146-1.24a.088.088,0,0,1,.043-.079.089.089,0,0,1,.071-.028h1.429a.111.111,0,0,1,.021.221H77.55l-.107.912a1.043,1.043,0,0,1,1.244,1.647,1.064,1.064,0,0,1-.738.3,1.04,1.04,0,0,1-.722-.314" fill="#f7f7f7"/>
        <path id="Tracé_5653" data-name="Tracé 5653" d="M80.145,78.187a1.25,1.25,0,0,1,1.074-.671.107.107,0,0,1,.111.1.115.115,0,0,1-.107.114,1.047,1.047,0,0,0-.892.561,1.985,1.985,0,0,0-.217.616.994.994,0,0,1,.758-.347,1.015,1.015,0,1,1-1.011,1.05,1.114,1.114,0,0,1,0-.2,2.535,2.535,0,0,1,.284-1.223m-.071,1.4a.291.291,0,0,0,0,.059.066.066,0,0,1,0,.028.821.821,0,1,0,0-.1Z" fill="#f7f7f7"/>
        <path id="Tracé_5654" data-name="Tracé 5654" d="M83.012,80.43l1.129-2.7H82.656a.107.107,0,0,1,0-.213h1.623a.127.127,0,0,1,.067,0,.138.138,0,0,1,.059.067.109.109,0,0,1,0,.036.075.075,0,0,1,0,.055L83.22,80.506a.108.108,0,0,1-.1.067.054.054,0,0,1-.043,0,.111.111,0,0,1-.074-.139l0-.007Z" fill="#f7f7f7"/>
        <path id="Tracé_5655" data-name="Tracé 5655" d="M86.04,77.5a.64.64,0,0,1,.395,1.153.991.991,0,1,1-.758,0,.645.645,0,0,1-.257-.517.632.632,0,0,1,.62-.636m0,2.859a.8.8,0,1,1,.008,0Zm0-1.789a.442.442,0,0,0,.43-.438.429.429,0,1,0-.43.438" fill="#f7f7f7"/>
        <path id="Tracé_5656" data-name="Tracé 5656" d="M91.5,77.484a1.011,1.011,0,0,1,1.011.892v.284a2.574,2.574,0,0,1-.292,1.228,1.264,1.264,0,0,1-1.074.667.1.1,0,0,1-.11-.088v-.012a.111.111,0,0,1,.107-.114,1.05,1.05,0,0,0,.892-.561,1.9,1.9,0,0,0,.217-.616.987.987,0,0,1-.762.34,1.011,1.011,0,1,1,0-2.022Zm.79,1.007a.329.329,0,1,0,.016,0Z" fill="#f7f7f7"/>
        <path id="Tracé_5657" data-name="Tracé 5657" d="M93.3,79.016a1.979,1.979,0,0,1,.292-1.078.947.947,0,0,1,.766-.462.965.965,0,0,1,.77.458,2.086,2.086,0,0,1,0,2.148.869.869,0,0,1-1.536,0,1.928,1.928,0,0,1-.292-1.066m.213,0a1.749,1.749,0,0,0,.265.952.652.652,0,0,0,1.185,0,1.832,1.832,0,0,0,0-1.9.655.655,0,0,0-1.185,0A1.753,1.753,0,0,0,93.515,79.016Z" fill="#f7f7f7"/>
        <path id="Tracé_5658" data-name="Tracé 5658" d="M96.847,77.78l-.434.257a.156.156,0,0,1-.146-.055.1.1,0,0,1,.032-.138l.007,0,.592-.363a.114.114,0,0,1,.146.039.133.133,0,0,1,0,.079v2.823a.107.107,0,0,1-.209,0Z" fill="#f7f7f7"/>
        <path id="Tracé_5659" data-name="Tracé 5659" d="M97.819,80.358l1.429-1.3a.79.79,0,0,0-1.057-1.167l-.15.138a.107.107,0,0,1-.146-.154l.15-.142a1.037,1.037,0,0,1,.679-.261.984.984,0,0,1,.738.328.973.973,0,0,1,.265.671,1,1,0,0,1-.328.746l-1.224,1.114h1.453a.109.109,0,0,1,0,.217H97.891a.091.091,0,0,1-.079-.032.114.114,0,0,1,.007-.158" fill="#f7f7f7"/>
        <path id="Tracé_5660" data-name="Tracé 5660" d="M104.891,77.642l-.79.817a1.021,1.021,0,0,1,.525.28,1.041,1.041,0,0,1,.3.738,1.021,1.021,0,0,1-.3.738,1.049,1.049,0,0,1-.738.308,1.019,1.019,0,0,1-.73-.3.1.1,0,0,1-.013-.141l.013-.013a.106.106,0,0,1,.151,0l0,0a.823.823,0,1,0,.581-1.4.114.114,0,0,1-.087-.047.111.111,0,0,1,0-.157h0l.762-.79h-1.185a.107.107,0,0,1-.111-.1v-.008a.111.111,0,0,1,.111-.111h1.433a.107.107,0,0,1,.111.1v.008a.094.094,0,0,1,0,.047.112.112,0,0,1-.036.039Z" fill="#f7f7f7"/>
        <path id="Tracé_5661" data-name="Tracé 5661" d="M107.477,79.885H105.8a.077.077,0,0,1-.063-.024.1.1,0,0,1-.009-.141l.009-.009,1.773-2.215a.1.1,0,0,1,.141-.009l.009.009a.29.29,0,0,1,.036.055v2.12h.205a.107.107,0,1,1,.046.209.118.118,0,0,1-.046,0h-.205v.529a.114.114,0,0,1-.111.107.111.111,0,0,1-.107-.107Zm0-.213v-1.8l-1.445,1.8Z" fill="#f7f7f7"/>
        <path id="Tracé_5662" data-name="Tracé 5662" d="M108.7,80.209a.1.1,0,0,1-.013-.141l.013-.013a.111.111,0,0,1,.157,0h0a.837.837,0,0,0,.58.237.821.821,0,0,0,0-1.643.789.789,0,0,0-.58.245.106.106,0,0,1-.151,0l0,0a.071.071,0,0,1-.028-.036.073.073,0,0,1,0-.036V78.8l.146-1.24a.091.091,0,0,1,.043-.079.1.1,0,0,1,.071-.024h1.429a.109.109,0,1,1,.021.217H109l-.107.912a1.094,1.094,0,0,1,.521-.142,1.044,1.044,0,0,1,.738,1.777,1.064,1.064,0,0,1-.738.3,1.037,1.037,0,0,1-.719-.32Z" fill="#f7f7f7"/>
        <path id="Tracé_5663" data-name="Tracé 5663" d="M111.615,78.1a1.25,1.25,0,0,1,1.074-.671.112.112,0,0,1,.111.1.115.115,0,0,1-.107.115,1.036,1.036,0,0,0-.892.557,1.985,1.985,0,0,0-.217.616,1.011,1.011,0,1,1-.253.7,1.113,1.113,0,0,1,0-.2,2.538,2.538,0,0,1,.284-1.22Zm-.071,1.406a.253.253,0,0,0,0,.055.086.086,0,0,1,0,.032.825.825,0,1,0,0-.107Z" fill="#f7f7f7"/>
        <rect id="Rectangle_4502" data-name="Rectangle 4502" width="26.795" height="1.315" transform="translate(65.79 85.891) rotate(-0.15)" fill="#1c262b"/>
        <rect id="Rectangle_4503" data-name="Rectangle 4503" width="18.969" height="1.315" transform="matrix(1, -0.003, 0.003, 1, 65.797, 88.817)" fill="#1c262b"/>
        <rect id="Rectangle_4504" data-name="Rectangle 4504" width="13.362" height="1.315" transform="translate(88.67 64.067)" fill="#1c262b"/>
        <path id="Tracé_5664" data-name="Tracé 5664" d="M62.155,32.741h-.869a.1.1,0,0,1,0-.2h1.939a.1.1,0,0,1,0,.2h-.873v2.6a.1.1,0,1,1-.2,0h0Z" fill="#1c262b"/>
        <path id="Tracé_5665" data-name="Tracé 5665" d="M64.343,33.412a1.011,1.011,0,1,1-.954,1.064.543.543,0,0,1,0-.057.987.987,0,0,1,.956-1.007m0,1.82a.817.817,0,1,0-.756-.874c0,.02,0,.041,0,.061a.79.79,0,0,0,.758.811Z" fill="#1c262b"/>
        <path id="Tracé_5666" data-name="Tracé 5666" d="M66.684,33.511a.106.106,0,0,1-.1.1h-.261V35.08a.158.158,0,0,0,.15.15.114.114,0,0,1,.1.1.111.111,0,0,1-.1.1.347.347,0,0,1-.355-.339v-1.48h-.253c-.1,0-.1-.051-.1-.1s0-.1.1-.1h.253v-.75a.1.1,0,0,1,.205,0v.75h.261A.1.1,0,0,1,66.684,33.511Z" fill="#1c262b"/>
        <path id="Tracé_5667" data-name="Tracé 5667" d="M69.2,33.509v1.836a.1.1,0,1,1-.2,0h0v-.3a.951.951,0,0,1-.758.4,1.011,1.011,0,0,1,0-2.018.936.936,0,0,1,.758.4v-.3a.1.1,0,1,1,.2,0h0Zm-.2.908a.758.758,0,1,0-.758.813A.79.79,0,0,0,69,34.417Z" fill="#1c262b"/>
        <path id="Tracé_5668" data-name="Tracé 5668" d="M70.143,32.641a.1.1,0,0,1,.1-.1.108.108,0,0,1,.107.1v2.7a.1.1,0,0,1-.1.1h-.007a.1.1,0,0,1-.1-.1Z" fill="#1c262b"/>
        <path id="Tracé_5669" data-name="Tracé 5669" d="M72.382,34.452v-.944a.1.1,0,1,1,.2,0V33.8a.939.939,0,0,1,.766-.4,1,1,0,0,1,0,2.006.946.946,0,0,1-.766-.4v1.153a.1.1,0,1,1-.2,0Zm.2-.043a1.192,1.192,0,1,0,0-.032Z" fill="#1c262b"/>
        <path id="Tracé_5670" data-name="Tracé 5670" d="M75.1,33.513a.1.1,0,0,1,.2,0v.442a.323.323,0,0,1,.028-.047.977.977,0,0,1,.809-.494.1.1,0,0,1,0,.2.718.718,0,0,0-.584.328,1.74,1.74,0,0,0-.245.47.073.073,0,0,0,0,.036v.9a.1.1,0,0,1-.2,0Z" fill="#1c262b"/>
        <path id="Tracé_5671" data-name="Tracé 5671" d="M76.915,32.849a.1.1,0,0,1,.2,0v.1a.1.1,0,1,1-.2,0h0Zm0,.659a.1.1,0,0,1,.1-.1.1.1,0,0,1,.1.09v1.846a.1.1,0,0,1-.2,0Z" fill="#1c262b"/>
        <path id="Tracé_5672" data-name="Tracé 5672" d="M77.926,34.413a1.042,1.042,0,0,1,1.682-.79.088.088,0,0,1,.012.123l-.012.011a.1.1,0,0,1-.134.02.821.821,0,1,0-.521,1.445.863.863,0,0,0,.521-.178.1.1,0,0,1,.134,0,.094.094,0,0,1-.005.134.044.044,0,0,1-.015.012,1.049,1.049,0,0,1-.636.213,1.02,1.02,0,0,1-1.026-.99" fill="#1c262b"/>
        <path id="Tracé_5673" data-name="Tracé 5673" d="M80.22,34.421a.979.979,0,0,1,1.955-.071.1.1,0,0,1-.1.091H80.417a.79.79,0,0,0,.79.79.761.761,0,0,0,.652-.367.1.1,0,0,1,.13-.035l0,0a.107.107,0,0,1,.032.138.963.963,0,0,1-.817.458,1,1,0,0,1-.987-1.007Zm.209-.158h1.528a.773.773,0,0,0-1.528,0" fill="#1c262b"/>
        <path id="Tracé_5674" data-name="Tracé 5674" d="M63.763,38.109a.355.355,0,0,1,.355.355v.182A3.034,3.034,0,0,1,65.4,39.1a.442.442,0,0,1,.245.4.454.454,0,0,1-.454.454H65.18a.437.437,0,0,1-.245-.075,3.077,3.077,0,0,0-.853-.363V41.09c1.256.316,1.793.817,1.793,1.7A1.7,1.7,0,0,1,64.118,44.4v.5a.351.351,0,0,1-.351.351h0A.359.359,0,0,1,63.4,44.9v-.513a3.549,3.549,0,0,1-1.69-.644.454.454,0,0,1,.229-.849.439.439,0,0,1,.272.091,2.919,2.919,0,0,0,1.22.553V41.909c-1.2-.312-1.765-.766-1.765-1.7s.7-1.493,1.733-1.579v-.174a.359.359,0,0,1,.364-.347m-.332,2.815V39.463c-.525.047-.79.328-.79.691s.162.545.79.754Zm.652,1.145v1.5c.529-.055.817-.32.817-.719s-.182-.6-.817-.794Z" fill="#2a944b"/>
        <path id="Tracé_5675" data-name="Tracé 5675" d="M70.589,42.424a1.974,1.974,0,1,1-3.06-1.643,1.324,1.324,0,0,1-.272-.817,1.362,1.362,0,1,1,2.725,0,1.324,1.324,0,0,1-.272.817,1.975,1.975,0,0,1,.879,1.643m-.9,0a1.11,1.11,0,1,0-1.156,1.062h.09a1.066,1.066,0,0,0,1.07-1.062Zm-1.536-2.46a.462.462,0,1,0,.462-.462A.462.462,0,0,0,68.153,39.964Z" fill="#2a944b"/>
        <path id="Tracé_5676" data-name="Tracé 5676" d="M71.885,40.608a2,2,0,1,1,4-.205v.47a4.866,4.866,0,0,1-.288,1.694,2.907,2.907,0,0,1-1.066,1.41,2.368,2.368,0,0,1-1.236.4.458.458,0,0,1-.478-.437h0a.474.474,0,0,1,.442-.478,1.522,1.522,0,0,0,.79-.229,1.685,1.685,0,0,0,.517-.58,1.537,1.537,0,0,0,.111-.213,1.971,1.971,0,0,1-.79.166,2,2,0,0,1-2-1.992m.916,0a1.086,1.086,0,1,0,1.086-1.086h0A1.086,1.086,0,0,0,72.8,40.608" fill="#2a944b"/>
        <path id="Tracé_5677" data-name="Tracé 5677" d="M77.2,45.129a.712.712,0,0,0,.561-.742.6.6,0,0,1-.474-.561v-.067a.537.537,0,0,1,.52-.553h.045c.371,0,.592.28.592.727v.1a1.657,1.657,0,0,1-.4,1.2,1.245,1.245,0,0,1-.79.355.229.229,0,0,1-.255-.2l0-.03a.232.232,0,0,1,.2-.23" fill="#2a944b"/>
        <path id="Tracé_5678" data-name="Tracé 5678" d="M78.992,40.608a2,2,0,0,1,3.992-.205v.47a4.775,4.775,0,0,1-.288,1.694,2.893,2.893,0,0,1-1.062,1.41,2.364,2.364,0,0,1-1.24.4.462.462,0,0,1-.478-.438.478.478,0,0,1,.446-.478,1.513,1.513,0,0,0,.79-.229,1.658,1.658,0,0,0,.521-.58,1.147,1.147,0,0,0,.107-.213,1.937,1.937,0,0,1-.79.166,2,2,0,0,1-2-1.992m.916,0a1.086,1.086,0,1,0,1.15-1.018l-.066,0a1.086,1.086,0,0,0-1.084,1.02" fill="#2a944b"/>
        <path id="Tracé_5679" data-name="Tracé 5679" d="M84.3,40.608a2,2,0,0,1,3.992-.205c0,.158.02.316.02.47a4.771,4.771,0,0,1-.292,1.694,2.872,2.872,0,0,1-1.062,1.41,2.368,2.368,0,0,1-1.236.4.462.462,0,0,1-.482-.438.478.478,0,0,1,.446-.478,1.534,1.534,0,0,0,.79-.229,1.685,1.685,0,0,0,.517-.58,1.147,1.147,0,0,0,.107-.213,1.937,1.937,0,0,1-.79.166,2,2,0,0,1-2.01-1.99v0m.916,0a1.086,1.086,0,1,0,1.15-1.018l-.066,0a1.086,1.086,0,0,0-1.084,1.02" fill="#2a944b"/>
        <path id="Tracé_5680" data-name="Tracé 5680" d="M75.371,21.643a.1.1,0,0,1,.1-.1h.813a.822.822,0,1,1,0,1.643h-.711v1.133a.1.1,0,1,1-.2,0h0Zm.912,1.35a.624.624,0,1,0,0-1.248h-.711v1.249Z" fill="#1c262b"/>
        <path id="Tracé_5681" data-name="Tracé 5681" d="M79.422,22.507v1.82a.1.1,0,1,1-.2,0h0v-.3a.944.944,0,0,1-.758.4,1.011,1.011,0,0,1,0-2.022.948.948,0,0,1,.758.4v-.3a.1.1,0,0,1,.1-.1.1.1,0,0,1,.1.089v.023Zm-.2.912a.758.758,0,1,0-.758.79.79.79,0,0,0,.758-.79" fill="#1c262b"/>
        <path id="Tracé_5682" data-name="Tracé 5682" d="M80.24,22.5a.1.1,0,1,1,.2,0h0v1.1a.624.624,0,0,0,1.244,0V22.5a.1.1,0,0,1,.02-.051.068.068,0,0,1,.036-.024h.047l.047.02a.088.088,0,0,1,.024.036.053.053,0,0,1,0,.039v1.765a.955.955,0,0,1-.963.948,1.055,1.055,0,0,1-.395-.095.1.1,0,0,1-.039-.134.108.108,0,0,1,.126-.047.776.776,0,0,0,.328.079.758.758,0,0,0,.762-.75v-.134a.817.817,0,0,1-1.441-.533Z" fill="#1c262b"/>
        <path id="Tracé_5683" data-name="Tracé 5683" d="M85.724,23.234a.636.636,0,0,0-.628-.628.627.627,0,0,0-.62.628v1.117a.1.1,0,0,1-.047.051.11.11,0,0,1-.051,0h-.043V23.281a.624.624,0,1,0-1.244-.1.556.556,0,0,0,0,.1v1.1a.088.088,0,0,1-.043.079H83a.122.122,0,0,1-.083-.075V22.537a.1.1,0,0,1,.1-.1.091.091,0,0,1,.1.081v.192a.817.817,0,0,1,1.342.142.842.842,0,0,1,.727-.43.822.822,0,0,1,.821.821v1.1a.1.1,0,1,1-.193.052.092.092,0,0,1,0-.052Z" fill="#1c262b"/>
        <path id="Tracé_5684" data-name="Tracé 5684" d="M86.613,23.424a.979.979,0,0,1,1.955-.075.1.1,0,0,1-.1.091H86.813a.79.79,0,0,0,.79.79.758.758,0,0,0,.652-.363.1.1,0,0,1,.134-.036.111.111,0,0,1,.032.142.963.963,0,0,1-.817.458.991.991,0,0,1-.987-.995v-.012Zm.209-.162H88.35a.773.773,0,0,0-1.528,0" fill="#1c262b"/>
        <path id="Tracé_5685" data-name="Tracé 5685" d="M90.712,23.234a.624.624,0,0,0-.624-.624.636.636,0,0,0-.628.624v1.114a.079.079,0,0,1,0,.043.09.09,0,0,1-.075.039h-.024a.126.126,0,0,1-.063-.055V22.511a.1.1,0,0,1,.194-.049.1.1,0,0,1,0,.049v.2a.821.821,0,0,1,1.449.529v1.094a.1.1,0,0,1-.2,0Z" fill="#1c262b"/>
        <path id="Tracé_5686" data-name="Tracé 5686" d="M92.5,22.508a.1.1,0,0,1-.1.1h-.261v1.473a.155.155,0,0,0,.15.146.117.117,0,0,1,.1.1.115.115,0,0,1-.1.1.347.347,0,0,1-.355-.339V22.606h-.253c-.1,0-.1-.047-.1-.1s0-.1.1-.1h.253v-.75a.1.1,0,0,1,.205,0v.75h.276a.108.108,0,0,1,.083.1Z" fill="#1c262b"/>
        <path id="Tracé_5687" data-name="Tracé 5687" d="M94.834,24.43h0a.108.108,0,0,1-.091-.1V21.643a.1.1,0,0,1,.1-.1h.541a1.445,1.445,0,0,1,0,2.886Zm.533-.2a1.24,1.24,0,1,0,0-2.48h-.438v2.48Z" fill="#1c262b"/>
        <path id="Tracé_5688" data-name="Tracé 5688" d="M98.972,22.507v1.82a.1.1,0,1,1-.2,0v-.3a.944.944,0,0,1-.762.4,1.011,1.011,0,1,1,0-2.022.948.948,0,0,1,.762.4v-.3a.1.1,0,0,1,.09-.1h.01a.1.1,0,0,1,.1.1v.012Zm-.2.912a.762.762,0,1,0-.762.79.79.79,0,0,0,.765-.789Z" fill="#1c262b"/>
        <path id="Tracé_5689" data-name="Tracé 5689" d="M100.536,22.508a.106.106,0,0,1-.1.1h-.256v1.473a.154.154,0,0,0,.146.146.12.12,0,0,1,.107.1.114.114,0,0,1-.107.1.344.344,0,0,1-.351-.337V22.606h-.253c-.1,0-.1-.047-.1-.1s0-.1.1-.1h.253v-.75a.1.1,0,0,1,.1-.1.112.112,0,0,1,.107.1v.75h.261a.111.111,0,0,1,.1.1Z" fill="#1c262b"/>
        <path id="Tracé_5690" data-name="Tracé 5690" d="M103.051,22.507v1.82a.1.1,0,0,1-.2,0v-.3a.944.944,0,0,1-.762.4,1.011,1.011,0,0,1,0-2.022.948.948,0,0,1,.762.4v-.3a.1.1,0,0,1,.09-.1h.01a.1.1,0,0,1,.1.1v.012Zm-.2.912a.762.762,0,1,0-.762.79.79.79,0,0,0,.765-.789Z" fill="#1c262b"/>
        <path id="Tracé_5691" data-name="Tracé 5691" d="M63.213,24.166l-1.362-1.275,1.362-1.279.28.3-1.042.979,1.042.975Z" fill="#2a944b"/>
        <path id="Tracé_5692" data-name="Tracé 5692" d="M62.984,25.1a2.211,2.211,0,1,1,2.211-2.211v0A2.21,2.21,0,0,1,62.984,25.1m0-4a1.8,1.8,0,1,0,1.8,1.8,1.8,1.8,0,0,0-1.8-1.8" fill="#2a944b"/>
        <path id="Tracé_5693" data-name="Tracé 5693" d="M115.521,91.344a4.45,4.45,0,1,1-4.45,4.45,4.45,4.45,0,0,1,4.45-4.45" fill="#2a944b"/>
        <path id="Tracé_5694" data-name="Tracé 5694" d="M114.253,98.646l-1.666-2.6.7-.442,1.046,1.635,3.262-4.079.644.513Z" fill="#fff"/>
        <path id="Tracé_5695" data-name="Tracé 5695" d="M90.534,100.454a1.3,1.3,0,1,1-1.3-1.3,1.3,1.3,0,0,1,1.3,1.3" fill="#2a944b"/>
        <path id="Tracé_5696" data-name="Tracé 5696" d="M83.209,100.453a.96.96,0,1,1-.96-.96.96.96,0,0,1,.96.96" fill="#e6e6e6"/>
        <path id="Tracé_5697" data-name="Tracé 5697" d="M97.227,100.453a.96.96,0,1,1-.96-.96h0a.96.96,0,0,1,.959.96" fill="#e6e6e6"/>
        <path id="Tracé_5698" data-name="Tracé 5698" d="M38.581,125.022H56.006a4.154,4.154,0,0,0,4.15-4.15V88.257a4.217,4.217,0,0,1,4.239-4.2c.066,0,.133,0,.2.006H42.731a4.154,4.154,0,0,0-4.15,4.15Z" fill="#2a944b"/>
        <g id="Groupe_1418" data-name="Groupe 1418" opacity="0.1" style="mix-blend-mode: normal;isolation: isolate">
          <g id="Groupe_1417" data-name="Groupe 1417">
            <g id="Groupe_1416" data-name="Groupe 1416" clip-path="url(#clip-path-3)">
              <path id="Tracé_5699" data-name="Tracé 5699" d="M38.581,125.022H56.006a4.154,4.154,0,0,0,4.15-4.15V88.257a4.217,4.217,0,0,1,4.239-4.2c.066,0,.133,0,.2.006H42.731a4.154,4.154,0,0,0-4.15,4.15Z" fill="#040405"/>
            </g>
          </g>
        </g>
        <g id="Groupe_1421" data-name="Groupe 1421" opacity="0.1">
          <g id="Groupe_1420" data-name="Groupe 1420">
            <g id="Groupe_1419" data-name="Groupe 1419" clip-path="url(#clip-path-4)">
              <rect id="Rectangle_4506" data-name="Rectangle 4506" width="15.629" height="0.719" transform="translate(41.736 88.225)" fill="#040405"/>
              <rect id="Rectangle_4507" data-name="Rectangle 4507" width="15.629" height="0.719" transform="translate(41.736 90.247)" fill="#040405"/>
              <rect id="Rectangle_4508" data-name="Rectangle 4508" width="15.629" height="0.719" transform="translate(41.736 92.264)" fill="#040405"/>
              <rect id="Rectangle_4509" data-name="Rectangle 4509" width="15.629" height="0.719" transform="translate(41.736 94.282)" fill="#040405"/>
              <rect id="Rectangle_4510" data-name="Rectangle 4510" width="15.629" height="0.719" transform="translate(41.736 96.3)" fill="#040405"/>
              <rect id="Rectangle_4511" data-name="Rectangle 4511" width="15.629" height="0.719" transform="translate(41.736 98.318)" fill="#040405"/>
              <rect id="Rectangle_4512" data-name="Rectangle 4512" width="15.629" height="0.719" transform="translate(41.736 100.339)" fill="#040405"/>
              <rect id="Rectangle_4513" data-name="Rectangle 4513" width="15.629" height="0.719" transform="translate(41.736 102.357)" fill="#040405"/>
              <rect id="Rectangle_4514" data-name="Rectangle 4514" width="15.629" height="0.719" transform="translate(41.736 104.375)" fill="#040405"/>
              <rect id="Rectangle_4515" data-name="Rectangle 4515" width="15.629" height="0.719" transform="translate(41.736 106.393)" fill="#040405"/>
              <rect id="Rectangle_4516" data-name="Rectangle 4516" width="15.629" height="0.719" transform="translate(41.736 108.41)" fill="#040405"/>
              <rect id="Rectangle_4517" data-name="Rectangle 4517" width="15.629" height="0.719" transform="translate(41.736 110.432)" fill="#040405"/>
              <rect id="Rectangle_4518" data-name="Rectangle 4518" width="15.629" height="0.719" transform="translate(41.736 112.45)" fill="#040405"/>
              <rect id="Rectangle_4519" data-name="Rectangle 4519" width="15.629" height="0.719" transform="translate(41.736 114.467)" fill="#040405"/>
              <rect id="Rectangle_4520" data-name="Rectangle 4520" width="15.629" height="0.719" transform="translate(41.736 116.485)" fill="#040405"/>
              <rect id="Rectangle_4521" data-name="Rectangle 4521" width="15.629" height="0.719" transform="translate(41.736 118.503)" fill="#040405"/>
            </g>
          </g>
        </g>
        <path id="Tracé_5700" data-name="Tracé 5700" d="M21.737,111.214v39.379H34.929v.051a4.186,4.186,0,0,0,4.087,4.189h.142a3.79,3.79,0,0,0,.426-.024l.79-.162a4.431,4.431,0,0,0,.565-.225,2.375,2.375,0,0,0,.265-.138,1.246,1.246,0,0,0,.13-.083,3.084,3.084,0,0,0,.351-.237l.055-.043a2.172,2.172,0,0,0,.229-.2,1.547,1.547,0,0,0,.118-.111,4.084,4.084,0,0,0,1.035-1.71.216.216,0,0,1,0-.036c.028-.1.055-.205.079-.312a2.407,2.407,0,0,0,.063-.4v-.182a.332.332,0,0,0,0-.063V111.257a4.217,4.217,0,0,1,4.235-4.2q.1,0,.207.006h-21.8a4.154,4.154,0,0,0-4.169,4.139v.011" fill="#2a944b"/>
        <g id="Groupe_1424" data-name="Groupe 1424" opacity="0.1">
          <g id="Groupe_1423" data-name="Groupe 1423">
            <g id="Groupe_1422" data-name="Groupe 1422" clip-path="url(#clip-path-5)">
              <rect id="Rectangle_4523" data-name="Rectangle 4523" width="15.629" height="0.719" transform="translate(24.635 109.693)" fill="#040405"/>
              <rect id="Rectangle_4524" data-name="Rectangle 4524" width="15.629" height="0.719" transform="translate(26.108 107.845)" fill="#040405"/>
              <rect id="Rectangle_4525" data-name="Rectangle 4525" width="15.629" height="0.719" transform="translate(24.635 111.711)" fill="#040405"/>
              <rect id="Rectangle_4526" data-name="Rectangle 4526" width="15.629" height="0.719" transform="translate(24.635 113.728)" fill="#040405"/>
              <rect id="Rectangle_4527" data-name="Rectangle 4527" width="15.629" height="0.719" transform="translate(24.635 115.746)" fill="#040405"/>
              <rect id="Rectangle_4528" data-name="Rectangle 4528" width="15.629" height="0.719" transform="translate(24.635 117.764)" fill="#040405"/>
              <rect id="Rectangle_4529" data-name="Rectangle 4529" width="15.629" height="0.719" transform="translate(24.635 119.786)" fill="#040405"/>
              <rect id="Rectangle_4530" data-name="Rectangle 4530" width="15.629" height="0.719" transform="translate(24.635 121.803)" fill="#040405"/>
              <rect id="Rectangle_4531" data-name="Rectangle 4531" width="15.629" height="0.719" transform="translate(24.635 123.821)" fill="#040405"/>
              <rect id="Rectangle_4532" data-name="Rectangle 4532" width="15.629" height="0.719" transform="translate(24.635 125.839)" fill="#040405"/>
              <rect id="Rectangle_4533" data-name="Rectangle 4533" width="15.629" height="0.719" transform="translate(24.635 127.857)" fill="#040405"/>
              <rect id="Rectangle_4534" data-name="Rectangle 4534" width="15.629" height="0.719" transform="translate(24.635 129.878)" fill="#040405"/>
              <rect id="Rectangle_4535" data-name="Rectangle 4535" width="15.629" height="0.719" transform="translate(24.635 131.896)" fill="#040405"/>
              <rect id="Rectangle_4536" data-name="Rectangle 4536" width="15.629" height="0.719" transform="translate(24.635 133.914)" fill="#040405"/>
              <rect id="Rectangle_4537" data-name="Rectangle 4537" width="15.629" height="0.719" transform="translate(24.635 135.931)" fill="#040405"/>
              <rect id="Rectangle_4538" data-name="Rectangle 4538" width="15.629" height="0.719" transform="translate(24.635 137.949)" fill="#040405"/>
              <rect id="Rectangle_4539" data-name="Rectangle 4539" width="15.629" height="0.719" transform="translate(24.635 139.971)" fill="#040405"/>
              <rect id="Rectangle_4540" data-name="Rectangle 4540" width="15.629" height="0.719" transform="translate(24.635 141.989)" fill="#040405"/>
              <rect id="Rectangle_4541" data-name="Rectangle 4541" width="15.629" height="0.719" transform="translate(24.635 144.006)" fill="#040405"/>
              <rect id="Rectangle_4542" data-name="Rectangle 4542" width="7.814" height="1.658" transform="translate(32.449 146.916)" fill="#040405"/>
            </g>
          </g>
        </g>
        <path id="Tracé_5701" data-name="Tracé 5701" d="M55.86,125.022a.479.479,0,0,0,.107,0,4.458,4.458,0,0,0,.462-.028,3.8,3.8,0,0,1-.426.02Z" fill="#2a944b"/>
        <path id="Tracé_5702" data-name="Tracé 5702" d="M64.346,84.075a4.189,4.189,0,0,0-4.189,4.182v7.9h8.379v-7.9a4.189,4.189,0,0,0-4.19-4.182" fill="#2a944b"/>
        <g id="Groupe_1427" data-name="Groupe 1427" opacity="0.2" style="mix-blend-mode: normal;isolation: isolate">
          <g id="Groupe_1426" data-name="Groupe 1426">
            <g id="Groupe_1425" data-name="Groupe 1425" clip-path="url(#clip-path-6)">
              <path id="Tracé_5703" data-name="Tracé 5703" d="M64.346,84.075a4.189,4.189,0,0,0-4.189,4.182v7.9h8.379v-7.9a4.189,4.189,0,0,0-4.19-4.182" fill="#040405"/>
            </g>
          </g>
        </g>
        <path id="Tracé_5704" data-name="Tracé 5704" d="M43.316,111.257v13.774h12.47a4.182,4.182,0,0,1-4.087-4.185v-9.587a4.193,4.193,0,1,0-8.383-.224c0,.074,0,.149,0,.224Z" fill="#2a944b"/>
        <g id="Groupe_1430" data-name="Groupe 1430" opacity="0.2" style="mix-blend-mode: normal;isolation: isolate">
          <g id="Groupe_1429" data-name="Groupe 1429">
            <g id="Groupe_1428" data-name="Groupe 1428" clip-path="url(#clip-path-7)">
              <path id="Tracé_5705" data-name="Tracé 5705" d="M43.316,111.257v13.774h12.47a4.182,4.182,0,0,1-4.087-4.185v-9.587a4.193,4.193,0,1,0-8.383-.224c0,.074,0,.149,0,.224Z" fill="#040405"/>
            </g>
          </g>
        </g>
        <path id="Tracé_5706" data-name="Tracé 5706" d="M15.644,150.593v.051a4.186,4.186,0,0,0,4.087,4.189h19.3a4.186,4.186,0,0,1-4.087-4.189v-.055Z" fill="#2a944b"/>
        <g id="Groupe_1433" data-name="Groupe 1433" opacity="0.2" style="mix-blend-mode: normal;isolation: isolate">
          <g id="Groupe_1432" data-name="Groupe 1432">
            <g id="Groupe_1431" data-name="Groupe 1431" clip-path="url(#clip-path-8)">
              <path id="Tracé_5707" data-name="Tracé 5707" d="M15.644,150.593v.051a4.186,4.186,0,0,0,4.087,4.189h19.3a4.186,4.186,0,0,1-4.087-4.189v-.055Z" fill="#040405"/>
            </g>
          </g>
        </g>
        <path id="Tracé_5708" data-name="Tracé 5708" d="M112.425,125.334s-9.671,17.088-9.675,17.112c-1.554,3.446-2.848,6.51-3.381,8.137a.049.049,0,0,0,0,.024,2.618,2.618,0,0,0-.224,1.18v.033c.716,1.155,27.91,14.374,29.013,14.513s1.6-2.99.948-4.345-8.8-11.075-8.8-11.075l9.5-17.165Z" fill="#e57f6d"/>
        <path id="Tracé_5709" data-name="Tracé 5709" d="M127.723,166.24c-1.1-.142-27.866-13.259-28.573-14.415a.047.047,0,0,1,0-.033,2.656,2.656,0,0,1,.224-1.176.045.045,0,0,1,0-.028c.529-1.627,1.827-4.7,3.377-8.137,0,0,1.627-2.99,2.278-4.028l17.3,8.951-2.034,3.556s7.73,9.618,8.361,10.985.173,4.471-.933,4.325" fill="#e6e6e6"/>
        <path id="Tracé_5710" data-name="Tracé 5710" d="M128.222,165.857c-1.111-.167-28.2-14.126-28.887-15.314-.273-.443,1.534-4.512,3.853-9.358l.073-.155,17.584,8.813-.159.293s7.978,9.98,8.605,11.368.039,4.54-1.069,4.353" fill="#2a944b"/>
        <path id="Tracé_5711" data-name="Tracé 5711" d="M128.454,164.661c-4.508-2.466-22.93-11.982-27.577-14.077-.037,0-.053,0,0,.029,4.418,2.543,22.918,11.909,27.556,14.126.082.044.115-.025.021-.078" fill="#fff"/>
        <path id="Tracé_5712" data-name="Tracé 5712" d="M122.112,150.954a7.161,7.161,0,0,0-6-1.546c-.081.024-.049.134.02.146a28.358,28.358,0,0,1,5.851,1.627.13.13,0,1,0,.126-.228Z" fill="#1c262b"/>
        <path id="Tracé_5713" data-name="Tracé 5713" d="M123.007,152.4a7.157,7.157,0,0,0-6-1.542c-.081.02-.049.134,0,.142a28.611,28.611,0,0,1,5.851,1.627A.135.135,0,1,0,123,152.4Z" fill="#1c262b"/>
        <path id="Tracé_5714" data-name="Tracé 5714" d="M123.886,153.855a7.168,7.168,0,0,0-6-1.546c-.077.024-.045.134.024.146a28.217,28.217,0,0,1,5.851,1.627.13.13,0,1,0,.126-.228Z" fill="#1c262b"/>
        <path id="Tracé_5715" data-name="Tracé 5715" d="M106.159,146.378c-1.461-1.994-4.561.269-3.1,2.266s4.552-.282,3.1-2.266" fill="#fff"/>
        <g id="Groupe_1436" data-name="Groupe 1436" opacity="0.1" style="mix-blend-mode: normal;isolation: isolate">
          <g id="Groupe_1435" data-name="Groupe 1435">
            <g id="Groupe_1434" data-name="Groupe 1434" clip-path="url(#clip-path-9)">
              <path id="Tracé_5716" data-name="Tracé 5716" d="M121.851,151.642l1.945,12.165a43.214,43.214,0,0,0,4.41,2.063c1.107.175,1.676-2.978,1.058-4.357-.46-1.05-5.155-7.047-7.413-9.871" fill="#040405"/>
            </g>
          </g>
        </g>
        <path id="Tracé_5717" data-name="Tracé 5717" d="M129.134,165.113c.407.435-.553,2.01-.972,1.961s-29.908-15.4-30.339-15.77.671-2.079,1.3-1.872,30.011,15.681,30.011,15.681" fill="#1c262b"/>
        <path id="Tracé_5718" data-name="Tracé 5718" d="M104.983,136.82l19.488,10.407s24.6-35.075,25.091-44.27c.679-12.718-10.171-53.1-10.171-53.1l-17.324-.118s7.043,41.532,6.469,48.619c-.309,3.705-23.553,38.462-23.553,38.462" fill="#354952"/>
        <path id="Tracé_5719" data-name="Tracé 5719" d="M126.172,143.2c-1-.724-10.241-6.078-17.275-9.5-.045-.02-.077.045-.037.073,2.136,1.408,15.924,8.951,17.263,9.5.04.021.094-.04.049-.073" fill="#1c262b"/>
        <path id="Tracé_5720" data-name="Tracé 5720" d="M130.932,89.478c-.814-6.074-1.688-12.145-2.7-18.19s-2.085-12.147-3.352-18.171c-.155-.736-.317-1.469-.476-2.205a.091.091,0,0,0-.179.033c1.07,5.981,2.164,11.953,3.149,17.946s1.9,12,2.722,18.016q.3,2.234.594,4.475a39.658,39.658,0,0,1,.439,4.642,11.836,11.836,0,0,1-.732,4.329,25.051,25.051,0,0,1-2,3.91c-3.133,5.289-17.169,28.48-17.535,29.151-.024.045.037.09.065.045,3.369-5.228,13.833-21.921,17-27.312,1.432-2.441,3.076-4.882,3.544-7.73.478-2.946-.153-6.01-.539-8.939" fill="#1c262b"/>
        <path id="Tracé_5721" data-name="Tracé 5721" d="M125.94,136.82s-.2,19.765-.2,19.781c.106,3.78.264,7.091.5,8.8a.026.026,0,0,0,0,.024,2.614,2.614,0,0,0,.309,1.16l.024.024c1.143.732,31.381.777,32.434.407s.134-3.389-1.042-4.325-12.743-6.135-12.743-6.135V136.808Z" fill="#e57f6d"/>
        <path id="Tracé_5722" data-name="Tracé 5722" d="M125.786,152.541s-.041,4.044-.041,4.069c.106,3.78.264,7.091.5,8.8a.025.025,0,0,0,0,.024,5.056,5.056,0,0,0,.309,1.16l.024.024c1.143.732,31.381.777,32.434.407s.134-3.389-1.042-4.325-12.743-6.135-12.743-6.135v-4.11Z" fill="#e6e6e6"/>
        <path id="Tracé_5723" data-name="Tracé 5723" d="M159.042,167c-1.07.342-31.548-.2-32.691-.956-.443-.277-.622-4.724-.688-10.1v-.167l19.667.126v.334s11.559,5.423,12.73,6.371,2.034,4.067.982,4.392" fill="#2a944b"/>
        <path id="Tracé_5724" data-name="Tracé 5724" d="M158.716,165.809c-5.135-.216-25.864-.606-30.958-.427-.041,0-.041.028,0,.028,5.086.33,25.819.549,30.958.484.11,0,.11-.081,0-.085" fill="#fff"/>
        <path id="Tracé_5725" data-name="Tracé 5725" d="M146.966,156.32a7.181,7.181,0,0,0-6.062,1.265c-.061.053,0,.138.081.122a28.6,28.6,0,0,1,5.969-1.135.126.126,0,0,0,.012-.252Z" fill="#1c262b"/>
        <path id="Tracé_5726" data-name="Tracé 5726" d="M148.411,157.224a7.2,7.2,0,0,0-6.062,1.265c-.061.057,0,.142.081.122a28.326,28.326,0,0,1,5.969-1.131.13.13,0,0,0,.012-.256Z" fill="#1c262b"/>
        <path id="Tracé_5727" data-name="Tracé 5727" d="M149.855,158.127a7.18,7.18,0,0,0-6.066,1.269c-.057.053.02.138.085.122a28.605,28.605,0,0,1,5.969-1.138.13.13,0,0,0,.012-.256Z" fill="#1c262b"/>
        <path id="Tracé_5728" data-name="Tracé 5728" d="M159.526,165.91c.541.22.407,2.034,0,2.193s-33.622-.594-34.176-.728-.321-2.16.338-2.254,33.838.789,33.838.789" fill="#1c262b"/>
        <path id="Tracé_5729" data-name="Tracé 5729" d="M130.635,159.274a1.92,1.92,0,0,0-1.778,3.4c2.193,1.149,3.98-2.257,1.778-3.4" fill="#fff"/>
        <path id="Tracé_5730" data-name="Tracé 5730" d="M139.163,49.814a.067.067,0,0,1,0,.02c-.118.358-6.343,17.417-6.917,17.69-.663.305,13.752,24.525,14.606,35.775.545,7.2-.525,47.919-.525,47.919h-21.1s1.013-36.617,1.5-48.212c.187-4.475-14.476-26.893-14.647-40.84-.057-4.4,3.1-12.429,3.1-12.429Z" fill="#354952"/>
        <path id="Tracé_5731" data-name="Tracé 5731" d="M126.848,102.693c0-.187-.146-.244-.159-.053-.476,6.278-.586,12.519-.887,18.809s-.13,7.783-.407,14.053c-.159,3.548,0,7.108-.09,10.66a.045.045,0,1,0,.09,0c.651-6.254,1.449-39.913,1.453-43.469" fill="#1c262b"/>
        <path id="Tracé_5732" data-name="Tracé 5732" d="M146.836,103.547a30.355,30.355,0,0,0-.427-4.622,22.463,22.463,0,0,0-1.3-4.337c-1.164-2.937-2.539-5.8-3.857-8.674s-2.693-5.8-4.1-8.678q-1.183-2.44-2.384-4.837c-.814-1.627-1.684-3.23-2.531-4.842-.037-.061-.134,0-.1.049,1.351,2.9,2.685,5.81,4.036,8.711s2.677,5.814,4,8.727,2.612,5.729,3.845,8.625a28.343,28.343,0,0,1,1.5,4.264,24.606,24.606,0,0,1,.618,4.593c.2,3.6.3,7.21.659,10.8a.041.041,0,0,0,.053.024.041.041,0,0,0,.024-.024c.115-3.253.062-6.528-.036-9.779" fill="#1c262b"/>
        <path id="Tracé_5733" data-name="Tracé 5733" d="M144.786,147.052c-1.221-.159-10.578-.48-18.378-.146-.053,0-.049.073,0,.081,2.547.224,16.937.321,18.37.159.045,0,.065-.086.008-.094" fill="#1c262b"/>
        <path id="Tracé_5734" data-name="Tracé 5734" d="M135.143,66.584a40.217,40.217,0,0,0-6.591,2.287A.071.071,0,0,0,128.6,69c2.213-.692,4.475-1.343,6.636-2.156a.14.14,0,0,0-.09-.264Z" fill="#1c262b"/>
        <path id="Tracé_5735" data-name="Tracé 5735" d="M137.267,52.129c0-.077-.122-.106-.13-.024-.24,2.514-.631,4.711-1.082,7.043-.212,1.082-1.7,7.022-3.556,6.392-.309-.106-.439-.435-.439-.919A7.623,7.623,0,0,1,132.5,62.8c.338-1.241.639-2.49.875-3.755a34.81,34.81,0,0,0,.655-7.144.061.061,0,0,0-.122,0,65.246,65.246,0,0,1-1.587,9.793c-.407,1.546-1.428,3.829.187,4.235s3.133-3.426,3.446-4.475a36.279,36.279,0,0,0,1.31-9.323" fill="#1c262b"/>
        <path id="Tracé_5736" data-name="Tracé 5736" d="M132.535,65.706a9.374,9.374,0,0,0-.553,1.221,2.889,2.889,0,0,0-.285,1.013c0,.065.09.081.13.041a3.731,3.731,0,0,0,.541-.956c.183-.37.374-.74.549-1.119a.216.216,0,0,0-.382-.2" fill="#1c262b"/>
        <path id="Tracé_5737" data-name="Tracé 5737" d="M129.007,108.9c.106-3,.439-6.139-.541-9.032a29.952,29.952,0,0,0-1.924-4.1q-1.1-2.116-2.152-4.252c-2.815-5.7-5.468-11.465-7.84-17.352a37.278,37.278,0,0,1-2.571-8.792,27.016,27.016,0,0,1,.59-9.561c.179-.781.366-1.558.582-2.327,0-.057-.069-.09-.09-.033a31.573,31.573,0,0,0-1.627,9.146,25.909,25.909,0,0,0,1.587,8.739c1.009,2.942,2.278,5.8,3.523,8.65q1.929,4.405,4,8.739c1.379,2.876,2.848,5.7,4.3,8.544a15.36,15.36,0,0,1,1.627,4.309,22.265,22.265,0,0,1,.175,4.715c-.248,6.632-.814,28.7-.9,35.307,0,.838-.024,1.68-.033,2.518a.059.059,0,1,0,.118,0c.4-6.6.936-28.619,1.176-35.218" fill="#1c262b"/>
        <path id="Tracé_5738" data-name="Tracé 5738" d="M124.288,54.11c0-.049-.073-.037-.081,0a16.072,16.072,0,0,1-1.269,5.37,7.543,7.543,0,0,1-3.755,3.186,28.412,28.412,0,0,1-2.738,1.009c-.065,0-.049.126.02.11a14.448,14.448,0,0,0,5.033-1.749,6.319,6.319,0,0,0,2.722-4.6,15.991,15.991,0,0,0,.069-3.324Z" fill="#1c262b"/>
        <path id="Tracé_5739" data-name="Tracé 5739" d="M110.256,59.09c.077.077,31.954-2.258,32.219-2.6.37-.492-10.635-33.029-14.24-37.044-.773-.858-3.1-.936-5.041-.545a8.434,8.434,0,0,0-1.489.407h-.049a3.694,3.694,0,0,0-1.07.627c-5.126,4.776-7.38,18.919-8.1,23.573-1.213,7.706-2.519,15.306-2.23,15.582" fill="#e6e6e6"/>
        <path id="Tracé_5740" data-name="Tracé 5740" d="M123.207,18.9s6.86,11.681,7.6,15.322,1.745,25.717,1.745,25.717L107.917,61.8s3.34-13.182,3.328-14c0,0,2.384-15.163,5.383-21.8,3.4-7.537,6.579-7.1,6.579-7.1" fill="#1c262b"/>
        <path id="Tracé_5741" data-name="Tracé 5741" d="M128.442,19.259s5.09,12.206,5.411,13.394,6.811,26.474,6.811,26.474l2.824-1.933-3.422-10.481s-9.008-24.586-11.624-27.454" fill="#1c262b"/>
        <path id="Tracé_5742" data-name="Tracé 5742" d="M123.54,22.75c7.409,4.63,19.452,16.05,19.732,19.122.2,2.226.167,4.414-.732,5.541-1.831,2.3-5.627,1.99-6.953,1.139-5.8-3.723-12.023-11.844-16-20.282-3.489-7.4,1.54-7.025,3.953-5.52" fill="#1c262b"/>
        <path id="Tracé_5743" data-name="Tracé 5743" d="M139.961,36.924c-3.092-3.092-6.831-6.469-10.082-9.4l-1.477-1.31a59.31,59.31,0,0,1,11.559,10.71" fill="#29373e"/>
        <path id="Tracé_5744" data-name="Tracé 5744" d="M120.757,30.623a58.863,58.863,0,0,0,8.593,12.1q1.245,1.375,2.583,2.665c1.733,1.656,3.662,3.45,6.2,3.511a7.993,7.993,0,0,0,3.572-.72,6.662,6.662,0,0,1-3.58,1.07c-2.636.037-4.667-1.908-6.44-3.609q-1.35-1.3-2.575-2.71a54.69,54.69,0,0,1-8.357-12.3Z" fill="#29373e"/>
        <path id="Tracé_5745" data-name="Tracé 5745" d="M122.108,33.137a4.107,4.107,0,0,1-1.53-1.688,13.378,13.378,0,0,1,1.53,1.688" fill="#29373e"/>
        <path id="Tracé_5746" data-name="Tracé 5746" d="M126.465,24.757c-1.627-1.07-5.175-3.662-7.051-2.38-1.66,1.53.179,5.59.891,7.372a16.045,16.045,0,0,1-1.627-3.7,5.385,5.385,0,0,1-.151-3.084c1.436-3.312,6.274.281,7.93,1.79Z" fill="#29373e"/>
        <path id="Tracé_5747" data-name="Tracé 5747" d="M138.252,32.617c-4-1.867-5.387-1.5-6.567-1.062-2.441.928-6.16,3.45-5.289,5.175.785,1.562,6-2.734,6-2.734s-6.046,3.5-4.756,5.212,7.067-3.625,7.067-3.625-6.131,3.739-4.52,5.289c1.221,1.172,6.721-3.365,6.721-3.365s-5.248,3.255-4.048,4.508c1.322,1.391,6.668-2.478,6.668-2.478a7.543,7.543,0,0,0,2.421.321c.461-.158-1.017-5.986-3.7-7.241" fill="#e57f6d"/>
        <path id="Tracé_5748" data-name="Tracé 5748" d="M134.411,32.653c-.724.382-1.461.769-2.152,1.221s-1.359.919-2,1.432a13.9,13.9,0,0,0-2.315,2.226,30.128,30.128,0,0,1,4.445-3.479c.688-.448,1.355-.932,2.034-1.379Z" fill="#1c262b"/>
        <path id="Tracé_5749" data-name="Tracé 5749" d="M136.092,35.106c-.9.533-1.819,1.029-2.7,1.6s-1.66,1.188-2.494,1.815c-.065.049,0,.069.049.02.858-.594,1.7-1.078,2.567-1.664s1.713-1.221,2.6-1.754c-.022-.005-.022-.025-.022-.017" fill="#1c262b"/>
        <path id="Tracé_5750" data-name="Tracé 5750" d="M137.886,36.957a23.639,23.639,0,0,0-3.947,2.763c-.061.053,0,.069.069.02,1.294-.944,2.3-1.693,3.9-2.734.027-.016.006-.065-.022-.049" fill="#1c262b"/>
        <path id="Tracé_5751" data-name="Tracé 5751" d="M128.544,23.389c-1.485.407-5.179-1.664-6.306-3.767-.077-.142.293-5.086.305-6.233,0-.236,7.2,1.811,7.2,1.811a18.329,18.329,0,0,0-.732,4.41,2.879,2.879,0,0,0,.045.472.5.5,0,0,1,0,.077c.147.9,1.075,2.807-.512,3.23" fill="#e57f6d"/>
        <path id="Tracé_5752" data-name="Tracé 5752" d="M129.057,20.081a.491.491,0,0,0,0,.077,4.814,4.814,0,0,1-.74.033c-4.244-.126-5.322-5.452-5.529-6.8,1.282.191,6.945,1.806,6.945,1.806A18.4,18.4,0,0,0,129,19.611a2.464,2.464,0,0,0,.057.468Z" fill="#1c262b"/>
        <path id="Tracé_5753" data-name="Tracé 5753" d="M119.758,5.247c-.382,2.645,2.075,9.765,4.126,11.1,2.97,1.957,7.271,1.53,8.8-1.912C134.161,11.1,130.8,1.9,128.559.735c-3.294-1.733-8.233.6-8.8,4.512" fill="#e57f6d"/>
        <path id="Tracé_5754" data-name="Tracé 5754" d="M126.77,8.64s-.028.037,0,.057c.179.472.3,1.046-.077,1.351v.028c.5-.256.321-1.016.077-1.436" fill="#1c262b"/>
        <path id="Tracé_5755" data-name="Tracé 5755" d="M126.172,8.286c-.789.2-.321,1.77.407,1.583s.256-1.754-.407-1.583" fill="#1c262b"/>
        <path id="Tracé_5756" data-name="Tracé 5756" d="M129.6,7.883s.045,0,.049.033c.13.488.362,1.029.846,1.058,0,0,.02.028,0,.028-.553.085-.85-.639-.895-1.119" fill="#1c262b"/>
        <path id="Tracé_5757" data-name="Tracé 5757" d="M129.887,7.249c.761-.289,1.286,1.257.582,1.526s-1.225-1.282-.582-1.526" fill="#1c262b"/>
        <path id="Tracé_5758" data-name="Tracé 5758" d="M125.342,7.754a5.793,5.793,0,0,0,.541-.407c.208-.155.407-.256.48-.509a.35.35,0,0,0-.175-.407.85.85,0,0,0-.85.163,1.264,1.264,0,0,0-.541.728.366.366,0,0,0,.545.431Z" fill="#1c262b"/>
        <path id="Tracé_5759" data-name="Tracé 5759" d="M130.256,6.281a6.26,6.26,0,0,1-.671.024A1.107,1.107,0,0,1,128.9,6.2a.346.346,0,0,1-.1-.407.858.858,0,0,1,.769-.407,1.262,1.262,0,0,1,.875.244.366.366,0,0,1-.183.651Z" fill="#1c262b"/>
        <path id="Tracé_5760" data-name="Tracé 5760" d="M127.661,13.286a.792.792,0,0,0,.5.163,1.332,1.332,0,0,0,.484-.281h.028a.687.687,0,0,1-.537.448.537.537,0,0,1-.509-.317c-.019-.013.014-.013.034-.013" fill="#1c262b"/>
        <path id="Tracé_5761" data-name="Tracé 5761" d="M127.739,11.659a1.72,1.72,0,0,0,1.322.407,2.075,2.075,0,0,0,.6-.151.7.7,0,0,0,.11-.045l.1-.049a.126.126,0,0,0,.065-.138l-.02-.049V11.59c-.1-.374-.305-.932-.305-.932.159.028.944.134.875-.057a25.6,25.6,0,0,0-2.128-4.8c-.024-.049-.106,0-.085.041.5,1.546,1.261,2.994,1.782,4.541a2.816,2.816,0,0,0-.85,0c-.049.028.407,1.07.448,1.241a2.4,2.4,0,0,1-1.867-.024.039.039,0,0,0-.049.061Z" fill="#1c262b"/>
        <g id="Groupe_1439" data-name="Groupe 1439" opacity="0.3" style="mix-blend-mode: normal;isolation: isolate">
          <g id="Groupe_1438" data-name="Groupe 1438">
            <g id="Groupe_1437" data-name="Groupe 1437" clip-path="url(#clip-path-10)">
              <path id="Tracé_5762" data-name="Tracé 5762" d="M132.686,14.434c-1.526,3.438-5.83,3.873-8.8,1.908a9.392,9.392,0,0,1-2.478-3.8L122.527,9.4s1.18,2.075,2.27,2.478c1.493.557,4.069.281,4.646-1.326l.846-.228s1.994.724,2.441-.814a8.908,8.908,0,0,1-.044,4.923" fill="#1c262b"/>
            </g>
          </g>
        </g>
        <path id="Tracé_5763" data-name="Tracé 5763" d="M121.151,11.5c1.123,0,1.473-1.029,1.57-1.754s-1.18-4.638-.928-5.749a2.333,2.333,0,0,1,2.124-1.912c.928.028,2.335.867,2.958.643s.407-1.627.85-1.758c.976-.256,2.632,1.876,3.088,2.893A5.139,5.139,0,0,0,124.869.092c-4.65.789-5.289,4.3-5.33,5.773a12.142,12.142,0,0,0,1.612,5.631" fill="#1c262b"/>
        <path id="Tracé_5764" data-name="Tracé 5764" d="M122.629,10.731s-2.055-2.067-3.023-1.294.867,3.971,2.2,4.219a1.3,1.3,0,0,0,1.575-.932l.012-.053Z" fill="#e57f6d"/>
        <path id="Tracé_5765" data-name="Tracé 5765" d="M120.155,10.341v.037a3.346,3.346,0,0,1,2.034,1.725.712.712,0,0,0-1.086,0,.024.024,0,0,0,0,.035.024.024,0,0,0,.03.006.814.814,0,0,1,.911.126,3.568,3.568,0,0,1,.521.61c.053.069.191,0,.142-.081-.18-1.14-1.325-2.556-2.55-2.458" fill="#1c262b"/>
        <path id="Tracé_5766" data-name="Tracé 5766" d="M129.077,19.8l-.35,3.117-6.465-5.236-.3,1.766,6.465,6.156.435-2.335,1.583,1.233-.521-3.422Z" fill="#e6e6e6"/>
        <path id="Tracé_5767" data-name="Tracé 5767" d="M121.965,19.446c2.209,1.99,4.378,4.028,6.534,6.1l-.167.053.448-2.331.029-.146.114.09,1.57,1.253-.11.065c-.163-1.143-.309-2.287-.456-3.434.208,1.192.407,2.384.614,3.58l-.134-.106-1.6-1.221.142-.053-.407,2.335-.033.179c-2.205-2.091-4.39-4.2-6.53-6.351Z" fill="#1c262b"/>
        <path id="Tracé_5768" data-name="Tracé 5768" d="M122,19.642l-.179-1.945a43.21,43.21,0,0,1,3.662,3.035c.3.472,1.351,5.769,1.351,5.769s-3.992-4.67-4.834-6.859" fill="#1c262b"/>
      </g>
    </g>
  </g>
</svg>
