<svg id="Groupe_2170" data-name="Groupe 2170" xmlns="http://www.w3.org/2000/svg" xmlns:xlink="http://www.w3.org/1999/xlink" width="166.166" height="168.59" viewBox="0 0 166.166 168.59">
  <defs>
    <clipPath id="clip-path">
      <rect id="Rectangle_5041" data-name="Rectangle 5041" width="166.166" height="168.59" fill="none"/>
    </clipPath>
    <clipPath id="clip-path-3">
      <rect id="Rectangle_5007" data-name="Rectangle 5007" width="16.298" height="14.786" fill="none"/>
    </clipPath>
    <clipPath id="clip-path-4">
      <rect id="Rectangle_5008" data-name="Rectangle 5008" width="15.613" height="14.786" fill="none"/>
    </clipPath>
    <clipPath id="clip-path-5">
      <rect id="Rectangle_5009" data-name="Rectangle 5009" width="17.201" height="14.786" fill="none"/>
    </clipPath>
    <clipPath id="clip-path-6">
      <rect id="Rectangle_5010" data-name="Rectangle 5010" width="13.404" height="14.786" fill="none"/>
    </clipPath>
    <clipPath id="clip-path-7">
      <rect id="Rectangle_5011" data-name="Rectangle 5011" width="14.98" height="14.786" fill="none"/>
    </clipPath>
    <clipPath id="clip-path-8">
      <rect id="Rectangle_5012" data-name="Rectangle 5012" width="11.18" height="14.786" fill="none"/>
    </clipPath>
    <clipPath id="clip-path-9">
      <rect id="Rectangle_5013" data-name="Rectangle 5013" width="12.767" height="14.786" fill="none"/>
    </clipPath>
    <clipPath id="clip-path-10">
      <rect id="Rectangle_5014" data-name="Rectangle 5014" width="8.967" height="14.786" fill="none"/>
    </clipPath>
    <clipPath id="clip-path-11">
      <rect id="Rectangle_5015" data-name="Rectangle 5015" width="10.546" height="14.786" fill="none"/>
    </clipPath>
    <clipPath id="clip-path-12">
      <rect id="Rectangle_5016" data-name="Rectangle 5016" width="6.75" height="14.786" fill="none"/>
    </clipPath>
    <clipPath id="clip-path-13">
      <rect id="Rectangle_5017" data-name="Rectangle 5017" width="8.333" height="14.786" fill="none"/>
    </clipPath>
    <clipPath id="clip-path-14">
      <rect id="Rectangle_5018" data-name="Rectangle 5018" width="4.529" height="14.786" fill="none"/>
    </clipPath>
    <clipPath id="clip-path-15">
      <rect id="Rectangle_5019" data-name="Rectangle 5019" width="6.112" height="14.786" fill="none"/>
    </clipPath>
    <clipPath id="clip-path-16">
      <rect id="Rectangle_5020" data-name="Rectangle 5020" width="2.312" height="14.786" fill="none"/>
    </clipPath>
    <clipPath id="clip-path-17">
      <rect id="Rectangle_5021" data-name="Rectangle 5021" width="4.644" height="14.786" fill="none"/>
    </clipPath>
    <clipPath id="clip-path-18">
      <rect id="Rectangle_5022" data-name="Rectangle 5022" width="2.89" height="14.786" fill="none"/>
    </clipPath>
    <clipPath id="clip-path-19">
      <rect id="Rectangle_5023" data-name="Rectangle 5023" width="6.714" height="14.786" fill="none"/>
    </clipPath>
    <clipPath id="clip-path-20">
      <rect id="Rectangle_5024" data-name="Rectangle 5024" width="5.111" height="14.786" fill="none"/>
    </clipPath>
    <clipPath id="clip-path-21">
      <rect id="Rectangle_5025" data-name="Rectangle 5025" width="8.927" height="14.786" fill="none"/>
    </clipPath>
    <clipPath id="clip-path-22">
      <rect id="Rectangle_5026" data-name="Rectangle 5026" width="7.324" height="14.786" fill="none"/>
    </clipPath>
    <clipPath id="clip-path-23">
      <rect id="Rectangle_5027" data-name="Rectangle 5027" width="11.148" height="14.786" fill="none"/>
    </clipPath>
    <clipPath id="clip-path-24">
      <rect id="Rectangle_5028" data-name="Rectangle 5028" width="9.549" height="14.786" fill="none"/>
    </clipPath>
    <clipPath id="clip-path-25">
      <rect id="Rectangle_5029" data-name="Rectangle 5029" width="13.369" height="14.786" fill="none"/>
    </clipPath>
    <clipPath id="clip-path-26">
      <rect id="Rectangle_5030" data-name="Rectangle 5030" width="11.758" height="14.786" fill="none"/>
    </clipPath>
    <clipPath id="clip-path-27">
      <rect id="Rectangle_5031" data-name="Rectangle 5031" width="15.586" height="14.786" fill="none"/>
    </clipPath>
    <clipPath id="clip-path-28">
      <rect id="Rectangle_5032" data-name="Rectangle 5032" width="13.974" height="14.786" fill="none"/>
    </clipPath>
    <clipPath id="clip-path-29">
      <rect id="Rectangle_5033" data-name="Rectangle 5033" width="17.799" height="14.786" fill="none"/>
    </clipPath>
    <clipPath id="clip-path-30">
      <rect id="Rectangle_5036" data-name="Rectangle 5036" width="152.71" height="1.12" fill="none"/>
    </clipPath>
    <clipPath id="clip-path-31">
      <rect id="Rectangle_5037" data-name="Rectangle 5037" width="66.013" height="9.714" fill="none"/>
    </clipPath>
    <clipPath id="clip-path-32">
      <rect id="Rectangle_5039" data-name="Rectangle 5039" width="30.196" height="39.096" fill="none"/>
    </clipPath>
  </defs>
  <g id="Groupe_2169" data-name="Groupe 2169" clip-path="url(#clip-path)">
    <path id="Tracé_9078" data-name="Tracé 9078" d="M348.3,169.053l1.793-.339.4-1.954.4,1.954,1.793.343-1.785.45-.408,1.843-.408-1.843Z" transform="translate(-210.416 -98.608)" fill="#ebebeb"/>
    <path id="Tracé_9079" data-name="Tracé 9079" d="M26.57,95.923l1.8-.343.4-1.949.4,1.949,1.8.347-1.789.45-.408,1.843-.408-1.843Z" transform="translate(-16.052 -55.365)" fill="#ebebeb"/>
    <path id="Tracé_9080" data-name="Tracé 9080" d="M382.07,70.767l1.8-.343.4-1.954.4,1.954,1.8.343-1.789.45-.408,1.843-.408-1.843Z" transform="translate(-230.817 -40.487)" fill="#ebebeb"/>
    <path id="Tracé_9081" data-name="Tracé 9081" d="M312.56,211.763l1.8-.339.4-1.954.4,1.954,1.8.343-1.789.45-.408,1.843-.408-1.843Z" transform="translate(-188.825 -123.863)" fill="#ebebeb"/>
    <path id="Tracé_9082" data-name="Tracé 9082" d="M73.31,166.7l1.793-.343.4-1.953.4,1.953,1.8.343-1.789.45-.408,1.847-.408-1.847Z" transform="translate(-44.288 -97.212)" fill="#ebebeb"/>
    <path id="Tracé_9083" data-name="Tracé 9083" d="M82.23,207.783l1-.192.226-1.091.222,1.091,1.006.192-1,.249-.226,1.034-.23-1.034Z" transform="translate(-49.677 -122.107)" fill="#ebebeb"/>
    <path id="Tracé_9084" data-name="Tracé 9084" d="M282.78,57.7l1-.192.226-1.091.226,1.091,1,.192-1,.253-.23,1.03-.23-1.03Z" transform="translate(-170.834 -33.362)" fill="#ebebeb"/>
    <path id="Tracé_9085" data-name="Tracé 9085" d="M209.587,0l-.226,1.091-1,.192,1,.253.23,1.03.23-1.03,1-.253-1-.192Z" transform="translate(-125.875 0)" fill="#ebebeb"/>
    <path id="Tracé_9086" data-name="Tracé 9086" d="M119.54,147.163l1-.192.226-1.091.226,1.091,1,.192-1,.249-.23,1.034-.23-1.034Z" transform="translate(-72.217 -86.261)" fill="#ebebeb"/>
    <path id="Tracé_9087" data-name="Tracé 9087" d="M65.98,43.323l1-.192.226-1.091.222,1.091,1.006.192-1,.253-.226,1.03-.23-1.03Z" transform="translate(-39.86 -24.859)" fill="#ebebeb"/>
    <path id="Tracé_9088" data-name="Tracé 9088" d="M309.3,141.8l1-.192.222-1.091.226,1.091,1,.192-1,.253-.23,1.03-.226-1.03Z" transform="translate(-186.855 -83.092)" fill="#ebebeb"/>
    <path id="Tracé_9089" data-name="Tracé 9089" d="M41.93,169.273l1-.192.226-1.091.226,1.091,1,.192-1,.249-.23,1.034-.23-1.034Z" transform="translate(-25.331 -99.335)" fill="#ebebeb"/>
    <g id="Groupe_2168" data-name="Groupe 2168">
      <g id="Groupe_2167" data-name="Groupe 2167" clip-path="url(#clip-path)">
        <path id="Tracé_9090" data-name="Tracé 9090" d="M329.635,24.011a.3.3,0,1,0-.257-.265.3.3,0,0,0,.257.265" transform="translate(-198.983 -13.843)" fill="#ebebeb"/>
        <path id="Tracé_9091" data-name="Tracé 9091" d="M356.475,202.6a.3.3,0,1,0-.257-.265.3.3,0,0,0,.257.265" transform="translate(-215.198 -119.446)" fill="#ebebeb"/>
        <path id="Tracé_9092" data-name="Tracé 9092" d="M138.925,58.691a.3.3,0,1,0-.257-.265.3.3,0,0,0,.257.265" transform="translate(-83.771 -34.35)" fill="#ebebeb"/>
        <path id="Tracé_9093" data-name="Tracé 9093" d="M323.265,82.711a.3.3,0,1,0-.257-.265.3.3,0,0,0,.257.265" transform="translate(-195.135 -48.553)" fill="#ebebeb"/>
        <path id="Tracé_9094" data-name="Tracé 9094" d="M281.312,132.589a.214.214,0,0,0,.141-.263.208.208,0,0,0-.141-.146.214.214,0,0,0-.141.263.208.208,0,0,0,.141.146" transform="translate(-169.857 -78.16)" fill="#ebebeb"/>
        <path id="Tracé_9095" data-name="Tracé 9095" d="M225.042,34.329a.214.214,0,0,0,.141-.263.208.208,0,0,0-.141-.146.214.214,0,0,0-.141.263.208.208,0,0,0,.141.146" transform="translate(-135.863 -20.057)" fill="#ebebeb"/>
        <path id="Tracé_9096" data-name="Tracé 9096" d="M276.292,36.179a.214.214,0,0,0,.141-.263.208.208,0,0,0-.141-.146.214.214,0,0,0-.141.263.208.208,0,0,0,.141.146" transform="translate(-166.824 -21.151)" fill="#ebebeb"/>
        <path id="Tracé_9097" data-name="Tracé 9097" d="M94.258,90.922a.577.577,0,1,0-.558-.576.567.567,0,0,0,.558.576" transform="translate(-56.606 -53.082)" fill="#ebebeb"/>
        <path id="Tracé_9098" data-name="Tracé 9098" d="M269.09,39.878a.578.578,0,1,0-.509-.526.571.571,0,0,0,.509.526" transform="translate(-162.255 -22.902)" fill="#ebebeb"/>
        <path id="Tracé_9099" data-name="Tracé 9099" d="M377.221,268.66l-5.194.114-2.637.045c-.883.02-1.77,0-2.652.025h-.174v-.184l-.024-4.585v-.2h.2l5.241.025c1.75,0,3.5.045,5.241.065h.111v.114c0,.776-.036,1.549-.051,2.313Zm0,0-.055-2.309c0-.76-.044-1.512-.051-2.264l.107.114c-1.746.02-3.492.065-5.241.065l-5.241.025.2-.2-.02,4.573-.178-.18c.863,0,1.726,0,2.593.02l2.6.049Z" transform="translate(-221.435 -156.031)" fill="#ebebeb"/>
        <path id="Tracé_9100" data-name="Tracé 9100" d="M362.475,282.788l-5.194.114-2.637.045c-.883,0-1.77,0-2.652.025h-.158v-.184l-.024-4.573v-.2h.2l5.241.029c1.75,0,3.5.045,5.241.065h.111v.11c0,.776-.032,1.549-.051,2.313Zm0,0-.055-2.309c-.02-.76-.044-1.512-.051-2.264l.107.114c-1.746.02-3.492.065-5.241.065l-5.241.025.2-.2v4.573l-.178-.18c.863,0,1.726,0,2.593.02l2.6.049Z" transform="translate(-212.536 -164.392)" fill="#ebebeb"/>
        <path id="Tracé_9101" data-name="Tracé 9101" d="M392,282.788l-5.2.114-2.637.045c-.883,0-1.766,0-2.648.025h-.178v-.184l-.02-4.573v-.2h.218l5.241.029c1.746,0,3.492.045,5.241.065h.107v.11c0,.776-.036,1.549-.051,2.313Zm0,0-.059-2.309c0-.76-.044-1.512-.051-2.264l.111.114c-1.75.02-3.5.065-5.241.065l-5.241.025.194-.2-.02,4.573-.174-.18c.863,0,1.722,0,2.589.02l2.6.049Z" transform="translate(-230.364 -164.392)" fill="#ebebeb"/>
        <path id="Tracé_9102" data-name="Tracé 9102" d="M36.4,268.66l-5.2.114-2.637.045c-.879.02-1.766,0-2.648.025H25.74v-.184l-.02-4.585v-.2h.2l5.241.025c1.746,0,3.492.045,5.241.065h.107v.114c0,.776-.036,1.549-.051,2.313Zm0,0-.055-2.309c0-.76-.048-1.512-.055-2.264l.111.114c-1.75.02-3.5.065-5.241.065l-5.241.025.2-.2-.024,4.573-.174-.18c.863,0,1.722,0,2.589.02l2.6.049Z" transform="translate(-15.538 -156.031)" fill="#ebebeb"/>
        <path id="Tracé_9103" data-name="Tracé 9103" d="M21.631,282.788l-5.2.114-2.637.045c-.883,0-1.766,0-2.652.025H10.97v-.184l-.02-4.573v-.2h.2l5.241.029c1.75,0,3.5.045,5.245.065h.107v.11c0,.776-.036,1.549-.051,2.313Zm0,0-.059-2.309c0-.76-.044-1.512-.051-2.264l.111.114c-1.75.02-3.5.065-5.245.065l-5.241.025.2-.2v4.573l-.178-.18c.867,0,1.726,0,2.593.02l2.6.049Z" transform="translate(-6.615 -164.392)" fill="#ebebeb"/>
        <path id="Tracé_9104" data-name="Tracé 9104" d="M258.931,109.18l-5.2.106-2.637.045c-.879,0-1.766,0-2.648.02h-.178V104.39h.2l5.241.025c1.746,0,3.492.045,5.241.065h.107v.11c0,.776-.036,1.545-.051,2.309Zm0,0-.059-2.313c0-.76-.044-1.512-.051-2.26l.111.11c-1.75.02-3.5.065-5.241.065l-5.241.029.2-.2-.024,4.573-.174-.184c.863,0,1.722,0,2.589.025l2.6.045Z" transform="translate(-149.985 -61.728)" fill="#ebebeb"/>
        <path id="Tracé_9105" data-name="Tracé 9105" d="M244.121,123.266l-5.194.114-2.637.045h-2.827v-.184l-.024-4.573v-.208h.2l5.241.025c1.75,0,3.5.045,5.241.065h.111v.11c0,.776-.036,1.545-.051,2.309Zm0,0-.055-2.313c0-.76-.044-1.512-.051-2.26l.107.11c-1.746,0-3.492.065-5.241.065l-5.241.029.2-.2-.02,4.573-.178-.184c.867,0,1.726,0,2.593.025l2.6.045Z" transform="translate(-141.026 -70.047)" fill="#ebebeb"/>
        <path id="Tracé_9106" data-name="Tracé 9106" d="M273.671,123.266l-5.2.114-2.637.045H263.01v-.184l-.02-4.573v-.208h.2l5.241.025c1.746,0,3.492.045,5.241.065h.107v.11c0,.776-.032,1.545-.051,2.309Zm0,0-.055-2.313c0-.76-.048-1.512-.051-2.26l.107.11c-1.75,0-3.5.065-5.241.065l-5.241.029.2-.2-.024,4.573-.174-.184c.863,0,1.726,0,2.589.025l2.6.045Z" transform="translate(-158.878 -70.047)" fill="#ebebeb"/>
        <path id="Tracé_9107" data-name="Tracé 9107" d="M375.691,26.838l-5.194.114L367.86,27c-.883,0-1.77,0-2.652.025h-.174v-.184l-.024-4.573v-.2h.2l5.241.025c1.75,0,3.5.049,5.241.069h.111v.11c0,.776-.036,1.549-.055,2.309Zm0,0-.048-2.309c0-.764-.044-1.516-.051-2.264l.107.11c-1.746,0-3.492.065-5.241.069l-5.241.025.2-.2-.02,4.573-.178-.184c.863,0,1.726,0,2.593.025l2.6.045Z" transform="translate(-220.511 -13.044)" fill="#ebebeb"/>
        <path id="Tracé_9108" data-name="Tracé 9108" d="M390.479,40.942l-5.194.114-2.637.045c-.883.02-1.766,0-2.652.02h-.162v-.184l-.024-4.573v-.2h.2l5.241.025c1.75,0,3.5.049,5.241.069h.111v.11c0,.776-.036,1.549-.051,2.309Zm0,0-.055-2.309c0-.764-.044-1.516-.051-2.264l.107.11c-1.746.02-3.492.065-5.241.069L380,36.573l.2-.2-.02,4.573L380,40.758c.867,0,1.726,0,2.593.025l2.6.045Z" transform="translate(-229.452 -21.382)" fill="#ebebeb"/>
        <path id="Tracé_9109" data-name="Tracé 9109" d="M21.631,26.848l-5.2.114-2.637.045c-.883,0-1.766,0-2.652.025H10.97v-.184l-.02-4.573v-.2h.2l5.241.029c1.75,0,3.5.045,5.245.065h.107v.11c0,.776-.036,1.549-.051,2.313Zm0,0-.059-2.309c0-.764-.044-1.516-.051-2.264l.111.11c-1.75.025-3.5.065-5.245.069l-5.241.025.2-.2v4.573l-.2-.159h2.593l2.6.045Z" transform="translate(-6.615 -13.05)" fill="#ebebeb"/>
        <rect id="Rectangle_4997" data-name="Rectangle 4997" width="22.941" height="28.726" transform="translate(7.407 12.285)" fill="#ebebeb"/>
        <rect id="Rectangle_4998" data-name="Rectangle 4998" width="17.7" height="23.483" transform="translate(10.028 14.909)" fill="#fff"/>
        <rect id="Rectangle_4999" data-name="Rectangle 4999" width="0.689" height="23.483" transform="translate(10.028 14.909)" fill="#dbdbdb"/>
        <rect id="Rectangle_5000" data-name="Rectangle 5000" width="0.689" height="28.726" transform="translate(30.348 12.285)" fill="#dbdbdb"/>
        <rect id="Rectangle_5001" data-name="Rectangle 5001" width="4.173" height="12.837" transform="translate(16.793 20.234)" fill="#dbdbdb"/>
        <path id="Tracé_9110" data-name="Tracé 9110" d="M44.654,63.7H33.13V57.02H44.654Zm-11.128-.409H44.258V57.429H33.526Z" transform="translate(-20.015 -33.717)" fill="#ebebeb"/>
        <rect id="Rectangle_5002" data-name="Rectangle 5002" width="22.941" height="28.726" transform="translate(25.467 47.934)" fill="#ebebeb"/>
        <rect id="Rectangle_5003" data-name="Rectangle 5003" width="17.7" height="23.483" transform="translate(28.088 50.554)" fill="#fff"/>
        <rect id="Rectangle_5004" data-name="Rectangle 5004" width="0.689" height="23.483" transform="translate(28.088 50.554)" fill="#dbdbdb"/>
        <rect id="Rectangle_5005" data-name="Rectangle 5005" width="0.689" height="28.726" transform="translate(48.408 47.934)" fill="#dbdbdb"/>
        <rect id="Rectangle_5006" data-name="Rectangle 5006" width="3.575" height="9.33" transform="translate(35.225 56.627)" fill="#ebebeb"/>
        <path id="Tracé_9111" data-name="Tracé 9111" d="M90.68,158.771h-10V151.93h10Zm-9.6-.409h9.208v-6.024H81.076Z" transform="translate(-48.741 -89.839)" fill="#dbdbdb"/>
        <path id="Tracé_9112" data-name="Tracé 9112" d="M278.983,288.864h51.037l1.643-33.434H277.34Z" transform="translate(-167.547 -151.04)" fill="#ebebeb"/>
        <path id="Tracé_9113" data-name="Tracé 9113" d="M331.432,276.087H286.484l-.614-11.607h46.286Zm-44.572-.409h44.2l.669-10.785H286.286Z" transform="translate(-172.701 -156.391)" fill="#dbdbdb"/>
        <path id="Tracé_9114" data-name="Tracé 9114" d="M332.961,310.395H289.913l-.5-10.475H333.6Zm-42.668-.409h42.3l.582-9.657H289.83Z" transform="translate(-174.839 -177.348)" fill="#dbdbdb"/>
        <path id="Tracé_9115" data-name="Tracé 9115" d="M342.171,277.709h-9.529l-.352-2.8h10.229Zm-9.18-.409h8.828l.249-1.974h-9.323Z" transform="translate(-200.744 -162.559)" fill="#dbdbdb"/>
        <path id="Tracé_9116" data-name="Tracé 9116" d="M342.171,312.109h-9.529l-.352-2.8h10.229Zm-9.18-.409h8.828l.249-1.974h-9.323Z" transform="translate(-200.744 -182.9)" fill="#dbdbdb"/>
        <path id="Tracé_9117" data-name="Tracé 9117" d="M294.114,337.24l-.5,3.641-.994,7.32H290.67V337.24Z" transform="translate(-175.6 -199.416)" fill="#ebebeb"/>
        <path id="Tracé_9118" data-name="Tracé 9118" d="M294.114,337.24l-.5,3.641H290.67V337.24Z" transform="translate(-175.6 -199.416)" fill="#dbdbdb"/>
        <path id="Tracé_9119" data-name="Tracé 9119" d="M392.53,337.24l.495,3.641,1,7.32h1.952V337.24Z" transform="translate(-237.136 -199.416)" fill="#ebebeb"/>
        <path id="Tracé_9120" data-name="Tracé 9120" d="M392.53,337.24l.495,3.641h2.949V337.24Z" transform="translate(-237.136 -199.416)" fill="#dbdbdb"/>
        <path id="Tracé_9121" data-name="Tracé 9121" d="M8.44,409.074a37.409,37.409,0,0,1-4.22.2,37.409,37.409,0,0,1-4.22-.2,39.453,39.453,0,0,1,4.22-.2,39.453,39.453,0,0,1,4.22.2" transform="translate(0 -241.771)" fill="#10a35f"/>
        <path id="Tracé_9122" data-name="Tracé 9122" d="M11.68,405.844a37.416,37.416,0,0,1-4.22.2,37.416,37.416,0,0,1-4.22-.2,39.453,39.453,0,0,1,4.22-.2,39.453,39.453,0,0,1,4.22.2" transform="translate(-1.957 -239.861)" fill="#10a35f"/>
        <path id="Tracé_9123" data-name="Tracé 9123" d="M15.07,402.634a37.416,37.416,0,0,1-4.22.2,37.416,37.416,0,0,1-4.22-.2,39.445,39.445,0,0,1,4.22-.2,39.445,39.445,0,0,1,4.22.2" transform="translate(-4.005 -237.963)" fill="#10a35f"/>
        <path id="Tracé_9124" data-name="Tracé 9124" d="M18.34,399.424a39.445,39.445,0,0,1-4.22.2,37.423,37.423,0,0,1-4.22-.2,39.421,39.421,0,0,1,4.22-.2,39.421,39.421,0,0,1,4.22.2" transform="translate(-5.981 -236.065)" fill="#10a35f"/>
        <path id="Tracé_9125" data-name="Tracé 9125" d="M21.63,396.213a39.453,39.453,0,0,1-4.22.2,37.43,37.43,0,0,1-4.22-.2,37.409,37.409,0,0,1,4.22-.2,39.429,39.429,0,0,1,4.22.2" transform="translate(-7.968 -234.166)" fill="#10a35f"/>
        <path id="Tracé_9126" data-name="Tracé 9126" d="M25,393a39.369,39.369,0,0,1-4.216.2,39.437,39.437,0,0,1-4.22-.2,37.416,37.416,0,0,1,4.22-.2A38.34,38.34,0,0,1,25,393" transform="translate(-10.004 -232.267)" fill="#10a35f"/>
        <path id="Tracé_9127" data-name="Tracé 9127" d="M28.21,389.793a39.429,39.429,0,0,1-4.22.2,39.429,39.429,0,0,1-4.22-.2,37.43,37.43,0,0,1,4.22-.2,37.43,37.43,0,0,1,4.22.2" transform="translate(-11.944 -230.369)" fill="#10a35f"/>
        <path id="Tracé_9128" data-name="Tracé 9128" d="M31.58,386.583a39.437,39.437,0,0,1-4.22.2,39.437,39.437,0,0,1-4.22-.2,37.416,37.416,0,0,1,4.22-.2,37.416,37.416,0,0,1,4.22.2" transform="translate(-13.979 -228.471)" fill="#10a35f"/>
        <path id="Tracé_9129" data-name="Tracé 9129" d="M34.76,383.373a38.291,38.291,0,0,1-4.22.2,38.4,38.4,0,0,1-4.22-.2,37.423,37.423,0,0,1,4.22-.2,37.423,37.423,0,0,1,4.22.2" transform="translate(-15.901 -226.573)" fill="#10a35f"/>
        <path id="Tracé_9130" data-name="Tracé 9130" d="M38.16,380.154a37.423,37.423,0,0,1-4.22.2,37.423,37.423,0,0,1-4.22-.2,39.453,39.453,0,0,1,4.22-.2,39.453,39.453,0,0,1,4.22.2" transform="translate(-17.955 -224.67)" fill="#10a35f"/>
        <path id="Tracé_9131" data-name="Tracé 9131" d="M41.45,376.944a37.409,37.409,0,0,1-4.22.2,37.409,37.409,0,0,1-4.22-.2,39.453,39.453,0,0,1,4.22-.2,39.453,39.453,0,0,1,4.22.2" transform="translate(-19.942 -222.772)" fill="#10a35f"/>
        <path id="Tracé_9132" data-name="Tracé 9132" d="M44.77,373.734a38.408,38.408,0,0,1-4.22.2,37.416,37.416,0,0,1-4.22-.2,39.429,39.429,0,0,1,4.22-.2,39.429,39.429,0,0,1,4.22.2" transform="translate(-21.948 -220.874)" fill="#10a35f"/>
        <path id="Tracé_9133" data-name="Tracé 9133" d="M398.42,409.074a43.658,43.658,0,0,1,8.44,0,43.658,43.658,0,0,1-8.44,0" transform="translate(-240.694 -241.771)" fill="#10a35f"/>
        <path id="Tracé_9134" data-name="Tracé 9134" d="M395.18,405.844a43.658,43.658,0,0,1,8.44,0,43.658,43.658,0,0,1-8.44,0" transform="translate(-238.737 -239.862)" fill="#10a35f"/>
        <path id="Tracé_9135" data-name="Tracé 9135" d="M391.79,402.634a43.658,43.658,0,0,1,8.44,0,43.653,43.653,0,0,1-8.44,0" transform="translate(-236.689 -237.963)" fill="#10a35f"/>
        <path id="Tracé_9136" data-name="Tracé 9136" d="M388.52,399.424a43.658,43.658,0,0,1,8.44,0,37.431,37.431,0,0,1-4.22.2,39.446,39.446,0,0,1-4.22-.2" transform="translate(-234.714 -236.065)" fill="#10a35f"/>
        <path id="Tracé_9137" data-name="Tracé 9137" d="M385.23,396.213a39.429,39.429,0,0,1,4.22-.2,37.408,37.408,0,0,1,4.22.2,37.43,37.43,0,0,1-4.22.2,39.453,39.453,0,0,1-4.22-.2" transform="translate(-232.726 -234.166)" fill="#10a35f"/>
        <path id="Tracé_9138" data-name="Tracé 9138" d="M381.92,393a38.341,38.341,0,0,1,4.216-.2,37.416,37.416,0,0,1,4.22.2,43.612,43.612,0,0,1-8.436,0" transform="translate(-230.726 -232.267)" fill="#10a35f"/>
        <path id="Tracé_9139" data-name="Tracé 9139" d="M378.65,389.794a43.658,43.658,0,0,1,8.44,0,43.658,43.658,0,0,1-8.44,0" transform="translate(-228.751 -230.371)" fill="#10a35f"/>
        <path id="Tracé_9140" data-name="Tracé 9140" d="M375.28,386.584a43.658,43.658,0,0,1,8.44,0,43.658,43.658,0,0,1-8.44,0" transform="translate(-226.715 -228.473)" fill="#10a35f"/>
        <path id="Tracé_9141" data-name="Tracé 9141" d="M372.1,383.374a43.653,43.653,0,0,1,8.44,0,44.592,44.592,0,0,1-8.44,0" transform="translate(-224.794 -226.575)" fill="#10a35f"/>
        <path id="Tracé_9142" data-name="Tracé 9142" d="M368.7,380.154a43.658,43.658,0,0,1,8.44,0,43.658,43.658,0,0,1-8.44,0" transform="translate(-222.74 -224.671)" fill="#10a35f"/>
        <path id="Tracé_9143" data-name="Tracé 9143" d="M365.41,376.944a43.658,43.658,0,0,1,8.44,0,43.653,43.653,0,0,1-8.44,0" transform="translate(-220.752 -222.772)" fill="#10a35f"/>
        <path id="Tracé_9144" data-name="Tracé 9144" d="M362.09,373.734a43.658,43.658,0,0,1,8.44,0,37.423,37.423,0,0,1-4.22.2,38.4,38.4,0,0,1-4.22-.2" transform="translate(-218.747 -220.874)" fill="#10a35f"/>
        <path id="Tracé_9145" data-name="Tracé 9145" d="M31.867,373.6H155.2l14.5,14.786H16.99Z" transform="translate(-10.264 -220.916)" fill="#10a35f"/>
        <g id="Groupe_2079" data-name="Groupe 2079" transform="translate(7.858 152.684)" opacity="0.1" style="mix-blend-mode: normal;isolation: isolate">
          <g id="Groupe_2078" data-name="Groupe 2078">
            <g id="Groupe_2077" data-name="Groupe 2077" clip-path="url(#clip-path-3)">
              <path id="Tracé_9146" data-name="Tracé 9146" d="M36.148,373.6l-14.77,14.786H19.85L34.727,373.6Z" transform="translate(-19.85 -373.6)"/>
            </g>
          </g>
        </g>
        <g id="Groupe_2082" data-name="Groupe 2082" transform="translate(11.908 152.684)" opacity="0.1" style="mix-blend-mode: normal;isolation: isolate">
          <g id="Groupe_2081" data-name="Groupe 2081">
            <g id="Groupe_2080" data-name="Groupe 2080" clip-path="url(#clip-path-4)">
              <path id="Tracé_9147" data-name="Tracé 9147" d="M45.693,373.6,31.735,388.386H30.08L44.363,373.6Z" transform="translate(-30.08 -373.6)"/>
            </g>
          </g>
        </g>
        <g id="Groupe_2085" data-name="Groupe 2085" transform="translate(16.199 152.684)" opacity="0.1" style="mix-blend-mode: normal;isolation: isolate">
          <g id="Groupe_2084" data-name="Groupe 2084">
            <g id="Groupe_2083" data-name="Groupe 2083" clip-path="url(#clip-path-5)">
              <path id="Tracé_9148" data-name="Tracé 9148" d="M58.121,373.6,45.564,388.386H40.92L54.372,373.6Z" transform="translate(-40.92 -373.6)"/>
            </g>
          </g>
        </g>
        <g id="Groupe_2088" data-name="Groupe 2088" transform="translate(23.361 152.684)" opacity="0.1" style="mix-blend-mode: normal;isolation: isolate">
          <g id="Groupe_2087" data-name="Groupe 2087">
            <g id="Groupe_2086" data-name="Groupe 2086" clip-path="url(#clip-path-6)">
              <path id="Tracé_9149" data-name="Tracé 9149" d="M72.414,373.6,60.661,388.386H59.01L71.08,373.6Z" transform="translate(-59.01 -373.6)"/>
            </g>
          </g>
        </g>
        <g id="Groupe_2091" data-name="Groupe 2091" transform="translate(27.652 152.684)" opacity="0.1" style="mix-blend-mode: normal;isolation: isolate">
          <g id="Groupe_2090" data-name="Groupe 2090">
            <g id="Groupe_2089" data-name="Groupe 2089" clip-path="url(#clip-path-7)">
              <path id="Tracé_9150" data-name="Tracé 9150" d="M84.83,373.6,74.5,388.386H69.85L81.089,373.6Z" transform="translate(-69.85 -373.6)"/>
            </g>
          </g>
        </g>
        <g id="Groupe_2094" data-name="Groupe 2094" transform="translate(34.817 152.684)" opacity="0.1" style="mix-blend-mode: normal;isolation: isolate">
          <g id="Groupe_2093" data-name="Groupe 2093">
            <g id="Groupe_2092" data-name="Groupe 2092" clip-path="url(#clip-path-8)">
              <path id="Tracé_9151" data-name="Tracé 9151" d="M99.13,373.6,89.6,388.386H87.95L97.8,373.6Z" transform="translate(-87.95 -373.6)"/>
            </g>
          </g>
        </g>
        <g id="Groupe_2097" data-name="Groupe 2097" transform="translate(39.109 152.684)" opacity="0.1" style="mix-blend-mode: normal;isolation: isolate">
          <g id="Groupe_2096" data-name="Groupe 2096">
            <g id="Groupe_2095" data-name="Groupe 2095" clip-path="url(#clip-path-9)">
              <path id="Tracé_9152" data-name="Tracé 9152" d="M111.557,373.6l-8.123,14.786H98.79L107.8,373.6Z" transform="translate(-98.79 -373.6)"/>
            </g>
          </g>
        </g>
        <g id="Groupe_2100" data-name="Groupe 2100" transform="translate(46.27 152.684)" opacity="0.1" style="mix-blend-mode: normal;isolation: isolate">
          <g id="Groupe_2099" data-name="Groupe 2099">
            <g id="Groupe_2098" data-name="Groupe 2098" clip-path="url(#clip-path-10)">
              <path id="Tracé_9153" data-name="Tracé 9153" d="M125.847,373.6l-7.312,14.786H116.88l7.636-14.786Z" transform="translate(-116.88 -373.6)"/>
            </g>
          </g>
        </g>
        <g id="Groupe_2103" data-name="Groupe 2103" transform="translate(50.565 152.684)" opacity="0.1" style="mix-blend-mode: normal;isolation: isolate">
          <g id="Groupe_2102" data-name="Groupe 2102">
            <g id="Groupe_2101" data-name="Groupe 2101" clip-path="url(#clip-path-11)">
              <path id="Tracé_9154" data-name="Tracé 9154" d="M138.276,373.6l-5.9,14.786H127.73l6.8-14.786Z" transform="translate(-127.73 -373.6)"/>
            </g>
          </g>
        </g>
        <g id="Groupe_2106" data-name="Groupe 2106" transform="translate(57.727 152.684)" opacity="0.1" style="mix-blend-mode: normal;isolation: isolate">
          <g id="Groupe_2105" data-name="Groupe 2105">
            <g id="Groupe_2104" data-name="Groupe 2104" clip-path="url(#clip-path-12)">
              <path id="Tracé_9155" data-name="Tracé 9155" d="M152.57,373.6l-5.095,14.786H145.82l5.416-14.786Z" transform="translate(-145.82 -373.6)"/>
            </g>
          </g>
        </g>
        <g id="Groupe_2109" data-name="Groupe 2109" transform="translate(62.018 152.684)" opacity="0.1" style="mix-blend-mode: normal;isolation: isolate">
          <g id="Groupe_2108" data-name="Groupe 2108">
            <g id="Groupe_2107" data-name="Groupe 2107" clip-path="url(#clip-path-13)">
              <path id="Tracé_9156" data-name="Tracé 9156" d="M164.993,373.6l-3.69,14.786H156.66l4.584-14.786Z" transform="translate(-156.66 -373.6)"/>
            </g>
          </g>
        </g>
        <g id="Groupe_2112" data-name="Groupe 2112" transform="translate(69.184 152.684)" opacity="0.1" style="mix-blend-mode: normal;isolation: isolate">
          <g id="Groupe_2111" data-name="Groupe 2111">
            <g id="Groupe_2110" data-name="Groupe 2110" clip-path="url(#clip-path-14)">
              <path id="Tracé_9157" data-name="Tracé 9157" d="M179.289,373.6l-2.874,14.786H174.76l3.2-14.786Z" transform="translate(-174.76 -373.6)"/>
            </g>
          </g>
        </g>
        <g id="Groupe_2115" data-name="Groupe 2115" transform="translate(73.475 152.684)" opacity="0.1" style="mix-blend-mode: normal;isolation: isolate">
          <g id="Groupe_2114" data-name="Groupe 2114">
            <g id="Groupe_2113" data-name="Groupe 2113" clip-path="url(#clip-path-15)">
              <path id="Tracé_9158" data-name="Tracé 9158" d="M191.712,373.6l-1.465,14.786H185.6l2.367-14.786Z" transform="translate(-185.6 -373.6)"/>
            </g>
          </g>
        </g>
        <g id="Groupe_2118" data-name="Groupe 2118" transform="translate(80.64 152.684)" opacity="0.1" style="mix-blend-mode: normal;isolation: isolate">
          <g id="Groupe_2117" data-name="Groupe 2117">
            <g id="Groupe_2116" data-name="Groupe 2116" clip-path="url(#clip-path-16)">
              <path id="Tracé_9159" data-name="Tracé 9159" d="M206.012,373.6l-.661,14.786H203.7l.978-14.786Z" transform="translate(-203.7 -373.6)"/>
            </g>
          </g>
        </g>
        <g id="Groupe_2121" data-name="Groupe 2121" transform="translate(84.932 152.684)" opacity="0.1" style="mix-blend-mode: normal;isolation: isolate">
          <g id="Groupe_2120" data-name="Groupe 2120">
            <g id="Groupe_2119" data-name="Groupe 2119" clip-path="url(#clip-path-17)">
              <path id="Tracé_9160" data-name="Tracé 9160" d="M219.184,388.386H214.54l.146-14.786h3.749Z" transform="translate(-214.54 -373.6)"/>
            </g>
          </g>
        </g>
        <g id="Groupe_2124" data-name="Groupe 2124" transform="translate(90.854 152.684)" opacity="0.1" style="mix-blend-mode: normal;isolation: isolate">
          <g id="Groupe_2123" data-name="Groupe 2123">
            <g id="Groupe_2122" data-name="Groupe 2122" clip-path="url(#clip-path-18)">
              <path id="Tracé_9161" data-name="Tracé 9161" d="M232.39,388.386h-1.651L229.5,373.6h1.338Z" transform="translate(-229.5 -373.6)"/>
            </g>
          </g>
        </g>
        <g id="Groupe_2127" data-name="Groupe 2127" transform="translate(94.318 152.684)" opacity="0.1" style="mix-blend-mode: normal;isolation: isolate">
          <g id="Groupe_2126" data-name="Groupe 2126">
            <g id="Groupe_2125" data-name="Groupe 2125" clip-path="url(#clip-path-19)">
              <path id="Tracé_9162" data-name="Tracé 9162" d="M244.964,388.386h-4.648L238.25,373.6h3.741Z" transform="translate(-238.25 -373.6)"/>
            </g>
          </g>
        </g>
        <g id="Groupe_2130" data-name="Groupe 2130" transform="translate(100.094 152.684)" opacity="0.1" style="mix-blend-mode: normal;isolation: isolate">
          <g id="Groupe_2129" data-name="Groupe 2129">
            <g id="Groupe_2128" data-name="Groupe 2128" clip-path="url(#clip-path-20)">
              <path id="Tracé_9163" data-name="Tracé 9163" d="M257.951,388.386H256.3L252.84,373.6h1.33Z" transform="translate(-252.84 -373.6)"/>
            </g>
          </g>
        </g>
        <g id="Groupe_2133" data-name="Groupe 2133" transform="translate(103.558 152.684)" opacity="0.1" style="mix-blend-mode: normal;isolation: isolate">
          <g id="Groupe_2132" data-name="Groupe 2132">
            <g id="Groupe_2131" data-name="Groupe 2131" clip-path="url(#clip-path-21)">
              <path id="Tracé_9164" data-name="Tracé 9164" d="M270.517,388.386h-4.644L261.59,373.6h3.745Z" transform="translate(-261.59 -373.6)"/>
            </g>
          </g>
        </g>
        <g id="Groupe_2136" data-name="Groupe 2136" transform="translate(109.333 152.684)" opacity="0.1" style="mix-blend-mode: normal;isolation: isolate">
          <g id="Groupe_2135" data-name="Groupe 2135">
            <g id="Groupe_2134" data-name="Groupe 2134" clip-path="url(#clip-path-22)">
              <path id="Tracé_9165" data-name="Tracé 9165" d="M283.5,388.386h-1.655L276.18,373.6h1.334Z" transform="translate(-276.18 -373.6)"/>
            </g>
          </g>
        </g>
        <g id="Groupe_2139" data-name="Groupe 2139" transform="translate(112.793 152.684)" opacity="0.1" style="mix-blend-mode: normal;isolation: isolate">
          <g id="Groupe_2138" data-name="Groupe 2138">
            <g id="Groupe_2137" data-name="Groupe 2137" clip-path="url(#clip-path-23)">
              <path id="Tracé_9166" data-name="Tracé 9166" d="M296.068,388.386h-4.644l-6.5-14.786h3.745Z" transform="translate(-284.92 -373.6)"/>
            </g>
          </g>
        </g>
        <g id="Groupe_2142" data-name="Groupe 2142" transform="translate(118.569 152.684)" opacity="0.1" style="mix-blend-mode: normal;isolation: isolate">
          <g id="Groupe_2141" data-name="Groupe 2141">
            <g id="Groupe_2140" data-name="Groupe 2140" clip-path="url(#clip-path-24)">
              <path id="Tracé_9167" data-name="Tracé 9167" d="M309.059,388.386H307.4L299.51,373.6h1.334Z" transform="translate(-299.51 -373.6)"/>
            </g>
          </g>
        </g>
        <g id="Groupe_2145" data-name="Groupe 2145" transform="translate(122.029 152.684)" opacity="0.1" style="mix-blend-mode: normal;isolation: isolate">
          <g id="Groupe_2144" data-name="Groupe 2144">
            <g id="Groupe_2143" data-name="Groupe 2143" clip-path="url(#clip-path-25)">
              <path id="Tracé_9168" data-name="Tracé 9168" d="M321.619,388.386h-4.648L308.25,373.6h3.745Z" transform="translate(-308.25 -373.6)"/>
            </g>
          </g>
        </g>
        <g id="Groupe_2148" data-name="Groupe 2148" transform="translate(127.809 152.684)" opacity="0.1" style="mix-blend-mode: normal;isolation: isolate">
          <g id="Groupe_2147" data-name="Groupe 2147">
            <g id="Groupe_2146" data-name="Groupe 2146" clip-path="url(#clip-path-26)">
              <path id="Tracé_9169" data-name="Tracé 9169" d="M334.608,388.386h-1.651L322.85,373.6h1.33Z" transform="translate(-322.85 -373.6)"/>
            </g>
          </g>
        </g>
        <g id="Groupe_2151" data-name="Groupe 2151" transform="translate(131.269 152.684)" opacity="0.1" style="mix-blend-mode: normal;isolation: isolate">
          <g id="Groupe_2150" data-name="Groupe 2150">
            <g id="Groupe_2149" data-name="Groupe 2149" clip-path="url(#clip-path-27)">
              <path id="Tracé_9170" data-name="Tracé 9170" d="M347.176,388.386h-4.648L331.59,373.6h3.745Z" transform="translate(-331.59 -373.6)"/>
            </g>
          </g>
        </g>
        <g id="Groupe_2154" data-name="Groupe 2154" transform="translate(137.049 152.684)" opacity="0.1" style="mix-blend-mode: normal;isolation: isolate">
          <g id="Groupe_2153" data-name="Groupe 2153">
            <g id="Groupe_2152" data-name="Groupe 2152" clip-path="url(#clip-path-28)">
              <path id="Tracé_9171" data-name="Tracé 9171" d="M360.164,388.386H358.51L346.19,373.6h1.33Z" transform="translate(-346.19 -373.6)"/>
            </g>
          </g>
        </g>
        <g id="Groupe_2157" data-name="Groupe 2157" transform="translate(140.509 152.684)" opacity="0.1" style="mix-blend-mode: normal;isolation: isolate">
          <g id="Groupe_2156" data-name="Groupe 2156">
            <g id="Groupe_2155" data-name="Groupe 2155" clip-path="url(#clip-path-29)">
              <path id="Tracé_9172" data-name="Tracé 9172" d="M372.729,388.386h-4.648L354.93,373.6h3.745Z" transform="translate(-354.93 -373.6)"/>
            </g>
          </g>
        </g>
        <rect id="Rectangle_5034" data-name="Rectangle 5034" width="152.71" height="1.12" transform="translate(6.726 167.47)" fill="#10a35f"/>
        <g id="Groupe_2160" data-name="Groupe 2160" transform="translate(6.726 167.47)" opacity="0.2" style="mix-blend-mode: normal;isolation: isolate">
          <g id="Groupe_2159" data-name="Groupe 2159">
            <g id="Groupe_2158" data-name="Groupe 2158" clip-path="url(#clip-path-30)">
              <rect id="Rectangle_5035" data-name="Rectangle 5035" width="152.71" height="1.12"/>
            </g>
          </g>
        </g>
        <g id="Groupe_2163" data-name="Groupe 2163" transform="translate(50.645 154.768)" opacity="0.1">
          <g id="Groupe_2162" data-name="Groupe 2162">
            <g id="Groupe_2161" data-name="Groupe 2161" clip-path="url(#clip-path-31)">
              <path id="Tracé_9173" data-name="Tracé 9173" d="M193.943,383.559c0,2.681-14.778,4.855-33.008,4.855s-33-2.174-33-4.855,14.778-4.859,33-4.859,33.008,2.174,33.008,4.859" transform="translate(-127.93 -378.7)"/>
            </g>
          </g>
        </g>
        <path id="Tracé_9174" data-name="Tracé 9174" d="M5.18,363.784l20.257-.1,20.261-.037,40.514-.065,40.514.065,20.261.037,20.257.1-20.257.1-20.261.037-40.514.065L45.7,363.919l-20.261-.037Z" transform="translate(-3.129 -214.991)" fill="#263238"/>
        <path id="Tracé_9175" data-name="Tracé 9175" d="M68.4,249.645c-1.5-1.52-3.448-3.355-5.748-2.7-2.161.617-2.989,3.053-3.377,5.084-.5,2.62-.887,5.26-1.291,7.9s-.792,5.313-1.16,7.99q-.317,2.256-.622,4.516c-.1.752-.2,1.5-.3,2.26s-.222,1.475-.261,2.219a.2.2,0,0,0,.4.045c.281-1.255.4-2.562.574-3.833s.356-2.562.538-3.846c.36-2.546.736-5.088,1.1-7.634s.756-5.084,1.152-7.626c.333-2.158.491-4.835,2.34-6.257a3.5,3.5,0,0,1,3.464-.335,10.38,10.38,0,0,1,3.139,2.272.035.035,0,0,0,.05-.007.038.038,0,0,0,0-.042" transform="translate(-33.613 -145.941)" fill="#263238"/>
        <path id="Tracé_9176" data-name="Tracé 9176" d="M75.005,243.453s-3.076-1.14-4.592,1.173.3,8.206,14.291,11.529a41.886,41.886,0,0,0-3.365-13.078c-3-6.735-8.349-4.177-6.334.376" transform="translate(-42.27 -141.302)" fill="#10a35f"/>
        <path id="Tracé_9177" data-name="Tracé 9177" d="M89.142,261.373a11.214,11.214,0,0,0-.7-1.169c-.234-.372-.471-.744-.709-1.112l-.546-.817a.614.614,0,0,1,.024-.2l.048-.376c.036-.27.075-.544.111-.817s.083-.535.135-.817a4.041,4.041,0,0,1,.182-.85c0-.041-.055-.065-.063,0a3.422,3.422,0,0,1-.123.478l-.1.364c-.067.274-.131.548-.19.817s-.1.511-.146.768a2.36,2.36,0,0,1-.055.368c-.249-.368-.5-.732-.764-1.087-.744-1.009-1.528-1.982-2.344-2.93v-.029a26.967,26.967,0,0,1,.364-4.5c0-.041-.051-.065-.059-.025a16.077,16.077,0,0,0-.523,4.32c-.293-.335-.586-.67-.883-1-.685-.756-1.378-1.5-2.086-2.231-.028-.029-.075,0-.048.045,1.188,1.312,2.3,2.677,3.393,4.066a23.353,23.353,0,0,0-2.553.074c-.946.069-1.892.2-2.834.331-.04,0-.028.069,0,.065a25.2,25.2,0,0,1,2.827-.262c.914-.041,1.821,0,2.736,0q.887,1.128,1.746,2.28h-.76c-.428,0-.851.041-1.275.078a18.944,18.944,0,0,0-2.585.409.033.033,0,0,0,0,.065c.859-.1,1.722-.184,2.585-.217H85.86a.769.769,0,0,0,.352-.033q.562.756,1.124,1.516.445.613.879,1.226c.289.409.558.879.887,1.271.012,0,.055-.037.04-.069" transform="translate(-47.512 -147.485)" fill="#263238"/>
        <path id="Tracé_9178" data-name="Tracé 9178" d="M81.449,257.866a9.16,9.16,0,0,0-1.5-.074c-.5,0-1,0-1.5.033a.033.033,0,0,0,0,.065c.507-.041,1.013-.049,1.52-.041s.982.057,1.469.041c.02,0,.024-.02.008-.025" transform="translate(-47.376 -152.434)" fill="#263238"/>
        <path id="Tracé_9179" data-name="Tracé 9179" d="M96.815,258.648c.059-.495.119-.989.222-1.475a.032.032,0,1,0-.063,0c-.071.486-.162.969-.234,1.455l-.1.727a3.7,3.7,0,0,0-.055.691.04.04,0,1,0,.079,0,4.047,4.047,0,0,0,.075-.691c.02-.237.048-.486.071-.707" transform="translate(-58.352 -152.051)" fill="#263238"/>
        <path id="Tracé_9180" data-name="Tracé 9180" d="M94.115,247.418c-.123.482-.245.969-.329,1.455-.044.249-.083.5-.115.748a3.235,3.235,0,0,0-.048.732s.032.02.036,0a3.68,3.68,0,0,0,.111-.695c.032-.241.067-.478.107-.719.087-.5.174-1,.3-1.5,0-.057-.059-.057-.059-.025" transform="translate(-56.558 -146.289)" fill="#263238"/>
        <path id="Tracé_9181" data-name="Tracé 9181" d="M38.3,293.757c-.075-.907-.162-1.819-.253-2.726q-.281-2.7-.629-5.391c-.234-1.786-.459-3.58-.736-5.362a13.438,13.438,0,0,0-.534-2.432,2.286,2.286,0,0,0-1.306-1.524c-1.647-.584-2.771,1.177-3.42,2.423,0,.037.032.065.055.033.4-.593,1.5-2.248,2.747-2.17.839.049,1.512.666,1.916,2.828,1.006,5.391,1.912,16.347,2.015,17.046.059.38.317.364.321-.045,0-.9-.1-1.774-.174-2.681" transform="translate(-18.982 -163.326)" fill="#263238"/>
        <path id="Tracé_9182" data-name="Tracé 9182" d="M21.509,275.921s1.437-5.247-1.742-2.624c-5.3,4.369-5.487,13.867-5.487,13.867S23.7,281.52,24.866,277.8c1.746-5.546-3.357-1.876-3.357-1.876" transform="translate(-8.627 -161.171)" fill="#10a35f"/>
        <path id="Tracé_9183" data-name="Tracé 9183" d="M24.166,282.39c-.74.155-1.488.257-2.233.368l-1.061.155c-.238.033-.479.057-.72.086.7-1,1.409-1.99,2.082-3.008.024-.041-.032-.078-.063-.049a22.878,22.878,0,0,0-1.584,1.876c-.135-.409-.277-.817-.416-1.226-.158-.47-.333-.936-.447-1.422a.031.031,0,0,0-.059,0c.127.482.218.973.344,1.455s.257.924.4,1.377c-.344.462-.677.936-1,1.414-.162-.474-.364-.932-.5-1.414,0-.041-.075-.02-.063,0,.17.535.261,1.087.42,1.635-.218.327-.432.654-.637.981-.4.609-.74,1.226-1.093,1.847a.149.149,0,0,0-.079.147c-.6,1.063-1.164,2.137-1.722,3.229,0,.037.04.065.055.029.562-1.075,1.188-2.117,1.829-3.147a1.18,1.18,0,0,1,.3-.061l.329-.074c.241-.053.483-.119.724-.18.479-.123.95-.241,1.437-.327.04,0,0-.069,0-.061-.57.11-1.14.18-1.718.245-.273.033-.542.069-.812.114h-.04q.5-.8,1.029-1.582c.34-.511.693-1.018,1.045-1.52.329-.049.649-.139.974-.2l1.093-.221c.728-.147,1.457-.319,2.189-.441.055.033.036-.033,0-.025" transform="translate(-9.503 -165.065)" fill="#263238"/>
        <path id="Tracé_9184" data-name="Tracé 9184" d="M22.127,286.446c-.044-.139-.083-.278-.127-.409a8.425,8.425,0,0,1-.222-.9c0-.041-.067-.02-.059.02.059.3.127.593.194.887a5.61,5.61,0,0,0,.245.875.056.056,0,0,0,.071.037.058.058,0,0,0,.036-.074c-.036-.151-.091-.3-.139-.437" transform="translate(-13.121 -168.594)" fill="#263238"/>
        <path id="Tracé_9185" data-name="Tracé 9185" d="M35.5,284.11c-.428.065-.859.1-1.295.139s-.863.1-1.295.168c0,0-.024.041,0,.037.432-.029.863-.065,1.295-.123s.859-.123,1.295-.155c.044,0,.04-.069,0-.065" transform="translate(-19.878 -167.999)" fill="#263238"/>
        <path id="Tracé_9186" data-name="Tracé 9186" d="M41.043,261.759c-.17-3.862-.4-7.72-.792-11.566-.186-1.917-.4-3.829-.657-5.722a42.687,42.687,0,0,0-1.073-5.554,10.852,10.852,0,0,0-1.781-3.94,4.019,4.019,0,0,0-3.618-1.635,7.193,7.193,0,0,0-4.1,2.452c-1.279,1.3-2.45,2.718-3.634,4.087-.3.347-.6.7-.895,1.059-.024.033,0,.078.048.045,1.16-1.373,2.375-2.71,3.622-3.985a10.436,10.436,0,0,1,3.959-2.959,3.976,3.976,0,0,1,2.312-.053,3.613,3.613,0,0,1,1.584,1.03,8.652,8.652,0,0,1,1.781,3.572,63.685,63.685,0,0,1,1.738,10.94c.4,3.727.637,7.458.819,11.2s.325,7.524.673,11.276c.044.462.1.924.158,1.385.04.311.507.311.483,0-.289-3.874-.463-7.765-.629-11.635" transform="translate(-14.793 -137.969)" fill="#263238"/>
        <path id="Tracé_9187" data-name="Tracé 9187" d="M14.286,232.395s2.138-4.087-.4-5.395S2.916,235.427.43,249.665c0,0,13.65-6.232,18.286-12.444s-.6-7.573-4.43-4.827" transform="translate(-0.26 -134.159)" fill="#10a35f"/>
        <path id="Tracé_9188" data-name="Tracé 9188" d="M19.575,242.6c-1.532,0-3.064-.119-4.6-.11l.863-1.018a14.681,14.681,0,0,0,1.188-1.439c0-.033-.024-.078-.055-.053a10.563,10.563,0,0,0-1.16,1.2c-.4.409-.768.842-1.148,1.267-.586.658-1.16,1.324-1.734,1.99v-2.62c0-1.087,0-2.182.079-3.269a.032.032,0,0,0-.063,0c-.071,1.1-.182,2.182-.234,3.269-.024.539-.04,1.075-.044,1.614v1.283c-.087.106-.182.208-.269.311-1.227,1.447-2.375,2.938-3.523,4.459v-.253c0-.168-.036-.335-.051-.5-.04-.36-.091-.723-.143-1.083s-.1-.683-.154-1.018-.154-.768-.182-1.152a.032.032,0,1,0-.063,0,10.384,10.384,0,0,1,.131,1.161c.032.347.063.7.091,1.046s.063.7.1,1.046a4.316,4.316,0,0,0,.048.5.767.767,0,0,0,.028.249.485.485,0,0,0,.067.2c-.194.262-.4.523-.582.789-.792,1.054-1.536,2.125-2.3,3.192-.024.033.024.078.048.045.72-.969,1.461-1.921,2.209-2.861.562.025,1.136-.02,1.7-.029s1.188,0,1.774,0a.033.033,0,0,0,0-.065c-.594,0-1.188.02-1.777.025s-1.089-.025-1.627,0c.657-.817,1.326-1.635,1.979-2.473l.732-.9a3.488,3.488,0,0,0,.685.025h.792c.5,0,1.006,0,1.512-.02,1.041,0,2.082-.053,3.123-.053a.033.033,0,0,0,0-.065c-1.045,0-2.086-.061-3.131-.09l-1.512-.037H11.115l1.722-2.1a.1.1,0,0,0,.032-.037c.558-.682,1.116-1.361,1.682-2.043.079-.09.158-.18.234-.274,1.584.053,3.167-.057,4.751-.025.083-.02.079-.086.04-.086" transform="translate(-3.542 -141.038)" fill="#263238"/>
        <path id="Tracé_9189" data-name="Tracé 9189" d="M37.91,255.37h-.372a.029.029,0,0,0,0,.057h.372a.033.033,0,0,0,.012-.045.031.031,0,0,0-.012-.013" transform="translate(-22.661 -151.005)" fill="#263238"/>
        <path id="Tracé_9190" data-name="Tracé 9190" d="M31.99,255.25c-.491,0-.982,0-1.473-.033l-.728-.029a2.743,2.743,0,0,0-.685,0,.025.025,0,0,0,0,.049,2.57,2.57,0,0,0,.685.049H32c.032.025.032-.037-.012-.037" transform="translate(-17.568 -150.885)" fill="#263238"/>
        <path id="Tracé_9191" data-name="Tracé 9191" d="M20.991,266.592a19.252,19.252,0,0,0-3.021-.282v.02c1.006.1,2.007.155,3,.323.04.008.055-.057.016-.061" transform="translate(-10.856 -157.474)" fill="#263238"/>
        <path id="Tracé_9192" data-name="Tracé 9192" d="M14.656,252.918a.787.787,0,0,0-.032-.27c-.024-.2-.055-.409-.087-.609-.059-.388-.123-.772-.194-1.161,0-.033-.067-.025-.063,0,.048.409.087.8.127,1.2l.048.589a1.728,1.728,0,0,0,.059.568.074.074,0,0,0,.1.022.077.077,0,0,0,.03-.042.817.817,0,0,0,.008-.294" transform="translate(-8.627 -148.336)" fill="#263238"/>
        <path id="Tracé_9193" data-name="Tracé 9193" d="M57.724,224.506c-.491-.94-1.112-2.178-2.332-2.1-1.006.065-1.461,1.124-1.675,2a43.676,43.676,0,0,0-.843,8.349c-.273,5.873-.519,11.75-.554,17.631v4.9c0,1.663,0,3.335.111,4.994a.119.119,0,1,0,.238,0c0-1.422-.04-2.861-.048-4.267s0-2.775.028-4.164q.064-4.213.218-8.427c.1-2.791.222-5.583.336-8.374.055-1.394.111-2.791.174-4.185s.115-2.7.265-4.046c.083-.756.19-1.508.344-2.248a3.179,3.179,0,0,1,.629-1.508,1.338,1.338,0,0,1,1.777-.131,3.855,3.855,0,0,1,1.263,1.635c.028,0,.083-.029.067-.065" transform="translate(-31.608 -131.51)" fill="#263238"/>
        <path id="Tracé_9194" data-name="Tracé 9194" d="M61.173,223.067s-1-3.654,1.215-1.827c3.69,3.041,3.82,9.657,3.82,9.657s-6.56-3.932-7.375-6.539c-1.215-3.85,2.34-1.291,2.34-1.291" transform="translate(-35.39 -130.52)" fill="#10a35f"/>
        <path id="Tracé_9195" data-name="Tracé 9195" d="M67.364,232.009c-.059-.1-.123-.2-.186-.3a2.033,2.033,0,0,0,0-.311v-.454a8.076,8.076,0,0,1,.036-.928.032.032,0,1,0-.063,0c0,.307-.028.609-.036.911v.65c-.257-.409-.523-.817-.792-1.226-.079-.118-.162-.233-.245-.347a7.506,7.506,0,0,1,0-1.193c0-.409,0-.85.028-1.275,0-.041-.063-.037-.063,0,0,.441-.036.883-.055,1.324a8.345,8.345,0,0,0-.024.944c-.633-.887-1.306-1.745-1.979-2.6-.024-.029-.071,0-.048.041.42.552.823,1.116,1.219,1.688-.792-.188-1.556-.294-2.34-.409-.04,0-.055.053,0,.061.831.131,1.647.343,2.462.531.313.458.622.915.93,1.377l.372.564h-.036l-.253-.037-.546-.049c-.4-.033-.756-.053-1.136-.074a.033.033,0,0,0,0,.065,10.108,10.108,0,0,1,1.112.078l.586.074.257.033h.075l.629.956c.372.568.7,1.173,1.1,1.716a.029.029,0,0,0-.008-.016,17.769,17.769,0,0,0-.994-1.794" transform="translate(-37.926 -134.342)" fill="#263238"/>
        <path id="Tracé_9196" data-name="Tracé 9196" d="M70.118,226.911v-.429a6.758,6.758,0,0,1,.036-.9c0-.045-.063-.053-.063,0,0,.3-.032.593-.044.887v.65a.638.638,0,0,0,0,.213.028.028,0,1,0,.055,0,.652.652,0,0,0,0-.2Z" transform="translate(-42.311 -133.371)" fill="#263238"/>
        <path id="Tracé_9197" data-name="Tracé 9197" d="M65.8,232.343c-.245-.045-.495-.057-.74-.078s-.542-.049-.792-.086a.033.033,0,0,0,0,.065c.515.037,1.033.131,1.548.147a.026.026,0,0,0,.016-.033.025.025,0,0,0-.032-.016" transform="translate(-38.809 -137.292)" fill="#263238"/>
        <path id="Tracé_9198" data-name="Tracé 9198" d="M73.37,232.58v.772a.591.591,0,0,0,0,.221m.024,0a.241.241,0,0,0,0-.106v-.887c0-.029-.063-.061-.024,0Z" transform="translate(-44.317 -137.508)" fill="#263238"/>
        <path id="Tracé_9199" data-name="Tracé 9199" d="M49.139,271.378c-1.378-1.067-2.617-2.6-4.473-2.681-1.532-.061-2.6,1.128-3.218,2.452a14.432,14.432,0,0,0-.748,2.182q-.416,1.5-.792,3.012-.72,2.979-1.227,6.008c-.186,1.124-.36,2.252-.5,3.384a29.188,29.188,0,0,0-.321,3.466.173.173,0,0,0,.34.041c.19-.948.265-1.925.4-2.881s.277-1.925.432-2.881q.475-2.861,1.1-5.722c.4-1.794.792-3.613,1.342-5.358.4-1.251,1.045-2.71,2.355-3.159,1.979-.682,3.8,1.059,5.253,2.186.048.025.091,0,.059-.049" transform="translate(-22.872 -158.883)" fill="#263238"/>
        <path id="Tracé_9200" data-name="Tracé 9200" d="M55.472,266.116s-1.271-3.748.57-4.5c2.771-1.1,9.968,7.287,8.555,20.136a70.761,70.761,0,0,1-9.687-6.735c-4.117-3.568-5.146-8.223-3.357-9.424s3.919.519,3.919.519" transform="translate(-30.635 -154.643)" fill="#10a35f"/>
        <path id="Tracé_9201" data-name="Tracé 9201" d="M69.36,284.794a10,10,0,0,0-.669-1.3c-.238-.441-.475-.879-.72-1.312-.479-.846-.954-1.692-1.445-2.534l-.241-.409a.294.294,0,0,1,.028-.151l.083-.372c.063-.278.107-.56.158-.838.1-.552.194-1.108.336-1.635,0-.041-.051-.053-.063,0-.111.548-.281,1.091-.439,1.635-.075.266-.158.531-.226.8l-.071.274c-.59-1-1.188-2-1.845-2.963a1.4,1.4,0,0,0,.067-.409,5.45,5.45,0,0,1,.059-.564c.051-.409.1-.846.158-1.267.119-.817.238-1.635.435-2.452,0-.041-.051-.053-.063,0-.2.817-.4,1.635-.562,2.452-.071.409-.143.817-.194,1.226-.028.2-.048.409-.067.613a.5.5,0,0,1-.024.184c-.2-.29-.4-.584-.61-.866-.633-.866-1.295-1.708-1.96-2.55-.028-.033-.079,0-.051.037a45.639,45.639,0,0,1,3.135,4.634c.182.3.36.609.538.911l-.178-.025c-.234-.033-.467-.045-.7-.069l-1.409-.127c-.938-.074-1.88-.135-2.815-.237-.044,0-.051.057,0,.061.95.114,1.892.27,2.838.409.463.069.93.135,1.4.2a5.7,5.7,0,0,0,1.073.114l1.108,1.851h-3.4c-.044,0-.036.061,0,.065.614,0,1.223.037,1.837.069.289,0,.578.033.871.057l.432.029a.864.864,0,0,0,.4,0l.942,1.578c.289.486.578.969.879,1.451a11.416,11.416,0,0,0,.946,1.463c0,.008.055-.012.04-.033" transform="translate(-36.229 -160.403)" fill="#263238"/>
        <path id="Tracé_9202" data-name="Tracé 9202" d="M76.056,278.872a9.282,9.282,0,0,1-.249,1.226c-.1.409-.218.817-.348,1.226a.042.042,0,0,0,.008.057.039.039,0,0,0,.055-.008.041.041,0,0,0,.008-.025q.19-.609.333-1.226c.1-.409.158-.817.257-1.226.008-.053-.059-.069-.063-.025" transform="translate(-45.581 -164.886)" fill="#263238"/>
        <path id="Tracé_9203" data-name="Tracé 9203" d="M60.716,284.252a.483.483,0,0,0-.3-.118l-.527-.074c-.325-.045-.653-.082-.978-.123-.681-.082-1.362-.151-2.039-.237a.031.031,0,1,0,0,.061c.641.082,1.279.184,1.92.27l.938.127.455.049a1.54,1.54,0,0,1,.515.094c.02.016.04-.029.02-.049" transform="translate(-34.334 -167.757)" fill="#263238"/>
        <path id="Tracé_9204" data-name="Tracé 9204" d="M73.869,298.809c-.321-.029-.645-.041-.966-.049h-.72a1.523,1.523,0,0,1-.3,0c-.044,0-.048.069,0,.061a1.332,1.332,0,0,1,.285,0h.249l.487.033c.321.02.645.041.966.041.04-.016.044-.086,0-.086" transform="translate(-43.402 -176.662)" fill="#263238"/>
        <path id="Tracé_9205" data-name="Tracé 9205" d="M81.627,292.915l.107-.564c.063-.372.131-.744.194-1.112a.031.031,0,0,0-.059,0l-.238,1.083c-.04.18-.079.36-.115.539a1.438,1.438,0,0,1-.051.253.752.752,0,0,0-.028.266.039.039,0,0,0,.071,0,1.456,1.456,0,0,0,.119-.466" transform="translate(-49.197 -172.202)" fill="#263238"/>
        <path id="Tracé_9206" data-name="Tracé 9206" d="M34.26,315.37l.388,4.553L35.966,335.3H47.633l1.647-15.379.487-4.553Z" transform="translate(-20.697 -186.484)" fill="#37474f"/>
        <path id="Tracé_9207" data-name="Tracé 9207" d="M34.26,315.37l.388,4.553H49.28l.487-4.553Z" transform="translate(-20.697 -186.484)" fill="#263238"/>
        <rect id="Rectangle_5038" data-name="Rectangle 5038" width="17.818" height="3.694" transform="translate(12.407 127.644)" fill="#37474f"/>
        <path id="Tracé_9208" data-name="Tracé 9208" d="M256.279,290.418c-.463-1.41-24.917-34.354-26.579-34.979-.19-.086-10.99,7.953-10.99,7.953-.443.617-21.084-3.752-21.084-3.752l-.055,25.673,37.549-1.054s5.091,3.045,9.747,5.525a54.856,54.856,0,0,0,6.12,3.02c1.908.486,5.776-.981,5.293-2.387" transform="translate(-119.356 -151.045)" fill="#eb9481"/>
        <path id="Tracé_9209" data-name="Tracé 9209" d="M113.364,243.27s-32.494-6.612-46.52-5.411c-16.7,1.43-28.262,16.879-6.77,30.149,19,11.713,75.648,6.032,75.648,6.032L121.765,252a106.847,106.847,0,0,0-37.608-5.464l29.216,3.927Z" transform="translate(-29.212 -140.564)" fill="#37474f"/>
        <path id="Tracé_9210" data-name="Tracé 9210" d="M172.013,242.012s30.977-6.433,48.056-5.722c16.73.719,25.2,15.742,9.853,28.608-18.032,15.121-82.172,10.654-82.172,10.654L157.8,254.428s23.068-9.212,43.725-10.65L172.884,250.9Z" transform="translate(-89.259 -139.69)" fill="#37474f"/>
        <path id="Tracé_9211" data-name="Tracé 9211" d="M65.621,296.442c.455-1.414,24.81-34.44,26.468-35.073.19-.082,11.013,7.916,11.013,7.916l20.788-5.272V290.88c-11.223,1.018-35.4-.67-35.4-.67s-6.809,3.065-11.453,5.558a52.787,52.787,0,0,1-6.112,3.041c-1.9.49-5.772-.96-5.3-2.366" transform="translate(-39.62 -154.552)" fill="#eb9481"/>
        <path id="Tracé_9212" data-name="Tracé 9212" d="M122.44,301.463a65.271,65.271,0,0,1,3.1-6.032c1.124-1.962,2.34-3.866,3.606-5.722s2.641-3.678,4.074-5.395a50.65,50.65,0,0,1,4.624-4.9c-.685.9-1.433,1.725-2.1,2.632s-1.37,1.77-2.047,2.665-1.334,1.794-1.979,2.71l-.974,1.369-.954,1.385c-1.271,1.843-2.506,3.715-3.733,5.6s-2.431,3.76-3.622,5.693" transform="translate(-73.969 -165.22)" fill="#10a35f"/>
        <path id="Tracé_9213" data-name="Tracé 9213" d="M160.312,261.593c2.747-1.161,24.8-7.765,50.617-10.953a2.96,2.96,0,0,1,.348-.155c.269-.123.538-.245.816-.347.515-.188,1.037-.347,1.556-.511,1.085-.343,2.177-.617,3.25-1.009.063-.02.1.11.04.139-1.077.441-2.118.985-3.195,1.426l-.93.372c2.158-.074,4.315-.078,6.48-.041.067,0,.083.135,0,.143-23.456,1.823-55.6,10.258-58.784,11.255-.34.09-.61-.151-.2-.319" transform="translate(-96.722 -147.01)" fill="#263238"/>
        <path id="Tracé_9214" data-name="Tracé 9214" d="M87.93,283.4c.867-1.557,1.884-3.016,2.874-4.5s2.035-2.91,3.072-4.344q3.135-4.287,6.429-8.456c1.108-1.381,2.225-2.759,3.4-4.087.3-.335.6-.662.922-.985a5.551,5.551,0,0,1,.538-.478,1.067,1.067,0,0,1,.234-.131.6.6,0,0,1,.131-.029h.15a.9.9,0,0,1,.139.037,3.136,3.136,0,0,1,.344.168c.792.462,1.5.969,2.225,1.479,2.846,2.068,5.614,4.23,8.341,6.449l-.174-.037,2.019-.372q1.009-.188,2.019-.356c-.653.2-1.31.409-1.979.584l-1.979.564-.087.025-.083-.065c-2.838-2.043-5.653-4.152-8.519-6.151-.713-.49-1.437-1.005-2.161-1.414a1.725,1.725,0,0,0-.241-.114h.123s-.024,0-.051.037a4.171,4.171,0,0,0-.443.409c-.3.3-.594.625-.883.952-1.164,1.308-2.284,2.673-3.4,4.042q-3.337,4.112-6.587,8.3l-3.23,4.173c-1.085,1.41-2.158,2.816-3.143,4.291" transform="translate(-53.12 -153.979)" fill="#263238"/>
        <path id="Tracé_9215" data-name="Tracé 9215" d="M309.519,318.9c-1.108.474-2.249.875-3.393,1.255s-2.3.711-3.464,1.022-2.336.58-3.519.817-2.375.409-3.563.535c.582-.151,1.188-.266,1.754-.409s1.168-.274,1.75-.409c1.164-.294,2.328-.58,3.484-.891l3.48-.928Z" transform="translate(-178.567 -188.571)" fill="#263238"/>
        <path id="Tracé_9216" data-name="Tracé 9216" d="M145.673,257.694q-3.99-.613-8-1.132a150.913,150.913,0,0,0-16.069-1.226h-1.508c-.107-.041-.218-.065-.329-.1-.253-.078-.507-.155-.768-.217-.479-.118-.966-.213-1.449-.311-1.009-.2-2.023-.356-3.028-.593a.049.049,0,0,0-.059.037.051.051,0,0,0,.036.061c1.006.278,1.979.629,3,.9l.871.229c-1.979.033-3.959.119-5.91.233-.063,0-.067.106,0,.1,2.676-.061,5.372.02,8.044.172s5.313.311,7.961.576c5.356.531,10.689,1.246,16.029,2.043,2.989.445,5.982.956,8.99,1.206.293.025.4-.474.091-.544" transform="translate(-67.907 -150.263)" fill="#263238"/>
        <path id="Tracé_9217" data-name="Tracé 9217" d="M213.59,138.383c0,5.807,10.162,28.2,15.344,32.695,1.774,1.541,11.354,8.533,18.523,10.56,3.238.911,11.152-14.006,8.357-15.072-3.911-1.492-17.328-7.7-17.763-8.129-3.072-3.077-9.366-12.669-17.391-21.685-4.608-5.17-7.07-2.849-7.07,1.631" transform="translate(-129.035 -79.12)" fill="#eb9481"/>
        <path id="Tracé_9218" data-name="Tracé 9218" d="M296.78,228.409c4.006,4.5,9.853,8.2,12.272,8.68s11.322-1.524,13.242-2.4,4.652-8.991,5.2-10.838c.439-1.484-.368-3.184-2.922-1.365-3.274,2.325-4.264,6.363-5.348,6.76s-5.043-.887-5.582-2.558a3.652,3.652,0,0,1,2.264-3.772c1.718-.6,3.5.454,5.938.294s4.751-2.644,4.268-3.462-1.564-.356-4.889-1.467c-2.142-.711-4.663-3.094-8.785-3.9a45.986,45.986,0,0,0-6.334-.409Z" transform="translate(-179.291 -126.524)" fill="#eb9481"/>
        <path id="Tracé_9219" data-name="Tracé 9219" d="M324.81,249.809c2.253,1.872,7.435,4.855,11.651,5.031,2.846.114,10.542-1.112,10.439-3.339-.143-3.184-10.067-2.64-11.239-2.934-3.606-.907-6.952-4.557-6.952-4.557Z" transform="translate(-196.225 -144.287)" fill="#eb9481"/>
        <path id="Tracé_9220" data-name="Tracé 9220" d="M342.92,250.83c.4.188.748.409,1.128.576s.752.368,1.14.523a8.752,8.752,0,0,0,1.188.409,6.983,6.983,0,0,0,1.215.18l2.5.188a23.761,23.761,0,0,1,2.51.286h-2.522q-1.259,0-2.526-.09a6.328,6.328,0,0,1-1.275-.208,7.284,7.284,0,0,1-1.188-.474,11.081,11.081,0,0,1-1.112-.642,11.634,11.634,0,0,1-1.061-.748" transform="translate(-207.166 -148.32)" fill="#263238"/>
        <path id="Tracé_9221" data-name="Tracé 9221" d="M322.79,251.459c1.88,2.191,6.421,5.95,10.467,6.829,2.739.593,10.372.7,10.629-1.467.36-3.106-9.323-4.25-10.408-4.733-3.345-1.488-6-5.579-6-5.579Z" transform="translate(-195.005 -145.765)" fill="#eb9481"/>
        <path id="Tracé_9222" data-name="Tracé 9222" d="M341.2,253.93c.451.409.922.817,1.4,1.2a8.265,8.265,0,0,0,1.512.973,4.088,4.088,0,0,0,.835.262l.871.2c.59.143,1.188.29,1.77.445,1.188.3,2.355.613,3.523.969a11.338,11.338,0,0,1,1.754.629,3.972,3.972,0,0,1,1.453,1.144,4.175,4.175,0,0,0-1.52-.981,13.965,13.965,0,0,0-1.738-.507L347.5,257.4l-1.754-.433-.887-.225a4.047,4.047,0,0,1-.895-.319,9.7,9.7,0,0,1-2.763-2.5" transform="translate(-206.127 -150.153)" fill="#263238"/>
        <path id="Tracé_9223" data-name="Tracé 9223" d="M314.19,261.032a55.149,55.149,0,0,0,10.38,5.472c1.73.474,8.492,1.377,9.826-.225,1.678-2.015-3.531-3.462-5.681-4.12a11.444,11.444,0,0,1-4.3-3.09Z" transform="translate(-189.809 -153.192)" fill="#eb9481"/>
        <path id="Tracé_9224" data-name="Tracé 9224" d="M337.52,255.757a1.586,1.586,0,0,0,.123-.748,1.2,1.2,0,0,0-.3-.67,3.52,3.52,0,0,0-1.239-.817,15.831,15.831,0,0,0-2.842-.94,10.969,10.969,0,0,1-2.89-.964,9.987,9.987,0,0,1-2.375-1.97c-1.374-1.541-2.47-3.29-3.864-4.745a12.723,12.723,0,0,0-2.375-1.835,13.768,13.768,0,0,0-2.712-1.308,12.392,12.392,0,0,1,2.791,1.165,12.97,12.97,0,0,1,1.291.817,9.444,9.444,0,0,1,1.188.964,19.425,19.425,0,0,1,2.027,2.313c.633.817,1.255,1.635,1.936,2.354a9.444,9.444,0,0,0,2.26,1.933,12.208,12.208,0,0,0,2.795.993,15.815,15.815,0,0,1,2.842,1.058,3.637,3.637,0,0,1,1.239.907,1.248,1.248,0,0,1,.285.727,1.6,1.6,0,0,1-.174.764" transform="translate(-192.739 -142.957)" fill="#263238"/>
        <path id="Tracé_9225" data-name="Tracé 9225" d="M213.6,138.9c0,5.807,10.158,28.2,15.34,32.695a69.775,69.775,0,0,0,7.165,5.051L215.013,134.68c-.934.691-1.413,2.24-1.413,4.222" transform="translate(-129.041 -79.639)" fill="#263238"/>
        <path id="Tracé_9226" data-name="Tracé 9226" d="M270.45,237.37a57,57,0,0,0,5.328,2.861c.911.437,1.825.858,2.751,1.251s1.869.748,2.811,1.087h.032l.032.029a41.222,41.222,0,0,0,5.839,4.99,50.757,50.757,0,0,0,6.544,3.9c1.148.568,2.229,1.275,3.389,1.712a16.3,16.3,0,0,0,3.678.752,24.1,24.1,0,0,0,3.761.172,10.9,10.9,0,0,0,1.861-.237,3.322,3.322,0,0,0,1.631-.8l.036-.037h.044a10.851,10.851,0,0,0,1.671-.143,4.951,4.951,0,0,0,1.583-.5,1.739,1.739,0,0,0,.614-.544,1.19,1.19,0,0,0,.174-.8,2.189,2.189,0,0,0-.93-1.369l-.032-.029h.04l.475-.11.234-.065a.491.491,0,0,0,.218-.1.469.469,0,0,1-.214.11l-.234.078-.471.127v-.033a2.2,2.2,0,0,1,1,1.39,1.3,1.3,0,0,1-.166.875,1.919,1.919,0,0,1-.641.6,5.193,5.193,0,0,1-1.627.564,9.811,9.811,0,0,1-1.7.184l.083-.037a3.522,3.522,0,0,1-1.738.9,11.1,11.1,0,0,1-1.9.278,22.011,22.011,0,0,1-3.816-.119,16.475,16.475,0,0,1-3.761-.748c-1.223-.454-2.3-1.157-3.436-1.708a46.534,46.534,0,0,1-6.583-3.948,38.366,38.366,0,0,1-5.827-5.064l.059.041c-.946-.356-1.888-.727-2.807-1.144s-1.841-.842-2.739-1.308a55.441,55.441,0,0,1-5.261-3.057" transform="translate(-163.385 -140.361)" fill="#263238"/>
        <path id="Tracé_9227" data-name="Tracé 9227" d="M346.737,240.145c-.238.523-.5,1.034-.792,1.541-.139.253-.285.5-.439.744a4.141,4.141,0,0,1-.526.7.844.844,0,0,1-.424.225,2.7,2.7,0,0,1-.435.057,5.439,5.439,0,0,1-.859-.045,7.079,7.079,0,0,1-1.659-.409,4.668,4.668,0,0,1-.792-.409l-.709-.466a5.3,5.3,0,0,1-.689-.531,1.758,1.758,0,0,1-.5-.756,1.923,1.923,0,0,1-.02-.911,4.316,4.316,0,0,1,.257-.842,3.606,3.606,0,0,1,.982-1.406,3.854,3.854,0,0,0-.847,1.463,1.91,1.91,0,0,0,.966,2.767l.713.45a4.52,4.52,0,0,0,.728.368,6.679,6.679,0,0,0,1.584.433,4.949,4.949,0,0,0,.812.057,1.16,1.16,0,0,0,.721-.188,8.178,8.178,0,0,0,.994-1.353c.352-.507.641-1,.938-1.492" transform="translate(-204.704 -140.52)" fill="#263238"/>
        <path id="Tracé_9228" data-name="Tracé 9228" d="M369.09,254.14l-1-.094c-.329-.037-.661-.074-.994-.118l-.135-.02.059-.123c.245-.515.507-1.022.792-1.524a7.05,7.05,0,0,1-.273.817c-.1.27-.214.531-.333.793l-.075-.143c.333.037.665.086.994.151a6.773,6.773,0,0,1,.966.262" transform="translate(-221.689 -149.166)" fill="#263238"/>
        <path id="Tracé_9229" data-name="Tracé 9229" d="M141.88,138.383c0,5.807-10.162,28.2-15.344,32.695-1.774,1.541-11.35,8.533-18.523,10.56-3.238.911-11.148-14.006-8.357-15.072,3.911-1.492,17.332-7.7,17.763-8.129,3.072-3.077,9.366-12.669,17.391-21.685,4.608-5.17,7.074-2.849,7.07,1.631" transform="translate(-59.85 -79.12)" fill="#eb9481"/>
        <path id="Tracé_9230" data-name="Tracé 9230" d="M77,228.409c-4,4.5-9.849,8.2-12.272,8.68s-11.318-1.524-13.242-2.4S46.851,225.7,46.3,223.848c-.439-1.484.368-3.184,2.922-1.365,3.274,2.325,4.264,6.363,5.352,6.76s5.043-.887,5.578-2.558a3.646,3.646,0,0,0-2.264-3.772c-1.718-.6-3.5.454-5.938.294s-4.751-2.644-4.268-3.462,1.56-.356,4.889-1.467c2.138-.711,4.663-3.094,8.781-3.9a45.986,45.986,0,0,1,6.334-.409Z" transform="translate(-27.9 -126.524)" fill="#eb9481"/>
        <path id="Tracé_9231" data-name="Tracé 9231" d="M62.278,249.809c-2.253,1.872-7.431,4.855-11.647,5.031-2.85.114-10.546-1.112-10.443-3.339.143-3.184,10.067-2.64,11.243-2.934,3.6-.907,6.948-4.557,6.948-4.557Z" transform="translate(-24.278 -144.287)" fill="#eb9481"/>
        <path id="Tracé_9232" data-name="Tracé 9232" d="M63.135,250.83c-.333.27-.681.515-1.033.756a10.048,10.048,0,0,1-1.112.642,7.149,7.149,0,0,1-1.188.474,6.33,6.33,0,0,1-1.275.208q-1.263.1-2.526.09H53.48a23.761,23.761,0,0,1,2.51-.286l2.506-.188a6.857,6.857,0,0,0,1.211-.18,8.754,8.754,0,0,0,1.188-.409,12.109,12.109,0,0,0,1.14-.523c.372-.192.728-.4,1.1-.584" transform="translate(-32.308 -148.32)" fill="#263238"/>
        <path id="Tracé_9233" data-name="Tracé 9233" d="M65.811,251.459c-1.884,2.191-6.421,5.95-10.471,6.829-2.739.593-10.372.7-10.625-1.467-.364-3.106,9.319-4.25,10.408-4.733,3.341-1.488,6-5.579,6-5.579Z" transform="translate(-27.007 -145.765)" fill="#eb9481"/>
        <path id="Tracé_9234" data-name="Tracé 9234" d="M59.559,253.93a9.657,9.657,0,0,1-2.771,2.493,4.047,4.047,0,0,1-.895.319l-.883.225-1.77.445-3.563.858a13.731,13.731,0,0,0-1.738.507,4.111,4.111,0,0,0-1.52.981,3.919,3.919,0,0,1,1.453-1.144,11.276,11.276,0,0,1,1.734-.621c1.168-.356,2.344-.666,3.523-.969.59-.155,1.188-.3,1.774-.445l.887-.217a4.18,4.18,0,0,0,.835-.262,8.264,8.264,0,0,0,1.512-.973q.732-.564,1.421-1.2" transform="translate(-28.043 -150.153)" fill="#263238"/>
        <path id="Tracé_9235" data-name="Tracé 9235" d="M75.276,261.032A55.029,55.029,0,0,1,64.9,266.5c-1.73.474-8.492,1.377-9.826-.225-1.679-2.015,3.531-3.462,5.685-4.12a11.453,11.453,0,0,0,4.3-3.09Z" transform="translate(-33.071 -153.192)" fill="#eb9481"/>
        <path id="Tracé_9236" data-name="Tracé 9236" d="M54.808,255.769a1.644,1.644,0,0,1-.178-.756,1.279,1.279,0,0,1,.285-.727,3.676,3.676,0,0,1,1.239-.907A15.928,15.928,0,0,1,59,252.32a12.227,12.227,0,0,0,2.771-.993,9.538,9.538,0,0,0,2.264-1.933c.681-.74,1.3-1.549,1.932-2.354a19.805,19.805,0,0,1,2.027-2.313,9.441,9.441,0,0,1,1.188-.964,13.026,13.026,0,0,1,1.295-.817,12.274,12.274,0,0,1,2.771-1.165,13.667,13.667,0,0,0-2.708,1.308,12.748,12.748,0,0,0-2.375,1.835c-1.393,1.455-2.486,3.2-3.864,4.745a9.916,9.916,0,0,1-2.375,1.97,10.968,10.968,0,0,1-2.89.964,15.791,15.791,0,0,0-2.838.94,3.5,3.5,0,0,0-1.243.817,1.19,1.19,0,0,0-.3.67,1.588,1.588,0,0,0,.154.74" transform="translate(-33.003 -142.969)" fill="#263238"/>
        <path id="Tracé_9237" data-name="Tracé 9237" d="M172.862,138.914c0,5.807-10.158,28.2-15.336,32.695a70.2,70.2,0,0,1-7.165,5.051l21.088-41.96c.938.683,1.413,2.231,1.413,4.214" transform="translate(-90.836 -79.65)" fill="#263238"/>
        <path id="Tracé_9238" data-name="Tracé 9238" d="M86.464,237.37a56.054,56.054,0,0,1-5.253,3.053c-.9.466-1.813.9-2.736,1.308s-1.865.789-2.811,1.144l.063-.041A38.6,38.6,0,0,1,69.9,247.9a46.346,46.346,0,0,1-6.587,3.94c-1.136.552-2.213,1.255-3.436,1.708a16.475,16.475,0,0,1-3.761.748,22.013,22.013,0,0,1-3.816.119,11.1,11.1,0,0,1-1.9-.278,3.558,3.558,0,0,1-1.734-.9l.083.037a9.892,9.892,0,0,1-1.7-.184,5.167,5.167,0,0,1-1.623-.564,1.892,1.892,0,0,1-.645-.6,1.357,1.357,0,0,1-.166-.875,2.215,2.215,0,0,1,1-1.39v.033l-.471-.127-.234-.078a.474.474,0,0,1-.214-.11.517.517,0,0,0,.218.1l.234.065.475.11h.044l-.036.029a2.192,2.192,0,0,0-.922,1.377,1.211,1.211,0,0,0,.174.8,1.77,1.77,0,0,0,.618.544,5.028,5.028,0,0,0,1.584.5,10.953,10.953,0,0,0,1.671.143h.044l.036.037a3.333,3.333,0,0,0,1.635.8,10.845,10.845,0,0,0,1.857.237,24.15,24.15,0,0,0,3.765-.172,16.265,16.265,0,0,0,3.674-.752c1.164-.437,2.241-1.144,3.393-1.712a50.757,50.757,0,0,0,6.54-3.891,41.677,41.677,0,0,0,5.819-4.961l.028-.029h.032c.946-.339,1.888-.691,2.811-1.087s1.845-.817,2.771-1.251q2.708-1.324,5.313-2.889" transform="translate(-26.94 -140.361)" fill="#263238"/>
        <path id="Tracé_9239" data-name="Tracé 9239" d="M62.02,240.1c.3.49.586.985.9,1.463a8.16,8.16,0,0,0,1,1.353,1.132,1.132,0,0,0,.717.188,5,5,0,0,0,.816-.057,6.659,6.659,0,0,0,1.584-.433,4.358,4.358,0,0,0,.728-.368l.717-.45a2.6,2.6,0,0,0,1.116-1.132,2.564,2.564,0,0,0-.154-1.635,3.8,3.8,0,0,0-.847-1.463,3.563,3.563,0,0,1,.982,1.406,3.845,3.845,0,0,1,.257.842,1.869,1.869,0,0,1,0,.911,1.693,1.693,0,0,1-.5.756,5.237,5.237,0,0,1-.685.531l-.713.466a4.643,4.643,0,0,1-.768.409,7.139,7.139,0,0,1-1.659.409,5.491,5.491,0,0,1-.859.045,2.7,2.7,0,0,1-.439-.057.851.851,0,0,1-.42-.225,4.143,4.143,0,0,1-.527-.7c-.158-.245-.3-.49-.443-.744a13.918,13.918,0,0,1-.8-1.512" transform="translate(-37.468 -140.479)" fill="#263238"/>
        <path id="Tracé_9240" data-name="Tracé 9240" d="M48.46,254.14a6.888,6.888,0,0,1,.978-.262c.329-.065.661-.114,1-.151l-.079.143c-.119-.262-.23-.523-.333-.793a7.046,7.046,0,0,1-.273-.817c.277.5.538,1.009.792,1.524l.059.123-.135.02c-.329.045-.661.082-.994.118Z" transform="translate(-29.276 -149.166)" fill="#263238"/>
        <path id="Tracé_9241" data-name="Tracé 9241" d="M160.4,176.027s9.469,5.856,20.586,5.856c9.64,0,18.606-6.22,18.606-6.22s-7.066-33.418-13.333-41.972c-4.038-5.5-9.652-4.357-12.486-.319-5.047,7.152-13.373,42.654-13.373,42.654" transform="translate(-96.901 -76.84)" fill="#10a35f"/>
        <g id="Groupe_2166" data-name="Groupe 2166" transform="translate(71.446 60.942)" opacity="0.1">
          <g id="Groupe_2165" data-name="Groupe 2165">
            <g id="Groupe_2164" data-name="Groupe 2164" clip-path="url(#clip-path-32)">
              <path id="Tracé_9242" data-name="Tracé 9242" d="M193.381,172.971l-.162-.131-.079-.061-.024-.02c-.344-.278-.685-.568-1.006-.879-.206-.192-.4-.409-.594-.6a4.788,4.788,0,0,1-.562-.642,11.8,11.8,0,0,1-.994-1.414,10.311,10.311,0,0,1-.792-1.578c-.067-.172-.131-.343-.19-.519l-.059-.172c-.285-.879-.479-1.766-.7-2.611-.135-.535-.273-1.063-.439-1.582a16.048,16.048,0,0,0-.55-1.52c-.182-.445-.4-.883-.6-1.3a.121.121,0,0,0-.02-.041,13.77,13.77,0,0,0-.879-1.484,14.877,14.877,0,0,0-.966-1.279c-.044-.049-.083-.1-.131-.147.143-.409.289-.817.431-1.2a13.886,13.886,0,0,1,1.667,1.864l.257.356.241.368c.079.123.154.249.23.376s.154.249.222.38l.206.409c.067.131.127.262.19.409s.123.266.182.409.119.266.174.409q.331.8.582,1.635c.158.564.3,1.128.4,1.688l.079.409.024.114.051.249v.025l.17.862a13.427,13.427,0,0,0,.4,1.586,12.4,12.4,0,0,0,1.314,2.955,29.3,29.3,0,0,0,1.857,2.661Z" transform="translate(-182.991 -153.063)"/>
              <path id="Tracé_9243" data-name="Tracé 9243" d="M205.368,178.212s.4-2.154-3.436-2.215a10.88,10.88,0,0,0-4.8.781s2.771,1.349,4.2,1.9c1.857.74,3.8.74,4.034-.466" transform="translate(-190.537 -165.011)"/>
              <path id="Tracé_9244" data-name="Tracé 9244" d="M193.524,150.5s-.249-2.178-3.919-1.067a10.891,10.891,0,0,0-4.355,2.207s3.048.437,4.561.531c1.971.127,3.828-.466,3.713-1.672" transform="translate(-183.36 -149.117)"/>
              <path id="Tracé_9245" data-name="Tracé 9245" d="M202.155,165.862s-1.073-1.4-3.167.989a9.652,9.652,0,0,0-2.118,3.474s2.3-1.042,3.385-1.635c1.437-.817,2.478-2.043,1.9-2.828" transform="translate(-190.38 -158.778)"/>
              <path id="Tracé_9246" data-name="Tracé 9246" d="M187.818,190.087s-1.766-.662-.1-3.678a10.068,10.068,0,0,1,2.724-3.429s-.253,2.8-.479,4.156c-.3,1.782-1.172,3.31-2.15,2.951" transform="translate(-184.42 -169.141)"/>
              <path id="Tracé_9247" data-name="Tracé 9247" d="M181.514,174.262s-2.094-.654-.337-4.3a11.821,11.821,0,0,1,2.965-4.173s-.127,3.269-.3,4.876c-.238,2.1-1.16,3.944-2.324,3.6" transform="translate(-180.475 -158.976)"/>
              <path id="Tracé_9248" data-name="Tracé 9248" d="M210.958,203.175s-1.386,1.226-3.1-1.672a10.089,10.089,0,0,1-1.544-4.034s2.193,1.553,3.215,2.4c1.338,1.108,2.185,2.6,1.433,3.3" transform="translate(-196.083 -177.709)"/>
              <path id="Tracé_9249" data-name="Tracé 9249" d="M200.533,204.52s-1.793-.409-.578-3.568a9.915,9.915,0,0,1,2.181-3.7s.127,2.742.087,4.087c-.051,1.778-.693,3.38-1.69,3.184" transform="translate(-191.988 -177.579)"/>
              <path id="Tracé_9250" data-name="Tracé 9250" d="M240.094,219.765c-.273.168-.6.364-.974.576a13.432,13.432,0,0,1-1.552-1.328q-.3-.286-.57-.6l-.178-.2c-.1-.11-.19-.221-.281-.335l-.265-.347c-.091-.114-.174-.237-.257-.356s-.17-.237-.245-.364l-.234-.372c-.075-.127-.146-.253-.218-.38s-.143-.253-.21-.38-.139-.257-.2-.388a17.187,17.187,0,0,1-.693-1.6c-.2-.548-.376-1.1-.53-1.635l-.439-1.635-.119-.409a.611.611,0,0,0-.04-.139c-.1-.335-.214-.67-.333-.993a12.292,12.292,0,0,0-1.516-2.861,25.875,25.875,0,0,0-1.884-2.346.044.044,0,0,1,0-.02l-.174-.2.143.1.063.045a.094.094,0,0,1,.036.025h.032a12.659,12.659,0,0,1,1.069.817c.222.176.428.368.637.556s.4.409.606.6a11.7,11.7,0,0,1,1.089,1.336,10.131,10.131,0,0,1,.875,1.512.547.547,0,0,1,.032.074c.044.082.079.163.115.249a.141.141,0,0,1,0,.037c.4.948.7,1.933,1.006,2.861.17.523.344,1.042.546,1.541s.416,1,.657,1.479a15.57,15.57,0,0,0,1.291,2.174c.063.094.131.184.2.278l.2.257a14.93,14.93,0,0,0,1.049,1.2,15.607,15.607,0,0,0,1.188,1.1Z" transform="translate(-209.899 -181.245)"/>
              <path id="Tracé_9251" data-name="Tracé 9251" d="M230.917,233.3s-.748,2.043,3,2.812a10.783,10.783,0,0,0,4.857.114s-2.51-1.839-3.812-2.644c-1.7-1.05-3.614-1.406-4.05-.282" transform="translate(-210.912 -198.487)"/>
              <path id="Tracé_9252" data-name="Tracé 9252" d="M228.358,214.879s-.416,1.14,1.667,1.561a5.955,5.955,0,0,0,2.7.061s-1.393-1.018-2.118-1.467c-.942-.593-2.007-.781-2.249-.155" transform="translate(-209.382 -187.774)"/>
              <path id="Tracé_9253" data-name="Tracé 9253" d="M241.769,200.852s1.52.319.511,3.008A8.347,8.347,0,0,1,240.459,207s-.123-2.313-.1-3.457c.032-1.492.562-2.849,1.405-2.689" transform="translate(-216.653 -179.701)"/>
              <path id="Tracé_9254" data-name="Tracé 9254" d="M244.944,208.612s.792,1.05-1.263,2.166a6.511,6.511,0,0,1-2.791.94s1.14-1.512,1.758-2.215c.808-.915,1.853-1.463,2.3-.891" transform="translate(-216.973 -184.159)"/>
              <path id="Tracé_9255" data-name="Tracé 9255" d="M234.086,189.552s1.441,1.173-1.013,3.462a9.534,9.534,0,0,1-3.563,2.317s1.069-2.513,1.686-3.711c.831-1.561,2.082-2.7,2.89-2.068" transform="translate(-210.098 -172.921)"/>
              <path id="Tracé_9256" data-name="Tracé 9256" d="M252.334,223.183h0c-.032.082-.067.168-.107.253a11.191,11.191,0,0,1-2.177,3.376c-.135.131-.21.192-.21.192v-.47c0-.842.048-2.616.135-3.621.131-1.578.724-2.992,1.552-3.094.3,1.214.574,2.342.808,3.363" transform="translate(-222.38 -190.925)"/>
              <path id="Tracé_9257" data-name="Tracé 9257" d="M226.884,185.838s1.825-.159,1.548,3.241a10.219,10.219,0,0,1-1.061,4.2s-.883-2.591-1.223-3.9c-.443-1.688-.273-3.433.736-3.539" transform="translate(-207.928 -170.83)"/>
            </g>
          </g>
        </g>
        <path id="Tracé_9258" data-name="Tracé 9258" d="M206.232,127.844c-2.122,0-4.85-2.158-6.5-4.643-.115-.172-.032-2.1-.044-4.446,0-1.426-.055-3.016-.2-4.459-.032-.3,8.994,1.279,8.994,1.279a24.012,24.012,0,0,0-.3,5.636,3.267,3.267,0,0,0,.119.589.169.169,0,0,0,.024.1c.289,1.108.554,5.946-2.094,5.946" transform="translate(-120.516 -67.563)" fill="#eb9481"/>
        <path id="Tracé_9259" data-name="Tracé 9259" d="M200.87,114.3c.649,2.4,2.7,8.149,7.4,7.765a5.1,5.1,0,0,0,.891-.143.332.332,0,0,0-.02-.1,3.716,3.716,0,0,1-.119-.584,23.828,23.828,0,0,1,.3-5.644s-6.516-1.136-8.452-1.3" transform="translate(-121.35 -67.587)" fill="#263238"/>
        <path id="Tracé_9260" data-name="Tracé 9260" d="M196.394,78.768c-1.069,3.192.257,12.579,2.407,14.741,3.12,3.135,8.385,3.621,11.009-.286,2.538-3.788.606-15.992-1.813-17.982-3.563-2.91-10.028-1.2-11.6,3.527" transform="translate(-118.418 -43.646)" fill="#eb9481"/>
        <path id="Tracé_9261" data-name="Tracé 9261" d="M210.243,93.874a6.68,6.68,0,0,0,.792-.225,1.307,1.307,0,0,0,.764-.388.448.448,0,0,0-.032-.531,1.027,1.027,0,0,0-1.045-.188,1.528,1.528,0,0,0-.93.621.475.475,0,0,0,.137.644.441.441,0,0,0,.314.067" transform="translate(-126.697 -54.681)" fill="#263238"/>
        <path id="Tracé_9262" data-name="Tracé 9262" d="M224.527,92.508a7.84,7.84,0,0,1-.819-.037,1.29,1.29,0,0,1-.831-.2.444.444,0,0,1-.079-.511,1.014,1.014,0,0,1,.978-.409,1.488,1.488,0,0,1,1.041.388.476.476,0,0,1-.045.657.444.444,0,0,1-.244.111" transform="translate(-134.568 -54.011)" fill="#263238"/>
        <path id="Tracé_9263" data-name="Tracé 9263" d="M215.725,114.658c.162.135.329.323.554.319a1.59,1.59,0,0,0,.645-.229s.044,0,.032.029a.829.829,0,0,1-.748.409.662.662,0,0,1-.538-.511.035.035,0,0,1,.046-.022l.01.006" transform="translate(-130.291 -67.795)" fill="#263238"/>
        <path id="Tracé_9264" data-name="Tracé 9264" d="M216.954,99.473a2.086,2.086,0,0,0,1.492.817,2.487,2.487,0,0,0,.756-.045.52.52,0,0,0,.143-.033l.135-.033a.159.159,0,0,0,.107-.155.182.182,0,0,0,0-.065V99.9c-.032-.49-.15-1.226-.15-1.226.182.074,1.1.388,1.065.135a33.726,33.726,0,0,0-1.453-6.465.057.057,0,0,0-.069-.043.059.059,0,0,0-.042.072c.238,2.043.823,4.013,1.093,6.053a3.649,3.649,0,0,0-1.017-.208c-.067.029.253,1.426.253,1.635a.085.085,0,0,1,0,.025,2.847,2.847,0,0,1-2.237-.47c-.075-.029-.119.016-.075.065" transform="translate(-131.056 -54.579)" fill="#263238"/>
        <path id="Tracé_9265" data-name="Tracé 9265" d="M218.617,110.342a2.574,2.574,0,0,1-.958.858,1.086,1.086,0,0,1-.677.082c-.5-.106-.538-.572-.471-.977a2.928,2.928,0,0,1,.186-.625,3.188,3.188,0,0,0,1.92.662" transform="translate(-130.784 -64.856)" fill="#263238"/>
        <path id="Tracé_9266" data-name="Tracé 9266" d="M217.7,112.074a1.086,1.086,0,0,1-.677.082c-.5-.106-.538-.572-.471-.977a1.162,1.162,0,0,1,1.148.9" transform="translate(-130.808 -65.742)" fill="#ff9bbc"/>
        <path id="Tracé_9267" data-name="Tracé 9267" d="M213.886,99.942c0-.025-.048.037-.044.065.079.662.063,1.439-.5,1.716v.037c.713-.172.728-1.2.546-1.819" transform="translate(-128.883 -59.094)" fill="#263238"/>
        <path id="Tracé_9268" data-name="Tracé 9268" d="M212.661,100.3a1.037,1.037,0,0,1-.174.511.721.721,0,0,1-.5.282.628.628,0,0,1-.53-.233,1.2,1.2,0,0,1-.23-.482,2.06,2.06,0,0,1-.044-.319,1.483,1.483,0,0,1,.087-.658,2.153,2.153,0,0,0,.063.482,2.658,2.658,0,0,0,.127.409c.107.278.289.5.507.47a.59.59,0,0,0,.455-.515,4.652,4.652,0,0,0,.1-.928,2.168,2.168,0,0,1,.139.981" transform="translate(-127.575 -58.73)" fill="#263238"/>
        <path id="Tracé_9269" data-name="Tracé 9269" d="M224.514,98.9c0-.029.051.029.051.057,0,.67.139,1.434.732,1.635v.037c-.724-.074-.875-1.091-.784-1.729" transform="translate(-135.619 -58.476)" fill="#263238"/>
        <path id="Tracé_9270" data-name="Tracé 9270" d="M224.5,99.111a1.044,1.044,0,0,0,.245.478.719.719,0,0,0,.534.208.635.635,0,0,0,.495-.311,1.124,1.124,0,0,0,.158-.507,2.2,2.2,0,0,0,0-.323,1.457,1.457,0,0,0-.178-.638,2.183,2.183,0,0,1,0,.482,3.023,3.023,0,0,1-.067.433c-.071.29-.218.535-.439.535a.588.588,0,0,1-.523-.441,5.119,5.119,0,0,1-.23-.9,2.211,2.211,0,0,0,0,.981" transform="translate(-135.593 -57.961)" fill="#263238"/>
        <path id="Tracé_9271" data-name="Tracé 9271" d="M206.047,72.169c-3.088,2.7-7.981-.376-7.981-.376a3.653,3.653,0,0,1-3.432,2.746s-.079,5.873-1.564,6.016c-2.26.225-3.737-7.618-3.167-9.249a4.1,4.1,0,0,1,2.435-2.227,3.691,3.691,0,0,1,1.306-2.452c1.421-1.381,6.908-.3,6.908-.3a5.176,5.176,0,0,1,1.188-2.043,1.371,1.371,0,0,1,1.981-.047l.046.047a3.521,3.521,0,0,0-.4,1.488c-.1,1.729,1.247,1.586,1.081.045a2.435,2.435,0,0,0-.681-1.533c.566-1.075,1.615-1.52,2.328-1.05,1.275.805,2.53,6.682-.051,8.938" transform="translate(-114.65 -37.279)" fill="#263238"/>
        <path id="Tracé_9272" data-name="Tracé 9272" d="M198.579,86.629a.076.076,0,0,0-.082-.069.077.077,0,0,0-.067.085.078.078,0,0,0,.011.034,15.428,15.428,0,0,1,.681,3.5c.048,1.177-.265,4.185-1.928,4.009a.065.065,0,0,0-.075.053.067.067,0,0,0,.051.078c1.124.409,1.726-1.079,1.979-2.1a9.9,9.9,0,0,0-.57-5.583" transform="translate(-119.083 -51.184)" fill="#263238"/>
        <path id="Tracé_9273" data-name="Tracé 9273" d="M219.646,63.22h0a7.049,7.049,0,0,1,1.342,7.9c-1.682,3.335-5.91,1.745-8.444.666-.127-.053-.222.135-.1.192,2.47,1.128,6.75,2.62,8.551-.437a6.938,6.938,0,0,0-1.354-8.321" transform="translate(-128.309 -37.383)" fill="#263238"/>
        <path id="Tracé_9274" data-name="Tracé 9274" d="M191.864,77.637c-2.193.478-3.674,1.729-3.654,4.177a9.041,9.041,0,0,0,2.985,6.474c.087.078.194-.053.119-.135a10.159,10.159,0,0,1-2.684-4.794,5.312,5.312,0,0,1,.558-4.173,4.939,4.939,0,0,1,2.7-1.463.046.046,0,0,0,.028-.057.044.044,0,0,0-.055-.029" transform="translate(-113.702 -45.907)" fill="#263238"/>
        <path id="Tracé_9275" data-name="Tracé 9275" d="M205.2,70.244c-2.941-1.459-8.587-2.542-8.907,2.313a.034.034,0,0,0,.067,0c.586-4.9,5.815-3.269,8.792-2.191a.066.066,0,0,0,.048-.123" transform="translate(-118.583 -40.807)" fill="#263238"/>
        <path id="Tracé_9276" data-name="Tracé 9276" d="M195.273,101.189s-1.979-3.049-3.333-2.321.131,5.129,1.679,5.754a1.563,1.563,0,0,0,2.108-.781c.009-.02.018-.04.026-.06Z" transform="translate(-115.635 -58.396)" fill="#eb9481"/>
        <path id="Tracé_9277" data-name="Tracé 9277" d="M193.848,102.09a.025.025,0,0,0-.012.032.024.024,0,0,0,.012.013,4.1,4.1,0,0,1,2.027,2.62.857.857,0,0,0-1.184-.351.884.884,0,0,0-.119.082c-.032,0,0,.065.028.061a.957.957,0,0,1,1.065.368,4.87,4.87,0,0,1,.5.9c.051.1.23.053.194-.065v-.025c.04-1.439-1.009-3.466-2.51-3.637" transform="translate(-117.1 -60.368)" fill="#263238"/>
        <path id="Tracé_9278" data-name="Tracé 9278" d="M175.61,48.411l1.576-.3.352-1.712.352,1.712,1.572.3-1.568.4-.356,1.618-.36-1.618Z" transform="translate(-106.09 -27.437)" fill="#10a35f"/>
        <path id="Tracé_9279" data-name="Tracé 9279" d="M112.93,169.6l1.576-.3.352-1.712.352,1.712,1.572.3-1.568.4-.356,1.614L114.5,170Z" transform="translate(-68.224 -99.099)" fill="#10a35f"/>
        <path id="Tracé_9280" data-name="Tracé 9280" d="M270.98,89.1l1.576-.3.352-1.712.352,1.712,1.572.3-1.568.4-.356,1.618-.36-1.618Z" transform="translate(-163.705 -51.498)" fill="#10a35f"/>
        <path id="Tracé_9281" data-name="Tracé 9281" d="M291.16,184.561l1.576-.3.352-1.712.352,1.712,1.572.3-1.568.4-.356,1.618-.36-1.618Z" transform="translate(-175.896 -107.945)" fill="#10a35f"/>
        <path id="Tracé_9282" data-name="Tracé 9282" d="M158.35,151.631l1.576-.3.352-1.712.352,1.712,1.572.3-1.568.392-.356,1.618-.36-1.618Z" transform="translate(-95.663 -88.473)" fill="#10a35f"/>
        <path id="Tracé_9283" data-name="Tracé 9283" d="M89.08,196.084l.883-.168.194-.956.2.956.879.172-.875.221-.2.9-.2-.9Z" transform="translate(-53.815 -115.283)" fill="#10a35f"/>
        <path id="Tracé_9284" data-name="Tracé 9284" d="M238.05,75.978l.883-.168.194-.96.2.96.879.168-.875.221-.2.9-.2-.9Z" transform="translate(-143.811 -44.26)" fill="#10a35f"/>
        <path id="Tracé_9285" data-name="Tracé 9285" d="M233.54,122.618l.879-.168.2-.96.194.96.883.168-.879.221-.2.9-.2-.9Z" transform="translate(-141.087 -71.839)" fill="#10a35f"/>
        <path id="Tracé_9286" data-name="Tracé 9286" d="M199.74,34.924l.879-.168.2-.956.2.956.879.168-.875.221-.2.907-.2-.907Z" transform="translate(-120.667 -19.986)" fill="#10a35f"/>
        <path id="Tracé_9287" data-name="Tracé 9287" d="M272.36,160.6l.879-.172.194-.956.2.956.883.172-.879.221-.2.9-.2-.9Z" transform="translate(-164.539 -94.297)" fill="#10a35f"/>
        <path id="Tracé_9288" data-name="Tracé 9288" d="M285.57,72.524l.883-.168.194-.956.2.956.879.168-.875.221-.2.907-.2-.907Z" transform="translate(-172.519 -42.22)" fill="#10a35f"/>
        <path id="Tracé_9289" data-name="Tracé 9289" d="M288.29,138.208l.879-.172.2-.956.2.956.879.172-.875.221-.2.9-.2-.9Z" transform="translate(-174.162 -81.058)" fill="#10a35f"/>
        <path id="Tracé_9290" data-name="Tracé 9290" d="M130.09,180.878l.879-.168.2-.96.2.96.879.168-.879.221-.2.9-.2-.9Z" transform="translate(-78.59 -106.289)" fill="#10a35f"/>
        <path id="Tracé_9291" data-name="Tracé 9291" d="M168.154,75.383a.262.262,0,1,0-.253-.261.257.257,0,0,0,.253.261" transform="translate(-101.433 -44.266)" fill="#10a35f"/>
        <path id="Tracé_9292" data-name="Tracé 9292" d="M329.686,191.537a.267.267,0,1,0-.224-.23.264.264,0,0,0,.224.23" transform="translate(-199.034 -112.947)" fill="#10a35f"/>
        <path id="Tracé_9293" data-name="Tracé 9293" d="M138.826,108.057a.267.267,0,1,0-.223-.23.264.264,0,0,0,.223.23" transform="translate(-83.732 -63.584)" fill="#10a35f"/>
        <path id="Tracé_9294" data-name="Tracé 9294" d="M300.526,86.357a.267.267,0,1,0-.224-.231.264.264,0,0,0,.224.231" transform="translate(-181.418 -50.753)" fill="#10a35f"/>
        <path id="Tracé_9295" data-name="Tracé 9295" d="M263.7,130.092a.187.187,0,0,0,.153-.214.185.185,0,0,0-.153-.158.187.187,0,0,0-.153.214.185.185,0,0,0,.153.158" transform="translate(-159.215 -76.706)" fill="#10a35f"/>
        <path id="Tracé_9296" data-name="Tracé 9296" d="M214.333,45.892a.187.187,0,0,0,.153-.214.185.185,0,0,0-.153-.158.187.187,0,0,0-.153.214.185.185,0,0,0,.153.158" transform="translate(-129.39 -26.917)" fill="#10a35f"/>
        <path id="Tracé_9297" data-name="Tracé 9297" d="M259.3,45.512a.187.187,0,0,0,.153-.214.185.185,0,0,0-.153-.158.187.187,0,0,0-.153.214.185.185,0,0,0,.153.158" transform="translate(-156.557 -26.692)" fill="#10a35f"/>
        <path id="Tracé_9298" data-name="Tracé 9298" d="M167.188,113.909a.508.508,0,1,0-.445-.459.5.5,0,0,0,.445.459" transform="translate(-100.732 -66.76)" fill="#10a35f"/>
        <path id="Tracé_9299" data-name="Tracé 9299" d="M253.018,68.779a.508.508,0,1,0-.445-.459.5.5,0,0,0,.445.459" transform="translate(-152.584 -40.074)" fill="#10a35f"/>
      </g>
    </g>
  </g>
</svg>
