<svg id="Groupe_1455" data-name="Groupe 1455" xmlns="http://www.w3.org/2000/svg" xmlns:xlink="http://www.w3.org/1999/xlink" width="205.706" height="209.365" viewBox="0 0 205.706 209.365">
  <defs>
    <clipPath id="clip-path">
      <rect id="Rectangle_4628" data-name="Rectangle 4628" width="205.706" height="209.364" fill="none"/>
    </clipPath>
    <clipPath id="clip-path-4">
      <rect id="Rectangle_4623" data-name="Rectangle 4623" width="80.371" height="72.543" fill="none"/>
    </clipPath>
    <clipPath id="clip-path-5">
      <rect id="Rectangle_4624" data-name="Rectangle 4624" width="13.426" height="19.642" fill="none"/>
    </clipPath>
  </defs>
  <g id="Groupe_1454" data-name="Groupe 1454" clip-path="url(#clip-path)">
    <g id="Groupe_1445" data-name="Groupe 1445">
      <g id="Groupe_1444" data-name="Groupe 1444" clip-path="url(#clip-path)">
        <path id="Tracé_5993" data-name="Tracé 5993" d="M31.425,332.891l-6.431.137-3.262.054c-1.087.024-2.185,0-3.277.024h-.22v-.22L18.21,327.4v-.245h.245l6.485.029c2.16,0,4.32.054,6.485.078h.132v.132c0,.931-.044,1.852-.064,2.767Zm0,0-.069-2.772c0-.911-.059-1.812-.069-2.709l.137.132c-2.165.024-4.325.078-6.485.078l-6.485.034.245-.245-.029,5.481-.216-.22c1.068,0,2.131,0,3.2.029l3.223.054Z" transform="translate(-9.29 -166.91)" fill="#e6e6e6"/>
        <path id="Tracé_5994" data-name="Tracé 5994" d="M16.681,347.016l-6.431.162-3.262.054c-1.092.025-2.185,0-3.277.025H3.49V341.3H10.2c2.16,0,4.32.054,6.485.078h.132v.132c0,.931-.044,1.852-.064,2.767Zm0,0-.073-2.777c0-.911-.054-1.812-.064-2.709l.137.132c-2.165.024-4.325.078-6.485.078l-6.466.049.24-.245-.024,5.481-.216-.22c1.068,0,2.131,0,3.2.029l3.223.054Z" transform="translate(-1.781 -174.124)" fill="#e6e6e6"/>
        <rect id="Rectangle_4588" data-name="Rectangle 4588" width="12.97" height="5.481" transform="translate(16.399 167.411)" fill="#e6e6e6"/>
        <path id="Tracé_5995" data-name="Tracé 5995" d="M133.975,78.336l-6.426.137-3.262.054c-1.092,0-2.189,0-3.282.029h-.216v-.22l-.029-5.481V72.61H121l6.485.034c2.165,0,4.325.054,6.485.078h.118v.132c0,.931-.044,1.856-.064,2.772Zm0,0-.069-2.767c0-.911-.054-1.812-.064-2.714l.132.137c-2.16.024-4.32.078-6.485.078L121,73.1l.245-.245-.024,5.481L121,78.12c1.068,0,2.136,0,3.208.024l3.223.059Z" transform="translate(-61.609 -37.044)" fill="#e6e6e6"/>
        <path id="Tracé_5996" data-name="Tracé 5996" d="M119.205,92.456l-6.426.137-3.262.054c-1.092.024-2.189,0-3.282.029h-.216v-.22l-.039-5.481V86.73h.245l6.485.034c2.16,0,4.325.054,6.485.078h.137v.132c0,.931-.039,1.856-.064,2.772Zm0,0-.069-2.767c0-.911-.054-1.812-.064-2.714l.132.137c-2.16,0-4.325.078-6.485.078l-6.485.029.245-.245v5.481l-.22-.216h3.208l3.223.059Z" transform="translate(-54.069 -44.248)" fill="#e6e6e6"/>
        <rect id="Rectangle_4589" data-name="Rectangle 4589" width="12.97" height="5.481" transform="translate(66.63 42.727)" fill="#e6e6e6"/>
        <rect id="Rectangle_4590" data-name="Rectangle 4590" width="12.97" height="5.481" transform="translate(183.57 167.411)" fill="#e6e6e6"/>
        <rect id="Rectangle_4591" data-name="Rectangle 4591" width="12.97" height="5.481" transform="translate(183.57 0.265)" fill="#e6e6e6"/>
        <path id="Tracé_5997" data-name="Tracé 5997" d="M402.215,19.876l-6.426.137-3.262.054c-1.092,0-2.185,0-3.282.029h-.216v-.22L389,14.395V14.15h.245l6.485.034c2.165,0,4.325.054,6.485.078h.137v.132c0,.931-.044,1.856-.064,2.772Zm0,0-.069-2.767c0-.911-.054-1.817-.064-2.714l.132.137c-2.16,0-4.32.073-6.485.078l-6.485.029.245-.245-.01,5.481-.22-.216c1.073,0,2.136,0,3.208.024l3.223.054Z" transform="translate(-198.46 -7.219)" fill="#e6e6e6"/>
        <path id="Tracé_5998" data-name="Tracé 5998" d="M16.681,5.755l-6.431.132-3.262.059H3.49V0h.24l6.485.029c2.16,0,4.32.054,6.485.078h.132V.24c0,.926-.044,1.852-.064,2.767Zm0,0-.073-2.772c0-.911-.054-1.812-.064-2.709l.137.132c-2.165,0-4.325.078-6.485.078L3.73.514l.24-.24L3.926,5.755l-.2-.22h3.2l3.223.059Z" transform="translate(-1.781)" fill="#e6e6e6"/>
        <rect id="Rectangle_4592" data-name="Rectangle 4592" width="12.97" height="5.481" transform="translate(87.041 147.137)" fill="#e6e6e6"/>
        <path id="Tracé_5999" data-name="Tracé 5999" d="M192.342,286.1l6.426-.137,3.267-.054h3.492v.191l.024,5.481v.245h-.225l-6.485-.029c-2.16,0-4.325-.059-6.485-.083h-.137v-.132c0-.931.039-1.856.064-2.767Zm0,0,.069,2.768c.024.916.054,1.817.064,2.714l-.132-.132c2.16,0,4.325-.078,6.485-.083l6.485-.029-.245.245V286.1l.22.22c-1.068,0-2.136,0-3.208-.029l-3.218-.054Z" transform="translate(-98.067 -145.865)" fill="#e6e6e6"/>
        <path id="Tracé_6000" data-name="Tracé 6000" d="M128.829,91.505H9.43V1.3h119.4ZM9.92,91.016H128.339V1.79H9.92Z" transform="translate(-4.811 -0.663)" fill="#e6e6e6"/>
        <circle id="Ellipse_34" data-name="Ellipse 34" cx="1.131" cy="1.131" r="1.131" transform="matrix(0.172, -0.985, 0.985, 0.172, 6.641, 4.085)" fill="#959494"/>
        <path id="Tracé_6001" data-name="Tracé 6001" d="M25.633,5.282a1.126,1.126,0,1,1-.33-.8,1.127,1.127,0,0,1,.33.8" transform="translate(-11.928 -2.118)" fill="#e6e6e6"/>
        <path id="Tracé_6002" data-name="Tracé 6002" d="M35.033,5.281a1.126,1.126,0,1,1-.328-.8,1.127,1.127,0,0,1,.328.8" transform="translate(-16.724 -2.117)" fill="#338338"/>
        <rect id="Rectangle_4593" data-name="Rectangle 4593" width="118.914" height="0.49" transform="translate(4.864 5.133)" fill="#e6e6e6"/>
        <path id="Tracé_6003" data-name="Tracé 6003" d="M297.522,345.651h57.191l1.842-36.291H295.68Z" transform="translate(-150.85 -157.829)" fill="#e6e6e6"/>
        <path id="Tracé_6004" data-name="Tracé 6004" d="M354.458,330.132H304.046l-.7-12.642h51.921Zm-49.962-.49h49.472l.749-11.663H303.869Z" transform="translate(-154.763 -161.977)" fill="#d3d3d3"/>
        <path id="Tracé_6005" data-name="Tracé 6005" d="M355.415,361.018H307.138L306.57,349.6h49.56Zm-47.811-.49h47.356l.651-10.438H307.084Z" transform="translate(-156.406 -178.359)" fill="#d3d3d3"/>
        <path id="Tracé_6006" data-name="Tracé 6006" d="M356.519,330.091H345.807l-.4-3.081h11.511Zm-10.286-.49h9.855l.269-2.1H345.964Z" transform="translate(-176.221 -166.834)" fill="#d3d3d3"/>
        <path id="Tracé_6007" data-name="Tracé 6007" d="M356.519,361.191H345.807l-.4-3.081h11.511Zm-10.286-.49h9.855l.269-2.1H345.964Z" transform="translate(-176.221 -182.7)" fill="#d3d3d3"/>
        <path id="Tracé_6008" data-name="Tracé 6008" d="M311.615,383.45l-.553,3.953-1.117,7.945H307.76v-11.9Z" transform="translate(-157.013 -195.629)" fill="#e6e6e6"/>
        <path id="Tracé_6009" data-name="Tracé 6009" d="M311.615,383.45l-.553,3.953h-3.3V383.45Z" transform="translate(-157.013 -195.629)" fill="#d3d3d3"/>
        <path id="Tracé_6010" data-name="Tracé 6010" d="M400.01,383.45l.558,3.953,1.117,7.945h2.18v-11.9Z" transform="translate(-204.077 -195.629)" fill="#e6e6e6"/>
        <path id="Tracé_6011" data-name="Tracé 6011" d="M400.01,383.45l.558,3.953h3.3V383.45Z" transform="translate(-204.077 -195.629)" fill="#d3d3d3"/>
        <rect id="Rectangle_4594" data-name="Rectangle 4594" width="27.161" height="32.945" transform="translate(177.041 9.532)" fill="#e6e6e6"/>
        <rect id="Rectangle_4595" data-name="Rectangle 4595" width="20.955" height="26.93" transform="translate(180.146 12.539)" fill="#fff"/>
        <rect id="Rectangle_4596" data-name="Rectangle 4596" width="0.818" height="26.93" transform="translate(180.146 12.539)" fill="#bcbbbb"/>
        <rect id="Rectangle_4597" data-name="Rectangle 4597" width="0.818" height="32.945" transform="translate(204.201 9.532)" fill="#bcbbbb"/>
        <rect id="Rectangle_4598" data-name="Rectangle 4598" width="4.942" height="14.719" transform="translate(191.089 18.765)" fill="#e6e6e6"/>
        <path id="Tracé_6012" data-name="Tracé 6012" d="M390.876,40.38H377.21v-7.7h13.666ZM377.7,39.89h12.686V33.17H377.7Z" transform="translate(-192.445 -16.673)" fill="#e6e6e6"/>
        <rect id="Rectangle_4599" data-name="Rectangle 4599" width="27.161" height="32.945" transform="translate(177.041 90.715)" fill="#e6e6e6"/>
        <rect id="Rectangle_4600" data-name="Rectangle 4600" width="20.955" height="26.93" transform="translate(180.146 93.722)" fill="#fff"/>
        <rect id="Rectangle_4601" data-name="Rectangle 4601" width="0.818" height="26.93" transform="translate(180.146 93.722)" fill="#bcbbbb"/>
        <rect id="Rectangle_4602" data-name="Rectangle 4602" width="0.818" height="32.945" transform="translate(204.201 90.715)" fill="#bcbbbb"/>
        <rect id="Rectangle_4603" data-name="Rectangle 4603" width="4.942" height="14.719" transform="translate(187.165 99.948)" fill="#e6e6e6"/>
        <path id="Tracé_6013" data-name="Tracé 6013" d="M390.876,206.12H377.21v-7.7h13.666Zm-13.176-.49h12.686v-6.72H377.7Z" transform="translate(-192.445 -101.23)" fill="#e6e6e6"/>
        <rect id="Rectangle_4604" data-name="Rectangle 4604" width="27.161" height="32.945" transform="translate(177.041 50.27)" fill="#e6e6e6"/>
        <rect id="Rectangle_4605" data-name="Rectangle 4605" width="20.955" height="26.93" transform="translate(180.146 53.278)" fill="#fff"/>
        <rect id="Rectangle_4606" data-name="Rectangle 4606" width="0.818" height="26.93" transform="translate(180.146 53.278)" fill="#bcbbbb"/>
        <rect id="Rectangle_4607" data-name="Rectangle 4607" width="0.818" height="32.945" transform="translate(204.201 50.27)" fill="#bcbbbb"/>
        <rect id="Rectangle_4608" data-name="Rectangle 4608" width="4.232" height="10.703" transform="translate(188.591 60.238)" fill="#e6e6e6"/>
        <path id="Tracé_6014" data-name="Tracé 6014" d="M390.909,143.627H379.05V135.76h11.859Zm-11.369-.49h10.879V136.25H379.54Z" transform="translate(-193.384 -69.262)" fill="#d3d3d3"/>
        <rect id="Rectangle_4609" data-name="Rectangle 4609" width="170.423" height="121.529" transform="translate(17.643 10.144)" fill="#fff"/>
        <path id="Tracé_6015" data-name="Tracé 6015" d="M206.2,141.984l-170.458.176h-.176v-.176L35.52,20.455V20.21h.225l170.418.1h.147v.147Zm0,0-.147-121.529.147.147-170.458.1.245-.245-.049,121.529-.176-.176Z" transform="translate(-18.122 -10.311)" fill="#bcbbbb"/>
        <rect id="Rectangle_4610" data-name="Rectangle 4610" width="170.423" height="4.737" transform="translate(17.643 10.144)" fill="#29373e"/>
        <path id="Tracé_6016" data-name="Tracé 6016" d="M41.261,24.316a1.171,1.171,0,1,1-.343-.833,1.171,1.171,0,0,1,.343.833" transform="translate(-19.856 -11.806)" fill="#bcbbbb"/>
        <path id="Tracé_6017" data-name="Tracé 6017" d="M51.051,24.316a1.176,1.176,0,1,1-1.176-1.176,1.176,1.176,0,0,1,1.176,1.176" transform="translate(-24.846 -11.806)" fill="#fff"/>
        <path id="Tracé_6018" data-name="Tracé 6018" d="M60.851,24.316a1.171,1.171,0,1,1-.343-.833,1.171,1.171,0,0,1,.343.833" transform="translate(-29.851 -11.806)" fill="#338338"/>
        <path id="Tracé_6019" data-name="Tracé 6019" d="M63.878,54.492a2.689,2.689,0,1,1-.784-1.9,2.689,2.689,0,0,1,.784,1.9" transform="translate(-29.845 -26.425)" fill="#338338"/>
        <rect id="Rectangle_4611" data-name="Rectangle 4611" width="0.49" height="3.037" transform="translate(31.035 26.543)" fill="#fff"/>
        <rect id="Rectangle_4612" data-name="Rectangle 4612" width="3.037" height="0.49" transform="translate(29.761 27.812)" fill="#fff"/>
        <path id="Tracé_6020" data-name="Tracé 6020" d="M78.217,78.142H77.56a.076.076,0,1,1,0-.152h1.47a.073.073,0,0,1,.073.073.078.078,0,0,1-.073.078h-.661V80.1a.073.073,0,0,1-.073.073.078.078,0,0,1-.078-.073Z" transform="translate(-39.531 -39.789)" fill="#959494"/>
        <path id="Tracé_6021" data-name="Tracé 6021" d="M81.6,78.393a.073.073,0,0,1,.073-.073.078.078,0,0,1,.078.073v.073a.078.078,0,1,1-.152.039.074.074,0,0,1,0-.039Zm0,.49a.076.076,0,1,1,.152,0h0v1.386a.078.078,0,0,1-.078.073.073.073,0,0,1-.073-.073Z" transform="translate(-41.628 -39.957)" fill="#959494"/>
        <path id="Tracé_6022" data-name="Tracé 6022" d="M83.781,78.75a.078.078,0,0,1-.073.073h-.171V79.94a.122.122,0,0,0,.113.113.089.089,0,0,1,.078.078.083.083,0,0,1-.078.073.26.26,0,0,1-.269-.249V78.824h-.191c-.078,0-.078-.039-.078-.073s0-.078.078-.078h.191V78.1a.073.073,0,0,1,.073-.073.083.083,0,0,1,.083.073v.549h.2a.078.078,0,0,1,.049.1" transform="translate(-42.401 -39.809)" fill="#959494"/>
        <path id="Tracé_6023" data-name="Tracé 6023" d="M85.98,78.068a.078.078,0,1,1,.157,0V80.1a.078.078,0,0,1-.157,0Z" transform="translate(-43.865 -39.789)" fill="#959494"/>
        <path id="Tracé_6024" data-name="Tracé 6024" d="M87.6,80.109a.759.759,0,0,1,.745-.769.749.749,0,0,1,.74.715.073.073,0,0,1-.073.073H87.751a.6.6,0,0,0,.593.588.578.578,0,0,0,.49-.279.074.074,0,0,1,.1,0,.079.079,0,0,1,0,.1.735.735,0,0,1-.622.348.755.755,0,0,1-.715-.779m.162-.122h1.161a.588.588,0,0,0-1.161,0" transform="translate(-44.691 -40.478)" fill="#959494"/>
        <path id="Tracé_6025" data-name="Tracé 6025" d="M298.378,99.906l-.465.647a.049.049,0,0,1-.044.024.044.044,0,0,1-.044-.024l-.465-.647v1.2a.051.051,0,0,1-.1,0V99.754a.059.059,0,0,1,0-.039.054.054,0,0,1,.073,0l.519.72.514-.72a.054.054,0,0,1,.073,0v1.352a.049.049,0,0,1-.048.049h-.005a.044.044,0,0,1-.049-.039.036.036,0,0,1,0-.01Z" transform="translate(-151.652 -50.865)" fill="#959494"/>
        <path id="Tracé_6026" data-name="Tracé 6026" d="M301.514,100.659v.921a.049.049,0,0,1-.049.049.044.044,0,0,1-.049-.039.036.036,0,0,1,0-.01v-.132a.489.489,0,0,1-.387.2.509.509,0,1,1,0-1.019.489.489,0,0,1,.387.2v-.152a.044.044,0,0,1,.039-.049h.01a.049.049,0,0,1,.049.029m-.1.46a.387.387,0,1,0-.387.411.4.4,0,0,0,.387-.411" transform="translate(-153.319 -51.339)" fill="#959494"/>
        <path id="Tracé_6027" data-name="Tracé 6027" d="M303.347,101.532l.313-.426-.313-.431a.049.049,0,0,1,.01-.069.048.048,0,0,1,.059,0l.3.4.294-.4a.044.044,0,0,1,.062,0h0a.049.049,0,0,1,0,.069l-.313.431.313.426a.049.049,0,0,1,0,.069h-.064l-.294-.4-.3.4a.046.046,0,0,1-.039,0,.034.034,0,0,1-.029,0,.053.053,0,0,1,0-.069" transform="translate(-154.755 -51.32)" fill="#959494"/>
        <path id="Tracé_6028" data-name="Tracé 6028" d="M305.933,102.3a.1.1,0,1,1-.1.1.1.1,0,0,1,.1-.1" transform="translate(-156.028 -52.191)" fill="#959494"/>
        <path id="Tracé_6029" data-name="Tracé 6029" d="M307.949,101.067l.681-.617a.366.366,0,0,0,.127-.279.377.377,0,0,0-.377-.372.372.372,0,0,0-.255.1l-.069.064a.05.05,0,1,1-.073-.069l.069-.069a.488.488,0,0,1,.323-.122.46.46,0,0,1,.353.157.486.486,0,0,1-.029.676l-.588.529h.691a.049.049,0,1,1,0,.1h-.858a.054.054,0,0,1-.016-.074A.058.058,0,0,1,307.949,101.067Z" transform="translate(-157.095 -50.865)" fill="#959494"/>
        <path id="Tracé_6030" data-name="Tracé 6030" d="M310.525,101.07a.054.054,0,0,1,0-.073.059.059,0,0,1,.078,0,.392.392,0,0,0,.553-.553.4.4,0,0,0-.553,0,.044.044,0,0,1-.061.012.041.041,0,0,1-.012-.012l.069-.593a.038.038,0,0,1,.024-.034.034.034,0,0,1,.029,0h.681a.054.054,0,0,1,0,.108H310.7l-.049.431a.506.506,0,1,1-.122.715Z" transform="translate(-158.416 -50.923)" fill="#959494"/>
        <path id="Tracé_6031" data-name="Tracé 6031" d="M313.1,100.44a.9.9,0,0,1,.142-.49.455.455,0,0,1,.362-.22.49.49,0,0,1,.367.22.916.916,0,0,1,0,.98.46.46,0,0,1-.367.22.445.445,0,0,1-.362-.22.891.891,0,0,1-.142-.49m.1,0a.848.848,0,0,0,.122.456.358.358,0,0,0,.279.176.353.353,0,0,0,.279-.176.871.871,0,0,0,0-.906.328.328,0,0,0-.279-.176.334.334,0,0,0-.279.176A.844.844,0,0,0,313.2,100.44Z" transform="translate(-159.737 -50.88)" fill="#959494"/>
        <path id="Tracé_6032" data-name="Tracé 6032" d="M317.379,101.12a.524.524,0,0,1,.847-.377.044.044,0,0,1,.006.062l-.006.006a.049.049,0,0,1-.069,0,.447.447,0,0,0-.264-.088.411.411,0,0,0,0,.823.45.45,0,0,0,.269-.1.053.053,0,0,1,.069,0,.049.049,0,0,1,0,.069l0,0a.524.524,0,0,1-.323.108.49.49,0,0,1-.528-.449.5.5,0,0,1,0-.061" transform="translate(-161.92 -51.34)" fill="#959494"/>
        <path id="Tracé_6033" data-name="Tracé 6033" d="M320.745,100.536a.323.323,0,1,0-.647,0v.568a.049.049,0,0,1-.029.024.054.054,0,0,1-.039,0V99.747a.051.051,0,0,1,.1,0v.539a.432.432,0,0,1,.323-.147.406.406,0,0,1,.426.386s0,.01,0,.015v.568a.051.051,0,0,1-.1,0Z" transform="translate(-163.273 -50.863)" fill="#959494"/>
        <path id="Tracé_6034" data-name="Tracé 6034" d="M323.459,100.659v.921a.044.044,0,0,1-.039.049h-.01a.049.049,0,0,1-.049-.049v-.132a.49.49,0,0,1-.382.2.509.509,0,1,1,0-1.019.49.49,0,0,1,.382.2v-.152a.049.049,0,0,1,.049-.049.044.044,0,0,1,.049.029m-.1.46a.387.387,0,1,0-.382.411.4.4,0,0,0,.382-.411h0" transform="translate(-164.518 -51.339)" fill="#959494"/>
        <path id="Tracé_6035" data-name="Tracé 6035" d="M325.37,100.639a.049.049,0,0,1,.048-.049h.005a.045.045,0,0,1,.045.044v.231a.49.49,0,0,1,.411-.25.044.044,0,0,1,.049.039.036.036,0,0,1,0,.01.049.049,0,0,1-.044.054h0a.377.377,0,0,0-.3.167.9.9,0,0,0-.122.235v.446a.044.044,0,0,1-.039.048h-.005a.049.049,0,0,1-.054-.044v-.005Z" transform="translate(-165.992 -51.319)" fill="#959494"/>
        <path id="Tracé_6036" data-name="Tracé 6036" d="M327.864,100.659v.921a.051.051,0,0,1-.1,0v-.132a.49.49,0,0,1-.382.2.509.509,0,0,1,0-1.019.49.49,0,0,1,.382.2v-.152a.054.054,0,0,1,.059-.049A.053.053,0,0,1,327.864,100.659Zm-.1.46a.387.387,0,1,0-.382.411.4.4,0,0,0,.382-.411h0" transform="translate(-166.762 -51.339)" fill="#959494"/>
        <path id="Tracé_6037" data-name="Tracé 6037" d="M329.63,101.12a.514.514,0,0,1,.529-.49.49.49,0,0,1,.323.113.055.055,0,0,1,0,.069.049.049,0,0,1-.069,0,.449.449,0,0,0-.264-.088.411.411,0,0,0,0,.823.449.449,0,0,0,.264-.088.05.05,0,0,1,.069.073.488.488,0,0,1-.318.108.514.514,0,0,1-.533-.494c0-.008,0-.017,0-.025" transform="translate(-168.17 -51.339)" fill="#959494"/>
        <path id="Tracé_6038" data-name="Tracé 6038" d="M332.5,100.185a.059.059,0,0,1-.054.049h-.127v.74a.083.083,0,0,0,.073.078.049.049,0,1,1,0,.1h0a.172.172,0,0,1-.181-.161v-.76h-.127c-.049,0-.049-.024-.049-.049s0-.049.049-.049h.127v-.382a.054.054,0,0,1,.049-.049.059.059,0,0,1,.059.049v.382h.127a.059.059,0,0,1,.054.054" transform="translate(-169.395 -50.865)" fill="#959494"/>
        <path id="Tracé_6039" data-name="Tracé 6039" d="M333.6,101.12a.49.49,0,0,1,.98,0,.045.045,0,0,1-.044.045h-.843a.4.4,0,0,0,.4.392.392.392,0,0,0,.328-.186.049.049,0,0,1,.069,0,.053.053,0,0,1,0,.069.482.482,0,0,1-.887-.318Zm.108-.078h.774a.392.392,0,0,0-.774,0" transform="translate(-170.192 -51.339)" fill="#959494"/>
        <path id="Tracé_6040" data-name="Tracé 6040" d="M336.249,100.639a.044.044,0,0,1,.039-.049h.01a.049.049,0,0,1,.049.049v.225a.49.49,0,0,1,.411-.25.049.049,0,0,1,.049.049.054.054,0,0,1-.049.054.367.367,0,0,0-.3.167.9.9,0,0,0-.122.235v.446a.049.049,0,0,1-.049.049.044.044,0,0,1-.049-.039.036.036,0,0,1,0-.01Z" transform="translate(-171.542 -51.319)" fill="#959494"/>
        <path id="Tracé_6041" data-name="Tracé 6041" d="M337.967,101.408a.054.054,0,0,1,.073,0,.553.553,0,0,0,.313.118.288.288,0,0,0,.191-.064.146.146,0,0,0,.078-.122.152.152,0,0,0-.073-.127.492.492,0,0,0-.216-.073.49.49,0,0,1-.23-.078.215.215,0,0,1-.113-.181.261.261,0,0,1,.113-.2.422.422,0,0,1,.25-.069.549.549,0,0,1,.3.108.05.05,0,0,1-.069.073.421.421,0,0,0-.25-.1.325.325,0,0,0-.2.059.162.162,0,0,0-.064.118.132.132,0,0,0,.059.1.526.526,0,0,0,.211.069.679.679,0,0,1,.245.083.255.255,0,0,1,.118.211.264.264,0,0,1-.118.206.446.446,0,0,1-.255.078.618.618,0,0,1-.377-.142A.055.055,0,0,1,337.967,101.408Z" transform="translate(-172.417 -51.329)" fill="#959494"/>
        <rect id="Rectangle_4613" data-name="Rectangle 4613" width="128.544" height="5.016" transform="translate(37.912 42.57)" fill="#e6e6e6"/>
        <path id="Tracé_6042" data-name="Tracé 6042" d="M78.617,135.354a1.171,1.171,0,0,1,.71.24.078.078,0,0,1,0,.111l0,0a.068.068,0,0,1-.1.006l-.006-.006a1.044,1.044,0,1,0-.617,1.7.929.929,0,0,0,.607-.216.078.078,0,0,1,.111,0l0,0a.074.074,0,0,1,0,.1l0,0a1.171,1.171,0,0,1-.71.24,1.112,1.112,0,0,1,0-2.224h0Z" transform="translate(-39.48 -69.037)" fill="#959494"/>
        <path id="Tracé_6043" data-name="Tracé 6043" d="M83.768,136.868v1.386a.073.073,0,1,1-.147,0v-.235a.72.72,0,0,1-.578.3.769.769,0,0,1,0-1.533.715.715,0,0,1,.578.3v-.225a.073.073,0,1,1,.147,0Zm-.147.691a.578.578,0,1,0-.578.617.6.6,0,0,0,.588-.617h-.01Z" transform="translate(-42.006 -69.787)" fill="#959494"/>
        <path id="Tracé_6044" data-name="Tracé 6044" d="M86.966,136.2a.084.084,0,0,1-.078.078h-.2V137.4a.122.122,0,0,0,.113.113.078.078,0,1,1,.039.152.074.074,0,0,1-.039,0,.26.26,0,0,1-.269-.25v-1.131h-.191c-.073,0-.073-.039-.073-.078s0-.073.073-.073h.191v-.568a.078.078,0,1,1,.157,0v.568h.2a.083.083,0,0,1,.078.073" transform="translate(-44.013 -69.119)" fill="#959494"/>
        <path id="Tracé_6045" data-name="Tracé 6045" d="M88.67,137.689a.745.745,0,0,1,1.469-.054.073.073,0,0,1-.073.069H88.822a.6.6,0,0,0,.593.588.564.564,0,0,0,.49-.279.078.078,0,0,1,.1-.025.083.083,0,0,1,0,.108.735.735,0,0,1-.622.348.755.755,0,0,1-.715-.754m.162-.122h1.161a.588.588,0,0,0-1.161,0" transform="translate(-45.238 -69.912)" fill="#959494"/>
        <path id="Tracé_6046" data-name="Tracé 6046" d="M94.038,138.211a.72.72,0,0,1-.72.72.778.778,0,0,1-.318-.073.074.074,0,1,1,.069-.132.538.538,0,0,0,.25.054.568.568,0,0,0,.573-.563v-.191a.7.7,0,0,1-.573.3.764.764,0,0,1,0-1.523.7.7,0,0,1,.573.3v-.225a.078.078,0,0,1,.078-.073.073.073,0,0,1,.069.073Zm-.147-.651a.573.573,0,1,0-.573.573.573.573,0,0,0,.573-.573" transform="translate(-47.25 -69.793)" fill="#959494"/>
        <path id="Tracé_6047" data-name="Tracé 6047" d="M97.585,136.8a.769.769,0,1,1-.723.812c0-.016,0-.032,0-.048a.75.75,0,0,1,.725-.764m0,1.381a.617.617,0,1,0-.572-.66q0,.021,0,.043a.6.6,0,0,0,.573.617" transform="translate(-49.416 -69.791)" fill="#959494"/>
        <path id="Tracé_6048" data-name="Tracé 6048" d="M100.88,136.878a.073.073,0,1,1,.147,0v.338a.17.17,0,0,1,.024-.039.735.735,0,0,1,.612-.377.078.078,0,0,1,.073.078.073.073,0,0,1-.073.073.558.558,0,0,0-.446.25,1.469,1.469,0,0,0-.186.358v.676a.073.073,0,1,1-.147,0Z" transform="translate(-51.467 -69.793)" fill="#959494"/>
        <path id="Tracé_6049" data-name="Tracé 6049" d="M103.394,136.871a.076.076,0,0,1,.152,0v.833a.49.49,0,1,0,.98,0v-.833a.054.054,0,0,1,0-.039h.1a.042.042,0,0,1,0,.024.052.052,0,0,1,0,.034v1.337a.72.72,0,0,1-.72.72h-.01a.755.755,0,0,1-.313-.073.076.076,0,0,1,.064-.137.576.576,0,0,0,.833-.509v-.1a.646.646,0,0,1-.49.216.622.622,0,0,1-.622-.622Z" transform="translate(-52.737 -69.791)" fill="#959494"/>
        <path id="Tracé_6050" data-name="Tracé 6050" d="M298.377,157.383l-.465.647a.059.059,0,0,1-.044.024.054.054,0,0,1-.044-.024l-.465-.647v1.2a.051.051,0,0,1-.1,0v-1.337a.046.046,0,0,1,0-.039.059.059,0,0,1,.073,0l.519.72.514-.72a.059.059,0,0,1,.073,0,.073.073,0,0,1,0,.029v1.352a.054.054,0,0,1-.054.049.049.049,0,0,1-.049-.049Z" transform="translate(-151.651 -80.197)" fill="#959494"/>
        <path id="Tracé_6051" data-name="Tracé 6051" d="M301.531,158.119v.921a.054.054,0,0,1-.049.049.049.049,0,0,1-.049-.049v-.152a.493.493,0,1,1,.01-.6v-.147a.049.049,0,0,1,.044-.054h.005a.053.053,0,0,1,.039.029m-.1.46a.387.387,0,1,0-.179.371.387.387,0,0,0,.179-.371" transform="translate(-153.335 -80.654)" fill="#959494"/>
        <path id="Tracé_6052" data-name="Tracé 6052" d="M303.347,158.986l.313-.426-.313-.431a.059.059,0,0,1,0-.073.049.049,0,0,1,.069,0l.3.4.294-.4a.044.044,0,0,1,.062,0h0a.054.054,0,0,1,0,.073l-.313.431.313.426a.049.049,0,0,1,0,.069h-.064l-.294-.4-.3.4a.046.046,0,0,1-.039,0h-.029A.053.053,0,0,1,303.347,158.986Z" transform="translate(-154.755 -80.63)" fill="#959494"/>
        <path id="Tracé_6053" data-name="Tracé 6053" d="M305.928,159.7a.107.107,0,0,1,.1.108.105.105,0,0,1-.211,0,.108.108,0,0,1,.108-.108" transform="translate(-156.023 -81.476)" fill="#959494"/>
        <path id="Tracé_6054" data-name="Tracé 6054" d="M307.949,158.527l.681-.617a.372.372,0,0,0-.25-.651.392.392,0,0,0-.255.093l-.069.069a.054.054,0,0,1-.073,0,.049.049,0,0,1,0-.069l.069-.069a.488.488,0,0,1,.323-.122.46.46,0,0,1,.353.157.49.49,0,0,1-.029.671l-.588.529h.691a.051.051,0,1,1,0,.1h-.823a.038.038,0,0,1-.034,0,.054.054,0,0,1-.016-.074A.058.058,0,0,1,307.949,158.527Z" transform="translate(-157.095 -80.18)" fill="#959494"/>
        <path id="Tracé_6055" data-name="Tracé 6055" d="M310.525,158.534a.054.054,0,0,1,0-.073.059.059,0,0,1,.078,0,.4.4,0,0,0,.274.113.386.386,0,0,0,.274-.118.371.371,0,0,0,.118-.274.389.389,0,0,0-.666-.274.054.054,0,0,1-.073,0l.069-.588a.049.049,0,0,1,.024-.039h.71a.054.054,0,0,1,.054.054.049.049,0,0,1-.048.049H310.7l-.049.436a.5.5,0,1,1-.108.779Z" transform="translate(-158.416 -80.241)" fill="#959494"/>
        <path id="Tracé_6056" data-name="Tracé 6056" d="M313.1,157.9a.891.891,0,0,1,.142-.49.445.445,0,0,1,.362-.22.46.46,0,0,1,.367.22.979.979,0,0,1,0,1.019.46.46,0,0,1-.367.22.447.447,0,0,1-.362-.22.89.89,0,0,1-.142-.529m.1,0a.826.826,0,0,0,.122.451.347.347,0,0,0,.279.176.338.338,0,0,0,.279-.176.862.862,0,0,0,0-.9.328.328,0,0,0-.279-.176.334.334,0,0,0-.279.176.826.826,0,0,0-.122.451" transform="translate(-159.736 -80.195)" fill="#959494"/>
        <path id="Tracé_6057" data-name="Tracé 6057" d="M317.379,158.569a.49.49,0,0,1,.488-.491h.036a.527.527,0,0,1,.323.113.044.044,0,0,1,.006.062l-.006.006a.049.049,0,0,1-.069,0,.429.429,0,0,0-.264-.093.416.416,0,1,0-.09.828.4.4,0,0,0,.09,0,.428.428,0,0,0,.264-.093.053.053,0,0,1,.069,0,.049.049,0,0,1,0,.069l0,0a.524.524,0,0,1-.323.108.49.49,0,0,1-.524-.454A.5.5,0,0,1,317.379,158.569Z" transform="translate(-161.92 -80.648)" fill="#959494"/>
        <path id="Tracé_6058" data-name="Tracé 6058" d="M320.745,158.016a.323.323,0,0,0-.647,0v.568a.049.049,0,0,1-.029.025.054.054,0,0,1-.039,0v-1.362a.051.051,0,0,1,.1,0v.539a.417.417,0,0,1,.323-.152.406.406,0,0,1,.426.386c0,.007,0,.013,0,.02v.568a.051.051,0,0,1-.1,0Z" transform="translate(-163.273 -80.198)" fill="#959494"/>
        <path id="Tracé_6059" data-name="Tracé 6059" d="M323.458,158.094v.921a.049.049,0,0,1-.049.049.054.054,0,0,1-.049-.049v-.152a.49.49,0,0,1-.382.2.512.512,0,0,1,0-1.024.49.49,0,0,1,.382.2v-.147a.054.054,0,0,1,.049-.054.049.049,0,0,1,.049.049v.005m-.1.46a.387.387,0,1,0-.382.411.4.4,0,0,0,.382-.411h0" transform="translate(-164.516 -80.629)" fill="#959494"/>
        <path id="Tracé_6060" data-name="Tracé 6060" d="M325.37,158.1a.049.049,0,0,1,.048-.049h.005a.045.045,0,0,1,.045.044v.206a.49.49,0,0,1,.411-.25.049.049,0,0,1,0,.1.386.386,0,0,0-.3.167.918.918,0,0,0-.122.24v.465a.044.044,0,0,1-.039.048h-.005a.049.049,0,0,1-.054-.044v-.005Z" transform="translate(-165.992 -80.633)" fill="#959494"/>
        <path id="Tracé_6061" data-name="Tracé 6061" d="M327.861,158.094v.921a.051.051,0,0,1-.1,0v-.152a.49.49,0,0,1-.382.2.512.512,0,1,1,0-1.024h0a.49.49,0,0,1,.382.2v-.147a.051.051,0,0,1,.1,0Zm-.1.46a.387.387,0,1,0-.382.411.4.4,0,0,0,.382-.411h0" transform="translate(-166.759 -80.629)" fill="#959494"/>
        <path id="Tracé_6062" data-name="Tracé 6062" d="M329.63,158.57a.515.515,0,0,1,.529-.49.527.527,0,0,1,.323.113.055.055,0,0,1,0,.069.049.049,0,0,1-.069,0,.429.429,0,0,0-.264-.093.416.416,0,1,0-.09.828.4.4,0,0,0,.09,0,.428.428,0,0,0,.264-.093.05.05,0,0,1,.069.073.488.488,0,0,1-.318.108.519.519,0,0,1-.534-.5Z" transform="translate(-168.17 -80.649)" fill="#959494"/>
        <path id="Tracé_6063" data-name="Tracé 6063" d="M332.5,157.665a.059.059,0,0,1-.054.049h-.127v.745a.078.078,0,0,0,.073.073.063.063,0,0,1,.054.054.059.059,0,0,1-.054.049.172.172,0,0,1-.181-.161v-.735h-.127c-.049,0-.049,0-.049-.049s0-.054.049-.054h.127v-.387a.054.054,0,0,1,.049-.049.059.059,0,0,1,.059.049v.377h.127a.059.059,0,0,1,.054.039" transform="translate(-169.395 -80.2)" fill="#959494"/>
        <path id="Tracé_6064" data-name="Tracé 6064" d="M333.6,158.559a.49.49,0,0,1,.98-.039.044.044,0,0,1-.039.049h-.848a.4.4,0,0,0,.4.392.392.392,0,0,0,.328-.186.053.053,0,0,1,.069,0,.059.059,0,0,1,0,.073.481.481,0,0,1-.887-.289Zm.108-.078h.774a.392.392,0,0,0-.382-.333.4.4,0,0,0-.392.333" transform="translate(-170.195 -80.633)" fill="#959494"/>
        <path id="Tracé_6065" data-name="Tracé 6065" d="M336.249,158.1a.044.044,0,0,1,.039-.049h.01a.049.049,0,0,1,.049.049v.2a.49.49,0,0,1,.411-.25.049.049,0,1,1,0,.1h0a.382.382,0,0,0-.3.167.919.919,0,0,0-.122.24v.465a.049.049,0,0,1-.049.049.044.044,0,0,1-.049-.039.036.036,0,0,1,0-.01Z" transform="translate(-171.542 -80.633)" fill="#959494"/>
        <path id="Tracé_6066" data-name="Tracé 6066" d="M337.967,158.863a.054.054,0,0,1,.073,0,.526.526,0,0,0,.313.122.288.288,0,0,0,.191-.064.147.147,0,0,0,.078-.127.151.151,0,0,0-.073-.122.54.54,0,0,0-.216-.078.577.577,0,0,1-.23-.078.225.225,0,0,1-.113-.186.264.264,0,0,1,.113-.2.455.455,0,0,1,.25-.069.548.548,0,0,1,.3.113.049.049,0,1,1-.059.078l-.01-.01a.45.45,0,0,0-.25-.1.323.323,0,0,0-.2.054.166.166,0,0,0-.064.118.123.123,0,0,0,.059.1.457.457,0,0,0,.211.073.679.679,0,0,1,.245.083.24.24,0,0,1,0,.411.419.419,0,0,1-.255.083.6.6,0,0,1-.377-.147A.049.049,0,0,1,337.967,158.863Z" transform="translate(-172.417 -80.639)" fill="#959494"/>
        <rect id="Rectangle_4614" data-name="Rectangle 4614" width="128.544" height="5.016" transform="translate(37.912 70.715)" fill="#e6e6e6"/>
        <path id="Tracé_6067" data-name="Tracé 6067" d="M77.908,166.354h0a.073.073,0,0,1-.069-.078h0v-2.057a.078.078,0,0,1,.073-.078h.411a1.1,1.1,0,0,1,0,2.194Zm.407-.157a.94.94,0,1,0,0-1.881h-.336v1.861Z" transform="translate(-39.712 -83.741)" fill="#959494"/>
        <path id="Tracé_6068" data-name="Tracé 6068" d="M82.08,166.415a.745.745,0,0,1,1.469-.059.073.073,0,0,1-.073.069H82.217a.6.6,0,0,0,.593.588.578.578,0,0,0,.49-.279.069.069,0,0,1,.1,0h0a.083.083,0,0,1,.029.108.735.735,0,0,1-.622.348.759.759,0,0,1-.725-.774m.162-.122H83.4a.588.588,0,0,0-1.161,0" transform="translate(-41.875 -84.566)" fill="#959494"/>
        <path id="Tracé_6069" data-name="Tracé 6069" d="M85.964,166.744a.079.079,0,0,1,.108,0,.8.8,0,0,0,.49.176.49.49,0,0,0,.294-.093.235.235,0,0,0,.118-.186.259.259,0,0,0-.113-.191.763.763,0,0,0-.323-.113.884.884,0,0,1-.343-.122.313.313,0,0,1-.167-.274.372.372,0,0,1,.167-.3.631.631,0,0,1,.372-.1.862.862,0,0,1,.46.162.083.083,0,0,1,0,.108.078.078,0,0,1-.1.025.652.652,0,0,0-.377-.157.449.449,0,0,0-.289.088.225.225,0,0,0-.1.176.182.182,0,0,0,.088.152.7.7,0,0,0,.313.108,1.047,1.047,0,0,1,.372.127.366.366,0,0,1,.171.313.376.376,0,0,1-.176.309.616.616,0,0,1-.382.122.946.946,0,0,1-.563-.22.073.073,0,0,1-.024-.1Z" transform="translate(-43.849 -84.455)" fill="#959494"/>
        <path id="Tracé_6070" data-name="Tracé 6070" d="M89.12,166.294a.768.768,0,0,1,.773-.764h.015a.789.789,0,0,1,.49.167.068.068,0,0,1,.006.1l-.006.006a.079.079,0,0,1-.1,0,.618.618,0,1,0-.392,1.1.641.641,0,0,0,.392-.132.074.074,0,0,1,.1.108.784.784,0,0,1-1.269-.6Z" transform="translate(-45.467 -84.45)" fill="#959494"/>
        <path id="Tracé_6071" data-name="Tracé 6071" d="M92.965,165.608a.076.076,0,1,1,.152,0h0v.3a.75.75,0,0,1,.617-.377.078.078,0,0,1,.073.078.073.073,0,0,1-.073.073.558.558,0,0,0-.446.25,1.47,1.47,0,0,0-.186.358.052.052,0,0,0,0,.025v.671a.076.076,0,1,1-.152,0h0Z" transform="translate(-47.421 -84.45)" fill="#959494"/>
        <path id="Tracé_6072" data-name="Tracé 6072" d="M95.807,164.58a.076.076,0,1,1,.152,0h0v.069a.078.078,0,1,1-.152.039.074.074,0,0,1,0-.039Zm0,.49a.076.076,0,0,1,.152,0v1.381a.076.076,0,1,1-.152,0h0Z" transform="translate(-48.878 -83.927)" fill="#959494"/>
        <path id="Tracé_6073" data-name="Tracé 6073" d="M97.6,166.319V165.6a.073.073,0,0,1,.073-.073.078.078,0,0,1,.078.073v.22a.73.73,0,0,1,.583-.294.764.764,0,0,1,0,1.523.725.725,0,0,1-.583-.3v.877a.076.076,0,1,1-.152,0h0Zm.152-.029a.588.588,0,0,0,1.171.107.56.56,0,0,0,0-.107.588.588,0,0,0-1.169-.129.618.618,0,0,0,0,.1Z" transform="translate(-49.794 -84.45)" fill="#959494"/>
        <path id="Tracé_6074" data-name="Tracé 6074" d="M102.186,164.925a.078.078,0,0,1-.078.073h-.2v1.117a.117.117,0,0,0,.113.113.089.089,0,0,1,.078.078.083.083,0,0,1-.078.078.265.265,0,0,1-.269-.26V165h-.191c-.073,0-.073-.034-.073-.073s0-.073.073-.073h.191v-.573a.078.078,0,0,1,.157,0v.573h.2a.078.078,0,0,1,.078.073" transform="translate(-51.778 -83.771)" fill="#959494"/>
        <path id="Tracé_6075" data-name="Tracé 6075" d="M104.377,164.58a.076.076,0,1,1,.152,0h0v.069a.078.078,0,1,1-.152.039.074.074,0,0,1,0-.039Zm0,.49a.076.076,0,0,1,.152,0v1.381a.076.076,0,1,1-.152,0h0Z" transform="translate(-53.25 -83.927)" fill="#959494"/>
        <path id="Tracé_6076" data-name="Tracé 6076" d="M106.745,165.529a.769.769,0,1,1-.723.812c0-.016,0-.032,0-.048a.75.75,0,0,1,.725-.764m0,1.381a.617.617,0,1,0-.572-.66q0,.021,0,.043a.6.6,0,0,0,.573.617" transform="translate(-54.089 -84.449)" fill="#959494"/>
        <path id="Tracé_6077" data-name="Tracé 6077" d="M111.273,166.156a.49.49,0,1,0-.98,0V167a.046.046,0,0,1,0,.034.063.063,0,0,1-.054.029.107.107,0,0,1-.049-.044v-1.406a.079.079,0,0,1,.078-.078.073.073,0,0,1,.069.078h0v.147a.622.622,0,0,1,1.1.4v.833a.076.076,0,1,1-.152,0h0Z" transform="translate(-56.217 -84.454)" fill="#959494"/>
        <path id="Tracé_6078" data-name="Tracé 6078" d="M297.867,218.523l-.465.651a.071.071,0,0,1-.044.024.054.054,0,0,1-.044-.024l-.465-.647v1.2a.051.051,0,0,1-.1,0v-1.352a.046.046,0,0,1,0-.039.059.059,0,0,1,.073,0l.519.72.514-.72a.059.059,0,0,1,.073,0v1.381a.049.049,0,1,1-.1,0Z" transform="translate(-151.391 -111.384)" fill="#959494"/>
        <path id="Tracé_6079" data-name="Tracé 6079" d="M301,219.244v.921a.054.054,0,0,1-.049.049.049.049,0,0,1-.049-.049v-.152a.489.489,0,0,1-.387.2.512.512,0,0,1,0-1.024h0a.49.49,0,0,1,.387.2v-.147a.049.049,0,0,1,.044-.053h0a.054.054,0,0,1,.049.054m-.1.46a.387.387,0,1,0-.341.428.383.383,0,0,0,.162-.057.388.388,0,0,0,.179-.371" transform="translate(-153.055 -111.826)" fill="#959494"/>
        <path id="Tracé_6080" data-name="Tracé 6080" d="M302.837,220.146l.313-.431-.313-.426a.059.059,0,0,1,0-.073.049.049,0,0,1,.069,0l.294.4.294-.4a.049.049,0,0,1,.069,0,.054.054,0,0,1,0,.073l-.313.426.313.431a.049.049,0,0,1,0,.069h-.024a.053.053,0,0,1-.044,0l-.294-.4-.294.4a.042.042,0,0,1-.039,0h-.029a.053.053,0,0,1,0-.069" transform="translate(-154.494 -111.832)" fill="#959494"/>
        <path id="Tracé_6081" data-name="Tracé 6081" d="M305.411,220.86a.108.108,0,0,1,.108.108.106.106,0,1,1-.108-.108" transform="translate(-155.761 -112.678)" fill="#959494"/>
        <path id="Tracé_6082" data-name="Tracé 6082" d="M307.505,219.663a.054.054,0,0,1,0-.073.044.044,0,0,1,.061-.012.042.042,0,0,1,.012.012.4.4,0,0,0,.274.113.392.392,0,0,0,.279-.118.386.386,0,0,0,.113-.274.407.407,0,0,0-.113-.279.392.392,0,0,0-.553,0,.054.054,0,0,1-.073,0v-.029l.073-.588a.043.043,0,0,1,0-.039h.715a.051.051,0,0,1,0,.1h-.637l-.054.436a.506.506,0,1,1-.1.745Z" transform="translate(-156.875 -111.413)" fill="#959494"/>
        <path id="Tracé_6083" data-name="Tracé 6083" d="M310.079,219.059a.934.934,0,0,1,.137-.49.411.411,0,0,1,.73,0,.979.979,0,0,1,0,1.019.411.411,0,0,1-.73,0,.931.931,0,0,1-.137-.529m.1,0a.789.789,0,0,0,.127.451.338.338,0,0,0,.279.176.353.353,0,0,0,.279-.176.826.826,0,0,0,.122-.451.848.848,0,0,0-.122-.456.348.348,0,0,0-.279-.171.333.333,0,0,0-.279.171.81.81,0,0,0-.127.456" transform="translate(-158.195 -111.397)" fill="#959494"/>
        <path id="Tracé_6084" data-name="Tracé 6084" d="M313.1,219.06a.891.891,0,0,1,.142-.49.445.445,0,0,1,.362-.22.46.46,0,0,1,.367.22.979.979,0,0,1,0,1.019.46.46,0,0,1-.367.22.445.445,0,0,1-.362-.22.89.89,0,0,1-.142-.529m.1,0a.826.826,0,0,0,.122.451.347.347,0,0,0,.279.176.338.338,0,0,0,.279-.176.785.785,0,0,0,.127-.451.81.81,0,0,0-.127-.456.333.333,0,0,0-.279-.171.342.342,0,0,0-.279.171.848.848,0,0,0-.122.456" transform="translate(-159.736 -111.398)" fill="#959494"/>
        <path id="Tracé_6085" data-name="Tracé 6085" d="M317.379,219.729a.49.49,0,0,1,.488-.491h.036a.527.527,0,0,1,.323.113.044.044,0,0,1,.006.062l-.006.006a.053.053,0,0,1-.069,0,.428.428,0,0,0-.264-.093.416.416,0,1,0-.09.828.4.4,0,0,0,.09,0,.428.428,0,0,0,.264-.093.053.053,0,0,1,.069,0,.049.049,0,0,1,0,.069l0,0a.56.56,0,0,1-.323.108.49.49,0,0,1-.524-.454A.5.5,0,0,1,317.379,219.729Z" transform="translate(-161.92 -111.851)" fill="#959494"/>
        <path id="Tracé_6086" data-name="Tracé 6086" d="M320.745,219.161a.323.323,0,1,0-.647,0v.573a.044.044,0,0,1-.029.029.054.054,0,0,1-.039,0v-1.376a.051.051,0,0,1,.1,0v.539a.417.417,0,0,1,.323-.152.406.406,0,0,1,.426.386s0,.01,0,.015v.573a.051.051,0,0,1-.1,0Z" transform="translate(-163.273 -111.391)" fill="#959494"/>
        <path id="Tracé_6087" data-name="Tracé 6087" d="M323.458,219.244v.921a.049.049,0,0,1-.049.049.054.054,0,0,1-.049-.049v-.152a.49.49,0,0,1-.382.2.512.512,0,0,1,0-1.024.49.49,0,0,1,.382.2v-.147a.054.054,0,0,1,.049-.054.049.049,0,0,1,.049.048v.005m-.1.46a.387.387,0,1,0-.382.411.4.4,0,0,0,.382-.382Z" transform="translate(-164.516 -111.826)" fill="#959494"/>
        <path id="Tracé_6088" data-name="Tracé 6088" d="M325.37,219.249a.049.049,0,0,1,.048-.049h.005a.045.045,0,0,1,.045.044v.206a.49.49,0,0,1,.411-.25.044.044,0,0,1,.049.039.036.036,0,0,1,0,.01.049.049,0,0,1-.049.049.377.377,0,0,0-.3.167.918.918,0,0,0-.122.24v.451a.044.044,0,0,1-.039.048h-.005a.049.049,0,0,1-.054-.044v-.005Z" transform="translate(-165.992 -111.831)" fill="#959494"/>
        <path id="Tracé_6089" data-name="Tracé 6089" d="M327.861,219.244v.921a.051.051,0,0,1-.1,0v-.152a.49.49,0,0,1-.382.2.512.512,0,1,1,0-1.024h0a.49.49,0,0,1,.382.2v-.147a.051.051,0,0,1,.1,0Zm-.1.46a.387.387,0,1,0-.382.411.4.4,0,0,0,.382-.382Z" transform="translate(-166.759 -111.826)" fill="#959494"/>
        <path id="Tracé_6090" data-name="Tracé 6090" d="M329.63,219.73a.515.515,0,0,1,.529-.49.527.527,0,0,1,.323.113.049.049,0,0,1-.01.069.049.049,0,0,1-.059,0,.429.429,0,0,0-.264-.093.416.416,0,1,0-.09.828.4.4,0,0,0,.09,0,.429.429,0,0,0,.264-.093.05.05,0,0,1,.069.073.53.53,0,0,1-.318.108.519.519,0,0,1-.534-.5Z" transform="translate(-168.17 -111.852)" fill="#959494"/>
        <path id="Tracé_6091" data-name="Tracé 6091" d="M332.5,218.8a.059.059,0,0,1-.054.049h-.127v.745a.078.078,0,0,0,.073.073.063.063,0,0,1,.054.054.059.059,0,0,1-.054.049.172.172,0,0,1-.181-.161v-.76h-.127c-.049,0-.049-.024-.049-.049s0-.054.049-.054h.127v-.377a.054.054,0,0,1,.049-.049.059.059,0,0,1,.059.049v.377h.127a.059.059,0,0,1,.054.054" transform="translate(-169.395 -111.382)" fill="#959494"/>
        <path id="Tracé_6092" data-name="Tracé 6092" d="M333.6,219.769a.49.49,0,0,1,.98-.039c0,.029,0,.044-.049.044h-.838a.407.407,0,0,0,.4.4.392.392,0,0,0,.328-.186.053.053,0,0,1,.069,0,.059.059,0,0,1,0,.073.481.481,0,0,1-.887-.289Zm.108-.083h.774a.392.392,0,0,0-.382-.328.4.4,0,0,0-.392.3Z" transform="translate(-170.195 -111.862)" fill="#959494"/>
        <path id="Tracé_6093" data-name="Tracé 6093" d="M336.249,219.249a.044.044,0,0,1,.039-.049h.01a.049.049,0,0,1,.049.049v.2a.49.49,0,0,1,.411-.25.049.049,0,0,1,.049.049.054.054,0,0,1-.049.049.367.367,0,0,0-.3.167.919.919,0,0,0-.122.24v.451a.049.049,0,0,1-.049.049.044.044,0,0,1-.049-.039.036.036,0,0,1,0-.01Z" transform="translate(-171.542 -111.831)" fill="#959494"/>
        <path id="Tracé_6094" data-name="Tracé 6094" d="M337.967,220.023a.049.049,0,0,1,.069,0l0,0a.526.526,0,0,0,.313.122.319.319,0,0,0,.191-.064.147.147,0,0,0,.078-.127c0-.049,0-.078-.073-.122a.54.54,0,0,0-.216-.078.665.665,0,0,1-.23-.078.225.225,0,0,1-.113-.186.264.264,0,0,1,.113-.2.455.455,0,0,1,.25-.069.548.548,0,0,1,.3.113.049.049,0,0,1-.059.078l-.01-.01a.457.457,0,0,0-.25-.1.325.325,0,0,0-.2.059.166.166,0,0,0-.064.118.123.123,0,0,0,.059.1.516.516,0,0,0,.211.073.679.679,0,0,1,.245.083.24.24,0,0,1,0,.411.419.419,0,0,1-.255.083.6.6,0,0,1-.377-.147.049.049,0,0,1,0-.059" transform="translate(-172.417 -111.841)" fill="#959494"/>
        <rect id="Rectangle_4615" data-name="Rectangle 4615" width="128.544" height="20.901" transform="translate(37.912 84.788)" fill="#e6e6e6"/>
        <path id="Tracé_6095" data-name="Tracé 6095" d="M78.867,108.361h-.98l-.2.519a.066.066,0,1,1-.118-.052h0l.759-2.033a.084.084,0,0,1,.073-.044.089.089,0,0,1,.078.044l.759,2.033a.083.083,0,0,1-.044.1.088.088,0,0,1-.073-.049Zm-.94-.152h.887l-.441-1.176Z" transform="translate(-39.574 -54.462)" fill="#959494"/>
        <path id="Tracé_6096" data-name="Tracé 6096" d="M81.71,108.14a.076.076,0,1,1,.152,0h0v.833a.478.478,0,1,0,.955,0h0v-.833a.076.076,0,1,1,.152,0h0v.833a.627.627,0,1,1-1.254,0v0Z" transform="translate(-41.687 -55.132)" fill="#959494"/>
        <path id="Tracé_6097" data-name="Tracé 6097" d="M86.061,107.47a.078.078,0,0,1-.073.078h-.2v1.117a.122.122,0,0,0,.113.113.078.078,0,1,1,.039.152.074.074,0,0,1-.039,0,.26.26,0,0,1-.269-.25v-1.131h-.191c-.073,0-.073-.039-.073-.078s0-.073.073-.073h.191v-.568a.078.078,0,0,1,.157,0v.568h.2a.078.078,0,0,1,.073.073" transform="translate(-43.554 -54.462)" fill="#959494"/>
        <path id="Tracé_6098" data-name="Tracé 6098" d="M89.26,108.014a.49.49,0,0,0-.98,0v.891a.1.1,0,0,1-.049.039h-.024a.087.087,0,0,1-.059-.024.042.042,0,0,1,0-.024v-2.043a.073.073,0,0,1,.073-.073.078.078,0,0,1,.078.073v.808a.641.641,0,0,1,.49-.225.607.607,0,0,1,.641.572c0,.01,0,.02,0,.03v.857a.078.078,0,0,1-.078.073.073.073,0,0,1-.073-.073Z" transform="translate(-44.97 -54.477)" fill="#959494"/>
        <path id="Tracé_6099" data-name="Tracé 6099" d="M92.62,108.069a.769.769,0,1,1-.729.807c0-.013,0-.025,0-.038a.754.754,0,0,1,.73-.769m0,1.381a.617.617,0,1,0-.617-.617.617.617,0,0,0,.617.617" transform="translate(-46.88 -55.134)" fill="#959494"/>
        <path id="Tracé_6100" data-name="Tracé 6100" d="M95.895,108.151a.076.076,0,0,1,.152,0v.338a.131.131,0,0,1,0-.039.739.739,0,0,1,.612-.372.073.073,0,1,1,0,.147.558.558,0,0,0-.446.25,1.4,1.4,0,0,0-.181.358.068.068,0,0,0,0,.024v.676a.076.076,0,0,1-.152,0Z" transform="translate(-48.916 -55.138)" fill="#959494"/>
        <rect id="Rectangle_4616" data-name="Rectangle 4616" width="75.78" height="5.016" transform="translate(37.912 56.643)" fill="#e6e6e6"/>
        <path id="Tracé_6101" data-name="Tracé 6101" d="M245.709,108.917h0a.073.073,0,0,1-.069-.073V106.8a.078.078,0,0,1,.078-.073h.407a1.1,1.1,0,1,1,.146,2.189,1.045,1.045,0,0,1-.146,0Zm.4-.152a.945.945,0,0,0,.136-1.886.9.9,0,0,0-.136,0h-.3v1.886Z" transform="translate(-125.32 -54.449)" fill="#959494"/>
        <path id="Tracé_6102" data-name="Tracé 6102" d="M250.7,108.141v1.386a.073.073,0,0,1-.073.073.078.078,0,0,1-.078-.073v-.23a.71.71,0,0,1-.573.3.769.769,0,0,1,0-1.533.7.7,0,0,1,.573.3v-.225a.076.076,0,0,1,.152,0m-.152.7a.578.578,0,1,0-.573.612.6.6,0,0,0,.573-.612" transform="translate(-127.17 -55.133)" fill="#959494"/>
        <path id="Tracé_6103" data-name="Tracé 6103" d="M253.891,107.47a.078.078,0,0,1-.073.078h-.2v1.117a.122.122,0,0,0,.113.113.078.078,0,1,1,.039.152.074.074,0,0,1-.039,0,.26.26,0,0,1-.269-.25v-1.131h-.191c-.073,0-.073-.039-.073-.078s0-.073.073-.073h.191v-.568a.083.083,0,0,1,.073-.078.088.088,0,0,1,.083.078v.568h.2A.078.078,0,0,1,253.891,107.47Z" transform="translate(-129.177 -54.462)" fill="#959494"/>
        <path id="Tracé_6104" data-name="Tracé 6104" d="M255.6,108.959a.745.745,0,0,1,1.469-.054.068.068,0,0,1-.069.069h-1.264a.6.6,0,0,0,.593.588.573.573,0,0,0,.49-.274.074.074,0,0,1,.1-.029.088.088,0,0,1,.029.108.735.735,0,0,1-.622.348.754.754,0,0,1-.725-.754m.162-.122h1.161a.588.588,0,0,0-1.161,0" transform="translate(-130.402 -55.255)" fill="#959494"/>
        <rect id="Rectangle_4617" data-name="Rectangle 4617" width="46.793" height="5.016" transform="translate(120.124 56.643)" fill="#e6e6e6"/>
        <path id="Tracé_6105" data-name="Tracé 6105" d="M245.61,51.883a.078.078,0,0,1,.078-.073h1.127a.076.076,0,0,1,0,.152h-1.024v.867h.916a.078.078,0,0,1,0,.157h-.916v.862h1.048a.076.076,0,0,1,0,.152H245.7a.073.073,0,0,1-.069-.073Z" transform="translate(-125.305 -26.432)" fill="#959494"/>
        <path id="Tracé_6106" data-name="Tracé 6106" d="M250.443,53.777a.49.49,0,1,0-.98,0v.842a.038.038,0,0,1,0,.034.063.063,0,0,1-.054.029.069.069,0,0,1-.049-.039v-1.42a.078.078,0,0,1,.078-.073.073.073,0,0,1,.069.073v.147a.637.637,0,0,1,.49-.22.622.622,0,0,1,.622.622V54.6a.076.076,0,0,1-.152,0Z" transform="translate(-127.218 -27.116)" fill="#959494"/>
        <path id="Tracé_6107" data-name="Tracé 6107" d="M253.605,52.55a.083.083,0,0,1-.078.078h-.2v1.117a.122.122,0,0,0,.113.113.083.083,0,0,1,.078.078.079.079,0,0,1-.071.086.086.086,0,0,1-.027,0,.26.26,0,0,1-.269-.25V52.628h-.191c-.073,0-.073-.039-.073-.078s0-.073.073-.073h.191v-.568a.078.078,0,0,1,.157,0v.568h.2a.083.083,0,0,1,.1.067Z" transform="translate(-129.019 -26.443)" fill="#959494"/>
        <path id="Tracé_6108" data-name="Tracé 6108" d="M255.345,53.221a.076.076,0,0,1,.152,0v.338a.262.262,0,0,1,0-.039.749.749,0,0,1,.617-.372.073.073,0,1,1,0,.147.549.549,0,0,0-.446.255,1.558,1.558,0,0,0-.186.353.074.074,0,0,0,0,.029V54.6a.076.076,0,0,1-.152,0Z" transform="translate(-130.264 -27.114)" fill="#959494"/>
        <path id="Tracé_6109" data-name="Tracé 6109" d="M257.91,53.223a.073.073,0,0,1,.069-.073.078.078,0,0,1,.078.073v.833a.49.49,0,0,0,.945,0v-.833a.054.054,0,0,1,0-.039.038.038,0,0,1,.029,0h.069v.024a.1.1,0,0,1,0,.034V54.58a.72.72,0,0,1-.666.7.736.736,0,0,1-.313-.069.083.083,0,0,1-.034-.1.088.088,0,0,1,.1-.039.536.536,0,0,0,.25.064.574.574,0,0,0,.578-.568v-.1a.617.617,0,0,1-1.092-.407Z" transform="translate(-131.58 -27.116)" fill="#959494"/>
        <path id="Tracé_6110" data-name="Tracé 6110" d="M264.307,51.962h-.656a.076.076,0,1,1,0-.152h1.47a.073.073,0,0,1,.073.073.078.078,0,0,1-.073.078h-.661v1.959a.073.073,0,0,1-.073.073.078.078,0,0,1-.078-.073Z" transform="translate(-134.47 -26.432)" fill="#959494"/>
        <path id="Tracé_6111" data-name="Tracé 6111" d="M267.049,53.223a.073.073,0,0,1,.069-.073.083.083,0,0,1,.083.073v.833a.478.478,0,0,0,.955,0v-.833a.054.054,0,0,1,0-.039.038.038,0,0,1,.029,0h.069v.024a.046.046,0,0,1,0,.034V54.58a.72.72,0,0,1-.72.72h-.01a.736.736,0,0,1-.313-.069.078.078,0,0,1,.064-.142.536.536,0,0,0,.25.064.573.573,0,0,0,.578-.568v-.1a.617.617,0,0,1-1.092-.407Z" transform="translate(-136.223 -27.116)" fill="#959494"/>
        <path id="Tracé_6112" data-name="Tracé 6112" d="M271.11,53.944v-.72a.073.073,0,0,1,.073-.073.078.078,0,0,1,.078.073v.225a.725.725,0,0,1,.583-.3.764.764,0,0,1,0,1.523.725.725,0,0,1-.583-.3v.877a.078.078,0,0,1-.078.073.073.073,0,0,1-.073-.073Zm.152-.034a.583.583,0,1,0,.583-.607.6.6,0,0,0-.583.583Z" transform="translate(-138.315 -27.116)" fill="#959494"/>
        <path id="Tracé_6113" data-name="Tracé 6113" d="M275.04,54.039a.745.745,0,0,1,1.469-.054.068.068,0,0,1-.069.069h-1.264a.6.6,0,0,0,.593.593.578.578,0,0,0,.49-.279.074.074,0,0,1,.1,0,.079.079,0,0,1,.025.1.735.735,0,0,1-.622.348.754.754,0,0,1-.725-.779m.162-.122h1.161a.588.588,0,0,0-1.161,0" transform="translate(-140.319 -27.236)" fill="#959494"/>
        <rect id="Rectangle_4618" data-name="Rectangle 4618" width="46.793" height="5.016" transform="translate(120.124 29.742)" fill="#e6e6e6"/>
        <rect id="Rectangle_4619" data-name="Rectangle 4619" width="5.016" height="5.016" transform="translate(161.905 29.742)" fill="#bcbbbb"/>
        <path id="Tracé_6114" data-name="Tracé 6114" d="M333.47,66.2h2.141l-1.063.872Z" transform="translate(-170.13 -33.774)" fill="#e6e6e6"/>
        <path id="Tracé_6115" data-name="Tracé 6115" d="M335.61,64.567H333.47l1.063-.867Z" transform="translate(-170.13 -32.499)" fill="#e6e6e6"/>
        <path id="Tracé_6116" data-name="Tracé 6116" d="M251.05,65.453a.069.069,0,0,1,.1,0h0a1.009,1.009,0,0,0,.656.279.925.925,0,0,0,.49-.147.49.49,0,0,0,.245-.318.289.289,0,0,0-.122-.294,1.262,1.262,0,0,0-.49-.176,1.131,1.131,0,0,1-.49-.181.367.367,0,0,1-.152-.377.618.618,0,0,1,.294-.4.977.977,0,0,1,.544-.157,1.008,1.008,0,0,1,.627.25c.029,0,.029.059,0,.093a.084.084,0,0,1-.1,0,.808.808,0,0,0-1.009-.1.459.459,0,0,0-.22.294.255.255,0,0,0,.108.265,1.143,1.143,0,0,0,.436.162,1.27,1.27,0,0,1,.49.2.406.406,0,0,1,.167.407.686.686,0,0,1-.323.431,1.1,1.1,0,0,1-.583.171,1.128,1.128,0,0,1-.735-.313.064.064,0,0,1,.039-.081.063.063,0,0,1,.034,0" transform="translate(-128.041 -32.488)" fill="#959494"/>
        <path id="Tracé_6117" data-name="Tracé 6117" d="M255.31,65.779a.916.916,0,0,1,.867-.749.612.612,0,0,1,.451.186.633.633,0,0,1,.176.451v.083a.083.083,0,0,1-.073.059h-1.264a.3.3,0,0,0,0,.093.49.49,0,0,0,.49.49.719.719,0,0,0,.554-.284.079.079,0,0,1,.108,0,.068.068,0,0,1,.006.1l-.006.006a.877.877,0,0,1-.671.338.628.628,0,0,1-.451-.181.652.652,0,0,1-.171-.456.75.75,0,0,1-.015-.132m.186-.108h1.156a.49.49,0,0,0-.49-.49.774.774,0,0,0-.666.47Z" transform="translate(-130.254 -33.177)" fill="#959494"/>
        <path id="Tracé_6118" data-name="Tracé 6118" d="M259.979,63.777l-.358,2.038a.073.073,0,0,1-.078.064.078.078,0,0,1-.064-.088l.362-2.038a.073.073,0,0,1,.081-.065h.007a.078.078,0,0,1,.049.088" transform="translate(-132.381 -32.492)" fill="#959494"/>
        <path id="Tracé_6119" data-name="Tracé 6119" d="M261.084,65.779a.906.906,0,0,1,.862-.749.612.612,0,0,1,.451.186.633.633,0,0,1,.176.451.474.474,0,0,1,0,.083.074.074,0,0,1-.069.059h-1.278a.592.592,0,0,0,0,.093.49.49,0,0,0,.49.49.739.739,0,0,0,.558-.284.074.074,0,0,1,.1,0,.068.068,0,0,1,.006.1l-.006.006a.867.867,0,0,1-.671.338.628.628,0,0,1-.451-.181.652.652,0,0,1-.176-.456.749.749,0,0,1,0-.132m.181-.108h1.161a.49.49,0,0,0-.49-.49.774.774,0,0,0-.671.47Z" transform="translate(-133.197 -33.177)" fill="#959494"/>
        <path id="Tracé_6120" data-name="Tracé 6120" d="M264.88,65.784a.935.935,0,0,1,.9-.754.734.734,0,0,1,.49.167.083.083,0,0,1,0,.108.074.074,0,0,1-.1,0,.548.548,0,0,0-.367-.132.793.793,0,0,0-.754.632.4.4,0,0,0,0,.1.49.49,0,0,0,.489.491h.035a.75.75,0,0,0,.421-.142.079.079,0,0,1,.1,0,.074.074,0,0,1,0,.1.953.953,0,0,1-.49.162.7.7,0,0,1-.49-.181.645.645,0,0,1-.191-.49A.572.572,0,0,1,264.88,65.784Z" transform="translate(-135.136 -33.177)" fill="#959494"/>
        <path id="Tracé_6121" data-name="Tracé 6121" d="M269.538,64.4a.073.073,0,0,1-.073.073h-.421l-.2,1.122a.078.078,0,0,0,.073.083h.01a.076.076,0,1,1,0,.152h0a.235.235,0,0,1-.235-.235v-.044l.2-1.1h-.2a.076.076,0,1,1,0-.152h.231l.1-.6a.077.077,0,0,1,.152.024l-.1.573h.4a.079.079,0,0,1,.071.085l0,.013" transform="translate(-137.041 -32.467)" fill="#959494"/>
        <rect id="Rectangle_4620" data-name="Rectangle 4620" width="20.857" height="6.897" transform="translate(145.599 115.132)" fill="#338338"/>
        <path id="Tracé_6122" data-name="Tracé 6122" d="M308.28,240.677a1.146,1.146,0,0,1,1.146-1.127,1.2,1.2,0,0,1,.725.245.18.18,0,1,1-.22.284.778.778,0,0,0-.49-.171.833.833,0,0,0-.563.225.77.77,0,0,0-.23.544.749.749,0,0,0,.23.544.833.833,0,0,0,.563.225.785.785,0,0,0,.49-.171.191.191,0,0,1,.25.034.181.181,0,0,1-.029.25,1.165,1.165,0,0,1-.725.245,1.141,1.141,0,0,1-1.146-1.127" transform="translate(-157.278 -122.214)" fill="#fff"/>
        <path id="Tracé_6123" data-name="Tracé 6123" d="M314.295,241.106a.166.166,0,0,1-.167.162.28.28,0,0,0-.186.064.489.489,0,0,0-.147.147,1,1,0,0,0-.127.264v.593a.171.171,0,0,1-.338,0v-1.229a.171.171,0,0,1,.338,0,.444.444,0,0,1,.069-.064.7.7,0,0,1,.392-.122.166.166,0,0,1,.168.166.141.141,0,0,1,0,.021" transform="translate(-159.855 -122.912)" fill="#fff"/>
        <path id="Tracé_6124" data-name="Tracé 6124" d="M315.59,241.739a.779.779,0,0,1,.764-.779.745.745,0,0,1,.754.725v.044a.152.152,0,0,1-.162.122h-.98a.484.484,0,0,0,.735.269.171.171,0,0,1,.235,0,.142.142,0,0,1,0,.2.794.794,0,0,1-1.327-.578Zm.343-.152h.887a.52.52,0,0,0-.465-.333.441.441,0,0,0-.421.333" transform="translate(-161.008 -122.933)" fill="#fff"/>
        <path id="Tracé_6125" data-name="Tracé 6125" d="M320.859,241.744v.612a.166.166,0,0,1-.162.167.171.171,0,0,1-.167-.132.716.716,0,0,1-.416.132.729.729,0,0,1-.529-.225.8.8,0,0,1-.216-.553.768.768,0,0,1,.216-.549.706.706,0,0,1,.529-.235.721.721,0,0,1,.416.137.171.171,0,0,1,.167-.137.166.166,0,0,1,.162.167Zm-.328,0a.488.488,0,0,0-.122-.323.387.387,0,0,0-.294-.127.377.377,0,0,0-.289.127.5.5,0,0,0,0,.647.391.391,0,0,0,.289.122.4.4,0,0,0,.294-.122.488.488,0,0,0,.122-.323" transform="translate(-162.936 -122.933)" fill="#fff"/>
        <path id="Tracé_6126" data-name="Tracé 6126" d="M324.207,240.468a.176.176,0,0,1-.176.171h-.078v.872a.172.172,0,0,1,.171.171v0a.166.166,0,0,1-.162.171h-.01a.348.348,0,0,1-.348-.348v-.872h-.088a.176.176,0,0,1-.176-.171.172.172,0,0,1,.171-.171h.093v-.456a.172.172,0,0,1,.171-.171h0a.166.166,0,0,1,.171.162v.465h.078a.176.176,0,0,1,.176.171" transform="translate(-164.961 -122.275)" fill="#fff"/>
        <path id="Tracé_6127" data-name="Tracé 6127" d="M325.75,241.739a.769.769,0,0,1,.759-.779h0a.749.749,0,0,1,.754.725v.029a.147.147,0,0,1-.162.122h-.98a.424.424,0,0,0,.1.211.493.493,0,0,0,.612.059.171.171,0,0,1,.235,0,.142.142,0,0,1,0,.2.794.794,0,0,1-1.327-.568m.338-.152h.887a.52.52,0,0,0-.46-.333.446.446,0,0,0-.426.333" transform="translate(-166.191 -122.933)" fill="#fff"/>
        <rect id="Rectangle_4621" data-name="Rectangle 4621" width="20.857" height="6.897" transform="translate(120.079 115.132)" fill="#e6e6e6"/>
        <path id="Tracé_6128" data-name="Tracé 6128" d="M256.18,240.677a1.151,1.151,0,0,1,1.146-1.127,1.177,1.177,0,0,1,.725.245.18.18,0,0,1-.22.284.778.778,0,0,0-.49-.171.833.833,0,0,0-.563.225.782.782,0,0,0-.225.544.765.765,0,0,0,.225.544.833.833,0,0,0,.563.225.778.778,0,0,0,.49-.171.191.191,0,0,1,.25.034.181.181,0,0,1-.029.25,1.161,1.161,0,0,1-1.871-.882Z" transform="translate(-130.698 -122.213)" fill="#959494"/>
        <path id="Tracé_6129" data-name="Tracé 6129" d="M262.429,241.741v.612a.166.166,0,0,1-.328.034.715.715,0,0,1-.416.132.745.745,0,0,1-.534-.225.819.819,0,0,1-.211-.554.79.79,0,0,1,.211-.549.715.715,0,0,1,.95-.1.165.165,0,0,1,.328.029Zm-.333,0a.444.444,0,0,0-.122-.323.4.4,0,0,0-.561-.022l-.022.022a.5.5,0,0,0,0,.647.406.406,0,0,0,.575.008l.008-.008a.491.491,0,0,0,.1-.323Z" transform="translate(-133.126 -122.93)" fill="#959494"/>
        <path id="Tracé_6130" data-name="Tracé 6130" d="M266.438,241.616v.745a.162.162,0,0,1-.157.167h0a.166.166,0,0,1-.167-.167v-.745a.323.323,0,0,0-.323-.318.313.313,0,0,0-.313.313v.749a.1.1,0,0,1,0,.034.171.171,0,0,1-.167.132.166.166,0,0,1-.167-.167v-1.234a.168.168,0,0,1,.318-.073.634.634,0,0,1,.333-.093A.651.651,0,0,1,266.438,241.616Z" transform="translate(-135.269 -122.933)" fill="#959494"/>
        <path id="Tracé_6131" data-name="Tracé 6131" d="M268.82,241.744a.793.793,0,0,1,.8-.784.818.818,0,0,1,.49.171.167.167,0,0,1-.156.294.156.156,0,0,1-.045-.035.49.49,0,0,0-.294-.1.451.451,0,1,0-.094.9.431.431,0,0,0,.094,0,.49.49,0,0,0,.294-.1.172.172,0,0,1,.235.034.167.167,0,0,1-.034.23.845.845,0,0,1-.49.167A.793.793,0,0,1,268.82,241.744Z" transform="translate(-137.146 -122.933)" fill="#959494"/>
        <path id="Tracé_6132" data-name="Tracé 6132" d="M272.38,241.739a.774.774,0,0,1,.764-.779.749.749,0,0,1,.754.725v.029a.147.147,0,0,1-.162.122h-.98a.4.4,0,0,0,.108.211.5.5,0,0,0,.622.059.171.171,0,0,1,.235,0,.137.137,0,0,1,.007.194l-.007.007a.789.789,0,0,1-1.323-.578Zm.343-.152h.887a.525.525,0,0,0-.49-.333.44.44,0,0,0-.4.333" transform="translate(-138.963 -122.933)" fill="#959494"/>
        <path id="Tracé_6133" data-name="Tracé 6133" d="M276.711,239.68a.176.176,0,0,1,.176.171V241.7a.176.176,0,0,1-.348,0v-1.847a.172.172,0,0,1,.171-.171" transform="translate(-141.085 -122.28)" fill="#959494"/>
      </g>
    </g>
    <text id="Create_a_request" data-name="Create a request" transform="translate(37.621 29.172)" fill="#338338" font-size="4" font-family="Montserrat-ThinItalic, Montserrat" font-weight="200" font-style="italic"><tspan x="0" y="0">C</tspan><tspan y="0" letter-spacing="-0.009em">r</tspan><tspan y="0">ea</tspan><tspan y="0" letter-spacing="-0.018em">t</tspan><tspan y="0">e a </tspan><tspan y="0" letter-spacing="-0.01em">r</tspan><tspan y="0">equest</tspan></text>
    <g id="Groupe_1453" data-name="Groupe 1453">
      <g id="Groupe_1452" data-name="Groupe 1452" clip-path="url(#clip-path)">
        <path id="Tracé_6134" data-name="Tracé 6134" d="M205.705,407.485l-25.711.118-25.716.044-51.426.083-51.426-.083-25.711-.039L0,407.485l25.716-.122,25.711-.039,51.426-.083,51.426.083,25.716.044Z" transform="translate(0 -207.766)" fill="#1c262b"/>
        <path id="Tracé_6135" data-name="Tracé 6135" d="M21.351,296.357l84.024.358c20.421-16.037,22.532-39.793,7.96-54.194-8.817-8.714-20.014-6.955-30.677-8.327h-.029a31.572,31.572,0,0,1-10.815-3.174c-10.977-5.79-17.144-19.451-26.4-30.947q-1.729-2.16-3.62-4.193c-7.592-8.107-22.713-8.371-30.619,3.032C-8.915,227.885.284,270.989,21.351,296.357" transform="translate(0 -96.956)" fill="#338338"/>
        <g id="Groupe_1448" data-name="Groupe 1448" transform="translate(19.356 101.052)" opacity="0.1" style="mix-blend-mode: normal;isolation: isolate">
          <g id="Groupe_1447" data-name="Groupe 1447">
            <g id="Groupe_1446" data-name="Groupe 1446" clip-path="url(#clip-path-4)">
              <path id="Tracé_6136" data-name="Tracé 6136" d="M39.645,238.365c2.2,34.474,42.012,47.341,66.875,37.016,21.621-8.983,14.543-29.477-3.7-32.906h-.029A31.572,31.572,0,0,1,91.973,239.3c-10.977-5.79-17.144-19.451-26.4-30.947-13.759-7.151-27.543,4.771-25.926,30.011" transform="translate(-39.515 -206.304)" fill="#040405"/>
            </g>
          </g>
        </g>
        <path id="Tracé_6137" data-name="Tracé 6137" d="M161.483,360.805c-1.3-.49-30.579-23.879-31.133-25.471-.211-.607,2.939-5.07,6.916-10.355.862-1.141,1.754-2.312,2.665-3.5,5.917-7.71,12.378-15.753,12.378-15.753l19.632,15.6-12.917,15.322-2.831,3.365s7.2,13.975,7.622,15.792-1.038,5.476-2.332,5" transform="translate(-66.497 -155.977)" fill="#e57f6d"/>
        <path id="Tracé_6138" data-name="Tracé 6138" d="M161.478,383.83c-1.293-.49-30.575-23.874-31.128-25.471-.171-.49,1.886-3.541,4.8-7.5,4.261,5.089,19.1,20.239,23.159,22.267,2.572,1.288,2.062-1.239,1.1-3.757,1.959,3.953,4.178,8.479,4.408,9.458.407,1.812-1.034,5.476-2.336,5" transform="translate(-66.497 -179.002)" fill="#1c262b"/>
        <path id="Tracé_6139" data-name="Tracé 6139" d="M162.464,257.709c-1.342,10.2-26.48,39.646-29.389,43.021l-.661.769-20.778-15.963.235-.309,18.314-23.977S99.879,278.918,84.744,270.9a42.888,42.888,0,0,1-11.844-10l19.769-10.536s5.471,1.768,8.969,1.259c12.054-1.768,39.063-12.02,45.47-11.756,8.268.328,16.59,8.5,15.356,17.844" transform="translate(-37.192 -122.372)" fill="#1c262b"/>
        <path id="Tracé_6140" data-name="Tracé 6140" d="M134.918,267.629a26.858,26.858,0,0,0-5.8-2.322l.093-.127c3.512,1.087,7.244,2.415,9.483,5.506a6.509,6.509,0,0,1,1.264,5.094,3.291,3.291,0,0,1-3.737,2.532c-4.653-.519-5.466-6.328-9.1-8.425a4.5,4.5,0,0,0-1.146-.49l.093-.122a5.94,5.94,0,0,1,2.052,1.107c1.744,1.425,2.689,3.5,4.066,5.236s3.537,3.154,5.746,2.336c2.449-.9,2.263-4.07,1.337-6.015a10.285,10.285,0,0,0-4.35-4.31m-4.193,26.387a4.091,4.091,0,0,0-.715,4.144l.216.162a4.242,4.242,0,0,1-.191-.612c-.627-2.479.98-4.384,3.326-4.932,2.224-.519,4.482.039,6.73-.167a6.631,6.631,0,0,0,2.3-.593l.211-.26c-2.092,1.18-4.629.627-6.9.627-1.734,0-3.742.289-4.977,1.631m-9.8-17.991c1.009,3.355,4.286,5.971,7.48,7.053a12.642,12.642,0,0,0,6.039.49c2.449-.387,5.089-1.381,7.519-.46s3.35,3.919,2.581,6.231l.225-.289a5.821,5.821,0,0,0-.024-2.973,4.535,4.535,0,0,0-2.743-3.11c-2.194-.833-4.6-.1-6.809.318a13.04,13.04,0,0,1-6.936-.407,12.4,12.4,0,0,1-5.52-3.879,9.485,9.485,0,0,1-1.69-3.135Zm-3.105,12.77.113.088a12.494,12.494,0,0,1,.607-1.5c.774-1.558,2.351-2.748,4.154-2.1,2.023.715,3.257,3.135,3.311,5.168a14.265,14.265,0,0,1-.627,4.154l.122.093a17.817,17.817,0,0,0,.656-3.723,6.46,6.46,0,0,0-1.886-4.859,3.472,3.472,0,0,0-4.11-.774,5.287,5.287,0,0,0-2.229,3.11C117.9,288.559,117.858,288.677,117.823,288.794Zm37.8-45.255a4.8,4.8,0,0,1,1.4-.936l-.147-.1a2.429,2.429,0,0,0-.318.162,4.517,4.517,0,0,0-2.327,4.629c.279,2.263,1.651,4.276,1.469,6.617a3.193,3.193,0,0,1-1.616,2.758,3.521,3.521,0,0,1-3.429-.407c-2.121-1.469-2.562-4.575-2.611-6.941a16.162,16.162,0,0,1,.451-4.114c.279-1.151.735-2.258.931-3.429a5.343,5.343,0,0,0,0-1.852H149.3a8.5,8.5,0,0,1-.563,3.879,17.087,17.087,0,0,0-.71,7.323c.26,1.959.9,4.257,2.7,5.388a3.287,3.287,0,0,0,4.408-.529c1.038-1.406.759-3.5.25-5.079-.759-2.474-1.94-5.3.235-7.372m-.749,32.122c.078-.1.152-.211.22-.309.456-2.376.49-4.952,2.449-6.539a4.79,4.79,0,0,1,2.474-.98c.039-.064.083-.127.118-.2a5.387,5.387,0,0,0-2.092.666c-2.645,1.484-2.552,4.624-3.169,7.333Zm-9.605,1.675a5.733,5.733,0,0,0,6.422,2.733l.186-.255a4.977,4.977,0,0,1-3.13.088,5.471,5.471,0,0,1-3.919-4.227,8.193,8.193,0,0,1,1.563-6.4,13.339,13.339,0,0,1,5.692-4.124c3.757-1.563,8.327-1.749,11.545-4.408l.137-.367a9.791,9.791,0,0,1-2.209,1.5,42.707,42.707,0,0,1-7.083,2.253,18.946,18.946,0,0,0-5.878,2.758c-3.11,2.307-5.28,6.7-3.326,10.448M127.918,245.2l-.137.049a9.218,9.218,0,0,1,1.274,1.709c2.415,4.119,2.092,9.223,4.408,13.4a8.168,8.168,0,0,0,4.007,3.8,6.183,6.183,0,0,0,4.8-.073,4.34,4.34,0,0,0,2.449-4.012,7.867,7.867,0,0,0-2.224-5.079c-1.553-1.719-3.59-2.9-5.334-4.408a10.859,10.859,0,0,1-3.752-6.059c-.059-.309-.108-.617-.137-.931l-.132.039a9.938,9.938,0,0,0,1.068,3.576,13.918,13.918,0,0,0,4.33,4.673c1.852,1.416,3.83,2.777,5.011,4.835,1.112,1.959,1.553,4.57-.118,6.368a5.418,5.418,0,0,1-5.388,1.131,7.941,7.941,0,0,1-4.648-4.257c-2.15-4.193-1.842-9.282-4.369-13.3a8.607,8.607,0,0,0-1.107-1.469Zm-11.374,7.6a14.961,14.961,0,0,0,1.881,5.976,11.389,11.389,0,0,0,4.55,4.252,22.792,22.792,0,0,0,3.287,1.391l.186-.093a20.68,20.68,0,0,1-4.257-1.915,11.187,11.187,0,0,1-4.472-5.388,14.463,14.463,0,0,1-.779-8.538l-.147.044a13.338,13.338,0,0,0-.25,4.257Zm-11.163,19.2.152-.029c.627-1.959,1.807-3.7,3.987-4.154a5.569,5.569,0,0,1,5.045,1.538l.122-.044a5.6,5.6,0,0,0-2.136-1.386,5.492,5.492,0,0,0-4.957.607,6.5,6.5,0,0,0-2.214,3.453Zm-14.2.529a3.4,3.4,0,0,0,.4.078,3.31,3.31,0,0,1,.441,0,3.378,3.378,0,0,1,1.283.284c.127,0,.255.029.387.039a3.84,3.84,0,0,0-2.532-.416Zm14.94-15.914a7.051,7.051,0,0,0,1.1,4.9,2.193,2.193,0,0,0,3.566.24c1.362-1.582,1.533-4.2,1.416-6.177a24.8,24.8,0,0,0-1.068-5.476l-.152.039c.157.524.3,1.043.431,1.563a15.426,15.426,0,0,1,.24,7.9c-.328,1.176-.95,2.645-2.327,2.831a2.437,2.437,0,0,1-2.292-1.469c-1.107-1.9-.823-4.119-.617-6.206.118-1.21.269-2.449.343-3.644a1.087,1.087,0,0,1-.147.029c-.132,1.812-.4,3.63-.514,5.462Zm-12.133-3.032c.22,2.371-.093,4.727,0,7.093a6.373,6.373,0,0,0,2.336,5.177,3.375,3.375,0,0,0,4.565-.49c1.42-1.577,1.435-3.757,1-5.716-.578-2.64-1.469-5.226-2.243-7.813-.029-.1-.059-.206-.093-.309l-.171-.029c.034.127.073.25.108.372.392,1.327.774,2.65,1.166,3.972.725,2.449,1.959,5.417.98,7.979a3.952,3.952,0,0,1-2.41,2.449,3.468,3.468,0,0,1-3.3-.98c-1.959-1.842-1.847-4.688-1.734-7.156a27.477,27.477,0,0,0-.328-6.529c-.039-.216-.1-.451-.162-.686l-.142.073a18.311,18.311,0,0,1,.4,2.576ZM76.84,259.915c2.287,2.346,3.781,5.589,7.3,6.27a4.036,4.036,0,0,0,3.919-1.058c1.318-1.6.671-3.919-.054-5.613-.637-1.5-1.518-2.88-2.3-4.31l-.127.069c.191.367.4.735.6,1.087,1.2,2.121,2.983,4.849,2.371,7.411-.519,2.18-2.821,2.67-4.737,2.175-3.218-.818-4.683-3.86-6.823-6.1Z" transform="translate(-39.202 -122.407)" fill="#354952"/>
        <path id="Tracé_6141" data-name="Tracé 6141" d="M195.476,265.267a23.191,23.191,0,0,0-1.886,2.42c-.651.847-1.308,1.69-1.959,2.537.118-.25.23-.49.348-.745.407-.843.735-1.719,1.215-2.527a.044.044,0,1,0-.063-.062.041.041,0,0,0-.011.018c-.49.8-1.073,1.563-1.494,2.41-.2.4-.392.8-.568,1.2-.093.225-.2.451-.279.676a3.266,3.266,0,0,0-.122.328q-.436.588-.852,1.19c-.617.9-1.161,1.837-1.783,2.723-.034.049.039.093.073.049.632-.833,1.342-1.612,1.984-2.449s1.274-1.7,1.886-2.576,1.18-1.709,1.778-2.562a25.825,25.825,0,0,0,1.8-2.63.034.034,0,1,0-.069,0Z" transform="translate(-95.92 -135.317)" fill="#29373e"/>
        <path id="Tracé_6142" data-name="Tracé 6142" d="M160.442,325.577c1.141,1.058,2.371,2.038,3.576,3.027s2.425,1.959,3.644,2.939c2.449,1.959,4.869,3.919,7.347,5.848,1.357,1.053,2.723,2.1,4.134,3.076.064.044.132-.059.078-.108-2.312-2.1-4.776-4.026-7.22-5.976s-4.9-3.919-7.347-5.819c-1.352-1.048-2.7-2.126-4.114-3.091-.083-.029-.147.059-.1.1" transform="translate(-81.846 -166.047)" fill="#29373e"/>
        <path id="Tracé_6143" data-name="Tracé 6143" d="M103.351,188.742a1.421,1.421,0,0,1-.666,1.283,9.86,9.86,0,0,1-1.127.666c.059-1.425-.054-2.895-.137-4.3-.1-1.651-.3-3.262-.539-4.9h-.039c.127,1.651.2,3.311.284,4.967.073,1.445.039,2.914.122,4.359a9.672,9.672,0,0,1-1.225.49V189.8c0-1.523-.137-3.027-.216-4.546,0-.039-.054-.039-.049,0,.054,1.469,0,2.978,0,4.457,0,.573,0,1.141-.029,1.714-.284.1-.568.186-.847.274l-.558.157c0-.98-.083-2-.118-2.983-.064-1.582-.216-3.154-.3-4.737a.039.039,0,1,0-.078,0c.073,1.572.049,3.159.088,4.737.029,1.014,0,2.052.044,3.076a21.624,21.624,0,0,1-7.671.4,32.386,32.386,0,0,1-4.408-.833c-.348-.093-1.244-.353-2.121-.622,0-.49-.029-.98-.034-1.416,0-1.053-.073-2.116-.054-3.164,0-.034-.039-.034-.039,0-.054,1.053-.167,2.1-.191,3.164,0,.426,0,.867-.029,1.308-.313-.093-.617-.191-.882-.284.1-1.989,0-4.012-.034-6,0-.049-.059-.049-.064,0-.073,1.959-.265,3.919-.24,5.878a2.98,2.98,0,0,1-.583-.24c-.436-.362-.142-8.229-.118-10.066a50.354,50.354,0,0,1,1.411-11.756,10.031,10.031,0,0,1,5.52-6.52,9.512,9.512,0,0,1,4.183-.446,8.152,8.152,0,0,1,4.056,1.278,8.731,8.731,0,0,1,3.076,2.826,17.412,17.412,0,0,1,1.768,4.178c1.024,3.473,1.4,13,1.651,16.384.064.916.176,1.822.191,2.719" transform="translate(-41.516 -82.304)" fill="#1c262b"/>
        <path id="Tracé_6144" data-name="Tracé 6144" d="M89.748,212.624c5.03,9.527,13.093,20.411,15.674,21.836,3.272,1.8,21.141,1.043,22.042.906,2.185-.353,2.939-16.051.6-15.777-3.581.421-16.306,3.076-17.266,2.5s-8.067-5.878-15.518-11.966c-5.163-4.2-8.655-3.414-5.53,2.5" transform="translate(-45.184 -105.853)" fill="#e57f6d"/>
        <path id="Tracé_6145" data-name="Tracé 6145" d="M162.795,245.828a46.369,46.369,0,0,0,6.475,1.611c1.729.211,6.735.676,7.151-1.21.289-1.283-2.621-1.905-4.668-2.39-1.078-.255-2.5-1.107-2.307-1.807.338-1.22,3.125-.49,5,.211,3.62,1.381,8.587,4.119,10.335,2.111.656-.759-.416-1.768-1.9-2.689,2.322.98,4.741,1.69,5.51.877a1.127,1.127,0,0,0,0-1.543,1.5,1.5,0,0,0,1.582-.519c.563-.828.059-1.832-.867-2.792a.822.822,0,0,0,.553-.49c1.087-2.449-7.2-7.6-9.8-7.783a52.823,52.823,0,0,0-15.885,1.827c-2.523,2.743-1.19,14.587-1.18,14.587" transform="translate(-82.871 -117.001)" fill="#e57f6d"/>
        <path id="Tracé_6146" data-name="Tracé 6146" d="M183.026,245.53a12.676,12.676,0,0,1,5.231,1.092,35.579,35.579,0,0,1,5.354,3.37c.049.029,0,.1-.044.073-.862-.568-4.408-2.665-5.28-3.125a12.105,12.105,0,0,0-5.261-1.376s-.029-.034,0-.034" transform="translate(-93.37 -125.264)" fill="#1c262b"/>
        <path id="Tracé_6147" data-name="Tracé 6147" d="M184.8,238.68a30.491,30.491,0,0,1,6.049,1.048,20.334,20.334,0,0,1,5.711,3.394q1.592,1.2,3.14,2.449c.044.034,0,.113-.049.073q-2.7-2.057-5.53-3.958a16,16,0,0,0-5.76-2.449c-1.176-.24-2.371-.392-3.566-.539Z" transform="translate(-94.281 -121.77)" fill="#1c262b"/>
        <path id="Tracé_6148" data-name="Tracé 6148" d="M188.12,232.4a15.472,15.472,0,0,1,5.476.882,26.846,26.846,0,0,1,5.8,3.551c.98.749,1.915,1.528,2.851,2.322.034.029,0,.1-.059.064a63.85,63.85,0,0,0-6.676-4.751,12.68,12.68,0,0,0-3.556-1.563,23.034,23.034,0,0,0-3.84-.49Z" transform="translate(-95.975 -118.566)" fill="#1c262b"/>
        <path id="Tracé_6149" data-name="Tracé 6149" d="M96.707,225.864l5.648-12.363a87.72,87.72,0,0,0-8.6-5.951c-5.045-3.081-7.475-1.332-4.408,6.02A50.729,50.729,0,0,0,96.707,225.864Z" transform="translate(-44.894 -105.148)" fill="#354952"/>
        <path id="Tracé_6150" data-name="Tracé 6150" d="M108.426,219.505c-.524.867-.921,1.822-1.367,2.728s-.857,1.739-1.254,2.621q-1.239,2.743-2.366,5.53c0,.029.039.059.054.024.882-1.778,1.744-3.561,2.576-5.388.416-.9.808-1.8,1.2-2.709s.877-1.842,1.21-2.8c.01-.01-.039-.034-.054,0" transform="translate(-52.773 -111.98)" fill="#1c262b"/>
        <g id="Groupe_1451" data-name="Groupe 1451" transform="translate(43.104 101.074)" opacity="0.1" style="mix-blend-mode: normal;isolation: isolate">
          <g id="Groupe_1450" data-name="Groupe 1450">
            <g id="Groupe_1449" data-name="Groupe 1449" clip-path="url(#clip-path-5)">
              <path id="Tracé_6151" data-name="Tracé 6151" d="M89.362,213.7a50.729,50.729,0,0,0,7.347,12.294l4.717-10.335L89.18,206.35c-1.528.514-1.68,2.914.181,7.347" transform="translate(-88 -206.35)" fill="#040405"/>
            </g>
          </g>
        </g>
        <path id="Tracé_6152" data-name="Tracé 6152" d="M52.3,247.583c1.151.407,34.464-8.209,34.464-8.209l-3.571-11.584s2.033-3.634,1.239-7.21c-1.063-4.776-9.615-12.819-10.286-13.3a7.078,7.078,0,0,0-7.641-.8c-9.7,4.805-14.2,41.106-14.2,41.106" transform="translate(-26.682 -104.947)" fill="#354952"/>
        <path id="Tracé_6153" data-name="Tracé 6153" d="M93.725,248.113a29.746,29.746,0,0,1,4.32-.353c.72,0,1.43.044,2.15.093.358.029.71.044,1.068.054a4.531,4.531,0,0,0,1.122-.064c.029,0,.044.039,0,.049a7.476,7.476,0,0,1-1.034.24,8.025,8.025,0,0,1-1.029.059c-.725,0-1.469-.029-2.185-.034-1.469,0-2.939,0-4.408.078-.059,0-.069-.113,0-.122" transform="translate(-47.794 -126.402)" fill="#1c262b"/>
        <path id="Tracé_6154" data-name="Tracé 6154" d="M87.321,251.158a32.027,32.027,0,0,1,3.429-1.034c.578-.137,1.161-.24,1.754-.328l.847-.113c.313-.034.627-.029.94-.073.029,0,.044.044,0,.049-.294.049-.578.147-.867.211l-.867.191c-.583.132-1.161.269-1.744.392-1.166.25-2.322.49-3.478.8-.059.02-.073-.073-.015-.093" transform="translate(-44.53 -127.346)" fill="#1c262b"/>
        <path id="Tracé_6155" data-name="Tracé 6155" d="M61.587,211.745c-4.634,6.833-14.553,30.369-9.757,34s28.1-4.717,34.449-8.7c1.891-1.185-7.161-12.779-9.556-12.779-1.984,0-11.026,5.5-11.383,4.962-.4-.612.862-5.462,2.263-14.435,1.621-10.365-3.35-6.97-6.015-3.047" transform="translate(-25.791 -106.071)" fill="#e57f6d"/>
        <path id="Tracé_6156" data-name="Tracé 6156" d="M123.34,225.2c4.786-1.239,6.206-.823,9.684-4.017,2.287-2.1,4.6-1.538,3.512,1.5-1.778,4.962-7.617,7.862-9.929,8.283Z" transform="translate(-62.926 -112.205)" fill="#e57f6d"/>
        <path id="Tracé_6157" data-name="Tracé 6157" d="M98.08,236.285a50.356,50.356,0,0,1,10.081-5.5c3.429-1.264,11.217-3.179,19.676,3.732,2,1.641,3.7,5.388-.549,3.919-3.017-1.058-4.614-2.64-6.48-2.939,0,0,1.587,5.035-.132,6.985a47.486,47.486,0,0,1-4.864,4.761,9.744,9.744,0,0,1-.98-.828,8.589,8.589,0,0,1-5.486,1.744Z" transform="translate(-50.038 -117.112)" fill="#e57f6d"/>
        <path id="Tracé_6158" data-name="Tracé 6158" d="M125.74,230.7a28.641,28.641,0,0,1,8.224,4.511c2.939,2.572,7.94,8.327,6.02,10.472-1.406,1.582-3.5-.441-3.5-.441s1.563,2.807-.024,3.958c-1.44,1.053-2.973-.612-2.973-.612s.656,1.866-.931,2.611c-1.905.891-2.939-3.169-5.677-3.919-.607-.186-1.136-16.58-1.136-16.58" transform="translate(-64.15 -117.698)" fill="#e57f6d"/>
        <path id="Tracé_6159" data-name="Tracé 6159" d="M135.95,245.341a15.532,15.532,0,0,1,5.765,7.284c.025.078,0,.137-.054.073a38.582,38.582,0,0,0-5.736-7.347s-.02-.034.024-.01" transform="translate(-69.344 -125.163)" fill="#1c262b"/>
        <path id="Tracé_6160" data-name="Tracé 6160" d="M130.779,251.578A17.509,17.509,0,0,1,136.1,259.2c.024.078-.025.137-.059.069a41.058,41.058,0,0,0-5.29-7.656s.01-.039.029-.029" transform="translate(-66.706 -128.349)" fill="#1c262b"/>
        <path id="Tracé_6161" data-name="Tracé 6161" d="M144.423,241.4a13.142,13.142,0,0,1,4.208,1.714,22.509,22.509,0,0,0,2.19,1.058c.686.274,1.7.691,2.322.064a1.3,1.3,0,0,0,.142-1.327,6.37,6.37,0,0,0-1.078-1.7s0-.049.034-.029a9.106,9.106,0,0,1,1.136,1.494,2.145,2.145,0,0,1,.289,1.22c-.132.9-1.151,1.136-1.91.98a7.119,7.119,0,0,1-1.318-.456c-.407-.176-.808-.372-1.2-.578-.813-.421-1.6-.891-2.4-1.323a21.732,21.732,0,0,0-2.449-1.058c0-.01.01-.059.044-.054" transform="translate(-73.659 -123.04)" fill="#1c262b"/>
        <path id="Tracé_6162" data-name="Tracé 6162" d="M148.407,246.833a49.092,49.092,0,0,0-4-5.148c0-.025,0-.054.029-.039a26.274,26.274,0,0,1,4.3,4.854,8.646,8.646,0,0,1,1.371,3.223,1.848,1.848,0,0,1-1.264,2.229,2.156,2.156,0,0,1-1.435-.069,4.409,4.409,0,0,1-1.42-1.053s0-.054.029-.034a3.088,3.088,0,0,0,2.567.9,1.523,1.523,0,0,0,.98-.671,1.959,1.959,0,0,0,.108-1.367,9.091,9.091,0,0,0-1.264-2.821" transform="translate(-73.675 -123.281)" fill="#1c262b"/>
        <path id="Tracé_6163" data-name="Tracé 6163" d="M75.934,251.4a24.786,24.786,0,0,1-2.258,1.469,26.992,26.992,0,0,1-2.376,1.283,12.941,12.941,0,0,1,2.189-1.6,13.466,13.466,0,0,1,2.444-1.156" transform="translate(-36.376 -128.259)" fill="#1c262b"/>
        <path id="Tracé_6164" data-name="Tracé 6164" d="M57.28,223.951l13.568-1.024a87.408,87.408,0,0,0,1.063-10.4c.26-5.907-2.449-7.2-7.391-.95a50.656,50.656,0,0,0-7.24,12.373" transform="translate(-29.223 -105.841)" fill="#354952"/>
        <path id="Tracé_6165" data-name="Tracé 6165" d="M72.2,234.982c-1.014-.039-2.038.073-3.052.122s-1.93.088-2.895.167c-2,.157-3.992.353-5.986.6-.034,0-.034.064,0,.059q2.973-.123,5.946-.333c.98-.069,1.959-.162,2.939-.255s2.038-.122,3.037-.294c.044-.01.044-.064.01-.064" transform="translate(-30.732 -119.879)" fill="#1c262b"/>
        <path id="Tracé_6166" data-name="Tracé 6166" d="M84.012,231.642c.083-.49.147-.98.206-1.469a.952.952,0,0,1,.034-.309,17,17,0,0,0,.529-1.783s0-.029-.034,0a13.741,13.741,0,0,0-.441,1.357c.078-.754.147-1.509.157-2.268h-.039c-.181.98-.294,1.959-.441,2.939-.069.49-.362,2.821-.392,2.826s-1.127.122-1.2.152-.044.093,0,.093l1.4-.1s.147-1.029.216-1.435" transform="translate(-42.015 -115.897)" fill="#1c262b"/>
        <rect id="Rectangle_4625" data-name="Rectangle 4625" width="37.452" height="1.675" transform="translate(54.928 129.636)" fill="#bcbbbb"/>
        <path id="Tracé_6167" data-name="Tracé 6167" d="M165.2,264.66v1.68H142.74l1.283-1.68Z" transform="translate(-72.823 -135.024)" fill="#959494"/>
        <path id="Tracé_6168" data-name="Tracé 6168" d="M154.08,242.27h36.5l3.037-24.79h-36.5Z" transform="translate(-78.608 -110.954)" fill="#959494"/>
        <path id="Tracé_6169" data-name="Tracé 6169" d="M157.98,242.27h36.5l3.037-24.79h-36.5Z" transform="translate(-80.598 -110.954)" fill="#bcbbbb"/>
        <path id="Tracé_6170" data-name="Tracé 6170" d="M193.809,240.469a2.175,2.175,0,0,0,2.125,2.223h.054a2.273,2.273,0,0,0,2.263-2.224,2.175,2.175,0,0,0-2.13-2.218h-.054a2.268,2.268,0,0,0-2.258,2.219" transform="translate(-98.877 -121.55)" fill="#fff"/>
        <path id="Tracé_6171" data-name="Tracé 6171" d="M85.98,198.665c.029.612,2.16,4.932,4.869,5.285.887.113,1.719-4.683,1.719-4.683l.142-.338,1.989-4.761-5.907-5.388s-2.812,9.625-2.812,9.885" transform="translate(-43.865 -96.312)" fill="#e57f6d"/>
        <path id="Tracé_6172" data-name="Tracé 6172" d="M96.677,194.163l-1.994,4.761a10.358,10.358,0,0,1-4.874-6.857c.49-1.675.887-3.066.94-3.267a.074.074,0,0,0,0-.029l.759.642Z" transform="translate(-45.819 -96.307)" fill="#1c262b"/>
        <path id="Tracé_6173" data-name="Tracé 6173" d="M102.783,173.938c-.818,9.018-6.309,9.547-8.253,9.365-1.768-.162-7.754-.94-7.871-9.992s4.335-11.521,8.391-11.359,8.552,2.973,7.734,11.986" transform="translate(-44.21 -82.621)" fill="#e57f6d"/>
        <path id="Tracé_6174" data-name="Tracé 6174" d="M116.03,182.667a5.922,5.922,0,0,1-.583-.225.981.981,0,0,1-.549-.343.328.328,0,0,1,.059-.392.808.808,0,0,1,.808-.054,1.163,1.163,0,0,1,.661.524.343.343,0,0,1-.4.49" transform="translate(-58.598 -92.633)" fill="#1c262b"/>
        <path id="Tracé_6175" data-name="Tracé 6175" d="M104.183,182.294a4.464,4.464,0,0,0,.627-.029,1.014,1.014,0,0,0,.632-.152.314.314,0,0,0,.059-.387.793.793,0,0,0-.745-.313,1.181,1.181,0,0,0-.794.294.343.343,0,0,0,.22.588Z" transform="translate(-52.987 -92.549)" fill="#1c262b"/>
        <path id="Tracé_6176" data-name="Tracé 6176" d="M105.745,186.37s-.054,0-.054.049c-.069.612-.245,1.3-.823,1.43,0,0-.024.034,0,.034.686,0,.911-.921.877-1.514" transform="translate(-53.496 -95.082)" fill="#1c262b"/>
        <path id="Tracé_6177" data-name="Tracé 6177" d="M104.75,184.894c-.98-.211-1.318,1.749-.416,1.959s1.234-1.768.416-1.959" transform="translate(-52.961 -94.321)" fill="#1c262b"/>
        <path id="Tracé_6178" data-name="Tracé 6178" d="M103.71,184.71c-.191.083-.392.25-.6.23s-.387-.255-.49-.49h-.034c-.073.372,0,.784.392.911s.681-.171.842-.529c.01-.039-.029-.152-.108-.122" transform="translate(-52.323 -94.103)" fill="#1c262b"/>
        <path id="Tracé_6179" data-name="Tracé 6179" d="M113.865,187.35s.044.039.039.064c-.132.6-.186,1.318.328,1.616v.034c-.666-.22-.588-1.161-.367-1.714" transform="translate(-58.011 -95.582)" fill="#1c262b"/>
        <path id="Tracé_6180" data-name="Tracé 6180" d="M114.57,186.3c.98.108.7,2.077-.216,1.959s-.617-2.067.216-1.959" transform="translate(-58.055 -95.042)" fill="#1c262b"/>
        <path id="Tracé_6181" data-name="Tracé 6181" d="M116.052,186.636c.137.127.265.343.451.382s.4-.147.568-.328h.029c-.044.377-.225.749-.6.769s-.539-.338-.573-.725c0-.049.064-.147.122-.1" transform="translate(-59.145 -95.211)" fill="#1c262b"/>
        <path id="Tracé_6182" data-name="Tracé 6182" d="M104.4,196.793c.108.176.2.407.416.49a1.6,1.6,0,0,0,.681,0v.039a.824.824,0,0,1-.838.132.661.661,0,0,1-.338-.647.046.046,0,0,1,.058-.029.042.042,0,0,1,.021.014" transform="translate(-53.223 -100.391)" fill="#1c262b"/>
        <path id="Tracé_6183" data-name="Tracé 6183" d="M108.387,186.777s-.054.931-.137,1.357c0,.039-.113.039-.26,0a2.062,2.062,0,0,1-1.822-1.141.044.044,0,0,1,.073-.044,3.152,3.152,0,0,0,1.749.891c.054-.113.034-1.6.1-1.587a3.834,3.834,0,0,1,.926.407c.162-1.93,0-3.87.206-5.785,0-.069.108-.073.118,0a31.676,31.676,0,0,1,.044,6.245c-.029.255-.862-.235-1-.343" transform="translate(-54.164 -92.251)" fill="#1c262b"/>
        <path id="Tracé_6184" data-name="Tracé 6184" d="M86.046,173.619c1.469.358,2.273-3.022,2.273-3.022s3.007.49,4.717-3.659a6.755,6.755,0,0,1-1.925,3.36s5.447.642,8.415-3.429a12.015,12.015,0,0,1-2.234,2.782,6.308,6.308,0,0,0,3.713-1.886,13.1,13.1,0,0,0,1.1,3.546s1.318-9.307-7.45-9.757c0,0-5.452-.534-8.087,3.429s-.524,8.636-.524,8.636" transform="translate(-43.491 -82.41)" fill="#1c262b"/>
        <path id="Tracé_6185" data-name="Tracé 6185" d="M85.745,184.01s-1.469-3.13-2.836-2.66-.642,4.761.74,5.579a1.538,1.538,0,0,0,2.137-.408l.028-.043Z" transform="translate(-41.926 -92.496)" fill="#e57f6d"/>
        <path id="Tracé_6186" data-name="Tracé 6186" d="M84.154,183.9s-.034.024,0,.039a3.816,3.816,0,0,1,1.543,2.733.847.847,0,0,0-1.2-.451c-.029,0,0,.064,0,.064a.941.941,0,0,1,.98.49,4.655,4.655,0,0,1,.343.911c.029.1.206.083.191-.029v-.024c.245-1.308-.475-3.345-1.852-3.732" transform="translate(-42.926 -93.822)" fill="#1c262b"/>
        <path id="Tracé_6187" data-name="Tracé 6187" d="M291.49,352.985c-.49,1.3-24,30.5-25.574,31.05-.607.211-5.06-2.963-10.33-6.951-1.141-.862-2.312-1.758-3.492-2.674-7.69-5.942-15.713-12.427-15.713-12.427l15.674-19.593,15.282,12.966,3.355,2.846s14-7.161,15.816-7.573,5.461,1.063,4.981,2.356" transform="translate(-120.596 -174.68)" fill="#e57f6d"/>
        <path id="Tracé_6188" data-name="Tracé 6188" d="M313.519,361.5c-.49,1.293-23.977,30.5-25.578,31.05-.529.186-4-2.219-8.391-5.491,4.482-3.257,21.5-18.613,23.786-22.742,1.2-2.185-.553-2.165-2.7-1.562a79.842,79.842,0,0,1,7.886-3.6c1.817-.407,5.476,1.053,5,2.346" transform="translate(-142.621 -183.2)" fill="#1c262b"/>
        <path id="Tracé_6189" data-name="Tracé 6189" d="M173.835,307.391l-16.3,21.988-55-38.162-5.3-3.688s-1.5,1.009-3.762,2.258c-3.14,1.734-7.744,3.919-11.81,4.531-6.828,1.014-18.231.906-24-6.789-4.849-6.48-2.214-14.935-2.214-14.935l7.494-3.218S80.691,254.6,92.182,254.152c4.9-.2,11.986,3.5,18.569,7.347s63.084,45.891,63.084,45.891" transform="translate(-27.928 -129.659)" fill="#1c262b"/>
        <path id="Tracé_6190" data-name="Tracé 6190" d="M172.438,306.333q.132,1.469.255,2.9a4.523,4.523,0,0,0,.049.514l-.171.22c-.122-1.259-.23-2.523-.343-3.791a2.355,2.355,0,0,1,.211.157m-9.419-6.98-.191-.137a10.285,10.285,0,0,0,.3,1.915,28.636,28.636,0,0,0,2.728,6.26,61.864,61.864,0,0,1,3.375,7.088l.113-.142a48.756,48.756,0,0,0-2.5-5.447,46.722,46.722,0,0,1-3.306-6.99,10.89,10.89,0,0,1-.514-2.547m-6.946,24.873a6.206,6.206,0,0,1-1.651,3l.118.078a5.943,5.943,0,0,0,1.469-2.268c.73-2.043.436-4.291.142-6.368-.333-2.268-.98-4.947-.147-7.176a2.787,2.787,0,0,1,2.645-1.959,3.969,3.969,0,0,1,2.67,1.381c1.8,1.959,1.435,4.521.754,6.857-.6,2.067-1.43,4.1-1.293,6.294a7.559,7.559,0,0,0,.25,1.533l.118-.162c-1.063-4.031,2.214-7.871,1.621-11.961a5.1,5.1,0,0,0-2.831-3.781,2.875,2.875,0,0,0-3.862,1.273c-.02.039-.038.078-.056.119-.877,1.812-.519,4.09-.25,6.01.3,2.317.847,4.786.3,7.132M142.4,318.877l.157.108a9.547,9.547,0,0,1,.887-2.576,12.672,12.672,0,0,1,4.634-4.932c1.832-1.131,3.919-1.856,5.716-3.017a8.955,8.955,0,0,0,3.723-4.707,13.872,13.872,0,0,0,.784-6.186,8.141,8.141,0,0,0-.549-2.106c-.059-.054-.122-.1-.186-.147a9.756,9.756,0,0,1,.588,5.251,10.8,10.8,0,0,1-3.017,6.715c-1.665,1.514-3.83,2.317-5.8,3.336-3.3,1.7-6.142,4.585-6.931,8.263m-1.469-12.035a3.785,3.785,0,0,0,4.408.137c1.469-1.1,1.871-3.145,1.856-4.9,0-2.376-.789-5.055.49-7.235a5.8,5.8,0,0,1,4.335-2.611,6.423,6.423,0,0,1,1.371,0l-.216-.157a6.705,6.705,0,0,0-1.469.064,6.008,6.008,0,0,0-3.772,2.1c-1.337,1.685-1.185,3.919-1.019,5.941.176,2.116.343,4.707-1.3,6.338-1.719,1.724-4.222.842-5.706-.715-3.321-3.492-1.866-9.307,1.592-12.1,2.41-1.959,5.427-2.831,8.17-4.2l-.137-.1c-.392.2-.784.382-1.18.558-3.453,1.553-7.4,2.89-9.307,6.431-1.812,3.394-1.543,8.185,1.876,10.453Zm1.587-20.205a5.154,5.154,0,0,0,1.107-1.6l-.142-.1a4.85,4.85,0,0,1-.387.74,4.513,4.513,0,0,1-5.187,1.758,5.471,5.471,0,0,1-3.919-4.227,7.805,7.805,0,0,1,.607-4.766l-.1-.069a7.128,7.128,0,0,0-.088,6.495c1.455,2.748,5.7,4.066,8.1,1.763Zm-11.06,23.511c-.451.044-.906.108-1.357.167l.186.132h.093c2.449-.348,5.182-.49,6.857,1.719a5.691,5.691,0,0,1,1.131,3.919l.157.113a5.878,5.878,0,0,0-1.469-4.467c-1.435-1.6-3.576-1.783-5.6-1.562Zm.407-10.918c-2.106,1.254-4.688.686-7,.686-1.734,0-3.742.289-4.977,1.631a3.564,3.564,0,0,0-.73,1.18l.152.1a4.409,4.409,0,0,1,3.213-2.523c2.224-.519,4.482.039,6.73-.167a5.05,5.05,0,0,0,4.2-2.351,5.639,5.639,0,0,0,.456-4.188,4.535,4.535,0,0,0-2.743-3.11c-2.194-.833-4.6-.1-6.809.318a13.041,13.041,0,0,1-6.936-.407,12.4,12.4,0,0,1-5.52-3.879c-1.577-1.959-2.65-4.766-1.5-7.2a4.07,4.07,0,0,1,5.878-1.91c3.634,2.1,4.448,7.906,9.1,8.425a3.291,3.291,0,0,0,3.737-2.532,6.509,6.509,0,0,0-1.264-5.094c-2.381-3.3-6.466-4.58-10.169-5.721a26.1,26.1,0,0,1-6.333-2.576,11.187,11.187,0,0,1-4.472-5.388,15.624,15.624,0,0,1-1.136-5.746.583.583,0,0,0-.122-.064,13.332,13.332,0,0,0,.064,1.607,14.961,14.961,0,0,0,1.881,5.976,11.389,11.389,0,0,0,4.55,4.252c3.791,2.018,8.214,2.449,11.942,4.624a10.673,10.673,0,0,1,4.35,4.33c.921,1.881,1.1,5.119-1.337,6.015-2.209.818-4.408-.676-5.746-2.336s-2.322-3.811-4.066-5.236c-1.469-1.19-3.429-1.788-5.148-.774a5.09,5.09,0,0,0-2.346,4.663c.216,4.178,4.061,7.524,7.783,8.787a12.636,12.636,0,0,0,6.039.49c2.449-.387,5.089-1.381,7.519-.46,3.429,1.283,3.9,6.715.754,8.591Zm-24.227-4.5.122.088c.789-1.514,2.336-2.635,4.1-2,2.023.715,3.257,3.135,3.311,5.168a10.524,10.524,0,0,1-.127,1.886l.122.088a10.959,10.959,0,0,0,.157-1.469,6.46,6.46,0,0,0-1.886-4.859,3.472,3.472,0,0,0-4.11-.774,4.112,4.112,0,0,0-1.695,1.9ZM93.616,289.14c0,.372-.039.759-.069,1.136l.181-.093c.25-3.218-.024-6.539.681-9.659.534-2.351,1.7-4.668,4.271-5.2a5.623,5.623,0,0,1,5.878,2.621,7.446,7.446,0,0,1,.421,6.6,23.608,23.608,0,0,1-3.83,5.7l.1.069c2.527-3.2,5.545-6.794,4.021-11.134a6.019,6.019,0,0,0-3.581-3.752,5.492,5.492,0,0,0-4.937.642c-1.768,1.293-2.376,3.654-2.694,5.7a71.1,71.1,0,0,0-.446,7.386Zm-17.6,2.777a20.825,20.825,0,0,1,.157,3.14h.137c.113-3.679-1.318-7.465-.083-11.05.7-2.018,2.679-3.977,4.937-3.919s3.585,2.234,3.894,4.281c.49,3.262-1.391,6.657-1.166,9.875l.142-.034a7.543,7.543,0,0,1,0-1.288c.191-2.449,1.239-4.786,1.264-7.259A6.464,6.464,0,0,0,83.638,281a3.879,3.879,0,0,0-4.492-.578c-4.369,2.185-3.581,7.543-3.14,11.516Zm19.245-27.8a7.051,7.051,0,0,0,1.1,4.9,2.193,2.193,0,0,0,3.566.24c1.362-1.582,1.533-4.2,1.416-6.177A30.352,30.352,0,0,0,99.792,256l-.191-.069c.343,1.1.681,2.189.95,3.272a15.426,15.426,0,0,1,.24,7.9c-.328,1.176-.95,2.645-2.327,2.831a2.437,2.437,0,0,1-2.292-1.469c-1.107-1.9-.823-4.119-.617-6.206a36.915,36.915,0,0,0,.343-6.774,4.51,4.51,0,0,0-.083-.725l-.147-.029a14.778,14.778,0,0,1,.147,2.552c-.044,2.307-.421,4.585-.563,6.857Zm-12.133-3.032c.22,2.371-.093,4.727,0,7.093a6.373,6.373,0,0,0,2.336,5.177,3.375,3.375,0,0,0,4.565-.49c1.42-1.577,1.435-3.757,1-5.716-.578-2.64-1.469-5.226-2.243-7.813a34.306,34.306,0,0,1-1.083-4.031l-.122.039v.152a34.45,34.45,0,0,0,1.024,3.874c.392,1.327.774,2.65,1.166,3.972.725,2.449,1.959,5.417.98,7.979a3.952,3.952,0,0,1-2.41,2.449,3.468,3.468,0,0,1-3.3-.98c-1.959-1.842-1.847-4.688-1.734-7.156a27.476,27.476,0,0,0-.328-6.529,11.193,11.193,0,0,0-.519-1.8l-.1.049a16.792,16.792,0,0,1,.759,3.752ZM73.288,273.72a4.036,4.036,0,0,0,3.919-1.058c1.318-1.6.671-3.919-.054-5.613-.774-1.817-1.9-3.458-2.763-5.226a.8.8,0,0,0-.132.088c.333.681.7,1.337,1.073,1.984,1.2,2.121,2.983,4.849,2.371,7.411-.519,2.18-2.821,2.669-4.737,2.175-3.174-.808-4.639-3.777-6.735-6.005l-.118.088c2.209,2.332,3.718,5.486,7.176,6.157m-17.7,8.41a.472.472,0,0,0,0,.118,3.079,3.079,0,0,0,1.087-.294c1.817-.862,2.733-2.895,4.315-4.07a6.411,6.411,0,0,1,6.857-.759,4.9,4.9,0,0,1,2.381,5.809c-.705,1.959-2.449,3.311-3.919,4.727a10.452,10.452,0,0,0-2.939,4.673.492.492,0,0,0,.132.069,10.052,10.052,0,0,1,2.572-4.315c1.308-1.347,2.875-2.527,3.821-4.173a4.762,4.762,0,0,0,.054-4.9,5.559,5.559,0,0,0-4.55-2.723,7.347,7.347,0,0,0-5.388,2.194c-1.239,1.3-2.405,3.463-4.423,3.644" transform="translate(-28.357 -129.958)" fill="#354952"/>
        <path id="Tracé_6191" data-name="Tracé 6191" d="M124.327,310.3s-1.5,1.009-3.762,2.258c-4-4.781-12.456-13.47-12.735-13.779Z" transform="translate(-55.013 -152.431)" fill="#29373e"/>
        <path id="Tracé_6192" data-name="Tracé 6192" d="M72.643,275.156c-1.058.735-2.087,1.518-3.13,2.273s-2.092,1.445-3.071,2.253-1.959,1.71-2.875,2.6c-.451.431-.9.862-1.337,1.308a12.186,12.186,0,0,0-1.259,1.386c-.034.049.034.1.078.073a13.979,13.979,0,0,0,1.42-1.156c.49-.416.98-.842,1.469-1.259.95-.813,1.925-1.6,2.875-2.415s1.822-1.69,2.758-2.508,2.057-1.69,3.1-2.518c.015-.015,0-.049-.024-.034" transform="translate(-31.101 -140.377)" fill="#29373e"/>
        <path id="Tracé_6193" data-name="Tracé 6193" d="M272.166,358.273c-.98,1.2-1.891,2.493-2.8,3.757s-1.822,2.537-2.723,3.816c-1.8,2.557-3.62,5.1-5.388,7.68-.98,1.42-1.925,2.846-2.821,4.315-.039.064.069.127.113.073,1.959-2.449,3.728-5.016,5.525-7.573s3.6-5.124,5.359-7.7c.98-1.416,1.959-2.826,2.836-4.3a.06.06,0,1,0-.1-.069" transform="translate(-131.842 -182.771)" fill="#29373e"/>
        <path id="Tracé_6194" data-name="Tracé 6194" d="M175.1,345.559c-2.738-2.16-5.574-4.193-8.41-6.216s-5.648-4.031-8.508-5.981c-.823-.563-1.656-1.112-2.483-1.66s-1.69-1.058-2.5-1.631c-.049-.034-.088.044-.044.078.745.534,1.469,1.132,2.18,1.685s1.391,1.063,2.1,1.587c1.371,1.019,2.758,2.013,4.144,3.017,2.812,2.028,5.643,4.036,8.5,6,1.626,1.117,3.243,2.234,4.9,3.292.078.064.2-.093.127-.167" transform="translate(-78.129 -168.391)" fill="#29373e"/>
        <path id="Tracé_6195" data-name="Tracé 6195" d="M190.869,286.754c-2.527-2.1-5.236-3.982-7.886-5.917s-5.349-3.919-8.043-5.878l-8-5.795c-2.586-1.871-5.163-3.772-7.9-5.432q-2.248-1.357-4.609-2.5a29.788,29.788,0,0,0-4.761-1.959c-.049,0-.073.059-.029.083,1.347.754,2.763,1.386,4.124,2.111s2.674,1.469,3.982,2.263c2.714,1.646,5.275,3.517,7.837,5.388,5.349,3.845,10.683,7.7,16.066,11.5,3.012,2.121,5.966,4.359,9.091,6.309.1.059.2-.093.122-.167" transform="translate(-76.335 -132.274)" fill="#29373e"/>
        <path id="Tracé_6196" data-name="Tracé 6196" d="M369.245,292.554a29.505,29.505,0,0,0-1.5,5.207c.039.093,0,.421-.049.328-.039.289-.49.191-.451-.1.024-.186.049-.372.078-.553-.9-1.4-2.322-2.371-3.429-3.62a7.085,7.085,0,0,1-1.714-3.5c-.642-3.586.691-7.171-.157-10.776-.73-3.105-2.336-5.9-3.639-8.782a19.794,19.794,0,0,1-2.062-9.556c.171-2.581.843-5.976,3-7.7,2.292-1.827,4.7-.024,6.1,1.959,4.051,5.78,5.476,12.686,5.618,19.593a75.069,75.069,0,0,1-.348,11.5A31.119,31.119,0,0,1,369.245,292.554Z" transform="translate(-181.771 -128.949)" fill="#338338"/>
        <path id="Tracé_6197" data-name="Tracé 6197" d="M372.043,309.016a65.163,65.163,0,0,0,1-10.727l.024-.039c.362-2.89.9-5.75,1.087-8.665a51.61,51.61,0,0,0-.294-9.444c0-.039-.059-.034-.054,0a60.893,60.893,0,0,1,.044,9.214c-.113,1.646-.294,3.282-.553,4.9-.083.529-.191,1.058-.284,1.592a57.71,57.71,0,0,0-6.211-23.717c-.054-.1-.23,0-.181.088a59.769,59.769,0,0,1,5.231,17.634c-1.783-4.34-4.776-8.067-6.858-12.275h-.039c1.768,4.624,5.089,8.479,6.98,13.054.225,1.807.367,3.625.431,5.442a60.284,60.284,0,0,1-.25,7.465c-1.082-2.665-2.229-5.226-3.052-8.009a.059.059,0,0,0-.113.034,29.855,29.855,0,0,0,3.11,8.542c-.171,1.754-.411,3.507-.7,5.246-.769,4.648-2.052,9.184-2.914,13.808a.108.108,0,0,0,.211.044,107.169,107.169,0,0,0,3.38-14.185" transform="translate(-186.195 -138.813)" fill="#1c262b"/>
        <path id="Tracé_6198" data-name="Tracé 6198" d="M376.993,272.734c0-.034-.064,0-.054,0,.6,2.449.833,4.9,1.2,7.386a.093.093,0,0,0,.181,0,25.9,25.9,0,0,0-1.323-7.386" transform="translate(-192.306 -139.136)" fill="#1c262b"/>
        <path id="Tracé_6199" data-name="Tracé 6199" d="M397.769,294.678a35.451,35.451,0,0,1-2.39,3.83c-1.837,2.635-3.708,5.026-4.345,8.249A20,20,0,0,1,389.962,311a13.051,13.051,0,0,1-2.072,3.194c-1.925,2.253-4.232,4.129-6.044,6.485a29.821,29.821,0,0,0-4.408,8.116c-.054.162-.309.088-.255-.069a.132.132,0,0,0,0-.039.036.036,0,0,1,0-.034,61.322,61.322,0,0,1,4.619-20.435,71.985,71.985,0,0,1,4.291-8.249,20.361,20.361,0,0,1,5.256-6.084c1.421-1.034,4.472-2.939,6.2-1.587.828.661.666,1.543.225,2.376" transform="translate(-192.427 -148.888)" fill="#338338"/>
        <path id="Tracé_6200" data-name="Tracé 6200" d="M386.216,315.546a57.52,57.52,0,0,1-4.668,5.388c-.769.813-1.548,1.612-2.317,2.449-.362.382-.764.764-1.1,1.18.264-.715.519-1.43.784-2.145a87.289,87.289,0,0,1,4.212-10.144,71.005,71.005,0,0,1,5.844-8.983c.054-.078-.069-.147-.122-.073-1.734,2.268-3.483,4.531-4.991,6.955a39.938,39.938,0,0,0-2.253,4.2,68.488,68.488,0,0,1,3.38-9.14c0-.029-.025-.054-.039-.024a32.174,32.174,0,0,0-3.5,9.5c-.4.872-.774,1.758-1.132,2.655-1.509,3.786-2.89,7.627-4.2,11.491a42.369,42.369,0,0,1,1.469-7.685c0-.059-.069-.083-.088-.029a24.7,24.7,0,0,0-1.538,8.111q-.744,2.2-1.469,4.408c-1.024,3.145-2.214,6.328-2.939,9.552a.066.066,0,0,0,.125.044l0-.009c.666-1.709,1.146-3.5,1.724-5.246s1.176-3.488,1.778-5.226c.882-2.532,1.788-5.05,2.709-7.573a14.545,14.545,0,0,1,2.165-2.385c.7-.73,1.558-1.6,2.322-2.415a39.879,39.879,0,0,0,3.919-4.839c.01-.015-.049-.049-.073-.015" transform="translate(-189.553 -154.679)" fill="#1c262b"/>
        <path id="Tracé_6201" data-name="Tracé 6201" d="M397.924,322.38a36.515,36.515,0,0,0-4.634,5.878c0,.029.025.064.044.039,1.558-1.959,3.091-3.919,4.648-5.878.025-.029-.029-.088-.059-.039" transform="translate(-200.648 -164.462)" fill="#1c262b"/>
        <path id="Tracé_6202" data-name="Tracé 6202" d="M341.871,295.116c.74,1.651,1.577,3.63.98,5.462-.367,1.156-1.337,2.023-1.621,3.218-.632,2.625,1.837,4.668,3.63,6.128,4.457,3.649,10.732,7.146,10.928,13.656,0,.23.407.216.4,0a.133.133,0,0,0,0-.044s.025,0,.029-.034a24.738,24.738,0,0,0,.94-9.8,31.32,31.32,0,0,0-2.89-9.6c-2.366-5.221-4.9-10.58-8.851-14.807-1.1-1.171-3.37-3.306-4.58-1.053s.127,4.854,1.034,6.867" transform="translate(-173.642 -146.553)" fill="#338338"/>
        <path id="Tracé_6203" data-name="Tracé 6203" d="M350.09,318.742c2.812,3.777,7.661,6.235,9.987,10.374a38.851,38.851,0,0,0-6.755-16.713.127.127,0,0,1,.2-.157,31.485,31.485,0,0,1,5.829,10.7,44.653,44.653,0,0,0-2.165-7.891c-.034-.1.108-.167.152-.069a29.1,29.1,0,0,1,2.3,8.856c2.679,9.1,1.935,19.367.211,28.478,0,.132-.225.113-.206,0,.98-7.225,1.631-14.606.642-21.866-.024-.152-.049-.3-.069-.451-2.537-4.462-7.347-6.911-10.178-11.192-.029-.059.029-.108.059-.069" transform="translate(-178.575 -159.286)" fill="#1c262b"/>
        <path id="Tracé_6204" data-name="Tracé 6204" d="M349.166,319.323c1.509,1.709,2.983,3.429,4.492,5.148,0,0,0,.049-.029.029a24.531,24.531,0,0,1-4.57-5.084c-.044-.078.049-.162.108-.093" transform="translate(-178.076 -162.899)" fill="#1c262b"/>
        <path id="Tracé_6205" data-name="Tracé 6205" d="M350.079,305.738a52.44,52.44,0,0,0,4.266,7.387c0,.029-.025.069-.049.039a24.329,24.329,0,0,1-4.31-7.386.05.05,0,0,1,.093-.039" transform="translate(-178.554 -155.965)" fill="#1c262b"/>
        <path id="Tracé_6206" data-name="Tracé 6206" d="M360.02,387.16H374.7L372.726,367.4H362.278Z" transform="translate(-183.675 -187.44)" fill="#354952"/>
        <path id="Tracé_6207" data-name="Tracé 6207" d="M363.88,370.614h11.139L374.7,367.4H364.247Z" transform="translate(-185.644 -187.44)" fill="#1c262b"/>
        <rect id="Rectangle_4626" data-name="Rectangle 4626" width="13.764" height="3.154" transform="translate(176.806 177.771)" fill="#354952"/>
      </g>
    </g>
  </g>
</svg>
