<svg id="Groupe_2191" data-name="Groupe 2191" xmlns="http://www.w3.org/2000/svg" xmlns:xlink="http://www.w3.org/1999/xlink" width="31.204" height="31.204" viewBox="0 0 31.204 31.204">
  <defs>
    <clipPath id="clip-path">
      <rect id="Rectangle_155" data-name="Rectangle 155" width="31.204" height="31.204" fill="#fff"/>
    </clipPath>
  </defs>
  <g id="Groupe_268" data-name="Groupe 268" transform="translate(0 0)" clip-path="url(#clip-path)">
    <path id="Tracé_119" data-name="Tracé 119" d="M0,23.266V7.595c.054-.293.093-.589.165-.878A8.4,8.4,0,0,1,6.629.242C7.037.134,7.46.079,7.876,0H24.13c.3.05.593.093.887.151A8.445,8.445,0,0,1,32,8.4q.007,7.035-.006,14.07a8.256,8.256,0,0,1-.155,1.645,8.581,8.581,0,0,1-8.513,6.744Q16,30.87,8.676,30.853a7.963,7.963,0,0,1-1.734-.166A8.389,8.389,0,0,1,.25,24.465c-.111-.392-.168-.8-.25-1.2m15.971,5.787c2.385,0,4.771.02,7.155-.012a8.934,8.934,0,0,0,2.092-.27,6.564,6.564,0,0,0,4.911-6.409q.008-6.93-.005-13.86a6.626,6.626,0,0,0-6.871-6.688c-4.833-.016-9.666-.008-14.5,0A6.768,6.768,0,0,0,5.3,2.69,6.416,6.416,0,0,0,1.882,8.53c-.018,4.409-.006,8.818,0,13.227,0,.451.005.9.049,1.354a6.3,6.3,0,0,0,2.519,4.5,6.98,6.98,0,0,0,4.431,1.44h7.093" transform="translate(-0.646 0.351)" fill="#fff"/>
    <path id="Tracé_120" data-name="Tracé 120" d="M101.4,92.625a8.443,8.443,0,1,1-8.776,8.392,8.6,8.6,0,0,1,8.776-8.392m-.016,15.065a6.632,6.632,0,1,0-6.881-6.626,6.751,6.751,0,0,0,6.881,6.626" transform="translate(-86.02 -85.281)" fill="#fff"/>
    <path id="Tracé_121" data-name="Tracé 121" d="M288.441,57.782a2.5,2.5,0,1,1,0-5,2.592,2.592,0,0,1,2.587,2.5,2.563,2.563,0,0,1-2.588,2.492m-.01-3.154a.693.693,0,0,0-.7.664.725.725,0,0,0,.7.675.693.693,0,0,0,.687-.678.664.664,0,0,0-.689-.662" transform="translate(-264.115 -48.451)" fill="#fff"/>
  </g>
</svg>
