<svg id="Groupe_2189" data-name="Groupe 2189" xmlns="http://www.w3.org/2000/svg" xmlns:xlink="http://www.w3.org/1999/xlink" width="195" height="69.762" viewBox="0 0 195 69.762">
  <defs>
    <clipPath id="clip-path">
      <rect id="Rectangle_4693" data-name="Rectangle 4693" width="195" height="69.762" fill="#fff"/>
    </clipPath>
  </defs>
  <g id="Groupe_1503" data-name="Groupe 1503" clip-path="url(#clip-path)">
    <path id="Tracé_6890" data-name="Tracé 6890" d="M3.467,174.659q.541-.064,1.242-.127t1.242-.064a18.042,18.042,0,0,1,2.548.191l5,18.054,5.063-18.054a16.775,16.775,0,0,1,2.42-.191,16.149,16.149,0,0,1,2.388.191L15.98,197.553q-.669.1-1.29.143t-1.322.048q-.636,0-1.242-.048t-1.337-.143Z" transform="translate(-2.547 -128.173)" fill="#fff"/>
    <path id="Tracé_6891" data-name="Tracé 6891" d="M89.789,182.855H87.656a7.213,7.213,0,0,1-.143-.876,8.518,8.518,0,0,1-.048-.876,7.228,7.228,0,0,1,.191-1.688h6.56v16.462a13.559,13.559,0,0,1-2.229.191,13.375,13.375,0,0,1-2.2-.191Zm-.86-8.343a12.239,12.239,0,0,1,.191-2.133q.541-.1,1.162-.143t1.13-.048q.541,0,1.178.048t1.178.143a9.482,9.482,0,0,1,.128,1.067q.031.525.032,1.067,0,.51-.032,1.051a9.449,9.449,0,0,1-.128,1.083,9.441,9.441,0,0,1-1.162.127q-.621.032-1.162.032-.509,0-1.146-.032a9.474,9.474,0,0,1-1.178-.127,12.605,12.605,0,0,1-.191-2.133" transform="translate(-64.256 -126.498)" fill="#fff"/>
    <path id="Tracé_6892" data-name="Tracé 6892" d="M132.992,199.357a7.438,7.438,0,0,1,4.728-1.369,14.274,14.274,0,0,1,4.9.892,8.722,8.722,0,0,1-.318,1.719,8.288,8.288,0,0,1-.6,1.56,12.646,12.646,0,0,0-1.688-.557,7.731,7.731,0,0,0-1.942-.239,3.521,3.521,0,0,0-1.688.334,1.13,1.13,0,0,0-.605,1.067,1.1,1.1,0,0,0,.43.987,5.018,5.018,0,0,0,1.226.541l1.815.541a6.715,6.715,0,0,1,2.85,1.528,4.37,4.37,0,0,1,1.067,3.28,4.891,4.891,0,0,1-.876,2.834,5.885,5.885,0,0,1-2.484,2.006,9.29,9.29,0,0,1-3.869.732,15.573,15.573,0,0,1-2.627-.191,12.608,12.608,0,0,1-2.4-.7,10.91,10.91,0,0,1,.923-3.439,13.207,13.207,0,0,0,1.99.621,9.054,9.054,0,0,0,1.958.207,5.688,5.688,0,0,0,1.289-.159,3.15,3.15,0,0,0,1.194-.541,1.468,1.468,0,0,0,.048-2.181,4.467,4.467,0,0,0-1.29-.589l-1.974-.573a6.3,6.3,0,0,1-2.786-1.512,4.087,4.087,0,0,1-1-3.009,4.558,4.558,0,0,1,1.735-3.789" transform="translate(-96.171 -145.453)" fill="#fff"/>
    <path id="Tracé_6893" data-name="Tracé 6893" d="M191.43,182.855H189.3a7.219,7.219,0,0,1-.143-.876,8.522,8.522,0,0,1-.048-.876,7.229,7.229,0,0,1,.191-1.688h6.56v16.462a13.559,13.559,0,0,1-2.229.191,13.375,13.375,0,0,1-2.2-.191Zm-.86-8.343a12.234,12.234,0,0,1,.191-2.133q.541-.1,1.162-.143t1.13-.048q.541,0,1.178.048t1.178.143a9.485,9.485,0,0,1,.128,1.067q.031.525.032,1.067,0,.51-.032,1.051a9.452,9.452,0,0,1-.128,1.083,9.441,9.441,0,0,1-1.162.127q-.62.032-1.162.032-.509,0-1.146-.032a9.473,9.473,0,0,1-1.178-.127,12.6,12.6,0,0,1-.191-2.133" transform="translate(-138.927 -126.498)" fill="#fff"/>
    <path id="Tracé_6894" data-name="Tracé 6894" d="M235.38,181.308h.732v4.808h3.853a7.694,7.694,0,0,1,.127.86q.031.382.032.8,0,.446-.032.86a8.654,8.654,0,0,1-.127.923h-3.853v6.464a3.681,3.681,0,0,0,.621,2.547,2.473,2.473,0,0,0,1.8.6,5.493,5.493,0,0,0,.939-.08q.461-.079.812-.143a6.276,6.276,0,0,1,.319,1.258,8.13,8.13,0,0,1,.1,1.162q0,.351-.016.589t-.048.462q-.733.16-1.481.255a12.2,12.2,0,0,1-1.545.1,6.472,6.472,0,0,1-4.426-1.353q-1.528-1.353-1.528-4.41v-7.451h-2.07l-.159-.637Z" transform="translate(-168.549 -133.198)" fill="#fff"/>
    <path id="Tracé_6895" data-name="Tracé 6895" d="M286.906,174.659a14.906,14.906,0,0,1,2.324-.191,14.7,14.7,0,0,1,2.356.191v22.894a14.508,14.508,0,0,1-2.324.191,15.1,15.1,0,0,1-2.356-.191Z" transform="translate(-210.776 -128.173)" fill="#fff"/>
    <path id="Tracé_6896" data-name="Tracé 6896" d="M325.38,181.308h.732v4.808h3.853a7.687,7.687,0,0,1,.127.86q.031.382.032.8,0,.446-.032.86a8.646,8.646,0,0,1-.127.923h-3.853v6.464a3.681,3.681,0,0,0,.621,2.547,2.473,2.473,0,0,0,1.8.6,5.493,5.493,0,0,0,.939-.08q.461-.079.812-.143a6.269,6.269,0,0,1,.319,1.258,8.136,8.136,0,0,1,.1,1.162q0,.351-.016.589t-.047.462q-.733.16-1.481.255a12.2,12.2,0,0,1-1.545.1,6.472,6.472,0,0,1-4.426-1.353q-1.528-1.353-1.528-4.41v-7.451h-2.07l-.159-.637Z" transform="translate(-234.667 -133.198)" fill="#fff"/>
    <path id="Tracé_6897" data-name="Tracé 6897" d="M373.316,182.943H370.7a8.577,8.577,0,0,1-.127-.923q-.032-.414-.032-.86,0-.414.032-.8a7.626,7.626,0,0,1,.127-.86h2.611v-.8a6.164,6.164,0,0,1,1.783-4.728,6.566,6.566,0,0,1,4.68-1.672,13.676,13.676,0,0,1,1.608.08,9.038,9.038,0,0,1,1.417.3,17.834,17.834,0,0,1-.207,1.895,8.722,8.722,0,0,1-.462,1.672q-.351-.063-.732-.143a5.239,5.239,0,0,0-1.019-.08,3.087,3.087,0,0,0-1.847.525,2.659,2.659,0,0,0-.732,2.245v.7h3.821a8.689,8.689,0,0,1,.128.923c.021.276.032.563.032.86,0,.276-.011.541-.032.8a7.694,7.694,0,0,1-.128.86h-3.821v13.023a13.556,13.556,0,0,1-2.229.191,13.731,13.731,0,0,1-2.261-.191Z" transform="translate(-272.223 -126.587)" fill="#fff"/>
    <path id="Tracé_6898" data-name="Tracé 6898" d="M423.006,202.239a6.948,6.948,0,0,1,2.627-3.1,9.149,9.149,0,0,1,8.868,0,6.984,6.984,0,0,1,2.611,3.1,10.863,10.863,0,0,1,.859,4.41,10.665,10.665,0,0,1-.859,4.362,6.9,6.9,0,0,1-2.611,3.073,9.262,9.262,0,0,1-8.868,0,6.863,6.863,0,0,1-2.627-3.073,10.665,10.665,0,0,1-.86-4.362,10.863,10.863,0,0,1,.86-4.41m7.037-.716a2.715,2.715,0,0,0-2.531,1.321,9.673,9.673,0,0,0,0,7.61,2.713,2.713,0,0,0,2.531,1.321,2.744,2.744,0,0,0,2.563-1.321,9.667,9.667,0,0,0,0-7.61,2.745,2.745,0,0,0-2.563-1.321" transform="translate(-310.131 -145.453)" fill="#fff"/>
    <path id="Tracé_6899" data-name="Tracé 6899" d="M500.026,198.9q.477-.1.907-.143a8.537,8.537,0,0,1,.939-.048,6.914,6.914,0,0,1,.939.064q.461.064.908.159a3.366,3.366,0,0,1,.318,1.1q.127.781.191,1.226a8.2,8.2,0,0,1,1.687-1.751,3.768,3.768,0,0,1,2.388-.8q.446,0,.828.032a6.289,6.289,0,0,1,.7.1,6.253,6.253,0,0,1,.1.732q.032.414.032.86,0,.542-.047,1.178a8.578,8.578,0,0,1-.175,1.21,4.408,4.408,0,0,0-.78-.064h-.525a6.546,6.546,0,0,0-1.21.127,3.125,3.125,0,0,0-1.274.573,3.225,3.225,0,0,0-1,1.417,7.289,7.289,0,0,0-.4,2.691v7.833a10.527,10.527,0,0,1-1.146.127q-.574.031-1.114.032t-1.1-.032q-.558-.032-1.162-.127Z" transform="translate(-367.346 -145.981)" fill="#fff"/>
    <path id="Tracé_6900" data-name="Tracé 6900" d="M553,174.659a16.981,16.981,0,0,1,2.452-.191,15.3,15.3,0,0,1,2.452.191l5.254,13.119,5.413-13.119a11.922,11.922,0,0,1,2.2-.191,13.381,13.381,0,0,1,2.325.191l1.083,22.894a14.324,14.324,0,0,1-2.293.191,11.9,11.9,0,0,1-2.133-.191l-.573-15.539-4.649,10.762q-.446.064-.923.111t-.955.048q-.415,0-.828-.032a6.41,6.41,0,0,1-.86-.127l-4.33-10.985-.446,15.762a10.374,10.374,0,0,1-1.974.191,12.452,12.452,0,0,1-2.1-.191Z" transform="translate(-405.607 -128.173)" fill="#fff"/>
    <path id="Tracé_6901" data-name="Tracé 6901" d="M653.573,202.318a7.45,7.45,0,0,1,2.675-3.152,7.722,7.722,0,0,1,4.378-1.178,7.138,7.138,0,0,1,3.916,1.035,6.632,6.632,0,0,1,2.468,2.818,9.27,9.27,0,0,1,.844,4.012q0,.605-.048,1.194t-.111.939H657.124a3.465,3.465,0,0,0,1.337,2.77,5.381,5.381,0,0,0,3.184.86,12.384,12.384,0,0,0,4.363-.8,7.444,7.444,0,0,1,.6,1.528,7.825,7.825,0,0,1,.287,1.911,15.514,15.514,0,0,1-5.6.955,9.9,9.9,0,0,1-4.967-1.1,6.561,6.561,0,0,1-2.786-3.025,11.239,11.239,0,0,1,.032-8.772m9.17.048a2.68,2.68,0,0,0-2.181-.939,3.141,3.141,0,0,0-2.42.892,4.187,4.187,0,0,0-.987,2.516h6.432a4.013,4.013,0,0,0-.844-2.468" transform="translate(-479.483 -145.453)" fill="#fff"/>
    <path id="Tracé_6902" data-name="Tracé 6902" d="M0,81.28H21.53L49.061,64.691,77.3,81.28,48,55.867,19.06,76.691Z" transform="translate(0 -41.043)" fill="#fff"/>
    <path id="Tracé_6903" data-name="Tracé 6903" d="M299.928,26.3V37.061L332.4,0Z" transform="translate(-220.343 0)" fill="#fff"/>
    <path id="Tracé_6904" data-name="Tracé 6904" d="M218.993,78.1V67.162L192.874,55.867Z" transform="translate(-141.695 -41.043)" fill="#fff"/>
    <path id="Tracé_6905" data-name="Tracé 6905" d="M415.343,40.239H373.7L336.283,9.886,299.927,40.239,335.577,0l22.058,18.959V7.415l6.53,7.411v9.749L378.284,36.71Z" transform="translate(-220.343 -0.003)" fill="#fff"/>
    <rect id="Rectangle_4685" data-name="Rectangle 4685" width="5.072" height="5.072" transform="translate(42.355 30.8)" fill="#fff"/>
    <rect id="Rectangle_4686" data-name="Rectangle 4686" width="5.072" height="5.072" transform="translate(48.643 30.8)" fill="#fff"/>
    <rect id="Rectangle_4687" data-name="Rectangle 4687" width="5.072" height="5.072" transform="translate(42.355 37.06)" fill="#fff"/>
    <rect id="Rectangle_4688" data-name="Rectangle 4688" width="5.072" height="5.072" transform="translate(48.643 37.06)" fill="#fff"/>
    <rect id="Rectangle_4689" data-name="Rectangle 4689" width="8.352" height="8.352" transform="translate(105.527 22.491)" fill="#fff"/>
    <rect id="Rectangle_4690" data-name="Rectangle 4690" width="8.352" height="8.352" transform="translate(115.882 22.491)" fill="#fff"/>
    <rect id="Rectangle_4691" data-name="Rectangle 4691" width="8.352" height="8.352" transform="translate(105.527 32.801)" fill="#fff"/>
    <rect id="Rectangle_4692" data-name="Rectangle 4692" width="8.352" height="8.352" transform="translate(115.882 32.801)" fill="#fff"/>
  </g>
</svg>
