<svg xmlns="http://www.w3.org/2000/svg" width="1373.811" height="176.423" viewBox="0 0 1373.811 176.423">
  <g id="Groupe_1506" data-name="Groupe 1506" transform="translate(-35.608 -3731.854)" opacity="0.073">
    <path id="Tracé_6890" data-name="Tracé 6890" d="M3.467,175.868q3.964-.467,9.1-.934t9.1-.467a132.2,132.2,0,0,1,18.671,1.4L76.975,308.185l37.107-132.317a122.92,122.92,0,0,1,17.734-1.4,118.331,118.331,0,0,1,17.5,1.4L95.177,343.657q-4.9.7-9.451,1.05t-9.687.35q-4.664,0-9.1-.35t-9.8-1.05Z" transform="translate(32.141 3561.82)" fill="#fff"/>
    <path id="Tracé_6891" data-name="Tracé 6891" d="M104.5,250.365H88.865a52.873,52.873,0,0,1-1.05-6.418,62.438,62.438,0,0,1-.35-6.417,52.976,52.976,0,0,1,1.4-12.368H136.94V345.811a99.362,99.362,0,0,1-16.336,1.4,98.016,98.016,0,0,1-16.1-1.4Zm-6.3-61.141a89.686,89.686,0,0,1,1.4-15.635q3.964-.7,8.518-1.05t8.282-.35q3.967,0,8.636.35t8.633,1.05a69.491,69.491,0,0,1,.935,7.818q.227,3.851.233,7.818,0,3.737-.233,7.7a69.238,69.238,0,0,1-.935,7.934,69.188,69.188,0,0,1-8.518.934q-4.548.236-8.518.233-3.734,0-8.4-.233a69.431,69.431,0,0,1-8.633-.934,92.374,92.374,0,0,1-1.4-15.635" transform="translate(111.494 3559.666)" fill="#fff"/>
    <path id="Tracé_6892" data-name="Tracé 6892" d="M146.191,208.023q12.715-10.032,34.655-10.035a104.609,104.609,0,0,1,35.938,6.534,63.916,63.916,0,0,1-2.334,12.6,60.737,60.737,0,0,1-4.434,11.435,92.678,92.678,0,0,0-12.368-4.084,56.658,56.658,0,0,0-14.235-1.75q-7.937,0-12.368,2.45a8.282,8.282,0,0,0-4.434,7.818q0,5.137,3.15,7.234a36.778,36.778,0,0,0,8.984,3.967l13.3,3.967q13.069,3.734,20.886,11.2t7.818,24.036a35.845,35.845,0,0,1-6.417,20.769q-6.42,9.337-18.2,14.7t-28.354,5.367a114.14,114.14,0,0,1-19.253-1.4,92.4,92.4,0,0,1-17.619-5.134,79.956,79.956,0,0,1,6.768-25.2,96.778,96.778,0,0,0,14.585,4.551,66.354,66.354,0,0,0,14.352,1.517,41.692,41.692,0,0,0,9.449-1.167,23.087,23.087,0,0,0,8.751-3.967,9.332,9.332,0,0,0,3.736-7.934q0-5.6-3.384-8.051a32.742,32.742,0,0,0-9.451-4.317l-14.469-4.2q-13.071-3.731-20.419-11.085t-7.351-22.053q0-17.733,12.718-27.77" transform="translate(152.533 3584.039)" fill="#fff"/>
    <path id="Tracé_6893" data-name="Tracé 6893" d="M206.142,250.365H190.506a52.905,52.905,0,0,1-1.05-6.418,62.467,62.467,0,0,1-.35-6.417,52.977,52.977,0,0,1,1.4-12.368h48.075V345.811a99.363,99.363,0,0,1-16.335,1.4,98.016,98.016,0,0,1-16.1-1.4Zm-6.3-61.141a89.67,89.67,0,0,1,1.4-15.635q3.964-.7,8.518-1.05t8.282-.35q3.967,0,8.636.35t8.633,1.05a69.484,69.484,0,0,1,.935,7.818q.228,3.851.233,7.818,0,3.737-.233,7.7a69.231,69.231,0,0,1-.935,7.934,69.191,69.191,0,0,1-8.518.934q-4.547.236-8.518.233-3.734,0-8.4-.233a69.424,69.424,0,0,1-8.632-.934,92.357,92.357,0,0,1-1.4-15.635" transform="translate(207.514 3559.666)" fill="#fff"/>
    <path id="Tracé_6894" data-name="Tracé 6894" d="M273.065,181.308h5.367v35.238H306.67a56.436,56.436,0,0,1,.933,6.3q.23,2.8.233,5.834,0,3.27-.233,6.3a63.468,63.468,0,0,1-.933,6.768H278.432v47.373q0,14.238,4.551,18.669t13.185,4.434a40.257,40.257,0,0,0,6.885-.583q3.381-.581,5.949-1.05a46,46,0,0,1,2.336,9.218,59.582,59.582,0,0,1,.7,8.518q0,2.57-.119,4.317t-.348,3.384q-5.37,1.17-10.851,1.867a89.391,89.391,0,0,1-11.32.7q-21.236,0-32.436-9.918t-11.2-32.321V241.749H230.593l-1.167-4.667Z" transform="translate(245.604 3568.281)" fill="#fff"/>
    <path id="Tracé_6895" data-name="Tracé 6895" d="M286.906,175.868a109.213,109.213,0,0,1,17.035-1.4,107.748,107.748,0,0,1,17.269,1.4V343.657a106.315,106.315,0,0,1-17.035,1.4,110.65,110.65,0,0,1-17.269-1.4Z" transform="translate(299.906 3561.82)" fill="#fff"/>
    <path id="Tracé_6896" data-name="Tracé 6896" d="M363.065,181.308h5.367v35.238H396.67a56.322,56.322,0,0,1,.933,6.3q.23,2.8.233,5.834,0,3.27-.233,6.3a63.342,63.342,0,0,1-.933,6.768H368.432v47.373q0,14.238,4.551,18.669t13.185,4.434a40.256,40.256,0,0,0,6.884-.583q3.381-.581,5.949-1.05a45.978,45.978,0,0,1,2.336,9.218,59.609,59.609,0,0,1,.7,8.518q0,2.57-.119,4.317t-.348,3.384q-5.37,1.17-10.851,1.867a89.392,89.392,0,0,1-11.32.7q-21.236,0-32.436-9.918t-11.2-32.321V241.749H320.593l-1.167-4.667Z" transform="translate(330.627 3568.281)" fill="#fff"/>
    <path id="Tracé_6897" data-name="Tracé 6897" d="M390.849,250.251H371.711a62.885,62.885,0,0,1-.932-6.768q-.236-3.031-.233-6.3,0-3.031.233-5.834a55.911,55.911,0,0,1,.932-6.3h19.138v-5.834q0-22.4,13.069-34.655t34.3-12.251a100.237,100.237,0,0,1,11.787.583,66.263,66.263,0,0,1,10.385,2.217,130.7,130.7,0,0,1-1.519,13.885,63.918,63.918,0,0,1-3.384,12.252q-2.57-.464-5.367-1.05a38.4,38.4,0,0,0-7.466-.583q-8.174,0-13.535,3.851t-5.367,16.452v5.134h28a63.719,63.719,0,0,1,.936,6.768c.152,2.024.233,4.125.233,6.3,0,2.024-.082,3.967-.233,5.834a56.427,56.427,0,0,1-.936,6.3h-28V345.7a99.365,99.365,0,0,1-16.336,1.4,100.639,100.639,0,0,1-16.569-1.4Z" transform="translate(378.92 3559.779)" fill="#fff"/>
    <path id="Tracé_6898" data-name="Tracé 6898" d="M428.447,229.142A50.917,50.917,0,0,1,447.7,206.389q12.951-8.4,32.321-8.4,19.833,0,32.673,8.4a51.184,51.184,0,0,1,19.136,22.753q6.3,14.352,6.3,32.321a78.165,78.165,0,0,1-6.3,31.971,50.554,50.554,0,0,1-19.136,22.52q-12.84,8.281-32.673,8.284-19.372,0-32.321-8.284a50.3,50.3,0,0,1-19.253-22.52,78.165,78.165,0,0,1-6.3-31.971q0-17.966,6.3-32.321m51.574-5.251q-12.835,0-18.552,9.685t-5.716,27.887q0,18.2,5.716,27.887t18.552,9.685q13.065,0,18.785-9.685t5.72-27.887q0-18.2-5.72-27.887t-18.785-9.685" transform="translate(427.667 3584.039)" fill="#fff"/>
    <path id="Tracé_6899" data-name="Tracé 6899" d="M500.026,200.108q3.5-.7,6.651-1.05a62.578,62.578,0,0,1,6.884-.35,50.673,50.673,0,0,1,6.884.467q3.378.47,6.651,1.167,1.4,2.336,2.332,8.051t1.4,8.984A60.089,60.089,0,0,1,543.2,204.542a27.613,27.613,0,0,1,17.5-5.834q3.267,0,6.068.233a46.105,46.105,0,0,1,5.136.7,45.86,45.86,0,0,1,.7,5.367q.23,3.037.233,6.3,0,3.97-.348,8.634a62.882,62.882,0,0,1-1.284,8.868,32.3,32.3,0,0,0-5.719-.467h-3.849a47.977,47.977,0,0,0-8.869.934,22.9,22.9,0,0,0-9.335,4.2q-4.433,3.27-7.349,10.385t-2.917,19.719v57.408a77.153,77.153,0,0,1-8.4.934q-4.2.23-8.168.233t-8.051-.233q-4.087-.233-8.518-.934Z" transform="translate(501.24 3584.719)" fill="#fff"/>
    <path id="Tracé_6900" data-name="Tracé 6900" d="M558.639,175.868a124.412,124.412,0,0,1,17.969-1.4,112.151,112.151,0,0,1,17.967,1.4l38.5,96.146,39.674-96.146a87.364,87.364,0,0,1,16.1-1.4,98.047,98.047,0,0,1,17.036,1.4l7.937,167.789a104.955,104.955,0,0,1-16.8,1.4,87.168,87.168,0,0,1-15.633-1.4l-4.2-113.881-34.071,78.877q-3.271.47-6.768.817t-7,.35q-3.04,0-6.068-.233a46.955,46.955,0,0,1-6.3-.933l-31.737-80.511-3.267,115.515a76.026,76.026,0,0,1-14.469,1.4,91.238,91.238,0,0,1-15.4-1.4Z" transform="translate(550.441 3561.82)" fill="#fff"/>
    <path id="Tracé_6901" data-name="Tracé 6901" d="M659.315,229.726a54.591,54.591,0,0,1,19.6-23.1q12.948-8.632,32.087-8.635,16.8,0,28.7,7.584a48.606,48.606,0,0,1,18.085,20.653,67.944,67.944,0,0,1,6.187,29.4q0,4.437-.352,8.751t-.817,6.884H685.335q.931,14,9.8,20.3t23.337,6.3a90.763,90.763,0,0,0,31.973-5.834,54.512,54.512,0,0,1,4.432,11.2,57.346,57.346,0,0,1,2.1,14q-18.2,7-41.072,7-22.4,0-36.4-8.051a48.085,48.085,0,0,1-20.42-22.17q-6.421-14.116-6.415-32.087a76.209,76.209,0,0,1,6.649-32.2m67.209.35q-5.721-6.881-15.986-6.884-11.671,0-17.735,6.534t-7.234,18.436H732.71q-.47-11.2-6.186-18.086" transform="translate(645.439 3584.039)" fill="#fff"/>
  </g>
</svg>
