<svg id="Groupe_2192" data-name="Groupe 2192" xmlns="http://www.w3.org/2000/svg" xmlns:xlink="http://www.w3.org/1999/xlink" width="30.867" height="31.554" viewBox="0 0 30.867 31.554">
  <defs>
    <clipPath id="clip-path">
      <rect id="Rectangle_156" data-name="Rectangle 156" width="30.867" height="31.554" fill="#fff"/>
    </clipPath>
  </defs>
  <g id="Groupe_270" data-name="Groupe 270" transform="translate(0 0)" clip-path="url(#clip-path)">
    <path id="Tracé_122" data-name="Tracé 122" d="M29.86,0q-1.72,2.012-3.441,4.023-3.974,4.625-7.952,9.246c-.02.023-.037.049-.073.1L30.867,31.52c-.107.011-.181.026-.256.026q-4.343,0-8.686,0a.422.422,0,0,1-.4-.213Q17.5,25.462,13.463,19.595c-.057-.083-.119-.164-.2-.273-.455.526-.9,1.034-1.335,1.545q-4.467,5.2-8.93,10.4a.746.746,0,0,1-.653.292c-.756-.02-1.513-.007-2.345-.007L12.05,17.539l-2.337-3.4Q4.947,7.2.181.265A2.7,2.7,0,0,1,.038,0H9.219c.027.044.051.088.08.13q3.866,5.627,7.733,11.252c.039.057.084.109.145.187.108-.122.2-.226.295-.332q4.376-5.085,8.749-10.171c.3-.347.578-.71.866-1.066H29.86M27.114,29.58c-.081-.127-.131-.213-.187-.293q-9.44-13.5-18.878-27.011a.459.459,0,0,0-.428-.225c-1.2.009-2.4,0-3.6.005-.076,0-.152.015-.27.027.087.126.149.218.212.308q9.407,13.456,18.81,26.915a.554.554,0,0,0,.519.281c1.16-.015,2.32-.007,3.48-.007h.344" fill="#fff"/>
  </g>
</svg>
