<svg id="Groupe_2193" data-name="Groupe 2193" xmlns="http://www.w3.org/2000/svg" xmlns:xlink="http://www.w3.org/1999/xlink" width="39.66" height="29.929" viewBox="0 0 39.66 29.929">
  <defs>
    <clipPath id="clip-path">
      <rect id="Rectangle_176" data-name="Rectangle 176" width="39.66" height="29.929" fill="#fff"/>
    </clipPath>
  </defs>
  <g id="Groupe_327" data-name="Groupe 327" clip-path="url(#clip-path)">
    <path id="Tracé_141" data-name="Tracé 141" d="M39.66,18.584c-.051.8-.1,1.591-.152,2.387a18.849,18.849,0,0,1-.469,3.6,5.9,5.9,0,0,1-4.937,4.81,24.249,24.249,0,0,1-3.274.262c-3.571.122-7.143.317-10.713.287C15.7,29.888,11.3,29.674,6.89,29.49A7.244,7.244,0,0,1,3.146,28.4a6.069,6.069,0,0,1-2.509-3.81,27.081,27.081,0,0,1-.561-5.88A88.93,88.93,0,0,1,.331,7.033a8.156,8.156,0,0,1,1.55-4.351A5.507,5.507,0,0,1,5.743.484C7.808.283,9.883.142,11.957.1c4.165-.08,8.332-.131,12.5-.086,2.951.031,5.9.2,8.851.379a6,6,0,0,1,4.67,2.455,6.623,6.623,0,0,1,1.2,3.109c.2,1.48.279,2.975.409,4.463.028.32.052.64.078.959ZM20.7,2.2c-3.647.088-6.433.136-9.218.23-1.688.057-3.378.138-5.06.291A3.589,3.589,0,0,0,3.107,5.259a12.916,12.916,0,0,0-.6,3.57,101.035,101.035,0,0,0,.011,12.263,23.441,23.441,0,0,0,.456,3.167,3.345,3.345,0,0,0,.935,1.79,3.99,3.99,0,0,0,2.483,1.042c1.36.13,2.723.245,4.088.3,6.228.249,12.457.308,18.686.013,1.494-.071,2.991-.14,4.475-.311a3.294,3.294,0,0,0,2.853-2.233,12.628,12.628,0,0,0,.688-3.9,103.7,103.7,0,0,0,.066-10.6,19.027,19.027,0,0,0-.523-4.716,3.824,3.824,0,0,0-1.252-2.079,4.847,4.847,0,0,0-2.866-.9C28.353,2.481,24.1,2.331,20.7,2.2" transform="translate(0 0)" fill="#fff"/>
    <path id="Tracé_142" data-name="Tracé 142" d="M152.7,90.784c0-1.51,0-3.019,0-4.529a1.623,1.623,0,0,1,2.545-1.525c2.806,1.529,5.6,3.072,8.411,4.6a1.643,1.643,0,0,1-.027,3.039c-2.8,1.495-5.584,3-8.378,4.5a1.625,1.625,0,0,1-2.55-1.516c0-1.523,0-3.045,0-4.568m2.343,3.56,6.523-3.507-6.523-3.57Z" transform="translate(-137.898 -76.267)" fill="#fff"/>
  </g>
</svg>
